<svg version="1.1" xmlns="http://www.w3.org/2000/svg" xmlns:xlink="http://www.w3.org/1999/xlink">
<style type="text/css">

	.st0{fill:#17056B;}
	.st1{fill:none;stroke:#AA927F;}
	.st2{fill:#AA927F;}
	.st3{fill:#CCBDB2;}
	.st4{fill:#FFFFFF;}
	.st5{font-family:'Crimson-Italic';}
	.st6{font-size:16px;}
	#mask{fill-opacity:1 !important;}
	#chocolate{fill:#CCBDB2;}
	#drag{opacity:0;}
}
</style>


<mask id="mask">
	<rect x="0" y="0" width="153" height="198" fill="#FFFFFF"/>
</mask>
<g id="point">
	<path class="st1" d="M72.5,141c3,0,5.5,2.5,5.5,5.5c0,3-2.5,5.5-5.5,5.5c-3,0-5.5-2.5-5.5-5.5C67,143.5,69.5,141,72.5,141z"/>
	<path class="st2" d="M72.5,145c0.8,0,1.5,0.7,1.5,1.5s-0.7,1.5-1.5,1.5s-1.5-0.7-1.5-1.5S71.7,145,72.5,145z"/>
</g>
<g mask="url(#mask)" id="container">
	<path id="chocolate" class="st3" d="M144.1,89v1.9h-9.4v-15h9.1v1.9h-7v4.6h6.8v1.9h-6.8V89H144.1z M125.8,90.9h-2.2V77.8h-5.6v-2
		h13.3v2h-5.6V90.9z M116.4,90.9l-2-4.4H108l-1.9,4.4h-2.2l6.6-15h1.6l6.7,15H116.4z M111.1,79.1l-2.3,5.4h4.7L111.1,79.1z
		 M92.1,75.9h2.1V89h7.2v1.9h-9.4V75.9z M85.6,88.9c-0.8,0.7-1.7,1.3-2.6,1.7c-1,0.4-2,0.6-3.1,0.6c-1.1,0-2.1-0.2-3.1-0.6
		c-1-0.4-1.9-1-2.6-1.7c-0.8-0.8-1.4-1.6-1.8-2.5c-0.4-0.9-0.6-2-0.6-3c0-1,0.2-2,0.6-2.9c0.4-0.9,1-1.8,1.8-2.5
		c0.8-0.7,1.6-1.3,2.6-1.7c1-0.4,2-0.6,3.1-0.6c1.1,0,2.1,0.2,3.1,0.6c1,0.4,1.9,1,2.6,1.7c0.8,0.8,1.4,1.6,1.8,2.5
		c0.4,0.9,0.6,1.9,0.6,3c0,1-0.2,2-0.6,2.9C86.9,87.4,86.4,88.2,85.6,88.9z M85.2,81.2c-0.3-0.7-0.7-1.3-1.3-1.9
		c-0.5-0.6-1.2-1-1.9-1.3c-0.7-0.3-1.4-0.4-2.2-0.4c-0.8,0-1.5,0.1-2.2,0.4s-1.3,0.7-1.9,1.3c-0.5,0.5-1,1.1-1.2,1.8
		c-0.3,0.7-0.4,1.4-0.4,2.2c0,0.8,0.1,1.5,0.4,2.2c0.3,0.7,0.7,1.3,1.2,1.8c0.5,0.5,1.1,0.9,1.9,1.2c0.7,0.3,1.5,0.4,2.2,0.4
		c0.8,0,1.5-0.1,2.2-0.4c0.7-0.3,1.3-0.7,1.9-1.3c0.5-0.5,1-1.2,1.3-1.8s0.4-1.4,0.4-2.2C85.6,82.6,85.5,81.9,85.2,81.2z M63.2,91.2
		c-0.9,0-1.7-0.1-2.5-0.3c-0.8-0.2-1.5-0.6-2.2-1c-1.1-0.7-2-1.7-2.6-2.8c-0.6-1.1-0.9-2.4-0.9-3.7c0-1,0.2-2,0.6-2.9
		c0.4-0.9,1-1.8,1.8-2.5c0.8-0.8,1.7-1.3,2.7-1.7s2.1-0.6,3.3-0.6c0.9,0,1.7,0.1,2.5,0.3c0.8,0.2,1.7,0.5,2.6,0.9v2.3
		c-1-0.5-1.9-0.9-2.7-1.1c-0.8-0.2-1.7-0.4-2.5-0.4c-1.8,0-3.2,0.5-4.4,1.6c-1.2,1.1-1.7,2.5-1.7,4.1c0,1.6,0.6,3,1.7,4.1
		c1.1,1.1,2.6,1.6,4.3,1.6c0.9,0,1.8-0.1,2.7-0.4c0.9-0.3,1.8-0.7,2.8-1.3v2.4c-0.9,0.5-1.8,0.8-2.7,1S64.2,91.2,63.2,91.2z
		 M49.4,88.9c-0.8,0.7-1.7,1.3-2.6,1.7c-1,0.4-2,0.6-3.1,0.6c-1.1,0-2.1-0.2-3.1-0.6c-1-0.4-1.9-1-2.6-1.7c-0.8-0.8-1.4-1.6-1.8-2.5
		c-0.4-0.9-0.6-2-0.6-3c0-1,0.2-2,0.6-2.9c0.4-0.9,1-1.8,1.8-2.5c0.8-0.7,1.6-1.3,2.6-1.7c1-0.4,2-0.6,3.1-0.6
		c1.1,0,2.1,0.2,3.1,0.6c1,0.4,1.9,1,2.6,1.7c0.8,0.8,1.4,1.6,1.8,2.5c0.4,0.9,0.6,1.9,0.6,3c0,1-0.2,2-0.6,2.9
		C50.7,87.4,50.1,88.2,49.4,88.9z M49,81.2c-0.3-0.7-0.7-1.3-1.3-1.9c-0.5-0.6-1.2-1-1.9-1.3c-0.7-0.3-1.4-0.4-2.2-0.4
		c-0.8,0-1.5,0.1-2.2,0.4c-0.7,0.3-1.3,0.7-1.9,1.3c-0.5,0.5-1,1.1-1.2,1.8c-0.3,0.7-0.4,1.4-0.4,2.2c0,0.8,0.1,1.5,0.4,2.2
		c0.3,0.7,0.7,1.3,1.2,1.8c0.5,0.5,1.1,0.9,1.9,1.2c0.7,0.3,1.5,0.4,2.2,0.4c0.8,0,1.5-0.1,2.2-0.4c0.7-0.3,1.3-0.7,1.9-1.3
		c0.5-0.5,1-1.2,1.3-1.8c0.3-0.7,0.4-1.4,0.4-2.2C49.4,82.6,49.3,81.9,49,81.2z M29.2,84.4h-8.8v6.5h-2.1v-15h2.1v6.5h8.8v-6.5h2.2
		v15h-2.2V84.4z M8.5,91.2c-0.9,0-1.7-0.1-2.5-0.3c-0.8-0.2-1.5-0.6-2.2-1c-1.1-0.7-2-1.7-2.6-2.8c-0.6-1.1-0.9-2.4-0.9-3.7
		c0-1,0.2-2,0.6-2.9c0.4-0.9,1-1.8,1.8-2.5c0.8-0.8,1.7-1.3,2.7-1.7c1-0.4,2.1-0.6,3.3-0.6c0.9,0,1.7,0.1,2.5,0.3
		c0.8,0.2,1.7,0.5,2.6,0.9v2.3c-1-0.5-1.9-0.9-2.7-1.1c-0.8-0.2-1.7-0.4-2.5-0.4c-1.8,0-3.2,0.5-4.4,1.6s-1.7,2.5-1.7,4.1
		c0,1.6,0.6,3,1.7,4.1c1.1,1.1,2.6,1.6,4.3,1.6c0.9,0,1.8-0.1,2.7-0.4c0.9-0.3,1.8-0.7,2.8-1.3v2.4c-0.9,0.5-1.8,0.8-2.7,1
		C10.3,91,9.4,91.2,8.5,91.2z"/>
	<path id="our" class="st4" d="M95.4,66.9c-0.1,0-0.3,0-0.4,0c-1.6,0-2.6-1-3.4-2c-1-1.4-1.3-2-1.8-2.2c-0.1,0-0.3-0.1-0.5-0.1
		c-0.2,0-0.3,0-0.3,0.2v2c0,0.3,0,0.9,0.1,1.2c0.1,0.3,1,0.4,1.1,0.4c0,0,0.1,0.1,0.1,0.2c0,0.1,0,0.2,0,0.2c-0.6,0-1-0.1-1.8-0.1
		c-0.9,0-1.7,0.1-1.7,0.1c0,0,0-0.1,0-0.2c0-0.1,0-0.2,0-0.2c0.2,0,0.8-0.1,1-0.3c0.1-0.2,0.1-0.8,0.1-1.3v-5.2c0-0.2,0-0.9-0.1-1.2
		c-0.1-0.2-0.8-0.3-1-0.3c0,0-0.1-0.1-0.1-0.2c0-0.1,0-0.2,0.1-0.2l1.7,0c0.8,0,1.1-0.1,1.9-0.1c1.1,0,3,0.6,3,2.5
		c0,0.7-0.6,1.7-1.6,2.2c-0.1,0-0.1,0.1-0.1,0.1c0.2,0.3,0.7,1.4,1.6,2.4c0.7,0.8,1.5,1.4,2.2,1.4c0,0.1,0,0.1,0,0.2
		C95.5,66.8,95.5,66.8,95.4,66.9z M92.1,60.4c0-1.3-0.7-1.9-1.9-1.9c-0.3,0-0.8,0-1,0.1c-0.1,0-0.2,0.2-0.2,1.5v1.7
		c0,0.4,0.6,0.4,1.2,0.4h0.3C91.1,62.1,92.1,61.6,92.1,60.4z M76.3,58.5c-0.1,0.4-0.1,0.8-0.1,1.3v3.3c0,3-1.5,3.8-3.5,3.8
		c-2.1,0-3.4-1.1-3.4-4v-3.1c0-0.2,0-0.9-0.1-1.2c-0.1-0.2-0.8-0.3-0.9-0.3c0,0-0.1-0.1-0.1-0.2c0-0.1,0-0.2,0.1-0.2
		c0.6,0,1,0.1,1.7,0.1c0.6,0,1,0,1.6-0.1c0,0,0,0.1,0,0.2c0,0.1,0,0.2-0.1,0.2c-0.1,0-0.8,0.1-0.9,0.3c-0.1,0.4-0.1,0.8-0.1,1.3v3
		c0,2,0.9,3.4,2.5,3.4c1.3,0,2.4-0.7,2.4-3.1v-3.4c0-0.2,0-0.9-0.1-1.2c-0.1-0.2-0.9-0.3-1.1-0.3c-0.1,0-0.1-0.3,0-0.4
		c0.6,0,1,0.1,1.6,0.1c0.6,0,1-0.1,1.5-0.1c0,0,0,0.1,0,0.2c0,0.1,0,0.2-0.1,0.2C77.3,58.2,76.4,58.4,76.3,58.5z M54.3,67
		c-2.4,0-4.4-2.1-4.4-4.6c0-2.6,2-4.6,4.4-4.6c2.4,0,4.4,2.1,4.4,4.6C58.7,65,56.7,67,54.3,67z M54.1,58.4c-1.9,0-2.8,1.9-2.8,3.8
		c0,2.1,1.1,4.3,3.3,4.3c1.9,0,2.8-1.9,2.8-3.8C57.3,60.6,56.2,58.4,54.1,58.4z"/>
	<image style="overflow:visible;" width="1" height="136" id="path" xlink:href="../../assets/svg/124C0BAB.png"  transform="matrix(1 0 0 1 72 6)"></image>
	<path id="arrow" class="st2" d="M76,3.3L75.3,4c0,0-0.1,0-0.1,0l-2.7-2.6L69.8,4c0,0-0.1,0-0.1,0L69,3.3c0,0,0,0,0-0.1l2.8-2.6l0,0
		L72.5,0c0,0,0.1,0,0.1,0l0.7,0.7c0,0,0,0,0,0L76,3.3C76,3.3,76,3.3,76,3.3z"/>
	<text id="drag" transform="matrix(1 0 0 1 32 81.937)" class="st3 st5 st6">click and drag</text>
</g>

</svg>
