<?xml version="1.0" encoding="utf-8"?>
<!-- Generator: Adobe Illustrator 21.0.0, SVG Export Plug-In . SVG Version: 6.00 Build 0)  -->
<svg version="1.1" id="FROM_COCOA_1_" xmlns="http://www.w3.org/2000/svg" xmlns:xlink="http://www.w3.org/1999/xlink">
<mask id="mask-cocoa">
	<rect x="-11" y="19" class="st0" width="389" height="158"/>
</mask>
<g id="container" mask="url(#mask-cocoa)">
	<image style="overflow:visible;" width="1" height="136" id="path" xlink:href="../../assets/svg/124C0BAB.png"  transform="matrix(1 0 0 1 181 15)"></image>
	<g id="haute" class="st1">
		<path class="st2" d="M4.4,101.9v-15h2.1v6.5h8.8v-6.5h2.2v15h-2.2v-6.5H6.5v6.5H4.4z"/>
		<path class="st2" d="M19.6,101.9l6.6-15h1.6l6.7,15h-2.2l-2-4.4h-6.5l-1.9,4.4H19.6z M24.6,95.5h4.7l-2.4-5.4L24.6,95.5z"/>
		<path class="st2" d="M36,86.9h2.2v8.6c0,1,0.1,1.6,0.2,2s0.3,0.7,0.5,1c0.4,0.5,1,0.9,1.6,1.2s1.3,0.4,2.1,0.4
			c1.3,0,2.4-0.3,3.2-1s1.2-1.6,1.2-2.7v-9.6h2.2v9.7c0,1.7-0.6,3-1.8,4.1c-1.2,1-2.8,1.6-4.7,1.6c-1.1,0-2.2-0.2-3.1-0.6
			s-1.7-1-2.3-1.8c-0.4-0.5-0.7-1-0.8-1.6c-0.2-0.6-0.2-1.5-0.2-2.6V86.9z"/>
		<path class="st2" d="M57.4,101.9V88.8h-5.6v-2h13.3v2h-5.6v13.1H57.4z"/>
		<path class="st2" d="M67.9,101.9v-15H77v1.9h-7v4.6h6.8v1.9h-6.8v4.7h7.2v1.9H67.9z"/>
		<path class="st2" d="M100.5,98.3v2.4c-0.9,0.5-1.8,0.8-2.7,1c-0.9,0.2-1.8,0.4-2.7,0.4c-0.9,0-1.7-0.1-2.5-0.3
			c-0.8-0.2-1.5-0.6-2.2-1c-1.1-0.7-2-1.7-2.6-2.8s-0.9-2.4-0.9-3.7c0-1,0.2-2,0.6-2.9c0.4-0.9,1-1.8,1.8-2.5
			c0.8-0.8,1.7-1.3,2.7-1.7c1-0.4,2.1-0.6,3.3-0.6c0.9,0,1.7,0.1,2.5,0.3c0.8,0.2,1.7,0.5,2.6,0.9v2.3c-1-0.5-1.9-0.9-2.7-1.1
			c-0.8-0.2-1.7-0.4-2.5-0.4c-1.8,0-3.2,0.5-4.4,1.6s-1.7,2.5-1.7,4.1c0,1.6,0.6,3,1.7,4.1s2.6,1.6,4.3,1.6c0.9,0,1.8-0.1,2.7-0.4
			C98.7,99.4,99.6,98.9,100.5,98.3z"/>
		<path class="st2" d="M103.2,94.3c0-1,0.2-2,0.6-2.9c0.4-0.9,1-1.8,1.8-2.5c0.8-0.7,1.6-1.3,2.6-1.7c1-0.4,2-0.6,3.1-0.6
			c1.1,0,2.1,0.2,3.1,0.6c1,0.4,1.9,1,2.6,1.7c0.8,0.8,1.4,1.6,1.8,2.5c0.4,0.9,0.6,1.9,0.6,3c0,1-0.2,2-0.6,2.9
			c-0.4,0.9-1,1.8-1.7,2.5c-0.8,0.7-1.7,1.3-2.6,1.7s-2,0.6-3.1,0.6c-1.1,0-2.1-0.2-3.1-0.6s-1.9-1-2.6-1.7
			c-0.8-0.8-1.4-1.6-1.8-2.5S103.2,95.4,103.2,94.3z M105.5,94.4c0,0.8,0.1,1.5,0.4,2.2s0.7,1.3,1.2,1.8c0.5,0.5,1.1,1,1.9,1.2
			c0.7,0.3,1.5,0.4,2.2,0.4c0.8,0,1.5-0.1,2.2-0.4c0.7-0.3,1.3-0.7,1.9-1.3c0.5-0.5,1-1.2,1.3-1.8s0.4-1.4,0.4-2.2s-0.1-1.5-0.4-2.2
			s-0.7-1.3-1.3-1.9c-0.5-0.6-1.2-1-1.9-1.3c-0.7-0.3-1.4-0.4-2.2-0.4c-0.8,0-1.5,0.1-2.2,0.4c-0.7,0.3-1.3,0.7-1.9,1.3
			c-0.5,0.5-1,1.1-1.2,1.8S105.5,93.6,105.5,94.4z"/>
		<path class="st2" d="M122.7,86.9h2.2v8.6c0,1,0.1,1.6,0.2,2s0.3,0.7,0.5,1c0.4,0.5,1,0.9,1.6,1.2s1.3,0.4,2.1,0.4
			c1.3,0,2.4-0.3,3.2-1s1.2-1.6,1.2-2.7v-9.6h2.2v9.7c0,1.7-0.6,3-1.8,4.1c-1.2,1-2.8,1.6-4.7,1.6c-1.1,0-2.2-0.2-3.1-0.6
			s-1.7-1-2.3-1.8c-0.4-0.5-0.7-1-0.8-1.6c-0.2-0.6-0.2-1.5-0.2-2.6V86.9z"/>
		<path class="st2" d="M144.1,101.9V88.8h-5.6v-2h13.3v2h-5.6v13.1H144.1z"/>
		<path class="st2" d="M154.5,86.9h2.2v8.6c0,1,0.1,1.6,0.2,2s0.3,0.7,0.5,1c0.4,0.5,1,0.9,1.6,1.2s1.3,0.4,2.1,0.4
			c1.3,0,2.4-0.3,3.2-1s1.2-1.6,1.2-2.7v-9.6h2.2v9.7c0,1.7-0.6,3-1.8,4.1c-1.2,1-2.8,1.6-4.7,1.6c-1.1,0-2.2-0.2-3.1-0.6
			s-1.7-1-2.3-1.8c-0.4-0.5-0.7-1-0.8-1.6c-0.2-0.6-0.2-1.5-0.2-2.6V86.9z"/>
		<path class="st2" d="M171.7,101.9v-15h4.4c1.5,0,2.7,0.4,3.5,1.1c0.8,0.7,1.2,1.7,1.2,3c0,1-0.2,1.8-0.7,2.4s-1.2,1.1-2.2,1.4
			c0.3,0.1,0.5,0.3,0.7,0.5c0.2,0.2,0.5,0.6,0.9,1.1l3.7,5.5h-2.6l-2.6-3.9c-0.8-1.2-1.4-1.9-1.9-2.3c-0.5-0.3-1.1-0.5-1.7-0.5h-0.7
			v6.7H171.7z M173.9,93.4h1.8c1,0,1.8-0.2,2.3-0.6c0.5-0.4,0.8-1,0.8-1.8c0-0.8-0.2-1.4-0.7-1.8c-0.5-0.4-1.2-0.6-2.3-0.6h-1.8
			V93.4z"/>
		<path class="st2" d="M185.3,101.9v-15h9.1v1.9h-7v4.6h6.8v1.9h-6.8v4.7h7.2v1.9H185.3z"/>
		<path class="st2" d="M217.9,98.3v2.4c-0.9,0.5-1.8,0.8-2.7,1c-0.9,0.2-1.8,0.4-2.7,0.4c-0.9,0-1.7-0.1-2.5-0.3
			c-0.8-0.2-1.5-0.6-2.2-1c-1.1-0.7-2-1.7-2.6-2.8c-0.6-1.1-0.9-2.4-0.9-3.7c0-1,0.2-2,0.6-2.9s1-1.8,1.8-2.5
			c0.8-0.8,1.7-1.3,2.7-1.7c1-0.4,2.1-0.6,3.3-0.6c0.9,0,1.7,0.1,2.5,0.3s1.7,0.5,2.6,0.9v2.3c-1-0.5-1.9-0.9-2.7-1.1
			c-0.8-0.2-1.7-0.4-2.5-0.4c-1.8,0-3.2,0.5-4.4,1.6s-1.7,2.5-1.7,4.1c0,1.6,0.6,3,1.7,4.1c1.1,1.1,2.6,1.6,4.3,1.6
			c0.9,0,1.8-0.1,2.7-0.4C216,99.4,216.9,98.9,217.9,98.3z"/>
		<path class="st2" d="M221.4,101.9v-15h2.1v6.5h8.8v-6.5h2.2v15h-2.2v-6.5h-8.8v6.5H221.4z"/>
		<path class="st2" d="M237.8,94.3c0-1,0.2-2,0.6-2.9s1-1.8,1.8-2.5c0.8-0.7,1.6-1.3,2.6-1.7s2-0.6,3.1-0.6c1.1,0,2.1,0.2,3.1,0.6
			c1,0.4,1.9,1,2.6,1.7c0.8,0.8,1.4,1.6,1.8,2.5s0.6,1.9,0.6,3c0,1-0.2,2-0.6,2.9c-0.4,0.9-1,1.8-1.7,2.5c-0.8,0.7-1.7,1.3-2.6,1.7
			s-2,0.6-3.1,0.6c-1.1,0-2.1-0.2-3.1-0.6s-1.9-1-2.6-1.7c-0.8-0.8-1.4-1.6-1.8-2.5S237.8,95.4,237.8,94.3z M240.2,94.4
			c0,0.8,0.1,1.5,0.4,2.2s0.7,1.3,1.2,1.8c0.5,0.5,1.1,1,1.9,1.2c0.7,0.3,1.5,0.4,2.2,0.4c0.8,0,1.5-0.1,2.2-0.4
			c0.7-0.3,1.3-0.7,1.9-1.3c0.5-0.5,1-1.2,1.3-1.8s0.4-1.4,0.4-2.2s-0.1-1.5-0.4-2.2s-0.7-1.3-1.3-1.9c-0.5-0.6-1.2-1-1.9-1.3
			c-0.7-0.3-1.4-0.4-2.2-0.4c-0.8,0-1.5,0.1-2.2,0.4c-0.7,0.3-1.3,0.7-1.9,1.3c-0.5,0.5-1,1.1-1.2,1.8S240.2,93.6,240.2,94.4z"/>
		<path class="st2" d="M270.4,98.3v2.4c-0.9,0.5-1.8,0.8-2.7,1c-0.9,0.2-1.8,0.4-2.7,0.4c-0.9,0-1.7-0.1-2.5-0.3
			c-0.8-0.2-1.5-0.6-2.2-1c-1.1-0.7-2-1.7-2.6-2.8s-0.9-2.4-0.9-3.7c0-1,0.2-2,0.6-2.9s1-1.8,1.8-2.5c0.8-0.8,1.7-1.3,2.7-1.7
			c1-0.4,2.1-0.6,3.3-0.6c0.9,0,1.7,0.1,2.5,0.3c0.8,0.2,1.7,0.5,2.6,0.9v2.3c-1-0.5-1.9-0.9-2.7-1.1c-0.8-0.2-1.7-0.4-2.5-0.4
			c-1.8,0-3.2,0.5-4.4,1.6c-1.2,1.1-1.7,2.5-1.7,4.1c0,1.6,0.6,3,1.7,4.1s2.6,1.6,4.3,1.6c0.9,0,1.8-0.1,2.7-0.4
			C268.5,99.4,269.5,98.9,270.4,98.3z"/>
		<path class="st2" d="M273.1,94.3c0-1,0.2-2,0.6-2.9s1-1.8,1.8-2.5c0.8-0.7,1.6-1.3,2.6-1.7s2-0.6,3.1-0.6c1.1,0,2.1,0.2,3.1,0.6
			c1,0.4,1.9,1,2.6,1.7c0.8,0.8,1.4,1.6,1.8,2.5s0.6,1.9,0.6,3c0,1-0.2,2-0.6,2.9c-0.4,0.9-1,1.8-1.7,2.5c-0.8,0.7-1.7,1.3-2.6,1.7
			s-2,0.6-3.1,0.6c-1.1,0-2.1-0.2-3.1-0.6s-1.9-1-2.6-1.7c-0.8-0.8-1.4-1.6-1.8-2.5S273.1,95.4,273.1,94.3z M275.4,94.4
			c0,0.8,0.1,1.5,0.4,2.2s0.7,1.3,1.2,1.8c0.5,0.5,1.1,1,1.9,1.2c0.7,0.3,1.5,0.4,2.2,0.4c0.8,0,1.5-0.1,2.2-0.4
			c0.7-0.3,1.3-0.7,1.9-1.3c0.5-0.5,1-1.2,1.3-1.8s0.4-1.4,0.4-2.2s-0.1-1.5-0.4-2.2s-0.7-1.3-1.3-1.9c-0.5-0.6-1.2-1-1.9-1.3
			c-0.7-0.3-1.4-0.4-2.2-0.4c-0.8,0-1.5,0.1-2.2,0.4c-0.7,0.3-1.3,0.7-1.9,1.3c-0.5,0.5-1,1.1-1.2,1.8S275.4,93.6,275.4,94.4z"/>
		<path class="st2" d="M292.7,101.9v-15h2.1V100h7.2v1.9H292.7z"/>
		<path class="st2" d="M302.8,101.9l6.6-15h1.6l6.7,15h-2.2l-2-4.4h-6.5l-1.9,4.4H302.8z M307.8,95.5h4.7l-2.4-5.4L307.8,95.5z"/>
		<path class="st2" d="M322.2,101.9V88.8h-5.6v-2h13.3v2h-5.6v13.1H322.2z"/>
		<path class="st2" d="M332.7,101.9v-15h9.1v1.9h-7v4.6h6.8v1.9h-6.8v4.7h7.2v1.9H332.7z"/>
	</g>
	<g id="from" class="st1">
		<path class="st3" d="M81.8,66.8c0.1,0.7,0.3,1.2,0.4,1.9c0,0-0.2,0.1-0.2,0.1s-0.2,0-0.2-0.1c-0.3-1.1-0.9-1.2-1.6-1.2h-0.9
			c-0.6,0-1.2,0-1.2,0.2C78,67.9,78,68.5,78,68.8V71c0,0.1,0.3,0.1,0.6,0.1h0.7c1.3,0,1.3-0.1,1.5-1c0-0.1,0.1-0.1,0.2-0.1
			s0.2,0,0.2,0.1v2.7c0,0-0.1,0.1-0.2,0.1s-0.2,0-0.2-0.1c-0.2-0.8-0.3-0.8-0.4-0.9c-0.2-0.1-0.9-0.1-1.5-0.1c-0.4,0-1,0-1,0.1V74
			c0,0.5,0,0.9,0.1,1.3c0,0.2,0.8,0.3,0.9,0.3c0,0,0.1,0.1,0.1,0.2c0,0.1,0,0.2,0,0.2c-0.6,0-1-0.1-1.6-0.1c-0.6,0-1,0-1.7,0.1
			c0,0-0.1-0.1-0.1-0.2s0-0.2,0.1-0.2c0.2,0,0.9-0.1,0.9-0.3c0.1-0.3,0.1-1,0.1-1.2v-5.3c0-0.2,0-0.9-0.1-1.2
			c-0.1-0.2-0.8-0.3-1-0.3c0,0-0.1-0.1-0.1-0.2s0-0.2,0.1-0.2c0,0,0.7,0,1.6,0C78.7,66.9,80.3,66.8,81.8,66.8z"/>
		<path class="st3" d="M97.9,69.4c0,0.7-0.6,1.7-1.6,2.2c-0.1,0-0.1,0.1-0.1,0.1c0.2,0.3,0.7,1.4,1.6,2.4c0.7,0.8,1.5,1.4,2.2,1.4
			c0,0.1,0,0.1,0,0.2c0,0.1,0,0.1,0,0.2c-0.1,0-0.3,0-0.4,0c-1.6,0-2.6-1-3.4-2c-1-1.4-1.3-2-1.8-2.2c-0.1,0-0.3-0.1-0.5-0.1
			c-0.2,0-0.3,0-0.3,0.2v2c0,0.3,0,0.9,0.1,1.2s1,0.4,1.1,0.4c0,0,0.1,0.1,0.1,0.2c0,0.1,0,0.2,0,0.2c-0.6,0-1-0.1-1.8-0.1
			c-0.9,0-1.7,0.1-1.7,0.1c0,0,0-0.1,0-0.2c0-0.1,0-0.2,0-0.2c0.2,0,0.8-0.1,1-0.3c0.1-0.2,0.1-0.8,0.1-1.3v-5.2
			c0-0.2,0-0.9-0.1-1.2c-0.1-0.2-0.8-0.3-1-0.3c0,0-0.1-0.1-0.1-0.2s0-0.2,0.1-0.2l1.7,0c0.8,0,1.1-0.1,1.9-0.1
			C96,66.9,97.9,67.5,97.9,69.4z M93.7,67.6c-0.1,0-0.2,0.2-0.2,1.5v1.7c0,0.4,0.6,0.4,1.2,0.4h0.3c0.5,0,1.5-0.6,1.5-1.8
			c0-1.3-0.7-1.9-1.9-1.9C94.3,67.5,93.9,67.5,93.7,67.6z"/>
		<path class="st3" d="M112.8,66.8c2.4,0,4.4,2.1,4.4,4.6s-2,4.6-4.4,4.6c-2.4,0-4.4-2.1-4.4-4.6S110.4,66.8,112.8,66.8z
			 M109.7,71.1c0,2.1,1.1,4.3,3.3,4.3c1.9,0,2.8-1.9,2.8-3.8c0-2.1-1.1-4.3-3.3-4.3C110.7,67.4,109.7,69.3,109.7,71.1z"/>
		<path class="st3" d="M129.4,66.8c0.3,0.9,1.8,4.4,2.7,6.8c0,0,0,0,0.1,0c0,0,0.1,0,0.1-0.1c0,0,1.4-3.1,2.2-5.2
			c0.2-0.6,0.6-1.6,0.6-1.6c0.4,0,0.9,0.1,1.1,0.1c0.5,0,1.2,0,1.5-0.1c0,0,0,0.1,0,0.2c0,0.1,0,0.2-0.1,0.2h0
			c-0.2,0-0.6,0.1-0.8,0.3c-0.1,0.1-0.2,0.6-0.2,0.9c0,0.3,0.1,3.8,0.1,5.6c0,0.5,0.1,0.9,0.2,1.3c0.1,0.2,0.8,0.3,0.9,0.3
			c0,0,0.1,0.1,0.1,0.2c0,0.1,0,0.2,0,0.2c-0.6,0-1-0.1-1.6-0.1c-0.6,0-1,0-1.7,0.1c0,0-0.1-0.1-0.1-0.2s0-0.2,0.1-0.2
			c0.2,0,0.7-0.1,0.8-0.2c0.1-0.1,0.2-0.4,0.2-0.6s0-0.5,0-0.7l-0.2-4.8c0-0.2-0.1-0.8-0.2-0.8c0,0,0,0-0.1,0.1l-2.9,6.8
			c-0.1,0.1-0.3,0.6-0.5,0.6c0,0-0.1,0-0.1,0l-3.2-8c-0.1,3-0.2,6.8-0.2,6.9c0,0.1,0,0.3,0.1,0.4c0.1,0.2,1,0.3,1.1,0.3
			c0,0,0.1,0.1,0.1,0.2c0,0.1,0,0.2,0,0.2c-0.6,0-1-0.1-1.6-0.1c-0.6,0-1,0-1.6,0.1c0,0-0.1-0.1-0.1-0.2s0-0.2,0.1-0.2
			c0.2,0,0.9-0.1,1.1-0.3c0.2-0.2,0.2-0.7,0.2-1.2c0.1-3.3,0.2-5.4,0.2-6c0-0.2,0-0.4-0.1-0.5c-0.1-0.2-0.9-0.3-1.1-0.3
			c0,0-0.1-0.1-0.1-0.2s0-0.2,0.1-0.2c0.6,0,0.9,0.1,1.5,0.1C128.6,66.9,129.1,66.9,129.4,66.8z"/>
		<path class="st3" d="M165.8,75.4c-0.8,0.5-2,0.6-3.3,0.6c-2.4,0-4.4-2.1-4.4-4.5c0-2.6,2-4.7,4.5-4.7c0.9,0,2.3,0.1,3.4,0.3
			c0,0,0,1.8,0,2s-0.2,0.2-0.3,0.2c-0.1,0-0.2,0-0.2-0.1c-0.1-0.4-0.5-1.9-2.8-1.9c-1.9,0-3.3,1.9-3.3,3.9c0,2.1,1.2,4.2,3.6,4.2
			c0.9,0,1.7-0.3,2.1-0.8c0.4-0.5,0.6-1.3,0.7-1.3c0.2,0,0.5,0.1,0.5,0.1C166.2,73.5,165.9,75.3,165.8,75.4z"/>
		<path class="st3" d="M179.5,66.8c2.4,0,4.4,2.1,4.4,4.6s-2,4.6-4.4,4.6c-2.4,0-4.4-2.1-4.4-4.6S177.1,66.8,179.5,66.8z
			 M176.5,71.1c0,2.1,1.1,4.3,3.3,4.3c1.9,0,2.8-1.9,2.8-3.8c0-2.1-1.1-4.3-3.3-4.3C177.5,67.4,176.5,69.3,176.5,71.1z"/>
		<path class="st3" d="M200.8,75.4c-0.8,0.5-2,0.6-3.3,0.6c-2.4,0-4.4-2.1-4.4-4.5c0-2.6,2-4.7,4.5-4.7c0.9,0,2.3,0.1,3.4,0.3
			c0,0,0,1.8,0,2s-0.2,0.2-0.3,0.2c-0.1,0-0.2,0-0.2-0.1c-0.1-0.4-0.5-1.9-2.8-1.9c-1.9,0-3.3,1.9-3.3,3.9c0,2.1,1.2,4.2,3.6,4.2
			c0.9,0,1.7-0.3,2.1-0.8c0.4-0.5,0.6-1.3,0.7-1.3c0.2,0,0.5,0.1,0.5,0.1C201.3,73.5,200.9,75.3,200.8,75.4z"/>
		<path class="st3" d="M214.6,66.8c2.4,0,4.4,2.1,4.4,4.6s-2,4.6-4.4,4.6c-2.4,0-4.4-2.1-4.4-4.6S212.1,66.8,214.6,66.8z
			 M211.5,71.1c0,2.1,1.1,4.3,3.3,4.3c1.9,0,2.8-1.9,2.8-3.8c0-2.1-1.1-4.3-3.3-4.3C212.5,67.4,211.5,69.3,211.5,71.1z"/>
		<path class="st3" d="M235.4,74.1c0.2,0.5,0.3,0.7,0.4,1c0.1,0.3,0.8,0.5,0.9,0.5c0,0,0.1,0.2,0.1,0.3c0,0.1,0,0.1,0,0.1
			c-0.6,0-0.9-0.1-1.5-0.1c-0.6,0-1,0-1.6,0.1c-0.1-0.1-0.1-0.4,0-0.4c0.2,0,0.6-0.1,0.7-0.2c0-0.1,0-0.1,0-0.2
			c0-0.4-0.2-0.9-0.2-0.9l-0.6-1.5c0,0,0-0.1-0.1-0.1c-0.4,0-0.7,0-1,0c-0.6,0-1.1,0-1.8,0.1c0,0-0.1,0-0.1,0l-0.6,1.5
			c-0.2,0.5-0.2,0.8-0.2,0.9c0,0.2,0,0.2,0.1,0.3c0.2,0.2,0.7,0.2,0.8,0.2c0.1,0,0.1,0.3,0,0.4c-0.6,0-0.8-0.1-1.4-0.1
			c-0.6,0-0.8,0-1.4,0.1c0,0-0.1-0.1-0.1-0.2s0-0.2,0.1-0.2c0.2,0,0.6-0.1,0.8-0.3c0.3-0.4,0.5-0.8,0.6-1.3l2.4-6.1
			c0.2-0.5,0.3-1.1,0.7-1.1c0,0,0.1,0,0.1,0L235.4,74.1z M232,71.8c0.4,0,0.8,0,1.3,0c0,0,0-0.1,0-0.1l-1.1-3l-1.2,3
			c0,0,0,0.1,0,0.1C231.4,71.8,231.7,71.8,232,71.8z"/>
		<path class="st3" d="M263.8,66.9c0.2,0,0.7-0.1,1-0.2l0.3,2c0,0-0.2,0.1-0.3,0.1c-0.1,0-0.1,0-0.1-0.1c-0.3-1-0.5-1.2-1.5-1.2
			c-1.1,0-1.5,0.1-1.5,0.2c-0.1,0.4-0.1,0.8-0.1,1.4V74c0,0.5,0,0.9,0.1,1.3c0,0.2,0.8,0.3,0.9,0.3c0,0,0.1,0.1,0.1,0.2
			c0,0.1,0,0.2,0,0.2c-0.6,0-1-0.1-1.6-0.1c-0.6,0-1,0-1.7,0.1c0,0-0.1-0.1-0.1-0.2s0-0.2,0.1-0.2c0.2,0,0.9-0.1,0.9-0.3
			c0.1-0.3,0.1-1,0.1-1.2v-4.9c0-0.5,0-1.2-0.1-1.4c-0.1-0.1-0.4-0.2-1.5-0.2c-1.1,0-1.3,0.2-1.5,1.2c0,0.1-0.1,0.1-0.1,0.1
			c-0.1,0-0.3-0.1-0.3-0.1l0.3-2c0.2,0.1,0.8,0.2,1,0.2c1.2,0,1.9,0.1,3,0.1C261.9,66.9,262.6,66.9,263.8,66.9z"/>
		<path class="st3" d="M278.4,66.8c2.4,0,4.4,2.1,4.4,4.6s-2,4.6-4.4,4.6c-2.4,0-4.4-2.1-4.4-4.6S275.9,66.8,278.4,66.8z
			 M275.3,71.1c0,2.1,1.1,4.3,3.3,4.3c1.9,0,2.8-1.9,2.8-3.8c0-2.1-1.1-4.3-3.3-4.3C276.3,67.4,275.3,69.3,275.3,71.1z"/>
	</g>
	<g id="drag" class="st1">
		<path class="st4" d="M124.3,84.7c0,0.1,0,0.2,0,0.3c0,0.4-0.2,0.7-0.5,0.7c-0.5,0-0.5-0.9-1-0.9c-0.8,0-2.1,1.5-2.1,3.6
			c0,0.5,0,1.7,1,1.7c0.7,0,1.4-0.8,1.5-0.9c0,0,0.2,0.3,0.2,0.4c-0.2,0.3-1.2,1.5-2.2,1.5c-1.1,0-1.7-0.9-1.7-2.4
			c0-2,1.9-4.5,3.5-4.5C123.4,84.2,123.9,84.4,124.3,84.7z"/>
		<path class="st4" d="M129.4,81.9c0-0.1,0-0.4,0-0.4c0-0.3-0.7-0.3-1-0.3c0,0,0-0.1,0-0.1c0-0.1,0.1-0.3,0.1-0.3
			c0.9-0.1,1.7-0.3,2-0.4c0.1,0,0.1,0.2,0.1,0.3c0,0.1-0.1,0.8-0.2,1.2l-1.5,7.6c0,0.1,0,0.3,0,0.4c0,0.1,0,0.4,0.2,0.4
			c0.3,0,1-0.8,1-0.9c0,0,0.2,0.3,0.2,0.4c-0.2,0.3-1.2,1.5-2,1.5c-0.3,0-0.5-0.3-0.5-0.8c0-0.1,0-0.5,0.1-0.8L129.4,81.9z"/>
		<path class="st4" d="M136.7,85c0,0.1,0,0.5-0.1,0.8l-0.7,3.5c0,0.1,0,0.3,0,0.4c0,0.1,0,0.4,0.2,0.4c0.3,0,1-0.8,1-0.9
			c0,0,0.2,0.3,0.2,0.4c-0.2,0.3-1.2,1.5-2,1.5c-0.3,0-0.5-0.3-0.5-0.8c0-0.1,0-0.5,0.1-0.8l0.6-3.3c0-0.1,0.1-0.5,0.1-0.6
			c0-0.1,0-0.4-0.2-0.4c-0.3,0-0.8,0.7-0.9,0.7c0,0-0.2-0.3-0.2-0.4c0.2-0.3,1.2-1.3,1.8-1.3C136.5,84.2,136.7,84.5,136.7,85z
			 M137.2,81.5c0,0.5-0.4,0.9-0.8,0.9c-0.3,0-0.5-0.3-0.5-0.7c0-0.5,0.3-0.9,0.8-0.9C137,80.9,137.2,81.2,137.2,81.5z"/>
		<path class="st4" d="M146.1,84.7c0,0.1,0,0.2,0,0.3c0,0.4-0.2,0.7-0.5,0.7c-0.5,0-0.5-0.9-1-0.9c-0.8,0-2.1,1.5-2.1,3.6
			c0,0.5,0,1.7,1,1.7c0.7,0,1.4-0.8,1.5-0.9c0,0,0.2,0.3,0.2,0.4c-0.2,0.3-1.2,1.5-2.2,1.5c-1.1,0-1.7-0.9-1.7-2.4
			c0-2,1.9-4.5,3.5-4.5C145.2,84.2,145.7,84.4,146.1,84.7z"/>
		<path class="st4" d="M155.5,85.3c0,1.4-1.5,2.3-3.2,2.6c1.4,2.1,1.9,2.3,2.3,2.3c0.4,0,0.8-0.5,0.9-0.7c0.1,0,0.3,0.2,0.3,0.3
			c-0.1,0.2-0.8,1.3-1.5,1.3c-1.2,0-2.3-1.9-2.9-3l-0.6,3c-0.2,0-0.3,0.1-0.5,0.1s-0.3,0-0.5-0.1l1.7-8.7c0.1-0.3,0.1-0.7,0.1-0.8
			c0-0.3-0.7-0.3-1-0.3c0,0,0-0.1,0-0.1c0-0.1,0.1-0.3,0.1-0.3c0.9-0.1,1.6-0.3,2-0.4c0.1,0,0.1,0.2,0.1,0.3c0,0.1-0.1,0.8-0.2,1.2
			l-0.8,4.2c0.1-0.1,1.3-1.8,2.6-1.8C154.9,84.2,155.5,84.7,155.5,85.3z M151.5,87.4C151.5,87.4,151.5,87.4,151.5,87.4
			c0,0,2.9-0.2,2.9-1.8c0-0.5-0.2-0.7-0.6-0.7C153,84.9,151.5,87,151.5,87.4z"/>
		<path class="st4" d="M172.1,84.4l-1,4.9c0,0.1,0,0.3,0,0.4c0,0.1,0,0.4,0.2,0.4c0.3,0,1-0.8,1-0.9c0,0,0.2,0.3,0.2,0.4
			c-0.2,0.3-1.2,1.5-2,1.5c-0.3,0-0.5-0.3-0.5-0.8c0-0.1,0-0.5,0.1-0.8c0.1-0.3,0.1-0.3,0.1-0.4c-0.3,0.6-1.3,2-2.2,2
			c-1,0-1.5-1-1.5-2.1c0-2.3,2.3-4.8,4.5-4.8C171.5,84.2,171.8,84.3,172.1,84.4z M167.6,88.6c0,1,0.3,1.5,0.8,1.5
			c0.8,0,1.9-2,2.2-3.5l0.3-1.6c-0.1-0.2-0.4-0.2-0.6-0.2C169.1,84.9,167.6,86.8,167.6,88.6z"/>
		<path class="st4" d="M179,85c0,0.1,0,0.5-0.1,0.8l-0.3,1.4c0.2-0.4,2.2-3.1,3.2-3.1c0.6,0,0.8,0.4,0.8,1c0,0.6-0.1,1.1-0.2,1.7
			l-0.5,2.4c0,0.1,0,0.3,0,0.4c0,0.1,0,0.4,0.2,0.4c0.3,0,1-0.8,1-0.9c0,0,0.2,0.3,0.2,0.4c-0.2,0.3-1.2,1.5-2,1.5
			c-0.3,0-0.5-0.3-0.5-0.8c0-0.1,0-0.5,0.1-0.8l0.5-2.6c0-0.1,0.1-0.7,0.1-0.8c0-0.4,0-0.7-0.3-0.7c-0.6,0-2.5,2.1-3,4.4l-0.3,1.2
			c-0.2,0-0.3,0.1-0.5,0.1s-0.3,0-0.5-0.1l0.9-4.8c0-0.1,0.1-0.5,0.1-0.6c0-0.1,0-0.4-0.2-0.4c-0.3,0-0.8,0.7-0.9,0.7
			c0,0-0.2-0.3-0.2-0.4c0.2-0.3,1.2-1.3,1.8-1.3C178.7,84.2,179,84.5,179,85z"/>
		<path class="st4" d="M191.7,84.2l0.4-2.3c0-0.1,0-0.4,0-0.4c0-0.3-0.7-0.3-1-0.3c0,0,0-0.1,0-0.1c0-0.1,0.1-0.3,0.1-0.3
			c0.9-0.1,1.7-0.3,2-0.4c0.1,0,0.1,0.2,0.1,0.3c0,0.1-0.2,0.8-0.2,1.2l-1.5,7.6c0,0.1,0,0.3,0,0.4c0,0.1,0,0.4,0.2,0.4
			c0.3,0,1-0.8,1-0.9c0,0,0.2,0.3,0.2,0.4c-0.2,0.3-1.2,1.5-2,1.5c-0.3,0-0.5-0.3-0.5-0.8c0-0.1,0-0.5,0.1-0.8
			c0.1-0.3,0.1-0.3,0.1-0.4c-0.3,0.4-1.3,2-2.2,2c-1,0-1.5-1-1.5-2.1c0-2.3,2.4-4.8,4.4-4.8C191.9,84.2,191.7,84.2,191.7,84.2z
			 M191,84.9c-1.3,0-2.7,1.9-2.7,3.7c0,0.9,0.2,1.5,0.8,1.5c0.8,0,1.9-2,2.2-3.5l0.2-1C191.5,85.3,191.4,84.9,191,84.9z"/>
		<path class="st4" d="M208.5,84.2l0.4-2.3c0-0.1,0-0.4,0-0.4c0-0.3-0.7-0.3-1-0.3c0,0,0-0.1,0-0.1c0-0.1,0.1-0.3,0.1-0.3
			c0.9-0.1,1.7-0.3,2-0.4c0.1,0,0.1,0.2,0.1,0.3c0,0.1-0.2,0.8-0.2,1.2l-1.5,7.6c0,0.1,0,0.3,0,0.4c0,0.1,0,0.4,0.2,0.4
			c0.3,0,1-0.8,1-0.9c0,0,0.2,0.3,0.2,0.4c-0.2,0.3-1.2,1.5-2,1.5c-0.3,0-0.5-0.3-0.5-0.8c0-0.1,0-0.5,0.1-0.8
			c0.1-0.3,0.1-0.3,0.1-0.4c-0.3,0.4-1.3,2-2.2,2c-1,0-1.5-1-1.5-2.1c0-2.3,2.4-4.8,4.4-4.8C208.7,84.2,208.4,84.2,208.5,84.2z
			 M207.7,84.9c-1.3,0-2.7,1.9-2.7,3.7c0,0.9,0.2,1.5,0.8,1.5c0.8,0,1.9-2,2.2-3.5l0.2-1C208.3,85.3,208.2,84.9,207.7,84.9z"/>
		<path class="st4" d="M216.7,85c0,0.1,0,0.5-0.1,0.8l-0.3,1.3c0.4-1,1.7-3,2.5-3c0.4,0,0.6,0.1,0.9,0.5c0,0.5,0,1-0.6,1
			c-0.3,0-0.3-0.4-0.7-0.4c-0.6,0-2.2,2.2-2.5,4l-0.3,1.6c-0.2,0-0.3,0-0.5,0c-0.2,0-0.4,0-0.6,0l0.9-4.8c0-0.1,0.1-0.5,0.1-0.6
			c0-0.1,0-0.4-0.2-0.4c-0.3,0-0.8,0.7-0.9,0.7c0,0-0.2-0.3-0.2-0.4c0.2-0.3,1.2-1.3,1.8-1.3C216.5,84.2,216.7,84.5,216.7,85z"/>
		<path class="st4" d="M228,84.4l-1,4.9c0,0.1,0,0.3,0,0.4c0,0.1,0,0.4,0.2,0.4c0.3,0,1-0.8,1-0.9c0,0,0.2,0.3,0.2,0.4
			c-0.2,0.3-1.2,1.5-2,1.5c-0.3,0-0.5-0.3-0.5-0.8c0-0.1,0-0.5,0.1-0.8c0.1-0.3,0.1-0.3,0.1-0.4c-0.3,0.6-1.3,2-2.2,2
			c-1,0-1.5-1-1.5-2.1c0-2.3,2.3-4.8,4.5-4.8C227.4,84.2,227.7,84.3,228,84.4z M223.5,88.6c0,1,0.3,1.5,0.8,1.5c0.8,0,1.9-2,2.2-3.5
			l0.3-1.6c-0.1-0.2-0.4-0.2-0.6-0.2C225,84.9,223.5,86.8,223.5,88.6z"/>
		<path class="st4" d="M237.9,84.6h0.7c0.1,0,0.1,0,0.1,0.1c0,0.1-0.1,0.4-0.2,0.5h-0.9c-0.1,0-0.1,0-0.1,0.1c0,0.1,0.1,0.4,0.1,0.8
			c0,1.7-1.1,2.4-1.4,2.6c-0.5,0.3-1.6,0.7-1.6,1.1c0,0.5,3,0.6,3,2.4c0,1.5-1.4,2.4-3.7,2.4c-1.4,0-2.4-0.6-2.4-1.5
			c0-1.1,1.3-1.8,2.3-2.2l-0.3-0.2c-0.2-0.1-0.4-0.3-0.4-0.6c0-0.4,1-0.9,1.6-1.1c-0.5,0-1.8-0.5-1.8-1.7c0-1.8,1.5-3.2,3-3.2
			C236.7,84.2,236.8,84.6,237.9,84.6z M234.3,91.1c-0.6,0.3-1.8,0.7-1.8,1.6c0,0.9,0.8,1.3,2.1,1.3c1,0,1.9-0.5,1.9-1.1
			C236.5,91.9,235.2,91.4,234.3,91.1z M234,87.1c0,0.8,0.3,1.4,1,1.4c0.9,0,1.5-1.2,1.5-2.2c0-0.8-0.3-1.6-0.9-1.6
			C234.6,84.8,234,86.1,234,87.1z"/>
	</g>
	<g id="arrow" class="st5">
		<g>
			<path class="st4" d="M185,160.7l-0.7-0.7h-0.1l-2.7,2.6l-2.7-2.6h-0.1l-0.7,0.7v0.1l2.8,2.6l0,0l0.7,0.7h0.1l0.7-0.7l0,0
				L185,160.7L185,160.7z"/>
		</g>
	</g>
</g>
<g id="point">
	<g id="Ellipse_2_copy" class="st6">
		<g>
			<path class="st7" d="M181.5,9c2.5,0,4.5,2,4.5,4.5s-2,4.5-4.5,4.5s-4.5-2-4.5-4.5S179,9,181.5,9 M181.5,8c-3,0-5.5,2.5-5.5,5.5
				s2.5,5.5,5.5,5.5s5.5-2.5,5.5-5.5S184.5,8,181.5,8L181.5,8z"/>
		</g>
	</g>
	<g id="Ellipse_2">
		<g>
			<circle class="st4" cx="181.5" cy="13.5" r="1.5"/>
		</g>
	</g>
</g>
</svg>
