<svg xmlns="http://www.w3.org/2000/svg" viewBox="0 0 140.32 140.32"><defs><style>.cls-1{fill:#fff;}</style></defs><title>instagram</title><g id="Camada_2" data-name="Camada 2"><g id="_3" data-name="3"><path class="cls-1" d="M100.38,140.32H39.94A40,40,0,0,1,0,100.38V39.94A40,40,0,0,1,39.94,0h60.44a40,40,0,0,1,39.94,39.94v60.45A40,40,0,0,1,100.38,140.32ZM39.94,12A27.94,27.94,0,0,0,12,39.94v60.45a27.94,27.94,0,0,0,27.91,27.91h60.44a27.94,27.94,0,0,0,27.91-27.91V39.94A27.94,27.94,0,0,0,100.38,12Z"/><path class="cls-1" d="M70.16,106.09a35.93,35.93,0,1,1,35.93-35.93A36,36,0,0,1,70.16,106.09Zm0-59.83a23.9,23.9,0,1,0,23.9,23.9A23.93,23.93,0,0,0,70.16,46.26Z"/><circle class="cls-1" cx="107.63" cy="32.18" r="8.64"/></g></g></svg>