<?xml version="1.0" encoding="utf-8"?>
<!-- Generator: Adobe Illustrator 21.0.0, SVG Export Plug-In . SVG Version: 6.00 Build 0)  -->
<svg version="1.1" id="Center_1_" xmlns="http://www.w3.org/2000/svg" xmlns:xlink="http://www.w3.org/1999/xlink" x="0px" y="0px"
	 viewBox="0 0 382 353" style="enable-background:new 0 0 382 353;" xml:space="preserve">

<g id="map-center-circle">
	<g id="circles">
		<path class="st1 dashed-circle outer" d="M191,18C191,18,191,18,191,18C190.9,18,190.9,18,191,18c-0.1,0-0.1,0-0.1,0c0,0,0,0,0,0c0,0,0,0,0,0
			c0,0,0,0,0,0c0,0,0,0,0,0c0,0,0,0,0,0c0,0,0,0,0,0c0,0,0,0,0,0c0,0,0,0,0,0c0,0,0,0,0,0c0,0,0,0,0,0c0,0,0,0,0,0c0,0,0,0,0,0
			c0,0,0,0,0,0c0,0,0,0,0,0c0,0,0,0,0,0c0,0,0,0,0,0c0,0,0,0,0,0c0,0,0,0,0,0c0,0,0,0,0,0c0,0,0,0,0,0c0,0,0,0,0,0c0,0,0,0,0,0
			c0,0,0,0,0,0c0,0,0,0,0,0c0,0,0,0,0,0c0,0,0,0,0,0c0,0,0,0,0,0c0,0,0,0,0,0c0,0,0,0,0,0c0,0,0,0,0,0c0,0,0,0,0,0c0,0,0,0,0,0
			c0,0,0,0,0,0c0,0,0,0,0,0c0,0,0,0,0,0c0,0,0,0,0,0c0,0,0,0,0,0c0,0,0,0,0,0c0,0,0,0,0,0c0,0,0,0-0.1,0c0,0,0,0,0,0c0,0,0,0-0.1,0
			c0,0,0,0,0,0c0,0,0,0-0.1,0c0,0,0,0,0,0c-0.8,0-1.6,0-2.4,0l0,1c1.3,0,2.7,0,4,0V18L191,18L191,18z M184,18.2
			c-1.3,0.1-2.7,0.1-4,0.2l0.1,1c1.3-0.1,2.7-0.2,4-0.2L184,18.2L184,18.2z M177,18.6c-0.4,0-0.8,0.1-1.2,0.1l0,0c0,0,0,0,0,0
			c0,0,0,0,0,0c0,0,0,0,0,0c0,0,0,0,0,0c0,0,0,0,0,0c-0.7,0.1-1.5,0.1-2.2,0.2c0,0,0,0,0,0c0,0,0,0-0.1,0c0,0,0,0,0,0c0,0,0,0,0,0
			c0,0,0,0,0,0c0,0,0,0,0,0c0,0,0,0,0,0c0,0,0,0,0,0c0,0,0,0,0,0c0,0,0,0,0,0c0,0-0.1,0-0.1,0l0.1,1c1.3-0.1,2.6-0.3,4-0.4L177,18.6
			L177,18.6z M170.1,19.4c-0.5,0.1-0.9,0.1-1.4,0.2c0,0,0,0,0,0c0,0,0,0,0,0c0,0,0,0,0,0c0,0,0,0,0,0c-0.8,0.1-1.7,0.2-2.5,0.4
			l0.2,1c1.3-0.2,2.6-0.4,3.9-0.6L170.1,19.4L170.1,19.4z M163.1,20.4c-1.3,0.2-2.6,0.5-3.9,0.7l0.2,1c1.3-0.3,2.6-0.5,3.9-0.7
			L163.1,20.4L163.1,20.4z M156.3,21.8c-1.3,0.3-2.6,0.6-3.9,0.9l0.2,1c1.3-0.3,2.6-0.6,3.9-0.9L156.3,21.8L156.3,21.8z M149.5,23.4
			c-0.3,0.1-0.6,0.2-0.9,0.2l0,0c0,0,0,0,0,0c-0.9,0.3-1.8,0.5-2.8,0.8c0,0,0,0,0,0c0,0,0,0-0.1,0c0,0,0,0,0,0c0,0,0,0-0.1,0
			c0,0,0,0,0,0c0,0,0,0,0,0l0.3,1c1.3-0.4,2.6-0.7,3.8-1.1L149.5,23.4L149.5,23.4z M142.8,25.4c-0.9,0.3-1.8,0.6-2.7,0.9
			c0,0,0,0,0,0c0,0,0,0,0,0c0,0,0,0,0,0c0,0,0,0,0,0c0,0,0,0-0.1,0c0,0,0,0,0,0c-0.3,0.1-0.6,0.2-0.9,0.3l0.3,0.9
			c1.2-0.4,2.5-0.8,3.8-1.2L142.8,25.4L142.8,25.4z M136.1,27.7c-1.3,0.5-2.5,0.9-3.7,1.4l0.4,0.9c1.2-0.5,2.5-1,3.7-1.4L136.1,27.7
			L136.1,27.7z M129.6,30.2c-0.7,0.3-1.5,0.6-2.2,0.9c0,0,0,0,0,0c0,0,0,0-0.1,0c0,0,0,0,0,0c0,0,0,0,0,0c0,0,0,0,0,0c0,0,0,0,0,0
			c0,0,0,0,0,0c0,0,0,0,0,0c0,0,0,0,0,0c0,0,0,0,0,0c0,0,0,0,0,0c0,0,0,0,0,0c0,0,0,0,0,0c0,0,0,0,0,0c0,0,0,0,0,0l0,0
			c0,0,0,0-0.1,0l0,0c0,0,0,0-0.1,0l0,0c-0.3,0.1-0.6,0.3-0.9,0.4l0.4,0.9c1.2-0.5,2.4-1.1,3.7-1.6L129.6,30.2L129.6,30.2z
				M123.2,33c-1.2,0.6-2.4,1.1-3.6,1.7l0.4,0.9c1.2-0.6,2.4-1.2,3.6-1.7L123.2,33L123.2,33z M116.9,36.1c-0.2,0.1-0.4,0.2-0.6,0.3
			c0,0,0,0,0,0c0,0,0,0,0,0c0,0,0,0,0,0c0,0,0,0,0,0c0,0,0,0,0,0c0,0,0,0,0,0c0,0,0,0,0,0c0,0,0,0,0,0c0,0,0,0,0,0l0,0
			c0,0,0,0-0.1,0l0,0c-0.4,0.2-0.8,0.4-1.2,0.6c0,0,0,0,0,0c0,0,0,0,0,0c0,0,0,0,0,0c0,0,0,0,0,0c0,0,0,0,0,0c0,0,0,0,0,0
			c0,0,0,0,0,0c0,0,0,0,0,0c0,0,0,0,0,0c0,0,0,0,0,0c0,0,0,0,0,0c0,0,0,0,0,0c-0.4,0.2-0.7,0.4-1.1,0.6c0,0,0,0,0,0c0,0,0,0,0,0
			l0.5,0.9c1.2-0.6,2.3-1.3,3.5-1.9L116.9,36.1L116.9,36.1z M110.8,39.5c-0.5,0.3-0.9,0.5-1.4,0.8l0,0c0,0,0,0,0,0c0,0,0,0,0,0
			c0,0,0,0,0,0c0,0,0,0,0,0c0,0,0,0,0,0c0,0,0,0,0,0c0,0,0,0,0,0c0,0,0,0,0,0c0,0,0,0,0,0c0,0,0,0,0,0c0,0,0,0,0,0c0,0,0,0,0,0
			c0,0,0,0,0,0c-0.6,0.3-1.1,0.7-1.7,1l0.5,0.9c1.1-0.7,2.3-1.4,3.4-2L110.8,39.5L110.8,39.5z M104.8,43.2c-0.2,0.1-0.4,0.2-0.6,0.4
			c-0.8,0.5-1.6,1.1-2.4,1.6c0,0,0,0,0,0c0,0,0,0,0,0c-0.1,0.1-0.2,0.1-0.3,0.2l0.6,0.8c1.1-0.7,2.2-1.5,3.3-2.2L104.8,43.2
			L104.8,43.2z M99,47.1c-1,0.7-1.9,1.4-2.8,2l0,0c0,0,0,0,0,0c0,0,0,0,0,0c0,0,0,0,0,0c0,0,0,0,0,0c0,0,0,0,0,0c0,0,0,0,0,0
			c0,0,0,0,0,0c0,0,0,0,0,0c0,0,0,0,0,0c0,0,0,0,0,0c0,0,0,0,0,0c0,0,0,0,0,0c0,0,0,0,0,0c0,0,0,0,0,0c0,0,0,0,0,0c0,0,0,0,0,0
			l0.6,0.8c1.1-0.8,2.1-1.6,3.2-2.3L99,47.1L99,47.1z M93.4,51.2c-0.7,0.5-1.3,1-2,1.6c0,0,0,0,0,0c0,0,0,0,0,0c0,0,0,0,0,0
			c0,0,0,0,0,0c0,0,0,0,0,0c0,0,0,0,0,0c0,0,0,0,0,0c0,0,0,0,0,0c0,0,0,0,0,0c0,0,0,0,0,0c0,0,0,0,0,0c0,0,0,0,0,0c0,0,0,0,0,0
			c0,0,0,0,0,0c0,0,0,0,0,0c0,0,0,0,0,0c0,0,0,0,0,0c0,0,0,0,0,0c0,0,0,0,0,0c0,0,0,0,0,0c0,0,0,0,0,0l0,0c0,0,0,0,0,0l0,0
			c0,0,0,0,0,0l0,0c-0.2,0.1-0.4,0.3-0.5,0.4l0.6,0.8c1-0.8,2.1-1.7,3.1-2.5L93.4,51.2L93.4,51.2z M87.9,55.6c-1,0.9-2,1.7-3,2.6
			l0.7,0.7c1-0.9,2-1.7,3-2.6L87.9,55.6L87.9,55.6z M82.7,60.2c-1,0.9-2,1.8-2.9,2.7l0.7,0.7c0.9-0.9,1.9-1.8,2.9-2.7L82.7,60.2
			L82.7,60.2z M77.6,65.1c-0.4,0.4-0.8,0.8-1.2,1.2c0,0,0,0,0,0c0,0,0,0,0,0c0,0,0,0,0,0c0,0,0,0,0,0c0,0,0,0,0,0c0,0,0,0,0,0
			c0,0,0,0,0,0c0,0,0,0,0,0c0,0,0,0,0,0c0,0,0,0,0,0c0,0,0,0,0,0c0,0,0,0,0,0c0,0,0,0,0,0c0,0,0,0,0,0c0,0,0,0,0,0c0,0,0,0,0,0
			c0,0,0,0,0,0c0,0,0,0,0,0c-0.1,0.1-0.2,0.2-0.3,0.4l0,0c0,0,0,0,0,0l0,0c0,0,0,0,0,0c0,0,0,0,0,0c0,0,0,0,0,0c0,0,0,0,0,0
			c0,0,0,0,0,0c0,0,0,0,0,0c0,0,0,0,0,0c0,0,0,0,0,0c0,0,0,0,0,0c0,0,0,0,0,0c0,0,0,0,0,0c0,0,0,0,0,0c0,0,0,0,0,0c0,0,0,0,0,0
			c0,0,0,0,0,0c-0.2,0.2-0.3,0.3-0.5,0.5l0.7,0.7c0.9-1,1.8-1.9,2.8-2.9L77.6,65.1L77.6,65.1z M72.8,70.2c-0.1,0.1-0.3,0.3-0.4,0.4
			l0,0c0,0,0,0,0,0c0,0,0,0,0,0c0,0,0,0,0,0c0,0,0,0,0,0c0,0,0,0,0,0c0,0,0,0,0,0c0,0,0,0,0,0c0,0,0,0,0,0c0,0,0,0,0,0c0,0,0,0,0,0
			c0,0,0,0,0,0c0,0,0,0,0,0c0,0,0,0,0,0c0,0,0,0,0,0c0,0,0,0,0,0c0,0,0,0,0,0c0,0,0,0,0,0c0,0,0,0,0,0c0,0,0,0,0,0c0,0,0,0,0,0
			c0,0,0,0,0,0c0,0-0.1,0.1-0.1,0.1l0,0c0,0-0.1,0.1-0.1,0.1c0,0,0,0,0,0c0,0,0,0,0,0c0,0,0,0,0,0c0,0,0,0,0,0c0,0,0,0,0,0
			c0,0,0,0,0,0c0,0,0,0,0,0c0,0,0,0,0,0c0,0,0,0,0,0c0,0,0,0,0,0c0,0,0,0,0,0c0,0,0,0,0,0c0,0,0,0,0,0c0,0,0,0,0,0c0,0,0,0,0,0
			c0,0,0,0,0,0c0,0,0,0,0,0c0,0,0,0,0,0c0,0,0,0,0,0c0,0,0,0,0,0c0,0,0,0,0,0c0,0,0,0,0,0c0,0,0,0,0,0c0,0,0,0,0,0c0,0,0,0,0,0
			c0,0,0,0,0,0c0,0,0,0,0,0c0,0,0,0,0,0c0,0,0,0,0,0c0,0,0,0,0,0c-0.4,0.4-0.7,0.8-1.1,1.2l0.8,0.7c0.9-1,1.8-2,2.6-3L72.8,70.2
			L72.8,70.2z M68.2,75.4c-0.9,1-1.7,2.1-2.5,3.1l0.8,0.6c0.8-1,1.7-2.1,2.5-3.1L68.2,75.4L68.2,75.4z M63.8,80.9
			c-0.1,0.1-0.2,0.2-0.3,0.4c0,0,0,0,0,0c0,0,0,0,0,0c0,0,0,0,0,0c0,0,0,0,0,0c0,0,0,0,0,0c0,0,0,0,0,0c0,0,0,0,0,0c0,0,0,0,0,0
			c-0.6,0.7-1.1,1.5-1.6,2.2l0,0c0,0,0,0,0,0c0,0,0,0,0,0c0,0,0,0,0,0c0,0,0,0,0,0c0,0,0,0,0,0c0,0,0,0,0,0c0,0,0,0,0,0c0,0,0,0,0,0
			c0,0,0,0,0,0c0,0,0,0,0,0c0,0,0,0,0,0c0,0,0,0,0,0c0,0,0,0,0,0c0,0-0.1,0.1-0.1,0.1l0.8,0.6c0.8-1.1,1.6-2.1,2.4-3.2L63.8,80.9
			L63.8,80.9z M59.7,86.5c-0.8,1.1-1.5,2.2-2.2,3.3l0.8,0.6c0.7-1.1,1.5-2.2,2.2-3.3L59.7,86.5L59.7,86.5z M55.8,92.4
			c-0.1,0.1-0.1,0.2-0.2,0.3c0,0,0,0,0,0c0,0,0,0,0,0c0,0,0,0,0,0c0,0,0,0,0,0c-0.4,0.6-0.7,1.2-1.1,1.8c0,0,0,0,0,0c0,0,0,0,0,0
			c0,0,0,0,0,0c0,0,0,0,0,0c0,0,0,0,0,0c0,0,0,0,0,0c0,0,0,0,0,0c0,0,0,0,0,0c0,0,0,0,0,0c0,0,0,0,0,0c0,0,0,0,0,0c0,0,0,0,0,0
			c0,0,0,0,0,0c0,0,0,0,0,0c0,0,0,0,0,0c0,0,0,0,0,0c-0.2,0.3-0.3,0.6-0.5,0.9l0.9,0.5c0.7-1.1,1.4-2.3,2.1-3.4L55.8,92.4L55.8,92.4
			z M52.2,98.4c-0.2,0.4-0.5,0.8-0.7,1.3c0,0,0,0,0,0c-0.1,0.1-0.2,0.3-0.2,0.4c0,0,0,0,0,0c0,0.1-0.1,0.1-0.1,0.2c0,0,0,0,0,0
			c-0.3,0.5-0.6,1.1-0.9,1.6l0.9,0.5c0.6-1.2,1.3-2.3,1.9-3.5L52.2,98.4L52.2,98.4z M48.8,104.5c-0.6,1.2-1.2,2.4-1.8,3.6l0.9,0.4
			c0.6-1.2,1.2-2.4,1.8-3.6L48.8,104.5L48.8,104.5z M45.8,110.8c-0.6,1.2-1.1,2.4-1.6,3.6l0.9,0.4c0.5-1.2,1.1-2.4,1.6-3.6
			L45.8,110.8L45.8,110.8z M43,117.2c-0.1,0.2-0.1,0.3-0.2,0.5l0,0c0,0,0,0.1,0,0.1c0,0,0,0,0,0c0,0,0,0,0,0c0,0,0,0,0,0
			c0,0,0,0,0,0c0,0,0,0,0,0c0,0,0,0,0,0c0,0,0,0,0,0c0,0,0,0,0,0c0,0,0,0,0,0c0,0,0,0,0,0c0,0,0,0,0,0.1c0,0,0,0,0,0
			c-0.3,0.8-0.7,1.7-1,2.6c0,0,0,0,0,0c0,0,0,0,0,0c0,0,0,0,0,0c0,0,0,0,0,0c0,0,0,0,0,0c0,0,0,0,0,0c0,0,0,0.1,0,0.1l0.9,0.4
			c0.5-1.2,1-2.5,1.5-3.7L43,117.2L43,117.2z M40.4,123.7c-0.2,0.5-0.3,1-0.5,1.4c0,0,0,0,0,0c0,0,0,0,0,0.1c0,0,0,0,0,0
			c0,0,0,0,0,0c0,0,0,0,0,0c0,0,0,0,0,0c0,0,0,0,0,0c0,0,0,0,0,0c0,0,0,0,0,0c0,0,0,0,0,0c0,0,0,0,0,0l0,0c-0.2,0.7-0.5,1.3-0.7,2
			l0.9,0.3c0.4-1.3,0.9-2.5,1.3-3.8L40.4,123.7L40.4,123.7z M38.2,130.4c-0.2,0.6-0.3,1.1-0.5,1.7c0,0,0,0,0,0c0,0,0,0,0,0
			c0,0,0,0,0,0c0,0,0,0,0,0c0,0,0,0,0,0c0,0,0,0,0,0c-0.2,0.7-0.4,1.3-0.6,2l1,0.3c0.4-1.3,0.7-2.6,1.1-3.8L38.2,130.4L38.2,130.4z
				M36.3,137.1c-0.3,1.2-0.6,2.5-0.9,3.7c0,0,0,0,0,0c0,0,0,0,0,0c0,0,0,0,0,0c0,0,0,0,0,0c0,0,0,0,0,0l0,0l1,0.2
			c0.3-1.3,0.6-2.6,1-3.9L36.3,137.1L36.3,137.1z M34.6,143.9c-0.3,1.3-0.5,2.6-0.8,3.9l1,0.2c0.2-1.3,0.5-2.6,0.8-3.9L34.6,143.9
			L34.6,143.9z M33.3,150.8c-0.2,1.3-0.4,2.6-0.6,4l1,0.1c0.2-1.3,0.4-2.6,0.6-3.9L33.3,150.8L33.3,150.8z M32.3,157.7
			c-0.1,0.7-0.2,1.3-0.2,2l0,0c0,0,0,0,0,0c0,0,0,0,0,0c0,0,0,0,0,0c0,0,0,0,0,0c0,0,0,0,0,0c-0.1,0.6-0.1,1.2-0.2,1.8l1,0.1
			c0.1-1.3,0.3-2.6,0.5-3.9L32.3,157.7L32.3,157.7z M31.5,164.7c-0.1,1.3-0.2,2.7-0.3,4l1,0.1c0.1-1.3,0.2-2.7,0.3-4L31.5,164.7
			L31.5,164.7z M31.1,171.6c0,0.6,0,1.1-0.1,1.6c0,0,0,0,0,0c0,0,0,0,0,0.1c0,0,0,0,0,0c0,0,0,0,0,0c0,0,0,0,0,0c0,0,0,0,0,0
			c0,0,0,0,0,0c0,0,0,0,0,0c0,0,0,0,0,0.1c0,0,0,0,0,0c0,0.7,0,1.4,0,2.1l1,0c0-1.3,0.1-2.7,0.1-4L31.1,171.6L31.1,171.6z M32,178.6
			l-1,0c0,0.9,0,1.9,0,2.8c0,0,0,0,0,0c0,0,0,0,0,0.1c0,0,0,0,0,0c0,0,0,0,0,0c0,0,0,0,0,0c0,0,0,0,0,0c0,0,0,0,0,0c0,0,0,0,0,0
			c0,0,0,0,0,0.1l0,0c0,0.3,0,0.6,0,0.9l1,0C32,181.3,32,180,32,178.6L32,178.6z M32.2,185.6l-1,0c0.1,1.3,0.1,2.7,0.2,4l1-0.1
			C32.3,188.2,32.2,186.9,32.2,185.6L32.2,185.6z M32.7,192.5l-1,0.1c0.1,1.2,0.2,2.4,0.4,3.6l0,0c0,0,0,0,0,0.1l0,0c0,0,0,0,0,0
			c0,0,0,0,0,0c0,0,0,0,0,0c0,0,0,0,0,0c0,0,0,0,0,0c0,0,0,0,0,0c0,0,0,0,0,0c0,0,0,0,0,0c0,0,0,0,0,0c0,0,0,0,0,0l1-0.1
			C32.9,195.2,32.8,193.8,32.7,192.5L32.7,192.5z M33.4,199.4l-1,0.1c0.1,1.1,0.3,2.2,0.5,3.3c0,0.2,0.1,0.5,0.1,0.7l1-0.2
			C33.8,202.1,33.6,200.8,33.4,199.4L33.4,199.4z M34.5,206.3l-1,0.2l0,0c0,0,0,0,0,0.1l0,0c0.1,0.8,0.3,1.6,0.4,2.3c0,0,0,0,0,0
			c0,0,0,0,0,0c0,0,0,0,0,0c0,0,0,0,0,0c0,0,0,0,0,0c0,0,0,0,0,0c0.1,0.5,0.2,0.9,0.3,1.4l1-0.2C35,208.9,34.7,207.6,34.5,206.3
			L34.5,206.3z M35.9,213.1l-1,0.2c0,0,0,0.1,0,0.1c0,0,0,0,0,0c0,0,0,0,0,0c0,0,0,0,0,0c0,0,0,0,0,0c0,0,0,0,0,0.1c0,0,0,0,0,0
			c0.2,0.8,0.4,1.6,0.6,2.4c0,0,0,0,0,0c0,0,0,0,0,0c0,0,0,0,0,0c0,0,0,0,0,0c0,0,0,0,0,0c0,0,0,0,0,0c0,0,0,0,0,0l0,0
			c0.1,0.3,0.2,0.6,0.2,1l1-0.2C36.5,215.7,36.2,214.4,35.9,213.1L35.9,213.1z M37.6,219.9l-1,0.3c0.3,1.3,0.7,2.5,1.1,3.8
			c0,0,0,0,0,0l1-0.3C38.3,222.4,37.9,221.2,37.6,219.9L37.6,219.9z M39.5,226.6l-1,0.3c0.3,1,0.7,2.1,1,3.1c0,0,0,0,0,0
			c0,0,0,0,0,0c0,0,0,0,0,0c0,0,0,0,0,0c0.1,0.2,0.1,0.4,0.2,0.6l0.9-0.3C40.4,229.1,40,227.8,39.5,226.6L39.5,226.6z M41.8,233.1
			l-0.9,0.3c0.2,0.6,0.5,1.2,0.7,1.8c0,0,0,0,0,0c0,0,0,0,0,0.1c0,0,0,0,0,0c0,0,0,0,0,0c0,0,0,0,0,0c0,0,0,0,0,0c0,0,0,0,0,0
			c0,0,0,0,0,0c0,0,0,0,0,0.1c0,0,0,0,0,0c0.2,0.5,0.4,0.9,0.5,1.4l0,0c0,0,0,0,0,0c0,0,0,0,0,0c0,0,0,0,0,0c0,0,0,0,0,0
			c0,0,0,0,0,0c0,0,0,0,0,0c0,0,0,0,0,0c0,0,0,0,0,0l0.9-0.4C42.8,235.6,42.3,234.4,41.8,233.1L41.8,233.1z M44.4,239.6l-0.9,0.4
			c0,0,0,0,0,0c0,0,0,0,0,0c0.4,0.9,0.7,1.7,1.1,2.6c0,0,0,0,0,0c0,0,0,0,0,0c0,0,0,0,0,0c0,0,0,0,0,0c0,0,0,0,0,0c0,0,0,0,0,0
			c0,0,0,0,0,0c0,0,0,0,0,0c0,0,0,0,0,0c0,0,0,0,0,0c0,0,0,0,0,0l0,0c0,0,0,0,0,0c0,0,0,0,0,0c0,0,0,0,0,0c0,0,0,0,0,0c0,0,0,0,0,0
			c0,0,0,0,0,0c0,0,0,0,0,0c0,0,0,0,0,0c0,0,0,0,0,0c0,0,0,0,0,0c0,0,0,0,0,0c0,0,0,0,0,0c0,0,0,0,0,0c0,0,0,0,0,0c0,0,0,0,0,0
			c0,0,0,0,0,0c0,0,0,0,0,0c0,0,0,0,0,0c0,0,0,0,0,0c0,0,0,0,0,0.1c0,0,0,0,0,0c0,0,0,0.1,0.1,0.1l0.9-0.4
			C45.4,242,44.9,240.8,44.4,239.6L44.4,239.6z M47.2,245.9l-0.9,0.4c0,0.1,0.1,0.1,0.1,0.2c0.5,1.2,1.1,2.3,1.7,3.4l0.9-0.5
			C48.4,248.3,47.8,247.1,47.2,245.9L47.2,245.9z M50.3,252.2l-0.9,0.5c0.5,0.9,0.9,1.7,1.4,2.6c0,0,0,0,0,0c0,0,0,0,0,0
			c0.2,0.3,0.3,0.6,0.5,0.9l0.9-0.5C51.6,254.5,50.9,253.3,50.3,252.2L50.3,252.2z M53.7,258.2l-0.9,0.5c0.6,1,1.2,2,1.8,3
			c0,0,0,0,0,0c0,0,0,0,0,0c0,0,0,0,0,0c0,0,0,0,0,0c0,0,0,0,0,0l0,0c0.1,0.1,0.1,0.2,0.2,0.3l0.8-0.5
			C55.1,260.5,54.4,259.4,53.7,258.2L53.7,258.2z M57.4,264.2l-0.8,0.5c0.7,1.1,1.5,2.2,2.2,3.3l0.8-0.6
			C58.8,266.4,58.1,265.3,57.4,264.2L57.4,264.2z M61.3,269.9l-0.8,0.6c0.4,0.6,0.8,1.2,1.3,1.8c0,0,0,0,0,0c0,0,0,0,0,0
			c0,0,0,0,0,0c0,0,0,0,0,0c0,0,0,0,0,0c0,0,0,0,0,0c0,0,0,0,0,0c0,0,0,0,0,0c0.3,0.4,0.6,0.8,0.9,1.3l0.8-0.6
			C62.8,272.1,62,271,61.3,269.9L61.3,269.9z M65.4,275.5l-0.8,0.6c0.8,1,1.5,2,2.3,2.9l0,0c0,0,0,0,0,0c0,0,0,0,0,0c0,0,0,0,0,0
			c0,0,0,0,0,0c0,0,0,0,0,0c0,0,0,0,0,0c0,0,0,0,0,0c0,0,0,0,0,0l0.8-0.6C67,277.6,66.2,276.6,65.4,275.5L65.4,275.5z M69.8,280.9
			l-0.8,0.6c0.9,1,1.7,2,2.6,3l0.7-0.7C71.5,282.9,70.6,281.9,69.8,280.9L69.8,280.9z M74.4,286.1l-0.7,0.7c0.2,0.3,0.5,0.5,0.7,0.8
			c0,0,0,0,0,0c0,0,0,0,0,0c0,0,0,0,0,0l0,0c0.4,0.5,0.9,0.9,1.3,1.4l0,0c0,0,0,0,0,0l0,0c0,0,0,0,0,0c0,0,0,0,0,0c0,0,0,0,0,0
			c0,0,0,0,0,0c0,0,0,0,0,0c0,0,0,0,0,0c0,0,0,0,0,0c0,0,0,0,0,0c0,0,0,0,0,0c0.1,0.1,0.3,0.3,0.4,0.4l0.7-0.7
			C76.2,288,75.3,287.1,74.4,286.1L74.4,286.1z M79.2,291.1l-0.7,0.7c0.9,0.9,1.9,1.9,2.9,2.8l0.7-0.7C81.2,293,80.2,292,79.2,291.1
			L79.2,291.1z M84.3,295.9l-0.7,0.7c0.1,0.1,0.3,0.2,0.4,0.4c0,0,0,0,0,0c0,0,0,0,0,0c0,0,0,0,0,0c0,0,0,0,0,0c0,0,0,0,0,0
			c0,0,0,0,0,0c0,0,0,0,0,0c0,0,0,0,0,0c0,0,0,0,0,0c0,0,0,0,0,0c0,0,0,0,0,0c0,0,0,0,0,0c0,0,0,0,0,0c0,0,0,0,0,0c0,0,0,0,0,0
			c0,0,0,0,0,0c0,0,0,0,0,0c0,0,0,0,0,0c0,0,0,0,0,0c0,0,0,0,0,0c0,0,0,0,0,0c0,0,0,0,0,0c0,0,0,0,0,0c0,0,0,0,0,0c0,0,0,0,0,0
			c0,0,0,0,0,0c0,0,0,0,0,0c0.7,0.6,1.3,1.2,2,1.8l0.7-0.8C86.3,297.7,85.3,296.8,84.3,295.9L84.3,295.9z M89.6,300.4l-0.6,0.8
			c1,0.8,2.1,1.7,3.1,2.5l0.6-0.8C91.6,302.1,90.6,301.3,89.6,300.4L89.6,300.4z M95,304.8l-0.6,0.8c0.4,0.3,0.8,0.6,1.2,0.9
			c0.7,0.5,1.3,1,2,1.5l0.6-0.8C97.1,306.4,96.1,305.6,95,304.8L95,304.8z M100.6,308.8l-0.6,0.8c0.9,0.6,1.7,1.2,2.6,1.8
			c0,0,0,0,0,0c0,0,0,0,0,0c0,0,0,0,0,0c0,0,0,0,0,0c0,0,0,0,0,0c0,0,0,0,0,0c0.2,0.1,0.4,0.3,0.6,0.4l0.5-0.8
			C102.8,310.3,101.7,309.6,100.6,308.8L100.6,308.8z M106.4,312.7l-0.5,0.8c0.7,0.5,1.5,0.9,2.2,1.4c0,0,0,0,0,0c0,0,0,0,0,0
			c0,0,0,0,0,0c0,0,0,0,0,0c0,0,0,0,0,0c0,0,0,0,0,0c0,0,0,0,0,0l0,0c0.3,0.2,0.7,0.4,1,0.6l0.5-0.9
			C108.7,314.1,107.6,313.4,106.4,312.7L106.4,312.7z M112.4,316.3l-0.5,0.9c0.2,0.1,0.4,0.2,0.7,0.4c0,0,0,0,0,0c0,0,0,0,0,0
			c0,0,0,0,0,0c0,0,0,0,0,0c0,0,0,0,0,0c0,0,0,0,0,0c0,0,0,0,0,0c0,0,0,0,0,0c0,0,0,0,0,0c0,0,0,0,0,0c0,0,0,0,0,0c0,0,0,0,0,0
			c0,0,0,0,0,0c0,0,0,0,0,0c0,0,0,0,0,0c0,0,0,0,0,0c0,0,0,0,0,0c0,0,0,0,0,0c0,0,0,0,0,0c0,0,0,0,0,0c0,0,0,0,0,0c0,0,0,0,0,0
			c0,0,0,0,0,0c0,0,0,0,0,0c0,0,0,0,0,0c0,0,0,0,0,0c0,0,0,0,0,0c0,0,0,0,0,0c0,0,0,0,0,0c0,0,0,0,0,0c0,0,0,0,0,0c0,0,0,0,0,0
			c0,0,0,0,0,0c0,0,0,0,0,0c0,0,0,0,0,0c0,0,0,0,0,0c0,0,0,0,0,0c0,0,0,0,0,0c0,0,0,0,0,0c0,0,0,0,0,0c0,0,0,0,0,0c0,0,0,0,0,0l0,0
			c0.6,0.3,1.1,0.6,1.7,0.9l0.5-0.9C114.7,317.6,113.6,316.9,112.4,316.3L112.4,316.3z M118.5,319.6l-0.5,0.9
			c0.2,0.1,0.4,0.2,0.6,0.3l0,0c0,0,0,0,0,0c0,0,0,0,0,0c0,0,0,0,0,0c0,0,0,0,0,0c0,0,0,0,0,0c0.8,0.4,1.5,0.8,2.3,1.1c0,0,0,0,0,0
			c0,0,0,0,0,0c0,0,0,0,0,0c0,0,0,0,0,0c0.2,0.1,0.4,0.2,0.6,0.3l0.4-0.9C120.9,320.8,119.7,320.2,118.5,319.6L118.5,319.6z
				M124.8,322.6l-0.4,0.9c0.1,0,0.2,0.1,0.3,0.1c0.5,0.2,1,0.5,1.5,0.7l0,0c0,0,0,0,0.1,0l0,0c0,0,0,0,0,0l0,0c0,0,0,0,0,0
			c0,0,0,0,0,0c0,0,0,0,0,0c0,0,0,0,0,0c0,0,0,0,0,0c0,0,0,0,0,0c0,0,0,0,0,0c0,0,0,0,0,0c0,0,0,0,0,0c0.5,0.2,1,0.4,1.5,0.6
			l0.4-0.9C127.2,323.7,126,323.2,124.8,322.6L124.8,322.6z M131.2,325.4l-0.4,0.9c1.2,0.5,2.5,1,3.7,1.5l0,0l0.4-0.9
			C133.6,326.3,132.4,325.9,131.2,325.4L131.2,325.4z M137.7,327.8l-0.3,0.9c1.3,0.4,2.5,0.9,3.8,1.3l0.3-1
			C140.2,328.7,138.9,328.3,137.7,327.8L137.7,327.8z M144.3,330l-0.3,1c1.3,0.4,2.6,0.8,3.8,1.1l0,0l0.3-1
			C146.8,330.8,145.5,330.4,144.3,330L144.3,330z M151,331.9l-0.3,1c0.2,0.1,0.5,0.1,0.7,0.2c0,0,0,0,0,0c0,0,0,0,0,0c0,0,0,0,0,0
			c0,0,0,0,0,0c0,0,0,0,0,0l0,0c0.6,0.2,1.2,0.3,1.8,0.4l0,0c0,0,0,0,0.1,0l0,0c0,0,0,0,0,0c0,0,0,0,0,0c0,0,0,0,0,0c0,0,0,0,0,0
			c0,0,0,0,0,0c0,0,0,0,0,0c0,0,0,0,0,0c0,0,0,0,0,0c0,0,0,0,0,0c0,0,0,0,0,0c0,0,0,0,0,0c0.3,0.1,0.5,0.1,0.8,0.2l0.2-1
			C153.5,332.6,152.2,332.2,151,331.9L151,331.9z M157.7,333.5l-0.2,1c1.3,0.3,2.6,0.5,3.9,0.8l0.2-1
			C160.3,334.1,159,333.8,157.7,333.5L157.7,333.5z M164.6,334.8l-0.2,1c0.3,0,0.6,0.1,0.9,0.1c0,0,0,0,0,0c0,0,0,0,0,0
			c1,0.2,2,0.3,3.1,0.5l0.1-1C167.2,335.2,165.9,335,164.6,334.8L164.6,334.8z M171.5,335.8l-0.1,1c0.5,0.1,1,0.1,1.5,0.2
			c0,0,0,0,0,0c0,0,0,0,0,0c0,0,0,0,0,0c0,0,0,0,0,0c0.8,0.1,1.6,0.2,2.3,0.2l0.1-1C174.1,336.1,172.8,336,171.5,335.8L171.5,335.8z
				M178.4,336.5l-0.1,1c1.3,0.1,2.7,0.2,4,0.3l0.1-1C181,336.7,179.7,336.6,178.4,336.5L178.4,336.5z M185.3,336.9l0,1
			c0.8,0,1.6,0,2.4,0.1l0,0c0,0,0,0,0.1,0l0,0c0,0,0,0,0.1,0c0,0,0,0,0,0c0,0,0,0,0,0c0,0,0,0,0,0c0,0,0,0,0,0c0.5,0,0.9,0,1.4,0
			l0-1C188,337,186.6,336.9,185.3,336.9L185.3,336.9z M196.3,336.9c-1.3,0-2.7,0.1-4,0.1l0,1c0.8,0,1.6,0,2.3,0c0,0,0,0,0,0
			c0,0,0,0,0,0c0,0,0,0,0,0c0,0,0,0,0,0c0,0,0,0,0,0c0,0,0,0,0,0c0,0,0,0,0,0c0,0,0,0,0,0c0,0,0,0,0.1,0c0,0,0,0,0,0
			c0.5,0,0.9,0,1.4,0L196.3,336.9L196.3,336.9z M203.2,336.5c-1.3,0.1-2.6,0.2-4,0.3l0.1,1c1,0,1.9-0.1,2.9-0.2c0,0,0,0,0,0
			c0,0,0,0,0,0c0,0,0,0,0.1,0l0,0c0.3,0,0.7,0,1-0.1L203.2,336.5L203.2,336.5z M210.1,335.9c-1.3,0.2-2.6,0.3-4,0.4l0.1,1
			c0.3,0,0.6-0.1,0.9-0.1l0,0c0,0,0,0,0,0c0,0,0,0,0,0c0,0,0,0,0,0c0,0,0,0,0,0c0,0,0,0,0,0c0,0,0,0,0,0c0,0,0,0,0,0c0,0,0,0,0,0
			c0,0,0,0,0,0c0,0,0,0,0.1,0c0,0,0,0,0,0c0,0,0,0,0.1,0c0,0,0,0,0,0c0.3,0,0.5-0.1,0.8-0.1c0,0,0,0,0,0c0,0,0,0,0,0c0,0,0,0,0,0
			c0,0,0,0,0,0c0,0,0,0,0,0c0,0,0,0,0,0c0,0,0,0,0,0c0,0,0,0,0,0c0,0,0,0,0,0l0,0c0.6-0.1,1.1-0.1,1.7-0.2L210.1,335.9L210.1,335.9z
				M217,334.9c-1.3,0.2-2.6,0.4-3.9,0.6l0.1,1c0.7-0.1,1.4-0.2,2.1-0.3c0,0,0,0,0,0c0,0,0.1,0,0.1,0c0,0,0,0,0,0c0,0,0,0,0.1,0
			c0,0,0,0,0,0c0,0,0,0,0.1,0c0,0,0,0,0,0c0.1,0,0.2,0,0.2,0c0,0,0,0,0,0c0.4-0.1,0.9-0.1,1.3-0.2L217,334.9L217,334.9z
				M223.8,333.6c-1.3,0.3-2.6,0.5-3.9,0.8l0.2,1c0,0,0,0,0,0c0,0,0,0,0,0c0,0,0,0,0.1,0c0,0,0,0,0,0c0,0,0,0,0,0c0,0,0,0,0,0
			c0,0,0,0,0,0c0,0,0,0,0,0c0,0,0,0,0,0c0,0,0,0,0,0c0,0,0,0,0,0c0,0,0,0,0,0c0,0,0,0,0,0c0,0,0,0,0,0c0,0,0,0,0,0c0,0,0,0,0,0
			c0,0,0,0,0,0c0,0,0,0,0,0c0,0,0,0,0,0c0,0,0,0,0,0c0,0,0,0,0,0c0,0,0,0,0,0c0,0,0,0,0,0c0,0,0,0,0.1,0c0,0,0,0,0,0c0,0,0,0,0.1,0
			c0,0,0,0,0,0c0,0,0,0,0.1,0l0,0c0,0,0.1,0,0.1,0l0,0c0.8-0.2,1.6-0.3,2.4-0.5l0,0c0,0,0,0,0.1,0l0,0c0,0,0,0,0.1,0c0,0,0,0,0,0
			c0,0,0,0,0,0c0,0,0,0,0,0c0,0,0,0,0,0c0,0,0,0,0,0c0,0,0,0,0,0c0,0,0,0,0,0c0,0,0,0,0,0c0,0,0,0,0.1,0c0,0,0,0,0,0c0,0,0,0,0.1,0
			L223.8,333.6L223.8,333.6z M230.6,332c-1.3,0.3-2.6,0.6-3.9,0.9l0.2,1c0,0,0,0,0,0c0,0,0,0,0,0c0,0,0,0,0,0c0,0,0,0,0,0
			c0,0,0,0,0,0c0,0,0,0,0,0c0.8-0.2,1.6-0.4,2.4-0.6c0,0,0,0,0,0c0,0,0,0,0,0c0,0,0,0,0,0c0,0,0,0,0,0c0.4-0.1,0.8-0.2,1.2-0.3
			L230.6,332L230.6,332z M237.3,330.1c-1.3,0.4-2.5,0.8-3.8,1.1l0.3,1c0,0,0,0,0,0c0,0,0,0,0,0c0,0,0,0,0,0c0,0,0,0,0,0c0,0,0,0,0,0
			c0,0,0,0,0,0c0,0,0,0,0,0c0,0,0,0,0,0c0,0,0,0,0.1,0c0,0,0,0,0,0c0.6-0.2,1.1-0.3,1.7-0.5c0,0,0,0,0,0c0,0,0,0,0,0c0,0,0,0,0,0
			c0,0,0,0,0,0c0,0,0.1,0,0.1,0c0,0,0,0,0,0c0.4-0.1,0.8-0.2,1.2-0.4c0,0,0,0,0,0c0,0,0,0,0.1,0c0,0,0,0,0,0c0,0,0,0,0,0
			c0,0,0,0,0,0c0,0,0,0,0,0c0,0,0,0,0,0c0,0,0,0,0,0c0,0,0,0,0,0c0,0,0,0,0,0c0,0,0,0,0,0c0,0,0,0,0,0c0,0,0.1,0,0.1,0L237.3,330.1
			L237.3,330.1z M243.9,328c-1.2,0.4-2.5,0.9-3.8,1.3l0.3,1c0.5-0.2,1-0.3,1.5-0.5c0,0,0,0,0,0c0,0,0,0,0,0c0,0,0,0,0,0c0,0,0,0,0,0
			c0,0,0,0,0,0c0,0,0,0,0,0c0,0,0,0,0,0c0,0,0,0,0,0c0.7-0.2,1.4-0.5,2.1-0.7L243.9,328L243.9,328z M250.4,325.5
			c-1.2,0.5-2.5,1-3.7,1.4l0.4,0.9c0,0,0,0,0,0c0,0,0,0,0.1,0l0,0c0,0,0,0,0.1,0c0,0,0,0,0,0c0,0,0,0,0.1,0l0,0c0,0,0,0,0.1,0l0,0
			c1.2-0.4,2.3-0.9,3.5-1.4L250.4,325.5L250.4,325.5z M256.8,322.8c-1.2,0.5-2.4,1.1-3.6,1.6l0.4,0.9c0.1,0,0.1,0,0.2-0.1
			c0,0,0,0,0,0c0,0,0,0,0,0c0,0,0,0,0,0c0,0,0,0,0,0c1.1-0.5,2.3-1,3.4-1.5L256.8,322.8L256.8,322.8z M263.1,319.8
			c-1.2,0.6-2.4,1.2-3.6,1.8l0.4,0.9c0,0,0,0,0,0c0,0,0,0,0,0c0,0,0,0,0,0c0,0,0,0,0,0c0,0,0,0,0,0c0,0,0,0,0,0c0,0,0,0,0,0
			c0,0,0,0,0,0c0,0,0,0,0,0c0,0,0,0,0,0c0,0,0,0,0,0c0,0,0,0,0,0c0,0,0,0,0,0c0,0,0,0,0,0c0,0,0,0,0,0c0,0,0,0,0,0
			c0.4-0.2,0.8-0.4,1.2-0.6c0,0,0,0,0,0c0,0,0,0,0.1,0c0,0,0,0,0,0c0,0,0,0,0.1,0c0,0,0,0,0,0c0,0,0,0,0.1,0c0,0,0,0,0,0
			c0,0,0,0,0.1,0c0,0,0,0,0,0c0,0,0,0,0,0c0,0,0,0,0,0c0,0,0,0,0,0c0,0,0,0,0,0c0,0,0,0,0,0c0,0,0,0,0,0c0,0,0,0,0,0c0,0,0,0,0,0
			c0,0,0,0,0,0c0,0,0,0,0,0c0,0,0,0,0,0c0,0,0,0,0,0c0,0,0,0,0,0c0,0,0,0,0,0c0,0,0,0,0,0c0,0,0,0,0,0l0,0c0.4-0.2,0.8-0.4,1.2-0.6
			L263.1,319.8L263.1,319.8z M269.2,316.5c-1.1,0.6-2.3,1.3-3.5,1.9l0.5,0.9c0.6-0.3,1.2-0.7,1.8-1c0,0,0,0,0,0c0,0,0,0,0,0
			c0,0,0,0,0,0c0,0,0,0,0,0c0,0,0,0,0,0c0,0,0,0,0,0c0,0,0,0,0,0c0,0,0,0,0,0c0,0,0,0,0,0c0,0,0,0,0,0c0,0,0,0,0,0c0,0,0,0,0,0
			c0,0,0,0,0,0c0,0,0,0,0,0c0,0,0,0,0,0l0,0c0,0,0,0,0.1,0l0,0c0.3-0.2,0.6-0.3,0.9-0.5c0,0,0,0,0,0c0,0,0,0,0,0c0,0,0,0,0,0
			c0,0,0,0,0,0c0.1,0,0.1-0.1,0.2-0.1L269.2,316.5L269.2,316.5z M275.2,312.9c-1.1,0.7-2.3,1.4-3.4,2.1l0.5,0.9
			c0.6-0.4,1.2-0.7,1.8-1.1c0,0,0,0,0,0c0,0,0,0,0,0c0,0,0,0,0,0c0,0,0,0,0,0c0,0,0,0,0,0c0,0,0,0,0,0c0,0,0,0,0,0c0,0,0,0,0,0
			c0,0,0,0,0,0c0,0,0,0,0,0c0,0,0,0,0,0c0,0,0,0,0,0c0.5-0.3,0.9-0.6,1.3-0.8L275.2,312.9L275.2,312.9z M281,309.1
			c-1.1,0.7-2.2,1.5-3.3,2.2l0.5,0.8c1.1-0.7,2.2-1.5,3.3-2.2L281,309.1L281,309.1z M286.7,305c-1.1,0.8-2.1,1.6-3.2,2.4l0.6,0.8
			c0,0,0,0,0,0c0,0,0,0,0,0c0,0,0,0,0,0c0,0,0,0,0,0c0,0,0,0,0,0c0,0,0,0,0,0l0,0c0,0,0,0,0,0l0,0c0.9-0.6,1.7-1.2,2.6-1.9l0,0
			c0,0,0,0,0,0c0,0,0,0,0,0c0,0,0,0,0,0c0,0,0,0,0,0c0,0,0,0,0,0c0,0,0,0,0,0c0,0,0,0,0,0c0,0,0,0,0,0c0,0,0,0,0,0c0,0,0,0,0,0
			c0,0,0,0,0,0c0,0,0,0,0,0c0,0,0,0,0,0c0,0,0,0,0,0c0,0,0,0,0,0c0,0,0,0,0,0c0,0,0,0,0,0c0,0,0,0,0,0L286.7,305L286.7,305z
				M292.1,300.7c-1,0.8-2.1,1.7-3.1,2.5l0.6,0.8c1-0.8,1.9-1.5,2.9-2.3c0,0,0,0,0,0c0,0,0,0,0,0c0,0,0,0,0,0c0,0,0,0,0,0
			c0,0,0,0,0,0c0,0,0,0,0,0c0,0,0,0,0,0c0,0,0,0,0,0c0,0,0,0,0,0c0,0,0,0,0,0c0,0,0,0,0,0c0,0,0,0,0,0L292.1,300.7L292.1,300.7z
				M297.4,296.2c-1,0.9-2,1.8-3,2.6l0.7,0.8c0.3-0.3,0.7-0.6,1-0.9c0,0,0,0,0,0c0,0,0,0,0,0c0,0,0,0,0,0c0,0,0,0,0,0c0,0,0,0,0,0
			c0,0,0,0,0,0c0,0,0,0,0,0c0,0,0,0,0,0c0,0,0,0,0,0c0,0,0,0,0,0c0,0,0,0,0,0c0,0,0,0,0,0c0,0,0,0,0,0c0,0,0,0,0,0c0,0,0,0,0,0
			c0,0,0,0,0,0c0.5-0.5,1.1-1,1.6-1.4L297.4,296.2L297.4,296.2z M302.4,291.4c-0.9,0.9-1.9,1.9-2.9,2.8l0.7,0.7
			c0.7-0.7,1.5-1.4,2.2-2.1c0,0,0,0,0,0c0,0,0,0,0,0c0,0,0,0,0,0c0,0,0,0,0,0c0,0,0,0,0,0c0,0,0,0,0,0c0,0,0,0,0,0c0,0,0,0,0,0
			c0,0,0,0,0,0c0,0,0,0,0,0c0,0,0,0,0,0c0,0,0,0,0,0c0.1-0.1,0.3-0.3,0.4-0.4L302.4,291.4L302.4,291.4z M307.3,286.4
			c-0.9,1-1.8,1.9-2.7,2.9l0.7,0.7c0.2-0.2,0.4-0.4,0.6-0.6c0,0,0,0,0,0c0,0,0,0,0,0c0,0,0,0,0,0c0,0,0,0,0,0c0,0,0,0,0,0l0,0
			c0.6-0.6,1.2-1.3,1.8-1.9l0,0c0,0,0,0,0,0c0,0,0,0,0,0c0,0,0,0,0,0c0,0,0,0,0,0c0,0,0,0,0,0c0,0,0,0,0,0c0,0,0,0,0,0c0,0,0,0,0,0
			c0,0,0,0,0,0c0,0,0,0,0,0L307.3,286.4L307.3,286.4z M311.9,281.2c-0.9,1-1.7,2-2.6,3l0.7,0.7c0.9-1,1.8-2,2.6-3L311.9,281.2
			L311.9,281.2z M316.3,275.8c-0.8,1-1.6,2.1-2.5,3.1l0.8,0.6c0.1-0.1,0.1-0.2,0.2-0.3c0,0,0,0,0,0c0,0,0,0,0,0c0,0,0,0,0,0
			c0,0,0,0,0,0c0,0,0,0,0,0c0,0,0,0,0,0c0,0,0,0,0,0l0,0c0.6-0.8,1.3-1.6,1.9-2.3l0,0c0,0,0,0,0,0l0,0c0,0,0,0,0,0c0,0,0,0,0,0
			c0,0,0,0,0,0c0,0,0,0,0,0c0,0,0,0,0,0c0,0,0,0,0,0c0,0,0,0,0,0c0,0,0,0,0,0c0,0,0,0,0,0c0,0,0,0,0,0c0,0,0,0,0,0c0,0,0,0,0,0
			L316.3,275.8L316.3,275.8z M320.5,270.3c-0.8,1.1-1.6,2.2-2.3,3.2l0.8,0.6c0.8-1.1,1.6-2.1,2.4-3.2L320.5,270.3L320.5,270.3z
				M324.4,264.5c-0.7,1.1-1.5,2.2-2.2,3.3l0.8,0.6c0.3-0.5,0.7-1,1-1.5c0,0,0,0,0,0c0,0,0,0,0,0c0,0,0,0,0,0c0,0,0,0,0,0
			c0,0,0,0,0,0c0,0,0,0,0,0c0,0,0,0,0,0c0,0,0,0,0,0c0,0,0,0,0,0c0,0,0,0,0,0c0,0,0,0,0,0l0,0c0,0,0,0,0,0l0,0c0.3-0.5,0.6-1,1-1.5
			L324.4,264.5L324.4,264.5z M328.1,258.6c-0.7,1.1-1.4,2.3-2.1,3.4l0.8,0.5c0.2-0.3,0.3-0.6,0.5-0.8c0,0,0,0,0,0c0,0,0,0,0,0
			c0,0,0,0,0,0c0,0,0,0,0,0c0,0,0,0,0,0c0,0,0,0,0,0c0,0,0,0,0-0.1c0,0,0,0,0,0c0,0,0,0,0,0c0,0,0,0,0,0c0,0,0,0,0,0c0,0,0,0,0,0
			c0,0,0,0,0,0c0,0,0,0,0,0c0,0,0,0,0,0c0,0,0,0,0,0c0,0,0,0,0,0c0,0,0,0,0,0c0,0,0,0,0,0c0,0,0,0,0,0c0,0,0,0,0,0c0,0,0,0,0,0
			c0,0,0,0,0,0c0,0,0,0,0,0c0,0,0,0,0,0c0,0,0,0,0,0c0,0,0,0,0,0c0,0,0,0,0,0c0,0,0,0,0,0c0,0,0,0,0,0c0,0,0,0,0,0c0,0,0,0,0,0
			c0,0,0,0,0,0c0,0,0,0,0,0c0,0,0,0,0,0c0,0,0,0,0,0c0,0,0,0,0,0c0,0,0,0,0,0c0,0,0,0,0,0c0,0,0,0,0,0c0,0,0,0,0,0c0,0,0,0,0,0
			c0,0,0,0,0,0c0,0,0,0,0,0c0,0,0,0,0,0c0,0,0,0,0,0l0,0c0,0,0,0,0,0l0,0c0,0,0-0.1,0.1-0.1l0,0c0.1-0.1,0.1-0.2,0.2-0.3
			c0,0,0-0.1,0.1-0.1c0,0,0,0,0,0c0.2-0.3,0.3-0.5,0.5-0.8L328.1,258.6L328.1,258.6z M331.5,252.5c-0.6,1.2-1.3,2.3-1.9,3.5l0.9,0.5
			c0.7-1.2,1.3-2.3,1.9-3.5L331.5,252.5L331.5,252.5z M334.6,246.3c-0.6,1.2-1.2,2.4-1.8,3.6l0.9,0.5c0.5-0.9,0.9-1.8,1.3-2.7
			c0,0,0,0,0,0c0,0,0,0,0,0c0,0,0,0,0,0c0,0,0,0,0,0c0,0,0,0,0,0c0,0,0,0,0,0c0,0,0,0,0,0c0,0,0,0,0,0c0,0,0,0,0,0c0,0,0,0,0,0
			c0,0,0,0,0-0.1l0,0c0.1-0.2,0.2-0.4,0.3-0.6L334.6,246.3L334.6,246.3z M337.5,240c-0.5,1.2-1.1,2.4-1.6,3.6l0.9,0.4
			c0-0.1,0.1-0.2,0.1-0.3c0,0,0,0,0,0c0,0,0,0,0-0.1c0,0,0,0,0,0c0,0,0,0,0-0.1c0,0,0,0,0,0c0,0,0,0,0-0.1c0,0,0,0,0,0
			c0,0,0,0,0-0.1c0,0,0,0,0,0c0,0,0,0,0,0c0,0,0,0,0,0c0,0,0,0,0,0c0,0,0,0,0,0c0.3-0.6,0.6-1.3,0.8-1.9c0,0,0,0,0,0c0,0,0,0,0,0
			c0,0,0,0,0,0c0,0,0,0,0,0c0,0,0,0,0,0c0,0,0,0,0,0c0,0,0,0,0,0c0,0,0,0,0,0c0,0,0,0,0,0l0,0c0.1-0.3,0.2-0.6,0.4-0.9L337.5,240
			L337.5,240z M340,233.5c-0.5,1.2-0.9,2.5-1.4,3.7l0.9,0.4c0.5-1.2,1-2.5,1.4-3.7L340,233.5L340,233.5z M342.3,227
			c-0.4,1.3-0.8,2.5-1.3,3.8l0.9,0.3c0-0.1,0.1-0.2,0.1-0.3l0,0c0,0,0,0,0-0.1c0,0,0,0,0,0c0,0,0,0,0,0c0,0,0,0,0,0c0,0,0,0,0,0
			c0,0,0,0,0,0c0,0,0,0,0,0c0,0,0,0,0,0c0,0,0,0,0,0c0,0,0,0,0,0c0,0,0,0,0,0c0,0,0,0,0,0c0,0,0,0,0,0c0,0,0,0,0,0c0,0,0,0,0,0
			c0,0,0,0,0,0c0,0,0,0,0,0c0,0,0,0,0,0c0,0,0,0,0,0c0,0,0,0,0,0c0,0,0,0,0,0c0,0,0,0,0,0c0,0,0,0,0,0c0,0,0,0,0,0c0,0,0,0,0,0
			c0,0,0,0,0,0c0,0,0,0,0,0c0,0,0,0,0,0c0,0,0,0,0,0c0,0,0,0,0,0c0,0,0,0,0,0c0,0,0,0,0,0c0,0,0,0,0,0c0,0,0,0,0,0c0,0,0,0,0-0.1
			c0,0,0,0,0,0c0,0,0,0,0-0.1c0,0,0,0,0,0c0,0,0,0,0-0.1l0,0c0.3-0.8,0.5-1.5,0.8-2.3L342.3,227L342.3,227z M344.3,220.3
			c-0.3,1.3-0.7,2.6-1.1,3.8l1,0.3c0,0,0-0.1,0-0.1c0,0,0,0,0,0c0,0,0,0,0,0c0.4-1.2,0.7-2.5,1.1-3.7L344.3,220.3L344.3,220.3z
				M346,213.5c-0.3,1.3-0.6,2.6-0.9,3.9l1,0.2c0-0.1,0-0.1,0.1-0.2c0,0,0,0,0,0c0,0,0,0,0-0.1c0,0,0,0,0,0c0,0,0,0,0,0c0,0,0,0,0,0
			c0,0,0,0,0,0c0,0,0,0,0,0c0,0,0,0,0,0c0,0,0,0,0,0c0,0,0,0,0,0c0,0,0,0,0,0l0,0c0,0,0,0,0-0.1l0,0c0.3-1.1,0.5-2.2,0.8-3.3
			L346,213.5L346,213.5z M347.4,206.7c-0.2,1.3-0.5,2.6-0.8,3.9l1,0.2c0.3-1.3,0.5-2.6,0.8-3.9L347.4,206.7L347.4,206.7z
				M348.5,199.9c-0.2,1.3-0.4,2.6-0.6,3.9l1,0.2c0.2-1.3,0.4-2.6,0.6-4L348.5,199.9L348.5,199.9z M349.3,193c-0.1,1.3-0.3,2.6-0.4,4
			l1,0.1c0.2-1.3,0.3-2.6,0.4-4L349.3,193L349.3,193z M349.8,186c-0.1,1.3-0.1,2.7-0.2,4l1,0.1c0-0.2,0-0.5,0.1-0.7c0,0,0,0,0,0
			c0,0,0,0,0-0.1c0,0,0,0,0,0c0,0,0,0,0,0c0,0,0,0,0,0c0,0,0,0,0,0c0,0,0,0,0-0.1c0,0,0,0,0,0c0.1-1,0.1-1.9,0.2-2.9v0
			c0,0,0,0,0-0.1c0,0,0,0,0,0c0,0,0,0,0,0c0,0,0,0,0,0c0,0,0,0,0,0c0,0,0,0,0,0L349.8,186L349.8,186z M350,179.1c0,1.3,0,2.7-0.1,4
			l1,0c0,0,0,0,0,0c0,0,0,0,0,0c0,0,0,0,0,0c0,0,0,0,0,0c0,0,0,0,0,0c0,0,0,0,0,0c0,0,0,0,0,0c0,0,0,0,0,0c0,0,0,0,0,0c0,0,0,0,0,0
			c0-1.1,0.1-2.1,0.1-3.2c0,0,0,0,0,0c0,0,0,0,0,0c0,0,0,0,0,0c0,0,0,0,0,0c0,0,0,0,0,0l0,0c0-0.1,0-0.2,0-0.3L350,179.1L350,179.1z
				M350.9,172.1l-1,0c0,1.3,0.1,2.7,0.1,4l1,0c0-0.4,0-0.9,0-1.3c0,0,0,0,0,0c0,0,0,0,0-0.1c0,0,0,0,0,0c0,0,0,0,0-0.1c0,0,0,0,0,0
			c0,0,0,0,0-0.1c0,0,0,0,0,0c0,0,0,0,0-0.1c0,0,0,0,0,0c0,0,0,0,0-0.1c0,0,0,0,0,0c0,0,0,0,0,0c0,0,0,0,0,0c0,0,0,0,0,0
			c0,0,0,0,0,0c0,0,0,0,0,0c0,0,0,0,0,0c0-0.1,0-0.2,0-0.3c0,0,0,0,0,0c0,0,0-0.1,0-0.1c0,0,0,0,0,0c0,0,0-0.1,0-0.1c0,0,0,0,0,0
			C350.9,173.2,350.9,172.6,350.9,172.1L350.9,172.1z M350.5,165.1l-1,0.1c0.1,1.3,0.2,2.6,0.3,4l1-0.1
			C350.7,167.7,350.6,166.4,350.5,165.1L350.5,165.1z M349.8,158.1l-1,0.1c0.2,1.3,0.3,2.6,0.4,4l1-0.1
			C350.1,160.8,349.9,159.4,349.8,158.1L349.8,158.1z M348.8,151.2l-1,0.2c0.2,1.3,0.4,2.6,0.6,3.9l1-0.1c0-0.2-0.1-0.5-0.1-0.7v0
			c0,0,0,0,0-0.1c0,0,0,0,0,0c0,0,0,0,0,0c0,0,0,0,0,0c0,0,0,0,0,0c0,0,0,0,0,0c0,0,0,0,0,0C349.1,153.2,348.9,152.2,348.8,151.2
			L348.8,151.2z M347.4,144.3l-1,0.2c0.3,1.3,0.5,2.6,0.8,3.9l1-0.2c0-0.2-0.1-0.4-0.1-0.6c0,0,0,0,0,0c0,0,0,0,0,0c0,0,0,0,0,0
			c0,0,0,0,0,0c0,0,0,0,0,0c0,0,0,0,0,0c0,0,0,0,0,0c0,0,0,0,0,0c0,0,0,0,0-0.1l0,0C347.9,146.3,347.7,145.3,347.4,144.3
			L347.4,144.3z M345.8,137.5l-1,0.3c0.3,1.3,0.7,2.6,1,3.9l1-0.2C346.5,140.1,346.2,138.8,345.8,137.5L345.8,137.5z M343.9,130.8
			l-1,0.3c0.4,1.3,0.8,2.5,1.1,3.8l1-0.3c-0.1-0.2-0.1-0.5-0.2-0.7c0,0,0,0,0,0c0,0,0,0,0,0c0,0,0,0,0,0c0,0,0,0,0,0c0,0,0,0,0,0
			l0,0C344.5,132.8,344.2,131.8,343.9,130.8L343.9,130.8z M341.7,124.1l-0.9,0.3c0.4,1.2,0.9,2.5,1.3,3.8l0.9-0.3
			c-0.3-0.8-0.6-1.7-0.8-2.5c0,0,0,0,0,0c0,0,0,0,0,0c0,0,0,0,0,0c0,0,0,0,0,0c0,0,0,0,0,0c0,0,0,0,0,0
			C342,124.9,341.8,124.5,341.7,124.1L341.7,124.1z M339.2,117.6l-0.9,0.4c0.5,1.2,1,2.5,1.5,3.7l0.9-0.4c-0.1-0.2-0.1-0.4-0.2-0.6
			c0,0,0,0,0,0c0,0,0,0,0-0.1c0,0,0,0,0,0c0,0,0,0,0,0c0,0,0,0,0,0c0,0,0,0,0,0c0,0,0,0,0,0c0,0,0,0,0,0s0,0,0,0c0,0,0,0,0,0
			c0,0,0,0,0,0c0,0,0,0,0,0c0,0,0,0,0,0c0,0,0,0,0,0c0,0,0,0,0-0.1c0,0,0,0,0,0c0,0,0,0,0-0.1c0,0,0,0,0,0
			C339.9,119.4,339.6,118.5,339.2,117.6L339.2,117.6z M336.4,111.2l-0.9,0.4c0.6,1.2,1.1,2.4,1.6,3.6l0.9-0.4
			c-0.1-0.2-0.2-0.5-0.3-0.7c0,0,0,0,0,0c0,0,0,0,0,0c0,0,0,0,0,0c0,0,0,0,0,0c0,0,0,0,0,0c0,0,0,0,0,0c0,0,0,0,0,0c0,0,0,0,0,0
			c0,0,0,0,0,0c0,0,0,0,0,0c0,0,0,0,0,0c0,0,0,0,0,0c0,0,0,0,0,0c0,0,0,0,0,0c0,0,0,0,0,0c0,0,0,0,0,0c0,0,0,0,0-0.1c0,0,0,0,0,0
			C337.2,112.8,336.8,112,336.4,111.2L336.4,111.2z M333.4,104.9l-0.9,0.5c0.6,1.2,1.2,2.4,1.8,3.6l0.9-0.4c-0.3-0.7-0.7-1.3-1-2
			l0,0c0,0,0,0,0-0.1l0,0c0,0,0,0,0-0.1c0,0,0,0,0,0c0,0,0,0,0-0.1c0,0,0,0,0,0c0,0,0,0,0,0c0,0,0,0,0,0c0,0,0,0,0,0c0,0,0,0,0,0
			c0,0,0,0,0,0c0,0,0,0,0,0c0,0,0,0,0,0l0,0c0,0,0,0,0,0c0,0,0,0,0,0c0,0,0,0,0,0c0,0,0,0,0,0c0,0,0,0,0,0c0,0,0,0,0,0c0,0,0,0,0,0
			c0,0,0,0,0,0s0,0,0,0s0,0,0,0c0,0,0,0,0,0c0,0,0,0,0,0c0,0,0,0,0,0c0,0,0,0,0,0c0,0,0,0,0,0c0,0,0,0,0,0c0,0,0,0,0,0
			C333.6,105.3,333.5,105.1,333.4,104.9L333.4,104.9z M330,98.7l-0.9,0.5c0.7,1.1,1.3,2.3,1.9,3.5l0.9-0.5
			C331.3,101.1,330.7,99.9,330,98.7L330,98.7z M326.4,92.7l-0.8,0.5c0.7,1.1,1.4,2.3,2.1,3.4l0.9-0.5c-0.2-0.3-0.4-0.7-0.6-1
			c0,0,0,0,0,0c0,0,0,0,0,0c0,0,0,0,0,0c0,0,0,0,0,0c0,0,0,0,0,0c0,0,0,0,0,0c0,0,0,0,0,0c0,0,0,0,0,0c0,0,0,0,0,0c0,0,0,0,0,0
			c0,0,0,0,0,0c0,0,0,0,0,0c0,0,0,0,0,0l0,0c0,0,0,0,0,0l0,0c0,0,0,0,0,0l0,0C327.2,94,326.8,93.4,326.4,92.7L326.4,92.7z
				M322.5,86.9l-0.8,0.6c0.8,1.1,1.5,2.2,2.2,3.3l0.8-0.5c-0.6-0.9-1.2-1.7-1.7-2.6c0,0,0,0,0,0c0,0,0,0,0,0l0,0c0,0,0,0,0,0
			c0,0,0,0,0,0c0,0,0,0,0,0l0,0c0,0,0,0,0,0c0,0,0,0,0,0c0,0,0,0,0,0c0,0,0,0,0,0c0,0,0,0,0,0c0,0,0,0,0,0c0,0,0,0,0,0c0,0,0,0,0,0
			c0,0,0,0,0,0C322.7,87.1,322.6,87,322.5,86.9L322.5,86.9z M318.4,81.2l-0.8,0.6c0.8,1,1.6,2.1,2.4,3.2l0.8-0.6
			c-0.6-0.9-1.3-1.8-1.9-2.6c0,0,0,0,0,0c0,0,0,0,0,0c0,0,0,0,0,0c0,0,0,0,0,0C318.7,81.6,318.6,81.4,318.4,81.2L318.4,81.2z
				M314.1,75.8l-0.8,0.6c0.8,1,1.7,2.1,2.5,3.1l0.8-0.6c-0.2-0.3-0.5-0.6-0.7-0.9c0,0,0,0,0,0c0,0,0,0,0,0c0,0,0,0,0,0c0,0,0,0,0,0
			c0,0,0,0,0,0c0,0,0,0,0,0c0,0,0,0,0,0l0,0c-0.4-0.5-0.7-0.9-1.1-1.4c0,0,0,0,0,0c0,0,0,0,0,0c0,0,0,0,0,0c0,0,0,0,0,0c0,0,0,0,0,0
			c0,0,0,0,0,0C314.4,76.1,314.2,75.9,314.1,75.8L314.1,75.8z M309.5,70.5l-0.7,0.7c0.9,1,1.8,2,2.6,3l0.8-0.7c0,0-0.1-0.1-0.1-0.1
			l0,0c0,0,0,0,0,0l0,0c0,0,0,0,0,0l0,0c0,0,0,0,0,0c0,0,0,0,0,0c0,0,0,0,0,0c0,0,0,0,0,0c0,0,0,0,0,0l0,0c0,0,0,0,0,0l0,0
			c-0.6-0.7-1.2-1.4-1.8-2.1l0,0c0,0,0,0,0,0c0,0,0,0,0,0c0,0,0,0,0,0c0,0,0,0,0,0c0,0,0,0,0,0c0,0,0,0,0,0c0,0,0,0,0,0
			C309.7,70.7,309.6,70.6,309.5,70.5L309.5,70.5z M304.7,65.4l-0.7,0.7c0.9,0.9,1.9,1.9,2.8,2.9l0.7-0.7c-0.6-0.6-1.1-1.2-1.7-1.8
			l0,0c0,0,0,0,0,0l0,0c0,0,0,0,0,0c0,0,0,0,0,0c0,0,0,0,0,0c0,0,0,0,0,0c0,0,0,0,0,0c0,0,0,0,0,0c0,0,0,0,0,0c0,0,0,0,0,0
			c0,0,0,0,0,0c0,0,0,0,0,0c0,0,0,0,0,0c0,0,0,0,0,0c0,0,0,0,0,0C305.2,65.9,304.9,65.6,304.7,65.4L304.7,65.4z M299.6,60.5
			l-0.7,0.7c1,0.9,1.9,1.8,2.9,2.7l0.7-0.7c-0.2-0.2-0.4-0.4-0.6-0.5c0,0,0,0,0,0c0,0,0,0,0,0c-0.5-0.5-1-0.9-1.5-1.4c0,0,0,0,0,0
			c0,0,0,0,0,0c0,0,0,0,0,0c0,0,0,0,0,0c0,0,0,0,0,0c0,0,0,0,0,0c0,0,0,0,0,0c0,0,0,0,0,0c0,0,0,0,0,0c0,0,0,0,0,0
			C300,60.9,299.8,60.7,299.6,60.5L299.6,60.5z M294.4,55.9l-0.6,0.8c1,0.9,2,1.7,3,2.6l0.7-0.7c-0.4-0.4-0.8-0.7-1.3-1.1
			c0,0,0,0,0,0c0,0-0.1-0.1-0.1-0.1c0,0,0,0,0,0c0,0,0,0,0,0c0,0,0,0,0,0c0,0,0,0,0,0c0,0,0,0,0,0c0,0,0,0,0,0c0,0,0,0,0,0
			c0,0,0,0,0,0c0,0,0,0,0,0C295.4,56.7,294.9,56.3,294.4,55.9L294.4,55.9z M289,51.5l-0.6,0.8c1,0.8,2.1,1.6,3.1,2.5l0.6-0.8
			c-0.1-0.1-0.2-0.2-0.3-0.3c0,0,0,0,0,0c0,0,0,0,0,0c0,0,0,0,0,0c0,0,0,0,0,0c0,0,0,0,0,0c0,0,0,0,0,0c0,0,0,0,0,0c0,0,0,0,0,0
			c0,0,0,0,0,0c0,0,0,0,0,0c0,0,0,0,0,0c0,0,0,0,0,0C290.7,52.8,289.8,52.1,289,51.5L289,51.5z M283.3,47.3l-0.6,0.8
			c1.1,0.8,2.2,1.5,3.2,2.3l0.6-0.8C285.5,48.9,284.4,48.1,283.3,47.3L283.3,47.3z M277.5,43.4l-0.5,0.8c1.1,0.7,2.2,1.5,3.3,2.2
			l0.6-0.8c-0.7-0.5-1.4-0.9-2.1-1.4c0,0,0,0,0,0c0,0,0,0,0,0c0,0,0,0,0,0c0,0,0,0,0,0c0,0,0,0,0,0c0,0,0,0,0,0c0,0,0,0,0,0
			c0,0,0,0,0,0c0,0,0,0,0,0c0,0,0,0,0,0c0,0,0,0,0,0c0,0,0,0,0,0c0,0,0,0,0,0c0,0,0,0,0,0c0,0,0,0,0,0c0,0,0,0,0,0c0,0,0,0,0,0
			c0,0,0,0,0,0c0,0,0,0,0,0c0,0,0,0,0,0c0,0,0,0,0,0c0,0,0,0,0,0c0,0,0,0,0,0c0,0,0,0,0,0c0,0,0,0,0,0c0,0,0,0,0,0c0,0,0,0,0,0
			c0,0,0,0,0,0c0,0,0,0,0,0c0,0,0,0,0,0c0,0,0,0,0,0C277.8,43.6,277.7,43.5,277.5,43.4L277.5,43.4z M271.6,39.7l-0.5,0.9
			c1.1,0.7,2.3,1.4,3.4,2l0.5-0.9c-0.9-0.5-1.7-1.1-2.6-1.6c0,0,0,0,0,0c0,0,0,0,0,0c0,0,0,0,0,0l0,0C272,40,271.8,39.9,271.6,39.7
			L271.6,39.7z M265.4,36.3l-0.5,0.9c1.2,0.6,2.3,1.3,3.5,1.9l0.5-0.9c-0.3-0.2-0.6-0.3-0.8-0.5c0,0,0,0,0,0c0,0,0,0,0,0
			c0,0,0,0,0,0c0,0,0,0,0,0c0,0,0,0,0,0c0,0,0,0,0,0c-0.7-0.4-1.4-0.7-2.1-1.1c0,0,0,0,0,0c0,0,0,0,0,0
			C265.7,36.5,265.6,36.4,265.4,36.3L265.4,36.3z M259.2,33.2l-0.4,0.9c1.2,0.6,2.4,1.1,3.6,1.7l0.4-0.9l0,0c0,0,0,0,0,0
			c0,0,0,0,0,0c0,0,0,0,0,0c0,0,0,0,0,0c0,0,0,0-0.1,0l0,0c0,0,0,0-0.1,0l0,0c-0.2-0.1-0.4-0.2-0.6-0.3c0,0,0,0,0,0c0,0,0,0,0,0
			c0,0,0,0,0,0c0,0,0,0,0,0c0,0,0,0,0,0c0,0,0,0,0,0c0,0,0,0,0,0c0,0,0,0,0,0c0,0,0,0,0,0c0,0,0,0,0,0c0,0,0,0,0,0c0,0,0,0,0,0
			c0,0,0,0,0,0c0,0,0,0,0,0c0,0,0,0,0,0c0,0,0,0,0,0c0,0,0,0,0,0c0,0,0,0,0,0c0,0,0,0,0,0c0,0,0,0,0,0c0,0,0,0,0,0c0,0,0,0,0,0
			c0,0,0,0,0,0c0,0,0,0,0,0c0,0,0,0,0,0c0,0,0,0,0,0c0,0,0,0,0,0c0,0,0,0,0,0c-0.3-0.2-0.7-0.3-1-0.5c0,0,0,0,0,0c0,0,0,0,0,0
			c0,0,0,0,0,0c0,0,0,0,0,0c0,0,0,0,0,0c0,0,0,0,0,0c0,0,0,0,0,0c0,0,0,0,0,0C259.8,33.5,259.5,33.4,259.2,33.2L259.2,33.2z
				M252.8,30.4l-0.4,0.9c1.2,0.5,2.4,1,3.6,1.6l0.4-0.9C255.3,31.4,254,30.9,252.8,30.4C252.8,30.4,252.8,30.4,252.8,30.4
			C252.8,30.4,252.8,30.4,252.8,30.4L252.8,30.4z M246.3,27.8l-0.3,0.9c1.2,0.5,2.5,0.9,3.7,1.4l0.4-0.9c-0.9-0.4-1.9-0.7-2.8-1.1
			c0,0,0,0,0,0c0,0,0,0,0,0c0,0,0,0,0,0c0,0,0,0,0,0C246.8,28,246.5,27.9,246.3,27.8L246.3,27.8z M239.7,25.5l-0.3,1
			c1.3,0.4,2.5,0.8,3.8,1.3l0.3-0.9c-0.2-0.1-0.5-0.2-0.7-0.2c0,0,0,0,0,0c0,0,0,0-0.1,0c0,0,0,0,0,0c0,0,0,0,0,0c0,0,0,0,0,0
			c0,0,0,0,0,0c0,0,0,0,0,0c0,0,0,0,0,0c0,0,0,0,0,0c0,0,0,0,0,0c0,0,0,0-0.1,0l0,0c-0.4-0.1-0.8-0.3-1.2-0.4l0,0c0,0,0,0-0.1,0l0,0
			c0,0,0,0,0,0c0,0,0,0,0,0c0,0,0,0,0,0c0,0,0,0,0,0c0,0,0,0,0,0c0,0,0,0,0,0c0,0,0,0,0,0c0,0,0,0,0,0c0,0,0,0,0,0c0,0,0,0-0.1,0
			c0,0,0,0,0,0c0,0,0,0-0.1,0l0,0C240.4,25.8,240,25.6,239.7,25.5L239.7,25.5z M232.9,23.6l-0.3,1c1.3,0.3,2.6,0.7,3.8,1.1l0.3-1
			c-1-0.3-1.9-0.6-2.9-0.8c0,0,0,0,0,0c0,0,0,0,0,0C233.5,23.7,233.2,23.6,232.9,23.6L232.9,23.6z M226.1,21.9l-0.2,1
			c1.3,0.3,2.6,0.6,3.9,0.9l0.2-1c0,0-0.1,0-0.1,0c0,0,0,0,0,0c0,0,0,0,0,0c0,0,0,0,0,0c0,0,0,0,0,0c0,0,0,0,0,0c0,0,0,0,0,0
			c-0.5-0.1-1-0.2-1.4-0.4c0,0,0,0,0,0c0,0,0,0,0,0c0,0,0,0,0,0c0,0,0,0,0,0c0,0,0,0,0,0c0,0,0,0,0,0c0,0,0,0,0,0h0
			C227.5,22.2,226.8,22,226.1,21.9L226.1,21.9z M219.3,20.5l-0.2,1c1.3,0.2,2.6,0.5,3.9,0.7l0.2-1c-0.2,0-0.5-0.1-0.7-0.1
			c0,0,0,0,0,0c0,0,0,0-0.1,0c0,0,0,0,0,0c0,0,0,0,0,0c0,0,0,0,0,0c0,0,0,0,0,0c0,0,0,0-0.1,0l0,0C221.3,20.9,220.3,20.7,219.3,20.5
			L219.3,20.5z M212.4,19.4l-0.1,1c1.3,0.2,2.6,0.4,3.9,0.6l0.2-1C215,19.8,213.7,19.6,212.4,19.4L212.4,19.4z M205.4,18.6l-0.1,1
			c1.3,0.1,2.6,0.3,4,0.4l0.1-1c-0.1,0-0.2,0-0.3,0c0,0,0,0,0,0c0,0,0,0,0,0c0,0,0,0,0,0c0,0,0,0,0,0c0,0,0,0,0,0c0,0,0,0,0,0
			c-1.1-0.1-2.2-0.2-3.3-0.3l0,0c0,0,0,0,0,0c0,0,0,0,0,0c0,0,0,0,0,0C205.5,18.6,205.4,18.6,205.4,18.6L205.4,18.6z M198.4,18.2
			l0,1c1.3,0.1,2.7,0.1,4,0.2l0.1-1c-0.6,0-1.2-0.1-1.8-0.1c0,0,0,0,0,0c0,0,0,0-0.1,0c0,0,0,0,0,0c0,0,0,0,0,0c0,0,0,0,0,0
			c0,0,0,0,0,0c0,0,0,0,0,0c0,0,0,0,0,0c0,0,0,0,0,0c0,0,0,0,0,0c0,0,0,0,0,0c0,0,0,0,0,0c0,0,0,0,0,0c0,0,0,0,0,0c0,0,0,0,0,0l0,0
			c0,0,0,0-0.1,0l0,0c-0.2,0-0.4,0-0.6,0c0,0,0,0,0,0c0,0,0,0,0,0C199.1,18.2,198.8,18.2,198.4,18.2L198.4,18.2z M191.4,18l0,1
			c1.3,0,2.7,0,4,0.1l0-1c-0.3,0-0.6,0-0.9,0c0,0,0,0,0,0c0,0,0,0,0,0c0,0,0,0,0,0c0,0,0,0,0,0c0,0,0,0-0.1,0l0,0
			c-0.3,0-0.6,0-0.9,0c0,0,0,0,0,0c0,0,0,0-0.1,0l0,0c0,0,0,0-0.1,0c0,0,0,0,0,0c0,0,0,0-0.1,0c0,0,0,0,0,0c0,0,0,0-0.1,0
			c0,0,0,0,0,0c0,0,0,0,0,0c0,0,0,0,0,0c0,0,0,0,0,0c0,0,0,0,0,0c0,0,0,0,0,0C192.5,18,192,18,191.4,18L191.4,18z"/>

			<path class="st1 dashed-circle middle" d="M191.5,97C191.5,97,191.5,97,191.5,97C191.5,97,191.5,97,191.5,97C191.4,97,191.4,97,191.5,97
				C191.4,97,191.4,97,191.5,97C191.4,97,191.4,97,191.5,97c-0.1,0-0.1,0-0.1,0c0,0,0,0,0,0c0,0,0,0,0,0c0,0,0,0,0,0c0,0,0,0,0,0
				c0,0,0,0,0,0c0,0,0,0,0,0c0,0,0,0,0,0c0,0,0,0,0,0c0,0,0,0,0,0c0,0,0,0,0,0c0,0,0,0,0,0c0,0,0,0,0,0c0,0,0,0,0,0c0,0,0,0,0,0
				c0,0,0,0,0,0c0,0,0,0,0,0c0,0,0,0,0,0c0,0,0,0,0,0c0,0,0,0,0,0c0,0,0,0,0,0c0,0,0,0,0,0c0,0,0,0,0,0c0,0,0,0,0,0c0,0,0,0,0,0
				c0,0,0,0,0,0c0,0,0,0,0,0c-1.2,0-2.3,0-3.5,0.1l0,1c1.3-0.1,2.6-0.1,4-0.1V97L191.5,97L191.5,97z M185.5,97.2
				c-1.2,0.1-2.5,0.2-3.7,0.4c0,0,0,0,0,0c0,0,0,0,0,0c0,0,0,0,0,0c0,0,0,0,0,0c0,0,0,0,0,0c0,0,0,0,0,0c0,0,0,0,0,0c0,0,0,0,0,0
				c0,0,0,0,0,0c0,0,0,0,0,0c0,0,0,0,0,0l0,0c0,0-0.1,0-0.1,0l0.1,1c1.3-0.2,2.6-0.3,3.9-0.4L185.5,97.2L185.5,97.2z M179.5,97.9
				c-0.4,0.1-0.8,0.1-1.2,0.2c0,0,0,0,0,0c0,0,0,0,0,0c0,0,0,0,0,0c0,0,0,0,0,0c0,0,0,0,0,0c0,0,0,0,0,0c0,0,0,0,0,0c0,0,0,0,0,0
				c0,0,0,0,0,0c0,0,0,0,0,0c0,0,0,0,0,0c0,0,0,0,0,0c0,0,0,0,0,0c0,0,0,0,0,0c0,0,0,0,0,0c0,0,0,0,0,0c-0.7,0.1-1.4,0.2-2.1,0.4
				c0,0,0,0,0,0c0,0,0,0,0,0c0,0,0,0,0,0c0,0,0,0,0,0c0,0,0,0,0,0c0,0,0,0,0,0c0,0,0,0,0,0c0,0,0,0,0,0c0,0,0,0,0,0c0,0,0,0,0,0
				c0,0,0,0,0,0c0,0,0,0,0,0c0,0,0,0,0,0l0,0c0,0,0,0,0,0l0,0c-0.1,0-0.1,0-0.2,0l0.2,1c1.3-0.3,2.6-0.5,3.9-0.7L179.5,97.9
				L179.5,97.9z M173.6,99c-0.7,0.2-1.4,0.3-2.1,0.5c0,0,0,0,0,0c0,0,0,0,0,0c0,0,0,0,0,0c0,0,0,0,0,0c0,0,0,0,0,0c0,0,0,0,0,0
				c0,0,0,0,0,0c0,0,0,0,0,0c0,0,0,0,0,0c0,0,0,0,0,0c0,0,0,0,0,0c0,0,0,0,0,0c0,0,0,0,0,0c0,0,0,0,0,0c0,0,0,0,0,0c0,0,0,0,0,0
				c0,0,0,0,0,0c0,0,0,0,0,0c0,0,0,0,0,0c0,0,0,0,0,0c0,0,0,0,0,0c0,0,0,0,0,0c0,0,0,0,0,0c0,0,0,0,0,0c0,0,0,0,0,0c0,0,0,0,0,0
				c0,0,0,0,0,0l0,0c0,0,0,0,0,0c0,0,0,0,0,0c0,0,0,0,0,0l0,0c0,0,0,0,0,0c0,0,0,0,0,0c0,0,0,0,0,0l0,0c0,0,0,0,0,0c0,0,0,0,0,0
				c0,0,0,0,0,0c0,0,0,0,0,0c-0.4,0.1-0.8,0.2-1.2,0.3l0.3,1c1.3-0.3,2.6-0.7,3.8-1L173.6,99L173.6,99z M167.8,100.5
				c-0.3,0.1-0.5,0.2-0.8,0.3c0,0,0,0,0,0c0,0,0,0,0,0c0,0,0,0,0,0c0,0,0,0,0,0c0,0,0,0,0,0c0,0,0,0,0,0c0,0,0,0,0,0c0,0,0,0,0,0
				c0,0,0,0,0,0c0,0,0,0,0,0c0,0,0,0,0,0c0,0,0,0,0,0c0,0,0,0,0,0c0,0,0,0,0,0c0,0,0,0,0,0c0,0,0,0,0,0c0,0,0,0,0,0c0,0,0,0,0,0
				c0,0,0,0-0.1,0c0,0,0,0,0,0c0,0,0,0-0.1,0c0,0,0,0,0,0c0,0,0,0-0.1,0l0,0c0,0,0,0-0.1,0l0,0c-0.6,0.2-1.2,0.4-1.8,0.6l0,0
				c0,0,0,0-0.1,0l0,0c0,0,0,0-0.1,0l0,0c0,0,0,0-0.1,0c0,0,0,0,0,0c0,0,0,0-0.1,0c0,0,0,0,0,0c0,0,0,0,0,0c0,0,0,0,0,0c0,0,0,0,0,0
				c0,0,0,0,0,0c0,0,0,0,0,0c0,0,0,0,0,0c0,0,0,0,0,0c0,0,0,0,0,0l0.3,0.9c1.2-0.4,2.5-0.9,3.8-1.2L167.8,100.5L167.8,100.5z
				M162.2,102.4c-0.8,0.3-1.6,0.6-2.4,1l0,0c0,0,0,0-0.1,0c0,0,0,0,0,0c0,0,0,0,0,0c0,0,0,0,0,0c0,0,0,0,0,0c0,0,0,0,0,0
				c0,0,0,0,0,0c0,0,0,0,0,0c0,0,0,0,0,0c0,0,0,0,0,0c0,0,0,0,0,0c0,0,0,0,0,0c0,0,0,0,0,0c0,0,0,0,0,0c0,0,0,0,0,0
				c-0.3,0.1-0.5,0.2-0.8,0.4l0.4,0.9c1.2-0.5,2.4-1,3.6-1.5L162.2,102.4L162.2,102.4z M156.7,104.8
				C156.6,104.8,156.6,104.8,156.7,104.8c-0.1,0-0.1,0-0.1,0c0,0,0,0,0,0c0,0,0,0,0,0c0,0,0,0,0,0c0,0,0,0,0,0c0,0,0,0,0,0
				c0,0,0,0,0,0c0,0,0,0,0,0c0,0,0,0,0,0c0,0,0,0,0,0c0,0,0,0-0.1,0c0,0,0,0,0,0c-1.1,0.5-2.1,1.1-3.2,1.6l0.5,0.9
				c1.2-0.6,2.3-1.2,3.5-1.8L156.7,104.8L156.7,104.8z M151.3,107.6c-0.9,0.5-1.7,1-2.6,1.5c0,0,0,0,0,0c0,0,0,0-0.1,0c0,0,0,0,0,0
				c0,0,0,0,0,0c0,0,0,0,0,0c0,0,0,0,0,0l0,0c0,0,0,0,0,0c0,0,0,0,0,0c0,0,0,0,0,0c0,0,0,0,0,0c0,0,0,0,0,0c0,0,0,0,0,0c0,0,0,0,0,0
				c0,0,0,0,0,0c0,0,0,0,0,0c0,0,0,0,0,0c0,0,0,0,0,0c0,0,0,0,0,0c0,0,0,0,0,0c0,0,0,0,0,0c0,0,0,0,0,0c0,0,0,0,0,0c0,0,0,0,0,0
				c-0.1,0.1-0.2,0.1-0.2,0.1l0.5,0.8c1.1-0.7,2.2-1.4,3.4-2L151.3,107.6L151.3,107.6z M146.2,110.7
				C146.2,110.7,146.2,110.7,146.2,110.7C146.2,110.7,146.2,110.7,146.2,110.7C146.2,110.8,146.2,110.8,146.2,110.7
				C146.2,110.8,146.1,110.8,146.2,110.7c-0.1,0.1-0.1,0.1-0.1,0.1c0,0,0,0,0,0c0,0,0,0,0,0c0,0,0,0,0,0c0,0,0,0,0,0c0,0,0,0,0,0
				c0,0,0,0,0,0c0,0,0,0,0,0c0,0,0,0,0,0c0,0,0,0,0,0c0,0,0,0,0,0c0,0,0,0,0,0c0,0,0,0,0,0c0,0,0,0,0,0c0,0,0,0,0,0c0,0,0,0,0,0
				c0,0,0,0,0,0c0,0,0,0,0,0c0,0,0,0,0,0c0,0,0,0,0,0c0,0,0,0,0,0c0,0,0,0,0,0c0,0,0,0,0,0c0,0,0,0,0,0c0,0,0,0,0,0c0,0,0,0,0,0
				c0,0,0,0,0,0c0,0,0,0,0,0c0,0,0,0,0,0c0,0,0,0,0,0c0,0,0,0,0,0c0,0,0,0,0,0c0,0,0,0,0,0c0,0,0,0,0,0c0,0,0,0,0,0c0,0,0,0,0,0
				c0,0,0,0,0,0c0,0,0,0,0,0c0,0,0,0,0,0c0,0,0,0,0,0c0,0,0,0,0,0c0,0,0,0,0,0c0,0,0,0,0,0c0,0,0,0,0,0c0,0,0,0,0,0c0,0,0,0,0,0
				c0,0,0,0,0,0c0,0,0,0,0,0c0,0,0,0,0,0c0,0,0,0,0,0c0,0,0,0,0,0c0,0,0,0,0,0c-0.6,0.4-1.2,0.9-1.9,1.3l0.6,0.8
				c1.1-0.8,2.1-1.5,3.2-2.3L146.2,110.7L146.2,110.7z M141.4,114.2C141.3,114.3,141.3,114.3,141.4,114.2
				C141.3,114.3,141.3,114.3,141.4,114.2c-0.1,0.1-0.1,0.1-0.1,0.1c0,0,0,0,0,0c0,0,0,0,0,0c0,0,0,0,0,0c0,0,0,0,0,0c0,0,0,0,0,0
				c0,0,0,0,0,0c0,0,0,0,0,0c0,0,0,0,0,0c0,0,0,0,0,0c0,0,0,0,0,0c0,0,0,0,0,0c0,0,0,0,0,0c0,0,0,0,0,0c0,0,0,0,0,0
				c-0.5,0.4-1,0.8-1.5,1.2c0,0,0,0,0,0c0,0,0,0,0,0c0,0,0,0,0,0c0,0,0,0,0,0c0,0,0,0,0,0c0,0,0,0,0,0c0,0,0,0,0,0c0,0,0,0,0,0
				c0,0,0,0,0,0c0,0,0,0,0,0c0,0,0,0,0,0c0,0,0,0,0,0c0,0,0,0,0,0c0,0,0,0,0,0c0,0,0,0,0,0c0,0,0,0,0,0c0,0,0,0,0,0c0,0,0,0,0,0
				c0,0,0,0,0,0l0,0c-0.2,0.2-0.4,0.4-0.7,0.6l0.7,0.8c1-0.9,2-1.7,3.1-2.5L141.4,114.2L141.4,114.2z M136.8,118.1
				c-0.1,0.1-0.1,0.1-0.2,0.2c0,0,0,0,0,0c0,0,0,0,0,0c0,0,0,0,0,0c0,0,0,0,0,0c0,0,0,0,0,0c0,0,0,0,0,0c0,0,0,0,0,0c0,0,0,0,0,0
				c0,0,0,0,0,0c0,0,0,0,0,0c-0.7,0.6-1.4,1.3-2.1,2l0,0c0,0,0,0,0,0c0,0,0,0,0,0c0,0,0,0,0,0c0,0,0,0,0,0c0,0,0,0,0,0c0,0,0,0,0,0
				c0,0,0,0,0,0c0,0,0,0,0,0c0,0,0,0,0,0c0,0,0,0,0,0c0,0,0,0,0,0c0,0,0,0,0,0c0,0,0,0,0,0c0,0,0,0,0,0c0,0,0,0,0,0c0,0,0,0,0,0
				c0,0,0,0,0,0c0,0,0,0,0,0l0.7,0.7c0.9-0.9,1.9-1.8,2.9-2.7L136.8,118.1L136.8,118.1z M132.5,122.3c-0.2,0.3-0.5,0.5-0.7,0.8
				c0,0,0,0,0,0c0,0,0,0,0,0c0,0,0,0,0,0c0,0,0,0,0,0c0,0,0,0,0,0c0,0,0,0,0,0c0,0,0,0,0,0c0,0,0,0,0,0c0,0,0,0,0,0c0,0,0,0,0,0
				c0,0,0,0,0,0c0,0,0,0,0,0c0,0,0,0,0,0c0,0,0,0,0,0c0,0,0,0,0,0c0,0,0,0,0,0c0,0,0,0,0,0c0,0,0,0,0,0c0,0,0,0,0,0c0,0,0,0,0,0
				c0,0,0,0,0,0c0,0,0,0,0,0c0,0,0,0,0,0c0,0,0,0,0,0c0,0,0,0,0,0c0,0,0,0,0,0c0,0,0,0,0,0c0,0,0,0,0,0c0,0,0,0,0,0c0,0,0,0,0,0
				c0,0,0,0,0,0c0,0,0,0,0,0c0,0,0,0,0,0c0,0,0,0,0,0c0,0,0,0,0,0c0,0,0,0,0,0c0,0,0,0,0,0c0,0,0,0,0,0c0,0,0,0,0,0c0,0,0,0,0,0
				c0,0,0,0,0,0c0,0,0,0,0,0c0,0,0,0,0,0c0,0,0,0,0,0c0,0,0,0,0,0c0,0,0,0,0,0c0,0,0,0,0,0c0,0,0,0,0,0c0,0,0,0,0,0c0,0,0,0,0,0
				c0,0,0,0,0,0c0,0,0,0,0,0c0,0,0,0,0,0c0,0,0,0,0,0c0,0,0,0,0,0c0,0,0,0,0,0c0,0,0,0,0,0c0,0,0,0,0,0c0,0,0,0,0,0c0,0,0,0,0,0
				c0,0,0,0,0,0c0,0,0,0,0,0c0,0,0,0,0,0c0,0,0,0,0,0c0,0,0,0,0,0c-0.2,0.2-0.4,0.5-0.6,0.7l0.8,0.7c0.9-1,1.8-2,2.7-2.9L132.5,122.3
				L132.5,122.3z M128.5,126.8c-0.2,0.3-0.4,0.5-0.7,0.8c0,0,0,0,0,0c0,0,0,0,0,0c0,0,0,0,0,0c0,0,0,0,0,0c0,0,0,0,0,0c0,0,0,0,0,0
				c0,0,0,0,0,0c0,0,0,0,0,0c0,0,0,0,0,0c0,0,0,0,0,0c0,0,0,0,0,0c0,0,0,0,0,0c0,0,0,0,0,0c0,0,0,0,0,0c0,0,0,0,0,0c0,0,0,0,0,0
				c0,0,0,0,0,0c0,0,0,0,0,0c0,0,0,0,0,0c0,0,0,0,0,0c0,0,0,0,0,0c0,0,0,0,0,0c0,0,0,0,0,0c0,0,0,0,0,0c0,0,0,0,0,0c0,0,0,0,0,0
				c0,0,0,0,0,0c0,0,0,0,0,0c0,0,0,0,0,0c0,0,0,0,0,0c0,0,0,0,0,0c0,0,0,0,0,0c0,0,0,0,0,0c-0.4,0.5-0.8,1-1.2,1.6l0.8,0.6
				c0.8-1.1,1.6-2.1,2.4-3.1L128.5,126.8L128.5,126.8z M124.9,131.6c-0.4,0.5-0.8,1.1-1.1,1.6l0,0c0,0,0,0,0,0.1l0,0c0,0,0,0,0,0l0,0
				c0,0,0,0,0,0c0,0,0,0,0,0c0,0,0,0,0,0c0,0,0,0,0,0c0,0,0,0,0,0c0,0,0,0,0,0c0,0,0,0,0,0c0,0,0,0,0,0c0,0,0,0,0,0c0,0,0,0,0,0
				c0,0,0,0,0,0c0,0,0,0,0,0c0,0,0,0,0,0c0,0,0,0,0,0c0,0,0,0,0,0c0,0,0,0,0,0c0,0,0,0,0,0c0,0,0,0,0,0c0,0,0,0,0,0c0,0,0,0,0,0
				c0,0,0,0,0,0c0,0,0,0,0,0c0,0,0,0,0,0c0,0,0,0,0,0c0,0,0,0,0,0c0,0,0,0,0,0c0,0,0,0,0,0c0,0,0,0,0,0c0,0,0,0,0,0c0,0,0,0,0,0
				c0,0,0,0,0,0c0,0,0,0,0,0c0,0,0,0,0,0c0,0,0,0,0,0c0,0,0,0,0,0l0,0c0,0,0,0,0,0l0,0c0,0,0,0,0,0l0,0c-0.1,0.2-0.2,0.4-0.3,0.5
				l0.8,0.5c0.7-1.1,1.4-2.2,2.2-3.3L124.9,131.6L124.9,131.6z M121.6,136.6c0,0.1-0.1,0.1-0.1,0.2c0,0,0,0,0,0c0,0,0,0,0,0
				c0,0,0,0,0,0c0,0,0,0,0,0c0,0,0,0,0,0c0,0,0,0,0,0c0,0,0,0,0,0c0,0,0,0,0,0c0,0,0,0,0,0c0,0,0,0,0,0c0,0,0,0,0,0c0,0,0,0,0,0
				c-0.3,0.6-0.7,1.2-1,1.8c0,0,0,0,0,0c0,0,0,0,0,0c0,0,0,0,0,0c0,0,0,0,0,0c0,0,0,0,0,0c0,0,0,0,0,0c0,0,0,0,0,0c0,0,0,0,0,0
				c0,0,0,0,0,0c0,0,0,0,0,0c0,0,0,0,0,0c0,0,0,0,0,0c0,0,0,0,0,0c0,0,0,0,0,0c0,0,0,0,0,0.1l0,0c-0.1,0.3-0.3,0.5-0.4,0.8l0.9,0.5
				c0.6-1.2,1.3-2.3,2-3.4L121.6,136.6L121.6,136.6z M118.7,141.8c-0.3,0.5-0.5,1.1-0.8,1.6c0,0,0,0,0,0c0,0,0,0,0,0.1c0,0,0,0,0,0
				c0,0,0,0,0,0.1c0,0,0,0,0,0c0,0,0,0,0,0c0,0,0,0,0,0c0,0,0,0,0,0c0,0,0,0,0,0c0,0,0,0,0,0c0,0,0,0,0,0c0,0,0,0,0,0c0,0,0,0,0,0
				c0,0,0,0,0,0c0,0,0,0,0,0c0,0,0,0,0,0c0,0,0,0,0,0c0,0,0,0,0,0c0,0,0,0,0,0c0,0,0,0,0,0c0,0,0,0,0,0c0,0,0,0,0,0c0,0,0,0,0,0
				c0,0,0,0,0,0c0,0,0,0,0,0c0,0,0,0,0,0c0,0,0,0,0,0c0,0,0,0,0,0c0,0,0,0,0,0.1c0,0,0,0,0,0c0,0,0,0,0,0.1c0,0,0,0,0,0
				c0,0,0,0,0,0.1l0,0c-0.2,0.3-0.3,0.7-0.5,1l0.9,0.4c0.5-1.2,1.1-2.4,1.7-3.6L118.7,141.8L118.7,141.8z M116.2,147.3
				c-0.1,0.2-0.1,0.3-0.2,0.5c0,0,0,0,0,0c0,0,0,0,0,0c0,0,0,0,0,0c0,0,0,0,0,0c0,0,0,0,0,0c0,0,0,0,0,0c0,0,0,0,0,0c0,0,0,0,0,0
				c0,0,0,0,0,0c0,0,0,0,0,0c0,0,0,0,0,0c0,0,0,0,0,0c0,0,0,0,0,0c0,0,0,0,0,0c0,0,0,0,0,0c0,0,0,0,0,0c0,0,0,0,0,0c0,0,0,0,0,0
				c0,0,0,0,0,0c0,0,0,0,0,0c0,0,0,0,0,0c0,0,0,0,0,0c0,0,0,0,0,0c0,0,0,0,0,0c0,0,0,0,0,0c0,0,0,0,0,0c0,0,0,0,0,0c0,0,0,0,0,0
				c0,0,0,0,0,0.1l0,0c0,0,0,0,0,0.1c0,0,0,0,0,0c0,0,0,0,0,0.1l0,0c0,0,0,0,0,0.1l0,0c0,0,0,0.1,0,0.1l0,0c-0.2,0.5-0.4,0.9-0.5,1.4
				c0,0,0,0,0,0c0,0,0,0,0,0.1c0,0,0,0,0,0c0,0,0,0,0,0.1c0,0,0,0,0,0c0,0,0,0,0,0c0,0,0,0,0,0c0,0,0,0,0,0c0,0,0,0,0,0c0,0,0,0,0,0
				c0,0,0,0,0,0c0,0,0,0,0,0c0,0,0,0,0,0c0,0,0,0,0,0c0,0,0,0,0,0c0,0,0,0,0,0c0,0.1-0.1,0.2-0.1,0.3l0.9,0.3
				c0.4-1.2,0.9-2.5,1.4-3.7L116.2,147.3L116.2,147.3z M114.1,152.9c-0.1,0.4-0.3,0.9-0.4,1.3c0,0,0,0,0,0c0,0,0,0,0,0.1c0,0,0,0,0,0
				c0,0,0,0,0,0.1c0,0,0,0,0,0c0,0,0,0,0,0.1c0,0,0,0,0,0c0,0,0,0,0,0c0,0,0,0,0,0c0,0,0,0,0,0c0,0,0,0,0,0c0,0,0,0,0,0c0,0,0,0,0,0
				c0,0,0,0,0,0c0,0,0,0,0,0c0,0,0,0,0,0c0,0,0,0,0,0c0,0,0,0,0,0c0,0,0,0,0,0c0,0,0,0,0,0c0,0,0,0,0,0c0,0,0,0,0,0c0,0,0,0,0,0
				c0,0,0,0,0,0c0,0,0,0,0,0c0,0,0,0,0,0c0,0,0,0,0,0c0,0,0,0,0,0c0,0,0,0,0,0c0,0,0,0,0,0c0,0,0,0,0,0.1c0,0,0,0,0,0c0,0,0,0,0,0.1
				c0,0,0,0,0,0c0,0,0,0,0,0.1c0,0,0,0,0,0c0,0,0,0,0,0.1c0,0,0,0,0,0c-0.1,0.3-0.2,0.6-0.2,0.8c0,0,0,0,0,0c0,0,0,0,0,0.1
				c0,0,0,0,0,0c0,0,0,0,0,0.1c0,0,0,0,0,0c0,0,0,0,0,0.1c0,0,0,0,0,0c0,0,0,0,0,0c0,0,0,0,0,0c0,0,0,0,0,0c0,0,0,0,0,0c0,0,0,0,0,0
				c0,0,0,0,0,0c0,0,0,0,0,0c0,0,0,0,0,0c0,0,0,0,0,0c0,0,0,0,0,0c0,0,0,0,0,0c0,0,0,0,0,0c0,0,0,0,0,0l1,0.3
				c0.3-1.3,0.7-2.5,1.1-3.8L114.1,152.9L114.1,152.9z M112.4,158.7c-0.2,0.7-0.3,1.4-0.5,2.1l0,0c0,0,0,0,0,0l0,0c0,0,0,0,0,0l0,0
				c0,0,0,0,0,0c0,0,0,0,0,0c0,0,0,0,0,0c0,0,0,0,0,0c0,0,0,0,0,0c0,0,0,0,0,0c0,0,0,0,0,0c0,0,0,0,0,0c0,0,0,0,0,0c0,0,0,0,0,0
				c0,0,0,0,0,0c0,0,0,0,0,0c0,0,0,0,0,0c0,0,0,0,0,0c0,0,0,0,0,0c0,0,0,0,0,0c0,0,0,0,0,0c0,0,0,0,0,0c0,0,0,0,0,0c0,0,0,0,0,0
				c0,0,0,0,0,0c0,0,0,0,0,0c0,0,0,0,0,0c-0.1,0.3-0.1,0.6-0.2,0.9c0,0,0,0,0,0c0,0,0,0,0,0c0,0.1-0.1,0.3-0.1,0.4l1,0.2
				c0.3-1.3,0.5-2.6,0.9-3.9L112.4,158.7L112.4,158.7z M111.2,164.5c-0.1,0.3-0.1,0.7-0.2,1c0,0,0,0,0,0c0,0,0,0,0,0c0,0,0,0,0,0
				c0,0,0,0,0,0c0,0,0,0,0,0c0,0,0,0,0,0c0,0,0,0,0,0c0,0,0,0,0,0c0,0,0,0,0,0c0,0,0,0,0,0c0,0,0,0,0,0c0,0,0,0,0,0c0,0,0,0,0,0
				c0,0,0,0,0,0c0,0,0,0,0,0c0,0,0,0,0,0c0,0,0,0,0,0c0,0,0,0,0,0c0,0,0,0,0,0c0,0,0,0,0,0c0,0,0,0,0,0c0,0,0,0,0,0c0,0,0,0,0,0
				c0,0,0,0,0,0c0,0,0,0,0,0c0,0,0,0,0,0c0,0,0,0,0,0c0,0,0,0,0,0c0,0,0,0,0,0c0,0,0,0,0,0c0,0,0,0,0,0c0,0,0,0,0,0c0,0,0,0,0,0
				c0,0,0,0,0,0c0,0,0,0,0,0c0,0,0,0,0,0c0,0,0,0,0,0c0,0,0,0,0,0c0,0,0,0,0,0c0,0,0,0,0,0c0,0,0,0,0,0c0,0,0,0,0,0c0,0,0,0,0,0
				c0,0,0,0,0,0c0,0,0,0,0,0c0,0,0,0,0,0c0,0,0,0,0,0c0,0,0,0,0,0c0,0,0,0,0,0c0,0,0,0,0,0c0,0,0,0,0,0c0,0,0,0,0,0c0,0,0,0,0,0
				c-0.1,0.7-0.2,1.3-0.3,2c0,0,0,0,0,0c0,0,0,0,0,0c0,0,0,0,0,0c0,0,0,0,0,0c0,0,0,0,0,0c0,0,0,0,0,0c0,0,0,0,0,0c0,0,0,0,0,0l1,0.1
				c0.2-1.3,0.4-2.6,0.6-3.9L111.2,164.5L111.2,164.5z M110.4,170.5c0,0.1,0,0.1,0,0.2c0,0,0,0,0,0c0,0,0,0,0,0c0,0,0,0,0,0
				c0,0.2,0,0.3,0,0.4c0,0,0,0,0,0c0,0,0,0,0,0c0,0,0,0,0,0c0,0,0,0,0,0c0,0,0,0,0,0c0,0,0,0,0,0c0,0,0,0,0,0c0,0,0,0,0,0
				c0,0,0,0,0,0c0,0,0,0,0,0c0,0,0,0,0,0c0,0,0,0,0,0c0,0,0,0,0,0c0,0,0,0,0,0c0,0,0,0,0,0c0,0,0,0,0,0c0,0,0,0,0,0c0,0,0,0,0,0
				c0,0,0,0,0,0c0,0,0,0,0,0c0,0,0,0,0,0c0,0,0,0,0,0c0,0,0,0,0,0c0,0,0,0,0,0c0,0,0,0,0,0c0,0,0,0,0,0c0,0,0,0,0,0c0,0,0,0,0,0
				c0,0,0,0,0,0l0,0c-0.1,1-0.1,1.9-0.2,2.9l1,0c0.1-1.3,0.2-2.6,0.3-3.9L110.4,170.5L110.4,170.5z M110,176.5c0,0,0,0.1,0,0.1
				c0,0,0,0,0,0c0,0,0,0,0,0c0,0,0,0,0,0c0,0,0,0,0,0c0,0.5,0,1,0,1.4c0,0,0,0,0,0c0,0,0,0,0,0c0,0,0,0,0,0c0,0,0,0,0,0c0,0,0,0,0,0
				c0,0,0,0,0,0c0,0,0,0,0,0c0,0,0,0,0,0c0,0,0,0,0,0c0,0,0,0,0,0c0,0,0,0,0,0c0,0,0,0,0,0c0,0,0,0,0,0c0,0,0,0,0,0c0,0,0,0,0,0
				c0,0,0,0,0,0c0,0,0,0,0,0c0,0,0,0,0,0c0,0,0,0,0,0c0,0,0,0,0,0c0,0,0,0,0,0c0,0,0,0,0,0c0,0,0,0,0,0c0,0,0,0,0,0l0,0c0,0,0,0,0,0
				c0,0,0,0,0,0c0,0,0,0,0,0c0,0,0,0,0,0c0,0,0,0,0,0c0,0,0,0,0,0c0,0,0,0,0,0c0,0,0,0,0,0c0,0,0,0,0,0c0,0,0,0,0,0c0,0,0,0,0,0
				c0,0,0,0,0,0c0,0,0,0,0,0c0,0,0,0,0,0c0,0,0,0,0,0c0,0,0,0,0,0c0,0,0,0,0,0c0,0,0,0,0,0c0,0,0,0,0,0c0,0,0,0,0,0c0,0,0,0,0,0
				c0,0,0,0,0,0c0,0,0,0,0,0c0,0,0,0,0,0c0,0,0,0,0,0c0,0,0,0,0,0c0,0,0,0.1,0,0.1c0,0,0,0,0,0c0,0,0,0,0,0c0,0,0,0,0,0c0,0,0,0,0,0
				c0,0,0,0,0,0c0,0,0,0,0,0c0,0,0,0,0,0c0,0,0,0,0,0c0,0,0,0,0,0c0,0,0,0,0,0c0,0,0,0,0,0c0,0,0,0,0,0c0,0,0,0,0,0c0,0,0,0,0,0
				c0,0,0,0,0,0c0,0,0,0,0,0c0,0,0,0,0,0c0,0,0,0,0,0c0,0,0,0,0,0c0,0,0,0,0,0c0,0,0,0,0,0c0,0,0,0,0,0c0,0,0,0,0,0c0,0,0,0,0,0
				c0,0,0,0,0,0c0,0,0,0,0,0c0,0,0,0,0,0c0,0,0,0,0,0c0,0,0,0,0,0c0,0,0,0,0,0c0,0,0,0,0,0c0,0,0,0,0,0c0,0,0,0,0,0c0,0,0,0,0,0
				c0,0,0,0,0,0c0,0,0,0,0,0c0,0,0,0,0,0c0,0,0,0,0,0c0,0,0,0,0,0c0,0,0,0,0,0c0,0,0,0,0,0c0,0,0,0,0,0c0,0,0,0,0,0c0,0,0,0,0,0
				c0,0,0,0,0,0c0,0,0,0,0,0c0,0,0,0,0,0c0,0,0,0,0,0c0,0,0,0,0,0c0,0,0,0,0,0c0,0,0,0,0,0c0,0,0,0,0,0c0,0,0,0,0,0c0,0,0,0,0,0
				c0,0,0,0,0,0c0,0,0,0,0,0c0,0,0,0,0,0c0,0,0,0,0,0c0,0,0,0,0,0c0,0,0,0,0,0c0,0,0,0,0,0c0,0,0,0,0,0c0,0,0,0,0,0c0,0,0,0,0,0
				c0,0,0,0,0,0c0,0,0,0,0,0c0,0,0,0,0,0c0,0,0,0,0,0c0,0,0,0,0,0c0,0,0,0,0,0c0,0,0,0,0,0c0,0,0,0,0,0c0,0,0,0,0,0c0,0,0,0,0,0
				c0,0,0,0,0,0c0,0,0,0,0,0c0,0,0,0,0,0c0,0,0,0,0,0c0,0,0,0,0,0c0,0,0,0.1,0,0.1c0,0,0,0,0,0c0,0,0,0,0,0l1,0c0-0.6,0-1.3,0-1.9
				c0-0.7,0-1.3,0-2L110,176.5L110,176.5z M111.1,182.4l-1,0c0,0.6,0.1,1.2,0.1,1.8l0,0c0,0,0,0,0,0c0,0,0,0,0,0c0,0,0,0,0,0
				c0,0,0,0,0,0c0,0,0,0,0,0c0,0,0,0,0,0c0,0,0,0,0,0c0,0,0,0,0,0c0,0,0,0,0,0c0,0,0,0,0,0c0,0,0,0,0,0c0,0,0,0,0,0c0,0,0,0,0,0
				c0,0,0,0,0,0c0,0,0,0,0,0c0,0,0,0,0,0c0,0,0,0,0,0c0,0,0,0,0,0c0,0,0,0,0,0c0,0,0,0,0,0c0,0,0,0,0,0c0,0,0,0,0,0c0,0,0,0,0,0
				c0,0.2,0,0.4,0,0.6c0,0,0,0,0,0c0,0,0,0,0,0c0,0,0,0,0,0c0,0,0,0,0,0c0,0,0,0,0,0c0,0,0,0,0,0c0,0,0,0,0,0c0,0,0,0,0,0
				c0,0,0,0,0,0c0,0,0,0,0,0c0,0,0,0,0,0c0,0,0,0,0,0c0,0,0,0,0,0c0,0,0,0,0,0c0,0,0,0,0,0c0,0,0,0,0,0c0,0,0,0,0,0c0,0,0,0,0,0
				c0,0,0,0,0,0c0,0,0,0,0,0c0,0,0,0,0,0c0,0,0,0,0,0c0,0,0,0,0,0l0,0c0,0.3,0,0.6,0.1,0.8l1-0.1
				C111.3,185.1,111.2,183.7,111.1,182.4L111.1,182.4z M111.6,188.3l-1,0.1c0.2,1.3,0.4,2.6,0.6,4l1-0.2
				C111.9,190.9,111.8,189.6,111.6,188.3L111.6,188.3z M112.5,194.2l-1,0.2c0.1,0.5,0.2,0.9,0.3,1.4l0,0c0,0,0,0,0,0l0,0c0,0,0,0,0,0
				c0,0,0,0,0,0c0,0,0,0,0,0c0,0,0,0,0,0c0,0,0,0,0,0c0,0,0,0,0,0c0,0,0,0,0,0c0,0,0,0,0,0c0,0,0,0,0,0c0,0,0,0,0,0c0,0,0,0,0,0
				c0,0,0,0,0,0c0,0,0,0,0,0c0,0,0,0,0,0c0,0,0,0,0,0c0,0,0,0,0,0c0,0,0,0,0,0c0,0,0,0,0,0c0,0,0,0,0,0c0.1,0.5,0.2,1,0.3,1.5
				c0,0,0,0,0,0c0,0,0,0,0,0c0,0,0,0,0,0c0,0,0,0,0,0c0,0,0,0,0,0c0,0,0,0,0,0c0,0,0,0,0,0c0,0,0,0,0,0c0,0,0,0,0,0c0,0,0,0,0,0
				c0,0,0,0,0,0c0,0,0,0,0,0c0,0,0,0,0,0c0,0,0,0,0,0c0,0,0,0,0,0c0,0,0,0,0,0c0,0.2,0.1,0.3,0.1,0.5l1-0.2
				C113.1,196.8,112.8,195.5,112.5,194.2L112.5,194.2z M113.9,199.9l-1,0.3c0,0,0,0,0,0c0,0,0,0,0,0c0,0,0,0,0,0c0,0,0,0,0,0
				c0,0,0,0,0,0c0,0,0,0,0,0.1c0,0,0,0,0,0c0,0,0,0,0,0.1c0,0,0,0,0,0c0,0,0,0,0,0.1c0,0,0,0,0,0c0,0,0,0,0,0.1c0,0,0,0,0,0
				c0,0,0,0,0,0.1c0,0,0,0,0,0c0,0,0,0,0,0.1c0,0,0,0,0,0c0,0,0,0,0,0.1c0,0,0,0,0,0c0,0,0,0,0,0.1c0,0,0,0,0,0c0,0,0,0,0,0.1
				c0,0,0,0,0,0c0,0,0,0,0,0.1c0,0,0,0,0,0c0,0,0,0,0,0.1c0,0,0,0,0,0c0,0,0,0,0,0.1c0,0,0,0,0,0c0,0,0,0,0,0.1c0,0,0,0,0,0
				c0,0,0,0,0,0.1c0,0,0,0,0,0c0,0,0,0,0,0.1c0,0,0,0,0,0c0,0,0,0,0,0.1c0,0,0,0,0,0c0,0,0,0,0,0.1c0,0,0,0,0,0c0,0,0,0,0,0.1
				c0,0,0,0,0,0c0,0,0,0,0,0c0,0,0,0,0,0c0,0,0,0,0,0c0,0,0,0,0,0c0,0,0,0,0,0c0,0,0,0,0,0c0,0,0,0,0,0c0,0,0,0,0,0c0,0,0,0,0,0
				c0,0,0,0,0,0c0,0,0,0,0,0c0,0,0,0,0,0c0,0,0,0,0,0c0,0,0,0,0,0c0,0,0,0,0,0c0,0,0,0,0,0c0,0,0,0,0,0c0,0,0,0,0,0c0,0,0,0,0,0
				c0,0,0,0,0,0c0,0,0,0,0,0c0,0,0,0,0,0c0,0,0,0,0,0c0,0,0,0,0,0c0,0,0,0,0,0c0,0,0,0,0,0c0,0,0,0,0,0c0,0,0,0,0,0c0,0,0,0,0,0
				c0,0,0,0,0,0c0,0,0,0,0,0c0,0,0,0,0,0.1c0,0,0,0,0,0c0,0,0,0,0,0.1c0,0,0,0,0,0c0.2,0.5,0.3,1,0.5,1.6l0.9-0.3
				C114.6,202.5,114.2,201.2,113.9,199.9L113.9,199.9z M115.7,205.6l-0.9,0.3c0.5,1.3,0.9,2.5,1.4,3.7l0.9-0.4
				C116.6,208.1,116.1,206.8,115.7,205.6L115.7,205.6z M117.9,211.1l-0.9,0.4c0,0.1,0.1,0.2,0.1,0.2l0,0c0,0,0,0,0,0.1c0,0,0,0,0,0
				c0,0,0,0,0,0c0,0,0,0,0,0c0,0,0,0,0,0c0,0,0,0,0,0c0,0,0,0,0,0c0,0,0,0,0,0c0,0,0,0,0,0c0,0,0,0,0,0c0,0,0,0,0,0c0,0,0,0,0,0
				c0,0,0,0,0,0c0,0,0,0,0,0.1c0,0,0,0,0,0c0.5,1,0.9,2,1.4,3l0.9-0.4C119,213.5,118.4,212.3,117.9,211.1L117.9,211.1z M120.5,216.4
				l-0.9,0.5c0.3,0.6,0.7,1.2,1,1.8l0,0c0,0,0,0,0,0.1l0,0c0,0,0,0,0,0c0,0,0,0,0,0c0,0,0,0,0,0c0,0,0,0,0,0c0,0,0,0,0,0c0,0,0,0,0,0
				c0,0,0,0,0,0c0,0,0,0,0,0c0,0,0,0,0,0c0,0,0,0,0,0c0,0,0,0,0,0c0,0,0,0,0,0c0,0,0,0,0,0c0,0,0,0,0,0c0,0,0,0,0,0c0,0,0,0,0,0
				c0,0,0,0,0,0c0,0,0,0,0,0c0,0,0,0,0,0c0,0,0,0,0,0c0,0,0,0,0,0c0.2,0.3,0.4,0.7,0.6,1c0,0,0,0,0,0c0,0,0,0,0,0l0.9-0.5
				C121.7,218.7,121.1,217.6,120.5,216.4L120.5,216.4z M123.5,221.5l-0.8,0.5c0.2,0.4,0.5,0.7,0.7,1.1c0,0,0,0,0,0c0,0,0,0,0,0
				c0,0,0,0,0,0c0,0,0,0,0,0c0,0,0,0,0,0c0,0,0,0,0,0c0,0,0,0,0,0c0,0,0,0,0,0c0,0,0,0,0,0c0,0,0,0,0,0c0,0,0,0,0,0c0,0,0,0,0,0
				c0,0,0,0,0,0c0,0,0,0,0,0c0,0,0,0,0,0c0,0,0,0,0,0c0,0,0,0,0,0c0,0,0,0,0,0c0,0,0,0,0,0c0,0,0,0,0,0c0,0,0,0,0,0c0,0,0,0,0,0
				c0,0,0,0,0,0c0,0,0,0,0,0c0,0,0,0,0,0c0,0,0,0,0,0c0,0,0,0,0,0c0,0,0,0,0,0c0,0,0,0,0,0c0,0,0,0,0,0c0,0,0,0,0,0c0,0,0,0,0,0
				c0,0,0,0,0,0c0,0,0,0,0,0c0,0,0,0,0,0c0,0,0,0,0,0c0,0,0,0,0,0c0,0,0,0,0,0c0,0,0,0,0,0c0,0,0,0,0,0c0,0,0,0,0,0c0,0,0,0,0,0
				c0,0,0,0,0,0c0,0,0,0,0,0c0,0,0,0,0,0c0,0,0,0,0,0c0,0,0,0,0,0c0,0,0,0,0,0c0,0,0,0,0,0c0,0,0,0,0,0c0,0,0,0,0,0l0,0c0,0,0,0,0,0
				c0,0,0,0,0,0c0,0,0,0,0,0c0,0,0,0,0,0c0,0,0,0,0,0c0,0,0,0,0,0c0,0,0,0,0,0c0,0,0,0,0,0c0,0,0,0,0,0c0,0,0,0,0,0c0,0,0,0,0,0
				c0,0,0,0,0,0c0,0,0,0,0,0c0,0,0,0,0,0c0,0,0,0,0,0c0,0,0,0,0,0c0,0,0,0,0,0c0,0,0,0,0,0c0,0,0,0,0,0c0,0,0,0,0,0c0,0,0,0,0,0
				c0,0,0,0,0,0c0,0,0,0,0,0c0,0,0,0,0,0c0,0,0,0,0,0c0,0,0,0,0,0c0,0,0,0,0,0c0.1,0.1,0.1,0.2,0.2,0.2l0.8-0.6
				C124.9,223.7,124.2,222.6,123.5,221.5L123.5,221.5z M126.8,226.4L126,227c0.8,1.1,1.6,2.1,2.5,3.2l0.8-0.6
				C128.4,228.5,127.6,227.5,126.8,226.4L126.8,226.4z M130.5,231l-0.8,0.7c0.7,0.9,1.5,1.7,2.3,2.6c0,0,0,0,0,0c0,0,0,0,0,0
				c0,0,0,0,0,0c0,0,0,0,0,0c0,0,0,0,0,0c0,0,0,0,0,0c0,0,0,0,0,0c0,0,0,0,0,0c0.1,0.1,0.2,0.2,0.2,0.2l0.7-0.7
				C132.3,233,131.4,232,130.5,231L130.5,231z M134.5,235.4l-0.7,0.7c0,0,0,0,0,0c0,0,0,0,0,0c0,0,0,0,0,0c0,0,0,0,0,0c0,0,0,0,0,0
				c0,0,0,0,0,0l0,0c0,0,0,0,0,0l0,0c0.9,0.9,1.8,1.7,2.7,2.6l0.7-0.7C136.4,237.2,135.5,236.3,134.5,235.4L134.5,235.4z
				M138.9,239.4l-0.7,0.8c0.5,0.5,1.1,0.9,1.6,1.3c0,0,0,0,0,0c0,0,0,0,0,0c0,0,0,0,0,0c0,0,0,0,0,0c0,0,0,0,0,0c0,0,0,0,0,0
				c0,0,0,0,0,0c0,0,0,0,0,0c0,0,0,0,0,0c0,0,0,0,0,0c0,0,0,0,0,0c0,0,0,0,0,0c0,0,0,0,0,0c0,0,0,0,0,0c0,0,0,0,0,0c0,0,0,0,0,0
				c0,0,0,0,0,0c0,0,0,0,0,0c0,0,0,0,0,0c0,0,0,0,0,0c0,0,0,0,0,0c0,0,0,0,0,0c0,0,0,0,0,0c0,0,0,0,0,0c0,0,0,0,0,0c0,0,0,0,0,0
				c0.3,0.2,0.6,0.5,0.9,0.7l0.6-0.8C140.9,241.1,139.9,240.3,138.9,239.4L138.9,239.4z M143.5,243.1l-0.6,0.8
				c0.6,0.4,1.2,0.9,1.8,1.3l0,0c0,0,0,0,0,0l0,0c0,0,0,0,0,0c0,0,0,0,0,0c0,0,0,0,0,0c0,0,0,0,0,0c0,0,0,0,0,0c0,0,0,0,0,0
				c0,0,0,0,0,0c0,0,0,0,0,0c0,0,0,0,0,0c0,0,0,0,0,0c0,0,0,0,0,0c0,0,0,0,0,0c0,0,0,0,0,0c0,0,0,0,0,0c0,0,0,0,0,0c0,0,0,0,0,0
				c0,0,0,0,0,0c0,0,0,0,0,0c0,0,0,0,0,0c0,0,0,0,0,0c0,0,0,0,0,0c0,0,0,0,0,0c0,0,0,0,0,0c0,0,0,0,0,0c0,0,0,0,0,0c0,0,0,0,0,0
				c0,0,0,0,0,0c0,0,0,0,0,0c0,0,0,0,0,0c0,0,0,0,0,0c0,0,0,0,0,0c0,0,0,0,0,0c0,0,0,0,0,0c0,0,0,0,0,0c0,0,0,0,0,0c0,0,0,0,0,0
				c0,0,0,0,0,0c0,0,0,0,0,0c0,0,0,0,0,0c0,0,0,0,0,0c0,0,0,0,0,0c0,0,0,0,0,0c0,0,0,0,0,0c0,0,0,0,0,0c0,0,0,0,0,0c0,0,0,0,0,0
				c0,0,0,0,0,0c0,0,0,0,0,0c0,0,0,0,0,0c0,0,0,0,0,0c0,0,0,0,0,0c0,0,0.1,0.1,0.1,0.1l0.6-0.8C145.6,244.7,144.6,243.9,143.5,243.1
				L143.5,243.1z M148.4,246.5l-0.5,0.8c0,0,0,0,0,0c0,0,0,0,0,0c0.6,0.4,1.2,0.7,1.8,1.1c0,0,0,0,0,0c0,0,0,0,0,0c0,0,0,0,0,0
				c0,0,0,0,0,0c0,0,0,0,0,0c0,0,0,0,0,0c0,0,0,0,0,0c0,0,0,0,0,0c0,0,0,0,0,0c0,0,0,0,0,0c0,0,0,0,0,0c0,0,0,0,0,0c0,0,0,0,0,0
				c0,0,0,0,0,0c0,0,0,0,0.1,0l0,0c0.4,0.2,0.8,0.5,1.2,0.7l0.5-0.9C150.6,247.9,149.5,247.2,148.4,246.5L148.4,246.5z M153.5,249.5
				l-0.5,0.9c0.7,0.4,1.3,0.7,2,1.1c0,0,0,0,0,0c0,0,0,0,0,0c0,0,0,0,0,0c0,0,0,0,0,0c0,0,0,0,0,0c0,0,0,0,0,0c0,0,0,0,0,0
				c0,0,0,0,0,0c0,0,0,0,0,0c0,0,0,0,0,0c0,0,0,0,0,0c0,0,0,0,0,0c0,0,0,0,0,0c0,0,0,0,0,0c0,0,0,0,0,0c0,0,0,0,0,0c0,0,0,0,0.1,0
				l0,0c0.4,0.2,0.7,0.3,1.1,0.5l0.4-0.9C155.8,250.7,154.7,250.1,153.5,249.5L153.5,249.5z M158.8,252.1l-0.4,0.9
				c0.2,0.1,0.5,0.2,0.7,0.3c0,0,0,0,0,0c0,0,0,0,0.1,0c0,0,0,0,0,0c0,0,0,0,0,0c0,0,0,0,0,0c0,0,0,0,0,0c0,0,0,0,0,0c0,0,0,0,0,0
				c0,0,0,0,0,0c0,0,0,0,0,0c0,0,0,0,0,0c0,0,0,0,0,0c0,0,0,0,0,0c0,0,0,0,0,0c0,0,0,0,0,0c0,0,0,0,0,0c0,0,0,0,0,0c0,0,0,0,0,0
				c0,0,0,0,0.1,0c0,0,0,0,0,0c0.8,0.3,1.6,0.7,2.4,1c0,0,0,0,0,0c0,0,0,0,0,0l0.4-0.9C161.2,253.1,160,252.6,158.8,252.1
				L158.8,252.1z M164.3,254.3l-0.3,0.9c1.3,0.4,2.5,0.9,3.8,1.3l0.3-1C166.8,255.2,165.5,254.7,164.3,254.3L164.3,254.3z M170,256.1
				l-0.3,1c0.9,0.2,1.7,0.5,2.6,0.7c0,0,0,0,0,0c0,0,0,0,0,0c0.4,0.1,0.9,0.2,1.3,0.3l0.2-1C172.5,256.8,171.2,256.4,170,256.1
				L170,256.1z M175.7,257.5l-0.2,1c0.5,0.1,1,0.2,1.5,0.3c0,0,0,0,0,0c0,0,0,0,0,0c0,0,0,0,0,0c0,0,0,0,0,0c0,0,0,0,0,0c0,0,0,0,0,0
				c0,0,0,0,0,0c0,0,0,0,0,0c0,0,0,0,0,0c0,0,0,0,0,0c0,0,0,0,0,0c0,0,0,0,0,0c0,0,0,0,0,0c0,0,0,0,0,0c0,0,0,0,0,0c0,0,0,0,0,0
				c0,0,0,0,0,0c0,0,0,0,0,0c0,0,0,0,0,0c0,0,0,0,0,0c0,0,0,0,0,0c0,0,0,0,0,0c0,0,0,0,0,0c0,0,0,0,0,0c0,0,0,0,0,0c0,0,0,0,0,0
				c0,0,0,0,0,0c0,0,0,0,0,0c0,0,0,0,0,0c0,0,0,0,0,0c0,0,0,0,0,0c0,0,0,0,0,0c0,0,0,0,0,0c0,0,0,0,0,0c0,0,0,0,0,0c0,0,0,0,0,0
				c0,0,0,0,0,0c0,0,0,0,0,0c0,0,0,0,0,0c0,0,0,0,0,0c0,0,0,0,0,0c0,0,0,0,0,0c0,0,0,0,0,0l0,0c0,0,0,0,0,0l0,0c0,0,0,0,0,0
				c0,0,0,0,0,0c0,0,0,0,0,0l0,0c0,0,0,0,0,0l0,0c0.1,0,0.2,0,0.4,0.1l0,0c0,0,0,0,0,0c0,0,0,0,0,0c0,0,0,0,0,0c0,0,0.1,0,0.1,0
				c0,0,0,0,0,0c0.4,0.1,0.8,0.1,1.1,0.2l0.1-1C178.3,257.9,177,257.7,175.7,257.5L175.7,257.5z M181.6,258.4l-0.1,1
				c1.2,0.2,2.5,0.3,3.7,0.4h0c0,0,0,0,0,0c0,0,0,0,0,0c0,0,0,0,0,0c0,0,0,0,0,0c0,0,0,0,0,0c0,0,0,0,0,0c0,0,0,0,0,0c0,0,0,0,0,0
				c0,0,0,0,0,0c0,0,0,0,0,0c0,0,0,0,0,0c0,0,0,0,0,0c0,0,0,0,0,0c0,0,0,0,0,0c0,0,0,0,0,0c0,0,0,0,0,0c0,0,0,0,0,0l0.1-1
				C184.2,258.7,182.9,258.6,181.6,258.4L181.6,258.4z M187.5,258.9l0,1c0,0,0,0,0,0c0,0,0,0,0,0c0,0,0,0,0,0c0,0,0,0,0,0
				c0,0,0,0,0,0c0,0,0,0,0,0c0,0,0,0,0,0c0,0,0,0,0,0c0,0,0,0,0,0c0,0,0,0,0,0c1,0,2.1,0.1,3.1,0.1c0.2,0,0.5,0,0.7,0l0-1
				C190.1,259,188.8,259,187.5,258.9L187.5,258.9z M197.4,258.8c-1.3,0.1-2.6,0.2-3.9,0.2l0,1c1,0,1.9-0.1,2.8-0.1c0,0,0,0,0,0
				c0,0,0,0,0,0c0,0,0,0,0,0c0,0,0,0,0,0c0,0,0,0,0,0c0,0,0,0,0,0c0,0,0,0,0,0c0,0,0,0,0,0c0,0,0,0,0,0c0,0,0,0,0,0c0,0,0,0,0,0
				c0,0,0,0,0,0c0,0,0,0,0,0c0,0,0,0,0,0c0,0,0,0,0,0c0,0,0,0,0,0c0,0,0,0,0,0l0,0c0,0,0,0,0,0l0,0c0,0,0,0,0,0l0,0
				c0.3,0,0.5,0,0.8-0.1L197.4,258.8L197.4,258.8z M203.2,258.1c-1.3,0.2-2.6,0.3-3.9,0.5l0.1,1c0,0,0,0,0,0c0.1,0,0.2,0,0.2,0
				c0,0,0,0,0,0c0,0,0,0,0.1,0l0,0c0,0,0,0,0.1,0l0,0c0,0,0,0,0,0l0,0c0,0,0,0,0,0c0,0,0,0,0,0c0,0,0,0,0,0c0,0,0,0,0,0c0,0,0,0,0,0
				c0,0,0,0,0,0s0,0,0,0s0,0,0,0c0,0,0,0,0,0c0,0,0,0,0,0c0,0,0,0,0,0c0,0,0,0,0,0c0,0,0,0,0,0c0,0,0,0,0,0c0,0,0,0,0,0c0,0,0,0,0,0
				c0,0,0,0,0,0c0,0,0,0,0,0c0,0,0,0,0,0c0,0,0,0,0,0c0,0,0,0,0,0c0,0,0,0,0,0c0,0,0,0,0,0c0,0,0,0,0,0c0,0,0,0,0,0
				c1.1-0.1,2.1-0.2,3.2-0.4L203.2,258.1L203.2,258.1z M209.1,257.1c-1.3,0.3-2.6,0.5-3.9,0.8l0.2,1c1.3-0.2,2.6-0.5,3.9-0.8
				L209.1,257.1L209.1,257.1z M214.8,255.6c-1.3,0.4-2.5,0.7-3.8,1l0.2,1c1.3-0.3,2.6-0.7,3.9-1.1L214.8,255.6L214.8,255.6z
				M220.4,253.7c-1.2,0.5-2.5,0.9-3.7,1.3l0.3,0.9c0.6-0.2,1.3-0.4,1.9-0.6l0,0c0.1,0,0.2-0.1,0.2-0.1l0,0c0,0,0.1,0,0.1,0l0,0
				c0,0,0.1,0,0.1,0l0,0c0,0,0,0,0.1,0l0,0c0,0,0,0,0.1,0l0,0c0,0,0.1,0,0.1,0l0,0c0.4-0.1,0.8-0.3,1.2-0.4L220.4,253.7L220.4,253.7z
				M225.9,251.3c-1.2,0.6-2.4,1.1-3.6,1.6l0.4,0.9c1.2-0.5,2.5-1.1,3.7-1.6L225.9,251.3L225.9,251.3z M231.1,248.6
				c-1.1,0.6-2.3,1.3-3.5,1.9l0.4,0.9c0.1-0.1,0.3-0.2,0.4-0.2l0,0c0,0,0,0,0.1,0l0,0c0,0,0,0,0.1,0l0,0c0,0,0,0,0,0c0,0,0,0,0,0
				c0,0,0,0,0,0c0,0,0,0,0,0c0,0,0,0,0,0c0,0,0,0,0,0c0,0,0,0,0,0c0,0,0,0,0,0c0,0,0,0,0,0c0,0,0,0,0,0c0,0,0,0,0,0c0,0,0,0,0,0
				c0,0,0,0,0,0c0,0,0,0,0,0c0,0,0,0,0,0c0,0,0,0,0,0c0,0,0,0,0,0c0,0,0,0,0,0c0,0,0,0,0,0c0.1,0,0.1-0.1,0.2-0.1c0,0,0,0,0,0
				c0,0,0,0,0.1,0c0,0,0,0,0,0c0,0,0,0,0,0c0,0,0,0,0,0c0,0,0,0,0,0c0,0,0,0,0,0c0,0,0,0,0,0c0,0,0,0,0,0c0,0,0,0,0,0c0,0,0,0,0,0
				c0,0,0,0,0,0c0,0,0,0,0,0c0,0,0,0,0,0c0,0,0,0,0,0c0,0,0,0,0,0c0,0,0,0,0,0c0,0,0,0,0,0c0,0,0,0,0,0c0,0,0,0,0,0c0,0,0,0,0,0
				c0,0,0,0,0,0c0,0,0,0,0,0c0,0,0,0,0,0c0,0,0,0,0,0c0,0,0,0,0,0c0,0,0,0,0,0c0,0,0,0,0,0c0,0,0,0,0,0c0,0,0,0,0,0c0,0,0,0,0,0
				c0,0,0,0,0,0c0,0,0,0,0,0c0,0,0,0,0,0c0,0,0,0,0,0c0,0,0,0,0,0c0,0,0,0,0,0c0,0,0,0,0,0c0,0,0,0,0,0c0,0,0,0,0,0c0,0,0,0,0,0
				c0,0,0,0,0,0c0,0,0,0,0,0c0,0,0,0,0,0c0,0,0,0,0,0l0,0c0,0,0,0,0,0c0,0,0,0,0,0c0,0,0,0,0,0c0,0,0,0,0,0c0,0,0,0,0,0c0,0,0,0,0,0
				c0,0,0,0,0,0c0,0,0,0,0,0c0,0,0,0,0,0c0,0,0,0,0,0c0,0,0,0,0.1,0c0,0,0,0,0,0c0,0,0,0,0.1,0c0,0,0,0,0,0c0,0,0,0,0.1,0l0,0
				c0,0,0,0,0.1,0l0,0c0,0,0,0,0.1,0l0,0c0,0,0,0,0.1,0l0,0c0,0,0,0,0.1,0l0,0c0,0,0,0,0.1,0c0,0,0,0,0,0c0,0,0,0,0.1,0c0,0,0,0,0,0
				c0,0,0,0,0.1,0c0,0,0,0,0,0c0,0,0,0,0.1,0c0,0,0,0,0,0c0,0,0,0,0.1,0c0,0,0,0,0,0c0,0,0,0,0,0c0,0,0,0,0,0c0,0,0,0,0,0
				c0,0,0,0,0,0L231.1,248.6L231.1,248.6z M236.2,245.5c-1.1,0.7-2.2,1.4-3.3,2.1l0.5,0.9c1-0.6,1.9-1.2,2.8-1.8c0,0,0,0,0,0
				c0,0,0,0,0,0c0,0,0,0,0,0c0,0,0,0,0,0c0,0,0,0,0,0c0,0,0,0,0,0c0,0,0,0,0,0c0,0,0,0,0,0c0,0,0,0,0,0c0,0,0,0,0,0c0,0,0,0,0,0
				c0,0,0,0,0,0c0,0,0,0,0,0c0,0,0,0,0,0c0.1,0,0.1-0.1,0.2-0.1L236.2,245.5L236.2,245.5z M241,242c-1,0.8-2.1,1.6-3.2,2.4l0.6,0.8
				c0.8-0.6,1.6-1.2,2.4-1.8l0,0c0,0,0,0,0,0c0,0,0,0,0,0c0,0,0,0,0,0c0,0,0,0,0,0c0,0,0,0,0,0c0,0,0,0,0,0c0,0,0,0,0,0c0,0,0,0,0,0
				c0,0,0,0,0,0c0.2-0.1,0.4-0.3,0.6-0.4L241,242L241,242z M245.5,238.2c-1,0.9-2,1.7-3,2.6l0.6,0.8c0.2-0.2,0.5-0.4,0.7-0.6
				c0,0,0,0,0,0c0,0,0,0,0,0c0,0,0,0,0,0c0,0,0,0,0,0c0,0,0,0,0,0c0,0,0,0,0,0c0,0,0,0,0,0c0,0,0,0,0,0c0,0,0,0,0,0c0,0,0,0,0,0
				c0,0,0,0,0,0c0,0,0,0,0,0c0,0,0,0,0,0c0,0,0,0,0,0c0,0,0,0,0,0c0,0,0,0,0,0c0,0,0,0,0,0c0,0,0,0,0,0c0,0,0,0,0,0l0,0
				c0.6-0.5,1.3-1.1,1.9-1.6l0,0L245.5,238.2L245.5,238.2z M249.7,234.1c-0.9,0.9-1.8,1.9-2.8,2.8l0.7,0.7c0.1-0.1,0.1-0.1,0.2-0.2
				l0,0c0.1-0.1,0.1-0.1,0.2-0.2c0,0,0,0,0,0c0,0,0,0,0,0c0,0,0,0,0,0c0,0,0,0,0,0c0,0,0,0,0,0c0,0,0,0,0,0c0,0,0,0,0,0c0,0,0,0,0,0
				c0,0,0,0,0,0c0,0,0,0,0,0c0,0,0,0,0,0c0,0,0,0,0,0c0,0,0,0,0,0c0,0,0,0,0,0c0,0,0,0,0,0c0,0,0,0,0,0c0,0,0,0,0,0c0,0,0,0,0,0
				c0,0,0,0,0,0c0,0,0,0,0,0c0,0,0,0,0,0c0,0,0,0,0,0c0,0,0,0,0,0c0,0,0,0,0,0c0,0,0,0,0,0c0,0,0,0,0,0c0,0,0,0,0,0c0,0,0,0,0,0
				c0,0,0,0,0,0c0,0,0,0,0,0c0,0,0,0,0,0c0,0,0,0,0,0c0,0,0,0,0,0c0,0,0,0,0,0c0,0,0,0,0,0c0,0,0,0,0,0c0,0,0,0,0,0c0,0,0,0,0,0
				c0,0,0,0,0,0c0,0,0,0,0,0c0,0,0,0,0,0c0,0,0,0,0,0c0,0,0,0,0,0c0,0,0,0,0,0c0,0,0,0,0,0c0,0,0,0,0,0c0,0,0,0,0,0c0,0,0,0,0,0
				c0,0,0,0,0,0c0,0,0,0,0,0c0,0,0,0,0,0c0,0,0,0,0,0c0,0,0,0,0,0c0,0,0,0,0,0c0,0,0,0,0,0c0,0,0,0,0,0c0,0,0,0,0,0c0,0,0,0,0,0
				c0,0,0,0,0,0c0,0,0,0,0,0c0,0,0,0,0,0c0,0,0,0,0,0c0,0,0,0,0,0c0,0,0,0,0,0c0,0,0,0,0,0c0,0,0,0,0,0c0,0,0,0,0,0c0,0,0,0,0,0
				c0,0,0,0,0,0c0,0,0,0,0,0c0,0,0,0,0,0c0,0,0,0,0,0c0,0,0,0,0,0c0,0,0,0,0,0c0,0,0,0,0,0c0,0,0,0,0,0c0,0,0,0,0,0c0,0,0,0,0,0
				c0.3-0.3,0.5-0.5,0.8-0.8L249.7,234.1L249.7,234.1z M253.7,229.6c-0.8,1-1.7,2-2.6,3l0.7,0.7c0,0,0,0,0,0c0,0,0,0,0,0c0,0,0,0,0,0
				c0,0,0,0,0,0c0,0,0,0,0,0c0,0,0,0,0,0c0,0,0,0,0,0c0,0,0,0,0,0c0,0,0,0,0,0c0,0,0,0,0,0c0,0,0,0,0,0c0,0,0,0,0,0c0,0,0,0,0,0
				c0,0,0,0,0,0c0,0,0,0,0,0c0,0,0,0,0,0c0,0,0,0,0,0c0,0,0,0,0,0c0,0,0,0,0,0c0,0,0,0,0,0c0,0,0,0,0,0c0,0,0,0,0,0c0,0,0,0,0,0
				c0,0,0,0,0,0c0,0,0,0,0,0c0,0,0,0,0,0c0,0,0,0,0,0c0,0,0,0,0,0c0,0,0,0,0,0c0,0,0,0,0,0c0,0,0,0,0,0c0,0,0,0,0,0c0,0,0,0,0,0
				c0,0,0,0,0,0c0,0,0,0,0,0c0,0,0,0,0,0c0,0,0,0,0,0c0,0,0,0,0,0c0,0,0,0,0,0c0,0,0,0,0,0c0,0,0,0,0,0c0,0,0,0,0,0c0,0,0,0,0,0
				c0,0,0,0,0,0c0,0,0,0,0,0c0,0,0,0,0,0c0,0,0,0,0,0c0,0,0,0,0,0c0,0,0,0,0,0c0,0,0,0,0,0c0,0,0,0,0,0c0,0,0,0,0,0l0,0c0,0,0,0,0,0
				l0,0c0,0,0,0,0,0c0,0,0,0,0,0c0,0,0,0,0,0c0,0,0,0,0,0c0,0,0,0,0,0c0,0,0,0,0,0c0,0,0,0,0,0l0,0c0,0,0,0,0,0l0,0c0,0,0,0,0,0l0,0
				c0,0,0,0,0,0l0,0c0.2-0.3,0.4-0.5,0.6-0.8l0,0c0,0,0,0,0,0l0,0c0,0,0,0,0,0c0,0,0,0,0,0c0,0,0,0,0,0c0,0,0,0,0,0c0,0,0,0,0,0
				c0,0,0,0,0,0c0,0,0,0,0,0l0,0c0,0,0,0,0,0c0,0,0,0,0,0c0,0,0,0,0,0c0,0,0,0,0,0c0,0,0,0,0,0c0,0,0,0,0,0c0,0,0,0,0,0c0,0,0,0,0,0
				c0,0,0,0,0,0c0,0,0,0,0,0c0,0,0,0,0,0c0,0,0,0,0,0c0,0,0,0,0,0c0,0,0,0,0,0c0,0,0,0,0,0c0,0,0,0,0,0c0,0,0,0,0,0c0,0,0,0,0,0
				L253.7,229.6L253.7,229.6z M257.3,224.9c-0.8,1.1-1.6,2.1-2.4,3.2l0.8,0.6c0.2-0.3,0.4-0.6,0.7-0.9c0,0,0,0,0,0c0,0,0,0,0,0
				c0,0,0,0,0,0c0,0,0,0,0,0c0,0,0,0,0,0c0,0,0,0,0,0c0,0,0,0,0,0c0,0,0,0,0,0c0,0,0,0,0,0c0,0,0,0,0,0c0,0,0,0,0,0c0,0,0,0,0,0
				c0,0,0,0,0,0c0,0,0,0,0,0c0,0,0,0,0,0c0,0,0,0,0,0c0,0,0,0,0,0c0,0,0,0,0,0c0,0,0,0,0,0c0,0,0,0,0,0c0,0,0,0,0,0c0,0,0,0,0,0
				c0,0,0,0,0,0c0,0,0,0,0,0c0,0,0,0,0,0c0,0,0,0,0,0c0,0,0,0,0,0c0,0,0,0,0,0c0,0,0,0,0,0c0,0,0,0,0,0c0,0,0,0,0,0c0,0,0,0,0,0
				c0,0,0,0,0,0c0,0,0,0,0,0c0,0,0,0,0,0l0,0c0,0,0,0,0,0l0,0c0,0,0,0,0,0l0,0c0,0,0,0,0,0c0,0,0,0,0,0c0,0,0,0,0,0l0,0c0,0,0,0,0,0
				c0,0,0,0,0,0c0,0,0,0,0,0l0,0c0,0,0,0,0,0c0,0,0,0,0,0c0,0,0,0,0,0c0,0,0,0,0,0c0,0,0,0,0,0c0,0,0,0,0,0c0,0,0,0,0,0c0,0,0,0,0,0
				c0,0,0,0,0,0c0,0,0,0,0,0c0,0,0,0,0,0c0,0,0,0,0,0c0,0,0,0,0,0c0,0,0,0,0,0c0,0,0,0,0,0c0,0,0,0,0,0c0,0,0,0,0,0c0,0,0,0,0,0
				c0,0,0,0,0,0c0,0,0,0,0,0c0,0,0,0,0,0c0,0,0,0,0,0c0,0,0,0,0,0c0.1-0.2,0.3-0.4,0.4-0.6L257.3,224.9L257.3,224.9z M260.5,220
				c-0.7,1.1-1.4,2.2-2.1,3.3l0.8,0.6c0,0,0,0,0,0c0,0,0,0,0,0c0,0,0,0,0,0c0,0,0,0,0,0c0,0,0,0,0,0c0,0,0,0,0,0c0,0,0,0,0,0
				c0,0,0,0,0,0c0,0,0,0,0,0c0.3-0.4,0.5-0.8,0.8-1.1l0,0c0,0,0,0,0-0.1l0,0c0,0,0,0,0,0l0,0c0,0,0,0,0,0c0,0,0,0,0,0c0,0,0,0,0,0
				c0,0,0,0,0,0c0,0,0,0,0,0c0,0,0,0,0,0c0,0,0,0,0,0c0,0,0,0,0,0c0,0,0,0,0,0c0,0,0,0,0,0c0,0,0,0,0,0c0,0,0,0,0,0c0,0,0,0,0,0
				c0,0,0,0,0,0c0,0,0,0,0,0c0,0,0,0,0,0c0,0,0,0,0,0c0,0,0,0,0,0c0,0,0,0,0,0c0,0,0,0,0,0c0,0,0,0,0,0c0,0,0,0,0,0c0,0,0,0,0,0
				c0,0,0,0,0,0c0,0,0,0,0,0c0,0,0,0,0-0.1c0,0,0,0,0,0c0,0,0,0,0-0.1c0,0,0,0,0,0c0.2-0.3,0.3-0.6,0.5-0.8c0,0,0,0,0,0c0,0,0,0,0,0
				c0,0,0,0,0,0c0,0,0,0,0,0c0,0,0,0,0,0c0,0,0,0,0,0c0,0,0,0,0,0c0,0,0,0,0,0c0,0,0,0,0,0c0,0,0,0,0,0c0,0,0,0,0,0c0,0,0,0,0,0
				L260.5,220L260.5,220z M263.4,214.8c-0.6,1.2-1.2,2.3-1.9,3.5l0.9,0.5c0.7-1.2,1.3-2.3,1.9-3.5L263.4,214.8L263.4,214.8z
				M265.9,209.4c-0.5,1.2-1,2.4-1.6,3.6l0.9,0.4c0.5-1,0.9-2,1.3-3l0,0c0,0,0,0,0-0.1c0,0,0,0,0,0c0,0,0,0,0-0.1c0,0,0,0,0,0
				c0,0,0,0,0-0.1c0,0,0,0,0,0c0,0,0,0,0,0c0,0,0,0,0,0c0,0,0,0,0,0c0,0,0,0,0,0c0,0,0,0,0,0c0,0,0,0,0,0c0,0,0,0,0,0c0,0,0,0,0,0
				c0,0,0,0,0,0c0,0,0,0,0,0c0,0,0,0,0,0c0,0,0,0,0,0c0,0,0,0,0,0c0,0,0,0,0,0c0,0,0,0,0,0c0,0,0,0,0,0c0,0,0,0,0,0c0,0,0,0,0,0
				L265.9,209.4L265.9,209.4z M267.9,203.9c-0.4,1.2-0.9,2.5-1.3,3.7l0.9,0.4c0.1-0.1,0.1-0.3,0.2-0.4l0,0c0,0,0,0,0-0.1c0,0,0,0,0,0
				c0,0,0,0,0,0c0,0,0,0,0,0c0,0,0,0,0,0c0,0,0,0,0,0c0,0,0,0,0,0c0,0,0,0,0,0c0,0,0,0,0,0c0,0,0,0,0,0c0,0,0,0,0,0c0,0,0,0,0,0
				c0,0,0,0,0,0c0,0,0,0,0,0c0,0,0,0,0,0c0,0,0,0,0-0.1c0,0,0,0,0,0c0,0,0,0,0-0.1c0,0,0,0,0,0c0.3-0.8,0.6-1.6,0.8-2.3c0,0,0,0,0,0
				c0,0,0,0,0-0.1c0,0,0,0,0,0c0,0,0,0,0,0c0,0,0,0,0,0c0,0,0,0,0,0c0,0,0,0,0,0c0,0,0,0,0,0c0,0,0,0,0,0c0,0,0,0,0,0c0,0,0,0,0,0
				c0,0,0,0,0,0c0,0,0,0,0,0c0,0,0,0,0,0c0,0,0,0,0,0c0,0,0,0,0,0L267.9,203.9L267.9,203.9z M269.6,198.2c-0.3,1.3-0.7,2.6-1.1,3.8
				l1,0.3c0.4-1.3,0.7-2.6,1.1-3.9L269.6,198.2L269.6,198.2z M270.8,192.4c-0.2,1.3-0.5,2.6-0.8,3.9l1,0.2c0.1-0.4,0.2-0.9,0.3-1.3
				l0,0c0,0,0,0,0,0c0,0,0,0,0,0c0,0,0,0,0,0c0,0,0,0,0,0c0,0,0,0,0,0c0,0,0,0,0,0c0,0,0,0,0,0c0,0,0,0,0,0c0,0,0,0,0,0c0,0,0,0,0,0
				c0,0,0,0,0,0c0,0,0,0,0,0c0,0,0,0,0,0c0,0,0,0,0,0c0,0,0,0,0,0c0,0,0,0,0,0c0,0,0,0,0,0c0,0,0,0,0,0c0,0,0,0,0,0c0,0,0,0,0,0
				c0,0,0,0,0,0c0,0,0,0,0,0c0,0,0,0,0,0c0,0,0,0,0,0c0,0,0,0,0,0c0,0,0,0,0,0c0,0,0,0,0,0c0,0,0,0,0,0c0,0,0,0,0,0c0,0,0,0,0,0l0,0
				c0,0,0,0,0,0l0,0c0,0,0,0,0,0l0,0c0,0,0,0,0,0l0,0c0,0,0,0,0,0l0,0c0.1-0.4,0.2-0.8,0.2-1.2c0,0,0,0,0,0c0,0,0,0,0,0c0,0,0,0,0,0
				c0,0,0,0,0,0c0,0,0,0,0,0c0,0,0,0,0,0c0,0,0,0,0,0c0,0,0,0,0,0c0,0,0,0,0-0.1c0,0,0,0,0,0c0-0.2,0.1-0.5,0.1-0.7L270.8,192.4
				L270.8,192.4z M271.6,186.5c-0.1,1.3-0.3,2.6-0.5,3.9l1,0.1c0.2-1.3,0.4-2.6,0.5-4L271.6,186.5L271.6,186.5z M272,180.6
				c0,1.3-0.1,2.6-0.2,3.9l1,0.1c0.1-1.3,0.2-2.7,0.2-4L272,180.6L272,180.6z M272.9,174.6l-1,0c0.1,1.3,0.1,2.6,0.1,3.8l0,0.1l1,0
				c0,0,0-0.1,0-0.1l0,0l0,0c0,0,0,0,0-0.1c0,0,0,0,0,0c0,0,0,0,0-0.1c0,0,0,0,0,0c0,0,0,0,0-0.1c0,0,0,0,0,0c0,0,0,0,0-0.1
				c0,0,0,0,0,0c0,0,0,0,0-0.1c0,0,0,0,0,0c0,0,0,0,0-0.1c0,0,0,0,0,0c0,0,0,0,0-0.1v0c0,0,0,0,0,0c0,0,0,0,0,0c0,0,0,0,0-0.1
				c0,0,0,0,0,0c0,0,0,0,0,0c0,0,0,0,0,0c0,0,0,0,0,0c0,0,0,0,0,0c0,0,0,0,0,0c0,0,0,0,0,0c0,0,0,0,0,0c0,0,0,0,0,0c0,0,0,0,0,0
				c0,0,0,0,0,0c0,0,0,0,0,0c0,0,0,0,0,0c0,0,0,0,0,0c0,0,0,0,0,0c0,0,0,0,0,0c0,0,0,0,0,0c0,0,0,0,0,0c0,0,0,0,0,0c0,0,0,0,0,0
				c0,0,0,0,0,0c0,0,0,0,0,0c0,0,0,0,0,0c0,0,0,0,0,0c0,0,0,0,0,0c0,0,0,0,0,0c0,0,0,0,0,0c0,0,0,0,0,0c0,0,0,0,0-0.1c0,0,0,0,0,0
				c0,0,0-0.1,0-0.1c0,0,0,0,0,0c0,0,0,0,0-0.1c0,0,0,0,0,0c0,0,0,0,0-0.1c0,0,0,0,0,0c0,0,0,0,0-0.1v0c0-0.5,0-1,0-1.6c0,0,0,0,0,0
				c0,0,0,0,0-0.1c0,0,0,0,0,0c0,0,0,0,0-0.1c0,0,0,0,0,0c0,0,0,0,0,0c0,0,0,0,0,0c0,0,0,0,0,0c0,0,0,0,0,0c0,0,0,0,0,0c0,0,0,0,0,0
				c0,0,0,0,0,0c0,0,0,0,0,0c0,0,0,0,0,0c0,0,0,0,0,0c0,0,0,0,0,0C272.9,174.7,272.9,174.7,272.9,174.6
				C272.9,174.7,272.9,174.7,272.9,174.6C272.9,174.6,272.9,174.6,272.9,174.6L272.9,174.6L272.9,174.6z M272.4,168.6l-1,0.1
				c0.2,1.3,0.3,2.6,0.4,3.9l1-0.1c0-0.3,0-0.5-0.1-0.8c0,0,0,0,0,0c0,0,0,0,0,0c0,0,0,0,0,0c0,0,0,0,0,0c0,0,0,0,0,0c0,0,0,0,0,0
				c0,0,0,0,0,0c0,0,0,0,0,0c0,0,0,0,0,0c0,0,0,0,0,0c0,0,0,0,0,0c0,0,0,0,0,0c0,0,0,0,0,0c0,0,0,0,0,0c0,0,0,0,0,0c0,0,0,0,0,0
				c0,0,0,0,0,0l0,0c-0.1-0.9-0.2-1.8-0.3-2.7l0,0c0,0,0,0,0,0c0,0,0,0,0,0c0,0,0,0,0,0c0,0,0,0,0,0c0,0,0,0,0,0c0,0,0,0,0,0
				C272.4,168.7,272.4,168.7,272.4,168.6C272.4,168.7,272.4,168.7,272.4,168.6L272.4,168.6z M271.5,162.7l-1,0.2
				c0.3,1.3,0.5,2.6,0.7,3.9l1-0.1c-0.1-0.6-0.2-1.3-0.3-1.9l0,0c0,0,0,0,0,0c0,0,0,0,0,0c0,0,0,0,0,0c0,0,0,0,0,0c0,0,0,0,0,0
				c0,0,0,0,0,0c0,0,0,0,0,0c0,0,0,0,0,0c0,0,0,0,0,0c0,0,0,0,0,0c0,0,0,0,0,0c0,0,0,0,0,0c0,0,0,0,0,0
				C271.7,163.9,271.6,163.3,271.5,162.7L271.5,162.7z M270.1,156.9l-1,0.3c0.3,1.3,0.7,2.6,1,3.8l1-0.2c-0.1-0.3-0.1-0.5-0.2-0.8
				c0,0,0,0,0,0c0,0,0,0,0,0c0,0,0,0,0,0c0,0,0,0,0,0c0,0,0,0,0,0c0,0,0,0,0,0c0,0,0,0,0,0c0,0,0,0,0,0c0,0,0,0,0,0c0,0,0,0,0,0
				c0,0,0,0,0,0c0,0,0,0,0,0c0,0,0,0,0,0c0,0,0,0,0,0c0,0,0,0,0,0c0,0,0,0,0,0c0,0,0,0,0,0c0,0,0,0,0,0c0,0,0,0,0,0l0,0
				c-0.1-0.6-0.3-1.2-0.5-1.8C270.3,157.5,270.2,157.2,270.1,156.9L270.1,156.9z M268.3,151.1l-0.9,0.3c0.4,1.2,0.9,2.5,1.2,3.8
				l1-0.3c-0.2-0.8-0.5-1.5-0.7-2.3c0,0,0,0,0,0c0,0,0,0,0-0.1c0,0,0,0,0,0c0,0,0,0,0-0.1c0,0,0,0,0,0c0,0,0,0,0-0.1c0,0,0,0,0,0
				c0,0,0,0,0-0.1c0,0,0,0,0,0c0,0,0,0,0,0c0,0,0,0,0,0c0,0,0,0,0,0c0,0,0,0,0,0c0,0,0,0,0,0c0,0,0,0,0,0c0,0,0,0,0,0c0,0,0,0,0,0
				c0,0,0,0,0,0c0,0,0,0,0,0c0,0,0,0,0,0c0,0,0,0,0,0c0,0,0,0,0,0c0,0,0,0,0,0c0,0,0,0,0,0c0,0,0,0,0,0c0,0,0,0,0,0
				C268.5,151.7,268.4,151.4,268.3,151.1L268.3,151.1z M266.1,145.6l-0.9,0.4c0.5,1.2,1,2.4,1.5,3.7l0.9-0.4c0,0,0,0,0-0.1l0,0
				c0,0,0,0,0-0.1c0,0,0,0,0,0c0,0,0,0,0-0.1c0,0,0,0,0,0c0,0,0,0,0,0c0,0,0,0,0,0c0,0,0,0,0,0c0,0,0,0,0,0c0,0,0,0,0,0c0,0,0,0,0,0
				c0,0,0,0,0,0c0,0,0,0,0,0c0,0,0,0,0,0c0,0,0,0,0,0c0,0,0,0,0,0c0,0,0,0,0,0c0,0,0,0,0,0c0,0,0,0,0-0.1c0,0,0,0,0,0
				c-0.2-0.4-0.3-0.8-0.5-1.2c0,0,0,0,0,0c0,0,0,0,0-0.1c0,0,0,0,0,0c0,0,0,0,0-0.1c0,0,0,0,0,0c0,0,0,0,0,0c0,0,0,0,0,0c0,0,0,0,0,0
				c0,0,0,0,0,0c0,0,0,0,0,0c0,0,0,0,0,0c0,0,0,0,0,0c0,0,0,0,0,0c0,0,0,0,0,0c0,0,0,0,0,0c0,0,0,0,0,0c0,0,0,0,0,0c0,0,0,0,0,0
				c0,0,0,0,0,0c0,0,0,0,0,0c0,0,0,0,0,0c0,0,0,0,0,0c0,0,0,0,0,0c0,0,0,0,0,0c0,0,0,0,0,0c0,0,0,0,0,0c0,0,0,0,0-0.1c0,0,0,0,0,0
				c0,0,0,0,0-0.1c0,0,0,0,0,0c0,0,0,0,0-0.1l0,0c0,0,0,0,0-0.1l0,0c0,0,0,0,0-0.1l0,0C266.3,146.2,266.2,145.9,266.1,145.6
				L266.1,145.6z M263.4,140.2l-0.9,0.5c0.6,1.2,1.2,2.3,1.8,3.5l0.9-0.4c0-0.1-0.1-0.2-0.1-0.3l0,0c0,0,0,0,0-0.1l0,0c0,0,0,0,0-0.1
				c0,0,0,0,0,0c0,0,0,0,0,0c0,0,0,0,0,0c0,0,0,0,0,0c0,0,0,0,0,0c0,0,0,0,0,0c0,0,0,0,0,0c0,0,0,0,0,0c0,0,0,0,0,0c0,0,0,0,0,0
				c0,0,0,0,0,0c0,0,0,0,0,0c0,0,0,0,0,0c0,0,0,0,0,0c0,0,0,0,0,0c0,0,0,0,0,0c0,0,0,0,0,0c0,0,0,0,0,0c0,0,0,0,0,0c0,0,0,0,0,0
				c0,0,0,0,0,0c0,0,0,0,0,0c0,0,0,0,0,0c0,0,0,0,0,0c0,0,0,0,0,0c0,0,0,0,0,0c0,0,0,0,0,0c0,0,0,0,0,0c0,0,0,0,0,0c0,0,0,0,0,0
				c0,0,0,0,0,0c0,0,0,0,0,0c0,0,0,0,0,0c0,0,0,0,0,0c0,0,0,0,0,0c0,0,0,0,0,0c0,0,0,0,0,0c0,0,0,0,0,0c0,0,0,0,0,0c0,0,0,0,0,0
				c0,0,0,0,0,0c0,0,0,0,0,0c0,0,0,0,0,0c0,0,0,0,0,0c0,0,0,0,0,0c0,0,0,0,0,0c0,0,0,0,0,0c0,0,0,0,0,0c0,0,0,0,0,0c0,0,0,0,0,0
				c0,0,0,0,0,0c0,0,0,0,0,0c0,0,0,0,0,0c0,0,0,0,0-0.1c0,0,0,0,0,0c0,0,0,0,0-0.1l0,0c-0.3-0.5-0.5-1-0.8-1.5l0,0
				C263.5,140.3,263.5,140.3,263.4,140.2C263.5,140.2,263.5,140.2,263.4,140.2C263.5,140.2,263.5,140.2,263.4,140.2
				C263.4,140.2,263.4,140.2,263.4,140.2L263.4,140.2z M260.4,135l-0.8,0.5c0.7,1.1,1.4,2.2,2,3.4l0.9-0.5c0,0,0,0,0,0c0,0,0,0,0,0
				c0,0,0,0,0,0c0,0,0,0,0,0c0,0,0,0,0,0c0,0,0,0,0-0.1l0,0c0,0,0,0,0-0.1l0,0c-0.1-0.2-0.2-0.4-0.3-0.5c0,0,0,0,0,0c0,0,0,0,0-0.1
				c0,0,0,0,0,0c0,0,0,0,0,0c0,0,0,0,0,0c0,0,0,0,0,0c0,0,0,0,0,0c0,0,0,0,0,0c0,0,0,0,0,0c0,0,0,0,0,0c0,0,0,0,0,0c0,0,0,0,0,0
				c0,0,0,0,0,0c0,0,0,0,0,0c0,0,0,0,0,0c0,0,0,0,0,0c0,0,0,0,0,0c0,0,0,0,0,0c0,0,0,0,0,0c0,0,0,0,0,0c0,0,0,0,0,0c0,0,0,0,0,0
				C261.3,136.4,260.9,135.7,260.4,135L260.4,135z M257,130l-0.8,0.6c0.8,1.1,1.5,2.1,2.3,3.2l0.8-0.6c-0.1-0.2-0.3-0.4-0.4-0.6l0,0
				c0,0,0,0,0,0c0,0,0,0,0,0c0,0,0,0,0,0c0,0,0,0,0,0c0,0,0,0,0,0c0,0,0,0,0,0c0,0,0,0,0,0c0,0,0,0,0,0c0,0,0,0,0,0c0,0,0,0,0,0
				c0,0,0,0,0,0c0,0,0,0,0,0c0,0,0,0,0,0c0,0,0,0,0,0c0,0,0,0,0,0c-0.5-0.7-1-1.5-1.5-2.2c0,0,0,0,0,0
				C257.1,130.2,257.1,130.1,257,130C257.1,130.1,257.1,130.1,257,130C257.1,130.1,257.1,130.1,257,130
				C257.1,130.1,257.1,130.1,257,130C257,130.1,257,130,257,130L257,130z M253.3,125.4l-0.8,0.7c0.9,1,1.7,2,2.5,3.1l0.8-0.6
				c0,0,0,0,0,0c0,0,0,0,0,0c0,0,0,0,0,0c0,0,0,0,0,0c0,0,0,0,0,0c0,0,0,0,0,0c0,0,0,0,0,0c0,0,0,0,0,0c0,0,0,0,0,0c0,0,0,0,0,0
				c0,0,0,0,0,0c0,0,0,0,0,0c0,0,0,0,0,0c0,0,0,0,0,0c0,0,0,0,0,0c0,0,0,0,0,0c0,0,0,0,0,0c0,0,0,0,0,0c0,0,0,0,0,0c0,0,0,0,0,0
				c0,0,0,0,0,0c0,0,0,0,0,0c0,0,0,0,0,0c0,0,0,0,0,0c0,0,0,0,0,0c0,0,0,0,0,0c0,0,0,0,0,0c0,0,0,0,0,0c0,0,0,0,0,0c0,0,0,0,0,0
				c0,0,0,0,0,0c0,0,0,0,0,0c0,0,0,0,0,0c0,0,0,0,0,0c0,0,0,0,0,0c0,0,0,0,0,0c0,0,0,0,0,0c0,0,0,0,0,0c0,0,0,0,0,0c0,0,0,0,0,0
				c0,0,0,0,0,0c0,0,0,0,0,0c0,0,0,0,0,0c0,0,0,0,0,0c0,0,0,0,0,0c0,0,0,0,0,0c0,0,0,0,0,0c0,0,0,0,0,0c0,0,0,0,0,0c0,0,0,0,0,0
				c0,0,0,0,0,0c0,0,0,0,0,0c0,0,0,0,0,0c0,0,0,0,0,0c0,0,0,0,0,0c0,0,0,0,0,0c0,0,0,0,0,0c0,0,0,0,0,0c0,0,0,0,0,0c0,0,0,0,0,0
				c0,0,0,0,0,0c0,0,0,0,0,0c0,0,0,0,0,0c0,0,0,0,0,0c0,0,0,0,0,0c0,0,0,0,0,0c0,0,0,0,0,0s0,0,0,0c0,0,0,0,0,0c0,0,0,0,0,0
				c0,0,0,0,0,0c0,0,0,0,0,0c0,0,0,0,0,0c0,0,0,0,0,0c0,0,0,0,0,0c0,0,0,0,0,0c0,0,0,0,0,0c0,0,0,0,0,0c0,0,0,0,0,0c0,0,0,0,0,0
				c0,0,0,0,0,0c0,0,0,0,0,0c0,0,0,0,0,0c0,0,0,0,0,0c0,0,0,0,0,0c0,0,0,0,0,0c0,0,0,0,0,0c0,0,0,0,0,0c0,0,0,0,0,0c0,0,0,0,0,0
				c0,0,0,0,0,0c0,0,0,0,0,0c0,0,0,0,0,0c0,0,0,0,0,0c0,0,0,0,0,0c0,0,0,0,0,0c0,0,0,0,0,0c0,0,0,0,0,0c0,0,0,0,0,0c0,0,0,0,0,0
				c0,0,0,0,0,0c0,0,0,0,0,0c0,0,0,0,0,0c0,0,0,0,0,0c0,0,0,0,0,0c0,0,0,0,0,0c0,0,0,0,0,0c0,0,0,0,0,0c0,0,0,0,0,0c0,0,0,0,0,0
				c0,0,0,0,0,0c0,0,0,0,0,0c0,0,0,0,0,0c0,0,0,0,0,0c0,0,0,0,0,0c0,0,0,0,0,0c0,0,0,0,0,0c0,0,0,0,0,0l0,0c0,0,0,0,0,0l0,0
				C253.4,125.5,253.3,125.4,253.3,125.4L253.3,125.4z M249.2,121l-0.7,0.7c0.9,0.9,1.8,1.9,2.7,2.9l0.7-0.7
				c-0.1-0.2-0.3-0.3-0.4-0.5l0,0c0,0,0,0,0,0c0,0,0,0,0,0c0,0,0,0,0,0c0,0,0,0,0,0c0,0,0,0,0,0c0,0,0,0,0,0c0,0,0,0,0,0c0,0,0,0,0,0
				c0,0,0,0,0,0c0,0,0,0,0,0c0,0,0,0,0,0c-0.5-0.6-1.1-1.2-1.7-1.7c0,0,0,0,0,0c0,0,0,0,0,0c0,0,0,0,0,0c0,0,0,0,0,0c0,0,0,0,0,0
				c0,0,0,0,0,0c0,0,0,0,0,0c0,0,0,0,0,0c0,0,0,0,0,0l0,0C249.4,121.1,249.3,121,249.2,121L249.2,121z M244.8,116.9l-0.7,0.8
				c1,0.9,2,1.8,2.9,2.7l0.7-0.7c0,0,0,0,0,0c0,0,0,0,0,0c0,0,0,0,0,0c0,0,0,0,0,0c0,0,0,0,0,0c0,0,0,0,0,0c0,0,0,0,0,0c0,0,0,0,0,0
				c0,0,0,0,0,0C246.7,118.5,245.8,117.7,244.8,116.9L244.8,116.9z M240.2,113.1l-0.6,0.8c1.1,0.8,2.1,1.6,3.1,2.4l0.6-0.8
				c-0.1-0.1-0.1-0.1-0.2-0.2l0,0c0,0-0.1-0.1-0.1-0.1l0,0c0,0,0,0,0,0c0,0,0,0,0,0c0,0,0,0,0,0c0,0,0,0,0,0c0,0,0,0,0,0c0,0,0,0,0,0
				c0,0,0,0,0,0c0,0,0,0,0,0c0,0,0,0,0,0c0,0,0,0,0,0c0,0,0,0,0,0c0,0,0,0,0,0c0,0,0,0,0,0c0,0,0,0,0,0c0,0,0,0,0,0c0,0,0,0,0,0
				c0,0,0,0,0,0c0,0,0,0,0,0c0,0,0,0,0,0c0,0,0,0,0,0c0,0,0,0,0,0c0,0,0,0,0,0c0,0,0,0,0,0c0,0,0,0,0,0c0,0,0,0,0,0c0,0,0,0,0,0
				c0,0,0,0,0,0c0,0,0,0,0,0c0,0,0,0,0,0c0,0,0,0,0,0c0,0,0,0,0,0c0,0,0,0,0,0c0,0,0,0,0,0c0,0,0,0,0,0c0,0,0,0,0,0c0,0,0,0,0,0
				c0,0,0,0,0,0c0,0,0,0,0,0c0,0,0,0,0,0c0,0,0,0,0,0c0,0,0,0,0,0c0,0,0,0,0,0c0,0,0,0,0,0c0,0,0,0,0,0c0,0,0,0,0,0c0,0,0,0,0,0
				c0,0,0,0,0,0c0,0,0,0,0,0c0,0,0,0,0,0c0,0,0,0,0,0c0,0,0,0,0,0c0,0,0,0,0,0c0,0,0,0,0,0c0,0,0,0,0,0c0,0,0,0,0,0c0,0,0,0,0,0
				c0,0,0,0,0,0c0,0,0,0,0,0c0,0,0,0,0,0c0,0,0,0,0,0c0,0,0,0,0,0c0,0,0,0,0,0c0,0,0,0,0,0c0,0,0,0,0,0c0,0,0,0,0,0c0,0,0,0,0,0
				c0,0,0,0,0,0c0,0,0,0,0,0c0,0,0,0,0,0c0,0,0,0,0,0c0,0,0,0,0,0c0,0,0,0,0,0c0,0,0,0,0,0c0,0,0,0,0,0c0,0,0,0,0,0c0,0,0,0,0,0
				c0,0,0,0,0,0c0,0,0,0,0,0c0,0,0,0,0,0l0,0C240.8,113.6,240.5,113.3,240.2,113.1L240.2,113.1z M235.2,109.7l-0.5,0.8
				c1.1,0.7,2.2,1.4,3.3,2.2l0.6-0.8c-0.1,0-0.1-0.1-0.2-0.1c0,0,0,0,0,0c0,0,0,0,0,0c0,0,0,0,0,0c0,0,0,0,0,0c0,0,0,0,0,0
				c0,0,0,0,0,0c0,0,0,0,0,0c0,0,0,0,0,0c0,0,0,0,0,0c0,0,0,0,0,0c0,0,0,0,0,0c0,0,0,0,0,0c0,0,0,0,0,0l0,0c-0.7-0.5-1.4-0.9-2.1-1.4
				l0,0c0,0,0,0,0,0c0,0,0,0,0,0c0,0,0,0,0,0c0,0,0,0,0,0c0,0,0,0,0,0c0,0,0,0,0,0c0,0,0,0,0,0c0,0,0,0,0,0c0,0,0,0,0,0
				C235.5,109.9,235.4,109.8,235.2,109.7L235.2,109.7z M230,106.7l-0.5,0.9c1.2,0.6,2.3,1.3,3.4,2l0.5-0.9c-0.8-0.5-1.6-0.9-2.4-1.4
				l0,0c0,0,0,0-0.1,0l0,0c0,0,0,0,0,0c0,0,0,0,0,0c0,0,0,0,0,0c0,0,0,0,0,0c0,0,0,0,0,0c0,0,0,0,0,0c0,0,0,0,0,0c0,0,0,0,0,0
				c0,0,0,0,0,0c0,0,0,0,0,0c0,0,0,0,0,0c0,0,0,0,0,0c0,0,0,0,0,0c0,0,0,0,0,0c0,0,0,0,0,0c0,0,0,0,0,0c0,0,0,0,0,0c0,0,0,0,0,0
				c0,0,0,0,0,0C230.4,106.9,230.2,106.8,230,106.7L230,106.7z M224.7,104l-0.4,0.9c1.2,0.5,2.4,1.1,3.6,1.7l0.5-0.9
				c-0.3-0.2-0.6-0.3-0.9-0.4c0,0,0,0,0,0C226.5,104.9,225.6,104.4,224.7,104L224.7,104z M219.1,101.8l-0.3,0.9
				c1.2,0.4,2.5,0.9,3.7,1.4l0.4-0.9c0,0,0,0,0,0c0,0,0,0,0,0c0,0,0,0,0,0c0,0,0,0,0,0c0,0,0,0-0.1,0c0,0,0,0,0,0
				c-0.9-0.4-1.7-0.7-2.6-1c0,0,0,0,0,0c0,0,0,0,0,0c0,0,0,0,0,0c0,0,0,0,0,0c0,0,0,0,0,0c0,0,0,0,0,0c0,0,0,0,0,0c0,0,0,0,0,0
				c0,0,0,0,0,0c0,0,0,0,0,0c0,0,0,0-0.1,0l0,0C219.6,102,219.3,101.9,219.1,101.8L219.1,101.8z M213.4,100l-0.3,1
				c1.3,0.4,2.5,0.7,3.8,1.2l0.3-0.9c-0.4-0.1-0.8-0.3-1.2-0.4c0,0,0,0,0,0c0,0,0,0-0.1,0c0,0,0,0,0,0c0,0,0,0,0,0c0,0,0,0,0,0
				c0,0,0,0,0,0c0,0,0,0,0,0c0,0,0,0,0,0c0,0,0,0,0,0c0,0,0,0,0,0c0,0,0,0,0,0c0,0,0,0,0,0c0,0,0,0,0,0c0,0,0,0,0,0c0,0,0,0,0,0
				c0,0,0,0,0,0c0,0,0,0-0.1,0l0,0c0,0,0,0-0.1,0l0,0C214.7,100.4,214.1,100.2,213.4,100L213.4,100z M207.5,98.6l-0.2,1
				c1.3,0.3,2.6,0.5,3.9,0.9l0.2-1c-0.1,0-0.3-0.1-0.4-0.1c0,0,0,0,0,0c0,0,0,0,0,0c0,0,0,0,0,0c0,0,0,0,0,0c0,0,0,0,0,0c0,0,0,0,0,0
				c0,0,0,0,0,0c0,0,0,0,0,0c-0.9-0.2-1.7-0.4-2.6-0.6c0,0,0,0,0,0c0,0,0,0,0,0c0,0,0,0,0,0c0,0,0,0,0,0c0,0,0,0,0,0l0,0
				C208,98.7,207.8,98.6,207.5,98.6L207.5,98.6z M201.6,97.6l-0.1,1c1.3,0.2,2.6,0.4,3.9,0.6l0.2-1c-0.5-0.1-1-0.2-1.4-0.2l0,0
				c0,0,0,0,0,0l0,0c0,0,0,0,0,0h0c0,0,0,0-0.1,0l0,0c0,0,0,0,0,0c0,0,0,0,0,0c0,0,0,0,0,0c0,0,0,0,0,0c0,0,0,0-0.1,0
				C203.1,97.8,202.4,97.7,201.6,97.6L201.6,97.6z M195.6,97.1l0,1c1.3,0.1,2.6,0.2,3.9,0.3l0.1-1c-0.6-0.1-1.2-0.1-1.9-0.2
				c0,0,0,0,0,0c0,0,0,0,0,0c0,0,0,0,0,0c0,0,0,0,0,0c0,0,0,0,0,0c0,0,0,0,0,0c0,0,0,0,0,0c0,0,0,0,0,0c0,0,0,0,0,0c0,0,0,0,0,0
				c0,0,0,0,0,0c0,0,0,0,0,0c-0.1,0-0.1,0-0.2,0l0,0c-0.3,0-0.7,0-1-0.1c0,0,0,0,0,0c0,0,0,0,0,0c0,0,0,0,0,0c0,0,0,0,0,0
				c0,0,0,0,0,0c0,0,0,0,0,0c0,0,0,0,0,0c0,0,0,0,0,0c0,0,0,0,0,0c0,0,0,0,0,0c0,0,0,0,0,0c0,0,0,0,0,0c0,0,0,0,0,0c0,0,0,0,0,0
				c0,0,0,0,0,0c0,0,0,0,0,0c0,0,0,0,0,0c0,0,0,0,0,0C196,97.1,195.8,97.1,195.6,97.1L195.6,97.1z M191.5,97v1c0.7,0,1.4,0,2.1,0l0-1
				c-0.5,0-1,0-1.5,0h0c0,0,0,0-0.1,0l0,0c0,0,0,0,0,0h0c0,0,0,0,0,0l0,0c0,0,0,0,0,0l0,0c0,0,0,0,0,0l0,0c0,0,0,0,0,0l0,0
				c0,0,0,0,0,0c0,0,0,0,0,0c0,0,0,0,0,0c0,0,0,0,0,0c0,0,0,0,0,0c0,0,0,0,0,0c0,0,0,0,0,0c0,0,0,0,0,0c0,0,0,0,0,0c0,0,0,0,0,0
				c0,0,0,0,0,0c0,0,0,0,0,0c0,0,0,0,0,0c0,0,0,0,0,0c0,0,0,0,0,0C191.6,97,191.6,97,191.5,97C191.6,97,191.6,97,191.5,97
				C191.6,97,191.6,97,191.5,97C191.6,97,191.6,97,191.5,97C191.5,97,191.5,97,191.5,97C191.5,97,191.5,97,191.5,97L191.5,97
				L191.5,97z"/>
	</g>

	<g id="center">
		<circle class="st2" cx="191.5" cy="178.5" r="15.5"/>
		<circle class="st4" cx="191.9" cy="178.9" r="3.5"/>
	</g>
	
	<g id="icon-content" class="point">
		<path class="st4" d="M282.5,67.5c-11,0-20-9-20-20s9-20,20-20s20,9,20,20S293.5,67.5,282.5,67.5z"/>
		<path class="st6" d="M282.5,29c10.2,0,18.5,8.3,18.5,18.5S292.7,66,282.5,66S264,57.7,264,47.5S272.3,29,282.5,29 M282.5,26
			c-11.9,0-21.5,9.6-21.5,21.5c0,11.9,9.6,21.5,21.5,21.5S304,59.4,304,47.5C304,35.6,294.4,26,282.5,26L282.5,26z"/>
			<polygon class="st8" points="289,46.9 284.2,46.9 284.2,42 281.9,42 281.9,46.9 277,46.9 277,49.2 281.9,49.2 281.9,54 284.2,54 284.2,49.2 289,49.2"/>
	</g>
	<g id="icon-photo" class="point">
		<path class="st5" d="M349.5,197.5c-11,0-20-9-20-20c0-11,9-20,20-20s20,9,20,20C369.5,188.5,360.5,197.5,349.5,197.5z"/>
		<path class="st6" d="M349.5,159c10.2,0,18.5,8.3,18.5,18.5s-8.3,18.5-18.5,18.5c-10.2,0-18.5-8.3-18.5-18.5S339.3,159,349.5,159
			M349.5,156c-11.9,0-21.5,9.6-21.5,21.5c0,11.9,9.6,21.5,21.5,21.5s21.5-9.6,21.5-21.5C371,165.6,361.4,156,349.5,156L349.5,156z
			"/>
		<path class="st2" d="M351.4,176c-1.1,0-2.1,1-2.1,2.2c0,1.2,0.9,2.2,2.1,2.2c1.1,0,2.1-1,2.1-2.2C353.5,177,352.5,176,351.4,176z
			M356.9,171.5h-1.6c-0.4-0.9-1-1.5-2-1.5h-3.1c-1,0-1.6,0.6-2,1.5h-3V170h-1.4v1.5h-0.7c-1.1,0-2.1,1-2.1,2.2v9
			c0,1.2,0.9,2.2,2.1,2.2h13.8c1.1,0,2.1-1,2.1-2.2v-9C359,172.5,358.1,171.5,356.9,171.5z M351.4,182c-1.9,0-3.5-1.7-3.5-3.7
			c0-2.1,1.6-3.7,3.5-3.7c1.9,0,3.5,1.7,3.5,3.7C354.8,180.3,353.3,182,351.4,182z"/>
	</g>
	<g id="icon-video" class="point">
		<path class="st5" d="M282.5,327.5c-11,0-20-9-20-20s9-20,20-20s20,9,20,20S293.5,327.5,282.5,327.5z"/>
		<path class="st6" d="M282.5,289c10.2,0,18.5,8.3,18.5,18.5c0,10.2-8.3,18.5-18.5,18.5s-18.5-8.3-18.5-18.5
			C264,297.3,272.3,289,282.5,289 M282.5,286c-11.9,0-21.5,9.6-21.5,21.5c0,11.9,9.6,21.5,21.5,21.5s21.5-9.6,21.5-21.5
			C304,295.6,294.4,286,282.5,286L282.5,286z"/>

		<path class="st2" d="M290.7,308.2l-3.5,1.5v-1.4c0-0.7-0.5-1.2-1.2-1.2H275c-0.7,0-1.2,0.5-1.2,1.2v6.5c0,0.7,0.5,1.2,1.2,1.2
			h11.1c0.7,0,1.2-0.5,1.2-1.2v-1.4l3.5,1.5c0.7,0.3,1.3-0.1,1.3-0.9v-4.9C292,308.4,291.4,308,290.7,308.2z M284.5,310.3h-7.9
			c-0.2,0-0.4-0.2-0.4-0.4s0.2-0.4,0.4-0.4h7.9c0.2,0,0.4,0.2,0.4,0.4S284.7,310.3,284.5,310.3z M276.6,306.3c2,0,3.6-1.6,3.6-3.6
			c0-2-1.6-3.6-3.6-3.6c-2,0-3.6,1.6-3.6,3.6C273,304.7,274.6,306.3,276.6,306.3z M283.3,306.3c1.3,0,2.4-1.1,2.4-2.4
			c0-1.3-1.1-2.4-2.4-2.4c-1.3,0-2.4,1.1-2.4,2.4C280.9,305.2,282,306.3,283.3,306.3z"/>
	</g>
</g>
</svg>
