<?xml version="1.0" encoding="utf-8"?>
<!-- Generator: Adobe Illustrator 21.0.0, SVG Export Plug-In . SVG Version: 6.00 Build 0)  -->
<svg version="1.1" id="Camada_1" xmlns="http://www.w3.org/2000/svg" xmlns:xlink="http://www.w3.org/1999/xlink" x="0px" y="0px"
	 viewBox="0 -65 1134 509" style="enable-background:new 0 0 1014 419;" xml:space="preserve">

<g id="xablau">
	<mask id="mask-path" x="0" y="0" width="1" height="1"> 
			<path class="st6 dashed" d="M671.6,203.8c8.6,3,18.7,6.5,28.2,13.4c4.6,3.3,8.5,6.9,15.4,8.4c1.3,0.3,6.8,1.4,13.7-0.2
				c8.8-2,14.6-7.3,17.6-10.1c17.5-16.3,31.9-32.7,48.7-47c2.8-2.4,6.4-5.3,11.7-8c4.3-2.2,14.9-7.5,28.4-5.2
				c10.6,1.8,17.7,7.5,21.6,10.7c2.7,2.2,8.2,6.8,12,14.1c6.4,12.3,4.2,24.8,2.7,32.8c-5.4,29.5-27.1,46.3-31.3,49.4
				c-7,5.2-11.4,5.4-17.9,10c-2.4,1.7-4.5,3.4-6.1,6.3c-2.8,5-2,10.2-1.6,13c0.5,3.4,2.2,10.4,8.4,16.1c6.6,6.1,14.1,6.9,16.8,7.1
				c15.1,1.4,25.3-9.4,26.6-10.8c0.7-0.8,0.4-0.5,2.5-3.1c0,0,15.4-18.9,31.1-28.7c0.4-0.2,0.9-0.6,1.6-0.9c1.2-0.6,4.4-2.2,8.5-2.2
				c2,0,5.2,0,7.8,1.9c2,1.4,3.2,3.6,4.5,9.8c1.6,7.9,1.5,14.2,1.5,15.2c-0.3,14.8-1.4,15.3-1.2,23.3c0.2,8.6,0.3,14.8,3.9,21.8
				c1.7,3.4,5.9,9.7,13.8,13.5c3.6,1.7,10.9,1,15.3-0.3c3.3-1,10.2-7.7,10.1-10.3"/>

			<path class="st6 dashed" d="M315.9,315.6c7.1,1.2,11.5-0.1,19,2.2c3.6,1.1,8.8,2.8,12.4,7.4c2.7,3.5,3.3,7.2,3.9,12.6
				c2.2,20.2,0.3,26.4,3.4,38.2c1.7,6.2,2.5,9.3,4.9,12.4c10.8,13.8,35,10,38.8,9.4c10.6-1.8,17.8-6.3,24.7-10.5
				c4.6-2.8,14.8-9.7,24.4-21.7c7.4-9.3,11.1-14,12.8-21.3c1.5-6.5,2.9-10.3,5.8-17.8c0.4-1,1.4-3.6,3.9-5.5c0.6-0.5,2.2-1.7,4.5-2
				c0.9-0.1,2-0.1,3.8,0.3c3.2,0.8,6.1,2.5,7.8,4c4.5,3.9,3.4,8.7,7.8,23c2,6.6,3.3,8.9,4.9,10.9c1.4,1.6,4.6,5.5,10.4,6.5
				c0.8,0.1,7,1.1,11.9-2.9c3.8-3.1,4.8-7.5,5.3-9.9c4.1-19.3-3.9-41.1-7-49.5c-1.4-3.8-2.4-7.7-3.9-11.4c-1.1-2.9-1.6-3.7-1.6-5.3
				c-0.1-4.1,2.4-8.1,5.7-10.4c3.7-2.6,7.7-2.4,9.4-2.3c5,0.3,8.4,2.6,9.8,3.6c4.7,3.4,6.8,7.8,8.4,11.6c3.2,7.2,1.7,9.5,5.1,16
				c1.5,2.9,3.1,6,6,8.1c7.7,5.8,20.6,1.8,27.6-2.1c16.1-9,19.3-27.7,19.6-29.9c0.7-4.3,2.5-16.2-2.6-26.8c-1.2-2.5-3.9-7-3.9-13.4
				c0-3.3,0.7-5.9,1.4-8.5c1.7-6.2,4.6-11.5,6.7-14.6c10.3-15,33.7-17.5,36-16.8"/>

			<path class="st6 dashed" d="M232.3,41.8c15.3,6.8,28.2,25,28.6,42c0,2.3-0.2,4.7-0.7,9.4c-3.2,28.4-10.8,66.4-10.8,66.4
				c-0.6,2.9-2,9.8,0.6,17.4c0.9,2.7,2.5,7.6,6.9,10.8c6.5,4.7,14.8,2.9,20.6,1.7c6.1-1.3,6.2-2.5,19.1-7.6
				c12.7-5,17.8-5.9,20.1-6.2c6.8-1,11.6-1.6,16.5,1.3c0.3,0.2,6.6,4,8.3,11.2c0.6,2.6,0.4,5,0,9.7c-0.3,3-0.5,5.7-1.3,8.3
				c-1.9,5.8-6.1,9.3-8.4,11.2c-8.6,7.1-17.1,14.3-25.7,21.5c-12.9,10.7-16.9,16.2-19.3,19.9c-5.6,8.7-6.3,14.1-6.5,16.9
				c-0.4,7.5,2.4,13.3,3.2,14.9c1.2,2.4,5.1,7,8,10"/>

			<path class="st6 dashed" d="M33.4,210.5c-5.7-6.1-16.1-28.3-11.5-48.8c0.3-1.5,6.9-32.5,30.8-41.3c23.4-8.6,39.6,12.8,63.7,5.7
				c15.4-4.6,29-19.4,33.8-34.7c2.8-8.9,0.4-10.1,2.9-18.5c7.6-25.5,46.7-35.5,50.6-34.8"/>
	</mask>
		
	<path mask="url(#mask-path)" class="st6 to-animate" d="M32.7,209.5c-2.2-3-15.9-22.2-10.8-47.8c0.3-1.5,6.9-32.5,30.8-41.3c23.4-8.6,39.6,12.8,63.7,5.7
		c15.4-4.6,29-19.4,33.8-34.7c2.8-8.9,0-10.2,2.9-18.5c8.3-23.5,37.2-31.7,40-32.5c7.2-2,25.3-6.9,42.9,3.3
		c15,8.6,24.2,25,24.9,40.1c0.1,2.3-0.2,4.7-0.7,9.4c-3.2,28.4-10.8,66.4-10.8,66.4c-0.6,2.9-2,9.8,0.6,17.4
		c0.9,2.7,2.5,7.6,6.9,10.8c6.5,4.7,14.8,2.9,20.6,1.7c6.1-1.3,6.2-2.5,19.1-7.6c12.7-5,17.8-5.9,20.1-6.2c6.8-1,11.6-1.6,16.5,1.3
		c0.3,0.2,6.6,4,8.3,11.2c0.6,2.6,0.4,5,0,9.7c-0.3,3-0.5,5.7-1.3,8.3c-1.9,5.8-6.1,9.3-8.4,11.2c-8.6,7.1-17.1,14.3-25.7,21.5
		c-12.9,10.7-16.9,16.2-19.3,19.9c-5.6,8.7-6.3,14.1-6.5,16.9c-0.4,7.5,2.4,13.3,3.2,14.9c1.2,2.4,2.8,4.6,5.7,7.6
		c5.2,5.4,14.9,15.4,29.2,17.9c7.1,1.2,9-0.6,16.5,1.7c3.6,1.1,8.8,2.8,12.4,7.4c2.7,3.5,3.3,7.2,3.9,12.6
		c2.2,20.2,0.3,26.4,3.4,38.2c1.7,6.2,2.5,9.3,4.9,12.4c10.8,13.8,35,10,38.8,9.4c10.6-1.8,17.8-6.3,24.7-10.5
		c4.6-2.8,14.8-9.7,24.4-21.7c7.4-9.3,11.1-14,12.8-21.3c1.5-6.5,2.9-10.3,5.8-17.8c0.4-1,1.4-3.6,3.9-5.5c0.6-0.5,2.2-1.7,4.5-2
		c0.9-0.1,2-0.1,3.8,0.3c3.2,0.8,6.1,2.5,7.8,4c4.5,3.9,3.4,8.7,7.8,23c2,6.6,3.3,8.9,4.9,10.9c1.4,1.6,4.6,5.5,10.4,6.5
		c0.8,0.1,7,1.1,11.9-2.9c3.8-3.1,4.8-7.5,5.3-9.9c4.1-19.3-3.9-41.1-7-49.5c-1.4-3.8-2.4-7.7-3.9-11.4c-1.1-2.9-1.6-3.7-1.6-5.3
		c-0.1-4.1,2.4-8.1,5.7-10.4c3.7-2.6,7.7-2.4,9.4-2.3c5,0.3,8.4,2.6,9.8,3.6c4.7,3.4,6.8,7.8,8.4,11.6c3.2,7.2,1.7,9.5,5.1,16
		c1.5,2.9,3.1,6,6,8.1c7.7,5.8,20.6,1.8,27.6-2.1c16.1-9,19.3-27.7,19.6-29.9c0.7-4.3,2.5-16.2-2.6-26.8c-1.2-2.5-3.9-7-3.9-13.4
		c0-3.3,0.7-5.9,1.4-8.5c1.7-6.2,4.5-11.5,6.7-14.6c9.8-14,30.7-16.3,33.8-16.6c13.7-1.5,24.4,2.2,32.1,4.9c8.6,3,17.4,6,26.9,12.9
		c4.6,3.3,8.5,6.9,15.4,8.4c1.3,0.3,6.8,1.4,13.7-0.2c8.8-2,14.6-7.3,17.6-10.1c17.5-16.3,31.9-32.7,48.7-47c2.8-2.4,6.4-5.3,11.7-8
		c4.3-2.2,14.9-7.5,28.4-5.2c10.6,1.8,17.7,7.5,21.6,10.7c2.7,2.2,8.2,6.8,12,14.1c6.4,12.3,4.2,24.8,2.7,32.8
		c-5.4,29.5-27.1,46.3-31.3,49.4c-7,5.2-11.4,5.4-17.9,10c-2.4,1.7-4.5,3.4-6.1,6.3c-2.8,5-2,10.2-1.6,13c0.5,3.4,2.2,10.4,8.4,16.1
		c6.6,6.1,14.1,6.9,16.8,7.1c15.1,1.4,25.3-9.4,26.6-10.8c0.7-0.8,0.4-0.5,2.5-3.1c0,0,15.4-18.9,31.1-28.7c0.4-0.2,0.9-0.6,1.6-0.9
		c1.2-0.6,4.4-2.2,8.5-2.2c2,0,5.2,0,7.8,1.9c2,1.4,3.2,3.6,4.5,9.8c1.6,7.9,1.5,14.2,1.5,15.2c-0.3,14.8-1.4,15.3-1.2,23.3
		c0.2,8.6,0.3,14.8,3.9,21.8c1.7,3.4,5.5,10.6,13.8,13.5c1.6,0.6,8.4,2.8,15.3-0.3c8.1-3.6,13.2-13,12.6-23.6"/>
</g>
<g id="trail-1">
	<g id="point-0" class="point">
		<g class="tip">
			<mask id="mask-0">
				<path class="base st7" d="M40,196.7l-8-9h16L40,196.7 M15,137.7h153v51H15V137.7z"/>
			</mask>
			<g class="content"  mask="url(#mask-0)">
				<path class="base st7" d="M40,196.7l-8-9h16L40,196.7 M15,137.7h153v51H15V137.7z"/>
				<text class="text st8 st9 st10" transform="matrix(1 0 0 1 35 167.2002)">The Region</text>
			</g>
		</g>
		
		<g>
			<path class="st3" d="M39,203.2c11.3,0,20.5,9.2,20.5,20.5c0,11.3-9.2,20.5-20.5,20.5c-11.3,0-20.5-9.2-20.5-20.5
				C18.5,212.3,27.7,203.2,39,203.2z"/>
			<path class="st1 ver" d="M37.9,217.7h2.3v12h-2.3V217.7z"/>
			<path class="st1 hor" d="M33,224.8v-2.3h12v2.3H33z"/>
		</g>
	</g>
	<g id="point-1" class="point">
		<g class="tip">
			<mask id="mask-1">
				<path class="base st7" d="M218,12l-8-9h16L218,12 M193-47h153V4H193V-47z"/>
			</mask>

			<g class="content"  mask="url(#mask-1)">
				<path class="base st7" d="M218,12l-8-9h16L218,12 M193-47h153V4H193V-47z"/>
				<text class="text st8 st9 st10" transform="matrix(1 0 0 1 213 -17.5)">The Region</text>
			</g>
		</g>
		
		<g>
			<path class="st3" d="M218.1,18.1c11.3,0,20.5,9.2,20.5,20.5s-9.2,20.5-20.5,20.5c-11.3,0-20.5-9.2-20.5-20.5
				S206.7,18.1,218.1,18.1z"/>
			<path class="st1 ver" d="M217,32.6h2.3v12H217V32.6z"/>
			<path class="st1 hor" d="M212.1,39.7v-2.3h12v2.3H212.1z"/>
		</g>
	</g>
	<g id="point-2" class="point">
		<g class="tip">
			<mask id="mask-2">
				<path class="base st7" d="M302,283.5l-8-9h16L302,283.5 M277,224.5h153v51H277V224.5z"/>
			</mask>
			<g class="content"  mask="url(#mask-2)">
				<path class="base st7" d="M302,283.5l-8-9h16L302,283.5 M277,224.5h153v51H277V224.5z"/>
				<text class="text st8 st9 st10" transform="matrix(1 0 0 1 297 254)">The Region</text>
			</g>
		</g>
		<g>
			<path class="st3" d="M301.8,289.1c11.3,0,20.5,9.2,20.5,20.5s-9.2,20.5-20.5,20.5c-11.3,0-20.5-9.2-20.5-20.5
				S290.5,289.1,301.8,289.1z"/>
			<path class="st1 ver" d="M300.7,303.6h2.3v12h-2.3V303.6z"/>
			<path class="st1 hor" d="M295.8,310.7v-2.3h12v2.3H295.8z"/>
		</g>
	</g>
	<g id="point-3" class="point">
		<g class="tip">
			<mask id="mask-3">
				<path class="base st7" d="M657,174.5l-8-9h16L657,174.5 M632,115.5h153v51H632V115.5z"/>
			</mask>
			<g class="content"  mask="url(#mask-3)">
				<path class="base st7" d="M657,174.5l-8-9h16L657,174.5 M632,115.5h153v51H632V115.5z"/>
				<text class="text st8 st9 st10" transform="matrix(1 0 0 1 652 145)">The Region</text>
			</g>
		</g>
		<g>
			<path class="st3" d="M657.5,181.5c11.3,0,20.5,9.2,20.5,20.5c0,11.3-9.2,20.5-20.5,20.5c-11.3,0-20.5-9.2-20.5-20.5
				C637,190.7,646.2,181.5,657.5,181.5z"/>
			<path class="st1 ver" d="M656.4,196h2.3v12h-2.3V196z"/>
			<path class="st1 hor" d="M651.5,203.1v-2.3h12v2.3H651.5z"/>
		</g>
	</g>
	<g id="point-4" class="point">
		<g class="tip">
			<mask id="mask-4">
				<path class="base st7" d="M969,303l-8-9h16L969,303 M944,244h153v51H944V244z"/>
			</mask>
			<g class="content"  mask="url(#mask-4)">
				<path class="base st7" d="M969,303l-8-9h16L969,303 M944,244h153v51H944V244z"/>
				<text class="text st8 st9 st10" transform="matrix(1 0 0 1 964 273.4697)">The Region</text>
			</g>
		</g>
		<g>
			<path class="st3" d="M968.4,311c11.3,0,20.5,9.2,20.5,20.5c0,11.3-9.2,20.5-20.5,20.5c-11.3,0-20.5-9.2-20.5-20.5
				C947.9,320.2,957.1,311,968.4,311z"/>
			<path class="st1 ver" d="M967.3,325.5h2.3v12h-2.3V325.5z"/>
			<path class="st1 hor" d="M962.4,332.7v-2.3h12v2.3H962.4z"/>
		</g>
	</g>
</g>
</svg>
