<?xml version="1.0" encoding="utf-8"?>
<!-- Generator: Adobe Illustrator 21.0.0, SVG Export Plug-In . SVG Version: 6.00 Build 0)  -->
<svg version="1.1" xmlns="http://www.w3.org/2000/svg" xmlns:xlink="http://www.w3.org/1999/xlink" x="0px" y="0px"
	 viewBox="0 0 760 261" style="enable-background:new 0 0 760 261;" xml:space="preserve">
<g id="trail-3">
	<path mask="url(#trail_3_mask)" id="trail" class="st1" d="M47.2,40.5l0.1,0.5l-0.4,0.1l-0.6,0.2l-0.5,0.1h-0.2h-0.2h-0.2H45h-0.2h-0.1h-0.2h-0.1v-0.6h0.1
		h0.1h0.1h0.2h0.2h0.2h0.2h0.2l0.5-0.1l0.6-0.1L47.2,40.5z M727.1,56.6v0.2l-0.5-0.1v-0.1L727.1,56.6z M726.1,58.3l0.5,0.1l-0.7,2.8
		l-0.5-0.1L726.1,58.3z M725,62.7l0.6,0.1l-0.7,2.8l-0.6-0.1L725,62.7z M723.9,67.1l0.6,0.1l-0.7,2.8l-0.6-0.1L723.9,67.1z
		 M722.8,71.5l0.6,0.1l-0.4,1.6l-0.1,0.2l-0.1,0.3l-0.1,0.3l-0.1,0.2l-0.1,0.1l-0.5-0.2V74l0.1-0.2l0.1-0.3l0.1-0.2l0.1-0.3
		L722.8,71.5z M721.6,75.8l0.5,0.2l0,0l-0.1,0.2l-0.1,0.2l-0.1,0.2l-0.1,0.2l-0.1,0.2l-0.1,0.2l-0.1,0.2l-0.1,0.2l-0.1,0.2l-0.1,0.2
		l-0.1,0.2v0.1l-0.5-0.3v-0.1l0.1-0.2l0.1-0.2l0.1-0.2l0.1-0.2l0.1-0.2l0.1-0.2l0.1-0.2l0.1-0.2l0.1-0.2L721.6,75.8L721.6,75.8
		L721.6,75.8z M719.7,79.8l0.5,0.3v0.1l-0.1,0.2l-0.1,0.2l-0.1,0.2l-0.1,0.2l-0.1,0.2l-0.1,0.2l-0.1,0.2l-0.1,0.2l-0.1,0.2l-0.2,0.2
		l-0.1,0.2l-0.2,0.2l0,0l-0.4-0.4h0.1l0.1-0.2l0.1-0.2l0.1-0.2l0.2-0.2l0.1-0.2l0.1-0.2l0.1-0.2l0.1-0.2l0.1-0.2l0.1-0.2l0.1-0.2
		L719.7,79.8L719.7,79.8z M716.9,83.4l0.4,0.4l-0.1,0.1l-0.1,0.1l-0.2,0.2l-0.1,0.1l-0.2,0.1l-0.1,0.1l-0.1,0.1l-0.2,0.1L716,85
		l-0.2,0.1l-0.2,0.1l-0.1,0.1l-0.2,0.1l-0.2,0.1l0,0l-0.3-0.5l0,0l0.2,0l0.1-0.1l0.2-0.1l0.1-0.1l0.2-0.1l0.1-0.1l0.2-0.1l0.1-0.1
		l0.1-0.1l0.1-0.1l0.1-0.1l0.1-0.1l0.1-0.1L716.9,83.4z M713.4,86.1l0.3,0.5l-0.1,0.1l-0.2,0.1l-0.2,0.1L713,87l-0.2,0.1l-0.2,0.1
		l-0.2,0.1l-0.2,0.1l-0.4,0.2l-0.4,0.1l-0.4,0.1l-0.1,0.1l-0.2-0.5h0.1l0.4-0.1l0.4-0.2l0.4-0.2l0.2-0.1l0.2-0.1l0.2-0.1l0.2-0.1
		l0.2-0.1l0.2-0.1L713.4,86.1L713.4,86.1z M709.3,87.8l0.1,0.6l-0.2,0.1l-0.4,0.1l-0.4,0.1l-0.4,0.1l-0.4,0.1l-0.4,0.1l-0.4,0.1
		h-0.3l-0.1-0.6h0.3l0.4-0.1l0.4-0.1l0.4-0.1l0.4-0.1l0.4-0.1l0.4-0.1L709.3,87.8z M704.9,88.5v0.6l0,0h-0.4h-0.4h-0.4h-0.4h-0.4
		h-0.4h-0.4v-0.6h0.4h0.4h0.4h0.4h0.4h0.4H704.9L704.9,88.5z M700.5,88.3l-0.1,0.6l-0.4-0.1l-0.4-0.1l-0.4-0.1l-0.4-0.1l-0.4-0.1
		l-0.4-0.1l-0.4-0.1l0.2-0.5l0.3,0.1l0.4,0.1l0.4,0.1l0.4,0.1l0.4,0.1l0.4,0.1H700.5z M696.1,87.2l-0.2,0.5h-0.1l-0.4-0.1l-0.4-0.2
		l-0.4-0.2l-0.4-0.2l-0.4-0.2l-0.4-0.2l-0.2-0.1l0.3-0.5l0.1,0.1l0.4,0.2l0.4,0.2l0.4,0.1l0.4,0.2l0.4,0.1L696.1,87.2L696.1,87.2z
		 M692,85.3l-0.3,0.5l-0.3-0.2l-0.4-0.2l-0.4-0.2l-0.4-0.3l-0.4-0.2l-0.4-0.3l-0.3-0.2l0.3-0.4l0.2,0.2l0.4,0.2l0.4,0.3l0.4,0.2
		l0.4,0.2l0.4,0.2L692,85.3z M688.3,82.9l-0.4,0.4l-0.2-0.2l-0.3-0.3l-0.4-0.3l-0.3-0.3l-0.3-0.3l-0.3-0.3l-0.2-0.2l0.4-0.4l0.2,0.2
		l0.3,0.3l0.3,0.3l0.3,0.3l0.3,0.3l0.3,0.3L688.3,82.9z M684.9,79.9l-0.4,0.4l-0.2-0.2l-0.3-0.3l-0.3-0.4l-0.3-0.4l-0.3-0.4
		l-0.3-0.4l-0.1-0.2l0.5-0.4l0.1,0.2l0.3,0.4l0.3,0.4l0.3,0.3l0.3,0.3l0.3,0.4L684.9,79.9z M682.1,76.4l-0.5,0.3l-0.2-0.3l-0.3-0.4
		l-0.3-0.4l-0.2-0.4l-0.3-0.4l-0.2-0.4v-0.1l0.5-0.3v0.1l0.2,0.4l0.2,0.4l0.3,0.4l0.2,0.4l0.3,0.4L682.1,76.4z M679.9,72.5l-0.5,0.3
		l-0.1-0.2L679,72l-0.4-0.6l-0.3-0.6l-0.3-0.4l0.5-0.3l0.3,0.4l0.3,0.6l0.4,0.6l0.4,0.6L679.9,72.5z M677.7,68.5l-0.5,0.3l-0.3-0.5
		l-0.4-0.6l-0.3-0.6l-0.3-0.6l-0.1-0.2l0.5-0.3l0.1,0.3l0.3,0.5l0.3,0.6l0.3,0.6L677.7,68.5z M675.3,64.6l-0.5,0.3l-0.3-0.5
		l-0.3-0.5l-0.4-0.5l-0.3-0.5l-0.2-0.3l0.5-0.3l0.3,0.4l0.3,0.5l0.4,0.5l0.3,0.5L675.3,64.6z M672.7,60.9l-0.4,0.3l-0.1-0.1
		l-0.3-0.5l-0.3-0.5l-0.3-0.4l-0.3-0.4l-0.3-0.3l0.5-0.4l0.2,0.3l0.3,0.4l0.3,0.5l0.3,0.5l0.3,0.5L672.7,60.9z M669.9,57.3l-0.5,0.4
		l0,0l-0.3-0.4l-0.3-0.4l-0.3-0.4l-0.4-0.4l-0.3-0.4l-0.2-0.2l0.4-0.4l0.2,0.2l0.3,0.4l0.3,0.4l0.4,0.4l0.3,0.4L669.9,57.3
		L669.9,57.3z M666.9,53.9l-0.4,0.4l-0.3-0.3l-0.3-0.3l-0.3-0.3l-0.3-0.3l-0.3-0.3l-0.3-0.3l-0.2-0.2l0.4-0.4L665,52l0.3,0.3
		l0.3,0.3L666,53l0.3,0.3l0.3,0.3L666.9,53.9z M663.5,50.8l-0.3,0.4l-0.1-0.1l-0.3-0.2l-0.3-0.2l-0.3-0.2l-0.3-0.2l-0.3-0.2
		l-0.3-0.2l-0.3-0.2l0.3-0.5l0.3,0.2l0.3,0.2l0.3,0.2l0.3,0.2l0.3,0.2l0.3,0.2l0.3,0.2L663.5,50.8z M659.7,48.2l-0.3,0.5l-0.2-0.1
		l-0.3-0.2l-0.3-0.2l-0.3-0.1l-0.3-0.2l-0.3-0.2l-0.3-0.1l-0.3-0.1l-0.3-0.1l0.2-0.5l0.3,0.1l0.3,0.1l0.3,0.2l0.3,0.1l0.3,0.2
		l0.3,0.2l0.3,0.2l0.3,0.2L659.7,48.2z M655.6,46.3l-0.2,0.5l-0.2-0.1l-0.3-0.1l-0.3-0.1l-0.3-0.1l-0.3-0.1l-0.3-0.1l-0.3-0.1h-0.3
		l-0.3-0.1h-0.3l0,0l0.1-0.6h0.1h0.3l0.3,0.1h0.3l0.3,0.1l0.3,0.1l0.3,0.1l0.3,0.1l0.3,0.1l0.3,0.1L655.6,46.3z M651,45.5v0.6h-0.2
		h-0.2h-0.3H650h-0.3h-0.2h-0.3H649h-0.2h-0.3h-0.2h-0.1l-0.1-0.6h0.1h0.2l0.3-0.1h0.2h0.3h0.3h0.3h0.3h0.3h0.3L651,45.5L651,45.5z
		 M646.5,46.2l0.2,0.5l-0.2,0.1l-0.2,0.1l-0.2,0.1l-0.2,0.1l-0.2,0.1l-0.2,0.1l-0.2,0.1l-0.2,0.1l-0.2,0.1l-0.2,0.1l-0.2,0.1
		l-0.1,0.1l-0.3-0.5l0.1-0.1l0.2-0.1l0.2-0.1l0.2-0.1l0.2-0.1l0.2-0.1l0.3-0.1l0.2-0.1l0.2-0.1l0.3-0.1l0.2-0.1L646.5,46.2z
		 M642.4,48.3l0.3,0.5l-0.1,0.1l-0.2,0.2l-0.2,0.2l-0.2,0.2l-0.2,0.2l-0.2,0.2l-0.2,0.2l-0.2,0.2l-0.2,0.2l-0.2,0.2l-0.2,0.2
		l-0.1,0.1l-0.4-0.4l0.1-0.1l0.2-0.2l0.2-0.2l0.2-0.2l0.2-0.2l0.2-0.2l0.2-0.2l0.2-0.2l0.2-0.2l0.2-0.2l0.2-0.2L642.4,48.3z
		 M639.1,51.6l0.4,0.3l0,0l-0.2,0.2l-0.2,0.2l-0.2,0.2l-0.1,0.2l-0.2,0.2l-0.1,0.2l-0.2,0.2l-0.1,0.2l-0.1,0.2l-0.1,0.2l-0.1,0.2
		l-0.5-0.3l0.1-0.2l0.1-0.2l0.1-0.2l0.2-0.2l0.1-0.2l0.2-0.2l0.1-0.2l0.2-0.2l0.2-0.2l0.2-0.2L639.1,51.6L639.1,51.6z M636.7,55.4
		l0.5,0.3v0.1L637,56l-0.1,0.2l-0.1,0.3l-0.1,0.2l-0.1,0.3l-0.1,0.3l-0.1,0.2l-0.1,0.3l-0.1,0.3l-0.1,0.2l-0.5-0.2l0.1-0.2l0.1-0.3
		l0.1-0.3L636,57l0.1-0.3l0.1-0.2l0.1-0.3l0.1-0.3l0.1-0.3L636.7,55.4L636.7,55.4z M635.1,59.7l0.5,0.1l0,0l-0.1,0.3l-0.1,0.3
		l-0.1,0.3l-0.1,0.3l-0.1,0.3l-0.1,0.3l-0.1,0.3l-0.1,0.3l-0.1,0.3v0.2l-0.6-0.1v-0.2l0.1-0.3l0.1-0.3l0.1-0.3l0.1-0.3l0.1-0.3
		l0.1-0.3l0.1-0.3L635,60L635.1,59.7L635.1,59.7z M634.2,64.2l0.6,0.1v0.2v0.3v0.3v0.3v0.3V66v0.3v0.3v0.3v0.3l0,0h-0.6l0,0v-0.3
		v-0.3v-0.3V66v-0.3v-0.3v-0.3v-0.3v-0.3V64.2z M634,68.8h0.6v0.1v0.3v0.3v0.3v0.3v0.3v0.3V71v0.3l0.1,0.3v0.1l-0.5,0.1l0,0v-0.3
		v-0.3v-0.3v-0.3v-0.3V70v-0.3v-0.3L634,68.8L634,68.8z M634.6,73.3l0.6-0.1v0.1l0.1,0.3l0.1,0.3l0.1,0.3l0.1,0.3l0.1,0.3l0.1,0.3
		l0.1,0.3l0.1,0.3l0.1,0.3l0,0l-0.5,0.2l0,0l-0.1-0.3l-0.1-0.3l-0.1-0.3l-0.1-0.3l-0.1-0.3l-0.1-0.3l-0.1-0.3l-0.1-0.3L634.6,73.3
		L634.6,73.3z M636,77.7l0.5-0.2l0.1,0.1l0.1,0.3l0.1,0.3l0.1,0.3l0.1,0.3l0.1,0.3l0.1,0.3l0.1,0.3l0.1,0.3l0.1,0.2l-0.5,0.3
		l-0.1-0.2l-0.1-0.3l-0.1-0.3l-0.1-0.3l-0.1-0.3l-0.1-0.3l-0.1-0.3l-0.1-0.3L636,77.7L636,77.7z M638.2,81.7l0.5-0.3l0.1,0.2
		l0.2,0.2l0.7,1l0.6,0.9l-0.5,0.3l-0.6-0.9l-0.7-1l-0.2-0.2L638.2,81.7z M640.7,85.5l0.5-0.3l0.5,0.7l0.7,1l0.4,0.7l-0.5,0.3
		l-0.4-0.7l-0.7-1L640.7,85.5z M643.1,89.3l0.5-0.3l0.5,0.9l0.6,1l0.3,0.6l-0.5,0.3l-0.3-0.6l-0.6-1L643.1,89.3z M645.4,93.2
		l0.5-0.3l0.5,0.9l0.5,1l0.3,0.6l-0.5,0.3l-0.3-0.6l-0.5-1L645.4,93.2z M647.5,97.2l0.5-0.3l0.4,0.9l0.5,1l0.3,0.7l-0.5,0.2
		l-0.3-0.7l-0.4-1L647.5,97.2z M649.5,101.3l0.5-0.2l0.3,0.7l0.4,1l0.4,1l-0.5,0.2l-0.4-0.9l-0.4-1L649.5,101.3z M651.3,105.4
		l0.5-0.2l0.1,0.4l0.4,1l0.4,1l0.1,0.3l-0.5,0.2l-0.1-0.3l-0.3-0.9l-0.4-1L651.3,105.4z M652.9,109.7l0.5-0.2l0.3,0.9l0.3,0.9
		l0.3,0.8l-0.5,0.2l-0.3-0.8l-0.3-1L652.9,109.7z M654.2,114l0.6-0.2l0.1,0.4l0.3,1l0.3,0.9l0.1,0.5l-0.6,0.1l-0.1-0.5l-0.3-0.9
		l-0.3-0.9L654.2,114z M655.4,118.4l0.6-0.1l0.1,0.6l0.2,0.9l0.2,0.9v0.3l-0.5,0.1v-0.3l-0.2-0.9l-0.2-0.9L655.4,118.4z
		 M656.3,122.8l0.6-0.1l0.1,0.8l0.2,0.9l0.1,0.9v0.2l-0.5,0.1v-0.2l-0.1-0.9l-0.1-0.9L656.3,122.8z M657,127.2l0.6-0.1l0.1,0.7
		l0.1,0.9l0.1,0.9v0.3l-0.6,0.1v-0.3l-0.1-0.9l-0.1-0.9L657,127.2z M657.5,131.7h0.6v0.6l0.1,0.9v0.9v0.5h-0.6v-0.5v-0.9v-0.9
		L657.5,131.7z M657.7,136.2h0.5v0.4v0.9v0.8v0.8h-0.6v-0.8v-0.8v-0.8L657.7,136.2z M657.5,140.8h0.5v0.8l-0.1,0.8l-0.1,0.8v0.4
		h-0.6v-0.4l0.1-0.8l0.1-0.8L657.5,140.8z M657.1,145.2l0.6,0.1v0.3l-0.1,0.8l-0.1,0.8l-0.1,0.8v0.2l-0.6-0.1V148l0.1-0.8l0.1-0.8
		l0.1-0.8V145.2z M656.4,149.7l0.6,0.1l-0.1,0.5l-0.2,0.7l-0.2,0.8l-0.2,0.7l0,0l-0.6-0.1v-0.1l0.2-0.7l0.2-0.7l0.2-0.7L656.4,149.7
		z M655.3,154.1l0.5,0.2l-0.1,0.5l-0.2,0.7l-0.2,0.7l-0.2,0.7l0,0l-0.5-0.2l0,0l0.2-0.7l0.2-0.7l0.2-0.7L655.3,154.1z M653.9,158.4
		l0.5,0.2l-0.2,0.4l-0.3,0.7l-0.3,0.7l-0.3,0.7l-0.1,0.2l-0.5-0.2l0.1-0.2l0.3-0.7l0.3-0.7l0.3-0.7L653.9,158.4z M652.2,162.6
		l0.5,0.2l-0.1,0.3l-0.3,0.6l-0.3,0.7l-0.3,0.6l-0.2,0.4l-0.5-0.3l0.2-0.4l0.3-0.6l0.3-0.6l0.3-0.7L652.2,162.6z M650.2,166.6
		l0.5,0.3l0,0l-0.3,0.6l-0.4,0.6l-0.4,0.6l-0.4,0.6l0,0l-0.5-0.3l0,0l0.4-0.6l0.4-0.6l0.3-0.6L650.2,166.6L650.2,166.6z
		 M647.8,170.4l0.4,0.3L648,171l-0.4,0.6l-0.4,0.6l-0.4,0.5l-0.3,0.4l-0.4-0.4l0.3-0.4l0.4-0.5l0.4-0.5l0.4-0.6L647.8,170.4z
		 M645.1,174l0.4,0.4l-0.3,0.4l-0.5,0.5l-0.4,0.5l-0.5,0.5l-0.2,0.2l-0.4-0.4l0.2-0.3l0.5-0.5l0.4-0.5l0.4-0.5L645.1,174z
		 M642,177.3l0.4,0.4l-0.4,0.4l-0.5,0.4l-0.5,0.4l-0.5,0.4l-0.2,0.2l-0.4-0.4l0.2-0.2l0.5-0.4l0.5-0.4l0.5-0.4L642,177.3z
		 M638.7,180.3l0.4,0.5l-0.5,0.4l-0.5,0.4l-0.5,0.4l-0.5,0.4l-0.3,0.2l-0.3-0.4l0.3-0.2l0.5-0.4l0.5-0.4l0.5-0.4L638.7,180.3z
		 M635,183l0.3,0.5l-0.4,0.3l-0.5,0.3l-0.6,0.3l-0.5,0.3l-0.4,0.2l-0.3-0.5l0.4-0.2l0.5-0.3l0.5-0.3l0.5-0.3L635,183z M631.1,185.2
		l0.3,0.5l-0.3,0.2l-0.6,0.3l-0.6,0.3l-0.6,0.3l-0.5,0.2l-0.2-0.5l0.6-0.2l0.6-0.3l0.6-0.3l0.6-0.3L631.1,185.2z M627,186.9l0.2,0.5
		l-0.2,0.1l-0.6,0.2l-0.6,0.2l-0.6,0.2l-0.6,0.2l-0.2,0.1l-0.1-0.5l0.2-0.1l0.6-0.2l0.6-0.2l0.6-0.2l0.6-0.2L627,186.9z
		 M622.6,188.2l0.1,0.5l-0.6,0.1l-0.6,0.1l-0.6,0.1l-0.6,0.1l-0.4,0.1l-0.1-0.6h0.4l0.6-0.1l0.6-0.1l0.6-0.1L622.6,188.2z
		 M618.2,188.9v0.6l-0.4,0.1h-0.6h-0.6H616h-0.5V189h0.5h0.6h0.6l0.6-0.1H618.2z M613.7,189v0.6h-0.3h-0.6l-0.7-0.1l-0.6-0.1
		l-0.6-0.1l0.1-0.6h0.6l0.7,0.1l0.6,0.1h0.6L613.7,189z M609.2,188.6l-0.1,0.6h-0.3l-0.6-0.1l-0.7-0.1l-0.6-0.1l-0.6-0.1l0.1-0.6
		l0.6,0.1l0.6,0.1l0.6,0.1l0.6,0.1H609.2z M604.8,187.7l-0.2,0.5l-0.3-0.1l-0.7-0.2l-0.7-0.2l-0.7-0.2l-0.5-0.2l0.2-0.5l0.4,0.2
		l0.7,0.2l0.6,0.2l0.7,0.2L604.8,187.7z M600.5,186.3l-0.2,0.5l-0.5-0.2l-0.7-0.3l-0.6-0.3l-0.7-0.3l-0.1-0.1l0.2-0.5l0.1,0.1
		l0.6,0.3l0.6,0.3l0.6,0.3L600.5,186.3z M596.4,184.4l-0.3,0.5l-0.3-0.1l-0.6-0.4l-0.7-0.3l-0.6-0.4l-0.3-0.2l0.3-0.5l0.3,0.1
		l0.6,0.4l0.7,0.3l0.6,0.3L596.4,184.4z M592.5,182.2l-0.3,0.5l-0.2-0.1l-0.7-0.4l-0.6-0.4l-0.6-0.5l-0.2-0.1l0.3-0.5l0.2,0.2
		l0.6,0.5l0.6,0.4l0.6,0.4L592.5,182.2z M588.9,179.5l-0.4,0.4l-0.3-0.2l-0.6-0.5l-0.6-0.5l-0.6-0.5l0,0l0.4-0.4l0,0l0.6,0.5
		l0.6,0.5l0.6,0.5L588.9,179.5z M585.4,176.6L585,177l-0.6-0.5l-0.6-0.6l-0.6-0.6L583,175l0.4-0.4l0.3,0.3l0.6,0.6l0.6,0.6
		L585.4,176.6z M582.2,173.5l-0.4,0.4l-0.4-0.4l-0.6-0.6l-0.6-0.7l-0.3-0.4l0.4-0.4l0.3,0.4l0.6,0.7l0.6,0.6L582.2,173.5z
		 M579.2,170.1l-0.4,0.4l-0.4-0.4l-0.6-0.7l-0.6-0.7l-0.3-0.3l0.5-0.4l0.2,0.3l0.6,0.7l0.6,0.7L579.2,170.1z M576.3,166.6l-0.5,0.3
		l-0.5-0.6l-0.6-0.8l-0.6-0.8l-0.1-0.1l0.5-0.3v0.1l0.6,0.8l0.6,0.8L576.3,166.6z M573.7,162.9l-0.5,0.3l-0.1-0.2l-0.6-0.9l-0.6-0.9
		l-0.3-0.5l0.5-0.3l0.3,0.5l0.6,0.9l0.6,0.9L573.7,162.9z M571.3,159.1l-0.5,0.3l-0.4-0.7l-0.5-0.9l-0.4-0.8l0.5-0.3l0.4,0.8
		l0.5,0.9L571.3,159.1z M569,155.2l-0.5,0.3l-0.3-0.6l-0.5-1l-0.5-0.9l0.5-0.2l0.4,0.9l0.5,1L569,155.2z M567,151.1l-0.5,0.3
		l-0.3-0.6l-0.5-1.1l-0.4-0.9l0.5-0.2l0.4,0.9l0.5,1L567,151.1z M565,147.1l-0.5,0.2l-0.4-0.8l-0.5-1.1l-0.3-0.7l0.5-0.2l0.3,0.7
		l0.5,1.1L565,147.1z M563.2,142.9l-0.5,0.2l0,0l-0.5-1.1l-0.5-1.2l-0.1-0.3l0.5-0.2l0.1,0.3l0.5,1.2L563.2,142.9L563.2,142.9z
		 M561.5,138.7l-0.5,0.2l-0.3-0.7l-0.4-0.8l-0.4-0.8l-0.1-0.2l0.5-0.2l0.1,0.2l0.4,0.8l0.4,0.8L561.5,138.7z M559.7,134.5l-0.5,0.2
		l-0.3-0.7l-0.4-0.8l-0.4-0.8l-0.2-0.3l0.5-0.3l0.2,0.3l0.4,0.8l0.4,0.8L559.7,134.5z M557.7,130.4l-0.5,0.3l-0.2-0.4l-0.4-0.7
		l-0.4-0.7l-0.4-0.7l0.5-0.3l0.4,0.7l0.4,0.7l0.4,0.7L557.7,130.4z M555.5,126.5l-0.5,0.3l-0.3-0.6l-0.4-0.7l-0.4-0.6l-0.3-0.5
		l0.5-0.3l0.3,0.5l0.4,0.7l0.4,0.6L555.5,126.5z M553.1,122.6l-0.5,0.3l-0.3-0.5l-0.4-0.6l-0.4-0.6l-0.4-0.6l-0.1-0.1l0.5-0.3
		l0.1,0.1l0.4,0.6l0.4,0.6l0.4,0.6L553.1,122.6z M550.4,118.9l-0.5,0.3l-0.1-0.1l-0.4-0.5l-0.4-0.5l-0.4-0.5l-0.4-0.5l0,0l0.4-0.4
		l0,0l0.4,0.5l0.4,0.5l0.4,0.5l0.4,0.5L550.4,118.9z M547.5,115.5l-0.4,0.4l-0.1-0.1l-0.4-0.4l-0.4-0.4l-0.4-0.4l-0.4-0.4l-0.2-0.2
		l0.4-0.4l0.2,0.2l0.4,0.4l0.4,0.4l0.4,0.4L547.5,115.5L547.5,115.5z M544.2,112.2l-0.4,0.4l-0.3-0.2l-0.4-0.4l-0.4-0.4l-0.4-0.3
		l-0.4-0.4l-0.2-0.1l0.3-0.4l0.2,0.1l0.4,0.4l0.4,0.4l0.4,0.4l0.4,0.4L544.2,112.2z M540.6,109.5l-0.3,0.5l-0.2-0.1l-0.4-0.3
		l-0.4-0.3l-0.4-0.3l-0.4-0.3l-0.4-0.2l0,0l0.3-0.5h0.1l0.4,0.2l0.4,0.3l0.4,0.3l0.5,0.3L540.6,109.5L540.6,109.5z M536.6,107.1
		l-0.2,0.5l-0.2-0.1l-0.4-0.2l-0.4-0.2l-0.4-0.2l-0.5-0.2l-0.4-0.2l-0.2-0.1l0.2-0.5l0.2,0.1l0.5,0.2l0.4,0.2l0.4,0.2l0.5,0.2
		l0.4,0.2L536.6,107.1z M532.4,105.4l-0.1,0.5l-0.4-0.1l-0.4-0.1l-0.4-0.1l-0.4-0.1l-0.4-0.1l-0.4-0.1h-0.2l0.1-0.6h0.2l0.4,0.1
		l0.4,0.1l0.4,0.1l0.5,0.1l0.4,0.1L532.4,105.4z M527.9,104.5l-0.1,0.6h-0.3h-0.4h-0.4h-0.4h-0.4h-0.4h-0.3v-0.6h0.3h0.4h0.5h0.4
		h0.4l0.4,0.1L527.9,104.5z M523.3,104.4v0.6h-0.1h-0.4l-0.4,0.1H522l-0.4,0.1l-0.4,0.1l-0.4,0.1h-0.1l-0.1-0.6h0.2l0.4-0.1h0.4
		l0.4-0.1h0.4h0.4h0.4L523.3,104.4z M518.8,105l0.1,0.6h-0.3l-0.4,0.1l-0.4,0.1l-0.4,0.1L517,106l-0.4,0.1l-0.4,0.1l-0.2-0.5
		l0.4-0.1l0.4-0.1l0.4-0.1l0.4-0.1l0.4-0.1l0.4-0.1L518.8,105z M514.5,106.4l0.2,0.5h-0.1l-0.4,0.2l-0.4,0.2l-0.4,0.2l-0.4,0.2
		l-0.4,0.2l-0.4,0.2l-0.2,0.1l-0.3-0.5l0.2-0.1l0.4-0.2l0.4-0.2l0.4-0.2l0.4-0.2l0.4-0.2L514.5,106.4L514.5,106.4z M510.4,108.5
		l0.3,0.5l-0.3,0.2l-0.4,0.2l-0.4,0.2l-0.4,0.2l-0.3,0.2l-0.4,0.2l-0.2,0.2L508,110l0.2-0.2l0.4-0.2l0.4-0.2l0.4-0.3l0.4-0.2
		l0.4-0.2L510.4,108.5z M506.6,111.1l0.4,0.4l-0.2,0.2l-0.3,0.3l-0.4,0.3l-0.3,0.3l-0.4,0.3l-0.3,0.3l-0.2,0.2l-0.4-0.4l0.2-0.2
		l0.4-0.3l0.4-0.3l0.4-0.3l0.4-0.3l0.4-0.3L506.6,111.1z M503.1,114.1l0.4,0.4l-0.2,0.2L503,115l-0.3,0.3l-0.3,0.3l-0.3,0.3
		l-0.3,0.3l-0.2,0.2l-0.4-0.4l0.2-0.2l0.3-0.3l0.3-0.3l0.3-0.3l0.3-0.3l0.3-0.3L503.1,114.1z M500,117.4l0.4,0.4l-0.2,0.3l-0.3,0.3
		l-0.3,0.4l-0.3,0.4l-0.3,0.4l-0.3,0.4l-0.1,0.1l-0.5-0.3l0.1-0.1l0.3-0.4l0.3-0.4l0.3-0.4l0.3-0.4l0.3-0.3L500,117.4z M497.3,121
		l0.5,0.3l0,0l-0.3,0.4l-0.3,0.4l-0.3,0.4l-0.3,0.4l-0.2,0.4l-0.2,0.4l-0.5-0.3l0.2-0.4l0.3-0.4l0.2-0.4l0.3-0.4l0.3-0.4L497.3,121
		L497.3,121z M494.9,125l0.5,0.3l-0.1,0.2l-0.2,0.4l-0.2,0.4l-0.2,0.4l-0.2,0.4l-0.2,0.4l-0.1,0.2l-0.5-0.2l0.1-0.2l0.2-0.4l0.2-0.4
		l0.2-0.4l0.2-0.4l0.2-0.4L494.9,125z M493,129.1l0.5,0.2l-0.1,0.4l-0.2,0.5l-0.2,0.4l-0.2,0.5l-0.2,0.4l-0.2,0.5l0,0l-0.5-0.2l0,0
		l0.2-0.5l0.2-0.4l0.2-0.5l0.2-0.5l0.2-0.4L493,129.1z M491.4,133.4l0.5,0.1l-0.1,0.2l-0.1,0.5l-0.1,0.4l-0.1,0.5l-0.1,0.5l-0.1,0.4
		l-0.1,0.2l-0.6-0.1l0.1-0.2l0.1-0.5l0.1-0.5l0.1-0.5l0.1-0.5l0.1-0.5L491.4,133.4z M490.2,137.8l0.6,0.1l-0.1,0.4l-0.1,0.4
		l-0.1,0.5l-0.1,0.5l-0.1,0.4l-0.1,0.5l0,0l-0.6-0.1v-0.1l0.1-0.5l0.1-0.4l0.1-0.5l0.1-0.5l0.1-0.5L490.2,137.8z M489.5,142.3h0.6
		v0.2v0.5v0.5v0.5v0.5v0.5v0.3h-0.6V145v-0.5V144v-0.5V143v-0.5V142.3z M489.4,146.8h0.6v0.3v0.5v0.5v0.5v0.5v0.4v0.2l-0.6,0.1v-0.2
		v-0.5v-0.5v-0.5v-0.5v-0.5V146.8z M489.8,151.4l0.5-0.1v0.1l0.1,0.5l0.1,0.5l0.1,0.5l0.1,0.5l0.1,0.5l0.1,0.4l-0.5,0.1l-0.1-0.4
		l-0.1-0.5l-0.1-0.5l-0.1-0.5l-0.1-0.5L489.8,151.4L489.8,151.4z M490.7,155.8l0.6-0.1l0.1,0.2l0.1,0.4l0.1,0.5l0.2,0.4l0.1,0.4
		l0.2,0.4l0.1,0.2l-0.5,0.2l-0.1-0.2l-0.2-0.4l-0.2-0.5l-0.2-0.4l-0.1-0.5L490.7,155.8L490.7,155.8z M492.3,160.2l0.5-0.2l0.2,0.4
		l0.2,0.4l0.2,0.4l0.2,0.4l0.2,0.4l0.2,0.4l-0.5,0.3l-0.2-0.4l-0.2-0.4l-0.2-0.5l-0.2-0.4l-0.2-0.4L492.3,160.2z M494.3,164.2
		l0.5-0.3l0.1,0.2l0.2,0.4l0.2,0.4l0.2,0.5l0.2,0.5l0.2,0.5l0.1,0.1l-0.5,0.2v-0.1l-0.2-0.5l-0.2-0.5l-0.2-0.5l-0.2-0.4l-0.2-0.5
		L494.3,164.2z M496.1,168.4l0.5-0.2l0.1,0.3l0.2,0.5l0.2,0.5l0.2,0.5l0.2,0.5l0.1,0.3l-0.5,0.2l-0.1-0.3l-0.2-0.5l-0.2-0.5
		l-0.2-0.5l-0.2-0.5L496.1,168.4z M497.6,172.6l0.5-0.2l0.1,0.3l0.2,0.6l0.2,0.6l0.2,0.6l0.2,0.6v0.1l-0.6,0.1v-0.1l-0.2-0.6
		L498,174l-0.2-0.6l-0.2-0.6V172.6z M498.9,176.9l0.6-0.1v0.1l0.2,0.6l0.2,0.6l0.2,0.6l0.1,0.6l0.1,0.2l-0.6,0.1v-0.2l-0.1-0.6
		l-0.2-0.6l-0.2-0.6L499,177L498.9,176.9z M499.9,181.4l0.5-0.1v0.1l0.1,0.6l0.1,0.6l0.1,0.7l0.1,0.6v0.1l-0.6,0.1V184l-0.1-0.6
		l-0.1-0.7l-0.1-0.6V181.4L499.9,181.4z M500.8,185.8l0.6-0.1v0.2l0.1,0.7l0.1,0.7l0.1,0.7l0.1,0.7l-0.6,0.1l-0.1-0.7l-0.1-0.7
		l-0.1-0.7l-0.1-0.6V185.8z M501.5,190.3l0.5-0.1v0.3l0.1,0.7l0.1,0.7l0.1,0.7l0.1,0.5l-0.6,0.1l-0.1-0.5l-0.1-0.7l-0.1-0.7
		l-0.1-0.7L501.5,190.3z M502,194.8l0.6-0.1v0.4l0.1,0.7l0.1,0.7v0.6v0.4l-0.6,0.1v-0.4l-0.1-0.7v-0.7l-0.1-0.7V194.8z M502.4,199.3
		l0.6-0.1v0.5v0.6v0.6v0.6v0.4h-0.5v-0.4v-0.6v-0.6v-0.6L502.4,199.3z M502.5,203.8h0.6v0.4v0.6v0.6v0.6v0.6h-0.5V206v-0.6v-0.6
		v-0.6L502.5,203.8z M502.3,208.3h0.6v0.1v0.6v0.6l-0.1,0.6l-0.1,0.6l-0.1,0.4l-0.6-0.1l0.1-0.4l0.1-0.6l0.1-0.6v-0.6l0.1-0.6H502.3
		z M501.8,212.7l0.6,0.1v0.1l-0.1,0.5l-0.1,0.5l-0.1,0.5l-0.1,0.5l-0.1,0.5v0.1l-0.5-0.1v-0.1l0.1-0.5l0.1-0.5l0.1-0.5l0.1-0.5
		l0.1-0.5L501.8,212.7z M500.7,217.1l0.5,0.2l-0.1,0.1l-0.1,0.2l-0.1,0.2l-0.1,0.2l-0.1,0.2l-0.1,0.2l-0.1,0.2l-0.1,0.2l-0.1,0.2
		l-0.1,0.2l-0.1,0.2l-0.1,0.2l-0.1,0.2l-0.5-0.3l0.1-0.2l0.1-0.2l0.1-0.2l0.1-0.2l0.1-0.2l0.1-0.2l0.1-0.2l0.1-0.2l0.1-0.2l0.1-0.2
		l0.1-0.2v-0.2H500.7z M498.9,221.2l0.5,0.3l0,0l-0.1,0.2l-0.1,0.2L499,222l-0.1,0.2l-0.1,0.2l-0.1,0.1l-0.1,0.1l-0.2,0.2l-0.1,0.1
		l-0.1,0.1l-0.1,0.1l-0.1,0.1l-0.1,0.1l-0.1,0.1l-0.1,0.1l-0.4-0.4h0.1l0.1-0.1l0.1-0.1l0.1-0.1l0.1-0.1l0.1-0.1l0.1-0.1l0.1-0.1
		l0.1-0.1l0.1-0.1l0.1-0.2l0.1-0.1l0.1-0.2l0.1-0.2L498.9,221.2L498.9,221.2z M495.8,224.3l0.3,0.5l0,0l-0.2,0.1l-0.2,0.1l-0.2,0.1
		l-0.2,0.1l-0.2,0.1l-0.2,0.1l-0.2,0.1h-0.2l-0.2,0.1h-0.2l-0.2,0.1l-0.2,0.1h-0.2h-0.2h-0.2l0,0l-0.1-0.6l0,0h0.2h0.2l0.2-0.1h0.2
		l0.2-0.1h0.2l0.2-0.1l0.2-0.1l0.2-0.1l0.2-0.1l0.2-0.1l0.2-0.1l0.2-0.1l0.2-0.1L495.8,224.3L495.8,224.3z M491.6,225.4v0.5l0.2-0.1
		l-0.1,0.1l-0.1,0.1l-0.1,0.1l-0.1,0.1l-0.1,0.1l-0.1,0.1l-0.1,0.1l-0.1,0.1l-0.1,0.1l-0.1,0.1l-0.1,0.1l-0.1,0.1l-0.1,0.1l-0.1,0.1
		l-0.1,0.1l-0.1,0.1l-0.1,0.1l-0.1,0.1l-0.1,0.1l-0.1,0.1l-0.1,0.1l-0.1,0.1l-0.1,0.1l-0.1,0.1l-0.2-0.5h0.1l0.1-0.1l0.1-0.1h0.1
		l0.1-0.1l0.1-0.1l0.1-0.1l0.1-0.1l0.1-0.1l0.1-0.1l0.1-0.1h0.1l0.1-0.1l0.1-0.1l0.1-0.1v-0.1l0.1-0.1l0.1-0.1v-0.1l0.1-0.1v-0.1
		v-0.1v-0.1l0.1-0.1l0.1-0.2L491.6,225.4L491.6,225.4z M487.8,227.7l0.1,0.5h-0.1l-0.3,0.1h-0.3h-0.4l-0.4,0.1H486h-0.4h-0.4h-0.3
		v-0.6h0.3h0.4h0.4h0.4h0.3l0.3-0.1h0.3H487.8L487.8,227.7z M483.4,228v0.6l0,0H483h-0.4h-0.4h-0.4h-0.5l-0.4-0.1h-0.2l0.1-0.6h0.2
		l0.4,0.1h0.4h0.4h0.4h0.4H483.4L483.4,228z M478.9,227.5l-0.1,0.6l-0.4-0.1l-0.5-0.1l-0.5-0.1l-0.5-0.1l-0.5-0.1l-0.4-0.1l0.1-0.6
		l0.5,0.1l0.5,0.1l0.5,0.1l0.5,0.1l0.5,0.1L478.9,227.5z M474.5,226.5l-0.2,0.5l-0.3-0.1l-0.5-0.2l-0.5-0.1l-0.5-0.2l-0.5-0.2
		l-0.4-0.2l0.2-0.5l0.4,0.2l0.5,0.2l0.5,0.2l0.5,0.2l0.5,0.1L474.5,226.5z M470.3,225l-0.2,0.5l-0.4-0.2l-0.5-0.2l-0.5-0.2l-0.5-0.2
		l-0.5-0.2l-0.3-0.1l0.3-0.5l0.3,0.1l0.4,0.2l0.5,0.2l0.5,0.2l0.5,0.2L470.3,225z M466.3,223l-0.3,0.5h-0.1l-0.5-0.3l-0.4-0.3
		l-0.5-0.3l-0.4-0.3l-0.4-0.3l-0.1-0.1l0.3-0.5l0.1,0.1l0.4,0.3l0.4,0.3l0.4,0.3l0.5,0.3L466.3,223L466.3,223z M462.5,220.5
		l-0.4,0.4l-0.2-0.2l-0.2-0.2l-0.2-0.2l-0.2-0.2l-0.2-0.2l-0.2-0.2l-0.2-0.2l-0.2-0.2l-0.2-0.2l-0.2-0.2l-0.2-0.2l0,0l0.4-0.4l0,0
		l0.2,0.2l0.2,0.2l0.2,0.2l0.2,0.2l0.2,0.2l0.2,0.2l0.2,0.2l0.2,0.2l0.2,0.2l0.2,0.2L462.5,220.5z M459.3,217.4l-0.4,0.4l0,0
		l-0.2-0.2l-0.2-0.2l-0.2-0.2l-0.2-0.2l-0.2-0.2l-0.2-0.2l-0.2-0.2l-0.1-0.2l-0.2-0.2l-0.1-0.2l-0.2-0.2v-0.1l0.5-0.3v0.1l0.1,0.2
		l0.2,0.2l0.1,0.2l0.1,0.2l0.2,0.2l0.2,0.2l0.1,0.2l0.2,0.2l0.2,0.2l0.2,0.2L459.3,217.4L459.3,217.4z M456.7,213.7l-0.5,0.3
		l-0.1-0.2l-0.1-0.2l-0.1-0.2l-0.1-0.2l-0.1-0.2l-0.1-0.2l-0.1-0.2l-0.1-0.2l-0.1-0.3l-0.1-0.2l-0.1-0.3l-0.1-0.2l0.5-0.2v0.2
		l0.1,0.2l0.1,0.2l0.1,0.2l0.1,0.3l0.1,0.2l0.1,0.2l0.1,0.2l0.1,0.2l0.1,0.2l0.1,0.2L456.7,213.7z M455.2,209.6l-0.6,0.1v-0.1
		l-0.1-0.3v-0.2l-0.1-0.3v-0.2v-0.3V208v-0.3v-0.3v-0.3v-0.3v-0.1h0.6v0.1v0.3v0.3v0.2v0.3v0.2v0.3v0.2v0.2l0.1,0.2v0.2L455.2,209.6
		z M454.8,205.1h-0.6V205v-0.3v-0.3v-0.3v-0.3v-0.3v-0.3l0.1-0.3v-0.3l0.1-0.3v-0.2l0.6,0.1v0.2l-0.1,0.3v0.3l-0.1,0.3v0.3v0.3v0.3
		v0.3v0.3V205.1L454.8,205.1z M455.6,200.8l-0.5-0.2v-0.2l0.1-0.3l0.1-0.3l0.1-0.3l0.1-0.3l0.1-0.3l0.1-0.3l0.1-0.3l0.1-0.3l0.5,0.2
		l-0.1,0.3l-0.1,0.3l-0.1,0.3l-0.1,0.3l-0.1,0.3l-0.1,0.3l-0.1,0.3l-0.1,0.3V200.8z M457.3,196.6l-0.5-0.3v-0.1l0.2-0.3l0.2-0.3
		l0.2-0.3l0.2-0.3l0.4-0.7l0.2-0.4l0.5,0.3l-0.2,0.4l-0.4,0.7l-0.2,0.3l-0.2,0.3l-0.2,0.3L457.3,196.6L457.3,196.6z M459.4,192.6
		l-0.5-0.3l0.1-0.2l0.4-0.7l0.4-0.7l0.3-0.7l0.2-0.3l0.5,0.3l-0.2,0.3l-0.3,0.7l-0.4,0.7l-0.4,0.7L459.4,192.6z M461.4,188.5
		l-0.5-0.3v-0.1l0.3-0.6l0.3-0.6l0.3-0.6l0.3-0.6l0,0l0.5,0.2l0,0l-0.3,0.6l-0.3,0.6l-0.3,0.6l-0.3,0.6V188.5z M463.3,184.4
		l-0.5-0.2l0.1-0.2l0.2-0.6l0.2-0.6l0.2-0.6l0.2-0.5l0.1-0.2l0.5,0.2l-0.1,0.2l-0.2,0.6l-0.2,0.6l-0.2,0.6l-0.2,0.6L463.3,184.4z
		 M464.9,180.1l-0.5-0.2l0.1-0.3l0.2-0.5l0.1-0.5l0.2-0.5l0.1-0.5l0.1-0.4l0.5,0.1l-0.1,0.4l-0.1,0.5l-0.2,0.5l-0.1,0.5l-0.2,0.5
		L464.9,180.1z M466.1,175.7l-0.6-0.1l0.1-0.3l0.1-0.4l0.1-0.4l0.1-0.4l0.1-0.4l0.1-0.4V173l0.6,0.1v0.3l-0.1,0.4l-0.1,0.4l-0.1,0.4
		l-0.1,0.4l-0.1,0.4L466.1,175.7z M466.8,171.2l-0.6-0.1l0,0v-0.4v-0.4v-0.4v-0.4v-0.4v-0.4v-0.3v-0.2l0.6-0.1v0.3v0.4v0.4v0.4v0.3
		v0.4v0.4V171.2L466.8,171.2z M466.8,166.6l-0.6,0.1l0,0v-0.3v-0.3v-0.3l-0.1-0.3l-0.1-0.3l-0.1-0.3l-0.1-0.3l-0.1-0.3l-0.1-0.3
		l-0.1-0.1l0.5-0.2l0.1,0.1l0.1,0.3l0.1,0.3l0.1,0.3l0.1,0.3l0.1,0.3v0.3v0.3v0.3L466.8,166.6L466.8,166.6z M465.5,162.2l-0.5,0.2
		v-0.1l-0.1-0.2l-0.1-0.2l-0.1-0.2l-0.1-0.2l-0.1-0.2l-0.1-0.2l-0.1-0.2l-0.2-0.2l-0.1-0.2l-0.1-0.2l-0.1-0.2l0.5-0.3l0.1,0.2
		l0.2,0.2l0.1,0.2l0.2,0.2l0.1,0.2l0.1,0.2l0.2,0.2l0.1,0.2l0.1,0.2l0.1,0.2L465.5,162.2L465.5,162.2z M462.8,158.4l-0.4,0.4
		l-0.2-0.2l-0.2-0.2l-0.2-0.2l-0.2-0.2l-0.2-0.2l-0.2-0.2l-0.2-0.2l-0.2-0.2l-0.2-0.1l-0.3-0.3l-0.2-0.2l0.4-0.4l0.2,0.2l0.3,0.3
		l0.2,0.2l0.2,0.2l0.2,0.2l0.2,0.2l0.2,0.2l0.2,0.2l0.2,0.2l0.2,0.2L462.8,158.4z M459.3,155.5L459,156l-0.2-0.2l-0.4-0.3l-0.4-0.2
		l-0.4-0.3l-0.4-0.2l-0.7-0.4l0.3-0.5l0.7,0.4l0.4,0.3l0.4,0.2l0.4,0.3l0.4,0.3L459.3,155.5z M455.4,153.1l-0.2,0.5l-0.2-0.1
		l-0.5-0.2l-0.5-0.2l-0.5-0.2l-0.5-0.2l-0.5-0.2l0,0l0.1-0.5l0,0l0.5,0.2l0.5,0.2l0.5,0.2l0.5,0.2l0.5,0.2L455.4,153.1z
		 M451.1,151.6l-0.1,0.5h-0.2l-0.4-0.1l-0.4-0.1l-0.4-0.1l-0.4-0.1l-0.4-0.1l-0.4-0.1l0.1-0.6l0.4,0.1l0.4,0.1l0.4,0.1l0.4,0.1
		l0.5,0.1l0.4,0.1L451.1,151.6z M446.6,150.7l-0.1,0.6l0,0h-0.4l-0.4-0.1h-0.4h-0.4h-0.4h-0.4h-0.4h-0.1v-0.5h0.1h0.4h0.4h0.4h0.4
		h0.4l0.4,0.1L446.6,150.7L446.6,150.7z M442,150.6l0.1,0.6h-0.4h-0.3h-0.3h-0.3h-0.3l-0.3,0.1h-0.3l-0.3,0.1h-0.2l-0.1-0.6h0.2
		l0.3-0.1l0.3-0.1h0.3l0.4-0.1h0.3h0.3h0.4L442,150.6z M437.5,151.5l0.2,0.5l0,0l-0.3,0.1l-0.3,0.1l-0.3,0.1l-0.3,0.1l-0.3,0.1
		l-0.3,0.1l-0.3,0.1l-0.3,0.1l-0.2,0.2H435l-0.3-0.5h0.1l0.3-0.2l0.3-0.1l0.3-0.1l0.3-0.1l0.3-0.1l0.3-0.1l0.3-0.1l0.3-0.1
		L437.5,151.5L437.5,151.5z M433.5,153.8l0.4,0.4l-0.2,0.2l-0.2,0.2l-0.2,0.2l-0.2,0.2l-0.2,0.2l-0.2,0.2l-0.2,0.2l-0.2,0.2
		l-0.2,0.2l-0.1,0.1l-0.4-0.4l0.1-0.1l0.2-0.2l0.2-0.2l0.2-0.2l0.2-0.2l0.2-0.2l0.2-0.2l0.2-0.2l0.2-0.2L433.5,153.8z M430.3,157.1
		l0.4,0.3l-0.1,0.2l-0.2,0.3l-0.2,0.3l-0.2,0.3l-0.2,0.3l-0.2,0.3l-0.1,0.3l-0.1,0.3l-0.1,0.3v0.1l-0.5-0.3v-0.1l0.2-0.3l0.2-0.3
		l0.2-0.3l0.1-0.3l0.2-0.3l0.2-0.3l0.2-0.3l0.2-0.3V157.1z M428,161l0.5,0.2l-0.1,0.2l-0.1,0.3l-0.1,0.3l-0.1,0.3l-0.1,0.3l-0.1,0.3
		l-0.1,0.3l-0.1,0.3l-0.1,0.3l0,0l-0.5-0.2l0,0l0.1-0.3l0.1-0.3l0.1-0.3l0.1-0.3l0.1-0.3l0.1-0.3l0.1-0.3l0.1-0.3L428,161z
		 M426.4,165.3l0.5,0.1l0,0l-0.1,0.3l-0.1,0.4l-0.1,0.3l-0.1,0.3l-0.1,0.4l-0.1,0.4l-0.1,0.3l-0.1,0.3l-0.6-0.1l0.1-0.3l0.1-0.4
		l0.1-0.4l0.1-0.3l0.1-0.4l0.1-0.3l0.1-0.4L426.4,165.3L426.4,165.3z M425.3,169.8l0.6,0.1v0.2l-0.1,0.4l-0.1,0.4l-0.1,0.4l-0.1,0.4
		l-0.1,0.4l-0.1,0.4l-0.1,0.4l-0.6-0.1l0.1-0.4l0.1-0.4l0.1-0.4l0.1-0.4l0.1-0.4l0.1-0.4l0.1-0.4V169.8z M424.6,174.3l0.6,0.1v0.1
		l-0.1,0.8L425,176l-0.1,0.8l-0.1,0.4h-0.5v-0.4l0.1-0.8l0.1-0.8L424.6,174.3L424.6,174.3z M424.2,178.8h0.6v0.3v0.8l-0.1,0.8v0.8
		v0.2h-0.6v-0.2l0.1-0.8v-0.8l0.1-0.8L424.2,178.8z M424.1,183.3h0.6v0.4v0.8v0.8v0.8v0.1h-0.6v-0.1v-0.8v-0.8v-0.8V183.3z
		 M424.1,187.9h0.6v0.6v0.8v0.8v0.7h-0.6v-0.7v-0.8v-0.8V187.9z M424.2,192.4l0.6-0.1v0.6v0.8v0.7v0.7h-0.6v-0.7v-0.8v-0.7V192.4z
		 M424.5,197l0.6-0.1l0.1,1.2l0.1,1.4v0.2l-0.6,0.1v-0.2l-0.1-1.4L424.5,197z M424.8,201.5h0.6l0.1,0.8l0.1,1.3l0.1,0.8l-0.6,0.1
		l-0.1-0.8l-0.1-1.3L424.8,201.5z M425.2,206l0.6-0.1l0.2,2.2l0.1,0.7l-0.6,0.1l-0.1-0.7L425.2,206z M425.5,210.5l0.6-0.1v0.5
		l0.1,0.8v0.4v0.4v0.3v0.4v0.1h-0.6v-0.1v-0.3v-0.3v-0.4v-0.4l-0.1-0.8V210.5z M425.7,215h0.5l0,0v0.7v0.7l-0.1,0.7l-0.1,0.7v0.1
		l-0.6-0.1v-0.1l0.1-0.7l0.1-0.7v-0.7L425.7,215L425.7,215z M425.2,219.5l0.6,0.1v0.2l-0.1,0.6l-0.1,0.6l-0.1,0.6l-0.1,0.6v0.1
		l-0.6-0.1v-0.1l0.1-0.6l0.1-0.6l0.1-0.6l0.1-0.6V219.5z M424.5,224l0.6,0.1v0.1l-0.1,0.6l-0.1,0.6l-0.1,0.6l-0.2,0.6l-0.1,0.4
		l-0.5-0.1l0.1-0.4l0.1-0.5l0.1-0.6l0.1-0.6L424.5,224L424.5,224z M423.5,228.3l0.5,0.1l-0.1,0.2l-0.1,0.5l-0.2,0.5l-0.2,0.5
		l-0.2,0.5l-0.2,0.5l-0.5-0.2l0.2-0.5l0.2-0.5l0.2-0.5l0.2-0.5l0.1-0.5L423.5,228.3z M421.9,232.6l0.5,0.2l-0.1,0.3l-0.2,0.5
		l-0.2,0.4l-0.2,0.4l-0.2,0.4l-0.2,0.4l-0.5-0.3l0.2-0.4l0.2-0.4l0.2-0.4l0.2-0.5l0.2-0.4L421.9,232.6z M420,236.6l0.5,0.3l-0.1,0.2
		l-0.2,0.4l-0.3,0.4l-0.2,0.4l-0.3,0.4l-0.3,0.4l-0.2,0.3l-0.4-0.3l0.2-0.3l0.3-0.4l0.3-0.4l0.2-0.4l0.3-0.4l0.2-0.4V236.6z
		 M417.4,240.3l0.4,0.4l-0.1,0.1l-0.3,0.3l-0.3,0.3l-0.3,0.3l-0.3,0.3l-0.3,0.3l-0.3,0.3l-0.1,0.1l-0.4-0.4l0.1-0.1l0.3-0.3l0.3-0.3
		l0.3-0.3l0.3-0.3l0.3-0.3l0.3-0.3L417.4,240.3z M414.3,243.6l0.4,0.4l-0.2,0.2l-0.3,0.2l-0.3,0.3l-0.3,0.2l-0.3,0.2l-0.3,0.2
		l-0.3,0.2l-0.1,0.1l-0.3-0.5l0.1-0.1l0.3-0.2l0.3-0.2l0.3-0.2l0.3-0.3l0.3-0.2l0.3-0.3L414.3,243.6z M410.7,246.2l0.3,0.5l-0.1,0.1
		l-0.3,0.2l-0.4,0.2l-0.4,0.2l-0.3,0.2l-0.4,0.2l-0.4,0.2l-0.3,0.1l-0.2-0.5l0.3-0.1l0.4-0.2l0.4-0.2l0.3-0.2l0.4-0.2l0.3-0.2
		l0.3-0.2L410.7,246.2z M406.7,248.2l0.2,0.5l-0.4,0.2l-0.4,0.1l-0.4,0.1l-0.4,0.1l-0.4,0.1l-0.4,0.1l-0.4,0.1H404l-0.1-0.5h0.1
		l0.4-0.1l0.4-0.1l0.4-0.1l0.4-0.1l0.4-0.2l0.4-0.1L406.7,248.2z M402.4,249.5l0.1,0.5h-0.2l-0.4,0.1l-0.4,0.1l-0.4,0.1l-0.4,0.1
		l-0.4,0.1l-0.4,0.1h-0.3l-0.1-0.6h0.2l0.4-0.1l0.4-0.1l0.4-0.1l0.4-0.1l0.4-0.1l0.4-0.1L402.4,249.5z M398,250.2l0.1,0.6H398
		l-0.4,0.1h-0.4h-0.4h-0.4H396h-0.4h-0.3v-0.6h0.3h0.4h0.4h0.4h0.4h0.4L398,250.2L398,250.2z M393.5,250.3v0.6l0,0h-0.4h-0.4h-0.4
		h-0.4h-0.4h-0.4h-0.3v-0.6h0.3h0.4h0.4h0.4h0.4h0.4H393.5L393.5,250.3z M389,250l-0.1,0.6h-0.1h-0.4l-0.4-0.1l-0.4-0.1l-0.4-0.1
		l-0.4-0.1l-0.4-0.1l-0.2-0.1l0.1-0.6l0.2,0.1l0.4,0.1l0.4,0.1l0.4,0.1l0.4,0.1l0.4,0.1H389L389,250z M384.5,249.3l-0.1,0.6h-0.2
		l-0.4-0.1l-0.4-0.1l-0.4-0.1l-0.4-0.1l-0.4-0.1l-0.4-0.1l-0.1-0.1l0.1-0.6l0.1,0.1l0.4,0.1l0.4,0.1l0.4,0.1l0.4,0.1l0.4,0.1
		l0.4,0.1H384.5z M380.2,248.2l-0.2,0.5l-0.3-0.1l-0.4-0.1l-0.4-0.1l-0.4-0.1l-0.4-0.1l-0.4-0.1l-0.4-0.1l0.2-0.5l0.4,0.1l0.4,0.1
		l0.4,0.1l0.4,0.1l0.4,0.1l0.4,0.1L380.2,248.2z M375.8,246.8l-0.2,0.5l-0.4-0.1l-0.4-0.1l-0.4-0.1l-0.4-0.2l-0.4-0.1l-0.4-0.1
		l-0.3-0.1l0.2-0.5l0.3,0.1l0.4,0.1l0.4,0.2l0.4,0.1l0.4,0.1l0.4,0.1L375.8,246.8z M371.7,245.1l-0.2,0.5l0,0l-0.4-0.2l-0.4-0.2
		l-0.4-0.2l-0.4-0.2l-0.4-0.2l-0.4-0.2l-0.3-0.1l0.3-0.5l0.3,0.1l0.4,0.2l0.4,0.2l0.4,0.2l0.4,0.2l0.4,0.2L371.7,245.1L371.7,245.1z
		 M367.6,243.2l-0.3,0.5l0,0l-0.4-0.2l-0.3-0.2l-0.4-0.2l-0.3-0.2l-0.4-0.2l-0.3-0.2l-0.3-0.2h-0.1l0.3-0.5h0.1l0.3,0.2l0.3,0.2
		l0.3,0.2l0.4,0.2l0.3,0.2l0.4,0.2L367.6,243.2L367.6,243.2z M363.6,241l-0.3,0.5l-0.2-0.1l-0.3-0.2l-0.3-0.2l-0.3-0.2l-0.3-0.2
		l-0.3-0.2l-0.3-0.2L361,240l0,0l0.3-0.5l0,0l0.3,0.2l0.3,0.2l0.3,0.2l0.3,0.2l0.3,0.2l0.3,0.2l0.3,0.2L363.6,241z M359.9,238.5
		l-0.3,0.4h-0.1l-0.3-0.2l-0.3-0.2l-0.3-0.2l-0.3-0.2l-0.3-0.2l-0.3-0.2l-0.3-0.2l-0.2-0.2l0.4-0.4l0.2,0.2l0.3,0.2l0.2,0.2l0.3,0.2
		l0.3,0.2l0.3,0.2l0.3,0.2L359.9,238.5L359.9,238.5z M356.3,235.7l-0.4,0.4l0,0l-0.2-0.2l-0.2-0.2l-0.2-0.2l-0.2-0.2l-0.2-0.2
		l-0.2-0.2l-0.2-0.2l-0.2-0.2l-0.2-0.2H354l0.4-0.4l0,0l0.2,0.2l0.2,0.2l0.2,0.2l0.2,0.2l0.2,0.2l0.2,0.2l0.2,0.2l0.2,0.2
		L356.3,235.7L356.3,235.7z M353.2,232.5l-0.5,0.3l-0.2-0.2l-0.2-0.2l-0.2-0.2l-0.2-0.2l-0.2-0.2l-0.2-0.2l-0.2-0.2l-0.2-0.2
		L351,231l-0.1-0.2l-0.2-0.2l0,0l0.5-0.3l0,0l0.1,0.2l0.1,0.2l0.1,0.2l0.1,0.2l0.2,0.2l0.2,0.2l0.2,0.2l0.2,0.2l0.2,0.2l0.2,0.2
		L353.2,232.5z M350.8,228.8l-0.5,0.2l-0.1-0.1l-0.1-0.2l-0.1-0.2l-0.2-0.5l-0.2-0.5l-0.2-0.4l-0.2-0.4l-0.1-0.3l0.5-0.2l0.1,0.3
		l0.2,0.4l0.2,0.4l0.2,0.5l0.2,0.5l0.1,0.2L350.8,228.8L350.8,228.8z M349.1,224.5l-0.5,0.2l-0.1-0.3l-0.2-0.4l-0.2-0.4l-0.2-0.4
		l-0.2-0.4l-0.2-0.4l-0.1-0.2l0.5-0.2l0.1,0.2l0.2,0.4l0.2,0.4l0.2,0.4l0.2,0.4l0.2,0.4L349.1,224.5z M347.2,220.4l-0.5,0.3
		l-0.1-0.3l-0.2-0.4l-0.2-0.4l-0.2-0.4l-0.2-0.4l-0.2-0.3l-0.2-0.4l0,0l0.5-0.3l0,0l0.2,0.4l0.2,0.4l0.2,0.4l0.2,0.4l0.2,0.4
		l0.2,0.4L347.2,220.4z M345,216.4l-0.5,0.3l-0.1-0.2l-0.2-0.3l-0.2-0.3l-0.2-0.3l-0.2-0.3l-0.2-0.3l-0.2-0.3l-0.1-0.2l0.4-0.3
		l0.2,0.2l0.2,0.3l0.2,0.3l0.2,0.3l0.2,0.3l0.2,0.3l0.2,0.3L345,216.4z M342.4,212.6l-0.5,0.3l-0.2-0.2l-0.2-0.3l-0.2-0.3l-0.2-0.3
		l-0.2-0.3l-0.2-0.3l-0.2-0.3l-0.2-0.3l-0.1-0.1l0.4-0.4l0.1,0.1l0.2,0.3l0.2,0.3l0.2,0.3l0.2,0.3l0.2,0.3l0.2,0.3l0.2,0.3
		L342.4,212.6z M339.5,209.1l-0.4,0.4l-0.1-0.1l-0.2-0.3l-0.2-0.2l-0.2-0.2l-0.2-0.3l-0.2-0.2l-0.2-0.2l-0.2-0.2l-0.2-0.2l0,0
		l0.4-0.4l0,0l0.2,0.2l0.2,0.2l0.2,0.2l0.2,0.2l0.2,0.2l0.2,0.2l0.2,0.2l0.2,0.3L339.5,209.1z M336.2,206l-0.4,0.4l-0.1-0.1
		l-0.3-0.2l-0.2-0.2l-0.2-0.2l-0.3-0.2l-0.2-0.2l-0.2-0.2l-0.2-0.2l-0.3-0.2l-0.2-0.1l0.3-0.5l0.3,0.2l0.2,0.2l0.3,0.2l0.3,0.2
		l0.2,0.2l0.2,0.2l0.2,0.2l0.2,0.2L336.2,206L336.2,206z M332.4,203.4l-0.3,0.5l0,0l-0.3-0.1l-0.2-0.1l-0.3-0.1l-0.2-0.1l-0.3-0.1
		l-0.3-0.1l-0.2-0.1l-0.3-0.1l-0.2-0.1l-0.2-0.1l0.2-0.5l0.2,0.1l0.3,0.1l0.3,0.1l0.3,0.1l0.2,0.1l0.3,0.1l0.3,0.1l0.3,0.1l0.2,0.1
		L332.4,203.4L332.4,203.4z M328.3,201.3l-0.2,0.5H328l-0.2-0.1l-0.3-0.1l-0.2-0.1l-0.3-0.1l-0.3-0.1l-0.2-0.1l-0.3-0.1L326,201
		l-0.5-0.2l0.2-0.5l0.5,0.2l0.3,0.1l0.2,0.1l0.3,0.1l0.3,0.1l0.3,0.1l0.2,0.1l0.3,0.1L328.3,201.3L328.3,201.3z M324,199.8l-0.1,0.5
		l-0.5-0.1l-0.5-0.1l-0.5-0.1l-0.5-0.1l-0.6-0.1h-0.1l0.1-0.6h0.1l0.5,0.1l0.6,0.1l0.5,0.1l0.5,0.1L324,199.8z M319.5,198.9
		l-0.1,0.6l-0.4-0.1l-0.5-0.1l-0.5-0.1l-0.6-0.1l-0.5-0.1h-0.3l0.1-0.6h0.3l0.5,0.1l0.6,0.1l0.5,0.1l0.6,0.1L319.5,198.9z
		 M315,198.4v0.6h-0.3h-0.5h-0.5h-0.6h-0.6h-0.3v-0.6h0.3h0.6h0.6h0.6h0.5H315z M310.5,198.3v0.6h-0.2h-0.6h-0.6h-0.6h-0.6h-0.3
		v-0.6h0.4h0.6h0.6h0.6h0.6H310.5z M305.9,198.3v0.6h-0.8H304h-0.9v-0.6h0.9h1.1H305.9z M301.4,198.5v0.6h-0.9l-2,0.1v-0.6l2-0.1
		H301.4z M296.8,198.7v0.6h-0.9h-1.1H294v-0.6h0.8h1.2H296.8z M292.3,198.8v0.6h-0.4h-0.6h-0.6h-0.6h-0.6h-0.1v-0.6h0.2h0.6h0.6h0.6
		h0.6H292.3z M287.8,198.7v0.6h-0.4h-0.6h-0.5h-0.6l-0.6-0.1h-0.2l0.1-0.6h0.1l0.6,0.1h0.6h0.5h0.6H287.8z M283.3,198.4v0.6h-0.1
		h-0.3h-0.4h-0.3h-0.3h-0.3h-0.3H281h-0.3h-0.2v-0.6h0.2h0.3h0.3h0.3h0.3h0.3h0.3h0.3H283.3L283.3,198.4z M278.8,198.1l-0.1,0.6l0,0
		h-0.3h-0.3l-0.3-0.1h-0.3l-0.3-0.1l-0.3-0.1l-0.3-0.1l-0.3-0.1l-0.3-0.1h-0.1l0.1-0.6h0.1l0.3,0.1l0.3,0.1l0.3,0.1l0.3,0.1l0.3,0.1
		h0.3l0.3,0.1h0.3H278.8L278.8,198.1z M274.4,197.1l-0.2,0.5l0,0l-0.3-0.1l-0.3-0.1l-0.3-0.1l-0.3-0.1l-0.3-0.1l-0.3-0.1l-0.3-0.1
		l-0.3-0.1l-0.3-0.1l-0.2-0.1l0.2-0.5l0.2,0.1l0.3,0.1l0.3,0.1l0.3,0.1l0.3,0.1l0.3,0.1l0.3,0.1l0.3,0.1l0.3,0.1L274.4,197.1
		L274.4,197.1z M270.3,195.4l-0.3,0.5l-0.1-0.1l-0.3-0.1l-0.3-0.1l-0.3-0.1l-0.3-0.2l-0.3-0.2l-0.3-0.1l-0.2-0.2l-0.3-0.2l-0.2-0.2
		l0,0l0.3-0.5l0,0l0.3,0.2l0.2,0.2l0.3,0.2l0.2,0.2l0.3,0.1l0.3,0.2l0.2,0.1l0.3,0.1l0.3,0.1L270.3,195.4z M266.6,192.8l-0.4,0.4
		h-0.1L266,193l-0.2-0.2l-0.2-0.2l-0.2-0.2l-0.2-0.2L265,192l-0.2-0.2l-0.2-0.2l-0.2-0.2l0.4-0.4l0.2,0.2l0.2,0.2l0.2,0.2l0.2,0.2
		l0.2,0.2l0.2,0.2l0.2,0.2l0.2,0.2L266.6,192.8L266.6,192.8z M263.5,189.6l-0.4,0.3l-0.2-0.2l-0.2-0.3l-0.2-0.2l-0.2-0.3l-0.2-0.3
		l-0.2-0.3l-0.2-0.3l-0.2-0.3l-0.1-0.1l0.5-0.3l0.1,0.1l0.2,0.3l0.2,0.3l0.2,0.3l0.2,0.3l0.2,0.2l0.2,0.3l0.2,0.3L263.5,189.6z
		 M260.9,185.9l-0.5,0.3l-0.2-0.3l-0.2-0.3l-0.2-0.3l-0.2-0.3l-0.2-0.3l-0.2-0.4L259,184l-0.1-0.2l0.5-0.3l0.1,0.2l0.2,0.3l0.2,0.4
		l0.2,0.3l0.2,0.3l0.2,0.3l0.2,0.3L260.9,185.9z M258.8,181.9l-0.5,0.3l-0.1-0.2l-0.2-0.4l-0.2-0.4l-0.2-0.4l-0.2-0.4l-0.2-0.4
		l-0.1-0.4l-0.1-0.1l0.5-0.2v0.1l0.2,0.4l0.2,0.4l0.1,0.4l0.2,0.4l0.2,0.4l0.2,0.4L258.8,181.9z M257.1,177.8l-0.5,0.2l-0.1-0.4
		l-0.2-0.4l-0.2-0.4l-0.1-0.4l-0.2-0.4l-0.2-0.5v-0.1l0.5-0.2v0.1l0.2,0.4l0.2,0.5l0.1,0.4l0.2,0.4l0.2,0.4L257.1,177.8z
		 M255.7,173.5l-0.6,0.2l-0.1-0.2l-0.1-0.5l-0.2-0.5l-0.2-0.5l-0.1-0.5l-0.1-0.5l0,0l0.6-0.1l0,0l0.1,0.5l0.2,0.5l0.1,0.5l0.2,0.5
		l0.2,0.5L255.7,173.5z M254.4,169.1l-0.5,0.2v-0.1l-0.1-0.3l-0.1-0.3l-0.1-0.3l-0.1-0.3l-0.1-0.3l-0.1-0.3l-0.1-0.3l-0.1-0.3
		l-0.1-0.1l0.5-0.3l0.1,0.2l0.1,0.3l0.1,0.3l0.1,0.3l0.1,0.3l0.1,0.3l0.1,0.3l0.1,0.3L254.4,169.1L254.4,169.1z M252.5,165l-0.5,0.3
		l-0.1-0.1l-0.1-0.2l-0.2-0.2l-0.2-0.2l-0.1-0.2l-0.2-0.2l-0.2-0.2l-0.2-0.2l-0.1-0.2l-0.2-0.2l-0.2-0.2l-0.1-0.1l0.4-0.4l0.1,0.1
		l0.2,0.2l0.2,0.2l0.2,0.2l0.2,0.2l0.2,0.2l0.2,0.2l0.2,0.2l0.2,0.2l0.2,0.2l0.2,0.2L252.5,165z M249.5,161.5l-0.4,0.4l0,0l-0.2-0.1
		l-0.2-0.1l-0.2-0.1l-0.2-0.1l-0.2-0.1l-0.2-0.1l-0.2-0.1l-0.2-0.1l-0.2-0.1l-0.2-0.1l-0.2-0.1l-0.2-0.1l-0.1-0.1l0.2-0.5l0.1,0.1
		l0.2,0.1l0.2,0.1l0.2,0.1l0.2,0.1l0.2,0.1l0.2,0.1l0.2,0.1l0.2,0.1l0.2,0.1l0.2,0.1l0.2,0.1L249.5,161.5L249.5,161.5z M245.3,159.5
		l-0.1,0.6h-0.1h-0.2h-0.2h-0.2h-0.2h-0.2h-0.2h-0.2h-0.2h-0.2h-0.2h-0.2h-0.2h-0.1v-0.6h0.1h0.2h0.2h0.2h0.2h0.2h0.2h0.2h0.2h0.2
		h0.2h0.2H245.3L245.3,159.5z M240.7,159.3l0.1,0.6h-0.1h-0.2h-0.2h-0.2h-0.2h-0.2h-0.2h-0.2h-0.2h-0.2l-0.5,0.1h-0.2l-0.1-0.5h0.2
		l0.5-0.1h0.2l0.2-0.1h0.2h0.2h0.2h0.2h0.2h0.2H240.7L240.7,159.3z M236.2,160.1l0.1,0.6h-0.2l-0.5,0.2l-0.5,0.1l-0.5,0.2l-0.5,0.2
		l-0.5,0.2h-0.1l-0.2-0.6h0.1l0.5-0.2l0.5-0.2l0.5-0.1l0.5-0.1l0.5-0.1L236.2,160.1z M231.8,161.4l0.2,0.5l-0.3,0.1l-0.5,0.2
		l-0.5,0.2l-1,0.4l-0.3,0.1l-0.2-0.5l0.3-0.1l1-0.4l0.5-0.2l0.5-0.2L231.8,161.4z M227.6,163l0.2,0.5l-1.1,0.4l-1.5,0.6L225,164
		l1.5-0.6L227.6,163z M223.3,164.6l0.2,0.5l-0.9,0.3l-0.5,0.2l-0.5,0.2l-0.5,0.2l-0.4,0.1l-0.2-0.6l0.3-0.1l0.5-0.2l0.5-0.2l0.5-0.2
		L223.3,164.6z M219,166.1l0.2,0.5l-0.4,0.1l-0.5,0.1l-0.5,0.1l-0.5,0.1l-0.5,0.1l-0.5,0.1h-0.1l-0.1-0.5h0.1l0.4-0.1l0.5-0.1
		l0.5-0.1l0.5-0.1l0.5-0.1L219,166.1z M214.6,167l0.1,0.6h-0.2h-0.2h-0.2h-0.2h-0.2h-0.2h-0.2h-0.2h-0.2h-0.2h-0.2h-0.2h-0.2h-0.2
		l0.1-0.6h0.2h0.2h0.2h0.2h0.2h0.2h0.2h0.2h0.2h0.2h0.2h0.2H214.6L214.6,167z M210.3,166.7l-0.1,0.5l0,0l-0.2-0.1l-0.2-0.1l-0.2-0.1
		l-0.2-0.1l-0.2-0.1l-0.2-0.1l-0.2-0.1l-0.2-0.1l-0.2-0.1l-0.2-0.1l-0.2-0.1l-0.1-0.1l-0.2-0.1l-0.2-0.1l-0.1-0.1l0,0l0.4-0.4l0,0
		l0.1,0.1l0.2,0.1l0.1,0.1l0.2,0.1l0.2,0.1l0.2,0.1l0.2,0.1l0.2,0.1l0.2,0.1l0.2,0.1l0.2,0.1l0.2,0.1h0.2l0.2,0.1L210.3,166.7
		L210.3,166.7z M206.7,164.4l-0.5,0.4l0,0l-0.1-0.2l-0.1-0.2l-0.1-0.2l-0.1-0.2l-0.1-0.2l-0.1-0.2l-0.1-0.2l-0.1-0.2l-0.1-0.2
		l-0.1-0.2l-0.1-0.2l-0.1-0.3v-0.1l0.5-0.2v0.1l0.1,0.2l0.1,0.2l0.1,0.2l0.1,0.2l0.1,0.2l0.1,0.2l0.1,0.2l0.1,0.2l0.1,0.2l0.1,0.2
		l0.1,0.1L206.7,164.4L206.7,164.4z M204.7,160.4l-0.6,0.2v-0.1l-0.1-0.3l-0.1-0.3l-0.1-0.3l-0.1-0.3l0,0l-0.2-1l-0.1-0.6l0.6-0.1
		l0.1,0.6l0.2,1l0,0l0.1,0.3l0.1,0.3l0.1,0.3L204.7,160.4L204.7,160.4z M203.5,156.1l-0.6,0.1l-0.2-0.6l-0.2-0.9l-0.3-0.8l-0.1-0.4
		l0.5-0.2l0.1,0.4l0.2,0.9l0.3,0.9L203.5,156.1z M202.2,151.7l-0.5,0.2l-0.1-0.4l-0.3-0.8L201,150l-0.3-0.7v-0.1l0.5-0.2v0.1
		l0.3,0.7l0.2,0.7l0.3,0.8L202.2,151.7z M200.6,147.5l-0.5,0.2l0,0l-0.2-0.3l-0.1-0.3l-0.1-0.3l-0.1-0.3l-0.1-0.3l-0.1-0.3l-0.1-0.3
		l-0.1-0.3v-0.1l0.5-0.2l0.1,0.1l0.1,0.3l0.1,0.3l0.1,0.3l0.1,0.3l0.1,0.3l0.1,0.3l0.1,0.3L200.6,147.5L200.6,147.5z M198.6,143.3
		l-0.5,0.3l0,0l-0.2-0.2l-0.1-0.3l-0.1-0.2l-0.2-0.2l-0.1-0.2l-0.2-0.2l-0.1-0.2l-0.1-0.2l-0.2-0.2l-0.1-0.2l-0.1-0.1l0.5-0.3
		l0.1,0.1l0.1,0.2l0.2,0.2l0.1,0.2l0.2,0.2l0.1,0.2l0.2,0.2l0.2,0.2l0.1,0.2l0.1,0.3L198.6,143.3L198.6,143.3z M196.1,139.5
		l-0.5,0.3l0,0l-0.1-0.2l-0.1-0.1l-0.1-0.2l-0.1-0.1l-0.1-0.1L195,139l-0.1-0.1l-0.1-0.1l-0.1-0.1l-0.1-0.1l-0.1-0.1l-0.1-0.1
		l-0.1-0.1l-0.1-0.1l0,0l0.4-0.4l0,0l0.1,0.1l0.1,0.1l0.1,0.1l0.1,0.1l0.1,0.1l0.1,0.1l0.1,0.1l0.1,0.1l0.1,0.2l0.1,0.1l0.1,0.1
		l0.2,0.2l0.1,0.1L196.1,139.5L196.1,139.5z M192.6,136.5l-0.3,0.5l-0.1-0.1l-0.2-0.1l-0.1-0.1l-0.1-0.1l-0.1-0.1l-0.1-0.1l-0.1-0.1
		h-0.1l-0.1-0.1h-0.1h-0.1l-0.1-0.1h-0.1h-0.1h-0.1h-0.1h-0.1h-0.1h-0.1h-0.1v-0.6h0.1h0.2h0.1h0.1h0.1h0.1h0.1h0.2l0.1,0.1h0.1h0.2
		l0.1,0.1h0.1l0.2,0.1l0.1,0.1l0.2,0.1l0.1,0.1l0.2,0.1l0.1,0.1L192.6,136.5z M188,135.8l0.1,0.6l0,0H188h-0.1h-0.2h-0.1h-0.1
		l-0.1,0.1h-0.1h-0.2l-0.1,0.1l-0.1,0.1h-0.1l-0.3,0.1l-0.3,0.1L186,137l-0.3,0.1h-0.1l-0.3-0.5h0.1l0.3-0.1l0.3-0.1l0.3-0.1
		l0.3-0.1l0.1-0.1l0.2-0.1l0.1-0.1h0.1l0.2-0.1h0.1l0.2-0.1h0.1h0.2h0.2L188,135.8L188,135.8z M183.8,137.8l0.3,0.5l0,0l-0.3,0.2
		l-0.2,0.2l-0.2,0.2l-0.2,0.2l-0.2,0.2l-0.2,0.2l-0.2,0.2l-0.2,0.2l-0.2,0.2l-0.4-0.4l0.2-0.2l0.3-0.2l0.2-0.2l0.3-0.2l0.2-0.2
		l0.2-0.2l0.2-0.2l0.2-0.2L183.8,137.8L183.8,137.8z M180.5,140.9l0.4,0.4l0,0l-0.2,0.2l-0.2,0.3l-0.2,0.3l-0.2,0.2l-0.2,0.3
		l-0.2,0.3l-0.2,0.3l-0.2,0.3l0,0l-0.5-0.3l0,0l0.2-0.3l0.2-0.3l0.2-0.3l0.2-0.3l0.2-0.3l0.2-0.3l0.2-0.3L180.5,140.9L180.5,140.9z
		 M177.7,144.6l0.5,0.3l-0.2,0.3l-0.2,0.3l-0.2,0.3l-0.4,0.6l-0.3,0.5l-0.3,0.5l-0.5-0.3l0.3-0.5l0.4-0.6l0.3-0.6l0.2-0.3l0.2-0.3
		L177.7,144.6z M175.4,148.5l0.5,0.3l-0.1,0.2l-0.3,0.5l-0.3,0.5l-0.2,0.4l-0.2,0.4l-0.2,0.4v0.1l-0.5-0.2V151l0.2-0.4l0.2-0.4
		l0.2-0.5l0.3-0.5l0.3-0.5L175.4,148.5z M173.5,152.6l0.5,0.2l-0.1,0.2l-0.3,0.7l-0.3,0.6L173,155l-0.2,0.4l-0.5-0.3l0.2-0.4
		l0.3-0.6l0.3-0.7l0.3-0.7L173.5,152.6z M171.4,156.7l0.5,0.3l-0.3,0.5l-0.3,0.6l-0.3,0.6l-0.3,0.6l-0.1,0.2l-0.5-0.3l0.1-0.2
		l0.3-0.6l0.3-0.6l0.3-0.6L171.4,156.7z M169.2,160.6l0.5,0.3l0,0l-0.3,0.5L169,162l-0.3,0.5l-0.3,0.5l-0.1,0.2l-0.5-0.3l0.1-0.2
		l0.3-0.5l0.3-0.5l0.3-0.5L169.2,160.6L169.2,160.6z M166.8,164.4l0.4,0.3l-0.3,0.4l-0.3,0.5l-0.4,0.5l-0.3,0.5l-0.3,0.4l-0.4-0.4
		l0.3-0.4l0.4-0.5l0.3-0.5l0.4-0.5L166.8,164.4z M164.1,168l0.4,0.4l-0.1,0.1l-0.4,0.4l-0.4,0.4l-0.4,0.4l-0.4,0.4l-0.3,0.4
		l-0.4-0.4l0.3-0.4l0.4-0.4l0.4-0.4l0.4-0.4L164.1,168L164.1,168z M161.1,171.4l0.4,0.4l-0.4,0.4l-0.4,0.4l-0.4,0.4l-0.4,0.4
		l-0.4,0.4l-0.2,0.1l-0.4-0.4l0.1-0.1l0.4-0.3l0.4-0.4l0.4-0.4l0.4-0.4L161.1,171.4z M157.8,174.5l0.4,0.4l-0.1,0.1l-0.4,0.3
		l-0.4,0.3l-0.4,0.3l-0.4,0.3l-0.4,0.3l-0.2,0.2l-0.4-0.5l0.2-0.1l0.4-0.3l0.4-0.3l0.4-0.3l0.4-0.3l0.4-0.3L157.8,174.5z
		 M154.2,177.2l0.3,0.5l-0.3,0.2l-0.4,0.3l-0.4,0.3l-0.4,0.2l-0.4,0.2l-0.4,0.2l-0.1,0.1l-0.3-0.5h0.1l0.4-0.2l0.4-0.2l0.4-0.3
		l0.4-0.2l0.4-0.3L154.2,177.2z M150.4,179.5l0.2,0.5l-0.4,0.2l-0.4,0.2l-0.4,0.2l-0.4,0.2l-0.4,0.2l-0.4,0.2l-0.2,0.1l-0.2-0.5
		l0.2-0.1l0.4-0.2l0.4-0.2l0.4-0.2l0.4-0.2l0.4-0.2L150.4,179.5z M146.2,181.3l0.2,0.5l-0.2,0.1l-0.4,0.1l-0.4,0.1l-0.4,0.1
		l-0.4,0.1l-0.4,0.1l-0.4,0.1h-0.1l-0.1-0.5h0.1l0.4-0.1l0.4-0.1l0.4-0.1l0.4-0.1l0.4-0.1l0.4-0.1L146.2,181.3z M141.9,182.5
		l0.1,0.6h-0.2l-0.4,0.1l-0.4,0.1l-0.4,0.1l-0.4,0.1l-0.4,0.1l-0.4,0.1h-0.2l-0.1-0.6h0.2l0.4-0.1l0.4-0.1l0.4-0.1l0.4-0.1l0.4-0.1
		l0.4-0.1H141.9z M137.4,183.1l0.1,0.6h-0.1H137h-0.4h-0.4h-0.4h-0.4H135h-0.3v-0.6h0.3h0.4h0.4h0.4h0.4h0.4H137.4L137.4,183.1z
		 M133,183.1v0.6h-0.3h-0.4l-0.4-0.1h-0.4l-0.4-0.1l-0.4-0.1h-0.4h-0.2l0.1-0.6h0.2l0.4,0.1h0.4l0.4,0.1l0.4,0.1h0.4h0.4H133z
		 M128.5,182.5l-0.1,0.6h-0.1L128,183l-0.4-0.1l-0.4-0.1l-0.4-0.1l-0.4-0.1l-0.4-0.1l-0.4-0.1l0,0l0.1-0.5h0.1l0.4,0.1l0.4,0.1
		l0.4,0.1l0.4,0.1l0.4,0.1l0.4,0.1H128.5L128.5,182.5z M124.2,181.4l-0.2,0.5h-0.2l-0.3-0.1l-0.4-0.1l-0.3-0.1l-0.4-0.1l-0.3-0.1
		l-0.4-0.1l-0.3-0.2l0.2-0.5l0.4,0.1l0.3,0.1l0.3,0.1l0.3,0.1l0.4,0.1l0.3,0.1l0.4,0.1L124.2,181.4z M120,179.7l-0.2,0.5l-0.2-0.1
		l-0.3-0.2l-0.3-0.2l-0.3-0.2l-0.3-0.2l-0.3-0.2l-0.3-0.2l-0.3-0.2l0.3-0.5l0.3,0.2l0.3,0.2l0.3,0.2l0.3,0.2l0.3,0.2l0.3,0.2
		l0.3,0.2L120,179.7z M116,177.6l-0.3,0.5l-0.2-0.1l-0.3-0.2l-0.3-0.2l-0.3-0.2l-0.3-0.2L114,177l-0.3-0.2l-0.3-0.2l0.3-0.5l0.3,0.2
		l0.3,0.2l0.3,0.2l0.3,0.2l0.3,0.2l0.3,0.2l0.3,0.2L116,177.6z M112.3,175l-0.4,0.4l-0.1-0.1l-0.3-0.2l-0.3-0.2l-0.3-0.2l-0.3-0.2
		l-0.3-0.2L110,174l-0.3-0.2l0,0l0.4-0.4l0,0l0.3,0.2l0.3,0.2l0.3,0.2l0.3,0.2l0.3,0.2l0.3,0.2l0.3,0.2L112.3,175z M108.8,172.1
		l-0.4,0.4l-0.1-0.1l-0.3-0.2l-0.3-0.3l-0.3-0.3l-0.3-0.3l-0.3-0.3l-0.2-0.3l-0.3-0.3l-0.1-0.1l0.4-0.4l0.1,0.1l0.2,0.3l0.2,0.3
		l0.3,0.3l0.3,0.3l0.2,0.3l0.3,0.3L108.8,172.1L108.8,172.1z M105.8,168.9l-0.4,0.4l-0.2-0.2l-0.2-0.3l-0.2-0.3l-0.2-0.3l-0.2-0.3
		l-0.2-0.3l-0.2-0.3l-0.2-0.3l-0.1-0.1l0.4-0.3l0.1,0.1l0.2,0.3l0.2,0.3l0.2,0.3l0.2,0.2l0.2,0.3l0.2,0.3l0.2,0.3L105.8,168.9z
		 M103.1,165.3l-0.5,0.3l-0.1-0.2l-0.2-0.3l-0.2-0.3l-0.2-0.3l-0.2-0.3l-0.2-0.3l-0.2-0.3l-0.2-0.3l-0.1-0.2l0.5-0.3l0.1,0.2
		l0.2,0.3l0.1,0.3l0.2,0.3l0.2,0.3l0.2,0.3l0.2,0.3l0.2,0.3L103.1,165.3z M100.9,161.3l-0.5,0.2l0,0l-0.1-0.3l-0.1-0.3l-0.1-0.3
		l-0.1-0.3l-0.1-0.3l-0.1-0.3l-0.1-0.3l-0.1-0.3l-0.1-0.2l0.5-0.2l0.1,0.2l0.1,0.3l0.1,0.3l0.1,0.3l0.1,0.3l0.1,0.3l0.1,0.3l0.1,0.3
		L100.9,161.3L100.9,161.3z M99.3,157.1l-0.6,0.1l-0.1-0.2l-0.1-0.3v-0.3l-0.1-0.3l-0.1-0.3l-0.1-0.3v-0.3v-0.3l-0.1-0.3v-0.2
		l0.6-0.1v0.2l0.1,0.3v0.3l0.1,0.3v0.3v0.3l0.1,0.3v0.3l0.1,0.3L99.3,157.1z M98.6,152.7H98v-0.2v-0.3v-0.3v-0.3v-0.3V151v-0.7v-0.5
		h0.6v0.4v0.7v0.3v0.3v0.3v0.3v0.3V152.7z M98.8,148.2h-0.6l0,0l0.1-0.7l0.1-0.7l0.1-0.7l0.1-0.6v-0.1l0.6,0.1v0.1l-0.1,0.7L99,147
		l-0.1,0.7L98.8,148.2L98.8,148.2z M99.4,143.8l-0.6-0.1v-0.2l0.1-0.6l0.1-0.6l0.1-0.6l0.1-0.6v-0.2l0.6,0.1v0.2l-0.1,0.6l-0.1,0.6
		l-0.1,0.6l-0.1,0.6V143.8z M100.4,139.4l-0.5-0.2l0.1-0.4l0.2-0.5l0.1-0.5l0.2-0.5l0.2-0.5v-0.1l0.5,0.2l-0.1,0.1l-0.2,0.5
		l-0.2,0.5l-0.1,0.5l-0.2,0.5V139.4z M101.8,135.1l-0.5-0.2l0.1-0.2l0.2-0.5l0.2-0.5l0.2-0.4l0.2-0.5l0.2-0.4v-0.1l0.5,0.3v0.1
		l-0.2,0.4l-0.2,0.4l-0.2,0.5l-0.2,0.4l-0.2,0.5L101.8,135.1z M103.8,131.1l-0.5-0.3l0.1-0.1l0.2-0.4l0.2-0.4l0.3-0.4l0.3-0.4
		l0.3-0.4l0.3-0.4l0.4,0.3l-0.3,0.4l-0.3,0.4l-0.2,0.4l-0.3,0.4l-0.2,0.4L103.8,131.1L103.8,131.1z M106.4,127.4L106,127l0,0
		l0.3-0.3l0.3-0.3l0.3-0.3l0.3-0.3l0.3-0.3l0.3-0.3l0.2-0.2l0.4,0.4l-0.2,0.2l-0.3,0.3l-0.3,0.3l-0.3,0.3l-0.3,0.3l-0.3,0.3
		L106.4,127.4L106.4,127.4z M109.5,124.1l-0.4-0.4l0.1-0.1l0.3-0.3l0.3-0.3l0.3-0.3l0.3-0.3l0.3-0.3l0.3-0.2l0.3-0.2l0.3,0.5
		l-0.3,0.2l-0.3,0.3l-0.3,0.2l-0.3,0.3l-0.3,0.3l-0.3,0.3L109.5,124.1L109.5,124.1z M112.9,121.2l-0.3-0.5l0.2-0.1l0.3-0.2l0.3-0.2
		l0.3-0.2l0.6-0.4l0.6-0.4l0.3,0.5l-0.6,0.4l-0.6,0.4l-0.3,0.2l-0.3,0.2l-0.3,0.2L112.9,121.2z M116.7,118.7l-0.3-0.5l2.2-1.4
		l0.2-0.1l0.3,0.5l-0.2,0.1L116.7,118.7z M120.5,116.3l-0.3-0.5l0.7-0.5l0.5-0.3l0.5-0.4l0.3-0.2l0.3-0.2l0,0l0.3,0.4l0,0l-0.3,0.2
		l-0.3,0.2l-0.5,0.4l-0.6,0.4L120.5,116.3z M124.3,113.7l-0.4-0.5l0.1-0.1l0.2-0.2l0.2-0.2l0.2-0.2l0.2-0.2l0.2-0.2l0.2-0.2l0.2-0.2
		l0.2-0.2l0.2-0.2l0.4,0.4l-0.2,0.2l-0.2,0.2l-0.2,0.2l-0.2,0.2l-0.2,0.2l-0.2,0.2l-0.2,0.2l-0.2,0.2l-0.2,0.2L124.3,113.7z
		 M127.6,110.6l-0.4-0.4l0.1-0.1l0.2-0.2l0.2-0.2l0.2-0.2l0.2-0.2l0.1-0.3l0.3-0.4l0.3-0.4l0.1-0.2l0.5,0.3l-0.2,0.2l-0.2,0.4
		l-0.3,0.4l-0.2,0.3l-0.1,0.2L128,110l-0.2,0.3L127.6,110.6L127.6,110.6z M130.1,106.7l-0.5-0.3l0.1-0.3l0.2-0.4l0.2-0.4l0.2-0.4
		l0.2-0.4l0.2-0.4l0.2-0.3l0.5,0.3l-0.2,0.3l-0.2,0.4l-0.2,0.4l-0.2,0.4l-0.2,0.4l-0.2,0.4L130.1,106.7z M132.1,102.6l-0.5-0.2
		l0.1-0.2l0.1-0.3l0.1-0.3l0.1-0.3l0.1-0.3l0.1-0.3l0.1-0.3l0.1-0.3l0.1-0.2l0.5,0.2v0.2l-0.1,0.3l-0.1,0.3l-0.1,0.3l-0.1,0.3
		l-0.1,0.3l-0.1,0.3l-0.2,0.3L132.1,102.6z M133.6,98.3l-0.6-0.1V98v-0.3l0.1-0.3l0.1-0.2v-0.3v-0.3v-0.3v-0.2v-0.3v-0.2v-0.2v-0.1
		h0.6v0.1v0.3v0.2v0.3v0.3v0.3v0.3v0.3l-0.1,0.3l-0.1,0.2V98.3L133.6,98.3z M133.8,93.7l-0.5,0.1v-0.2v-0.2v-0.2V93v-0.2l-0.1-0.2
		v-0.2l-0.1-0.2L133,92l-0.1-0.2l-0.1-0.2l-0.1-0.2l-0.1-0.2l-0.1-0.2l0,0l0.5-0.3v0.1l0.1,0.2l0.1,0.2l0.1,0.2l0.1,0.2l0.1,0.2
		l0.1,0.2l0.1,0.2l0.1,0.2v0.2l0.1,0.2V93v0.2v0.2L133.8,93.7z M131.8,89.5l-0.4,0.4l-0.1-0.1l-0.1-0.1l-0.1-0.1l-0.1-0.1l-0.1-0.1
		l-0.1-0.1l-0.1-0.1l-0.1-0.1l-0.1-0.1l-0.2-0.1l-0.1-0.1l-0.1-0.1l-0.2-0.1l-0.2-0.1l-0.1-0.1l0.3-0.5L130,88l0.2,0.1L130,88
		l0.2,0.1l0.1,0.1l0.2,0.1l0.1,0.1l0.2,0.1l0.1,0.1l0.2,0.1l0.1,0.1l0.1,0.1l0.1,0.1L131.8,89.5L131.8,89.5z M128,86.9l-0.3,0.5
		h-0.1l-0.2-0.1l-0.2-0.1l-0.2-0.1l-0.2-0.1l-0.4-0.2l-0.4-0.2l-0.4-0.2l-0.5-0.2l0,0l0.2-0.5l0,0l0.5,0.1l0.4,0.2l0.5,0.2l0.4,0.2
		l0.2,0.1l0.2,0.1l0.2,0.1L128,86.9L128,86.9z M123.7,85.4l-0.1,0.5h-0.2l-0.5-0.1l-0.5-0.1l-0.5-0.1l-0.5-0.1l-0.5-0.1h-0.1
		l0.1-0.6h0.1l0.5,0.1L122,85l0.5,0.1l0.5,0.1l0.5,0.1L123.7,85.4z M119.2,84.4l-0.1,0.6l-0.3-0.1l-0.5-0.1l-1.1-0.2l-0.9-0.2
		l0.1-0.6l0.9,0.2l1,0.2l0.5,0.1L119.2,84.4z M114.8,83.5l-0.1,0.6l-0.6-0.1l-1-0.2l-1.1-0.2h-0.1L112,83h0.1l1,0.2l1.1,0.2
		L114.8,83.5z M110.3,82.7l-0.1,0.6l-0.2-0.1l-0.5-0.1L109,83l-0.5-0.1l-0.5-0.1l-0.5-0.1l0,0l0.1-0.5l0,0l0.5,0.1l0.5,0.1l0.5,0.1
		l0.5,0.1l0.5,0.1H110.3z M105.9,81.5l-0.2,0.5l-0.2-0.1l-0.5-0.2l-0.5-0.2l-0.4-0.2l-0.2-0.1l-0.2-0.1l-0.2-0.1l-0.2-0.1l-0.2-0.1
		H103l0.3-0.5h0.1l0.2,0.1l0.2,0.1l0.2,0.1l0.2,0.1l0.2,0.1l0.4,0.2l0.4,0.2l0.5,0.2L105.9,81.5z M101.9,79.7l-0.3,0.5l-0.2-0.1
		l-0.2-0.1l-0.2-0.1l-0.2-0.1l-0.2-0.1l-0.1-0.1l-0.2-0.1l-0.2-0.1l-0.1-0.1L99.9,79l-0.1-0.1l-0.1-0.1l-0.1-0.1l-0.1-0.1l0,0
		l0.4-0.4l0,0l0.1,0.1l0.1,0.1l0.1,0.1l0.1,0.1l0.1,0.1l0.1,0.1l0.1,0.1l0.2,0.1l0.1,0.1l0.2,0.1l0.2,0.1l0.2,0.1l0.2,0.1
		L101.9,79.7z M98.7,76.8l-0.5,0.3l0,0l-0.1-0.2L98,76.7l-0.1-0.2l-0.1-0.2l-0.1-0.2L97.6,76l-0.1-0.2l-0.1-0.2l-0.1-0.2l-0.1-0.2
		V75l-0.1-0.2v-0.2v-0.2l0.5-0.1l0.1,0.2v0.2v0.2l0.1,0.2v0.2l0.1,0.2l0.1,0.2l0.1,0.2l0.1,0.2l0.1,0.2l0.1,0.2l0.1,0.2l0.1,0.2
		L98.7,76.8L98.7,76.8z M97.4,72.6h-0.6v-0.1v-0.3V72v-0.3v-0.3v-0.3v-0.3l0.1-0.6v-0.6l0.6,0.1v0.6V71v0.3v0.3v0.2v0.3v0.2
		L97.4,72.6L97.4,72.6z M97.7,68.1h-0.5V68v-0.6v-0.6v-0.6v-0.6v-0.4h0.6v0.4v0.5v0.6v0.6v0.6L97.7,68.1z M97.8,63.6h-0.6v-0.1v-0.6
		v-0.5v-0.5v-0.5v-0.5v-0.1l0.6-0.1v0.1v0.5v0.5v0.5v0.5v0.5V63.6z M97.5,59l-0.6,0.1v-0.2v-0.5L96.8,58l-0.1-0.5v-0.4l-0.1-0.5
		v-0.3l0.5-0.1l0.1,0.3V57l0.1,0.5l0.1,0.5v0.4L97.5,59L97.5,59z M96.8,54.5l-0.6,0.1v-0.2L96.1,54L96,53.6l-0.1-0.4l-0.1-0.4
		l-0.1-0.4L95.6,52l-0.1-0.1l0.5-0.2l0.1,0.2l0.1,0.4l0.1,0.4l0.1,0.4l0.1,0.4l0.1,0.4l0.1,0.4L96.8,54.5z M95.5,50.1L95,50.3v-0.1
		l-0.1-0.3l-0.2-0.3l-0.1-0.3L94.4,49l-0.2-0.3l-0.1-0.3l-0.2-0.3L93.8,48l0.5-0.3l0.1,0.1l0.2,0.3l0.2,0.3l0.2,0.4l0,0.2l0.2,0.4
		l0.1,0.3L95.5,50.1L95.5,50.1z M93.5,46L93,46.3l-0.1-0.2l-0.2-0.3l-0.2-0.3l-0.2-0.3L92.1,45L92,44.8l-0.2-0.3l-0.2-0.2l-0.2-0.2
		l0.4-0.4l0.2,0.2l0.2,0.2l0.2,0.2l0.2,0.3l0.2,0.3l0.2,0.3l0.2,0.3l0.2,0.3L93.5,46z M90.6,42.4l-0.4,0.4L90,42.6l-0.2-0.2
		l-0.2-0.2L89.4,42l-0.2-0.2L89,41.6l-0.2-0.2l-0.2-0.2L88.3,41l-0.2,0l0.3-0.5l0.1,0.1l0.2,0.2l0.2,0.2l0.2,0.2l0.2,0.2l0.2,0.2
		l0.2,0.2l0.2,0.2l0.2,0.2L90.6,42.4z M87,39.6l-0.3,0.5L86.5,40l-0.3-0.2L86,39.6l-0.3-0.1l-0.3-0.1l-0.3-0.1L85,39.1L84.7,39
		l-0.3-0.1l-0.1-0.1l0.2-0.5l0.2,0.1l0.3,0.1l0.3,0.1l0.3,0.1l0.3,0.1L86,39l0.3,0.1l0.3,0.1l0.3,0.2L87,39.6z M82.9,37.6l-0.2,0.5
		L82.5,38h-0.3l-0.3-0.1l-0.3-0.1l-0.3-0.1L81,37.6l-0.3-0.1l-0.3-0.1l-0.3-0.1h-0.2l0.1-0.6h0.2l0.3,0.1l0.3,0.1l0.3,0.1l0.3,0.1
		l0.3,0.1l0.3,0.1l0.3,0.1l0.3,0.1L82.9,37.6z M78.5,36.4L78.4,37l-0.2-0.1h-0.3l-0.3-0.1h-0.3H77h-0.3h-0.3h-0.3h-0.3h-0.1l0.1-0.6
		h0.1h0.3h0.3h0.3h0.3h0.3h0.3l0.3,0.1h0.3L78.5,36.4z M73.9,35.9v0.6l0,0h-0.3h-0.3H73h-0.6h-0.6h-0.6V36h0.6h0.6H73h0.3h0.3
		L73.9,35.9L73.9,35.9z M69.4,36v0.6h-0.2h-0.6L68,36.7h-0.6l-0.6,0.1h-0.1l-0.1-0.6h0.1l0.6-0.1h0.6l0.6-0.1h0.6H69.4z M64.8,36.4
		l0.1,0.6h-0.1l-0.6,0.1l-0.6,0.1L63,37.3l-0.6,0.1l-0.3,0.1L62,36.8h0.3l0.6-0.1l0.6-0.1l0.6-0.1L64.8,36.4L64.8,36.4z M60.3,37.2
		l0.1,0.5L60,37.8l-0.6,0.1L59,38l-0.6,0.1l-0.5,0.1l-0.2,0.1l-0.1-0.6h0.2l0.5-0.1l0.6-0.1l0.6-0.1l0.6-0.1L60.3,37.2z M55.9,38.1
		l0.1,0.6l-0.3,0.1l-0.5,0.1l-1,0.2l-0.9,0.2l-0.1-0.6l0.9-0.2l1-0.3l0.5-0.1H55.9z M51.5,39.3l0.2,0.5l-0.3,0.1l-1.7,0.5L49,40.6
		L48.8,40l0.7-0.2l1.7-0.5H51.5z"/>
	<mask id="trail_3_mask">
		<path class="st0 to-animate" d="M44.4,41.4c6.5-1.9,23.4-6.5,36.9-3.7c2.8,0.6,5.2,1.4,7.4,3.1c7,5.2,7.9,15,8.1,17.2c0.4,5.3-1.1,6.8,0,12.8
			c0.7,3.6,1.1,5.8,2.7,7.8c2.6,3.2,5.9,3,16.9,5.2c12.1,2.4,13.9,3.7,15,5.2c3.5,4.6,1.5,11.5,1.2,12.5c-1.3,4.4-3.9,6.9-13.8,15.2
			c-12.8,10.7-12.4,9.8-13.8,11.6c-1.3,1.7-9.3,12.3-6.9,26.1c1.9,10.7,8.9,17,11.6,19.4c1.8,1.5,13.5,11.5,29.6,9.3
			c12.5-1.7,21.5-9.9,25.9-16.5c5.4-7.9,9.5-16.9,9.5-16.9c0.9-2,3.1-6.8,7.8-10.6c2.6-2.1,4.3-2.6,5.6-2.7c4.1-0.4,7.3,2.5,8,3.1
			c2.6,2.4,3.8,6.3,6,14c1.6,5.6,1.9,7.9,4.2,10.2c0.8,0.8,2.8,2.6,5.7,3.3c3.3,0.8,5.5-0.3,13-3c10.2-3.7,12.5-4,13.9-4.1
			c3.8-0.3,7.5-0.6,10.6,1.6c2.4,1.7,2.6,3.7,5.6,12.2c2.2,6.2,3.3,9.3,4.5,11.3c1.1,1.9,5.1,8.3,12.2,11.8c3,1.5,5.6,1.9,17.6,2
			c18.3,0.1,20.3-0.9,28,0.3c7.1,1.1,12.1,1.9,17.3,5.6c9.4,6.6,13.8,18.2,14.4,19.8c1.4,3.7,1.3,5,3,7.7c1.8,2.8,4.6,5.5,13.1,9.6
			c8.3,4,13.4,6.5,21.1,7.6c6.6,1,12.5,1.9,19.3-0.8c10.3-4,14.9-13.2,16.2-15.8c3.4-6.7,3.5-12.5,3.7-23.9c0.2-16.6-2.6-20-1-33.7
			c1.6-13.8,5.2-17.8,7.1-19.5c5.8-5.2,13.2-5.1,15-5c6.4,0.3,13.9,3.5,17.5,10c4,7.2,1.5,15.1-0.3,20.8
			c-3.5,11.3-8.8,12.2-9.4,20.6c-0.6,9.3,5.2,16.2,6.1,17.2c7.2,8.3,17.5,8.6,21.3,8.7c4.3,0.1,9.3,0.3,13.7-2.9
			c5.8-4.2,6.8-11.5,7.6-18.5c0.4-3.7,1.4-14.8-3.6-29.8c-4.1-12.3-7.5-12.7-9.2-22.8c-0.6-3.5-1.9-11.3,0.9-20.6
			c1-3.3,4-13,13.3-20.4c2.9-2.3,13.6-10.8,26.3-8.1c8.9,1.9,14.3,8.4,19.1,14.3c5.1,6.2,5.6,9.3,11.8,21.6
			c7.3,14.5,11,21.8,17.5,29.3c6.1,7,12.7,14.7,24.4,17.8c13.7,3.6,25.1-1.6,27.5-2.7c9.8-4.7,14.9-12.1,17.6-16.2
			c6.1-9.2,7.5-18,8.4-23.8c0.5-3.3,2.4-17.5-3.1-33.9c-2.2-6.7-5.4-16.3-12.8-26.1c-2.2-3-4.9-6-6.3-11.1
			c-0.6-2.2-2.5-9.2,0.9-16.5c2.2-4.9,7.7-12,15.2-12.2c4.7-0.1,8.1,2.6,13.5,6.9c5.4,4.3,8.6,8.9,10.3,11.4c4,5.9,3,6.7,6.5,11.6
			c2.7,3.8,6.6,9.3,13.7,12.1c1.9,0.7,9.9,3.9,17.2,0c5-2.6,7-7.1,9.8-13.3c3.1-6.8,4.2-13,4.6-17.4"/>
	</mask>

	<g id="see-more" class="point">
		<path class="st3 st6" d="M36.5,17.5c-13.3,0-24,10.7-24,24s10.7,24,24,24s24-10.7,24-24S49.8,17.5,36.5,17.5z"/>
		<!-- <path id="border" class="st4" d="M36.5,17.5c-13.3,0-24,10.7-24,24s10.7,24,24,24s24-10.7,24-24S49.8,17.5,36.5,17.5z"/> -->
		<path id="icon" class="st7" d="M42.5,42.7h-4.9v4.8h-2.3v-4.8h-4.8v-2.3h4.8v-4.9h2.3v4.9h4.9V42.7z"/>
	</g>

	<g id="photo-gallery" class="point">
		<path class="st3" d="M241.5,145.5c-13.3,0-24,10.7-24,24s10.7,24,24,24s24-10.7,24-24S254.8,145.5,241.5,145.5z"/>
		<!-- <path id="border_1_" class="st4" d="M241.5,145.5c-13.3,0-24,10.7-24,24s10.7,24,24,24s24-10.7,24-24S254.8,145.5,241.5,145.5z"/> -->
		<path id="icon_1_" class="st5" d="M248.4,176.5h-13.8c-1.1,0-2.1-1-2.1-2.2v-9c0-1.2,0.9-2.2,2.1-2.2h0.7v-1.5h1.4v1.5h3
			c0.4-0.9,1-1.5,2-1.5h3.1c1,0,1.6,0.6,2,1.5h1.6c1.1,0,2.1,1,2.1,2.2v9C250.5,175.5,249.6,176.5,248.4,176.5z M242.9,166
			c-1.9,0-3.5,1.7-3.5,3.7c0,2.1,1.6,3.7,3.5,3.7s3.5-1.7,3.5-3.7C246.3,167.7,244.8,166,242.9,166z M242.9,172
			c-1.1,0-2.1-1-2.1-2.2s0.9-2.2,2.1-2.2s2.1,1,2.1,2.2S244,172,242.9,172z"/>
	</g>

	<g id="video" class="point">
		<path class="st3" d="M725.5,13.5c-13.3,0-24,10.7-24,24s10.7,24,24,24s24-10.7,24-24S738.8,13.5,725.5,13.5z"/>
		<!-- <path id="border_2_" class="st4" d="M725.5,13.5c-13.3,0-24,10.7-24,24s10.7,24,24,24s24-10.7,24-24S738.8,13.5,725.5,13.5z"/> -->
		<path id="icon_2_" class="st5" d="M731.9,34.8c-2,0-3.6-1.6-3.6-3.6s1.6-3.6,3.6-3.6s3.6,1.6,3.6,3.6S733.9,34.8,731.9,34.8z
			 M725.2,34.8c-1.3,0-2.4-1.1-2.4-2.4c0-1.3,1.1-2.4,2.4-2.4c1.3,0,2.4,1.1,2.4,2.4C727.6,33.7,726.5,34.8,725.2,34.8z M734.7,36.8
			v6.5c0,0.7-0.5,1.2-1.2,1.2h-11.1c-0.7,0-1.2-0.5-1.2-1.2v-1.4l-3.5,1.5c-0.7,0.3-1.3-0.1-1.3-0.9v-4.9c0-0.7,0.6-1.2,1.3-0.9
			l3.5,1.5v-1.4c0-0.7,0.5-1.2,1.2-1.2h11.1C734.2,35.6,734.7,36.1,734.7,36.8z M731.9,38H724c-0.2,0-0.4,0.2-0.4,0.4
			s0.2,0.4,0.4,0.4h7.9c0.2,0,0.4-0.2,0.4-0.4C732.3,38.2,732.2,38,731.9,38z"/>
	</g>
</g>
</svg>
