<?xml version="1.0" encoding="utf-8"?>
<!-- Generator: Adobe Illustrator 21.0.0, SVG Export Plug-In . SVG Version: 6.00 Build 0)  -->
<svg version="1.1" xmlns="http://www.w3.org/2000/svg" xmlns:xlink="http://www.w3.org/1999/xlink" x="0px" y="0px"
	 viewBox="0 0 759 328" style="enable-background:new 0 0 759 328;" xml:space="preserve">

<g id="trail-4">
	<path mask="url(#trail_4_mask)" id="trail_4" class="st1" d="M51.2,185.8l0.3,0.5l-0.4,0.2l-0.5,0.3l-0.5,0.2l-0.2,0.1l-0.2,0.1l-0.2,0.1l-0.2,0.1l-0.2,0.1H49
		l-0.1,0.1h-0.1l-0.1-0.6h0.1h0.1H49l0.1-0.1l0.1-0.1l0.2-0.1l0.2-0.1l0.2-0.1l0.5-0.2l0.5-0.3L51.2,185.8z M718.8,55.7v0.2h-0.6
		v-0.1h0.6V55.7z M718.2,57.6h0.6l-0.1,2.8h-0.6L718.2,57.6z M718.1,62.1h0.6l-0.1,2.8H718L718.1,62.1z M717.9,66.6h0.6l-0.1,2.8
		h-0.6L717.9,66.6z M717.8,71.2h0.6l-0.1,1.7v0.3v0.3v0.3v0.3v0.1l-0.6-0.1V74v-0.3v-0.3v-0.3v-0.3L717.8,71.2z M717.5,75.6l0.6,0.1
		l0,0V76l-0.1,0.3v0.3l-0.1,0.3v0.3l-0.1,0.2v0.3l-0.1,0.2l-0.1,0.3l-0.1,0.2l-0.1,0.2v0.1l-0.5-0.1v-0.1l0.1-0.3l0.1-0.2l0.1-0.2
		l0.1-0.2l0.1-0.3v-0.2l0.1-0.3v-0.2l0.1-0.3V76L717.5,75.6L717.5,75.6z M716.5,80l0.5,0.2v0.1l-0.1,0.2l-0.1,0.2l-0.1,0.2l-0.1,0.2
		l-0.1,0.2l-0.1,0.2l-0.1,0.2l-0.1,0.2l-0.1,0.2l-0.1,0.2l-0.1,0.2l-0.1,0.2v0.1l-0.5-0.3l0.1-0.1l0.1-0.2l0.1-0.2l0.1-0.2l0.1-0.2
		l0.1-0.2l0.1-0.2l0.1-0.2l0.1-0.2l0.1-0.2l0.1-0.2l0.1-0.2V80L716.5,80z M714.6,84l0.5,0.3l-0.1,0.1l-0.1,0.2l-0.1,0.2l-0.1,0.2
		l-0.1,0.2l-0.1,0.2l-0.1,0.2l-0.1,0.2l-0.1,0.2l-0.1,0.1l-0.1,0.2l-0.1,0.2l-0.1,0.1l-0.1,0.2l0,0l-0.4-0.4l0,0l0.1-0.1l0.1-0.1
		l0.1-0.2l0.1-0.1l0.1-0.2l0.1-0.1l0.1-0.2l0.1-0.2l0.1-0.2l0.1-0.2l0.1-0.2l0.1-0.2l0.1-0.2V84z M711.7,87.5l0.4,0.4L712,88
		l-0.1,0.1l-0.1,0.1l-0.2,0.1l-0.1,0.1l-0.2,0.1l-0.1,0.1l-0.2,0.1l-0.3,0.3l-0.3,0.2l-0.3,0.2l-0.1,0.1l-0.3-0.5l0.1-0.1l0.3-0.2
		l0.3-0.2l0.3-0.3l0.1-0.1L711,88l0.1-0.1l0.1-0.1l0.2-0.1l0.1-0.1L711.7,87.5L711.7,87.5z M708.1,90l0.3,0.5l-0.1,0.1l-0.3,0.2
		l-0.4,0.2l-0.4,0.2l-0.4,0.2l-0.4,0.1l-0.4,0.1l-0.3,0.1l-0.2-0.5l0.3-0.1l0.4-0.1l0.4-0.2l0.4-0.1l0.3-0.2l0.4-0.2l0.3-0.2
		L708.1,90z M703.9,91.7l0.1,0.5l0,0l-0.4,0.1l-0.4,0.1l-0.4,0.1l-0.4,0.1l-0.4,0.1l-0.4,0.1l-0.4,0.1l-0.1-0.6l0.4-0.1l0.4-0.1
		l0.4-0.1l0.4-0.1l0.4-0.1l0.4-0.1H703.9L703.9,91.7z M699.5,92.4V93h-0.4h-0.4h-0.4h-0.4h-0.4H697h-0.4l0.1-0.6h0.3h0.4h0.4h0.4
		h0.4h0.4H699.5z M695,92.2l-0.1,0.6h-0.1l-0.4-0.1l-0.4-0.1l-0.5-0.1l-0.4-0.1l-0.4-0.1l-0.4-0.1h-0.2l0.1-0.6h0.1l0.4,0.1l0.4,0.1
		l0.4,0.1l0.4,0.1l0.4,0.1L695,92.2L695,92.2z M690.7,91.3l-0.2,0.6l-0.3-0.1l-0.4-0.1l-0.4-0.1l-0.4-0.2l-0.4-0.1l-0.4-0.2
		l-0.3-0.1l0.2-0.5l0.3,0.1l0.4,0.1l0.4,0.2l0.4,0.1l0.4,0.1l0.4,0.1L690.7,91.3z M686.5,89.7l-0.3,0.5l-0.2-0.1l-0.4-0.2l-0.4-0.2
		l-0.4-0.2l-0.4-0.2L684,89l-0.3-0.2l0.3-0.5l0.3,0.2l0.4,0.2l0.4,0.2l0.4,0.2l0.4,0.2l0.4,0.2L686.5,89.7z M682.6,87.5l-0.3,0.5
		l-0.2-0.2l-0.4-0.3l-0.4-0.3l-0.4-0.3l-0.4-0.3l-0.4-0.3l-0.2-0.1l0.4-0.5l0.2,0.2l0.4,0.3l0.4,0.3l0.3,0.3l0.4,0.3l0.4,0.3
		L682.6,87.5z M679.1,84.7l-0.4,0.4l-0.3-0.3l-0.3-0.3l-0.3-0.3l-0.3-0.3l-0.3-0.4l-0.3-0.3v-0.1l0.4-0.4v0.1l0.3,0.3l0.3,0.3
		l0.3,0.4l0.3,0.3l0.3,0.3L679.1,84.7z M676,81.3l-0.4,0.4l-0.1-0.1L675,81l-0.5-0.5L674,80l-0.3-0.4l0.4-0.4l0.3,0.4l0.5,0.5
		l0.5,0.5l0.5,0.5L676,81.3z M673,77.9l-0.4,0.4l-0.4-0.4l-0.5-0.5l-0.5-0.5l-0.5-0.5l-0.2-0.2l0.4-0.4l0.2,0.2l0.5,0.5l0.5,0.5
		l0.5,0.5L673,77.9z M669.9,74.7l-0.4,0.4l-0.4-0.4l-0.4-0.4l-0.5-0.4l-0.4-0.4l-0.3-0.3l0.4-0.4l0.3,0.3l0.4,0.4l0.5,0.4l0.4,0.5
		L669.9,74.7z M666.6,71.6l-0.4,0.4l-0.2-0.1l-0.4-0.4l-0.4-0.4l-0.4-0.3l-0.4-0.4l-0.3-0.2l0.4-0.5l0.3,0.3l0.4,0.3l0.4,0.4L666,71
		l0.4,0.4L666.6,71.6z M663.1,68.6l-0.4,0.5l0,0l-0.4-0.3l-0.4-0.3l-0.4-0.3l-0.4-0.3l-0.4-0.3l-0.2-0.2l0.3-0.5L661,67l0.4,0.3
		l0.4,0.3l0.4,0.3l0.4,0.3L663.1,68.6L663.1,68.6z M659.4,66l-0.3,0.5l-0.3-0.2l-0.4-0.2l-0.4-0.3l-0.4-0.2l-0.4-0.2l-0.4-0.2
		l-0.2-0.1l0.3-0.5l0.2,0.1l0.4,0.2l0.4,0.2l0.4,0.2l0.4,0.3l0.4,0.2L659.4,66z M655.4,63.7l-0.2,0.5l-0.2-0.1l-0.4-0.2l-0.3-0.2
		l-0.4-0.1l-0.3-0.2l-0.4-0.1l-0.3-0.1l-0.3-0.1l0.2-0.5l0.3,0.1l0.3,0.1l0.4,0.2l0.3,0.1l0.4,0.2l0.4,0.2L655.4,63.7L655.4,63.7z
		 M651.2,61.9l-0.2,0.5l-0.2-0.1l-0.3-0.1l-0.3-0.1l-0.3-0.1l-0.3-0.1l-0.3-0.1l-0.3-0.1l-0.3-0.1l-0.3-0.1l0.1-0.5l0.3,0.1l0.3,0.1
		l0.3,0.1l0.3,0.1l0.3,0.1l0.3,0.1l0.3,0.1l0.3,0.1L651.2,61.9z M646.7,61l-0.1,0.6h-0.2h-0.3h-0.3h-0.3h-0.3H645h-0.3h-0.3h-0.3
		h-0.3l0,0l-0.1-0.6h0.1h0.3h0.3h0.3h0.3h0.3h0.3h0.3h0.3h0.3H646.7z M642.1,61.2l0.1,0.6H642l-0.2,0.1l-0.3,0.1l-0.3,0.1l-0.3,0.1
		l-0.2,0.1l-0.3,0.1l-0.2,0.1l-0.2,0.1l-0.3,0.1l-0.2,0.1l-0.1,0.1l-0.3-0.5h0.1l0.2-0.1l0.3-0.1l0.2-0.1l0.3-0.1l0.3-0.1l0.3-0.1
		l0.3-0.1l0.3-0.1l0.3-0.1l0.3-0.1L642.1,61.2z M637.8,62.8l0.3,0.5l-0.2,0.1l-0.2,0.1l-0.2,0.1l-0.2,0.1l-0.2,0.1l-0.2,0.1
		l-0.2,0.1l-0.2,0.2l-0.2,0.1l-0.2,0.2l-0.2,0.2l-0.1,0.1l-0.4-0.4l0.1-0.1l0.2-0.2l0.2-0.2l0.2-0.2l0.2-0.1l0.2-0.2l0.2-0.1
		l0.2-0.1l0.2-0.1l0.2-0.1l0.2-0.1L637.8,62.8z M634.3,65.8l0.4,0.4l-0.1,0.1l-0.2,0.2l-0.1,0.2l-0.1,0.2l-0.2,0.2l-0.1,0.2
		l-0.1,0.2l-0.1,0.2l-0.1,0.2l-0.1,0.2l-0.1,0.2l-0.1,0.1l-0.5-0.3l0.1-0.1l0.1-0.2l0.1-0.2l0.1-0.2l0.1-0.2l0.2-0.2l0.1-0.2
		l0.2-0.2l0.1-0.2l0.2-0.2l0.2-0.2L634.3,65.8z M631.8,69.7l0.5,0.2l0,0l-0.1,0.3l-0.1,0.2l-0.1,0.2l-0.1,0.3l-0.1,0.2l-0.1,0.3
		l-0.1,0.3l-0.1,0.3l-0.1,0.2l-0.1,0.3l-0.1,0.2l-0.5-0.2l0.1-0.2l0.1-0.3l0.1-0.3l0.1-0.3l0.1-0.3l0.1-0.3l0.1-0.3l0.1-0.3l0.1-0.2
		L631.8,69.7L631.8,69.7L631.8,69.7z M630.2,74l0.5,0.1v0.1l-0.1,0.3l-0.1,0.3l-0.1,0.3l-0.1,0.3l-0.1,0.3V76l-0.1,0.3v0.3l-0.1,0.3
		v0.3l-0.6-0.1v-0.3l0.1-0.3v-0.3l0.1-0.3l0.1-0.3l0.1-0.3l0.1-0.3l0.1-0.3l0.1-0.3L630.2,74L630.2,74z M629.6,78.5h0.5l0,0v0.3v0.3
		v0.3v0.3V80v0.3v0.3v0.3v0.3v0.2h-0.6v-0.2v-0.3v-0.3v-0.3V80v-0.3v-0.3v-0.3v-0.3L629.6,78.5L629.6,78.5z M629.6,83.1l0.6-0.1v0.2
		l0.1,0.3v0.3v0.3l0.1,0.3v0.3l0.1,0.3l0.1,0.3l0.1,0.3l0.1,0.3l0,0l-0.6,0.1l0,0l-0.1-0.3l-0.1-0.3l-0.1-0.3v-0.3l-0.1-0.3
		l-0.1-0.3v-0.3v-0.3v-0.3L629.6,83.1z M630.5,87.6l0.6-0.1v0.1l0.1,0.3l0.1,0.3l0.1,0.3l0.1,0.3l0.1,0.3l0.1,0.3l0.1,0.3l0.1,0.3
		l0.1,0.3v0.1l-0.5,0.2l0,0l-0.1-0.3l-0.1-0.3l-0.1-0.3l-0.1-0.3l-0.1-0.3l-0.1-0.3l-0.1-0.3l-0.1-0.3L630.5,87.6L630.5,87.6z
		 M632,91.9l0.5-0.3v0.1l0.1,0.3l0.1,0.3l0.1,0.3l0.1,0.3l0.1,0.3l0.1,0.3l0.1,0.3l0.1,0.3l0.2,0.3l0,0l-0.5,0.3l0,0l-0.1-0.3
		l-0.2-0.3l-0.1-0.3l-0.1-0.3l-0.1-0.3l-0.1-0.3l-0.1-0.3l-0.1-0.3L632,91.9L632,91.9z M634.3,95.8l0.5-0.3l0.1,0.1l0.2,0.2l0.2,0.3
		l0.2,0.3l0.2,0.2l0.2,0.2l0.2,0.3l0.2,0.2l0.2,0.2l0.2,0.2l-0.4,0.4l-0.2-0.2l-0.2-0.2l-0.2-0.2l-0.2-0.3l-0.2-0.3l-0.2-0.2
		l-0.2-0.3l-0.2-0.3L634.3,95.8L634.3,95.8z M637.3,99.3l0.4-0.4l0.2,0.2l0.2,0.2l0.9,0.9l0.8,0.7l-0.4,0.4l-0.8-0.7l-0.9-0.8
		l-0.2-0.2L637.3,99.3z M640.6,102.4l0.4-0.4l0.6,0.6l0.8,0.8l0.5,0.6l-0.4,0.4l-0.5-0.6l-0.8-0.8L640.6,102.4z M643.8,105.7
		l0.4-0.4l0.7,0.8l0.8,0.8l0.4,0.5l-0.4,0.4l-0.5-0.5l-0.8-0.9L643.8,105.7z M646.8,109l0.4-0.4l0.7,0.8l0.7,0.9l0.4,0.5l-0.4,0.4
		l-0.4-0.5l-0.7-0.8L646.8,109z M649.8,112.4l0.5-0.4l0.6,0.8l0.7,0.9l0.5,0.6l-0.5,0.3L651,114l-0.7-0.9L649.8,112.4z M652.5,116
		l0.5-0.3l0.5,0.6l0.6,0.9l0.6,0.9l-0.5,0.3l-0.6-0.8l-0.6-0.9L652.5,116z M655.2,119.7l0.5-0.3l0.2,0.3l0.6,0.9l0.6,0.9l0.2,0.3
		l-0.5,0.3l-0.2-0.3l-0.5-0.9l-0.6-0.9L655.2,119.7z M657.6,123.5l0.5-0.3l0.5,0.8l0.5,0.9l0.4,0.8L659,126l-0.4-0.7l-0.5-0.9
		L657.6,123.5z M659.9,127.4l0.5-0.3l0.2,0.3l0.5,0.9l0.5,0.9l0.2,0.5l-0.5,0.3l-0.2-0.5l-0.5-0.9l-0.5-0.9L659.9,127.4z M662,131.4
		l0.5-0.3l0.3,0.6l0.4,0.9l0.4,0.9l0.1,0.3l-0.5,0.2l-0.1-0.3l-0.4-0.9l-0.4-0.9L662,131.4z M663.9,135.5l0.5-0.2l0.3,0.7l0.3,0.9
		l0.3,0.9l0.1,0.2l-0.5,0.2l-0.1-0.2l-0.3-0.9l-0.3-0.9L663.9,135.5z M665.5,139.7l0.5-0.2l0.3,0.7l0.3,0.9l0.3,0.9l0.1,0.3
		l-0.5,0.2l-0.1-0.3l-0.3-0.9l-0.3-0.8L665.5,139.7z M666.9,144l0.5-0.1l0.2,0.6l0.3,0.8l0.2,0.9l0.1,0.5l-0.5,0.1l-0.1-0.5
		l-0.2-0.9l-0.2-0.8L666.9,144z M668,148.4l0.5-0.1l0.1,0.3l0.2,0.9l0.2,0.8l0.1,0.8l-0.5,0.1l-0.2-0.8l-0.1-0.8l-0.2-0.8L668,148.4
		z M668.9,152.8l0.5-0.1l0.1,0.8l0.1,0.8l0.1,0.8l0.1,0.4l-0.6,0.1l-0.1-0.4l-0.1-0.8l-0.1-0.8V152.8z M669.4,157.3l0.6-0.1v0.3
		l0.1,0.8l0.1,0.8v0.8v0.2h-0.6V160v-0.8l-0.1-0.8l-0.1-0.8V157.3z M669.6,161.8h0.6v0.5v0.8v0.8v0.8l0,0h-0.6v-0.1v-0.8V163v-0.8
		V161.8z M669.6,166.3l0.6,0.1v0.5l-0.1,0.8l-0.1,0.7l-0.1,0.8v0.1l-0.6-0.1l0,0l0.1-0.7l0.1-0.8l0.1-0.7V166.3z M669.1,170.8
		l0.6,0.1l-0.1,0.5l-0.1,0.7l-0.1,0.7l-0.1,0.7l-0.1,0.2l-0.5-0.1v-0.2l0.1-0.7l0.1-0.7l0.1-0.7L669.1,170.8z M668.4,175.3l0.6,0.1
		l-0.1,0.3l-0.1,0.7l-0.2,0.7l-0.2,0.7l-0.1,0.4l-0.6-0.2l0.1-0.4l0.2-0.7l0.2-0.7l0.2-0.7L668.4,175.3z M667.2,179.6l0.5,0.1l0,0
		l-0.2,0.7l-0.2,0.7l-0.2,0.7l-0.2,0.7v0.1l-0.5-0.2v-0.1l0.2-0.7l0.2-0.7l0.2-0.7L667.2,179.6L667.2,179.6z M665.7,183.9l0.5,0.2
		l-0.1,0.3l-0.3,0.6l-0.3,0.7l-0.3,0.6l-0.2,0.5l-0.5-0.3l0.2-0.4l0.3-0.6l0.3-0.6l0.3-0.7L665.7,183.9z M663.8,188l0.5,0.3
		l-0.2,0.5l-0.3,0.6l-0.3,0.6l-0.3,0.6l-0.2,0.3l-0.5-0.3l0.2-0.3l0.3-0.6l0.3-0.6l0.3-0.6L663.8,188z M661.6,191.9l0.5,0.3
		l-0.3,0.5l-0.4,0.5l-0.4,0.5l-0.4,0.5l-0.2,0.3l-0.5-0.3l0.2-0.2l0.4-0.5l0.4-0.5l0.4-0.5L661.6,191.9z M658.9,195.5l0.5,0.4
		l-0.4,0.5l-0.4,0.5l-0.4,0.5l-0.4,0.5l-0.2,0.3l-0.4-0.4l0.2-0.3l0.4-0.5l0.4-0.5l0.4-0.5L658.9,195.5z M655.9,198.9l0.4,0.4
		l-0.3,0.3l-0.5,0.5l-0.5,0.4l-0.5,0.4l-0.3,0.3l-0.4-0.5l0.3-0.3l0.5-0.4l0.5-0.4l0.5-0.4L655.9,198.9z M652.6,201.9l0.4,0.4
		l-0.3,0.2l-0.5,0.4l-0.5,0.4l-0.5,0.4l-0.5,0.3l-0.3-0.5l0.5-0.3l0.5-0.4l0.5-0.4l0.5-0.4L652.6,201.9z M648.9,204.5l0.3,0.5
		l-0.1,0.1l-0.5,0.3l-0.5,0.3l-0.5,0.3l-0.6,0.3l-0.1,0.1l-0.3-0.5l0.1-0.1l0.5-0.3l0.5-0.3l0.5-0.3l0.5-0.3L648.9,204.5z
		 M644.9,206.6l0.2,0.5l-0.5,0.3l-0.6,0.3l-0.6,0.2l-0.6,0.2l-0.3,0.1l-0.2-0.5l0.3-0.1l0.6-0.2l0.6-0.3l0.6-0.2L644.9,206.6z
		 M640.8,208.3l0.1,0.5l-0.4,0.1l-0.6,0.2l-0.6,0.2l-0.6,0.2l-0.5,0.1l-0.1-0.5l0.5-0.1l0.6-0.1l0.6-0.2l0.6-0.2L640.8,208.3z
		 M636.4,209.4l0.1,0.6l-0.3,0.1l-0.6,0.1l-0.7,0.1l-0.6,0.1l-0.6,0.1l-0.1-0.6l0.6-0.1l0.7-0.1l0.6-0.1l0.6-0.1L636.4,209.4z
		 M631.9,209.9l0.1,0.6h-0.3H631h-0.7h-0.7H629V210h0.6h0.7h0.7h0.6L631.9,209.9z M627.5,210l-0.1,0.6h-0.3l-0.7-0.1l-0.7-0.1
		l-0.7-0.1l-0.5-0.1l0.1-0.6l0.5,0.1l0.7,0.1l0.7,0.1l0.7,0.1H627.5z M623,209.5l-0.1,0.6l-0.6-0.1l-0.7-0.1l-0.7-0.1l-0.7-0.2h-0.1
		l0.1-0.5h0.1l0.7,0.1l0.7,0.1l0.7,0.1L623,209.5z M618.6,208.6l-0.1,0.6l-0.3-0.1l-0.7-0.2l-0.7-0.2l-0.7-0.2l-0.3-0.1l0.2-0.5
		l0.3,0.1l0.7,0.2l0.7,0.2l0.7,0.2H618.6z M614.3,207.2l-0.2,0.5l-0.2-0.1l-0.7-0.3l-0.7-0.3l-0.7-0.3l-0.3-0.1l0.2-0.5l0.3,0.1
		l0.7,0.3l0.7,0.3l0.7,0.3L614.3,207.2z M610.1,205.4l-0.3,0.5l-0.4-0.2l-0.7-0.4l-0.7-0.4l-0.7-0.4l0,0l0.3-0.5l0,0l0.7,0.4
		l0.7,0.4l0.7,0.4L610.1,205.4z M606.1,203.3l-0.3,0.5l-0.7-0.4l-0.7-0.5l-0.7-0.4l-0.3-0.2l0.3-0.5l0.3,0.2l0.7,0.4l0.7,0.5
		L606.1,203.3z M602.3,200.9l-0.3,0.5l-0.5-0.3l-0.7-0.5L600,200l-0.4-0.3l0.3-0.5l0.4,0.3l0.7,0.5l0.7,0.5L602.3,200.9z
		 M598.6,198.3l-0.3,0.5l-0.5-0.3l-0.7-0.6l-0.7-0.6L596,197l0.4-0.5l0.3,0.3l0.7,0.6l0.7,0.6L598.6,198.3z M595.1,195.5l-0.4,0.4
		l-0.6-0.5l-0.7-0.7l-0.7-0.7l-0.1-0.1l0.4-0.4l0.1,0.1l0.7,0.7l0.7,0.7L595.1,195.5z M591.8,192.4l-0.4,0.4l-0.1-0.1l-0.7-0.7
		l-0.7-0.7l-0.4-0.4l0.4-0.4l0.4,0.4l0.7,0.7l0.7,0.7L591.8,192.4z M588.6,189.2l-0.4,0.4l-0.6-0.6l-0.7-0.8l-0.6-0.7l0.4-0.4
		l0.6,0.7l0.7,0.8L588.6,189.2z M585.5,185.9l-0.4,0.4l-0.5-0.5l-0.7-0.8l-0.7-0.8l0.5-0.3l0.6,0.8l0.7,0.9L585.5,185.9z
		 M582.6,182.4l-0.5,0.4l-0.5-0.5l-0.7-0.9l-0.6-0.8l0.5-0.3l0.6,0.8l0.7,0.9L582.6,182.4z M579.9,178.8l-0.5,0.3l-0.5-0.7l-0.7-1
		l-0.4-0.6l0.5-0.3l0.4,0.6l0.7,1L579.9,178.8z M577.2,175.2l-0.5,0.3l0,0l-0.7-1l-0.7-1l-0.2-0.2l0.5-0.3l0.1,0.2l0.7,1
		L577.2,175.2L577.2,175.2z M574.6,171.4l-0.5,0.3l-0.5-0.7l-0.5-0.7l-0.5-0.7l-0.1-0.2l0.5-0.3l0.1,0.2l0.5,0.7l0.5,0.7
		L574.6,171.4z M572,167.7l-0.5,0.3l-0.5-0.6l-0.5-0.7L570,166l-0.2-0.3l0.5-0.4l0.2,0.3l0.5,0.7l0.5,0.7L572,167.7z M569.1,164.2
		l-0.5,0.4l-0.3-0.3l-0.5-0.6l-0.5-0.6l-0.5-0.6l0.4-0.4l0.5,0.6l0.5,0.6l0.5,0.6L569.1,164.2z M566.1,160.8l-0.4,0.4l-0.5-0.5
		l-0.5-0.6l-0.5-0.5l-0.5-0.5l0.4-0.4l0.5,0.5l0.5,0.6l0.5,0.5L566.1,160.8z M563,157.5l-0.4,0.4l-0.4-0.4l-0.5-0.5l-0.5-0.5
		l-0.5-0.5l-0.1-0.1l0.4-0.4l0.1,0.1l0.5,0.5l0.5,0.5l0.5,0.5L563,157.5z M559.6,154.5l-0.4,0.4l-0.1-0.1l-0.5-0.4L558,154l-0.5-0.4
		l-0.5-0.4l0,0l0.3-0.5l0,0l0.5,0.4l0.5,0.4l0.5,0.4l0.5,0.4L559.6,154.5z M555.9,151.7l-0.3,0.5l-0.1-0.1l-0.5-0.3l-0.5-0.3
		l-0.5-0.3l-0.5-0.3l-0.2-0.1l0.3-0.5l0.2,0.1l0.5,0.3l0.5,0.3l0.5,0.3l0.5,0.3L555.9,151.7z M552.1,149.3l-0.3,0.5l-0.3-0.2
		l-0.5-0.3l-0.5-0.3l-0.5-0.2l-0.5-0.3l-0.2-0.1l0.2-0.5l0.2,0.1l0.5,0.3l0.5,0.3l0.5,0.3l0.5,0.3L552.1,149.3z M547.9,147.3
		l-0.2,0.5l-0.2-0.1l-0.5-0.2l-0.5-0.2l-0.5-0.2l-0.5-0.2l-0.5-0.1h-0.1l0.2-0.5h0.1l0.5,0.1l0.5,0.2l0.5,0.2l0.5,0.2l0.5,0.2
		L547.9,147.3z M543.6,145.9l-0.1,0.5h-0.2l-0.5-0.1l-0.5-0.1l-0.5-0.1l-0.5-0.1l-0.5-0.1l-0.2-0.1l0.1-0.5h0.2l0.5,0.1l0.5,0.1
		l0.5,0.1l0.5,0.1l0.5,0.1L543.6,145.9z M539.1,145.2v0.6h-0.4h-0.5h-0.5h-0.5h-0.5h-0.4h-0.2v-0.6h0.2h0.5h0.5h0.5h0.5h0.5H539.1z
		 M534.5,145.2l0.1,0.6h-0.3l-0.4,0.1l-0.4,0.1l-0.4,0.1l-0.4,0.1l-0.4,0.1l-0.3,0.1l-0.1-0.5l0.3-0.1l0.4-0.1l0.5-0.1l0.4-0.1
		l0.4-0.1h0.5L534.5,145.2z M530,146l0.1,0.6H530l-0.4,0.1l-0.4,0.1l-0.4,0.1l-0.4,0.1l-0.4,0.2l-0.4,0.1l-0.1,0.1l-0.2-0.5l0.1-0.1
		l0.4-0.1l0.4-0.1l0.4-0.2l0.4-0.1l0.4-0.1l0.4-0.1L530,146z M525.7,147.7l0.3,0.5l-0.3,0.1l-0.4,0.2l-0.4,0.2l-0.4,0.2l-0.4,0.2
		l-0.4,0.2l-0.3,0.2l-0.3-0.5l0.3-0.2l0.4-0.2l0.4-0.2l0.4-0.2l0.4-0.2l0.4-0.2L525.7,147.7z M521.8,150l0.3,0.5H522l-0.3,0.3
		l-0.3,0.3l-0.3,0.3l-0.3,0.3l-0.3,0.3l-0.3,0.3l-0.1,0.1l-0.4-0.4l0.1-0.1l0.3-0.3l0.3-0.3l0.4-0.3l0.3-0.3l0.3-0.3L521.8,150
		L521.8,150z M518.2,152.9l0.4,0.4l-0.3,0.2l-0.3,0.3l-0.3,0.3l-0.3,0.3l-0.3,0.3l-0.3,0.3l-0.2,0.2l-0.4-0.4l0.2-0.2l0.3-0.3
		l0.3-0.3l0.3-0.3l0.3-0.3l0.3-0.3L518.2,152.9z M515.1,156.2l0.5,0.3l-0.2,0.2l-0.3,0.3l-0.3,0.4l-0.3,0.3l-0.3,0.4l-0.3,0.4
		l-0.2,0.3l-0.5-0.3l0.2-0.3l0.3-0.4l0.3-0.4l0.3-0.4l0.3-0.3l0.3-0.4L515.1,156.2z M512.3,159.9l0.5,0.3l-0.1,0.2l-0.3,0.4
		l-0.2,0.4l-0.2,0.4l-0.3,0.4l-0.2,0.4l-0.1,0.3l-0.5-0.3l0.1-0.3l0.2-0.4l0.2-0.4l0.3-0.4l0.3-0.4l0.2-0.4L512.3,159.9z M510,163.8
		l0.5,0.3l-0.2,0.3l-0.2,0.4l-0.2,0.4l-0.2,0.4l-0.2,0.4l-0.2,0.4l-0.1,0.1l-0.5-0.2l0.1-0.1l0.2-0.5l0.2-0.4l0.2-0.4l0.2-0.4
		l0.2-0.4L510,163.8z M508.1,167.9l0.5,0.2l0,0l-0.2,0.4l-0.2,0.4l-0.2,0.5l-0.2,0.5l-0.1,0.4l-0.1,0.4l-0.5-0.2l0.1-0.4l0.2-0.5
		l0.1-0.5l0.2-0.5l0.2-0.4L508.1,167.9L508.1,167.9z M506.7,172.3l0.5,0.1l-0.1,0.2l-0.1,0.5l-0.1,0.5l-0.1,0.5l-0.1,0.5l-0.1,0.5
		v0.2L506,175l0.1-0.2l0.1-0.5l0.1-0.5l0.1-0.5l0.1-0.5L506.7,172.3L506.7,172.3z M505.6,176.7l0.5,0.1l-0.1,0.4l-0.1,0.5l-0.1,0.5
		l-0.1,0.5l-0.1,0.5l-0.1,0.5l0,0l-0.6-0.1l0,0l0.1-0.5l0.1-0.5l0.1-0.5l0.1-0.5l0.1-0.5L505.6,176.7z M505,181.2h0.6v0.2v0.5v0.5
		v0.5v0.5v0.5v0.3H505v-0.3v-0.5v-0.5v-0.5v-0.5v-0.5V181.2z M504.8,185.8h0.6v0.4v0.5v0.5v0.5v0.5v0.5l0,0l-0.6,0.1v-0.1v-0.5v-0.5
		v-0.5v-0.5v-0.5V185.8z M505.1,190.3l0.6-0.1v0.2l0.1,0.5l0.1,0.5l0.1,0.5l0.1,0.5l0.1,0.5l0.1,0.3l-0.6,0.1l-0.1-0.3l-0.1-0.5
		l-0.1-0.5l-0.1-0.5l-0.1-0.5l-0.1-0.5V190.3z M505.9,194.8l0.6-0.1l0.1,0.3l0.1,0.5l0.1,0.5l0.1,0.5l0.1,0.5l0.1,0.4l0.1,0.1
		l-0.5,0.2l-0.1-0.1l-0.1-0.5l-0.1-0.5l-0.1-0.5l-0.1-0.5l-0.1-0.5L505.9,194.8z M507.3,199.2l0.5-0.2v0.1l0.2,0.4l0.2,0.4l0.2,0.5
		l0.2,0.4l0.2,0.4l0.2,0.4l-0.5,0.2l-0.2-0.4L508,201l-0.2-0.5l-0.2-0.4l-0.2-0.5L507.3,199.2L507.3,199.2z M509.2,203.3l0.5-0.3
		l0.1,0.2l0.2,0.4l0.2,0.4l0.3,0.4l0.2,0.4l0.3,0.4l0.1,0.2l-0.5,0.3l-0.1-0.2l-0.3-0.4l-0.3-0.4l-0.3-0.4l-0.2-0.4l-0.3-0.4
		L509.2,203.3z M511.6,207.2l0.5-0.3l0.3,0.4l0.3,0.4l0.3,0.4l0.3,0.4l0.3,0.4l0.3,0.3l-0.4,0.4l-0.3-0.3l-0.3-0.4l-0.3-0.4
		l-0.3-0.4l-0.3-0.4L511.6,207.2z M514.5,210.7l0.4-0.4l0.1,0.2l0.3,0.4l0.3,0.4l0.3,0.4l0.3,0.4l0.3,0.4l0.1,0.1l-0.5,0.3l-0.1-0.1
		l-0.3-0.4l-0.3-0.4l-0.3-0.4l-0.3-0.4l-0.3-0.4V210.7z M517.1,214.4l0.5-0.3l0.1,0.2l0.3,0.5l0.3,0.5l0.3,0.5l0.3,0.5l0.1,0.3
		l-0.5,0.3l-0.1-0.3l-0.3-0.5l-0.3-0.5l-0.3-0.5l-0.3-0.5L517.1,214.4z M519.5,218.2l0.5-0.3l0.2,0.3l0.3,0.5l0.3,0.5l0.3,0.5
		l0.3,0.5v0.1l-0.5,0.3v-0.1l-0.3-0.5l-0.3-0.5L520,219l-0.3-0.5L519.5,218.2z M521.7,222.2l0.5-0.3v0.1l0.3,0.6l0.3,0.6l0.3,0.6
		l0.3,0.6l0.1,0.1l-0.5,0.3l-0.1-0.2l-0.3-0.6l-0.3-0.6l-0.3-0.6L521.7,222.2L521.7,222.2z M523.7,226.3l0.5-0.2v0.1l0.3,0.6
		l0.3,0.6l0.3,0.6l0.3,0.6l0.1,0.1l-0.5,0.2l-0.1-0.1l-0.3-0.6l-0.3-0.6L524,227L523.7,226.3L523.7,226.3z M525.4,230.4l0.5-0.2
		l0.1,0.1l0.3,0.6l0.3,0.6l0.3,0.6l0.2,0.6l-0.5,0.2l-0.2-0.6l-0.3-0.6l-0.2-0.6l-0.3-0.6L525.4,230.4z M527.1,234.6l0.5-0.2
		l0.1,0.3l0.2,0.6l0.2,0.6l0.2,0.7l0.2,0.5l-0.5,0.2l-0.2-0.5l-0.2-0.6l-0.2-0.6l-0.3-0.7V234.6z M528.6,238.9l0.5-0.2l0.1,0.4
		l0.2,0.6l0.2,0.7l0.2,0.6l0.1,0.4l-0.5,0.2l-0.1-0.4l-0.2-0.6l-0.2-0.7l-0.2-0.6L528.6,238.9z M529.9,243.2l0.5-0.2l0.1,0.5
		l0.2,0.6l0.2,0.6l0.1,0.6l0.1,0.4l-0.5,0.1l-0.1-0.4l-0.2-0.6l-0.1-0.6l-0.2-0.6L529.9,243.2z M530.9,247.6l0.5-0.1l0.1,0.4
		l0.1,0.6l0.1,0.6l0.1,0.6l0.1,0.6l-0.5,0.1l-0.1-0.5l-0.1-0.6l-0.1-0.6L531,248L530.9,247.6z M531.7,252.1l0.6-0.1v0.1l0.1,0.6
		l0.1,0.6l0.1,0.6l0.1,0.6v0.4l-0.6,0.1v-0.4L532,254l-0.1-0.6l-0.1-0.6l-0.1-0.6V252.1z M532.2,256.5h0.6v0.1v0.5v0.5v0.5v0.5v0.5
		v0.1h-0.6v-0.1v-0.5v-0.5v-0.5v-0.5v-0.5V256.5z M532.1,261.1l0.6,0.1v0.1v0.2v0.3v0.2v0.2v0.2v0.2l-0.1,0.2v0.2l-0.1,0.2v0.2
		l-0.1,0.2l-0.1,0.2l-0.5-0.1v-0.2l0.1-0.2l0.1-0.2v-0.2l0.1-0.2v-0.2v-0.2v-0.2l0.1-0.2v-0.2v-0.2v-0.2L532.1,261.1z M531.1,265.4
		l0.5,0.2l0,0l-0.1,0.2l-0.1,0.2l-0.1,0.2l-0.1,0.2l-0.1,0.2l-0.1,0.2l-0.1,0.2l-0.1,0.2l-0.1,0.2l-0.1,0.2l-0.1,0.2l-0.1,0.2
		l-0.1,0.1l-0.1,0.2l-0.1,0.1l-0.5-0.3l0.1-0.1l0.1-0.2l0.1-0.1l0.1-0.2l0.1-0.1l0.1-0.2l0.1-0.2l0.1-0.2l0.1-0.2l0.1-0.2l0.1-0.2
		l0.1-0.2l0.1-0.2l0.1-0.2L531.1,265.4L531.1,265.4z M528.8,269.1l0.4,0.4l0,0l-0.1,0.1l-0.1,0.1l-0.1,0.1l-0.1,0.1l-0.2,0.1
		l-0.1,0.1l-0.1,0.1l-0.2,0.1l-0.2,0.1l-0.2,0.1l-0.1,0.1l-0.2,0.1l-0.2,0.1L527,271l-0.2,0.1l0,0l-0.2-0.5l0,0l0.2-0.1l0.2-0.1
		l0.1-0.1l0.2-0.1l0.1-0.1l0.2-0.1l0.1-0.1l0.1-0.1l0.1-0.1l0.1-0.1l0.1-0.1l0.1-0.1l0.1-0.1l0.1-0.1L528.8,269.1L528.8,269.1z
		 M525,271.1l0.1,0.5l0.2-0.2v0.1v0.1v0.1l-0.1,0.1l-0.1,0.1v0.1l-0.1,0.1l-0.1,0.1l-0.1,0.1l-0.1,0.1l-0.1,0.1l-0.1,0.1l-0.1,0.1
		l-0.1,0.1l-0.1,0.1l-0.1,0.1l-0.1,0.1l-0.1,0.1l-0.1,0.1l-0.1,0.1l-0.1,0.1l-0.1,0.1l-0.1,0.1l-0.1,0.1l-0.3-0.5l0.1-0.1l0.1-0.1
		l0.1-0.1l0.1-0.1l0.1-0.1l0.1-0.1l0.1-0.1l0.1-0.1l0.1-0.1l0.1-0.1l0.1-0.1l0.1-0.1l0.1-0.1l0.1-0.1l0.1-0.1v-0.1l0.1-0.1l0.1-0.1
		v-0.1l0.1-0.1v-0.1v-0.1V271v-0.1v-0.2L525,271.1L525,271.1z M521.8,274.1l0.2,0.5l-0.1,0.1l-0.3,0.1l-0.3,0.1L521,275l-0.3,0.1
		l-0.3,0.1l-0.4,0.1l-0.4,0.1l-0.3,0.1l-0.1-0.6l0.3-0.1l0.4-0.1l0.3-0.1l0.3-0.1l0.3-0.1l0.3-0.1l0.3-0.1L521.8,274.1L521.8,274.1z
		 M517.5,275.4l0.1,0.6l0,0l-0.4,0.1l-0.4,0.1l-0.4,0.1l-0.4,0.1l-0.5,0.1H515h-0.2l-0.1-0.6h0.2h0.5l0.4-0.1l0.4-0.1l0.4-0.1
		l0.4-0.1L517.5,275.4L517.5,275.4z M513,275.9v0.6h-0.4h-0.5h-0.5h-0.5h-0.5h-0.5v-0.6h0.5h0.5h0.5h0.5h0.5H513z M508.5,275.8
		l-0.1,0.6h-0.3l-0.5-0.1h-0.5l-0.5-0.1l-0.5-0.1l-0.5-0.1l0.1-0.6l0.5,0.1l0.5,0.1l0.5,0.1l0.5,0.1h0.5H508.5z M504,275.2l-0.1,0.5
		l-0.5-0.1l-0.5-0.1l-0.5-0.1l-0.5-0.1l-0.5-0.1l-0.3-0.1l0.2-0.5l0.3,0.1l0.5,0.1l0.5,0.1l0.5,0.1l0.5,0.1L504,275.2z M499.7,274.1
		l-0.2,0.5h-0.1l-0.5-0.2l-0.5-0.2l-0.5-0.2l-0.5-0.2l-0.5-0.2l-0.1-0.1l0.2-0.5l0.1,0.1l0.5,0.2l0.5,0.2l0.5,0.2l0.5,0.2
		L499.7,274.1L499.7,274.1z M495.5,272.5l-0.3,0.5l-0.2-0.1l-0.3-0.1l-0.2-0.1l-0.2-0.1l-0.2-0.1l-0.2-0.1l-0.2-0.1l-0.2-0.1
		l-0.2-0.1l-0.2-0.1l-0.2-0.1l0,0l0.3-0.5h0.1l0.2,0.1l0.2,0.1l0.2,0.1l0.2,0.1l0.2,0.1l0.2,0.1l0.2,0.1l0.2,0.1l0.2,0.1l0.2,0.1
		L495.5,272.5z M491.6,270.2l-0.3,0.5l0,0l-0.2-0.2l-0.2-0.1l-0.2-0.1l-0.2-0.2l-0.2-0.2l-0.2-0.1l-0.2-0.2l-0.2-0.2l-0.2-0.2
		l-0.2-0.2l-0.2-0.2l-0.1-0.1l0.4-0.4l0.1,0.1l0.2,0.1l0.2,0.2l0.2,0.2l0.2,0.2l0.2,0.1l0.2,0.2l0.2,0.1l0.2,0.2l0.2,0.1l0.2,0.2
		L491.6,270.2L491.6,270.2z M488.4,267.2l-0.5,0.4l-0.1-0.1l-0.2-0.2l-0.1-0.2l-0.2-0.2l-0.1-0.2l-0.1-0.2l-0.1-0.2l-0.1-0.2
		l-0.1-0.2l-0.1-0.2l-0.1-0.2l-0.1-0.1l0.5-0.3l0.1,0.2l0.1,0.2l0.1,0.2l0.1,0.2l0.1,0.2l0.1,0.2l0.1,0.2l0.1,0.2l0.2,0.2l0.1,0.2
		l0.1,0.2L488.4,267.2z M486,263.4l-0.5,0.3l-0.1-0.1l-0.1-0.3l-0.1-0.2l-0.1-0.3l-0.1-0.2l-0.1-0.3l-0.1-0.3l-0.1-0.3l-0.1-0.3
		l-0.1-0.3l-0.1-0.3v-0.1l0.5-0.1v0.1l0.1,0.3l0.1,0.3l0.1,0.2l0.1,0.3l0.1,0.2l0.1,0.3l0.1,0.2l0.1,0.2l0.1,0.2l0.1,0.2L486,263.4z
		 M484.7,259.2l-0.6,0.1v-0.1l-0.1-0.3v-0.3v-0.3V258v-0.3v-0.3v-0.3v-0.3v-0.3v-0.2h0.6v0.2v0.3v0.3v0.3v0.3v0.3v0.3v0.3v0.3
		L484.7,259.2L484.7,259.2z M484.5,254.7l-0.6-0.1v-0.2v-0.3v-0.3l0.1-0.3v-0.3l0.1-0.3l0.1-0.3l0.1-0.3l0.1-0.3l0.5,0.1l-0.1,0.3
		l-0.1,0.3v0.3l-0.1,0.3v0.3l-0.1,0.3v0.3v0.3V254.7z M485.2,250.3l-0.5-0.1v-0.1l0.1-0.3l0.1-0.4l0.1-0.3l0.1-0.4l0.2-0.8l0.1-0.5
		l0.5,0.2l-0.1,0.5l-0.2,0.8l-0.1,0.3l-0.1,0.4l-0.1,0.3L485.2,250.3L485.2,250.3z M486.5,245.9l-0.5-0.1l0.1-0.2l0.2-0.7l0.2-0.7
		l0.2-0.7l0.1-0.4l0.6,0.1l-0.1,0.4l-0.2,0.7l-0.2,0.7l-0.2,0.8L486.5,245.9z M487.6,241.5l-0.6-0.1v-0.1l0.1-0.7l0.1-0.7l0.1-0.7
		l0.1-0.7l0,0l0.6,0.1l0,0l-0.1,0.7l-0.1,0.7l-0.1,0.7l-0.2,0.7v0.1H487.6z M488.5,237.1l-0.6-0.1v-0.2l0.1-0.6l0.1-0.6l0.1-0.6
		l0.1-0.6v-0.2l0.6,0.1v0.2l-0.1,0.6l-0.1,0.6l-0.1,0.6l-0.1,0.6V237.1z M489.1,232.6l-0.5-0.1v-0.3l0.1-0.5v-0.5l0.1-0.5v-0.5v-0.4
		h0.6v0.4v0.5l-0.1,0.5v0.5l-0.1,0.5L489.1,232.6z M489.4,228h-0.6v-0.3v-0.5v-0.5v-0.4v-0.5v-0.4v-0.3h0.6v0.3v0.4v0.5v0.5v0.5v0.5
		V228z M489.2,223.5l-0.6,0.1l0,0l-0.1-0.4l-0.1-0.4l-0.1-0.4l-0.1-0.3l-0.1-0.4l-0.1-0.3l-0.1-0.3l-0.1-0.2l0.5-0.2l0.1,0.3
		l0.1,0.3l0.1,0.3l0.1,0.4l0.1,0.3l0.1,0.4l0.1,0.4L489.2,223.5L489.2,223.5z M488.1,219l-0.5,0.2l0,0l-0.1-0.3l-0.1-0.3l-0.1-0.3
		l-0.1-0.3l-0.1-0.3l-0.1-0.3l-0.1-0.3l-0.1-0.2l-0.1-0.3l-0.1-0.1l0.5-0.3l0.1,0.1l0.1,0.3l0.1,0.3l0.1,0.3l0.1,0.3l0.1,0.3
		l0.1,0.3l0.1,0.3l0.1,0.3L488.1,219L488.1,219z M485.9,215l-0.5,0.3v-0.1l-0.2-0.2l-0.2-0.2l-0.1-0.2l-0.2-0.2l-0.2-0.2l-0.2-0.2
		l-0.2-0.2l-0.2-0.2l-0.2-0.2l-0.2-0.1l-0.2-0.2l0.4-0.4l0.2,0.2l0.2,0.2l0.2,0.2l0.2,0.2l0.2,0.2l0.2,0.2l0.2,0.2l0.2,0.2l0.2,0.2
		l0.2,0.2L485.9,215L485.9,215z M482.5,211.8l-0.3,0.5l-0.2-0.1l-0.2-0.1l-0.2-0.1l-0.2-0.1l-0.2-0.1l-0.2-0.1l-0.2-0.1l-0.2-0.1
		l-0.2-0.1L480,211l-0.3-0.1l0.3-0.5l0.3,0.1l0.4,0.2l0.2,0.1l0.2,0.1l0.2,0.1l0.2,0.1l0.2,0.1l0.2,0.1l0.2,0.1l0.2,0.1L482.5,211.8
		z M478.4,209.7l-0.2,0.5l-0.3-0.1l-0.4-0.2l-0.4-0.1l-0.4-0.2l-0.4-0.1l-0.7-0.3l0.2-0.5l0.7,0.3l0.4,0.2l0.4,0.1l0.4,0.2l0.4,0.2
		L478.4,209.7z M474.1,208.2l-0.1,0.5h-0.2l-0.5-0.1l-0.5-0.1l-0.5-0.1l-0.5-0.1l-0.5-0.1l0,0v-0.6l0,0l0.5,0.1l0.5,0.1l0.5,0.1
		l0.5,0.1l0.5,0.1L474.1,208.2z M469.5,207.7v0.6h-0.2h-0.5h-0.5H468h-0.4h-0.5h-0.4v-0.6h0.4h0.5h0.4h0.5h0.5H469.5L469.5,207.7z
		 M465,207.8l0.1,0.6l0,0l-0.4,0.1h-0.4l-0.4,0.1l-0.4,0.1l-0.4,0.1l-0.4,0.1l-0.4,0.1h-0.1l-0.1-0.5h0.1l0.4-0.1l0.4-0.1l0.4-0.1
		l0.4-0.1l0.4-0.1h0.4L465,207.8L465,207.8z M460.5,208.6l0.2,0.5l-0.3,0.1l-0.3,0.1l-0.3,0.1l-0.3,0.1l-0.3,0.1l-0.3,0.1l-0.3,0.1
		l-0.3,0.1l-0.1,0.1l-0.3-0.5l0.1-0.1l0.3-0.1l0.3-0.1l0.3-0.1l0.3-0.1l0.3-0.1l0.3-0.1l0.3-0.1L460.5,208.6z M456.3,210.5l0.3,0.5
		l0,0l-0.3,0.2l-0.3,0.2l-0.3,0.2l-0.2,0.2l-0.2,0.2l-0.2,0.2l-0.2,0.2l-0.2,0.2l-0.2,0.2l-0.1,0.1l-0.4-0.4l0.1-0.1l0.2-0.2
		l0.2-0.2l0.2-0.2l0.2-0.2l0.3-0.2l0.3-0.2l0.2-0.2l0.3-0.2L456.3,210.5L456.3,210.5z M452.8,213.6l0.5,0.3l-0.2,0.2l-0.2,0.2
		l-0.2,0.2l-0.2,0.3l-0.2,0.2l-0.2,0.3l-0.1,0.2l-0.2,0.3l-0.1,0.3l-0.1,0.1l-0.5-0.3l0.1-0.2l0.1-0.3l0.2-0.3l0.2-0.3l0.1-0.3
		l0.2-0.3l0.2-0.2l0.2-0.3l0.2-0.2L452.8,213.6z M450.4,217.5l0.5,0.2l-0.1,0.2l-0.1,0.3l-0.1,0.3l-0.1,0.3l-0.1,0.3l-0.1,0.3
		l-0.1,0.3l-0.1,0.3l-0.1,0.3v0.1l-0.5-0.1v-0.1l0.1-0.3l0.1-0.3l0.1-0.3l0.1-0.3l0.1-0.3l0.1-0.3l0.1-0.3l0.1-0.3L450.4,217.5z
		 M449,221.8l0.5,0.1v0.2l-0.1,0.3l-0.1,0.3l-0.1,0.3l-0.1,0.3l-0.1,0.3l-0.1,0.3l-0.1,0.3v0.3l0,0l-0.6-0.1l0,0l0.1-0.3v-0.3
		l0.1-0.3l0.1-0.3l0.1-0.3l0.1-0.3l0.1-0.3l0.1-0.3L449,221.8z M448.4,226.4h0.6l0,0v0.3v0.4v0.3v0.3v0.4v0.4v0.3v0.3h-0.6v-0.3
		v-0.4V228v-0.3v-0.4V227v-0.4V226.4L448.4,226.4z M448.3,230.9h0.6v0.2v0.4v0.4v0.4v0.4v0.4v0.4v0.5h-0.6v-0.4v-0.4v-0.4v-0.4V232
		v-0.4v-0.4V230.9z M448.6,235.5l0.6-0.1v0.1l0.1,0.8l0.1,0.8l0.1,0.8v0.4l-0.5,0.1l-0.1-0.4l-0.1-0.8l-0.1-0.8l-0.1-0.8V235.5z
		 M449.2,240l0.6-0.1v0.3l0.1,0.8l0.1,0.8l0.1,0.8l0.1,0.2l-0.6,0.1l-0.1-0.2l-0.1-0.8l-0.1-0.8l-0.1-0.8V240z M450,244.5l0.6-0.1
		l0.1,0.4l0.1,0.8l0.2,0.8l0.2,0.8v0.1l-0.6,0.1v-0.1l-0.2-0.8l-0.2-0.8l-0.2-0.8V244.5z M450.9,248.9l0.5-0.1l0.1,0.6l0.2,0.8
		l0.2,0.7l0.2,0.7l-0.5,0.1l-0.2-0.7l-0.2-0.7l-0.2-0.8L450.9,248.9z M452,253.3l0.5-0.2l0.2,0.6l0.2,0.7l0.2,0.7l0.2,0.7l-0.5,0.1
		l-0.2-0.7l-0.2-0.7l-0.2-0.7L452,253.3z M453.3,257.7l0.5-0.2l0.3,1.2l0.4,1.3l0.1,0.2l-0.5,0.2l-0.1-0.2l-0.4-1.3L453.3,257.7z
		 M454.5,262l0.6-0.2l0.2,0.8l0.4,1.2l0.2,0.7l-0.5,0.2l-0.2-0.7l-0.4-1.2L454.5,262z M455.9,266.4l0.5-0.2l0.7,2.1l0.2,0.7
		l-0.5,0.2l-0.2-0.7L455.9,266.4z M457.2,270.7l0.5-0.2l0.1,0.5l0.2,0.8l0.1,0.4l0.1,0.4l0.1,0.3l0.1,0.3v0.1l-0.5,0.1v-0.1
		l-0.1-0.3l-0.1-0.3l-0.1-0.4l-0.1-0.4l-0.2-0.8L457.2,270.7z M458.3,275.1l0.5-0.1l0,0l0.1,0.7l0.1,0.7l0.1,0.7l0.1,0.7v0.1
		l-0.6,0.1v-0.1l-0.1-0.7l-0.1-0.7l-0.1-0.7V275.1L458.3,275.1z M458.9,279.6l0.6-0.1v0.2l0.1,0.7l0.1,0.6v0.7v0.6v0.1h-0.6v-0.1
		l-0.1-0.6v-0.6l-0.1-0.7l-0.1-0.6L458.9,279.6z M459.1,284.1h0.6v0.1v0.6v0.6v0.6v0.6v0.4h-0.6v-0.4V286v-0.6v-0.6V284.1
		L459.1,284.1z M459,288.6h0.6v0.2v0.5l-0.1,0.6l-0.1,0.5l-0.1,0.5l-0.1,0.5l-0.5-0.1l0.1-0.5l0.1-0.5l0.1-0.5l0.1-0.5v-0.5
		L459,288.6z M458.5,293l0.6,0.1l-0.1,0.4l-0.1,0.5l-0.1,0.5l-0.1,0.5l-0.1,0.5l-0.1,0.5l-0.5-0.2l0.1-0.4l0.1-0.5l0.1-0.5l0.1-0.5
		l0.1-0.5V293z M457.4,297.4l0.5,0.2l-0.1,0.2l-0.1,0.5l-0.2,0.4l-0.1,0.4l-0.2,0.4l-0.2,0.4l-0.1,0.3l-0.5-0.2l0.1-0.3l0.2-0.4
		l0.2-0.4l0.1-0.4l0.2-0.4l0.1-0.4L457.4,297.4z M455.7,301.6l0.5,0.3l-0.1,0.2l-0.2,0.4l-0.2,0.4l-0.2,0.4l-0.2,0.4l-0.2,0.4
		l-0.2,0.4l-0.1,0.1l-0.5-0.3l0.1-0.1l0.2-0.3l0.2-0.4l0.2-0.4l0.2-0.4l0.2-0.4l0.2-0.4L455.7,301.6z M453.4,305.4l0.5,0.3l-0.2,0.2
		l-0.3,0.3l-0.3,0.3l-0.3,0.3l-0.3,0.3l-0.3,0.3l-0.3,0.3l-0.1,0.1l-0.4-0.4l0.1-0.1l0.3-0.3l0.3-0.3l0.3-0.3l0.3-0.3l0.3-0.3
		l0.2-0.3L453.4,305.4z M450.4,308.8l0.4,0.4l-0.1,0.1l-0.3,0.3l-0.3,0.3l-0.3,0.3l-0.3,0.3l-0.3,0.3l-0.3,0.3l-0.3,0.2l-0.3-0.5
		l0.2-0.2l0.3-0.3l0.3-0.3l0.3-0.2l0.3-0.3l0.3-0.3L450.4,308.8L450.4,308.8z M446.9,311.6l0.3,0.5l-0.3,0.2l-0.3,0.2l-0.3,0.2
		l-0.3,0.2l-0.3,0.2l-0.3,0.2l-0.4,0.2h-0.1l-0.3-0.5l0.1-0.1l0.3-0.2l0.3-0.2l0.3-0.2l0.3-0.2l0.3-0.2l0.3-0.2L446.9,311.6z
		 M443,313.7l0.2,0.5l-0.2,0.1l-0.4,0.2l-0.4,0.2l-0.4,0.1l-0.4,0.2l-0.4,0.1l-0.4,0.1l-0.3,0.1l-0.2-0.5l0.2-0.1l0.4-0.1l0.4-0.1
		l0.4-0.1l0.3-0.2l0.4-0.1l0.4-0.2L443,313.7z M438.8,315.4l0.2,0.5h-0.1l-0.4,0.1l-0.4,0.1l-0.4,0.1l-0.4,0.1l-0.4,0.1l-0.4,0.1
		l-0.3,0.1l-0.1-0.5l0.3-0.1l0.4-0.1l0.4-0.1l0.4-0.1l0.4-0.1l0.4-0.1L438.8,315.4L438.8,315.4z M434.4,316.5l0.1,0.6l0,0l-0.4,0.1
		l-0.4,0.1l-0.4,0.1l-0.4,0.1l-0.4,0.1l-0.4,0.1h-0.3l-0.1-0.6h0.3l0.4-0.1l0.4-0.1l0.4-0.1l0.4-0.1l0.4-0.1L434.4,316.5
		L434.4,316.5z M430,317.1l0.1,0.6H430l-0.4,0.1h-0.4h-0.4h-0.4H428h-0.4h-0.3v-0.6h0.3h0.4h0.4h0.4h0.4h0.4L430,317.1L430,317.1z
		 M425.5,317.4v0.6h-0.2h-0.4h-0.4H424h-0.4h-0.4h-0.4h-0.1v-0.6h0.1h0.4h0.4h0.4h0.4h0.4h0.4H425.5z M421,317.2l-0.1,0.6h-0.3h-0.4
		h-0.4l-0.4-0.1H419l-0.4-0.1h-0.4l0.1-0.6l0.4,0.1h0.4h0.4l0.4,0.1h0.4h0.4H421z M416.5,316.8l-0.1,0.6l-0.4-0.1l-0.4-0.1l-0.4-0.1
		l-0.4-0.1l-0.4-0.1l-0.4-0.1l-0.3-0.1l0.1-0.6l0.3,0.1l0.4,0.1l0.4,0.1l0.4,0.1l0.4,0.1l0.4,0.1L416.5,316.8z M412,316.1l-0.1,0.6
		h-0.1l-0.4-0.1l-0.4-0.1l-0.4-0.1l-0.4-0.1l-0.4-0.1l-0.4-0.1l-0.3-0.1l0.1-0.6l0.3,0.1l0.4,0.1l0.4,0.1l0.4,0.1l0.4,0.1l0.4,0.1
		L412,316.1L412,316.1z M407.6,315.1l-0.1,0.5l0,0l-0.4-0.1l-0.4-0.1l-0.4-0.1l-0.4-0.1l-0.4-0.1l-0.4-0.1l-0.4-0.1h-0.1l0.2-0.5
		h0.1l0.4,0.1l0.4,0.1l0.4,0.1l0.4,0.1l0.4,0.1l0.4,0.1L407.6,315.1L407.6,315.1z M403.3,313.7l-0.2,0.5l-0.2-0.1l-0.3-0.1l-0.4-0.1
		l-0.4-0.1l-0.3-0.1l-0.4-0.1l-0.3-0.1l-0.3-0.1l0,0l0.2-0.5l0,0l0.3,0.1l0.4,0.1l0.3,0.1l0.3,0.1l0.4,0.1l0.3,0.1l0.4,0.1
		L403.3,313.7z M399.1,312.1l-0.2,0.5h-0.1l-0.3-0.2l-0.3-0.1l-0.3-0.1l-0.3-0.1l-0.3-0.1l-0.3-0.2l-0.3-0.1l-0.3-0.1l0.3-0.5
		l0.3,0.1l0.3,0.1l0.3,0.2l0.3,0.1l0.3,0.1l0.3,0.1l0.3,0.1L399.1,312.1L399.1,312.1z M395,310.1l-0.3,0.5l0,0l-0.3-0.2l-0.3-0.1
		l-0.3-0.2l-0.3-0.2l-0.3-0.1l-0.3-0.2l-0.3-0.2l-0.3-0.2l-0.2-0.2H392l0.3-0.5l0,0l0.2,0.1l0.3,0.2l0.3,0.2l0.3,0.2l0.3,0.1
		l0.3,0.2l0.3,0.1l0.3,0.2L395,310.1L395,310.1z M391.3,307.7l-0.4,0.4l-0.2-0.1l-0.2-0.2l-0.2-0.2l-0.2-0.2l-0.2-0.2l-0.2-0.2
		l-0.2-0.2l-0.2-0.2l-0.2-0.2l-0.2-0.2l-0.2-0.2l0,0l0.4-0.4l0,0l0.2,0.2l0.2,0.1l0.2,0.2l0.2,0.2l0.2,0.2l0.2,0.2l0.2,0.2l0.2,0.2
		l0.2,0.2l0.2,0.2L391.3,307.7z M388.1,304.6l-0.5,0.3l-0.1-0.1l-0.1-0.2l-0.1-0.2L387,304l-0.3-0.4l-0.3-0.4l-0.3-0.4l-0.2-0.3
		l0.5-0.3l0.2,0.3l0.3,0.4l0.3,0.4l0.3,0.4l0.3,0.4l0.1,0.2L388.1,304.6L388.1,304.6z M385.6,300.8l-0.5,0.3l-0.2-0.3l-0.3-0.4
		l-0.3-0.4l-0.3-0.4l-0.3-0.3l-0.3-0.4l-0.1-0.2l0.5-0.3l0.1,0.2l0.3,0.3l0.3,0.4l0.3,0.4l0.3,0.4l0.3,0.4L385.6,300.8z
		 M382.8,297.2l-0.4,0.4l-0.2-0.2l-0.3-0.3l-0.3-0.3l-0.3-0.3l-0.3-0.3l-0.3-0.3l-0.3-0.3l0,0l0.4-0.4l0,0l0.3,0.3l0.3,0.3l0.3,0.3
		l0.3,0.3l0.3,0.3l0.3,0.3L382.8,297.2z M379.8,293.8l-0.4,0.4l-0.2-0.2l-0.3-0.3l-0.3-0.3l-0.3-0.3l-0.3-0.3l-0.3-0.3l-0.3-0.3
		l-0.2-0.2l0.4-0.4l0.2,0.2l0.3,0.3l0.3,0.3l0.3,0.3l0.3,0.3l0.3,0.3l0.3,0.3L379.8,293.8z M376.5,290.6l-0.4,0.4l-0.2-0.2l-0.3-0.2
		l-0.3-0.2l-0.3-0.2l-0.3-0.2l-0.3-0.2l-0.3-0.2l-0.3-0.2l-0.1-0.1l0.3-0.5l0.1,0.1l0.3,0.2l0.3,0.2l0.3,0.2l0.3,0.2l0.3,0.2
		l0.3,0.2l0.3,0.2L376.5,290.6z M372.9,287.8l-0.3,0.5l-0.2-0.1l-0.3-0.2l-0.3-0.2l-0.3-0.2l-0.3-0.2l-0.3-0.1l-0.3-0.2l-0.3-0.2
		l-0.3-0.2l0,0l0.3-0.5l0,0l0.3,0.2l0.3,0.2l0.3,0.2l0.3,0.2l0.3,0.2l0.3,0.2l0.3,0.2l0.3,0.2H372.9z M369,285.5l-0.3,0.5l-0.1-0.1
		l-0.3-0.1l-0.3-0.1l-0.3-0.1l-0.3-0.1l-0.3-0.1l-0.3-0.1l-0.3-0.1l-0.3-0.1l-0.3-0.1l0.2-0.5l0.3,0.1l0.3,0.1l0.3,0.1l0.3,0.1
		l0.3,0.1l0.3,0.1l0.3,0.1l0.3,0.1l0.3,0.1L369,285.5z M364.7,283.7l-0.2,0.5h-0.1l-0.3-0.1L364,284l-0.3-0.1l-0.3-0.1l-0.3-0.1
		l-0.3-0.1l-0.3-0.1l-0.3-0.1l-0.3-0.1h-0.2l0.1-0.6l0.2,0.1l0.3,0.1l0.3,0.1l0.3,0.1l0.3,0.1l0.3,0.1l0.3,0.1l0.3,0.1l0.3,0.1
		L364.7,283.7L364.7,283.7z M360.3,282.6l-0.1,0.5h-0.1l-0.3-0.1h-0.3l-0.3-0.1h-0.3l-0.3-0.1h-0.3H358h-0.3l-0.6-0.1l0.1-0.6
		l0.6,0.1h0.3h0.3l0.3,0.1h0.3h0.3l0.3,0.1l0.3,0.1L360.3,282.6L360.3,282.6z M355.8,282.1v0.6h-0.5h-0.5h-0.5h-0.5h-0.6h-0.1v-0.6
		h0.1h0.5h0.6h0.6h0.5H355.8z M351.2,282.1v0.6h-0.4h-0.5l-0.5,0.1l-0.6,0.1l-0.5,0.1h-0.3l-0.1-0.6h0.3l0.5-0.1l0.6-0.1l0.5-0.1
		h0.6H351.2z M346.7,282.6l0.1,0.6l-0.3,0.1l-0.5,0.1l-0.5,0.1l-0.6,0.1l-0.5,0.1l-0.3,0.1l-0.1-0.6l0.3-0.1l0.6-0.1l0.5-0.1
		l0.6-0.1l0.5-0.1L346.7,282.6z M342.2,283.4l0.1,0.6l-0.2,0.1l-0.5,0.1l-0.6,0.1l-0.5,0.1l-0.6,0.1l-0.3,0.1l-0.1-0.5l0.3-0.1
		l0.5-0.1l0.6-0.1l0.5-0.1l0.6-0.1L342.2,283.4z M337.8,284.5l0.1,0.5l-0.8,0.2l-1.1,0.3l-0.9,0.2l-0.1-0.5l0.9-0.2l1.1-0.3
		L337.8,284.5z M333.4,285.6l0.1,0.5l-0.9,0.2l-1.9,0.5l-0.1-0.6l1.9-0.5L333.4,285.6z M329,286.7l0.1,0.6l-0.9,0.2l-1.1,0.3
		l-0.7,0.2l-0.1-0.5l0.7-0.2l1.1-0.3L329,286.7z M324.6,287.8l0.1,0.6l-0.4,0.1l-0.5,0.1l-0.6,0.1l-0.6,0.1l-0.6,0.1h-0.1l-0.1-0.5
		h0.2l0.5-0.1l0.6-0.1l0.6-0.1l0.5-0.1L324.6,287.8z M320.2,288.7l0.1,0.6l-0.4,0.1l-0.6,0.1l-0.5,0.1l-0.6,0.1l-0.6,0.1h-0.2
		l-0.1-0.6h0.1l0.6-0.1l0.6-0.1l0.5-0.1l0.6-0.1L320.2,288.7z M315.7,289.4l0.1,0.6h-0.1l-0.3,0.1l-0.3,0.1l-0.3,0.1l-0.3,0.1h-0.3
		l-0.3,0.1l-0.3,0.1h-0.3h-0.2L313,290h0.2l0.3-0.1l0.3-0.1h0.3l0.3-0.1l0.3-0.1l0.3-0.1l0.3-0.1H315.7L315.7,289.4z M311.2,290
		l0.1,0.6l0,0H311h-0.3h-0.3h-0.3h-0.3h-0.3h-0.3h-0.3h-0.3h-0.1V290h0.1h0.3h0.3h0.3h0.3h0.3h0.3h0.3h0.3H311.2L311.2,290z
		 M306.7,290l-0.1,0.6l0,0h-0.3H306h-0.3l-0.3-0.1h-0.3l-0.3-0.1h-0.3l-0.3-0.1l-0.3-0.1h-0.2l0.1-0.6h0.2l0.3,0.1l0.3,0.1l0.3,0.1
		h0.3l0.3,0.1h0.3h0.3h0.3H306.7L306.7,290z M302.4,289.2l-0.2,0.5l-0.1-0.1l-0.3-0.1l-0.3-0.1l-0.3-0.1l-0.3-0.1l-0.3-0.1l-0.3-0.1
		l-0.3-0.1l-0.3-0.1l-0.3-0.1l0,0l0.2-0.5l0,0l0.3,0.1l0.3,0.1l0.3,0.1l0.3,0.1l0.3,0.1l0.3,0.1l0.3,0.1l0.3,0.1l0.3,0.1
		L302.4,289.2z M298.2,287.5L298,288h-0.1l-0.3-0.1l-0.3-0.2l-0.3-0.1l-0.3-0.2l-0.3-0.2l-0.3-0.2l-0.3-0.2l-0.3-0.2l-0.2-0.2
		l0.3-0.5l0.2,0.1l0.3,0.2l0.3,0.2l0.3,0.1l0.3,0.2l0.3,0.2l0.3,0.1l0.3,0.1L298.2,287.5L298.2,287.5z M294.5,285.1l-0.3,0.4
		l-0.3-0.2l-0.3-0.2l-0.3-0.2l-0.3-0.2l-0.3-0.2l-0.3-0.3l-0.3-0.2l-0.3-0.3l-0.1-0.1l0.4-0.4l0.1,0.1l0.3,0.2l0.3,0.3l0.3,0.2
		l0.3,0.2l0.3,0.2l0.3,0.2l0.3,0.2L294.5,285.1z M291.2,282l-0.4,0.4l-0.3-0.3l-0.3-0.3l-0.3-0.3l-0.3-0.3l-0.3-0.3l-0.3-0.3
		l-0.3-0.3l-0.1-0.1l0.5-0.4l0.1,0.1l0.3,0.3l0.3,0.3l0.3,0.3l0.3,0.3l0.3,0.3l0.2,0.3L291.2,282z M288.3,278.5l-0.5,0.4l-0.1-0.1
		l-0.3-0.3l-0.3-0.3l-0.3-0.4l-0.3-0.3l-0.3-0.3l-0.2-0.4l-0.1-0.1l0.5-0.3l0.1,0.1l0.3,0.4l0.3,0.4l0.2,0.3l0.3,0.3l0.3,0.3
		l0.2,0.3H288.3z M285.7,274.9l-0.5,0.3l-0.2-0.4l-0.3-0.4l-0.3-0.4l-0.2-0.4l-0.3-0.4l-0.3-0.4v-0.1l0.5-0.3v0.1l0.3,0.4l0.3,0.4
		l0.2,0.4l0.3,0.4l0.3,0.4L285.7,274.9z M283.4,271l-0.5,0.3l-0.1-0.2l-0.2-0.4l-0.3-0.5l-0.3-0.5l-0.2-0.5l-0.3-0.5l0,0l0.5-0.3
		l0,0l0.2,0.5l0.3,0.5l0.2,0.5l0.3,0.5l0.3,0.5L283.4,271z M281.2,267l-0.5,0.3v-0.1l-0.2-0.3l-0.2-0.3l-0.2-0.3l-0.2-0.3l-0.2-0.3
		l-0.2-0.3l-0.2-0.3l-0.2-0.3l-0.1-0.1l0.4-0.4l0.1,0.1l0.2,0.3l0.2,0.3l0.2,0.3l0.2,0.3l0.2,0.3l0.2,0.3l0.2,0.3L281.2,267
		L281.2,267z M278.4,263.3l-0.4,0.4l-0.1-0.1l-0.2-0.2l-0.2-0.2l-0.2-0.2l-0.2-0.2l-0.2-0.2l-0.2-0.1l-0.2-0.2l-0.2-0.1l-0.2-0.1
		L276,262l-0.1-0.1l0.3-0.5l0.1,0.1l0.2,0.1l0.2,0.1l0.2,0.2l0.2,0.1l0.2,0.2l0.2,0.2l0.2,0.2l0.2,0.2l0.2,0.2L278.4,263.3
		L278.4,263.3z M274.7,260.6l-0.3,0.5h-0.1l-0.2-0.1l-0.2-0.1l-0.2-0.1l-0.2-0.1l-0.2-0.1l-0.2-0.1l-0.2-0.1l-0.2-0.1l-0.2-0.1h-0.2
		l-0.2-0.1h-0.2h-0.1l0.1-0.6h0.1l0.2,0.1h0.2l0.2,0.1l0.2,0.1l0.2,0.1l0.2,0.1l0.2,0.1l0.2,0.1l0.2,0.1l0.2,0.1l0.2,0.1
		L274.7,260.6L274.7,260.6z M270.2,259.5v0.6h-0.1h-0.2h-0.2h-0.2h-0.2h-0.2h-0.2h-0.2h-0.2h-0.2h-0.2l-0.2,0.1h-0.2h-0.1l-0.1-0.6
		h0.1l0.2-0.1h0.2l0.2-0.1h0.2h0.2h0.2h0.2h0.2h0.2h0.2h0.2h0.4V259.5z M265.7,260.3l0.2,0.5h-0.1l-0.2,0.1l-0.2,0.1l-0.2,0.1
		l-0.2,0.1l-0.2,0.1l-0.2,0.1l-0.2,0.1l-0.2,0.1l-0.2,0.1l-0.5,0.2l-0.1,0.1l-0.2-0.5l0.1-0.1l0.5-0.2l0.2-0.1l0.2-0.1l0.2-0.1
		l0.2-0.1l0.2-0.1l0.2-0.1l0.2-0.1l0.2-0.1L265.7,260.3L265.7,260.3z M261.5,262.1l0.3,0.5l-0.1,0.1l-0.5,0.3l-0.5,0.2l-0.5,0.3
		l-0.5,0.3l-0.5,0.3l-0.1,0.1l-0.3-0.5h0.1l0.5-0.3l0.5-0.3l0.5-0.2l0.5-0.3l0.5-0.2L261.5,262.1z M257.5,264.3l0.3,0.5l-0.3,0.2
		l-0.5,0.3l-0.5,0.3l-0.9,0.6l-0.3,0.2l-0.3-0.5l0.3-0.2l0.9-0.6l0.5-0.3l0.5-0.3L257.5,264.3z M253.7,266.8l0.3,0.5l-1,0.7
		l-1.4,0.9l-0.3-0.5l1.4-0.9L253.7,266.8z M249.9,269.2l0.3,0.5l-0.8,0.5l-0.4,0.3l-0.5,0.3l-0.4,0.3l-0.3,0.2l-0.3-0.5l0.3-0.2
		l0.5-0.3l0.4-0.3l0.5-0.3L249.9,269.2z M246,271.6l0.3,0.5l-0.4,0.2l-0.4,0.2l-0.4,0.2l-0.4,0.2l-0.4,0.2l-0.4,0.2h-0.1l-0.2-0.5
		h0.1l0.4-0.2l0.4-0.2l0.4-0.2l0.4-0.2l0.4-0.2L246,271.6z M241.9,273.4l0.2,0.5l-0.2,0.1l-0.2,0.1l-0.2,0.1l-0.2,0.1l-0.2,0.1
		l-0.2,0.1l-0.2,0.1h-0.2l-0.2,0.1h-0.2l-0.2,0.1h-0.2h-0.2h-0.2l-0.1-0.6h0.2h0.2h0.2h0.2l0.2-0.1h0.2l0.2-0.1h0.2l0.2-0.1l0.2-0.1
		l0.2-0.1l0.2-0.1l0.2-0.1L241.9,273.4z M237.6,274.1v0.6l0,0h-0.2h-0.2H237h-0.2h-0.2h-0.2l-0.2-0.1H236l-0.2-0.1l-0.2-0.1
		l-0.2-0.1l-0.2-0.1l-0.2-0.1l-0.2-0.1l-0.2-0.1l0,0l0.3-0.5l0,0l0.1,0.1l0.2,0.1l0.2,0.1l0.2,0.1l0.2,0.1l0.2,0.1h0.2l0.2,0.1h0.2
		l0.2,0.1h0.2h0.2h0.2h0.2L237.6,274.1L237.6,274.1z M233.6,272.6l-0.4,0.5l0,0L233,273l-0.2-0.1l-0.1-0.1l-0.2-0.2l-0.2-0.1
		l-0.2-0.2l-0.1-0.2l-0.2-0.2l-0.1-0.2l-0.2-0.2l-0.1-0.2l-0.2-0.2V271l0.5-0.3v0.1l0.2,0.2l0.1,0.2l0.1,0.2l0.1,0.2l0.2,0.2
		l0.1,0.2l0.1,0.1l0.2,0.2l0.1,0.1l0.1,0.1l0.2,0.1H233.6L233.6,272.6z M230.8,269.2l-0.5,0.3v-0.1l-0.1-0.3l-0.1-0.3l-0.1-0.3
		l-0.1-0.3l0,0l-0.5-0.9l-0.3-0.5l0.5-0.3l0.3,0.5l0.5,0.9l0,0l0.1,0.3l0.1,0.3l0.1,0.3L230.8,269.2L230.8,269.2z M228.7,265.2
		l-0.5,0.3l-0.3-0.5l-0.4-0.8l-0.5-0.8l-0.2-0.4l0.5-0.3l0.2,0.4l0.4,0.8l0.5,0.8L228.7,265.2z M226.4,261.2l-0.5,0.3l-0.2-0.3
		l-0.4-0.7l-0.4-0.7l-0.4-0.6v-0.1l0.5-0.3v0.1l0.4,0.7l0.4,0.7l0.4,0.7L226.4,261.2z M224,257.4l-0.5,0.3l0,0l-0.2-0.3l-0.2-0.3
		l-0.2-0.3l-0.2-0.3l-0.2-0.3l-0.2-0.3l-0.2-0.3l-0.2-0.3l-0.1-0.1l0.4-0.3l0.1,0.1l0.2,0.3l0.2,0.3l0.2,0.3l0.2,0.3l0.2,0.3
		l0.2,0.3l0.2,0.3L224,257.4L224,257.4z M221.2,253.7l-0.4,0.4l0,0l-0.2-0.2l-0.2-0.2l-0.2-0.2l-0.2-0.2l-0.2-0.2l-0.2-0.2l-0.2-0.2
		l-0.2-0.2l-0.2-0.2l-0.2-0.2l-0.1-0.1l0.4-0.4l0.1,0.1l0.2,0.2l0.2,0.2l0.2,0.2l0.2,0.2l0.2,0.2l0.2,0.2l0.2,0.2l0.2,0.2l0.2,0.2
		L221.2,253.7L221.2,253.7z M217.9,250.6l-0.4,0.4l0,0l-0.2-0.1l-0.2-0.1l-0.2-0.1l-0.2-0.1l-0.2-0.1l-0.2-0.1l-0.2-0.1l-0.1-0.1
		l-0.2-0.1l-0.2-0.1l-0.2-0.1l-0.1-0.1l-0.2-0.1l-0.1-0.1l0,0l0.3-0.5l0,0l0.2,0.1l0.2,0.1l0.2,0.1l0.2,0.1l0.2,0.1l0.2,0.1l0.2,0.1
		l0.2,0.1l0.2,0.1l0.2,0.1l0.2,0.1l0.2,0.1l0.2,0.1L217.9,250.6L217.9,250.6z M213.8,248.4l-0.1,0.5h-0.1h-0.2h-0.1h-0.1h-0.1H213
		h-0.1h-0.1h-0.1h-0.1h-0.1h-0.1h-0.1h-0.1h-0.1H212h-0.1h-0.1H211h-0.1l-0.1-0.6h0.1h0.2h0.1h0.1h0.1h0.1h0.1h0.2h0.1h0.1h0.2h0.1
		h0.1h0.2h0.1h0.2h0.1h0.2l0.1,0.1H213.8z M209.2,248.7l0.2,0.5l0,0l-0.1,0.1l-0.1,0.1l-0.1,0.1l-0.1,0.1l-0.1,0.1l-0.1,0.1
		l-0.1,0.1l-0.1,0.1l-0.1,0.1l-0.1,0.1l-0.1,0.1l-0.2,0.2l-0.2,0.2l-0.2,0.2l-0.2,0.2l-0.1,0.1l-0.4-0.4l0.1-0.1l0.2-0.2l0.2-0.2
		l0.2-0.2l0.3-0.2l0.1-0.1l0.1-0.1l0.1-0.1l0.1-0.1l0.1-0.1l0.1-0.1l0.1-0.1l0.1-0.1l0.1-0.1l0.1-0.1L209.2,248.7L209.2,248.7z
		 M205.5,251.5l0.4,0.4l0,0l-0.2,0.3l-0.2,0.2l-0.2,0.3l-0.2,0.3l-0.2,0.3l-0.2,0.3l-0.2,0.3l-0.2,0.3l-0.1,0.2l-0.5-0.3l0.1-0.2
		l0.2-0.3l0.2-0.3l0.2-0.3l0.2-0.3l0.2-0.3l0.2-0.3l0.2-0.3L205.5,251.5L205.5,251.5z M203,255.3l0.5,0.3v0.1l-0.2,0.3l-0.1,0.3
		l-0.2,0.3l-0.1,0.3l-0.1,0.3l-0.1,0.3l-0.1,0.3l-0.1,0.3l0,0l-0.5-0.2l0,0l0.1-0.3l0.1-0.3l0.1-0.3l0.1-0.3l0.1-0.3l0.2-0.3
		l0.1-0.3L203,255.3L203,255.3z M201.1,259.5l0.5,0.2l-0.1,0.3l-0.1,0.3l-0.1,0.3l-0.2,0.6l-0.2,0.6l-0.2,0.5l-0.5-0.2l0.2-0.5
		l0.2-0.6l0.2-0.6l0.1-0.3l0.1-0.3L201.1,259.5z M199.7,263.8l0.5,0.2l-0.1,0.2l-0.1,0.5l-0.1,0.5l-0.1,0.5l-0.1,0.5l-0.1,0.5v0.1
		l-0.6-0.1v-0.1l0.1-0.5l0.1-0.5l0.1-0.5l0.1-0.5l0.1-0.5L199.7,263.8z M198.6,268.2l0.5,0.1v0.2l-0.2,0.7l-0.2,0.7l-0.2,0.7
		l-0.1,0.5l-0.6-0.1l0.1-0.5l0.2-0.7l0.2-0.7l0.1-0.7L198.6,268.2z M197.5,272.6l0.5,0.2l-0.1,0.5l-0.2,0.7l-0.2,0.7l-0.2,0.6
		l-0.1,0.2l-0.5-0.2l0.1-0.2l0.2-0.6l0.2-0.7l0.2-0.7L197.5,272.6z M196.2,276.9l0.5,0.2v0.1l-0.2,0.6l-0.2,0.6l-0.2,0.6l-0.2,0.6
		l-0.1,0.2l-0.5-0.2l0.1-0.2l0.2-0.6l0.2-0.6l0.2-0.6L196.2,276.9L196.2,276.9z M194.6,281.1l0.5,0.2l-0.2,0.5l-0.2,0.6l-0.3,0.5
		l-0.2,0.5L194,284l-0.5-0.3l0.2-0.5l0.3-0.5l0.2-0.5l0.3-0.6L194.6,281.1z M192.7,285.3l0.5,0.3l-0.1,0.1l-0.3,0.5l-0.3,0.5
		l-0.3,0.5l-0.3,0.5l-0.3,0.4l-0.5-0.3l0.2-0.4l0.3-0.5l0.3-0.5l0.3-0.5L192.7,285.3L192.7,285.3z M190.6,289.2l0.5,0.3l-0.3,0.5
		l-0.3,0.4l-0.3,0.5l-0.3,0.4l-0.3,0.5l-0.1,0.2l-0.5-0.3l0.1-0.2l0.3-0.4l0.3-0.4l0.3-0.4l0.3-0.5L190.6,289.2z M188,292.9l0.5,0.3
		l-0.1,0.1l-0.3,0.4l-0.3,0.4l-0.3,0.4l-0.3,0.4l-0.3,0.4l-0.1,0.2l-0.5-0.4l0.2-0.2l0.3-0.4l0.3-0.4l0.3-0.4l0.3-0.4L188,292.9
		L188,292.9z M185.1,296.3l0.4,0.4l-0.3,0.3l-0.3,0.3l-0.3,0.3l-0.3,0.3l-0.3,0.3l-0.3,0.3l-0.1,0.1l-0.4-0.4l0.1-0.1l0.3-0.3
		l0.3-0.3l0.3-0.3l0.3-0.3l0.3-0.3L185.1,296.3z M181.8,299.4l0.3,0.4l-0.3,0.3l-0.3,0.3l-0.3,0.3l-0.4,0.3l-0.3,0.3l-0.4,0.3
		l-0.2,0.1l-0.3-0.5l0.2-0.1l0.3-0.3l0.3-0.3l0.3-0.3l0.4-0.3l0.3-0.3L181.8,299.4z M178.2,302.1l0.3,0.5l-0.2,0.1l-0.4,0.2
		l-0.4,0.2l-0.4,0.2l-0.4,0.2l-0.4,0.2l-0.4,0.2h-0.1l-0.3-0.5l0.1-0.1l0.4-0.2l0.4-0.2l0.3-0.2l0.4-0.2l0.4-0.2l0.3-0.2H178.2z
		 M174.2,304.2l0.2,0.5l-0.2,0.1l-0.4,0.2l-0.4,0.1l-0.4,0.2l-0.4,0.1l-0.4,0.1l-0.4,0.1l-0.2,0.1l-0.2-0.5l0.1-0.1l0.4-0.1l0.4-0.1
		l0.4-0.1l0.4-0.1l0.4-0.1l0.4-0.2L174.2,304.2z M170,305.7l0.2,0.5h-0.1l-0.4,0.1l-0.4,0.1l-0.4,0.1l-0.4,0.1l-0.4,0.1l-0.4,0.1
		l-0.3,0.1l-0.1-0.6l0.3-0.1l0.4-0.1l0.4-0.1l0.4-0.1l0.4-0.1l0.4-0.1l0.4-0.1L170,305.7z M165.6,306.7l0.1,0.6l-0.3,0.1l-0.4,0.1
		h-0.4l-0.4,0.1h-0.4h-0.4l-0.4,0.1h-0.2v-0.6h0.2h0.4l0.4-0.1h0.4h0.4l0.4-0.1l0.4-0.1L165.6,306.7z M161.1,307v0.6H161h-0.4h-0.4
		h-0.4h-0.4H159h-0.4h-0.4h-0.1V307h0.1h0.4h0.4h0.4h0.4h0.4h0.4H161.1L161.1,307z M156.6,306.9l-0.1,0.5h-0.2l-0.4-0.1h-0.4
		l-0.4-0.1l-0.4-0.1l-0.4-0.1l-0.4-0.1l-0.4-0.1l0.1-0.5l0.4,0.1l0.4,0.1l0.4,0.1l0.4,0.1l0.4,0.1l0.4,0.1h0.4H156.6z M152.2,306.1
		l-0.1,0.6l-0.2-0.1l-0.4-0.1l-0.4-0.1l-0.4-0.1l-0.4-0.1l-0.4-0.1l-0.4-0.1l-0.3-0.1l0.2-0.6l0.3,0.1l0.4,0.1l0.4,0.1l0.4,0.1
		l0.4,0.1l0.4,0.1l0.4,0.1L152.2,306.1z M147.8,304.9l-0.2,0.5l-0.2-0.1l-0.4-0.1l-0.4-0.1l-0.3-0.1l-0.4-0.1l-0.3-0.1l-0.3-0.1
		l-0.3-0.1l0.2-0.5l0.3,0.1l0.3,0.1l0.4,0.1l0.3,0.1l0.3,0.1l0.4,0.1l0.3,0.1L147.8,304.9z M143.7,303.2l-0.3,0.5l-0.2-0.1l-0.3-0.1
		l-0.3-0.2l-0.3-0.2l-0.3-0.2l-0.3-0.2l-0.3-0.2l-0.3-0.2l0,0l0.3-0.5l0,0l0.3,0.2l0.3,0.2l0.3,0.2l0.3,0.2l0.3,0.2l0.3,0.2l0.3,0.1
		L143.7,303.2z M139.7,301.1l-0.3,0.5l-0.1-0.1l-0.3-0.2l-0.3-0.2l-0.3-0.2l-0.3-0.2l-0.3-0.2l-0.3-0.2l-0.3-0.2L137,300l0.3-0.5
		l0.2,0.1l0.3,0.2l0.3,0.2l0.3,0.2l0.3,0.2l0.3,0.2l0.3,0.2L139.7,301.1L139.7,301.1z M136,298.6l-0.3,0.5l-0.2-0.2l-0.3-0.2
		l-0.3-0.2l-0.3-0.2l-0.3-0.2l-0.3-0.2l-0.3-0.2l-0.3-0.2l-0.1-0.1l0.4-0.4l0.1,0.1l0.3,0.2l0.3,0.2l0.3,0.2l0.3,0.2l0.3,0.2
		l0.3,0.2l0.3,0.2L136,298.6z M132.6,295.7l-0.4,0.4l-0.2-0.2l-0.2-0.2l-0.3-0.3l-0.2-0.3l-0.2-0.2l-0.2-0.3l-0.2-0.3l-0.2-0.3
		l-0.2-0.2l0.4-0.4l0.2,0.2l0.2,0.3l0.2,0.2l0.2,0.3l0.2,0.3l0.3,0.2l0.2,0.3l0.2,0.2L132.6,295.7z M129.6,292.3l-0.5,0.3l0,0
		l-0.2-0.3l-0.2-0.3l-0.2-0.3l-0.2-0.3l-0.2-0.3L128,291l-0.2-0.3l-0.2-0.3l-0.1-0.2l0.5-0.3l0.1,0.2l0.2,0.3l0.2,0.3l0.2,0.3
		l0.2,0.3l0.2,0.3l0.2,0.3l0.2,0.3L129.6,292.3L129.6,292.3z M127.2,288.5l-0.5,0.3l-0.1-0.2l-0.1-0.3l-0.1-0.3l-0.1-0.3l-0.1-0.3
		l-0.1-0.3l-0.1-0.3l-0.1-0.3l-0.1-0.3l-0.1-0.2l0.5-0.2l0.1,0.1l0.1,0.3l0.1,0.3l0.1,0.3l0.1,0.3l0.1,0.3l0.1,0.3l0.1,0.3l0.1,0.3
		L127.2,288.5z M125.5,284.4l-0.5,0.1l-0.1-0.2l-0.1-0.3l-0.1-0.3l-0.1-0.3l-0.1-0.3l-0.1-0.3l-0.1-0.7l-0.1-0.5l0.6-0.1l0.1,0.4
		l0.1,0.7l0.1,0.3l0.1,0.3l0.1,0.3l0.1,0.3l0.1,0.3V284.4z M124.8,279.9l-0.6,0.1l0,0l-0.1-0.7l-0.1-0.7l-0.1-0.7l-0.1-0.7v-0.1
		l0.6-0.1v0.1l0.1,0.7l0.1,0.7l0.1,0.7L124.8,279.9L124.8,279.9z M124.4,275.5h-0.6v-0.2v-0.7V274v-0.6v-0.6v-0.2h0.6v0.2v0.6v0.6
		v0.6v0.6V275.5z M124.4,270.9l-0.6-0.1v-0.5l0.1-0.6v-0.6l0.1-0.5l0.1-0.6v-0.1l0.6,0.1v0.1l-0.1,0.5l-0.1,0.5v0.5l-0.1,0.6V270.9z
		 M124.9,266.5l-0.6-0.1l0.1-0.3l0.1-0.5l0.1-0.5l0.1-0.5l0.1-0.5l0.1-0.5v-0.1l0.5,0.1v0.1l-0.1,0.5l-0.1,0.5l-0.1,0.5l-0.1,0.5
		l-0.1,0.5V266.5z M126,262.1l-0.5-0.2l0.1-0.1l0.1-0.5l0.1-0.4l0.2-0.5l0.2-0.4l0.2-0.4l0.2-0.4l0.5,0.2l-0.2,0.4l-0.2,0.4
		l-0.1,0.4l-0.2,0.4l-0.1,0.4L126,262V262.1z M127.7,258l-0.5-0.3v-0.1l0.2-0.4l0.2-0.4l0.2-0.4l0.2-0.4l0.2-0.3l0.2-0.4l0.1-0.2
		l0.5,0.3l-0.1,0.2l-0.2,0.4l-0.2,0.3l-0.2,0.4l-0.2,0.4l-0.2,0.4L127.7,258L127.7,258z M130,254.1l-0.5-0.3l0.1-0.1l0.2-0.3
		l0.3-0.3l0.2-0.3l0.2-0.3l0.3-0.3l0.2-0.3l0.3-0.3l0.4,0.4l-0.2,0.3l-0.2,0.3l-0.3,0.3l-0.2,0.3l-0.2,0.3l-0.2,0.3L130,254.1
		L130,254.1z M132.8,250.5l-0.4-0.4l0.1-0.2l0.3-0.3l0.3-0.3l0.3-0.3l0.5-0.6l0.5-0.5l0.4,0.4l-0.5,0.5l-0.5,0.5l-0.3,0.3l-0.3,0.3
		l-0.3,0.3L132.8,250.5z M135.8,247.2l-0.4-0.4l1.9-1.8l0.1-0.1l0.4,0.4l-0.1,0.1L135.8,247.2z M139.1,244.1l-0.4-0.4l0.6-0.6
		l0.5-0.5l0.5-0.5l0.2-0.2l0.2-0.2l0,0l0.4,0.4l0,0l-0.2,0.3l-0.2,0.2l-0.5,0.5l-0.5,0.5L139.1,244.1z M142.2,240.8l-0.5-0.4
		l0.1-0.1l0.2-0.3l0.2-0.2l0.2-0.2l0.2-0.3l0.2-0.2l0.2-0.3l0.2-0.2l0.2-0.3l0.1-0.2l0.5,0.3l-0.1,0.2l-0.2,0.3l-0.2,0.3l-0.2,0.3
		l-0.2,0.2l-0.2,0.3l-0.2,0.3l-0.2,0.2l-0.2,0.3L142.2,240.8z M144.8,237l-0.5-0.3l0.1-0.1l0.1-0.3l0.1-0.3l0.1-0.3l0.1-0.3l0.1-0.3
		l0.2-0.5l0.2-0.5l0.1-0.3l0.5,0.2l-0.1,0.3l-0.1,0.5l-0.2,0.5l-0.1,0.3l-0.1,0.3l-0.1,0.3l-0.1,0.3l-0.1,0.3L144.8,237z
		 M146.4,232.7l-0.5-0.2l0.1-0.3l0.1-0.4l0.1-0.4l0.1-0.4l0.1-0.4l0.1-0.4l0.1-0.4l0.6,0.1l-0.1,0.4l-0.1,0.4l-0.1,0.4l-0.1,0.4
		l-0.1,0.4l-0.1,0.4L146.4,232.7z M147.5,228.3l-0.6-0.1l0.1-0.2l0.1-0.4l0.1-0.3l0.1-0.3l0.1-0.3v-0.3l0.1-0.3v-0.3v-0.2l0.5,0.1
		v0.2l-0.1,0.3v0.3l-0.1,0.3v0.3l-0.1,0.4l-0.1,0.3l-0.1,0.4V228.3z M148,223.7h-0.6v-0.2v-0.3V223v-0.3v-0.3v-0.3v-0.3v-0.2v-0.3
		v-0.2l-0.1-0.2v-0.1l0.5-0.1v0.1l0.1,0.3v0.2v0.3v0.3v0.3v0.3v0.3v0.3v0.3v0.3v0H148z M147.2,219.1l-0.5,0.2l-0.1-0.2l-0.1-0.2
		l-0.1-0.2l-0.1-0.2l-0.1-0.2l-0.1-0.1L146,218l0,0l-0.1-0.1l-0.1-0.2l-0.1-0.1l-0.1-0.1l-0.1-0.1l-0.1-0.1l0,0l0.4-0.4l0.1,0.1
		l0.1,0.1l0.1,0.1l0.1,0.2l0.1,0.1l0.1,0.2l0.1,0.2l0.1,0.2l0.1,0.2l0.1,0.2l0.1,0.2l0.1,0.2L147.2,219.1l0,0.2L147.2,219.1z
		 M144.3,215.5L144,216l-0.1-0.1l-0.1-0.1l-0.2-0.1l-0.1-0.1l-0.2-0.1l-0.2-0.1l-0.2-0.1l-0.2-0.1l-0.2-0.1l-0.2-0.1l-0.2-0.1
		l-0.2-0.1l-0.2-0.1l-0.2-0.1h-0.1l0.2-0.5l0.1,0.1l0.2,0.1l0.2,0.1l0.2,0.1l0.2,0.1l0.2,0.1l0.2,0.1l0.2,0.1l0.2,0.1l0.2,0.1
		l0.2,0.1l0.2,0.1l0.2,0.1L144.3,215.5L144.3,215.5z M140.1,213.8l-0.1,0.5h-0.1l-0.2-0.1h-0.2l-0.2-0.1h-0.2l-0.4-0.1l-0.5-0.1
		l-0.5-0.1l-0.5-0.1l0,0l0.1-0.6l0,0h0.5l0.5,0.1l0.5,0.1l0.5,0.1h0.2l0.2,0.1h0.2L140.1,213.8L140.1,213.8z M135.5,213.2v0.6h-0.2
		h-0.5h-0.5h-0.5h-0.5h-0.5h-0.1v-0.6h0.1h0.5h0.5h0.5h0.5h0.5H135.5z M131,213.2v0.6h-0.3h-0.5h-1.1h-0.9v-0.6h0.9h1h0.5H131z
		 M126.5,213.3v0.6h-0.6h-1h-1.1h-0.1v-0.6h0.1h1h1.1H126.5z M121.9,213.4v0.6h-0.3h-0.5h-0.5h-0.5h-0.5h-0.5l0,0v-0.6l0,0h0.5h0.5
		h0.5h0.5h0.5H121.9z M117.4,213.3l-0.1,0.6h-0.2l-0.5-0.1l-0.5-0.1l-0.5-0.1h-0.2h-0.2l-0.2-0.1l-0.2-0.1h-0.2h-0.1l0.1-0.5h0.1
		l0.2,0.1h0.2l0.2,0.1h0.2l0.2,0.1l0.5,0.1l0.5,0.1l0.5,0.1L117.4,213.3z M113.1,212.4l-0.2,0.5l-0.2-0.1l-0.2-0.1l-0.2-0.1
		l-0.2-0.1l-0.2-0.1l-0.2-0.1l-0.2-0.1l-0.2-0.1l-0.2-0.1l-0.2-0.1l-0.2-0.1l-0.2-0.1l-0.2-0.1l-0.2-0.1l0,0l0.3-0.5l0,0l0.2,0.1
		l0.2,0.1l0.2,0.1l0.2,0.1l0.2,0.1l0.2,0.1l0.2,0.1l0.2,0.1l0.2,0.1l0.2,0.1l0.2,0.1l0.2,0.1l0.2,0.1L113.1,212.4z M109.3,210.2
		l-0.4,0.4l0,0l-0.1-0.2l-0.1-0.1l-0.1-0.1l-0.1-0.2l-0.1-0.2l-0.1-0.1l-0.1-0.2l-0.1-0.2l-0.1-0.2l-0.1-0.2l-0.1-0.2l-0.1-0.2
		l-0.1-0.2l-0.1-0.2l0.5-0.2l0.1,0.1l0.1,0.2l0.1,0.2l0.1,0.2l0.1,0.2l0.1,0.2l0.1,0.1l0.1,0.2l0.1,0.1l0.1,0.2l0.1,0.1l0.1,0.1
		l0.1,0.1V210.2L109.3,210.2z M107.2,206.4l-0.5,0.1v-0.1l-0.1-0.3l-0.1-0.2l-0.1-0.3v-0.3l-0.1-0.3v-0.3l-0.1-0.6l-0.1-0.6l0.6-0.1
		l0.1,0.6l0.1,0.6v0.3l0.1,0.3v0.2l0.1,0.3v0.2l0.1,0.2V206.4z M106.4,201.9l-0.5,0.1v-0.1l-0.1-0.6l-0.1-0.6l-0.1-0.6l-0.1-0.6
		l-0.1-0.4l0.5-0.1l0.1,0.4l0.1,0.5l0.1,0.6l0.1,0.6l0.1,0.6V201.9z M105.6,197.5l-0.5,0.1v-0.1L105,197l-0.1-0.5l-0.1-0.5l-0.1-0.5
		l-0.1-0.5v-0.1l0.5-0.2v0.1l0.1,0.5l0.1,0.5l0.1,0.5l0.1,0.5l0.1,0.5V197.5z M104.4,193.1l-0.5,0.2l-0.1-0.2l-0.1-0.5l-0.2-0.5
		l-0.2-0.4l-0.1-0.4l-0.2-0.4l-0.1-0.3l0.5-0.2l0.1,0.3l0.1,0.5l0.2,0.4l0.2,0.5l0.1,0.4L104.4,193.1L104.4,193.1z M102.7,188.8
		l-0.5,0.3l-0.1-0.2l-0.2-0.4l-0.2-0.4l-0.2-0.4l-0.2-0.4l-0.2-0.3l-0.2-0.4l-0.1-0.1l0.5-0.3l0.1,0.1l0.2,0.3l0.2,0.4l0.2,0.4
		l0.2,0.4l0.2,0.4l0.2,0.4L102.7,188.8z M100.5,184.8l-0.5,0.3l-0.1-0.1l-0.2-0.3l-0.2-0.3l-0.2-0.3l-0.2-0.3l-0.2-0.3l-0.2-0.3
		l-0.2-0.3l-0.1-0.1l0.4-0.4l0.1,0.1l0.2,0.3l0.2,0.3l0.2,0.3l0.2,0.3l0.2,0.3l0.2,0.3L100.5,184.8L100.5,184.8z M97.6,181.3
		l-0.4,0.4l-0.2-0.2l-0.2-0.2l-0.3-0.2l-0.2-0.2l-0.3-0.2l-0.2-0.2l-0.3-0.2l-0.3-0.2l-0.2-0.2l0.3-0.5l0.3,0.2l0.3,0.2l0.3,0.2
		l0.3,0.2l0.2,0.2l0.3,0.2l0.3,0.2l0.2,0.3L97.6,181.3z M94.1,178.3l-0.3,0.5l-0.2-0.1l-0.3-0.1l-0.3-0.2l-0.3-0.1l-0.3-0.1
		l-0.3-0.1l-0.3-0.1l-0.3-0.1l-0.3-0.1l-0.1-0.1l0.2-0.5l0.1,0.1l0.3,0.1l0.3,0.1l0.3,0.1l0.3,0.1l0.3,0.1l0.3,0.2l0.3,0.2l0.3,0.1
		L94.1,178.3z M90,176.3l-0.2,0.5l-0.3-0.1l-0.3-0.1l-0.3-0.1l-0.3-0.1l-0.3-0.1l-0.3-0.1l-0.3-0.1l-0.3-0.1l-0.3-0.1H87l0.1-0.6
		h0.2l0.3,0.1l0.3,0.1l0.3,0.1l0.3,0.1l0.3,0.1l0.3,0.1l0.3,0.1l0.3,0.1L90,176.3z M85.5,175.3l-0.1,0.6h-0.2h-0.3h-0.3h-0.3H84
		h-0.3h-0.3h-0.3h-0.3h-0.2v-0.6h0.2h0.3h0.3h0.3H84h0.3h0.3h0.3h0.3H85.5z M80.9,175.1v0.6h-0.3h-0.3H80h-0.3h-0.3h-0.3h-0.3h-0.3
		l-0.3,0.1h-0.1l-0.1-0.6h0.1h0.3l0.3-0.1H79h0.3h0.3h0.3h0.3h0.3H80.9z M76.4,175.6l0.1,0.6l0,0l-0.3,0.1l-0.3,0.1l-0.3,0.1
		l-0.6,0.1l-0.6,0.1l-0.6,0.1l-0.1-0.5l0.6-0.1l0.6-0.1l0.6-0.1l0.3-0.1l0.3-0.1L76.4,175.6L76.4,175.6z M71.9,176.6l0.1,0.5
		l-0.2,0.1l-0.6,0.2l-0.6,0.2l-0.6,0.2l-0.6,0.2h-0.1l-0.2-0.5h0.1l0.6-0.2l0.6-0.2l0.6-0.2l0.6-0.2L71.9,176.6z M67.6,178l0.2,0.5
		h-0.1l-0.6,0.2l-0.6,0.2l-0.6,0.2l-0.6,0.2l-0.3,0.1l-0.2-0.5l0.3-0.1l0.6-0.2l0.6-0.2l0.6-0.2L67.6,178L67.6,178z M63.4,179.7
		l0.2,0.5l-0.3,0.1l-0.5,0.2l-0.5,0.3l-0.5,0.2l-0.5,0.2l-0.1,0.1l-0.3-0.5l0.2-0.1l0.5-0.2l0.5-0.3l0.5-0.2l0.5-0.2L63.4,179.7z
		 M59.2,181.6l0.3,0.5l-0.3,0.1l-0.5,0.3l-0.9,0.5l-0.8,0.4l-0.3-0.5l0.8-0.4l0.9-0.5l0.5-0.3L59.2,181.6z M55.2,183.7l0.3,0.5
		l-0.3,0.2l-1.5,0.8l-0.7,0.4l-0.3-0.5l0.7-0.3l1.5-0.8L55.2,183.7z"/>
	<mask id="trail_4_mask">
		<path class="st0 to-animate" d="M48.8,187.6c5.6-4.1,10.8-6.5,14.6-7.9c5.6-2.1,10.1-2.9,12.2-3.2c5.2-0.8,8.7-1.3,13-0.1
			c1.7,0.5,6.5,1.8,10.3,6.1c2.7,3.1,3.6,6.2,5,10.8c1.4,4.7,1.1,6.6,3.1,12.1c1.2,3.3,1.8,4.9,3.1,6.1c1.1,1,3,2.1,11.5,1.9
			c7.3-0.1,9.8-1,15.7-0.3c4.4,0.6,5.9,1.4,7,2.4c2.7,2.5,3,6.2,3.1,8.2c0.5,8.3-4.4,14.9-6.9,18.2c-4.8,6.4-7,5.7-11,11.9
			c-3.3,5.1-4.6,9.9-5.2,12.6c-0.7,3.4-2,9.9,0.5,17.6c0.4,1.1,1.9,5.3,5.5,9.8c4.1,5,8.6,7.5,11.4,8.9c3.8,2,11.2,5.9,21.3,5
			c1.8-0.2,10.8-1.1,19.1-7.9c6.7-5.5,9.6-12,11.4-16.1c4.1-9.2,5.5-17,5.5-17c0.6-3.4,1.1-7.5,4-11.4c1.8-2.3,3.8-3.8,4.7-4.4
			c2-1.3,3.9-2.6,6.1-2.5c3.6,0.1,6.1,3.4,8.5,6.6c1.6,2.1,1.6,2.6,5.6,10c3.3,6.1,4.4,7.8,6.7,8.9c2.4,1.2,4.8,0.9,5.7,0.8
			c3.3-0.4,4.8-2,9.6-5.5c2.4-1.7,6.6-4.6,11.6-7.1c5.3-2.7,7.3-2.8,8.7-2.7c3.8,0.2,6.5,2.4,7.5,3.2c3.9,3.2,3.4,5.9,7.5,12.6
			c1.7,2.8,3.7,6,7.2,9c1.4,1.2,6,4.9,12.7,6.3c2.5,0.5,6.1,0.9,18.1-1.8c13.1-3,13.5-4.5,21.7-5.7c6.2-0.9,12.2-1.7,19.2,0.5
			c7.6,2.4,12.5,7.1,14.3,8.9c6.4,6.3,5.2,9.5,11.3,14.6c4.1,3.4,7.9,4.7,13.6,6.7c10.3,3.6,18.9,3.7,21.1,3.7c8,0,14.1,0,20.5-3.9
			c8-4.8,11.1-12.5,12.1-15c2.6-6.5,2.3-12,1.9-18.1c-0.2-2.9-0.6-6.4-6-26c-2.1-7.5-3.8-13.5-4.6-22c-0.4-4.8-0.5-9,1.6-13.4
			c2.2-4.7,5.6-7.2,6.4-7.8c7.3-5.2,15.6-3.5,17.5-3.1c2.3,0.5,6.8,1.4,10.5,5.2c4.4,4.5,4.9,10.4,5.1,13.5
			c0.6,8.7-3.2,10.5-4.4,22.3c-0.6,6.1-1,9.9,1,14.3c3.3,7.1,10.4,9.9,13.5,11.2c2.6,1,9.6,3.8,18.1,1.4c2.5-0.7,9.9-2.8,13.5-9.4
			c0.7-1.3,2.7-5.4,0.6-17.5c-2.3-13.3-7.2-22.8-8.2-24.6c-7.5-14.2-11.7-13-15.7-24c-1.6-4.3-4-13.1-2.2-23.8
			c0.6-3.7,2.1-11.4,8.1-18.9c2.2-2.8,6.4-7.8,13.8-10.4c6.9-2.5,12.9-1.5,15.3-1.1c7.4,1.3,12.3,4.8,16,7.6
			c2.6,1.9,6.4,5.1,16.8,19.1c6.8,9.1,6.6,9.7,9.5,13.3c4.1,5.1,17.1,21.5,37.8,23.8c3.9,0.4,16.4,1.7,27.8-6.1
			c9-6.1,12.7-14.7,15-20.1c5-11.7,4.5-22,4.3-26.4c-0.7-12.6-5.2-21.7-8.2-27.8c-6.2-12.4-14.4-20.9-15.7-22.3
			c-7.4-7.6-10.6-8.1-13.8-14.5c-1.2-2.4-5.5-11.2-1.6-20.4c0.7-1.7,3.3-8.2,9.8-10.6c6.9-2.6,13.8,1.2,17.4,3.2
			c9.5,5.2,8.6,10.4,19.6,18.8c4.7,3.6,9.5,7.2,16.8,8.2c2.8,0.4,11,1.5,16.9-3.5c4-3.4,5-8,6.5-14.9c1.6-7.2,1.5-13.5,1.1-17.8"/>
	</mask>
	<g id="see-more" class="point">
		<path id="fill_2_" class="st3 st6" d="M38.5,169.5c13.3,0,24,10.7,24,24s-10.7,24-24,24s-24-10.7-24-24S25.2,169.5,38.5,169.5z"/>
		<path id="icon_2_" class="st7" d="M44.5,194.7h-4.8v4.8h-2.3v-4.8h-4.9v-2.3h4.9v-4.9h2.3v4.9h4.8V194.7z"/>
	</g>
	
	<g id="photo-gallery" class="point">
		<path id="fill_1_" class="st3" d="M335.5,266.5c13.3,0,24,10.7,24,24s-10.7,24-24,24s-24-10.7-24-24S322.2,266.5,335.5,266.5z"/>
		<path id="icon_1_" class="st5" d="M342.4,297.5h-13.8c-1.1,0-2.1-1-2.1-2.2v-9c0-1.2,0.9-2.2,2.1-2.2h0.7v-1.5h1.4v1.5h3
			c0.4-0.9,1-1.5,2-1.5h3.1c1,0,1.6,0.6,2,1.5h1.6c1.1,0,2.1,1,2.1,2.2v9C344.5,296.5,343.6,297.5,342.4,297.5z M336.9,287
			c-1.9,0-3.5,1.7-3.5,3.7c0,2.1,1.6,3.7,3.5,3.7s3.5-1.7,3.5-3.7C340.3,288.7,338.8,287,336.9,287z M336.9,293
			c-1.1,0-2.1-1-2.1-2.2s0.9-2.2,2.1-2.2s2.1,1,2.1,2.2S338,293,336.9,293z"/>
	</g>
	<g id="video" class="point">
		<path id="fill" class="st3" d="M720.5,16.5c13.3,0,24,10.7,24,24s-10.7,24-24,24s-24-10.7-24-24S707.2,16.5,720.5,16.5z"/>
		<path id="icon" class="st5" d="M728.2,46.3l-3.5-1.5v1.4c0,0.7-0.5,1.2-1.2,1.2h-11.1c-0.7,0-1.2-0.5-1.2-1.2v-6.5
			c0-0.7,0.5-1.2,1.2-1.2h11.1c0.7,0,1.2,0.5,1.2,1.2v1.4l3.5-1.5c0.7-0.3,1.3,0.1,1.3,0.9v4.9C729.5,46.2,728.9,46.6,728.2,46.3z
			 M722,41h-7.9c-0.2,0-0.4,0.2-0.4,0.4s0.2,0.4,0.4,0.4h7.9c0.2,0,0.4-0.2,0.4-0.4S722.2,41,722,41z M720.8,37.8
			c-1.3,0-2.4-1.1-2.4-2.4c0-1.3,1.1-2.4,2.4-2.4c1.3,0,2.4,1.1,2.4,2.4S722.1,37.8,720.8,37.8z M714.1,37.8c-2,0-3.6-1.6-3.6-3.6
			s1.6-3.6,3.6-3.6s3.6,1.6,3.6,3.6C717.6,36.2,716,37.8,714.1,37.8z"/>
	</g>
</g>
</svg>
