<svg id="Calque_1" data-name="benoit nihant" xmlns="http://www.w3.org/2000/svg" viewBox="0 0 566.93 138"><defs><style></style></defs><title>benoit nihant</title><path class="cls-1" d="M542,28.77V25.3H518.61v3.47h9.3V44.59h4.7V28.77ZM478.34,44.59v-13l16.33,13h3.24V25.3h-4.24V38.12L477.29,25.3H474V44.59Zm-46.56,0,2.42-4.24H447l2.42,4.24h5.29L443,25.3h-4.51L427.08,44.59Zm8.76-15.78,4.51,8H436.2ZM387.4,44.59V36.47h14.68v8.12h4.7V25.3h-4.7v7.34H387.4V25.3h-4.74V44.59ZM359.49,25.3h-4.7V44.59h4.7ZM312,44.59v-13l16.33,13h3.24V25.3h-4.24V38.12L311,25.3h-3.24V44.59ZM254.83,28.77V25.3H231.47v3.47h9.3V44.59h4.7V28.77Zm-44-3.47h-4.7V44.59h4.7ZM163.2,28.86h15.51v12H163.2ZM158.46,40q0,2.69,1.05,3.63t4,.93h14.94q2.88,0,4-.93T183.45,40V29.86q0-2.74-1.05-3.65t-4-.91H163.49q-2.93,0-4,.91t-1.05,3.65Zm-42.32,4.56v-13l16.33,13h3.24V25.3h-4.24V38.12L115.09,25.3h-3.24V44.59Zm-25.68,0V41H74.27V36.25h9.3V32.92h-9.3v-4.2h16V25.3H69.53V44.59ZM41,44.59q6,0,6-3.78V38.34q0-3.15-3.42-3.69,3.28-.59,3.28-3.28V29q0-3.74-4.56-3.74H25V44.59Zm1.23-14.81v1.84q0,1.38-2.1,1.38H29.63V28.4H40.16q2.1,0,2.1,1.38m-.46,6.69a1.54,1.54,0,0,1,.64,1.46v1.46a1.53,1.53,0,0,1-.64,1.46,3.45,3.45,0,0,1-1.64.27H29.63V36.2H40.16a3.47,3.47,0,0,1,1.64.27"/><path class="cls-1" d="M408.51,77.58v1.23q0,.85-1.18.85h-5.89V76.73h5.89q1.18,0,1.18.85m-7.07,7.92v-4h2.43l4.44,4H412l-5-4h1.45q2.48,0,2.48-2V77q0-2.06-2.48-2.05h-9.55V85.5Zm-15.32,0v-2h-8.9V80.91h5.11V79.08h-5.11V76.78H386V74.9H374.62V85.5ZM360.88,74.9H358.3V85.5h2.58Zm-14.94,1.9V74.9H333.11v1.9h5.11v8.7h2.58V76.8Zm-35.7,8.7,1.33-2.33h7l1.33,2.33h2.91l-6.39-10.6H314l-6.29,10.6Zm4.81-8.67,2.48,4.41h-4.86ZM297.34,85.5v-2H289V74.9h-2.61V85.5Zm-35.52-8.65h8.52v6.62h-8.52ZM259.21,83a2.64,2.64,0,0,0,.58,2,3.39,3.39,0,0,0,2.19.51h8.21a3.39,3.39,0,0,0,2.17-.51,2.6,2.6,0,0,0,.59-2V77.4a2.63,2.63,0,0,0-.58-2,3.46,3.46,0,0,0-2.19-.5H262a3.46,3.46,0,0,0-2.19.5,2.63,2.63,0,0,0-.58,2ZM243.6,78.81l2.61-.38v-1a2.6,2.6,0,0,0-.59-2,3.44,3.44,0,0,0-2.19-.51H236.8a3.38,3.38,0,0,0-2.18.51,2.64,2.64,0,0,0-.58,2V83a2.64,2.64,0,0,0,.58,2,3.32,3.32,0,0,0,2.18.53h6.62a3.43,3.43,0,0,0,2.19-.51,2.6,2.6,0,0,0,.59-2V81.74l-2.61-.53v2.26h-6.94V76.85h6.94Zm-33.89-2h8.52v6.62h-8.52ZM207.1,83a2.63,2.63,0,0,0,.58,2,3.39,3.39,0,0,0,2.19.51h8.21a3.4,3.4,0,0,0,2.17-.51,2.6,2.6,0,0,0,.59-2V77.4a2.63,2.63,0,0,0-.58-2,3.46,3.46,0,0,0-2.19-.5h-8.21a3.46,3.46,0,0,0-2.19.5,2.63,2.63,0,0,0-.58,2ZM182.94,85.5V81H191V85.5h2.58V74.9H191v4h-8.07v-4h-2.61V85.5Zm-18.47-6.69,2.61-.38v-1a2.6,2.6,0,0,0-.59-2,3.44,3.44,0,0,0-2.19-.51h-6.62a3.38,3.38,0,0,0-2.18.51,2.64,2.64,0,0,0-.58,2V83a2.64,2.64,0,0,0,.58,2,3.32,3.32,0,0,0,2.18.53h6.62a3.43,3.43,0,0,0,2.19-.51,2.6,2.6,0,0,0,.59-2V81.74l-2.61-.53v2.26h-6.94V76.85h6.94Z"/><path class="cls-1" d="M408,108v1.23q0,.85-1.18.85H401v-2.93h5.89q1.18,0,1.18.85M401,115.88v-4h2.43l4.44,4h3.71l-5-4h1.45q2.48,0,2.48-2v-2.51q0-2.06-2.48-2.05H398.4v10.6Zm-15.57,0v-2h-8.9v-2.61h5.11v-1.83h-5.11v-2.31h8.77v-1.88H373.88v10.6Zm-25.49-10.6h-2.58v10.6h2.58Zm-21,10.6,6.14-10.6H342.4l-4.24,7.7-4.49-7.7h-2.93l6.42,10.6ZM312.67,99.66H310l3.61,4.24h1.6Zm6.52,16.22v-2h-8.9v-2.61h5.11v-1.83h-5.11v-2.31h8.77v-1.88H307.68v10.6Zm-32,0v-4h4.66v-2h-4.66v-2.76h8.65v-1.91H284.62v10.6Zm-27.45-8.65h8.52v6.62h-8.52Zm-2.61,6.14a2.64,2.64,0,0,0,.58,2,3.39,3.39,0,0,0,2.18.51h8.21a3.39,3.39,0,0,0,2.17-.51,2.6,2.6,0,0,0,.59-2v-5.59a2.63,2.63,0,0,0-.58-2,3.45,3.45,0,0,0-2.18-.5h-8.21a3.45,3.45,0,0,0-2.18.5,2.63,2.63,0,0,0-.58,2Zm-24.24,2.51,1.33-2.33h7l1.33,2.33h2.91l-6.39-10.6h-2.48l-6.29,10.6Zm4.81-8.67,2.48,4.41h-4.86Zm-21.91,2,2.61-.38v-1a2.6,2.6,0,0,0-.59-2,3.44,3.44,0,0,0-2.19-.51H209a3.38,3.38,0,0,0-2.18.51,2.63,2.63,0,0,0-.58,2v5.59a2.63,2.63,0,0,0,.58,2,3.31,3.31,0,0,0,2.18.53h6.62a3.43,3.43,0,0,0,2.19-.51,2.6,2.6,0,0,0,.59-2v-1.25l-2.61-.53v2.26h-6.94v-6.62h6.94ZM182,115.88l1.33-2.33h7l1.33,2.33h2.91l-6.39-10.6h-2.48l-6.29,10.6Zm4.81-8.67,2.48,4.41h-4.86Zm-21.91,2,2.61-.38v-1a2.6,2.6,0,0,0-.59-2,3.44,3.44,0,0,0-2.19-.51h-6.62a3.39,3.39,0,0,0-2.18.51,2.64,2.64,0,0,0-.58,2v5.59a2.64,2.64,0,0,0,.58,2,3.32,3.32,0,0,0,2.18.53h6.62a3.43,3.43,0,0,0,2.19-.51,2.6,2.6,0,0,0,.59-2v-1.25l-2.61-.53v2.26H158v-6.62H165Z"/></svg>