<?xml version="1.0" encoding="utf-8"?>
<!-- Generator: Adobe Illustrator 21.1.0, SVG Export Plug-In . SVG Version: 6.00 Build 0)  -->
<svg version="1.1" id="Warstwa_1" xmlns="http://www.w3.org/2000/svg" xmlns:xlink="http://www.w3.org/1999/xlink" x="0px" y="0px"
	 viewBox="0 0 792 792" style="enable-background:new 0 0 792 792;" xml:space="preserve">
<style type="text/css">
	.st0{fill:#EAAB11;}
	.st1{fill:#FFFF00;}
	.st2{fill:#00548C;}
	.st3{fill:#0094FF;}
	.st4{fill:#004574;}
	.st5{fill:#31ACFF;}
</style>
<g>
	<path class="st0" d="M654.6,522.6c-13.9,44.9-35.6,86.6-63.3,124.5c-15.7,21.5-35.3,39.7-56.8,55.3c-22.4,16.2-47,28.9-73,38
		c-26.5,9.2-54.1,14.3-82.1,15.4c-29.2,1.1-58-3.1-85.7-12.5c-29.3-10-55.5-26.2-78.4-46.9c-26-23.5-45.5-53.2-60-85
		c-16.3-35.6-27.9-73.1-33.4-111.8c-2.5-17.8-3.9-35.7-4.1-53.5c-2.5-28.9-2.1-58,1.8-86.8c4.7-34.8,13.9-68.9,27.5-101.3
		c13.2-31.4,30.3-61.1,51.1-88.1c20.4-26.4,44-50.1,70.4-70.4c26.3-20.2,55.4-36.5,86.2-47.9c29-11.3,60.2-17.4,91.4-15.2
		c26.8,1.9,53.1,7.8,77.7,18.8C546.4,65.4,567.1,79,585.1,96c16.1,15.3,30.1,32.8,40.3,52.6c16.2,31.7,28.1,65.6,36.6,100.2
		c7.8,32,11.8,64.7,12.3,97.6c1.4,17,1.9,34.2,1.5,51.3C674.6,440.2,667.1,482.1,654.6,522.6L654.6,522.6z M429.8,374.4
		c-0.3-2.1-0.8-4.2-1.2-6.3c-1.6-7.2-3.6-14.6-6.5-21.3c-1-2.4-5.3-11.3-8-12.2c-6-1-11.8,2.8-16.3,6.3c-12.4,9.9-21.4,27-27.5,41.3
		c-7.2,17.1-9.8,36.1-10.1,54.9c1.5,13.1,4.4,29.7,10.1,37.1c1.1,1.4,4.7,5.7,6.4,6.1c6.1,0,12.3-4.3,16.8-8
		c9.2-7.8,15.6-17.6,20-28.8c5.6-14.3,10.3-29.2,13.1-44.3C428.2,391,429.4,382.7,429.8,374.4L429.8,374.4z"/>
	<path class="st1" d="M589.7,615.9c-15.7,21.5-35.3,39.7-56.8,55.3c-22.4,16.2-47,28.9-73.1,38c-26.5,9.2-54.1,14.3-82.1,15.4
		c-29.2,1.1-58-3.1-85.7-12.5c-29.3-10-55.5-26.2-78.4-46.9c-26-23.5-45.5-53.2-60-85c-16.3-35.6-27.9-73.1-33.4-111.8
		c-5.1-36.2-5.7-73-0.8-109.2c4.7-34.8,13.9-68.9,27.5-101.3c13.2-31.4,30.3-61.1,51.1-88.1c20.4-26.4,44-50.1,70.4-70.4
		c26.3-20.2,55.4-36.5,86.2-47.9c29-11.3,60.2-17.4,91.4-15.2c26.8,1.9,53.1,7.8,77.7,18.8C546.4,65.4,567.1,79,585.1,96
		c16.1,15.3,30.1,32.8,40.3,52.6c16.2,31.7,28.1,65.6,36.6,100.2c9.4,38.5,13.3,78.1,12.3,117.8c-1.1,42.4-8.6,84.3-21.1,124.9
		C639.2,536.4,617.4,578.1,589.7,615.9L589.7,615.9z M420.6,315.6c-1-2.4-5.3-11.3-8-12.2c-6-1-11.8,2.8-16.3,6.3
		c-12.4,9.9-21.4,27-27.5,41.3c-9.6,22.9-11.1,49.4-9.6,74c0.8,12.3,3.5,39.2,11.2,49.1c1.1,1.4,4.7,5.7,6.4,6.1
		c6.1,0,12.3-4.3,16.8-8c9.2-7.8,15.6-17.6,20-28.8c5.6-14.3,10.3-29.2,13.1-44.3c2.1-11.5,3.5-23.3,3.3-34.9
		c-0.2-9.1-1-18.4-3-27.3C425.4,329.8,423.5,322.4,420.6,315.6L420.6,315.6z"/>
	<path class="st2" d="M571.7,602.7c-14.3,19.6-32.3,36.2-51.9,50.4c-20.6,15-43.2,26.6-67.3,35c-24.4,8.5-49.8,13.2-75.7,14.2
		c-26.5,1-52.5-2.8-77.6-11.3c-26.4-9-49.9-23.6-70.6-42.3C204.9,627.3,187.2,600,174,571c-15.4-33.6-26.4-69-31.6-105.7
		c-4.9-34.2-5.4-68.8-0.7-103.1c4.5-32.9,13.1-65,26-95.6c12.5-29.7,28.5-57.6,48.2-83.2c19.2-24.9,41.4-47.2,66.3-66.3
		c24.7-19,51.8-34.1,80.7-44.7c26-10.1,53.8-15.7,81.7-13.7c24.2,1.7,47.9,6.9,70.1,16.9c20.3,9.1,38.9,21.2,55,36.6
		c14.3,13.5,26.8,29,35.7,46.6c15.4,30.2,26.7,62.4,34.8,95.3c9,36.6,12.6,74.2,11.6,111.9c-1,40.4-8.2,80.2-20.2,118.8
		C618.5,527.4,597.9,566.8,571.7,602.7L571.7,602.7z M441.2,306.8c-4.7-10.9-12.2-23.4-24.9-25.5c-12.8-2.1-23.9,3-33.8,10.9
		c-15.6,12.4-26.5,32-34.1,50.1c-11,26.2-13.1,55.9-11.3,84c1.1,17.9,4.4,46.8,15.9,61.5c6,7.7,13.8,14.7,24.1,14.7
		c11.9,0,22.3-5.8,31.2-13.3c12.1-10.2,20.7-23.1,26.4-37.8c6.1-15.6,11.2-31.9,14.2-48.3c2.4-12.9,3.9-26.2,3.7-39.4
		c-0.2-10.6-1.2-21.4-3.5-31.8C446.9,323.5,444.6,314.8,441.2,306.8L441.2,306.8z"/>
	<path class="st3" d="M558,592.7c-12.9,17.3-29,32.8-48.2,46.7c-19.2,13.9-40.1,24.8-62.9,32.7c-22.8,7.9-46.4,12.3-70.8,13.3
		c-24.4,1-48.3-2.5-71.5-10.4c-23.2-7.9-44.8-20.8-64.7-38.8c-19.9-18-36.8-42-50.7-72.2c-15.3-33.5-25.4-67.2-30.2-101
		c-4.8-33.8-5-66.6-0.7-98.5c4.3-31.9,12.6-62.3,24.8-91.3c12.2-29,27.6-55.5,46-79.4c18.5-24,39.5-45,63.3-63.3
		c23.7-18.2,49.2-32.3,76.6-42.4c25.9-10.1,50.7-14.3,74.4-12.6c23.7,1.7,45.2,6.8,64.3,15.5c19.2,8.6,35.9,19.8,50.3,33.4
		c14.4,13.7,25.2,27.7,32.3,42c13.9,26.8,25,57.4,33.4,91.6c8.4,34.3,12.1,70.1,11.1,107.5c-1,37.4-7.4,75.5-19.4,114.3
		C603.6,518.7,584.4,556.3,558,592.7L558,592.7z M456.7,300.2c-9.1-21.1-21.7-32.9-37.7-35.6c-16.1-2.6-31.7,2.2-47.1,14.4
		c-15.3,12.2-28.4,31.1-39.2,56.8c-10.8,25.6-15,56.2-12.6,91.6c1.9,33.1,8.4,56.7,19.4,70.8c11,14.1,23.5,21.2,37.4,21.2
		c14.4,0,28.4-5.7,42-17.3c13.7-11.5,24.1-26.4,31.3-44.6c7.2-18.7,12.2-35.8,15.1-51.4c2.9-15.6,4.2-29.8,4-42.8
		c-0.2-12.9-1.6-24.7-4-35.2C462.9,317.7,460,308.4,456.7,300.2L456.7,300.2z"/>
	<path class="st4" d="M440.5,87.9c5.4,1,9,6.3,8,11.8c-1,5.4-6.3,9-11.8,8c-5.4-1-9-6.3-8-11.8C429.8,90.5,435.1,86.9,440.5,87.9
		L440.5,87.9z"/>
	<path class="st2" d="M441.5,89.4c4.3,0.8,7,4.9,6.2,9.2c-0.8,4.3-4.9,7-9.2,6.2c-4.3-0.8-7-4.9-6.2-9.2
		C433.1,91.4,437.2,88.6,441.5,89.4L441.5,89.4z"/>
	<path class="st5" d="M447,672.2c22.8-7.9,43.7-18.8,62.9-32.7c19.2-13.9,35.2-29.5,48.2-46.7c26.4-36.4,45.5-74,57.5-112.8
		c8.8-28.6,14.7-56.9,17.5-84.7c-52.2-5.8-107.4-9.8-164.6-11.6c-0.7,7.2-1.7,14.8-3.2,22.6c-2.9,15.6-7.9,32.7-15.1,51.4
		c-7.2,18.2-17.6,33.1-31.3,44.6c-13.7,11.5-27.7,17.2-42,17.2c-13.9,0-26.4-7.1-37.4-21.2c-11-14.1-17.5-37.7-19.4-70.8
		c-1.1-15.5-0.8-30.1,0.6-43.8c-57.4,1.9-112.7,5.9-165.1,11.7c-1,22.1,0.2,44.7,3.5,67.7c4.8,33.8,14.9,67.4,30.2,101
		c13.9,30.2,30.8,54.3,50.7,72.2c19.9,18,41.5,30.9,64.7,38.8c23.2,7.9,47.1,11.4,71.5,10.4C400.6,684.5,424.2,680.1,447,672.2
		L447,672.2z"/>
	<path class="st4" d="M615.1,389.9c5.4,1,9,6.3,8,11.8c-1,5.4-6.3,9-11.8,8c-5.4-1-9-6.3-8-11.8
		C604.4,392.4,609.7,388.8,615.1,389.9L615.1,389.9z"/>
	<path class="st2" d="M616,391.4c4.3,0.8,7,4.9,6.2,9.2c-0.8,4.3-4.9,7-9.2,6.2c-4.3-0.8-7-4.9-6.2-9.2
		C607.7,393.3,611.8,390.6,616,391.4L616,391.4z"/>
	<path class="st4" d="M185.1,350.3c5.4,1,9,6.3,8,11.8c-1,5.4-6.3,9-11.8,8c-5.4-1-9-6.3-8-11.8
		C174.4,352.9,179.6,349.3,185.1,350.3L185.1,350.3z"/>
	<path class="st2" d="M186,351.8c4.3,0.8,7,4.9,6.2,9.2c-0.8,4.3-4.9,7-9.2,6.2c-4.3-0.8-7-4.9-6.2-9.2
		C177.6,353.8,181.8,351,186,351.8L186,351.8z"/>
	<path class="st4" d="M362.5,656.6c5.4,1,9,6.3,8,11.8c-1,5.4-6.3,9-11.8,8c-5.4-1-9-6.3-8-11.8C351.7,659.1,357,655.5,362.5,656.6
		L362.5,656.6z"/>
	<path class="st2" d="M363.4,658.1c4.3,0.8,7,4.9,6.2,9.2c-0.8,4.3-4.9,7-9.2,6.2c-4.3-0.8-7-4.9-6.2-9.2
		C355,660,359.1,657.3,363.4,658.1L363.4,658.1z"/>
</g>
</svg>
