<?xml version="1.0" encoding="utf-8"?>
<!-- Generator: Adobe Illustrator 21.1.0, SVG Export Plug-In . SVG Version: 6.00 Build 0)  -->
<svg version="1.1" id="Warstwa_1" xmlns="http://www.w3.org/2000/svg" xmlns:xlink="http://www.w3.org/1999/xlink" x="0px" y="0px"
	 viewBox="0 0 792 792" style="enable-background:new 0 0 792 792;" xml:space="preserve">
<style type="text/css">
	.st0{fill:#EAAB11;}
	.st1{fill:#FFFF00;}
	.st2{fill:#00548C;}
	.st3{fill:#0094FF;}
	.st4{fill:#004574;}
	.st5{fill:#31ACFF;}
	.st6{fill:#E2E6EA;}
</style>
<g>
	<path class="st0" d="M654.6,522.6c-13.9,44.9-35.6,86.6-63.3,124.5c-15.7,21.5-35.3,39.7-56.8,55.3c-22.4,16.2-47,28.9-73.1,38
		c-26.5,9.2-54.1,14.3-82.1,15.4c-29.2,1.1-58-3.1-85.7-12.5c-29.3-10-55.5-26.2-78.4-46.9c-26-23.5-45.5-53.2-60-85
		c-16.3-35.6-27.9-73.1-33.4-111.8c-2.5-17.8-3.9-35.7-4.1-53.5c-2.5-28.9-2.1-58,1.8-86.8c4.7-34.8,13.9-68.9,27.5-101.3
		c13.2-31.4,30.3-61.1,51.1-88.1c20.4-26.4,44-50.1,70.4-70.4c26.3-20.2,55.4-36.5,86.2-47.9c29-11.3,60.2-17.4,91.4-15.2
		c26.8,1.9,53.1,7.8,77.7,18.8C546.4,65.4,567.1,79,585.1,96c16.1,15.3,30.1,32.8,40.3,52.6c16.2,31.7,28.1,65.6,36.6,100.2
		c7.8,32,11.8,64.7,12.3,97.6c1.4,17,1.9,34.2,1.5,51.3C674.6,440.2,667.1,482.1,654.6,522.6L654.6,522.6z"/>
	<path class="st1" d="M589.7,615.9c-15.7,21.5-35.3,39.7-56.8,55.3c-22.4,16.2-47,28.9-73.1,38c-26.5,9.2-54.1,14.3-82.1,15.4
		c-29.2,1.1-58-3.1-85.7-12.5c-29.3-10-55.5-26.2-78.4-46.9c-26-23.5-45.5-53.2-60-85c-16.3-35.6-27.9-73.1-33.4-111.8
		c-5.1-36.2-5.7-73-0.8-109.2c4.7-34.8,13.9-68.9,27.5-101.3c13.2-31.4,30.3-61.1,51.1-88.1c20.4-26.4,44-50.1,70.4-70.4
		c26.3-20.2,55.4-36.5,86.2-47.9c29-11.3,60.2-17.4,91.4-15.2c26.8,1.9,53.1,7.8,77.7,18.8C546.4,65.4,567.1,79,585.1,96
		c16.1,15.3,30.1,32.8,40.3,52.6c16.2,31.7,28.1,65.6,36.6,100.2c9.4,38.5,13.3,78.1,12.3,117.8c-1.1,42.4-8.6,84.3-21.1,124.9
		C639.2,536.4,617.4,578.1,589.7,615.9L589.7,615.9z"/>
	<path class="st2" d="M571.7,602.7c-14.3,19.6-32.3,36.2-51.9,50.4c-20.6,15-43.2,26.6-67.3,35c-24.4,8.5-49.8,13.2-75.7,14.2
		c-26.5,1-52.5-2.8-77.6-11.3c-26.4-9-49.9-23.6-70.6-42.3C204.9,627.3,187.2,600,174,571c-15.4-33.6-26.4-69-31.6-105.7
		c-4.9-34.2-5.4-68.8-0.7-103.1c4.5-32.9,13.1-65,26-95.6c12.5-29.7,28.5-57.6,48.2-83.2c19.2-24.9,41.4-47.2,66.3-66.3
		c24.7-19,51.8-34.1,80.7-44.7c26-10.1,53.8-15.7,81.7-13.7c24.2,1.7,47.9,6.9,70.1,16.9c20.3,9.1,38.9,21.2,55,36.6
		c14.3,13.5,26.8,29,35.7,46.6c15.4,30.2,26.7,62.4,34.8,95.3c9,36.6,12.6,74.2,11.6,111.9c-1,40.4-8.2,80.2-20.2,118.8
		C618.5,527.4,597.9,566.8,571.7,602.7L571.7,602.7z"/>
	<path class="st3" d="M558,592.8c-12.9,17.3-29,32.8-48.2,46.7c-19.2,13.9-40.1,24.8-62.9,32.7c-22.8,7.9-46.4,12.3-70.8,13.3
		c-24.4,1-48.3-2.5-71.5-10.4c-23.2-7.9-44.8-20.8-64.7-38.8c-19.9-18-36.8-42-50.7-72.2c-15.3-33.5-25.4-67.2-30.2-101
		c-4.8-33.8-5-66.6-0.7-98.5c4.3-31.9,12.6-62.3,24.8-91.3c12.2-29,27.6-55.5,46-79.4c18.4-24,39.5-45,63.3-63.3
		c23.7-18.2,49.2-32.3,76.6-42.4c25.9-10.1,50.7-14.3,74.4-12.6c23.7,1.7,45.2,6.8,64.3,15.5c19.2,8.6,35.9,19.8,50.3,33.4
		c14.4,13.7,25.2,27.7,32.3,42c13.9,26.8,25,57.4,33.4,91.6c8.4,34.3,12.1,70.1,11.1,107.5c-1,37.4-7.4,75.5-19.4,114.3
		C603.6,518.7,584.4,556.3,558,592.8L558,592.8z"/>
	<path class="st4" d="M440.5,87.9c5.4,1,9,6.3,8,11.8c-1,5.4-6.3,9-11.8,8c-5.4-1-9-6.3-8-11.8C429.8,90.5,435.1,86.9,440.5,87.9
		L440.5,87.9z"/>
	<path class="st2" d="M441.5,89.4c4.3,0.8,7,4.9,6.2,9.2c-0.8,4.3-4.9,7-9.2,6.2c-4.3-0.8-7-4.9-6.2-9.2
		C433.1,91.4,437.2,88.6,441.5,89.4L441.5,89.4z"/>
	<path class="st5" d="M447,672.2c22.8-7.9,43.7-18.8,62.9-32.7c19.2-13.9,35.2-29.5,48.2-46.7c26.4-36.4,45.5-74,57.5-112.8
		c8.8-28.6,14.7-56.9,17.5-84.7c-152.3-16.9-325.9-16.8-477.4,0.2c-1,22.1,0.2,44.7,3.5,67.7c4.8,33.8,14.9,67.4,30.2,101
		c13.9,30.2,30.8,54.3,50.7,72.2c19.9,18,41.5,30.9,64.7,38.8c23.2,7.9,47.1,11.4,71.5,10.4C400.6,684.5,424.2,680.1,447,672.2
		L447,672.2z"/>
	<path class="st4" d="M615.1,389.9c5.4,1,9,6.3,8,11.8c-1,5.4-6.3,9-11.8,8c-5.4-1-9-6.3-8-11.8
		C604.4,392.4,609.7,388.8,615.1,389.9L615.1,389.9z"/>
	<path class="st2" d="M616,391.4c4.3,0.8,7,4.9,6.2,9.2c-0.8,4.3-4.9,7-9.2,6.2c-4.3-0.8-7-4.9-6.2-9.2
		C607.7,393.3,611.8,390.6,616,391.4L616,391.4z"/>
	<path class="st4" d="M185.1,350.3c5.4,1,9,6.3,8,11.8c-1,5.4-6.3,9-11.8,8c-5.4-1-9-6.3-8-11.8
		C174.4,352.9,179.6,349.3,185.1,350.3L185.1,350.3z"/>
	<path class="st2" d="M186,351.8c4.3,0.8,7,4.9,6.2,9.2c-0.8,4.3-4.9,7-9.2,6.2c-4.3-0.8-7-4.9-6.2-9.2
		C177.7,353.8,181.8,351,186,351.8L186,351.8z"/>
	<path class="st4" d="M362.5,656.6c5.4,1,9,6.3,8,11.8c-1,5.4-6.3,9-11.8,8c-5.4-1-9-6.3-8-11.8C351.7,659.1,357,655.5,362.5,656.6
		L362.5,656.6z"/>
	<path class="st2" d="M363.4,658.1c4.3,0.8,7,4.9,6.2,9.2c-0.8,4.3-4.9,7-9.2,6.2c-4.3-0.8-7-4.9-6.2-9.2
		C355,660,359.1,657.3,363.4,658.1L363.4,658.1z"/>
	<path class="st2" d="M332.7,382.2v-0.6c0-5-0.6-22.9-9.9-35.3c-9.3-13-26-13.6-30.9-13.6c-19.2,0-32.8,19.2-32.8,37.1
		c0,41.5,24.8,52.6,37.8,52.6c7.4,0,13-1.9,17.3-6.2c0.6-0.6,1.2-1.2,1.9-1.9c3.1-3.1,8-8.7,11.8-12.4
		C332.7,397,332.7,387.1,332.7,382.2L332.7,382.2z"/>
	<path class="st2" d="M424.3,277.6c-8-6.8-16.7-10.5-26-10.5c-5,0-9.9,0.6-14.2,2.5c-30.3,11.8-32.2,42.7-32.2,48.9
		c0,10.5,2.5,16.7,5,22.3c0.6,1.2,0.6,1.9,1.2,3.1c1.9,5,12.4,11.8,22.9,16.1c6.8,2.5,16.1,3.1,21,3.1c3.7,0,8.7,0,10.5-0.6
		c27.2-9.3,27.9-43.3,27.9-43.9C439.8,318.4,438.6,289.9,424.3,277.6L424.3,277.6z"/>
	<path class="st2" d="M494.3,325.2c-6.2,0-21,1.2-33.4,14.2c-13,13-13.6,36.5-13.6,41.5c0,14.2,5.6,20.4,14.9,30.9l1.9,1.9
		c6.2,6.8,13.6,10.5,21,10.5c4.3,0,9.3-1.2,14.9-3.7c8-3.7,27.9-16.1,27.9-53.9C527.7,332,503.6,325.2,494.3,325.2L494.3,325.2z"/>
	<path class="st2" d="M457.1,429.2c-1.2-1.2-2.5-1.9-3.1-2.5c-6.8-5.6-22.3-25.4-26.6-32.8c-5-8-15.5-17.3-36.5-17.3
		c-20.4,0-28.5,7.4-35.3,16.7c-4.3,5-18,22.9-23.5,27.9c-0.6,0.6-1.9,1.9-3.7,2.5c-7.4,5-21,14.9-21,35.3c0,21,7.4,37.1,21.7,47.7
		c4.3,3.1,11.1,5,18.6,5c9.3,0,18-2.5,20.4-3.1c3.7-1.2,10.5-3.1,22.9-3.1c10.5,0,17.9,2.5,25.4,5c6.8,2.5,13,4.3,21,4.3
		c19.2,0,39.6-17.3,39.6-45.8C476.9,444.1,464.6,434.8,457.1,429.2L457.1,429.2z"/>
	<path class="st6" d="M332.7,368.9v-0.6c0-5-0.6-22.9-9.9-35.3c-9.3-13-26-13.6-30.9-13.6c-19.2,0-32.8,19.2-32.8,37.1
		c0,41.5,24.8,52.6,37.8,52.6c7.4,0,13-1.9,17.3-6.2c0.6-0.6,1.2-1.2,1.9-1.9c3.1-3.1,8-8.7,11.8-12.4
		C332.7,383.7,332.7,373.8,332.7,368.9L332.7,368.9z"/>
	<path class="st6" d="M424.3,264.3c-8-6.8-16.7-10.5-26-10.5c-5,0-9.9,0.6-14.2,2.5c-30.3,11.8-32.2,42.7-32.2,48.9
		c0,10.5,2.5,16.7,5,22.3c0.6,1.2,0.6,1.9,1.2,3.1c1.9,5,12.4,11.8,22.9,16.1c6.8,2.5,16.1,3.1,21,3.1c3.7,0,8.7,0,10.5-0.6
		c27.2-9.3,27.9-43.3,27.9-43.9C439.8,305.1,438.6,276.7,424.3,264.3L424.3,264.3z"/>
	<path class="st6" d="M494.3,311.9c-6.2,0-21,1.2-33.4,14.2c-13,13-13.6,36.5-13.6,41.5c0,14.2,5.6,20.4,14.9,30.9l1.9,1.9
		c6.2,6.8,13.6,10.5,21,10.5c4.3,0,9.3-1.2,14.9-3.7c8-3.7,27.9-16.1,27.9-53.9C527.7,318.8,503.6,311.9,494.3,311.9L494.3,311.9z"
		/>
	<path class="st6" d="M457.1,415.9c-1.2-1.2-2.5-1.9-3.1-2.5c-6.8-5.6-22.3-25.4-26.6-32.8c-5-8-15.5-17.3-36.5-17.3
		c-20.4,0-28.5,7.4-35.3,16.7c-4.3,5-18,22.9-23.5,27.9c-0.6,0.6-1.9,1.9-3.7,2.5c-7.4,5-21,14.9-21,35.3c0,21,7.4,37.1,21.7,47.7
		c4.3,3.1,11.1,5,18.6,5c9.3,0,18-2.5,20.4-3.1c3.7-1.2,10.5-3.1,22.9-3.1c10.5,0,17.9,2.5,25.4,5c6.8,2.5,13,4.3,21,4.3
		c19.2,0,39.6-17.3,39.6-45.8C476.9,430.8,464.6,421.5,457.1,415.9L457.1,415.9z"/>
</g>
</svg>
