<?xml version="1.0" encoding="utf-8"?>
<!-- Generator: Adobe Illustrator 21.1.0, SVG Export Plug-In . SVG Version: 6.00 Build 0)  -->
<svg version="1.1" id="Warstwa_1" xmlns="http://www.w3.org/2000/svg" xmlns:xlink="http://www.w3.org/1999/xlink" x="0px" y="0px"
	 viewBox="0 0 792 792" style="enable-background:new 0 0 792 792;" xml:space="preserve">
<style type="text/css">
	.st0{fill:#EAAB11;}
	.st1{fill:#FFFF00;}
	.st2{fill:#00548C;}
	.st3{fill:#0094FF;}
	.st4{fill:#004574;}
	.st5{fill:#31ACFF;}
</style>
<g>
	<polygon class="st0" points="610.9,36 612.5,66.9 581.4,756 330.5,723.2 328.9,692.3 327.2,385 297.7,409.9 181.1,259.9 179.5,229 
		355.6,61.9 	"/>
	<polygon class="st1" points="327.1,352.9 296.1,378.9 179.5,229 355.6,61.9 610.9,36 579.8,725.1 328.9,692.3 	"/>
	<polygon class="st2" points="349,305.3 299.5,347 209.4,231.3 365.4,83.3 587.6,60.7 558.7,699.9 351.1,672.8 	"/>
	<polygon class="st3" points="302,323 232,233 372.7,99.4 569.9,79.4 542.8,680.9 367.8,658 365.6,269.4 	"/>
	<path class="st4" d="M552,90.5c5.4,1,9,6.3,7.9,11.7c-1,5.4-6.3,9-11.7,7.9s-9-6.3-7.9-11.7C541.4,93,546.6,89.4,552,90.5L552,90.5
		z"/>
	<path class="st2" d="M553,92c4.2,0.8,7,4.9,6.2,9.1c-0.8,4.2-4.9,7-9.1,6.2c-4.2-0.8-7-4.9-6.2-9.1C544.6,93.9,548.7,91.1,553,92
		L553,92z"/>
	<path class="st4" d="M388.2,113.1c5.4,1,9,6.3,7.9,11.7c-1,5.4-6.3,9-11.7,7.9c-5.4-1-9-6.3-7.9-11.7
		C377.5,115.6,382.7,112.1,388.2,113.1L388.2,113.1z"/>
	<path class="st2" d="M389.1,114.6c4.2,0.8,7,4.9,6.2,9.1c-0.8,4.2-4.9,7-9.1,6.2c-4.2-0.8-7-4.9-6.2-9.1
		C380.8,116.5,384.9,113.8,389.1,114.6L389.1,114.6z"/>
	<path class="st4" d="M261,224.4c5.4,1,9,6.3,7.9,11.7s-6.3,9-11.7,7.9c-5.4-1-9-6.3-7.9-11.7C250.3,226.9,255.6,223.4,261,224.4
		L261,224.4z"/>
	<path class="st2" d="M261.9,225.9c4.2,0.8,7,4.9,6.2,9.1c-0.8,4.2-4.9,7-9.1,6.2c-4.2-0.8-7-4.9-6.2-9.1
		C253.6,227.9,257.7,225.1,261.9,225.9L261.9,225.9z"/>
	<path class="st4" d="M306,285.5c5.4,1,9,6.3,7.9,11.7s-6.3,9-11.7,7.9c-5.4-1-9-6.3-7.9-11.7C295.3,288,300.6,284.4,306,285.5
		L306,285.5z"/>
	<path class="st2" d="M306.9,287c4.2,0.8,7,4.9,6.2,9.1c-0.8,4.2-4.9,7-9.1,6.2c-4.2-0.8-7-4.9-6.2-9.1
		C298.6,288.9,302.7,286.1,306.9,287L306.9,287z"/>
	<path class="st5" d="M542.8,680.9l13.5-298.1c-66.2,1-129.9,4.9-189.9,11.2l1.5,264L542.8,680.9L542.8,680.9z"/>
	<path class="st4" d="M526.7,648.2c5.4,1,9,6.3,7.9,11.7c-1,5.4-6.3,9-11.7,7.9c-5.4-1-9-6.3-7.9-11.7
		C516,650.7,521.3,647.2,526.7,648.2L526.7,648.2z"/>
	<path class="st2" d="M527.6,649.7c4.2,0.8,7,4.9,6.2,9.1c-0.8,4.2-4.9,7-9.1,6.2c-4.2-0.8-7-4.9-6.2-9.1
		C519.3,651.7,523.4,648.9,527.6,649.7L527.6,649.7z"/>
	<path class="st4" d="M391,631.7c5.4,1,9,6.3,7.9,11.7s-6.3,9-11.7,7.9c-5.4-1-9-6.3-7.9-11.7C380.3,634.2,385.5,630.7,391,631.7
		L391,631.7z"/>
	<path class="st2" d="M391.9,633.2c4.2,0.8,7,4.9,6.2,9.1c-0.8,4.2-4.9,7-9.1,6.2c-4.2-0.8-7-4.9-6.2-9.1
		C383.6,635.2,387.7,632.4,391.9,633.2L391.9,633.2z"/>
</g>
</svg>
