<?xml version="1.0" encoding="utf-8"?>
<!-- Generator: Adobe Illustrator 21.1.0, SVG Export Plug-In . SVG Version: 6.00 Build 0)  -->
<svg version="1.1" id="Warstwa_1" xmlns="http://www.w3.org/2000/svg" xmlns:xlink="http://www.w3.org/1999/xlink" x="0px" y="0px"
	 viewBox="0 0 792 792" style="enable-background:new 0 0 792 792;" xml:space="preserve">
<style type="text/css">
	.st0{fill:#EAAB11;}
	.st1{fill:#FFFF00;}
	.st2{fill:#00548C;}
	.st3{fill:#0094FF;}
	.st4{fill:#004574;}
	.st5{fill:#31ACFF;}
</style>
<g>
	<path class="st0" d="M614.9,443.8l45.8-5.2l1.5,30.9L656,730.7L156.4,756l-1.5-30.9L154,600.7c-0.4-4.3-0.4-8.6-0.1-12.9l-0.1-8.1
		c-4.2-20.7-0.3-41.3,8.6-60.3c8.9-19.2,21.1-36.8,34.6-53c12.4-14.9,25.8-29.1,39.7-42.5L109,239.8l-1.5-30.9l24.3-23
		c39.9-37.8,83.8-73.8,132.1-100.3c36.1-19.8,75.5-37,116.2-44.5c32.9-6,66.9-7.3,99.7-0.6c27.6,5.7,54.4,15.1,78.4,30.1
		c19.1,11.9,37.3,25.5,53.4,41.3c12,11.8,24,24.5,33.2,38.7c2.1,3.2,4.1,6.6,6.3,9.8l1.6,1.6l2.6,4.6
		c17.9,31.9,29.2,66.9,27.4,103.2c2.5,16.8,2.4,34-0.9,51.4c-7.2,38-24.4,72.1-48.8,101.9C627.3,430.2,621.2,437.1,614.9,443.8
		L614.9,443.8z"/>
	<path class="st1" d="M575.8,448.3l84.9-9.7l-6.2,261.3l-499.7,25.3l-0.9-145.4c-4.2-20.7-0.3-41.3,8.6-60.3
		c8.9-19.2,21.1-36.8,34.6-53c14.9-18,31.2-34.8,48.4-50.7c17.6-16.4,35.6-32.5,53.8-48.3c7.5-6.5,14.9-12.9,22.4-19.4
		c-14.3,10.3-28.4,21.1-41.5,32.9l-32.8,29.4L107.5,208.9l24.3-23c39.9-37.8,83.8-73.8,132.1-100.3c36.1-19.8,75.5-37,116.2-44.5
		c32.9-6,66.9-7.3,99.7-0.6c27.6,5.7,54.4,15.1,78.4,30.1c19.1,11.9,37.3,25.5,53.4,41.3c12,11.8,24,24.5,33.2,38.7
		c2.1,3.2,4.1,6.6,6.3,9.8l1.6,1.6l2.6,4.6c21.3,37.9,33.2,80.2,25,123.6c-7.2,38-24.4,72.1-48.8,101.9
		C614.8,412.6,596,431.3,575.8,448.3L575.8,448.3z"/>
	<path class="st2" d="M495.6,479.8l142.3-16.3l-5.1,215.2l-455.9,23.1l-0.8-124.6c-3.9-16.5-0.6-33.2,6.5-48.5
		c8.1-17.4,19.3-33.5,31.5-48.2c14.3-17.2,30-33.4,46.4-48.6c17.5-16.2,35.2-32.2,53.2-47.8c17.5-15.2,35-30.3,52.5-45.3
		c14.7-12.6,29.2-25.6,43-39.2c8.8-8.7,18.4-18.8,25-29.4c0.5-0.8,1.4-2.3,2.1-3.8c-3.9-0.4-11,1.2-13.2,1.8
		c-17.3,4.6-34.4,12.5-50.1,21c-20.1,10.9-39.5,23.2-58.2,36.4c-17,12-33.9,24.8-49.5,38.7L251.2,377L136.6,211.9L147,202
		c38.3-36.2,81.2-71.6,127.5-97c33.8-18.6,71.4-35.1,109.5-42.1c30.1-5.5,61.2-6.8,91.3-0.6c25,5.1,49.4,13.6,71.1,27.2
		c17.7,11,34.7,23.6,49.6,38.3c10.7,10.5,22,22.4,30.1,34.9c2.5,3.9,5.2,8.2,7.9,12l0.8,0.8l1.1,2c18.7,33.2,29.8,70.5,22.5,108.7
		c-6.5,34.4-22.1,65-44.1,92c-23.8,29-51.9,54.2-82.3,76.1C520,462.9,507.9,471.4,495.6,479.8L495.6,479.8z"/>
	<path class="st3" d="M621.4,185.7c19.5,34.7,26.4,67.2,20.7,97.4c-5.7,30.2-19.3,58.4-40.7,84.5c-21.4,26.1-47.8,50.5-79.2,73.1
		c-31.4,22.6-63,43.9-94.9,63.8l193.3-22.1l-4.3,180.4l-422.9,21.4l-0.7-109.1c-3.3-11.9-1.7-25,5-39.2
		c6.7-14.3,16.4-29.1,29.2-44.6c12.8-15.5,27.8-31.1,44.9-47.1c17.1-15.9,34.7-31.7,52.8-47.4c18.1-15.7,35.5-30.8,52.4-45.3
		c16.9-14.5,31.5-27.8,43.9-39.9c12.4-12.1,21.5-22.9,27.5-32.4c5.9-9.5,7-16.9,3.2-22.1c-5.7-7.6-16.6-9.3-32.8-5
		c-16.2,4.3-34.1,11.8-53.8,22.5c-19.7,10.7-39.7,23.2-59.9,37.4c-20.2,14.3-37.2,27.6-51,39.9l-95.6-137.6
		c44.2-41.8,85.6-73.3,124.1-94.5c38.5-21.2,73.3-34.6,104.5-40.3c31.1-5.7,59.4-5.9,84.9-0.7c25.4,5.2,47.3,13.5,65.6,25
		c18.3,11.4,33.9,23.4,46.7,36c12.8,12.6,22.1,23.3,27.8,32.1C617.8,180.5,620.9,185.2,621.4,185.7L621.4,185.7z"/>
	<path class="st4" d="M475.4,245.1c5.4,1,8.9,6.3,7.9,11.7s-6.3,8.9-11.7,7.9c-5.4-1-8.9-6.3-7.9-11.7
		C464.8,247.6,470,244.1,475.4,245.1L475.4,245.1z"/>
	<path class="st2" d="M476.4,246.6c4.2,0.8,7,4.9,6.2,9.1c-0.8,4.2-4.9,7-9.1,6.2c-4.2-0.8-7-4.9-6.2-9.1
		C468.1,248.5,472.1,245.8,476.4,246.6L476.4,246.6z"/>
	<path class="st4" d="M260.2,317.6c5.4,1,8.9,6.3,7.9,11.7c-1,5.4-6.3,8.9-11.7,7.9c-5.4-1-8.9-6.3-7.9-11.7
		C249.6,320.1,254.8,316.6,260.2,317.6L260.2,317.6z"/>
	<path class="st2" d="M261.1,319.1c4.2,0.8,7,4.9,6.2,9.1c-0.8,4.2-4.9,7-9.1,6.2c-4.2-0.8-7-4.9-6.2-9.1
		C252.8,321,256.9,318.3,261.1,319.1L261.1,319.1z"/>
	<path class="st4" d="M186.3,206.4c5.4,1,8.9,6.3,7.9,11.7c-1,5.4-6.3,8.9-11.7,7.9c-5.4-1-8.9-6.3-7.9-11.7
		C175.7,208.9,180.9,205.4,186.3,206.4L186.3,206.4z"/>
	<path class="st2" d="M187.2,207.9c4.2,0.8,7,4.9,6.2,9.1c-0.8,4.2-4.9,7-9.1,6.2c-4.2-0.8-7-4.9-6.2-9.1
		C178.9,209.8,183,207.1,187.2,207.9L187.2,207.9z"/>
	<path class="st4" d="M476.7,89.4c5.4,1,8.9,6.3,7.9,11.7c-1,5.4-6.3,8.9-11.7,7.9c-5.4-1-8.9-6.3-7.9-11.7
		C466.1,91.9,471.3,88.3,476.7,89.4L476.7,89.4z"/>
	<path class="st2" d="M477.6,90.8c4.2,0.8,7,4.9,6.2,9.1c-0.8,4.2-4.9,7-9.1,6.2c-4.2-0.8-7-4.9-6.2-9.1
		C469.3,92.8,473.4,90,477.6,90.8L477.6,90.8z"/>
	<path class="st5" d="M192.8,575.1l0.7,109.1l422.9-21.4l4.3-180.4l-193.3,22.1c31.9-20,63.5-41.2,94.9-63.8
		c22.3-16.1,42.1-33,59.4-50.9c-57.5-4.7-118-7.3-180.4-7.3c-20.6,0-40.9,0.3-61,0.8c-5.1,4.4-10.3,8.9-15.6,13.5
		c-18.1,15.7-35.7,31.5-52.8,47.4c-17.1,15.9-32.1,31.6-44.9,47.1c-12.8,15.5-22.6,30.3-29.2,44.6
		C191.1,550.1,189.5,563.2,192.8,575.1L192.8,575.1z"/>
	<path class="st4" d="M600.9,637.9c5.4,1,8.9,6.3,7.9,11.7c-1,5.4-6.3,8.9-11.7,7.9s-8.9-6.3-7.9-11.7
		C590.3,640.4,595.5,636.9,600.9,637.9L600.9,637.9z"/>
	<path class="st2" d="M601.9,639.4c4.2,0.8,7,4.9,6.2,9.1c-0.8,4.2-4.9,7-9.1,6.2c-4.2-0.8-7-4.9-6.2-9.1
		C593.6,641.3,597.6,638.6,601.9,639.4L601.9,639.4z"/>
	<path class="st4" d="M603.3,494.5c5.4,1,8.9,6.3,7.9,11.7c-1,5.4-6.3,8.9-11.7,7.9c-5.4-1-8.9-6.3-7.9-11.7
		C592.7,497,597.9,493.5,603.3,494.5L603.3,494.5z"/>
	<path class="st2" d="M604.2,496c4.2,0.8,7,4.9,6.2,9.1s-4.9,7-9.1,6.2c-4.2-0.8-7-4.9-6.2-9.1C595.9,498,600,495.2,604.2,496
		L604.2,496z"/>
	<path class="st4" d="M471.6,443.9c5.4,1,8.9,6.3,7.9,11.7c-1,5.4-6.3,8.9-11.7,7.9c-5.4-1-8.9-6.3-7.9-11.7
		C461,446.4,466.2,442.9,471.6,443.9L471.6,443.9z"/>
	<path class="st2" d="M472.6,445.4c4.2,0.8,7,4.9,6.2,9.1c-0.8,4.2-4.9,7-9.1,6.2c-4.2-0.8-7-4.9-6.2-9.1
		C464.3,447.3,468.3,444.6,472.6,445.4L472.6,445.4z"/>
	<path class="st4" d="M214.1,656.5c5.4,1,8.9,6.3,7.9,11.7c-1,5.4-6.3,8.9-11.7,7.9c-5.4-1-8.9-6.3-7.9-11.7
		C203.5,659,208.7,655.5,214.1,656.5L214.1,656.5z"/>
	<path class="st2" d="M215,658c4.2,0.8,7,4.9,6.2,9.1c-0.8,4.2-4.9,7-9.1,6.2c-4.2-0.8-7-4.9-6.2-9.1
		C206.8,659.9,210.8,657.2,215,658L215,658z"/>
	<path class="st4" d="M215.4,562.8c5.4,1,8.9,6.3,7.9,11.7c-1,5.4-6.3,8.9-11.7,7.9c-5.4-1-8.9-6.3-7.9-11.7
		C204.8,565.3,210,561.8,215.4,562.8L215.4,562.8z"/>
	<path class="st2" d="M216.3,564.3c4.2,0.8,7,4.9,6.2,9.1c-0.8,4.2-4.9,7-9.1,6.2c-4.2-0.8-7-4.9-6.2-9.1
		C208,566.2,212.1,563.5,216.3,564.3L216.3,564.3z"/>
</g>
</svg>
