<?xml version="1.0" encoding="utf-8"?>
<!-- Generator: Adobe Illustrator 21.1.0, SVG Export Plug-In . SVG Version: 6.00 Build 0)  -->
<svg version="1.1" id="Warstwa_1" xmlns="http://www.w3.org/2000/svg" xmlns:xlink="http://www.w3.org/1999/xlink" x="0px" y="0px"
	 viewBox="0 0 792 792" style="enable-background:new 0 0 792 792;" xml:space="preserve">
<style type="text/css">
	.st0{fill:#EAAB11;}
	.st1{fill:#FFFF00;}
	.st2{fill:#00548C;}
	.st3{fill:#0094FF;}
	.st4{fill:#004574;}
	.st5{fill:#31ACFF;}
</style>
<g>
	<path class="st0" d="M579,88.2c6.6,5.4,13.5,10.4,19.5,16.4c5,5,9,10.7,13.4,16.2c10.4,13,18.3,28.1,25.1,43.1
		c9.2,20.4,13.8,42.3,14.7,64.6c0.2,3.9,0.1,7.8-0.1,11.7c0.9,6.2,1.4,12.5,1.7,18.8c1.1,27.7-7.7,54.8-21.1,78.9
		c-5,9-11,17.4-17.6,25.2c7.6,8.3,14.5,17.3,20.5,27c15.6,25.2,27.1,52.9,30.9,82.4c1.5,11.7,2.2,23.5,2.1,35.3
		c2.6,23.1,2.1,46.5-2.4,69.4c-3.5,17.9-7.9,36.4-15.3,53.1c-2.8,6.3-5.4,12.7-8.5,18.9l-1.2,2.4l-1.6,2.2l-9.5,13.7
		c-10.2,14.8-24,27.4-38,38.6c-19.2,15.3-41.6,26.6-64.4,35.4c-30.6,11.9-64.1,15.1-96.6,13.9c-41.5-1.5-83.2-12.4-122.2-26.2
		c-53.7-18.9-104.6-48.6-151.7-80.3l-32.6-21.9l-1.5-30.6l148.8-212.5l20.5,14.8l3.7-57.4l-4.3,2.9l-35.4,24.5L149.7,172.6
		l-1.5-30.6l28-19.7c42.6-30,90-56.8,140.3-70.9c37.6-10.5,77.8-17.5,116.9-14.7c30.4,2.2,61,7.9,89.1,20
		C542,64.9,562.5,74.8,579,88.2L579,88.2z"/>
	<path class="st1" d="M291.6,399.1l5.8-90.4c-2.7,1.8-5.4,3.7-7.9,5.4l-35.4,24.5L148.2,142l28-19.7c42.6-30,90-56.8,140.3-70.9
		c37.6-10.5,77.8-17.5,116.9-14.7c30.4,2.2,61,7.9,89.1,20c19.5,8.3,40,18.2,56.5,31.7c6.6,5.4,13.5,10.4,19.5,16.4
		c5,5,9,10.7,13.4,16.2c10.4,13,18.3,28.1,25.1,43.1c9.2,20.4,13.8,42.3,14.7,64.6c1.1,27.7-7.7,54.8-21.1,78.9
		c-8.4,15-19.4,28.4-31.9,40.2c14,12.5,26.4,26.6,36.3,42.5c15.6,25.2,27.1,52.9,30.9,82.4c3.2,24.6,3,49.7-1.8,74.1
		c-3.5,17.9-7.9,36.4-15.3,53.1c-2.8,6.3-5.4,12.7-8.5,18.9l-1.2,2.5l-1.6,2.2c-3.2,4.6-6.3,9.2-9.5,13.7
		c-10.2,14.8-24,27.4-38,38.6c-19.2,15.3-41.6,26.6-64.4,35.4c-30.6,11.9-64.1,15.1-96.6,13.9c-41.5-1.5-83.2-12.4-122.2-26.2
		C253,680.1,202,650.4,155,618.7l-32.6-21.9l148.8-212.5L291.6,399.1L291.6,399.1z"/>
	<path class="st2" d="M428,474.3c0.7-1.9,1.4-3.7,2-5.4c1.1-3,0.8-7.7,0.5-10.8c-0.6-4.4-3.6-8.3-6.7-11.3
		c-5.9-5.7-19.7-9.3-27.5-10.9c-20-4.2-45.4-2.7-65.7-0.8l-19.3,1.8l10.1-157.1l16.9,1.5c16.2,1.4,45.8,3.5,61.4-1.7
		c3-1,13.3-4.9,14.8-8c0.7-1.7,1.4-3.4,0.5-5.1c-1-2-2-4-2.9-6.1c-1.7-1.7-3.5-3.3-5.2-5c-2.8-2.7-12-4-15.6-4.3
		c-12.9-1.3-30.2,3-42.5,6.5c-24.3,7-51.1,24-71.8,38.3l-15.2,10.6l-85-157.8l12-8.5c40.3-28.4,85.9-54.4,133.6-67.7
		c35-9.8,73-16.6,109.5-14c27.9,2,56.2,7.2,82,18.2c17.2,7.4,36.7,16.7,51.3,28.5c5.5,4.5,12.9,9.9,17.9,14.9
		c3.9,3.9,8.3,10.1,11.8,14.4c9.1,11.4,16.3,25.3,22.3,38.5c8.1,17.8,12,36.9,12.8,56.3c0.9,23.7-6.9,46.8-18.3,67.3
		c-11.2,20.1-28.5,37.2-47.3,51.5c20.5,14.6,39,32.2,52.2,53.6c13.9,22.5,24.4,47.3,27.8,73.7c2.9,22.3,2.7,45-1.6,67.1
		c-3.1,16-7.2,33.5-13.8,48.4c-2.6,5.9-5.2,12.2-8.1,18l-0.5,1.1l-0.7,1c-3.2,4.6-6.4,9.2-9.5,13.8c-8.9,12.8-21.5,24.2-33.7,33.9
		c-17.4,13.8-38.1,24.1-58.7,32.1c-27.7,10.8-58.4,13.5-87.8,12.4c-39-1.4-79.1-12-115.8-24.9c-51.5-18.1-101.6-47.4-146.8-77.8
		l-14-9.4l123.2-175.9L290,425c22.8,16.5,52.1,36.5,78.6,46.2c11.7,4.3,30.1,10.4,42.7,9.6c2.7-0.2,10.9-1,13-2.6
		C425.5,476.9,426.8,475.6,428,474.3L428,474.3z"/>
	<path class="st3" d="M534.5,348.7c31.1,18.4,53.7,39,67.8,61.8c14.1,22.8,22.6,45.2,25.4,67.1c2.8,21.9,2.4,42.5-1.4,61.8
		c-3.8,19.3-8,34.3-12.7,44.8c-4.7,10.6-7.3,16.4-7.8,17.3c0,0-3.2,4.6-9.5,13.8s-16.5,19.3-30.4,30.4c-13.9,11.1-32,20.9-54.4,29.7
		c-22.4,8.7-49.4,12.5-81.2,11.3c-31.8-1.2-68.7-9.2-110.9-24c-42.1-14.8-89.8-40.1-143-75.9l103.8-148.3
		c33.9,24.5,61.4,40.6,82.6,48.4c21.2,7.8,37.7,11.3,49.4,10.6c11.8-0.7,19.8-3.3,24-7.8c4.2-4.5,6.4-6.7,6.4-6.7
		c0-0.5,0.9-3.2,2.8-8.1c1.9-4.9,2.4-11.2,1.4-18.7c-0.9-7.5-4.8-14.6-11.7-21.2c-6.8-6.6-18.7-11.7-35.7-15.2
		c-16.9-3.5-40.5-3.9-70.6-1.1l7.8-120.8c32,2.8,54.7,2,68.1-2.5c13.4-4.5,21.7-10.1,24.7-16.9c3.1-6.8,3.2-13.2,0.4-19.1
		c-2.8-5.9-4.2-8.8-4.2-8.8s-2.5-2.4-7.4-7.1c-4.9-4.7-13.4-7.7-25.4-8.8c-12-1.2-28.2,1.2-48.7,7.1c-20.5,5.9-46,19.4-76.6,40.6
		l-69.2-128.5c46.1-32.5,89-54.3,128.5-65.3c39.5-11.1,74.2-15.5,103.8-13.4c29.7,2.1,55.2,7.8,76.6,16.9
		c21.4,9.2,37.2,17.9,47.3,26.1c10.1,8.2,15.7,12.8,16.6,13.8c0.5,0.5,4,4.8,10.6,13.1c6.6,8.2,13.3,19.9,20.1,35
		c6.8,15.1,10.6,31.8,11.3,50.1c0.7,18.4-4.7,37.9-16.2,58.6C585.5,309.4,564.7,329.4,534.5,348.7L534.5,348.7z"/>
	<path class="st4" d="M354.6,307.4c5.3,1,8.9,6.2,7.8,11.6c-1,5.3-6.2,8.9-11.5,7.8c-5.3-1-8.9-6.2-7.8-11.6
		C344.1,309.9,349.3,306.4,354.6,307.4L354.6,307.4z"/>
	<path class="st2" d="M355.5,308.9c4.2,0.8,6.9,4.8,6.1,9c-0.8,4.2-4.8,6.9-9,6.1c-4.2-0.8-6.9-4.8-6.1-9
		C347.3,310.8,351.4,308.1,355.5,308.9L355.5,308.9z"/>
	<path class="st4" d="M589.7,183.3c5.3,1,8.9,6.2,7.8,11.6c-1,5.3-6.2,8.9-11.6,7.8c-5.3-1-8.9-6.2-7.8-11.6
		C579.2,185.8,584.4,182.3,589.7,183.3L589.7,183.3z"/>
	<path class="st2" d="M590.6,184.8c4.2,0.8,6.9,4.8,6.1,9c-0.8,4.2-4.8,6.9-9,6.1c-4.2-0.8-6.9-4.8-6.1-9
		C582.4,186.7,586.4,184,590.6,184.8L590.6,184.8z"/>
	<path class="st4" d="M276.9,247.9c5.3,1,8.9,6.2,7.8,11.6c-1,5.3-6.2,8.9-11.5,7.8c-5.3-1-8.9-6.2-7.8-11.6
		C266.4,250.4,271.5,246.9,276.9,247.9L276.9,247.9z"/>
	<path class="st2" d="M277.8,249.3c4.2,0.8,6.9,4.8,6.1,9c-0.8,4.2-4.8,6.9-9,6.1c-4.2-0.8-6.9-4.8-6.1-9
		C269.6,251.3,273.6,248.5,277.8,249.3L277.8,249.3z"/>
	<path class="st4" d="M226.1,148.2c5.3,1,8.9,6.2,7.8,11.6c-1,5.3-6.2,8.9-11.5,7.8c-5.3-1-8.9-6.2-7.8-11.6
		C215.6,150.7,220.8,147.2,226.1,148.2L226.1,148.2z"/>
	<path class="st2" d="M227,149.7c4.2,0.8,6.9,4.8,6.1,9c-0.8,4.2-4.8,6.9-9,6.1c-4.2-0.8-6.9-4.8-6.1-9
		C218.8,151.6,222.9,148.9,227,149.7L227,149.7z"/>
	<path class="st5" d="M176.5,586.7c53.2,35.8,100.9,61.1,143,75.9c42.1,14.8,79.1,22.8,110.9,24c31.8,1.2,58.9-2.6,81.2-11.3
		c22.4-8.7,40.5-18.6,54.4-29.7c13.9-11.1,24-21.2,30.4-30.4l9.5-13.8c0.5-0.9,3.1-6.7,7.8-17.3c4.7-10.6,8.9-25.5,12.7-44.8
		c3.8-19.3,4.2-39.9,1.4-61.8c-2.8-21.9-11.3-44.3-25.4-67.1c-4.3-6.9-9.4-13.7-15.2-20.2c-58.6-5-120.3-7.7-184.1-7.7
		c-24.2,0-48.2,0.4-71.8,1.1l-2.2,34.8c30.1-2.8,53.7-2.5,70.6,1.1c16.9,3.5,28.8,8.6,35.7,15.2c6.8,6.6,10.7,13.7,11.7,21.2
		c0.9,7.5,0.5,13.8-1.4,18.7c-1.9,4.9-2.8,7.7-2.8,8.1l-6.4,6.7c-4.2,4.5-12.2,7.1-24,7.8c-11.8,0.7-28.2-2.8-49.4-10.6
		c-21.2-7.8-48.7-23.9-82.6-48.4L176.5,586.7L176.5,586.7z"/>
	<path class="st4" d="M609.4,551.3c5.3,1,8.9,6.2,7.8,11.6c-1,5.3-6.2,8.9-11.5,7.8c-5.3-1-8.9-6.2-7.8-11.6
		C598.9,553.8,604.1,550.3,609.4,551.3L609.4,551.3z"/>
	<path class="st2" d="M610.4,552.8c4.2,0.8,6.9,4.8,6.1,9c-0.8,4.2-4.8,6.9-9,6.1c-4.2-0.8-6.9-4.8-6.1-9
		C602.1,554.7,606.2,551.9,610.4,552.8L610.4,552.8z"/>
	<path class="st4" d="M202.6,572.6c5.3,1,8.9,6.2,7.8,11.6s-6.2,8.9-11.5,7.8c-5.3-1-8.9-6.2-7.8-11.6
		C192.1,575.1,197.3,571.6,202.6,572.6L202.6,572.6z"/>
	<path class="st2" d="M203.5,574.1c4.2,0.8,6.9,4.8,6.1,9c-0.8,4.2-4.8,6.9-9,6.1c-4.2-0.8-6.9-4.8-6.1-9
		C195.3,576,199.3,573.3,203.5,574.1L203.5,574.1z"/>
	<path class="st4" d="M286.6,454.7c5.3,1,8.9,6.2,7.8,11.6c-1,5.3-6.2,8.9-11.5,7.8c-5.3-1-8.9-6.2-7.8-11.6
		C276.1,457.2,281.3,453.7,286.6,454.7L286.6,454.7z"/>
	<path class="st2" d="M287.5,456.2c4.2,0.8,6.9,4.8,6.1,9c-0.8,4.2-4.8,6.9-9,6.1c-4.2-0.8-6.9-4.8-6.1-9
		C279.3,458.1,283.3,455.4,287.5,456.2L287.5,456.2z"/>
	<path class="st4" d="M348.4,391.4c5.3,1,8.9,6.2,7.8,11.6c-1,5.3-6.2,8.9-11.5,7.8c-5.3-1-8.9-6.2-7.8-11.6
		C337.8,393.9,343,390.4,348.4,391.4L348.4,391.4z"/>
	<path class="st2" d="M349.3,392.9c4.2,0.8,6.9,4.8,6.1,9c-0.8,4.2-4.8,6.9-9,6.1c-4.2-0.8-6.9-4.8-6.1-9
		C341,394.8,345.1,392.1,349.3,392.9L349.3,392.9z"/>
</g>
</svg>
