<?xml version="1.0" encoding="utf-8"?>
<!-- Generator: Adobe Illustrator 21.1.0, SVG Export Plug-In . SVG Version: 6.00 Build 0)  -->
<svg version="1.1" id="Warstwa_1" xmlns="http://www.w3.org/2000/svg" xmlns:xlink="http://www.w3.org/1999/xlink" x="0px" y="0px"
	 viewBox="0 0 792 792" style="enable-background:new 0 0 792 792;" xml:space="preserve">
<style type="text/css">
	.st0{fill:#EAAB11;}
	.st1{fill:#FFFF00;}
	.st2{fill:#00548C;}
	.st3{fill:#0094FF;}
	.st4{fill:#004574;}
	.st5{fill:#31ACFF;}
</style>
<g>
	<polygon class="st0" points="494.8,307 604.1,307 605.7,338.1 605.6,338.8 656.6,329.7 658.2,360.8 642.9,613.6 579,614.3 
		571.1,744.6 307.7,756 306.4,724.9 306.2,724.9 316,620 149.1,632.8 130.4,336.2 130.8,335.8 128.9,305.1 398.8,36 661.6,117.5 
		663.1,148.6 	"/>
	<polygon class="st1" points="460.2,307 604.1,307 598.5,340.1 656.6,329.7 641.3,582.5 577.4,583.2 569.6,713.5 306.2,724.9 
		319,588.5 147.6,601.7 128.9,305.1 398.8,36 661.6,117.5 	"/>
	<path class="st2" d="M403.9,329.3h173.8l-6.5,38.4l61.4-11l-12.3,203.7l-63.9,0.7l-7.9,130.9l-217.7,9.4l12.9-137.2l-175.2,13.4
		l-16.6-263.9L405,61.3l213.3,66.2L403.9,329.3L403.9,329.3z M359.6,371h14.7l0.8-14.6L359.6,371L359.6,371z"/>
	<polygon class="st3" points="409.7,80.5 585.7,135 317.1,387.9 390.4,387.9 392.5,346.2 557.7,346.2 550.5,388.6 614.4,377.1 
		604.4,543.7 540.5,544.4 532.6,675.9 349.4,683.8 362.3,545.9 184.2,559.5 169.1,320.3 	"/>
	<path class="st4" d="M548.7,136.1c5.4,1,9,6.3,8,11.7c-1,5.4-6.3,9-11.7,8c-5.4-1-9-6.3-8-11.7C538,138.7,543.3,135.1,548.7,136.1
		L548.7,136.1z"/>
	<path class="st2" d="M549.6,137.6c4.2,0.8,7,4.9,6.2,9.2c-0.8,4.2-4.9,7-9.2,6.2c-4.2-0.8-7-4.9-6.2-9.2
		C541.3,139.6,545.4,136.8,549.6,137.6L549.6,137.6z"/>
	<path class="st4" d="M418.4,97.9c5.4,1,9,6.3,8,11.7c-1,5.4-6.3,9-11.7,8c-5.4-1-9-6.3-8-11.7C407.7,100.4,412.9,96.8,418.4,97.9
		L418.4,97.9z"/>
	<path class="st2" d="M419.3,99.4c4.2,0.8,7,4.9,6.2,9.2c-0.8,4.2-4.9,7-9.2,6.2c-4.2-0.8-7-4.9-6.2-9.2
		C410.9,101.3,415,98.6,419.3,99.4L419.3,99.4z"/>
	<path class="st5" d="M173.7,393l10.5,166.5l178.1-13.6l-12.9,137.9l183.2-7.9l7.9-131.4l63.9-0.7l9.1-150.3
		c-19.7-2-39.8-3.8-60.3-5.3l-2.6,0.5l0.1-0.7c-51-3.6-104.2-5.6-158.8-5.6c-0.4,0-0.8,0-1.2,0l-0.3,5.5h-73.3l4.7-4.4
		C270.6,385,221.1,388.2,173.7,393L173.7,393z"/>
	<path class="st4" d="M518.8,650.3c5.4,1,9,6.3,8,11.7c-1,5.4-6.3,9-11.7,8c-5.4-1-9-6.3-8-11.7
		C508.1,652.8,513.3,649.3,518.8,650.3L518.8,650.3z"/>
	<path class="st2" d="M519.7,651.8c4.2,0.8,7,4.9,6.2,9.2c-0.8,4.2-4.9,7-9.2,6.2c-4.2-0.8-7-4.9-6.2-9.2
		C511.3,653.8,515.4,651,519.7,651.8L519.7,651.8z"/>
	<path class="st4" d="M589.5,515.5c5.4,1,9,6.3,8,11.7c-1,5.4-6.3,9-11.7,8c-5.4-1-9-6.3-8-11.7C578.8,518,584.1,514.4,589.5,515.5
		L589.5,515.5z"/>
	<path class="st2" d="M590.5,517c4.2,0.8,7,4.9,6.2,9.2c-0.8,4.2-4.9,7-9.2,6.2c-4.2-0.8-7-4.9-6.2-9.2
		C582.1,518.9,586.2,516.2,590.5,517L590.5,517z"/>
	<path class="st4" d="M595.9,391.8c5.4,1,9,6.3,8,11.7c-1,5.4-6.3,9-11.7,8c-5.4-1-9-6.3-8-11.7
		C585.2,394.3,590.5,390.8,595.9,391.8L595.9,391.8z"/>
	<path class="st2" d="M596.8,393.3c4.2,0.8,7,4.9,6.2,9.2c-0.8,4.2-4.9,7-9.2,6.2c-4.2-0.8-7-4.9-6.2-9.2
		C588.5,395.3,592.6,392.5,596.8,393.3L596.8,393.3z"/>
	<path class="st4" d="M529.8,355.7c5.4,1,9,6.3,8,11.7s-6.3,9-11.7,8c-5.4-1-9-6.3-8-11.7C519.1,358.2,524.3,354.6,529.8,355.7
		L529.8,355.7z"/>
	<path class="st2" d="M530.7,357.2c4.2,0.8,7,4.9,6.2,9.2c-0.8,4.2-4.9,7-9.2,6.2c-4.2-0.8-7-4.9-6.2-9.2
		C522.3,359.1,526.4,356.4,530.7,357.2L530.7,357.2z"/>
	<path class="st4" d="M418.7,357.4c5.4,1,9,6.3,8,11.7c-1,5.4-6.3,9-11.7,8c-5.4-1-9-6.3-8-11.7C408,359.9,413.2,356.3,418.7,357.4
		L418.7,357.4z"/>
	<path class="st2" d="M419.6,358.9c4.2,0.8,7,4.9,6.2,9.2c-0.8,4.2-4.9,7-9.2,6.2c-4.2-0.8-7-4.9-6.2-9.2
		C411.2,360.8,415.3,358,419.6,358.9L419.6,358.9z"/>
	<path class="st4" d="M371.2,654.2c5.4,1,9,6.3,8,11.7c-1,5.4-6.3,9-11.7,8c-5.4-1-9-6.3-8-11.7
		C360.5,656.7,365.7,653.1,371.2,654.2L371.2,654.2z"/>
	<path class="st2" d="M372.1,655.6c4.2,0.8,7,4.9,6.2,9.2c-0.8,4.2-4.9,7-9.2,6.2c-4.2-0.8-7-4.9-6.2-9.2
		C363.7,657.6,367.8,654.8,372.1,655.6L372.1,655.6z"/>
	<path class="st4" d="M209.5,523.1c5.4,1,9,6.3,8,11.7c-1,5.4-6.3,9-11.7,8c-5.4-1-9-6.3-8-11.7
		C198.8,525.7,204.1,522.1,209.5,523.1L209.5,523.1z"/>
	<path class="st2" d="M210.5,524.6c4.2,0.8,7,4.9,6.2,9.2c-0.8,4.2-4.9,7-9.2,6.2c-4.2-0.8-7-4.9-6.2-9.2
		C202.1,526.6,206.2,523.8,210.5,524.6L210.5,524.6z"/>
	<path class="st4" d="M195.5,319.1c5.4,1,9,6.3,8,11.7c-1,5.4-6.3,9-11.7,8c-5.4-1-9-6.3-8-11.7
		C184.8,321.6,190.1,318.1,195.5,319.1L195.5,319.1z"/>
	<path class="st2" d="M196.4,320.6c4.2,0.8,7,4.9,6.2,9.2c-0.8,4.2-4.9,7-9.2,6.2c-4.2-0.8-7-4.9-6.2-9.2
		C188.1,322.6,192.2,319.8,196.4,320.6L196.4,320.6z"/>
</g>
</svg>
