<?xml version="1.0" encoding="utf-8"?>
<!-- Generator: Adobe Illustrator 21.1.0, SVG Export Plug-In . SVG Version: 6.00 Build 0)  -->
<svg version="1.1" id="Warstwa_1" xmlns="http://www.w3.org/2000/svg" xmlns:xlink="http://www.w3.org/1999/xlink" x="0px" y="0px"
	 viewBox="0 0 792 792" style="enable-background:new 0 0 792 792;" xml:space="preserve">
<style type="text/css">
	.st0{fill:#EAAB11;}
	.st1{fill:#FFFF00;}
	.st2{fill:#00548C;}
	.st3{fill:#0094FF;}
	.st4{fill:#004574;}
	.st5{fill:#31ACFF;}
</style>
<g>
	<path class="st0" d="M633.8,68.3l5.8,232.4l-39.2-0.4c4.8,4.8,9.3,9.8,13.7,15c23.8,28.6,36,62.6,38.5,99.5l0.1,1.4v1.4v15
		c0.7,4.8,1.2,9.7,1.5,14.6l0.1,1.4v1.4v16.4c0,16.6-3,33.4-6.5,49.6c-4.7,22.1-12.5,43.6-21.7,64.2c-11.6,25.7-28,49-46.8,69.9
		c-22.5,25.1-50.2,44.9-79.9,60.6c-36.4,19.3-77.3,30.6-117.7,37.7c-52.5,9.3-107.2,9.1-160.3,5l-31-2.4L139.3,485l-1.6-32.3
		l30.7,6.7l31.7-402.5L632.2,36l0.8,32.4L633.8,68.3L633.8,68.3z"/>
	<path class="st1" d="M558.8,267.6c20.9,12.8,39.4,28.7,55.3,47.7c23.8,28.6,36,62.6,38.5,99.5l0.1,1.4v1.4c0,5.5,0,10.9,0,16.4
		c0,16.6-3,33.4-6.5,49.6c-4.7,22.1-12.5,43.6-21.7,64.2c-11.6,25.7-28,49-46.8,69.9c-22.5,25.1-50.2,44.9-79.9,60.6
		c-36.4,19.3-77.3,30.6-117.7,37.7c-52.5,9.3-107.2,9.1-160.3,5l-31-2.4l-51.1-265.9l30.7,6.7l31.7-402.5L632.2,36l5.8,232.4
		L558.8,267.6L558.8,267.6z M201.9,466.7c26.3,5.6,55.6,10,82.3,7.7c15.1-1.3,34.4-4.1,48-11.2c8.6-4.5,17.9-10.5,24.2-18
		c1.6-1.9,4.6-5.6,6.9-9c-7.7-1.5-15.7-2-23.4-2.2c-12.8-0.2-25.5,0.5-38.2,2c-13.2,1.5-26.2,4.1-39,7.5
		c-11.5,3.1-22.9,6.7-33.8,11.4L201.9,466.7L201.9,466.7z"/>
	<path class="st2" d="M377.5,254.6c19.7-2.8,39.8-3.2,59.7-1.5c30.9,2.6,60.8,10,88.9,23.3c27.3,12.8,50.9,30.8,70.2,53.9
		c20.6,24.8,31,54.1,33.1,86.2l0,0.6v0.6c0,5.5,0,10.9,0,16.4c0,14.6-2.9,30.5-6,44.7c-4.4,20.5-11.6,40.4-20.2,59.5
		c-10.6,23.5-25.7,44.8-42.9,63.9c-20.7,23-46.2,41.2-73.5,55.6c-34,18.1-73,28.7-110.8,35.4c-50.3,8.9-103.6,8.6-154.4,4.7l-13.3-1
		l-41.1-213.9l26,5.7c29.4,6.4,62.8,11.5,93,9c18.5-1.6,40.2-5,56.8-13.7c11.4-6,22.9-13.7,31.2-23.7c4.6-5.5,11.3-14.1,13.7-21
		c1-3,2.3-6.3,3.1-9.3l0-0.2c0.5-2.2,0.9-5-0.8-6.8c-4.2-4.2-11-6.7-16.6-8.1c-10.7-2.8-22.2-3.7-33.3-3.9
		c-13.8-0.2-27.6,0.5-41.3,2.1c-14.3,1.7-28.4,4.4-42.3,8.1c-12.6,3.4-25.1,7.4-37.1,12.6l-26.8,11.6l28.9-366.2l387.9-18.8
		l4.6,184.6l-232.5-2.3L377.5,254.6L377.5,254.6z"/>
	<path class="st3" d="M350.6,278c26.9-7.5,55.2-10,85.1-7.5c29.9,2.5,57.5,9.7,82.9,21.6c25.4,11.9,46.8,28.4,64.2,49.3
		c17.4,20.9,27.1,46.3,29.1,76.1c0,0.5,0,6,0,16.4c0,10-1.9,23.6-5.6,41.1c-3.7,17.4-10.1,36.1-19,56c-9,19.9-22.3,39.7-39.9,59.3
		c-17.7,19.7-40.6,36.9-68.7,51.9c-28.1,14.9-63.3,26.1-105.6,33.6c-42.3,7.5-92.3,9-150,4.5l-33.6-174.7
		c38.8,8.5,71.5,11.6,98.2,9.3c26.6-2.2,47.8-7.5,63.4-15.7c15.7-8.2,27.9-17.5,36.6-28c8.7-10.5,14.3-19.3,16.8-26.5
		c2.5-7.2,3.7-11.1,3.7-11.6c2-9.5,0.1-17-5.6-22.8c-5.7-5.7-13.9-10-24.6-12.7c-10.7-2.7-23.1-4.2-37.3-4.5
		c-14.2-0.3-28.7,0.5-43.7,2.2c-14.9,1.7-29.9,4.6-44.8,8.6c-14.9,4-28.1,8.5-39.6,13.4l25.4-321.7l354.6-17.2l3.7,148.5L369.3,225
		L350.6,278L350.6,278z"/>
	<path class="st4" d="M579.2,201.9c5.7,1.1,9.4,6.6,8.3,12.2c-1.1,5.7-6.6,9.4-12.2,8.3c-5.7-1.1-9.4-6.6-8.3-12.2
		C568.1,204.5,573.6,200.8,579.2,201.9L579.2,201.9z"/>
	<path class="st2" d="M580.2,203.5c4.4,0.8,7.3,5.1,6.5,9.5c-0.9,4.4-5.1,7.3-9.5,6.5c-4.4-0.9-7.3-5.1-6.5-9.5
		C571.5,205.5,575.8,202.6,580.2,203.5L580.2,203.5z"/>
	<path class="st4" d="M577.3,86.6c5.7,1.1,9.4,6.6,8.3,12.2c-1.1,5.7-6.6,9.4-12.2,8.3s-9.4-6.6-8.3-12.2
		C566.1,89.2,571.6,85.5,577.3,86.6L577.3,86.6z"/>
	<path class="st2" d="M578.2,88.2c4.4,0.8,7.3,5.1,6.5,9.5c-0.9,4.4-5.1,7.3-9.5,6.5c-4.4-0.9-7.3-5.1-6.5-9.5
		C569.5,90.2,573.8,87.3,578.2,88.2L578.2,88.2z"/>
	<path class="st4" d="M257.9,101.2c5.7,1.1,9.4,6.6,8.3,12.2c-1.1,5.7-6.6,9.4-12.2,8.3c-5.7-1.1-9.4-6.6-8.3-12.2
		C246.8,103.8,252.2,100.1,257.9,101.2L257.9,101.2z"/>
	<path class="st2" d="M258.9,102.7c4.4,0.8,7.3,5.1,6.5,9.5c-0.9,4.4-5.1,7.3-9.5,6.5c-4.4-0.9-7.3-5.1-6.5-9.5
		C250.2,104.8,254.4,101.9,258.9,102.7L258.9,102.7z"/>
	<path class="st5" d="M351,499.3c-15.7,8.2-36.8,13.4-63.4,15.7c-26.6,2.2-59.3-0.9-98.2-9.3L223,680.3c57.7,4.5,107.7,3,150-4.5
		c42.3-7.5,77.5-18.7,105.6-33.6c28.1-14.9,51-32.2,68.7-51.9c17.7-19.7,31-39.4,39.9-59.3c9-19.9,15.3-38.6,19-56
		c3.7-17.4,5.6-31.1,5.6-41.1v-16.4c-0.6-9.3-2-18.1-4.1-26.5c-65.6-6-135.2-9.2-207.2-9.2c-64.2,0-126.5,2.6-185.9,7.4l-2.2,28.4
		c11.4-5,24.6-9.5,39.6-13.4c14.9-4,29.9-6.8,44.8-8.6c14.9-1.7,29.5-2.5,43.7-2.2c14.2,0.2,26.6,1.7,37.3,4.5
		c10.7,2.7,18.9,7,24.6,12.7c5.7,5.7,7.6,13.3,5.6,22.8c0,0.5-1.2,4.4-3.7,11.6c-2.5,7.2-8.1,16-16.8,26.5
		C378.9,481.8,366.7,491.1,351,499.3L351,499.3z"/>
	<path class="st4" d="M592.5,446.4c5.7,1.1,9.4,6.6,8.3,12.2c-1.1,5.7-6.6,9.4-12.2,8.3c-5.7-1.1-9.4-6.6-8.3-12.2
		C581.4,449,586.8,445.3,592.5,446.4L592.5,446.4z"/>
	<path class="st2" d="M593.5,447.9c4.4,0.8,7.3,5.1,6.5,9.5c-0.9,4.4-5.1,7.3-9.5,6.5c-4.4-0.9-7.3-5.1-6.5-9.5
		C584.8,450,589,447.1,593.5,447.9L593.5,447.9z"/>
	<path class="st4" d="M242.7,650.5c5.7,1.1,9.4,6.6,8.3,12.2c-1.1,5.7-6.6,9.4-12.2,8.3c-5.7-1.1-9.4-6.6-8.3-12.2
		C231.5,653.1,237,649.4,242.7,650.5L242.7,650.5z"/>
	<path class="st2" d="M243.6,652c4.4,0.8,7.3,5.1,6.5,9.5c-0.9,4.4-5.1,7.3-9.5,6.5c-4.4-0.9-7.3-5.1-6.5-9.5
		C234.9,654.1,239.2,651.2,243.6,652L243.6,652z"/>
	<path class="st4" d="M216.1,521.9c5.7,1.1,9.4,6.6,8.3,12.2c-1.1,5.7-6.6,9.4-12.2,8.3c-5.7-1.1-9.4-6.6-8.3-12.2
		C205,524.6,210.5,520.9,216.1,521.9L216.1,521.9z"/>
	<path class="st2" d="M217.1,523.5c4.4,0.8,7.3,5.1,6.5,9.5c-0.9,4.4-5.1,7.3-9.5,6.5c-4.4-0.9-7.3-5.1-6.5-9.5
		C208.4,525.5,212.7,522.6,217.1,523.5L217.1,523.5z"/>
	<path class="st4" d="M237.3,374.8c5.7,1.1,9.4,6.6,8.3,12.2c-1.1,5.7-6.6,9.4-12.2,8.3c-5.7-1.1-9.4-6.6-8.3-12.2
		C226.2,377.5,231.7,373.8,237.3,374.8L237.3,374.8z"/>
	<path class="st2" d="M238.3,376.4c4.4,0.8,7.3,5.1,6.5,9.5c-0.9,4.4-5.1,7.3-9.5,6.5c-4.4-0.9-7.3-5.1-6.5-9.5
		C229.6,378.4,233.9,375.5,238.3,376.4L238.3,376.4z"/>
</g>
</svg>
