<?xml version="1.0" encoding="utf-8"?>
<!-- Generator: Adobe Illustrator 21.1.0, SVG Export Plug-In . SVG Version: 6.00 Build 0)  -->
<svg version="1.1" id="Warstwa_1" xmlns="http://www.w3.org/2000/svg" xmlns:xlink="http://www.w3.org/1999/xlink" x="0px" y="0px"
	 viewBox="0 0 792 792" style="enable-background:new 0 0 792 792;" xml:space="preserve">
<style type="text/css">
	.st0{fill:#EAAB11;}
	.st1{fill:#FFFF00;}
	.st2{fill:#00548C;}
	.st3{fill:#0094FF;}
	.st4{fill:#004574;}
	.st5{fill:#31ACFF;}
	.st6{fill:#E2E6EA;}
</style>
<g>
	<path class="st0" d="M595.6,193.1l1.5,30l-33.8,26.8c-13.3,10.6-26.2,21.6-38.7,33.2c7,3.3,13.9,7,20.4,11.3
		c9.2,6,18.3,12.3,26.2,19.9c2.8,2.6,5.6,5.2,8.5,8.1l0.8,0.8c30,32.1,52.6,70.7,57.7,115c1.1,9.9,1.6,19.7,1.4,29.4
		c0,0.2,0,0.4,0.1,0.6c4.4,38.3-1.1,75.7-16.9,110.9c-15.6,34.8-38.4,65-66.4,90.7c-27.8,25.5-59.2,46.5-93.8,61.8
		c-33.7,14.9-69.4,23.5-106.3,24.4c-37.2,0.8-73.2-8.6-104-29.9l-2.9-2l-1.8-1.8c-3.9-3.6-8.1-7-12.1-10.5
		c-13.6-11.8-25.2-26.5-35.7-41.1c-14.8-20.6-25.8-43.9-34.1-67.8c-9.5-27.3-13.1-56.4-13.3-85.3c-1.3-13.4-1.7-26.8-1.4-40.2
		c0.9-40.7,11.7-81.2,26.5-118.9c19.4-49.6,48.9-96.1,80.3-138.9c43.1-58.6,95.3-111.3,149.3-159.9L433.2,36L595.6,193.1
		L595.6,193.1z"/>
	<path class="st1" d="M501.5,274.1c1.3,0.4,2.6,0.8,3.9,1.3c13.9,4.7,27.3,11,39.6,19c9.2,6,18.3,12.3,26.2,19.9
		c2.8,2.6,5.6,5.2,8.5,8.1l0.8,0.8c30,32.1,52.6,70.7,57.7,115c4.4,38.3-1.1,75.7-16.9,110.9c-15.6,34.8-38.4,65-66.4,90.7
		c-27.8,25.5-59.2,46.5-93.8,61.8c-33.7,14.9-69.4,23.5-106.3,24.4c-37.2,0.8-73.2-8.6-104-29.9l-2.9-2l-1.8-1.8
		c-3.9-3.6-8.1-7-12.1-10.5c-13.6-11.8-25.2-26.5-35.7-41.1c-14.8-20.6-25.8-43.9-34.1-67.8c-10.7-30.5-13.9-63.3-13.2-95.4
		c0.9-40.7,11.7-81.2,26.5-118.9c19.4-49.6,48.9-96.1,80.3-138.9c43.1-58.6,95.3-111.3,149.3-159.9L433.2,36l162.4,157.1l-33.7,26.8
		c-16.5,13.1-32.3,26.9-47.4,41.5C510.1,265.6,505.8,269.9,501.5,274.1L501.5,274.1z"/>
	<path class="st2" d="M457.3,289.4c14,0,28,1.9,41.2,6.4c12.2,4.2,24,9.6,34.8,16.7c7.9,5.1,16.3,10.9,23.1,17.4
		c2.6,2.5,5.4,5,7.9,7.6l0.2,0.2l0.2,0.2c26.6,28.8,47.4,63.1,52,102.7c4,34.5-1,67.9-15.2,99.6c-14.4,32.1-35.5,59.9-61.4,83.6
		c-26.1,24-55.5,43.6-87.9,58c-31.1,13.8-64,21.8-98,22.5c-32.9,0.7-64.1-7.4-91.3-26.1l-1.2-0.9l-0.7-0.7c-4.2-3.8-8.7-7.6-13-11.3
		C236,655,225,641,215.7,628c-13.6-18.9-23.6-40.5-31.3-62.3c-9.8-27.9-12.6-58.4-12-87.8c0.8-38,11.2-76.3,25-111.6
		c18.5-47.5,47.5-93,77.6-134c41.9-57.1,93.8-109.3,146.3-156.6l11.3-10.2l130.3,126L548.4,203c-17,13.5-33.4,27.8-49,42.9
		c-13.5,13.1-26.8,26.5-39.5,40.5C459,287.4,458.1,288.4,457.3,289.4L457.3,289.4z"/>
	<path class="st3" d="M552.8,349c28.2,30.5,44.1,61.7,47.8,93.5c3.7,31.9-0.9,62.2-13.9,91.1c-12.9,28.9-32.1,55-57.5,78.3
		c-25.4,23.3-53.2,41.7-83.5,55.1c-30.3,13.4-60.9,20.4-91.8,21.1c-30.9,0.7-58.2-7-81.8-23.2c-0.5-0.5-5-4.4-13.5-11.8
		c-8.5-7.4-18.5-18.9-29.8-34.6c-11.3-15.7-21-35.1-29.1-58.2c-8.1-23.1-11.8-50.5-11.1-82.1c0.7-31.6,8.7-67,23.9-106
		c15.2-39,40.4-82.5,75.5-130.3c35.1-47.8,83.1-99.2,144.1-154.2l106,102.5c-18,14.3-34.8,29-50.2,44c-15.5,15-28.9,28.8-40.2,41.2
		c-11.3,12.5-20.2,22.6-26.7,30.5c-6.5,7.9-9.7,11.8-9.7,11.8c14.8-7.9,29.2-11.9,43.3-12.1c14.1-0.2,26.9,1.6,38.5,5.5
		c11.5,3.9,21.9,8.9,31.2,14.9c9.2,6,16.2,11.2,20.8,15.6C549.8,346.1,552.4,348.5,552.8,349L552.8,349z"/>
	<path class="st4" d="M514.9,181.8c5.2,1,8.7,6.1,7.7,11.3c-1,5.2-6.1,8.7-11.3,7.7c-5.2-1-8.7-6.1-7.7-11.3
		C504.6,184.3,509.6,180.8,514.9,181.8L514.9,181.8z"/>
	<path class="st2" d="M515.8,183.3c4.1,0.8,6.8,4.7,6,8.8c-0.8,4.1-4.7,6.8-8.8,6c-4.1-0.8-6.8-4.8-6-8.8
		C507.7,185.2,511.7,182.5,515.8,183.3L515.8,183.3z"/>
	<path class="st4" d="M434.3,103.1c5.2,1,8.7,6.1,7.7,11.3c-1,5.2-6.1,8.7-11.3,7.7c-5.2-1-8.7-6.1-7.7-11.3
		C424,105.5,429.1,102.1,434.3,103.1L434.3,103.1z"/>
	<path class="st2" d="M435.2,104.6c4.1,0.8,6.8,4.8,6,8.8c-0.8,4.1-4.8,6.8-8.8,6c-4.1-0.8-6.8-4.8-6-8.8
		C427.2,106.4,431.1,103.8,435.2,104.6L435.2,104.6z"/>
	<path class="st4" d="M400.5,323.9c5.2,1,8.7,6.1,7.7,11.3c-1,5.2-6.1,8.7-11.3,7.7c-5.2-1-8.7-6.1-7.7-11.3
		C390.2,326.3,395.2,322.9,400.5,323.9L400.5,323.9z"/>
	<path class="st2" d="M401.4,325.4c4.1,0.8,6.8,4.8,6,8.8c-0.8,4.1-4.8,6.8-8.8,6c-4.1-0.8-6.8-4.8-6-8.8
		C393.3,327.2,397.3,324.6,401.4,325.4L401.4,325.4z"/>
	<path class="st5" d="M205.8,390.9c-10.8,31.7-16.5,60.8-17.1,87.3c-0.7,31.6,3,59,11.1,82.1c8.1,23.1,17.8,42.5,29.1,58.2
		c11.3,15.7,21.2,27.3,29.8,34.6c8.5,7.4,13,11.3,13.5,11.8c23.6,16.2,50.8,23.9,81.8,23.2s61.5-7.7,91.8-21.1
		c30.3-13.4,58.1-31.8,83.5-55.1c25.4-23.3,44.6-49.4,57.5-78.3c12.9-28.9,17.6-59.2,13.9-91.1c-2-17.4-7.7-34.7-17.1-51.7
		c-59.8-5.3-122.9-8.2-188.3-8.2C329.5,382.6,265.9,385.5,205.8,390.9L205.8,390.9z"/>
	<path class="st4" d="M584.6,474.2c5.2,1,8.7,6.1,7.7,11.3c-1,5.2-6.1,8.7-11.3,7.7c-5.2-1-8.7-6.1-7.7-11.3
		C574.2,476.6,579.3,473.2,584.6,474.2L584.6,474.2z"/>
	<path class="st2" d="M585.4,475.6c4.1,0.8,6.8,4.8,6,8.9c-0.8,4.1-4.7,6.8-8.8,6c-4.1-0.8-6.8-4.7-6-8.8
		C577.4,477.5,581.4,474.8,585.4,475.6L585.4,475.6z"/>
	<path class="st4" d="M342.7,661c5.2,1,8.7,6.1,7.7,11.3c-1,5.2-6.1,8.7-11.3,7.7c-5.2-1-8.7-6.1-7.7-11.3S337.4,659.9,342.7,661
		L342.7,661z"/>
	<path class="st2" d="M343.6,662.4c4.1,0.8,6.8,4.7,6,8.8c-0.8,4.1-4.8,6.8-8.8,6c-4.1-0.8-6.8-4.8-6-8.9
		C335.5,664.3,339.5,661.6,343.6,662.4L343.6,662.4z"/>
	<path class="st4" d="M209.2,465.4c5.2,1,8.7,6.1,7.7,11.3c-1,5.2-6.1,8.7-11.3,7.7c-5.2-1-8.7-6.1-7.7-11.3
		C198.9,467.8,204,464.4,209.2,465.4L209.2,465.4z"/>
	<path class="st2" d="M210.1,466.8c4.1,0.8,6.8,4.7,6,8.8c-0.8,4.1-4.8,6.8-8.8,6c-4.1-0.8-6.8-4.8-6-8.9
		C202,468.7,206,466,210.1,466.8L210.1,466.8z"/>
	<path class="st2" d="M325.7,481.5v-0.6c0-4.8-0.6-22.1-9.5-34c-9-12.5-25.1-13.1-29.8-13.1c-18.5,0-31.6,18.5-31.6,35.8
		c0,40,23.9,50.7,36.4,50.7c7.2,0,12.5-1.8,16.7-6c0.6-0.6,1.2-1.2,1.8-1.8c3-3,7.8-8.4,11.3-11.9
		C325.7,495.8,325.7,486.3,325.7,481.5L325.7,481.5z"/>
	<path class="st2" d="M414,380.7c-7.8-6.6-16.1-10.1-25.1-10.1c-4.8,0-9.5,0.6-13.7,2.4c-29.2,11.3-31,41.2-31,47.1
		c0,10.1,2.4,16.1,4.8,21.5c0.6,1.2,0.6,1.8,1.2,3c1.8,4.8,11.9,11.3,22.1,15.5c6.6,2.4,15.5,3,20.3,3c3.6,0,8.4,0,10.1-0.6
		c26.3-8.9,26.9-41.8,26.9-42.4C428.9,420.1,427.7,392.6,414,380.7L414,380.7z"/>
	<path class="st2" d="M481.4,426.6c-6,0-20.3,1.2-32.2,13.7c-12.5,12.5-13.1,35.2-13.1,40c0,13.7,5.4,19.7,14.3,29.8l1.8,1.8
		c6,6.6,13.1,10.1,20.3,10.1c4.2,0,9-1.2,14.3-3.6c7.8-3.6,26.9-15.5,26.9-51.9C513.7,433.2,490.4,426.6,481.4,426.6L481.4,426.6z"
		/>
	<path class="st2" d="M445.6,526.9c-1.2-1.2-2.4-1.8-3-2.4c-6.6-5.4-21.5-24.5-25.7-31.6c-4.8-7.8-14.9-16.7-35.2-16.7
		c-19.7,0-27.4,7.2-34,16.1c-4.2,4.8-17.3,22.1-22.7,26.9c-0.6,0.6-1.8,1.8-3.6,2.4c-7.2,4.8-20.3,14.3-20.3,34
		c0,20.3,7.2,35.8,20.9,45.9c4.2,3,10.7,4.8,17.9,4.8c9,0,17.3-2.4,19.7-3c3.6-1.2,10.1-3,22.1-3c10.1,0,17.3,2.4,24.5,4.8
		c6.6,2.4,12.5,4.2,20.3,4.2c18.5,0,38.2-16.7,38.2-44.2C464.7,541.2,452.8,532.2,445.6,526.9L445.6,526.9z"/>
	<path class="st6" d="M325.7,468.7v-0.6c0-4.8-0.6-22.1-9.5-34c-9-12.5-25.1-13.1-29.8-13.1c-18.5,0-31.6,18.5-31.6,35.8
		c0,40,23.9,50.7,36.4,50.7c7.2,0,12.5-1.8,16.7-6c0.6-0.6,1.2-1.2,1.8-1.8c3-3,7.8-8.4,11.3-11.9
		C325.7,483,325.7,473.5,325.7,468.7L325.7,468.7z"/>
	<path class="st6" d="M414,367.9c-7.8-6.6-16.1-10.1-25.1-10.1c-4.8,0-9.5,0.6-13.7,2.4c-29.2,11.3-31,41.2-31,47.1
		c0,10.1,2.4,16.1,4.8,21.5c0.6,1.2,0.6,1.8,1.2,3c1.8,4.8,11.9,11.3,22.1,15.5c6.6,2.4,15.5,3,20.3,3c3.6,0,8.4,0,10.1-0.6
		c26.3-9,26.9-41.8,26.9-42.4C428.9,407.3,427.7,379.8,414,367.9L414,367.9z"/>
	<path class="st6" d="M481.4,413.8c-6,0-20.3,1.2-32.2,13.7c-12.5,12.5-13.1,35.2-13.1,40c0,13.7,5.4,19.7,14.3,29.8l1.8,1.8
		c6,6.6,13.1,10.1,20.3,10.1c4.2,0,9-1.2,14.3-3.6c7.8-3.6,26.9-15.5,26.9-51.9C513.7,420.4,490.4,413.8,481.4,413.8L481.4,413.8z"
		/>
	<path class="st6" d="M445.6,514.1c-1.2-1.2-2.4-1.8-3-2.4c-6.6-5.4-21.5-24.5-25.7-31.6c-4.8-7.8-14.9-16.7-35.2-16.7
		c-19.7,0-27.4,7.2-34,16.1c-4.2,4.8-17.3,22.1-22.7,26.9c-0.6,0.6-1.8,1.8-3.6,2.4c-7.2,4.8-20.3,14.3-20.3,34
		c0,20.3,7.2,35.8,20.9,45.9c4.2,3,10.7,4.8,17.9,4.8c9,0,17.3-2.4,19.7-3c3.6-1.2,10.1-3,22.1-3c10.1,0,17.3,2.4,24.5,4.8
		c6.6,2.4,12.5,4.2,20.3,4.2c18.5,0,38.2-16.7,38.2-44.2C464.7,528.4,452.8,519.4,445.6,514.1L445.6,514.1z"/>
</g>
</svg>
