<?xml version="1.0" encoding="utf-8"?>
<!-- Generator: Adobe Illustrator 21.1.0, SVG Export Plug-In . SVG Version: 6.00 Build 0)  -->
<svg version="1.1" id="Warstwa_1" xmlns="http://www.w3.org/2000/svg" xmlns:xlink="http://www.w3.org/1999/xlink" x="0px" y="0px"
	 viewBox="0 0 792 792" style="enable-background:new 0 0 792 792;" xml:space="preserve">
<style type="text/css">
	.st0{fill:#EAAB11;}
	.st1{fill:#FFFF00;}
	.st2{fill:#00548C;}
	.st3{fill:#0094FF;}
	.st4{fill:#004574;}
	.st5{fill:#31ACFF;}
</style>
<g>
	<polygon class="st0" points="625.9,258.4 627.4,289.9 590.2,501.6 536.6,503.8 475.8,756 193.5,723.1 191.9,691.7 247.7,513.5 
		213.5,514.7 212,483.3 221.5,329.3 157.9,336.9 142.5,95.2 142.9,95.2 140.9,63.8 649.5,36 651.1,67.5 595.3,259.4 	"/>
	<polygon class="st1" points="584.5,259.7 625.9,258.4 588.6,470.1 535.1,472.4 474.2,724.5 191.9,691.7 257.7,481.6 212,483.3 
		223.4,297.4 156.3,305.4 140.9,63.8 649.5,36 	"/>
	<polygon class="st2" points="554.1,283.2 598.8,281.9 569.5,448.3 517.1,450.5 457,699.8 221.6,672.4 288.9,457.8 236.1,459.8 
		246.2,296.5 341.4,291.1 354.6,258.9 177.3,280.1 164.9,85.1 618.9,60.3 	"/>
	<polygon class="st3" points="595.8,78.7 531.1,301 578.3,299.6 555.1,431.8 503.5,434 443.9,681.1 244.1,657.8 312.4,439.8 
		254.3,442 262.3,312.6 353.1,307.6 381.4,238.5 193.2,261.1 183,101.2 	"/>
	<path class="st4" d="M560,306.7c5.5,1.1,9.1,6.4,8.1,11.9c-1.1,5.5-6.4,9.1-11.9,8.1c-5.5-1.1-9.1-6.4-8.1-11.9
		C549.2,309.2,554.5,305.6,560,306.7L560,306.7z"/>
	<path class="st2" d="M560.9,308.2c4.3,0.8,7.1,5,6.3,9.3c-0.8,4.3-5,7.1-9.3,6.3c-4.3-0.8-7.1-5-6.3-9.3
		C552.5,310.1,556.6,307.3,560.9,308.2L560.9,308.2z"/>
	<path class="st4" d="M279.8,317.8c5.5,1.1,9.1,6.4,8.1,11.9c-1.1,5.5-6.4,9.1-11.9,8.1c-5.5-1.1-9.1-6.4-8.1-11.9
		C269,320.4,274.3,316.8,279.8,317.8L279.8,317.8z"/>
	<path class="st2" d="M280.8,319.3c4.3,0.8,7.1,5,6.3,9.3c-0.8,4.3-5,7.1-9.3,6.3c-4.3-0.8-7.1-5-6.3-9.3
		C272.3,321.3,276.5,318.5,280.8,319.3L280.8,319.3z"/>
	<path class="st4" d="M575.6,86.6c5.5,1.1,9.1,6.4,8.1,11.9c-1.1,5.5-6.4,9.1-11.9,8.1c-5.5-1.1-9.1-6.4-8.1-11.9
		C564.8,89.1,570.1,85.5,575.6,86.6L575.6,86.6z"/>
	<path class="st2" d="M576.5,88.1c4.3,0.8,7.1,5,6.3,9.3c-0.8,4.3-5,7.1-9.3,6.3c-4.3-0.8-7.1-5-6.3-9.3
		C568.1,90.1,572.2,87.3,576.5,88.1L576.5,88.1z"/>
	<path class="st4" d="M207.3,108.6c5.5,1.1,9.1,6.4,8.1,11.9c-1.1,5.5-6.4,9.1-11.9,8.1c-5.5-1.1-9.1-6.4-8.1-11.9
		C196.4,111.1,201.8,107.5,207.3,108.6L207.3,108.6z"/>
	<path class="st2" d="M208.2,110.1c4.3,0.8,7.1,5,6.3,9.3c-0.8,4.3-5,7.1-9.3,6.3c-4.3-0.8-7.1-5-6.3-9.3
		C199.8,112,203.9,109.2,208.2,110.1L208.2,110.1z"/>
	<path class="st5" d="M312.4,439.8l-68.3,218l199.8,23.3L503.5,434l51.6-2.2l7.6-43c-55.4-4.3-113.5-6.6-173.2-6.6
		c-45,0-89,1.3-131.7,3.8l-3.5,55.9L312.4,439.8L312.4,439.8z"/>
	<path class="st4" d="M430.9,651.3c5.5,1.1,9.1,6.4,8.1,11.9c-1.1,5.5-6.4,9.1-11.9,8.1c-5.5-1.1-9.1-6.4-8.1-11.9
		C420.1,653.9,425.4,650.3,430.9,651.3L430.9,651.3z"/>
	<path class="st2" d="M431.9,652.8c4.3,0.8,7.1,5,6.3,9.3c-0.8,4.3-5,7.1-9.3,6.3c-4.3-0.8-7.1-5-6.3-9.3
		C423.4,654.8,427.6,652,431.9,652.8L431.9,652.8z"/>
	<path class="st4" d="M269.4,633.1c5.5,1.1,9.1,6.4,8.1,11.9c-1.1,5.5-6.4,9.1-11.9,8.1c-5.5-1.1-9.1-6.4-8.1-11.9
		C258.5,635.6,263.9,632,269.4,633.1L269.4,633.1z"/>
	<path class="st2" d="M270.3,634.6c4.3,0.8,7.1,5,6.3,9.3c-0.8,4.3-5,7.1-9.3,6.3c-4.3-0.8-7.1-5-6.3-9.3
		C261.8,636.6,266,633.8,270.3,634.6L270.3,634.6z"/>
	<path class="st4" d="M544,409.1c5.5,1.1,9.1,6.4,8.1,11.9c-1.1,5.5-6.4,9.1-11.9,8.1c-5.5-1.1-9.1-6.4-8.1-11.9
		C533.2,411.7,538.5,408.1,544,409.1L544,409.1z"/>
	<path class="st2" d="M544.9,410.6c4.3,0.8,7.1,5,6.3,9.3c-0.8,4.3-5,7.1-9.3,6.3c-4.3-0.8-7.1-5-6.3-9.3
		C536.5,412.6,540.6,409.8,544.9,410.6L544.9,410.6z"/>
	<path class="st4" d="M274,417.2c5.5,1.1,9.1,6.4,8.1,11.9c-1.1,5.5-6.4,9.1-11.9,8.1c-5.5-1.1-9.1-6.4-8.1-11.9
		C263.2,419.7,268.5,416.1,274,417.2L274,417.2z"/>
	<path class="st2" d="M275,418.7c4.3,0.8,7.1,5,6.3,9.3c-0.8,4.3-5,7.1-9.3,6.3c-4.3-0.8-7.1-5-6.3-9.3
		C266.5,420.7,270.7,417.9,275,418.7L275,418.7z"/>
</g>
</svg>
