<?xml version="1.0" encoding="utf-8"?>
<!-- Generator: Adobe Illustrator 21.1.0, SVG Export Plug-In . SVG Version: 6.00 Build 0)  -->
<svg version="1.1" id="Warstwa_1" xmlns="http://www.w3.org/2000/svg" xmlns:xlink="http://www.w3.org/1999/xlink" x="0px" y="0px"
	 viewBox="0 0 792 792" style="enable-background:new 0 0 792 792;" xml:space="preserve">
<style type="text/css">
	.st0{fill:#EAAB11;}
	.st1{fill:#FFFF00;}
	.st2{fill:#00548C;}
	.st3{fill:#0094FF;}
	.st4{fill:#004574;}
	.st5{fill:#31ACFF;}
	.st6{fill:#E2E6EA;}
</style>
<g>
	<path class="st0" d="M526.5,49.9c17.5,6.4,34.2,14.8,49,26c13.2,10,25.1,21.8,33.8,35.9c10.7,17.3,18.9,35.9,24.7,55.4
		c6.1,20.3,8.7,41.4,8.2,62.6c1.4,11.3,1.9,22.8,1.5,34.2c-0.9,23.8-6.3,47-14.8,69.1c-3,7.7-6.5,15.2-10.3,22.5
		c11.4,19.8,19.7,41.3,25.3,63.4c4.8,19,7,38.5,6.6,58.1c2.2,18.3,2.1,36.9-0.1,55.2c-3.7,30-13.8,58.4-28.2,84.9
		c-16.8,30.7-40.8,56.9-67.5,79.3c-16.6,13.9-35.6,24.9-55.5,33.3c-21.1,9-43.2,15.6-65.7,20c-23.7,4.7-47.9,6.7-72.1,6.1
		c-24.8-0.5-49.5-4.2-73.3-11.3c-24-7.2-46.6-18.1-67-32.6c-22.1-15.8-39.8-36.1-52.7-60c-13.2-24.4-22.2-50.7-25.3-78.3
		c-1.1-9.6-1.5-19.1-1.3-28.7c-0.1-0.8-0.2-1.6-0.3-2.5c-2.9-25.6-1.1-51.3,5.9-76.2c6.8-24.3,17.8-47,32.2-67.6
		c4.4-6.3,9.1-12.4,14.1-18.3c-13-27.7-20.3-57.8-19-88.4c-1.9-13.3-2.3-26.9-0.9-40.5c3.6-35.3,16-67.7,36.6-96.5
		c20.8-29.2,47.8-52.8,78.1-71.7c32.5-20.2,68.1-34,105.5-41.8c23.6-4.9,47.9-6.8,71.9-4.6C486.4,38.7,507,42.8,526.5,49.9
		L526.5,49.9z"/>
	<path class="st1" d="M203,369.7c-1.9-3.1-3.7-6.3-5.5-9.5c-17.9-33.4-27.7-70.8-23.9-108.8c3.6-35.3,16-67.7,36.6-96.5
		c20.8-29.2,47.8-52.8,78.1-71.7c32.5-20.2,68.1-34,105.5-41.8c23.6-4.9,47.9-6.8,71.9-4.6c20.7,1.9,41.2,5.9,60.7,13
		c17.5,6.4,34.2,14.8,49,26c13.2,10,25.1,21.8,33.8,35.9c10.7,17.3,18.9,35.9,24.7,55.4c6.4,21.3,9,43.5,8.1,65.7
		c-0.9,23.8-6.3,47-14.8,69.1c-5.1,13.2-11.7,25.8-19.3,37.6c2.6,3.3,4.9,6.7,7.1,10.3c13.1,21.4,22.5,44.8,28.7,69.1
		c6.8,26.8,8.2,54.7,4.9,82.1c-3.7,30-13.8,58.4-28.2,84.9c-16.8,30.7-40.8,56.9-67.5,79.3c-16.6,13.9-35.6,24.8-55.5,33.3
		c-21.1,9-43.2,15.6-65.7,20c-23.7,4.7-47.9,6.7-72.1,6.1c-24.8-0.5-49.5-4.2-73.3-11.3c-24-7.2-46.6-18.1-67-32.6
		c-22.1-15.8-39.8-36.1-52.7-60c-13.2-24.4-22.2-50.7-25.3-78.3c-2.9-25.6-1.1-51.3,5.9-76.2c6.8-24.3,17.8-47,32.2-67.6
		C186.6,388.5,194.5,378.8,203,369.7L203,369.7z"/>
	<path class="st2" d="M232.2,372.2c-5.7-6.9-10.7-14.5-15-22.5c-15.8-29.6-24.8-62.3-21.3-96c3.2-31.4,14.2-60.1,32.5-85.8
		c19.1-26.8,43.9-48.4,71.7-65.7c30.3-18.8,63.4-31.6,98.3-38.9c21.5-4.4,43.5-6.2,65.3-4.2c18.7,1.7,37.3,5.3,55,11.7
		c15.4,5.6,30.2,13,43.2,22.9c10.9,8.2,21.1,18.1,28.3,29.8c9.6,15.6,17,32.5,22.3,50c5.7,19,7.9,38.6,7.2,58.4
		c-0.8,21.3-5.7,42.1-13.4,61.9c-6.6,17.1-15.9,32.9-26.9,47.5c6.3,6,11.9,12.7,16.6,20.2c12,19.5,20.4,40.8,26.1,62.9
		c6.2,24.2,7.4,49.1,4.4,73.8c-3.3,27.2-12.6,52.9-25.7,76.9c-15.4,28.2-37.7,52.3-62.2,72.8c-14.9,12.5-32,22.3-49.9,29.9
		c-19.7,8.4-40.3,14.5-61.2,18.7c-22.2,4.4-44.7,6.2-67.3,5.7c-22.9-0.5-45.5-3.9-67.4-10.4c-21.7-6.5-42-16.3-60.4-29.4
		c-19.4-13.8-34.7-31.5-46-52.5c-11.8-21.9-20-45.4-22.8-70.1c-2.6-22.8-1-45.5,5.2-67.6c6.1-21.9,16-42.2,29-60.9
		C207.8,397.2,219.4,384.1,232.2,372.2L232.2,372.2z"/>
	<path class="st3" d="M581.7,370.5c10.5,17.3,18.6,36.7,24.1,58.3c5.5,21.6,6.8,44.1,4,67.6c-2.9,23.5-10.8,47.1-23.7,70.8
		c-12.9,23.7-32.4,46.4-58.3,68c-12.5,10.5-27.7,19.7-45.7,27.3c-18,7.7-37.3,13.5-57.9,17.6c-20.6,4.1-41.8,5.9-63.6,5.4
		c-21.8-0.5-42.8-3.7-62.9-9.7c-20.1-6-38.6-15-55.4-27c-16.8-12-30.4-27.6-41-46.8c-11.5-21.6-18.5-42.9-20.9-64
		c-2.4-21.1-0.8-41.5,4.7-61.1c5.5-19.7,14.4-38.2,26.6-55.7c12.2-17.5,27.2-33.4,44.9-47.8c-10.1-9.1-18.2-19.7-24.5-31.6
		c-15.8-29.2-22.3-58-19.4-86.3c2.9-28.3,12.7-54.2,29.5-77.7c16.8-23.5,39.1-43.9,66.9-61.1c27.8-17.3,58.7-29.5,92.8-36.7
		c21.6-4.3,41.7-5.6,60.4-4c18.7,1.7,35.6,5.3,50.7,10.8c15.1,5.5,28,12.3,38.8,20.5c10.8,8.2,18.8,16.5,24.1,25.2
		c8.6,13.9,15.5,29.2,20.5,46c5,16.8,7.2,34.4,6.5,52.9c-0.7,18.5-4.8,37.3-12.2,56.5c-7.4,19.2-19.1,37.9-34.9,56.1
		C566.8,351.6,575.4,360.4,581.7,370.5L581.7,370.5z"/>
	<path class="st4" d="M588.1,215.6c5.4,1,9,6.3,8,11.8c-1,5.4-6.3,9-11.8,8c-5.4-1-9-6.3-8-11.8
		C577.4,218.2,582.7,214.6,588.1,215.6L588.1,215.6z"/>
	<path class="st2" d="M589.1,217.1c4.3,0.8,7,4.9,6.2,9.2c-0.8,4.3-4.9,7-9.2,6.2c-4.3-0.8-7-4.9-6.2-9.2
		C580.7,219.1,584.8,216.3,589.1,217.1L589.1,217.1z"/>
	<path class="st4" d="M233.2,251.4c5.4,1,9,6.3,8,11.8c-1,5.4-6.3,9-11.8,8c-5.4-1-9-6.3-8-11.8
		C222.4,253.9,227.7,250.3,233.2,251.4L233.2,251.4z"/>
	<path class="st2" d="M234.1,252.9c4.3,0.8,7,4.9,6.2,9.2c-0.8,4.3-4.9,7-9.2,6.2c-4.3-0.8-7-4.9-6.2-9.2
		C225.7,254.8,229.8,252.1,234.1,252.9L234.1,252.9z"/>
	<path class="st4" d="M436.2,86c5.4,1,9,6.3,8,11.8c-1,5.4-6.3,9-11.8,8c-5.4-1-9-6.3-8-11.8C425.5,88.6,430.7,85,436.2,86L436.2,86
		z"/>
	<path class="st2" d="M437.1,87.5c4.3,0.8,7,4.9,6.2,9.2c-0.8,4.3-4.9,7-9.2,6.2c-4.3-0.8-7-4.9-6.2-9.2
		C428.7,89.5,432.9,86.7,437.1,87.5L437.1,87.5z"/>
	<path class="st5" d="M185,476.9c-5.5,19.7-7.1,40-4.7,61.1c2.4,21.1,9.3,42.4,20.9,64c10.5,19.2,24.2,34.8,41,46.7
		c16.8,12,35.2,21,55.4,27c20.1,6,41.1,9.2,62.9,9.7c21.8,0.5,43-1.3,63.6-5.4c20.6-4.1,39.9-10,57.9-17.6
		c18-7.7,33.2-16.8,45.7-27.3c25.9-21.6,45.3-44.2,58.3-68c12.9-23.7,20.9-47.3,23.7-70.8c2.9-23.5,1.6-46-4-67.6
		c-3.4-13.4-7.8-25.9-13.2-37.7c-62.6-5.6-128.8-8.7-197.4-8.7c-53.2,0-105,1.8-154.9,5.3c-10.9,10.4-20.4,21.6-28.7,33.5
		C199.4,438.7,190.5,457.3,185,476.9L185,476.9z"/>
	<path class="st4" d="M593.1,481c5.4,1,9,6.3,8,11.8c-1,5.4-6.3,9-11.8,8c-5.4-1-9-6.3-8-11.8C582.3,483.5,587.6,479.9,593.1,481
		L593.1,481z"/>
	<path class="st2" d="M594,482.5c4.3,0.8,7,4.9,6.2,9.2c-0.8,4.3-4.9,7-9.2,6.2c-4.3-0.8-7-4.9-6.2-9.2
		C585.6,484.4,589.7,481.6,594,482.5L594,482.5z"/>
	<path class="st4" d="M366.6,658.7c5.4,1,9,6.3,8,11.8c-1,5.4-6.3,9-11.8,8c-5.4-1-9-6.3-8-11.8
		C355.9,661.2,361.1,657.6,366.6,658.7L366.6,658.7z"/>
	<path class="st2" d="M367.5,660.2c4.3,0.8,7,4.9,6.2,9.2c-0.8,4.3-4.9,7-9.2,6.2c-4.3-0.8-7-4.9-6.2-9.2
		C359.2,662.1,363.3,659.3,367.5,660.2L367.5,660.2z"/>
	<path class="st4" d="M204.3,517.1c5.4,1,9,6.3,8,11.8c-1,5.4-6.3,9-11.8,8c-5.4-1-9-6.3-8-11.8
		C193.6,519.6,198.8,516.1,204.3,517.1L204.3,517.1z"/>
	<path class="st2" d="M205.2,518.6c4.3,0.8,7,4.9,6.2,9.2c-0.8,4.3-4.9,7-9.2,6.2c-4.3-0.8-7-4.9-6.2-9.2
		C196.8,520.6,201,517.8,205.2,518.6L205.2,518.6z"/>
	<path class="st2" d="M372.8,227.9v-0.4c0-3.4-0.4-15.7-6.8-24.2c-6.4-8.9-17.9-9.4-21.3-9.4c-13.2,0-22.5,13.2-22.5,25.5
		c0,28.5,17,36.1,25.9,36.1c5.1,0,8.9-1.3,11.9-4.3c0.4-0.4,0.8-0.9,1.3-1.3c2.1-2.1,5.5-6,8.1-8.5
		C372.8,238.1,372.8,231.3,372.8,227.9L372.8,227.9z"/>
	<path class="st2" d="M435.7,156c-5.5-4.7-11.5-7.2-17.9-7.2c-3.4,0-6.8,0.4-9.8,1.7c-20.8,8.1-22.1,29.3-22.1,33.6
		c0,7.2,1.7,11.5,3.4,15.3c0.4,0.9,0.4,1.3,0.8,2.1c1.3,3.4,8.5,8.1,15.7,11.1c4.7,1.7,11.1,2.1,14.5,2.1c2.6,0,6,0,7.2-0.4
		c18.7-6.4,19.1-29.8,19.1-30.2C446.4,184.1,445.5,164.5,435.7,156L435.7,156z"/>
	<path class="st2" d="M483.8,188.8c-4.3,0-14.5,0.8-23,9.8c-8.9,8.9-9.4,25.1-9.4,28.5c0,9.8,3.8,14,10.2,21.3l1.3,1.3
		c4.3,4.7,9.4,7.2,14.5,7.2c3,0,6.4-0.8,10.2-2.6c5.5-2.6,19.1-11.1,19.1-37C506.7,193.4,490.2,188.8,483.8,188.8L483.8,188.8z"/>
	<path class="st2" d="M458.3,260.2c-0.9-0.8-1.7-1.3-2.1-1.7c-4.7-3.8-15.3-17.4-18.3-22.5c-3.4-5.5-10.6-11.9-25.1-11.9
		c-14,0-19.6,5.1-24.2,11.5c-3,3.4-12.3,15.7-16.2,19.1c-0.4,0.4-1.3,1.3-2.6,1.7c-5.1,3.4-14.5,10.2-14.5,24.2
		c0,14.5,5.1,25.5,14.9,32.7c3,2.1,7.7,3.4,12.8,3.4c6.4,0,12.3-1.7,14-2.1c2.6-0.8,7.2-2.1,15.7-2.1c7.2,0,12.3,1.7,17.4,3.4
		c4.7,1.7,8.9,3,14.5,3c13.2,0,27.2-11.9,27.2-31.5C471.9,270.4,463.4,264,458.3,260.2L458.3,260.2z"/>
	<path class="st6" d="M372.8,218.8v-0.4c0-3.4-0.4-15.7-6.8-24.2c-6.4-8.9-17.9-9.4-21.3-9.4c-13.2,0-22.5,13.2-22.5,25.5
		c0,28.5,17,36.1,25.9,36.1c5.1,0,8.9-1.3,11.9-4.3c0.4-0.4,0.8-0.8,1.3-1.3c2.1-2.1,5.5-6,8.1-8.5
		C372.8,229,372.8,222.2,372.8,218.8L372.8,218.8z"/>
	<path class="st6" d="M435.7,146.9c-5.5-4.7-11.5-7.2-17.9-7.2c-3.4,0-6.8,0.4-9.8,1.7c-20.8,8.1-22.1,29.3-22.1,33.6
		c0,7.2,1.7,11.5,3.4,15.3c0.4,0.9,0.4,1.3,0.8,2.1c1.3,3.4,8.5,8.1,15.7,11.1c4.7,1.7,11.1,2.1,14.5,2.1c2.6,0,6,0,7.2-0.4
		c18.7-6.4,19.1-29.8,19.1-30.2C446.4,175,445.5,155.4,435.7,146.9L435.7,146.9z"/>
	<path class="st6" d="M483.8,179.7c-4.3,0-14.5,0.8-23,9.8c-8.9,8.9-9.4,25.1-9.4,28.5c0,9.8,3.8,14,10.2,21.3l1.3,1.3
		c4.3,4.7,9.4,7.2,14.5,7.2c3,0,6.4-0.9,10.2-2.6c5.5-2.6,19.1-11.1,19.1-37C506.7,184.3,490.2,179.7,483.8,179.7L483.8,179.7z"/>
	<path class="st6" d="M458.3,251.1c-0.9-0.9-1.7-1.3-2.1-1.7c-4.7-3.8-15.3-17.4-18.3-22.5c-3.4-5.5-10.6-11.9-25.1-11.9
		c-14,0-19.6,5.1-24.2,11.5c-3,3.4-12.3,15.7-16.2,19.1c-0.4,0.4-1.3,1.3-2.6,1.7c-5.1,3.4-14.5,10.2-14.5,24.2
		c0,14.5,5.1,25.5,14.9,32.7c3,2.1,7.7,3.4,12.8,3.4c6.4,0,12.3-1.7,14-2.1c2.6-0.9,7.2-2.1,15.7-2.1c7.2,0,12.3,1.7,17.4,3.4
		c4.7,1.7,8.9,3,14.5,3c13.2,0,27.2-11.9,27.2-31.5C471.9,261.3,463.4,254.9,458.3,251.1L458.3,251.1z"/>
	<path class="st2" d="M352.1,481.2v-0.4c0-3.4-0.4-15.7-6.8-24.2c-6.4-8.9-17.9-9.4-21.3-9.4c-13.2,0-22.5,13.2-22.5,25.5
		c0,28.5,17,36.1,25.9,36.1c5.1,0,8.9-1.3,11.9-4.3c0.4-0.4,0.8-0.8,1.3-1.3c2.1-2.1,5.5-6,8.1-8.5
		C352.1,491.4,352.1,484.6,352.1,481.2L352.1,481.2z"/>
	<path class="st2" d="M415,409.3c-5.5-4.7-11.5-7.2-17.9-7.2c-3.4,0-6.8,0.4-9.8,1.7c-20.8,8.1-22.1,29.3-22.1,33.6
		c0,7.2,1.7,11.5,3.4,15.3c0.4,0.8,0.4,1.3,0.8,2.1c1.3,3.4,8.5,8.1,15.7,11.1c4.7,1.7,11.1,2.1,14.5,2.1c2.6,0,6,0,7.2-0.4
		c18.7-6.4,19.1-29.8,19.1-30.2C425.7,437.4,424.8,417.8,415,409.3L415,409.3z"/>
	<path class="st2" d="M463.1,442.1c-4.3,0-14.5,0.8-23,9.8c-8.9,8.9-9.4,25.1-9.4,28.5c0,9.8,3.8,14,10.2,21.3l1.3,1.3
		c4.3,4.7,9.4,7.2,14.5,7.2c3,0,6.4-0.8,10.2-2.6c5.5-2.6,19.1-11.1,19.1-37C486,446.8,469.5,442.1,463.1,442.1L463.1,442.1z"/>
	<path class="st2" d="M437.6,513.5c-0.8-0.8-1.7-1.3-2.1-1.7c-4.7-3.8-15.3-17.4-18.3-22.5c-3.4-5.5-10.6-11.9-25.1-11.9
		c-14,0-19.6,5.1-24.2,11.5c-3,3.4-12.3,15.7-16.2,19.1c-0.4,0.4-1.3,1.3-2.6,1.7c-5.1,3.4-14.5,10.2-14.5,24.2
		c0,14.5,5.1,25.5,14.9,32.7c3,2.1,7.7,3.4,12.8,3.4c6.4,0,12.3-1.7,14-2.1c2.6-0.8,7.2-2.1,15.7-2.1c7.2,0,12.3,1.7,17.4,3.4
		c4.7,1.7,8.9,3,14.5,3c13.2,0,27.2-11.9,27.2-31.5C451.2,523.7,442.7,517.3,437.6,513.5L437.6,513.5z"/>
	<path class="st6" d="M352.1,472.1v-0.4c0-3.4-0.4-15.7-6.8-24.2c-6.4-8.9-17.9-9.4-21.3-9.4c-13.2,0-22.5,13.2-22.5,25.5
		c0,28.5,17,36.1,25.9,36.1c5.1,0,8.9-1.3,11.9-4.3c0.4-0.4,0.8-0.8,1.3-1.3c2.1-2.1,5.5-6,8.1-8.5
		C352.1,482.3,352.1,475.5,352.1,472.1L352.1,472.1z"/>
	<path class="st6" d="M415,400.2c-5.5-4.7-11.5-7.2-17.9-7.2c-3.4,0-6.8,0.4-9.8,1.7c-20.8,8.1-22.1,29.3-22.1,33.6
		c0,7.2,1.7,11.5,3.4,15.3c0.4,0.9,0.4,1.3,0.8,2.1c1.3,3.4,8.5,8.1,15.7,11.1c4.7,1.7,11.1,2.1,14.5,2.1c2.6,0,6,0,7.2-0.4
		c18.7-6.4,19.1-29.8,19.1-30.2C425.7,428.3,424.8,408.7,415,400.2L415,400.2z"/>
	<path class="st6" d="M463.1,433c-4.3,0-14.5,0.8-23,9.8c-8.9,8.9-9.4,25.1-9.4,28.5c0,9.8,3.8,14,10.2,21.3l1.3,1.3
		c4.3,4.7,9.4,7.2,14.5,7.2c3,0,6.4-0.8,10.2-2.6c5.5-2.6,19.1-11.1,19.1-37C486,437.6,469.5,433,463.1,433L463.1,433z"/>
	<path class="st6" d="M437.6,504.4c-0.8-0.8-1.7-1.3-2.1-1.7c-4.7-3.8-15.3-17.4-18.3-22.5c-3.4-5.5-10.6-11.9-25.1-11.9
		c-14,0-19.6,5.1-24.2,11.5c-3,3.4-12.3,15.7-16.2,19.1c-0.4,0.4-1.3,1.3-2.6,1.7c-5.1,3.4-14.5,10.2-14.5,24.2
		c0,14.5,5.1,25.5,14.9,32.7c3,2.1,7.7,3.4,12.8,3.4c6.4,0,12.3-1.7,14-2.1c2.6-0.8,7.2-2.1,15.7-2.1c7.2,0,12.3,1.7,17.4,3.4
		c4.7,1.7,8.9,3,14.5,3c13.2,0,27.2-11.9,27.2-31.5C451.2,514.6,442.7,508.2,437.6,504.4L437.6,504.4z"/>
</g>
</svg>
