<?xml version="1.0" encoding="utf-8"?>
<!-- Generator: Adobe Illustrator 21.1.0, SVG Export Plug-In . SVG Version: 6.00 Build 0)  -->
<svg version="1.1" id="Warstwa_1" xmlns="http://www.w3.org/2000/svg" xmlns:xlink="http://www.w3.org/1999/xlink" x="0px" y="0px"
	 viewBox="0 0 792 792" style="enable-background:new 0 0 792 792;" xml:space="preserve">
<style type="text/css">
	.st0{fill:#EAAB11;}
	.st1{fill:#FFFF00;}
	.st2{fill:#00548C;}
	.st3{fill:#0094FF;}
	.st4{fill:#004574;}
	.st5{fill:#31ACFF;}
	.st6{fill:#E2E6EA;}
</style>
<g>
	<path class="st0" d="M591.7,121.8c14.8,20.6,25.7,43.9,34.1,67.8c9.7,27.8,13.4,57.5,13.6,86.9c1.2,12.7,1.7,25.5,1.5,38.2
		c-0.6,40.8-11.4,81.3-26.1,119.1c-19.3,49.5-48.8,96.1-80.2,138.8c-43,58.6-95.3,111.2-149.2,159.8L359.1,756l-163-157.7l-1.5-30
		l33.7-26.8c13.2-10.5,26.1-21.4,38.5-32.9c-6.7-3.2-13.3-6.8-19.5-10.9c-9.2-6-18.3-12.3-26.2-19.9c-2.7-2.6-5.5-5.2-8.2-7.8
		l-0.5-0.5l-0.5-0.5c-22.9-24.5-41.6-52.8-51-85.3c-5.9-20.6-8.9-41.7-8.3-63c-2.2-17.7-2.1-35.6,0.6-53.5
		c4.3-28.4,14.4-55.1,29.3-79.7c14.6-24.1,32.4-45.9,52.9-65.2c20.7-19.4,43.8-36,68.7-49.6c24.4-13.4,50.4-23.7,77.5-30.2
		c26.6-6.4,53.8-8.4,81-5.3c28,3.2,54.1,12.9,77.2,29.3l2.6,1.9l1.6,1.6c4,3.6,8.1,7,12.1,10.5C569.6,92.5,581.2,107.2,591.7,121.8
		L591.7,121.8z"/>
	<path class="st1" d="M288.7,487.8c-1.1-0.3-2.2-0.7-3.3-1.1c-13.9-4.7-27.3-11-39.6-19c-9.2-6-18.3-12.3-26.2-19.9
		c-2.7-2.6-5.5-5.2-8.2-7.8l-0.5-0.5l-0.5-0.5c-22.9-24.5-41.6-52.8-51-85.3c-8.1-28.2-10.7-57.4-6.2-86.4
		c4.3-28.4,14.4-55.1,29.3-79.7c14.6-24.1,32.4-45.9,52.9-65.2c20.7-19.4,43.8-36,68.7-49.6c24.4-13.4,50.4-23.7,77.5-30.2
		c26.6-6.4,53.8-8.4,81-5.3c28,3.2,54.1,12.9,77.2,29.3l2.6,1.9l1.6,1.6c4,3.6,8.1,7,12.1,10.5c13.6,11.8,25.2,26.5,35.7,41.1
		c14.8,20.6,25.7,43.9,34.1,67.8c10.6,30.4,14,63.1,13.5,95.1c-0.6,40.8-11.4,81.3-26.1,119.1c-19.3,49.5-48.8,96.1-80.2,138.8
		c-43,58.6-95.3,111.2-149.2,159.8L357.6,726l-163-157.7l33.7-26.8c16.6-13.2,32.6-27.1,47.9-41.7
		C280.5,495.9,284.6,491.9,288.7,487.8L288.7,487.8z"/>
	<path class="st2" d="M333.3,472.8c-13.9,0-27.8-2-40.9-6.4c-12.2-4.2-24-9.6-34.8-16.6c-7.9-5.1-16.3-10.9-23.1-17.4
		c-2.6-2.5-5.3-5-7.9-7.5l-0.2-0.2l-0.2-0.2c-20.6-21.9-37.6-47.4-46-76.6c-7.3-25.2-9.6-51.2-5.6-77.2c3.9-25.6,13-49.6,26.4-71.8
		c13.5-22.4,30.1-42.7,49.2-60.6c19.4-18.2,41-33.6,64.3-46.4c22.8-12.5,46.9-22.1,72.2-28.2c24.1-5.8,48.8-7.7,73.5-4.8
		c24.5,2.8,47,11.1,67.1,25.4l1.1,0.8l0.6,0.7c4.2,3.8,8.7,7.6,13,11.3c12.1,10.5,23,24.5,32.3,37.4c13.6,18.8,23.6,40.4,31.2,62.3
		c9.8,27.9,12.8,58.2,12.3,87.7c-0.6,38.1-10.9,76.4-24.7,111.6c-18.5,47.4-47.5,93-77.5,133.9c-41.9,57-93.8,109.2-146.2,156.5
		l-11.3,10.2L227.3,569.9l14.5-11.5c17.1-13.6,33.6-27.9,49.4-43c13.6-13,27-26.3,39.8-40.1C331.8,474.4,332.5,473.6,333.3,472.8
		L333.3,472.8z"/>
	<path class="st3" d="M238,413.2c-21.2-22.6-35.3-45.9-42.2-69.9c-6.9-24-8.7-47.4-5.2-70.3c3.5-22.8,11.5-44.8,24.2-65.8
		c12.7-21,28.2-40,46.4-57.1c18.2-17.1,38.5-31.7,60.9-44c22.4-12.2,45.1-21.1,68.2-26.7c23.1-5.5,45.7-7,67.9-4.5
		c22.2,2.5,42,10,59.5,22.5c0.5,0.5,5,4.4,13.5,11.8c8.5,7.4,18.5,18.9,29.8,34.6c11.3,15.7,21,35.1,29.1,58.2
		c8.1,23.1,11.9,50.4,11.4,82.1c-0.5,31.6-8.3,66.9-23.5,105.9c-15.2,39-40.4,82.4-75.5,130.2c-35.1,47.8-83.1,99.1-144,154.1
		L251.9,571.1c18-14.3,34.9-29,50.5-44s29.2-28.6,40.5-40.9c11.3-12.2,20.2-22.3,26.7-30.1c6.5-7.8,9.7-11.8,9.7-11.8
		c-14.8,7.8-29.2,11.9-43.3,12.1c-14.1,0.2-26.9-1.6-38.4-5.5c-11.5-3.9-21.9-8.9-31.2-14.9c-9.2-6-16.2-11.2-20.8-15.6
		C241,416.1,238.5,413.7,238,413.2L238,413.2z"/>
	<path class="st4" d="M584.2,275.3c5.2,1,8.7,6.1,7.7,11.3s-6.1,8.7-11.3,7.7c-5.2-1-8.7-6.1-7.7-11.3
		C573.9,277.7,579,274.3,584.2,275.3L584.2,275.3z"/>
	<path class="st2" d="M585.1,276.7c4.1,0.8,6.8,4.7,6,8.8c-0.8,4.1-4.7,6.8-8.8,6c-4.1-0.8-6.8-4.7-6-8.8
		C577.1,278.6,581,275.9,585.1,276.7L585.1,276.7z"/>
	<path class="st4" d="M212.6,280c5.2,1,8.7,6.1,7.7,11.3c-1,5.2-6.1,8.7-11.3,7.7c-5.2-1-8.7-6.1-7.7-11.3
		C202.3,282.4,207.3,279,212.6,280L212.6,280z"/>
	<path class="st2" d="M213.5,281.4c4.1,0.8,6.8,4.7,6,8.8c-0.8,4.1-4.7,6.8-8.8,6c-4.1-0.8-6.8-4.7-6-8.8
		C205.4,283.3,209.4,280.7,213.5,281.4L213.5,281.4z"/>
	<path class="st4" d="M440.4,82.3c5.2,1,8.7,6.1,7.7,11.3c-1,5.2-6.1,8.7-11.3,7.7c-5.2-1-8.7-6.1-7.7-11.3
		C430.1,84.7,435.1,81.3,440.4,82.3L440.4,82.3z"/>
	<path class="st2" d="M441.3,83.7c4.1,0.8,6.8,4.7,6,8.8c-0.8,4.1-4.7,6.8-8.8,6c-4.1-0.8-6.8-4.7-6-8.8
		C433.2,85.6,437.2,82.9,441.3,83.7L441.3,83.7z"/>
	<path class="st5" d="M369.6,456.2c-6.5,7.8-15.3,17.9-26.7,30.1c-11.3,12.2-24.8,25.9-40.5,40.9c-15.7,15-32.5,29.7-50.5,44
		l106.6,103.2c60.9-54.9,108.9-106.3,144-154.1c34.8-47.4,59.9-90.5,75.1-129.3c-58-5-119.2-7.7-182.4-7.7
		c-60.9,0-119.9,2.5-176.1,7.1c5.5,7.7,11.8,15.3,18.9,22.9l7.6,7.3c4.6,4.4,11.5,9.6,20.8,15.6c9.2,6,19.6,11,31.2,14.9
		c11.5,3.9,24.4,5.8,38.4,5.5c14.1-0.2,28.5-4.3,43.3-12.1L369.6,456.2L369.6,456.2z"/>
	<path class="st4" d="M358,637.3c5.2,1,8.7,6.1,7.7,11.3c-1,5.2-6.1,8.7-11.3,7.7c-5.2-1-8.7-6.1-7.7-11.3
		C347.6,639.7,352.7,636.3,358,637.3L358,637.3z"/>
	<path class="st2" d="M358.9,638.8c4.1,0.8,6.8,4.7,6,8.8c-0.8,4.1-4.7,6.8-8.8,6c-4.1-0.8-6.8-4.7-6-8.8
		C350.8,640.6,354.8,638,358.9,638.8L358.9,638.8z"/>
	<path class="st4" d="M282,561.3c5.2,1,8.7,6.1,7.7,11.3c-1,5.2-6.1,8.7-11.3,7.7c-5.2-1-8.7-6.1-7.7-11.3
		C271.7,563.7,276.7,560.3,282,561.3L282,561.3z"/>
	<path class="st2" d="M282.9,562.7c4.1,0.8,6.8,4.7,6,8.8c-0.8,4.1-4.7,6.8-8.8,6c-4.1-0.8-6.8-4.7-6-8.8
		C274.8,564.6,278.8,561.9,282.9,562.7L282.9,562.7z"/>
	<path class="st4" d="M396,422.5c5.2,1,8.7,6.1,7.7,11.3c-1,5.2-6.1,8.7-11.3,7.7c-5.2-1-8.7-6.1-7.7-11.3
		C385.7,424.9,390.8,421.5,396,422.5L396,422.5z"/>
	<path class="st2" d="M396.9,424c4.1,0.8,6.8,4.7,6,8.8c-0.8,4.1-4.7,6.8-8.8,6c-4.1-0.8-6.8-4.7-6-8.8
		C388.9,425.8,392.8,423.2,396.9,424L396.9,424z"/>
	<path class="st2" d="M351.8,254.7v-0.6c0-4.8-0.6-22.1-9.5-34c-8.9-12.5-25-13.1-29.8-13.1c-18.5,0-31.6,18.5-31.6,35.8
		c0,40,23.9,50.7,36.4,50.7c7.2,0,12.5-1.8,16.7-6c0.6-0.6,1.2-1.2,1.8-1.8c3-3,7.8-8.3,11.3-11.9
		C351.8,269,351.8,259.5,351.8,254.7L351.8,254.7z"/>
	<path class="st2" d="M440.1,154c-7.8-6.6-16.1-10.1-25-10.1c-4.8,0-9.5,0.6-13.7,2.4c-29.2,11.3-31,41.1-31,47.1
		c0,10.1,2.4,16.1,4.8,21.5c0.6,1.2,0.6,1.8,1.2,3c1.8,4.8,11.9,11.3,22.1,15.5c6.6,2.4,15.5,3,20.3,3c3.6,0,8.3,0,10.1-0.6
		c26.2-8.9,26.8-41.7,26.8-42.3C455,193.3,453.8,165.9,440.1,154L440.1,154z"/>
	<path class="st2" d="M507.4,199.9c-6,0-20.3,1.2-32.2,13.7c-12.5,12.5-13.1,35.2-13.1,40c0,13.7,5.4,19.7,14.3,29.8l1.8,1.8
		c6,6.6,13.1,10.1,20.3,10.1c4.2,0,8.9-1.2,14.3-3.6c7.8-3.6,26.8-15.5,26.8-51.9C539.6,206.4,516.4,199.9,507.4,199.9L507.4,199.9z
		"/>
	<path class="st2" d="M471.7,300c-1.2-1.2-2.4-1.8-3-2.4c-6.6-5.4-21.5-24.4-25.6-31.6c-4.8-7.8-14.9-16.7-35.2-16.7
		c-19.7,0-27.4,7.2-34,16.1c-4.2,4.8-17.3,22.1-22.7,26.8c-0.6,0.6-1.8,1.8-3.6,2.4c-7.2,4.8-20.3,14.3-20.3,34
		c0,20.3,7.2,35.8,20.9,45.9c4.2,3,10.7,4.8,17.9,4.8c8.9,0,17.3-2.4,19.7-3c3.6-1.2,10.1-3,22.1-3c10.1,0,17.3,2.4,24.4,4.8
		c6.6,2.4,12.5,4.2,20.3,4.2c18.5,0,38.2-16.7,38.2-44.1C490.7,314.4,478.8,305.4,471.7,300L471.7,300z"/>
	<path class="st6" d="M351.8,241.9v-0.6c0-4.8-0.6-22.1-9.5-34c-8.9-12.5-25-13.1-29.8-13.1c-18.5,0-31.6,18.5-31.6,35.8
		c0,40,23.9,50.7,36.4,50.7c7.2,0,12.5-1.8,16.7-6c0.6-0.6,1.2-1.2,1.8-1.8c3-3,7.8-8.3,11.3-11.9
		C351.8,256.2,351.8,246.7,351.8,241.9L351.8,241.9z"/>
	<path class="st6" d="M440.1,141.2c-7.8-6.6-16.1-10.1-25-10.1c-4.8,0-9.5,0.6-13.7,2.4c-29.2,11.3-31,41.1-31,47.1
		c0,10.1,2.4,16.1,4.8,21.5c0.6,1.2,0.6,1.8,1.2,3c1.8,4.8,11.9,11.3,22.1,15.5c6.6,2.4,15.5,3,20.3,3c3.6,0,8.3,0,10.1-0.6
		c26.2-8.9,26.8-41.7,26.8-42.3C455,180.5,453.8,153.1,440.1,141.2L440.1,141.2z"/>
	<path class="st6" d="M507.4,187.1c-6,0-20.3,1.2-32.2,13.7c-12.5,12.5-13.1,35.2-13.1,40c0,13.7,5.4,19.7,14.3,29.8l1.8,1.8
		c6,6.6,13.1,10.1,20.3,10.1c4.2,0,8.9-1.2,14.3-3.6c7.8-3.6,26.8-15.5,26.8-51.9C539.6,193.6,516.4,187.1,507.4,187.1L507.4,187.1z
		"/>
	<path class="st6" d="M471.7,287.3c-1.2-1.2-2.4-1.8-3-2.4c-6.6-5.4-21.5-24.4-25.6-31.6c-4.8-7.8-14.9-16.7-35.2-16.7
		c-19.7,0-27.4,7.2-34,16.1c-4.2,4.8-17.3,22.1-22.7,26.8c-0.6,0.6-1.8,1.8-3.6,2.4c-7.2,4.8-20.3,14.3-20.3,34
		c0,20.3,7.2,35.8,20.9,45.9c4.2,3,10.7,4.8,17.9,4.8c8.9,0,17.3-2.4,19.7-3c3.6-1.2,10.1-3,22.1-3c10.1,0,17.3,2.4,24.4,4.8
		c6.6,2.4,12.5,4.2,20.3,4.2c18.5,0,38.2-16.7,38.2-44.1C490.7,301.6,478.8,292.6,471.7,287.3L471.7,287.3z"/>
</g>
</svg>
