<?xml version="1.0" encoding="utf-8"?>
<!-- Generator: Adobe Illustrator 21.1.0, SVG Export Plug-In . SVG Version: 6.00 Build 0)  -->
<svg version="1.1" id="Warstwa_1" xmlns="http://www.w3.org/2000/svg" xmlns:xlink="http://www.w3.org/1999/xlink" x="0px" y="0px"
	 viewBox="0 0 792 792" style="enable-background:new 0 0 792 792;" xml:space="preserve">
<style type="text/css">
	.st0{fill:#EAAB11;}
	.st1{fill:#FFFF00;}
	.st2{fill:#00548C;}
	.st3{fill:#0094FF;}
	.st4{fill:#004574;}
	.st5{fill:#31ACFF;}
</style>
<g>
	<polygon class="st0" points="488.3,36 845.8,579.6 847.4,611.9 508.8,740.3 434.8,617.1 319.7,620.9 282.7,756 -53.8,646.4 
		-55.4,614.2 263.8,36 	"/>
	<polygon class="st1" points="433.2,584.8 318,588.6 281.1,723.7 -55.4,614.2 263.8,36 488.3,36 845.8,579.6 507.1,708 	"/>
	<path class="st2" d="M446.1,561.1L300.2,566l-35,128.1l-286.7-93.3l299-541.6h198.3l334.7,509L517,679.4L446.1,561.1L446.1,561.1z
		 M359.8,392.6l39.2-6.9l-16.5-44.8L359.8,392.6L359.8,392.6z"/>
	<path class="st3" d="M465.5,78.3l315.9,480.4l-256.1,97.1l-68.5-114.2l-171.3,5.7L252,669.7L6.5,589.8L288.8,78.3L465.5,78.3
		L465.5,78.3z M327.8,417.6l97.1-17.1l-40.8-110.9L327.8,417.6L327.8,417.6z"/>
	<path class="st4" d="M308.1,99.6c5.6,1.1,9.3,6.5,8.3,12.2c-1.1,5.6-6.5,9.3-12.2,8.3c-5.6-1.1-9.3-6.5-8.3-12.2
		C297,102.3,302.5,98.6,308.1,99.6L308.1,99.6z"/>
	<path class="st2" d="M309.1,101.2c4.4,0.8,7.3,5.1,6.4,9.5c-0.8,4.4-5.1,7.3-9.5,6.4c-4.4-0.9-7.3-5.1-6.4-9.5
		C300.4,103.2,304.7,100.3,309.1,101.2L309.1,101.2z"/>
	<path class="st4" d="M452.5,99.6c5.6,1.1,9.3,6.5,8.3,12.2c-1.1,5.6-6.5,9.3-12.2,8.3c-5.6-1.1-9.3-6.5-8.3-12.2
		C441.4,102.3,446.9,98.6,452.5,99.6L452.5,99.6z"/>
	<path class="st2" d="M453.5,101.2c4.4,0.8,7.3,5.1,6.4,9.5c-0.9,4.4-5.1,7.3-9.5,6.4c-4.4-0.9-7.3-5.1-6.4-9.5
		C444.8,103.2,449.1,100.3,453.5,101.2L453.5,101.2z"/>
	<path class="st5" d="M285.4,547.3l171.3-5.7l68.5,114.2l256.1-97.1L671.3,391.4c-79.2-10.1-165.5-16-255.9-16.8l9.5,25.9
		l-97.1,17.1l18.8-42.7c-81.3,1.6-158.9,7.3-230.7,16.5L6.5,589.8L252,669.7L285.4,547.3L285.4,547.3z"/>
	<path class="st4" d="M741.1,537.3c5.6,1.1,9.3,6.5,8.3,12.2c-1.1,5.6-6.5,9.3-12.2,8.3c-5.6-1.1-9.3-6.5-8.3-12.2
		C730,539.9,735.5,536.2,741.1,537.3L741.1,537.3z"/>
	<path class="st2" d="M742.1,538.9c4.4,0.8,7.3,5.1,6.4,9.5c-0.9,4.4-5.1,7.3-9.5,6.4c-4.4-0.9-7.3-5.1-6.4-9.5
		C733.4,540.9,737.7,538,742.1,538.9L742.1,538.9z"/>
	<path class="st4" d="M542.7,615.5c5.6,1.1,9.3,6.5,8.3,12.2c-1.1,5.6-6.5,9.3-12.2,8.3c-5.6-1.1-9.3-6.5-8.3-12.2
		C531.6,618.1,537.1,614.4,542.7,615.5L542.7,615.5z"/>
	<path class="st2" d="M543.7,617.1c4.4,0.8,7.3,5.1,6.4,9.5c-0.9,4.4-5.1,7.3-9.5,6.4c-4.4-0.8-7.3-5.1-6.4-9.5
		C535,619.1,539.3,616.2,543.7,617.1L543.7,617.1z"/>
	<path class="st4" d="M231.8,626.9c5.6,1.1,9.3,6.5,8.3,12.2c-1.1,5.6-6.5,9.3-12.2,8.3c-5.6-1.1-9.3-6.5-8.3-12.2
		C220.7,629.5,226.1,625.8,231.8,626.9L231.8,626.9z"/>
	<path class="st2" d="M232.8,628.4c4.4,0.8,7.3,5.1,6.4,9.5c-0.8,4.4-5.1,7.3-9.5,6.4c-4.4-0.9-7.3-5.1-6.4-9.5
		C224.1,630.4,228.3,627.6,232.8,628.4L232.8,628.4z"/>
	<path class="st4" d="M49.9,565.7c5.6,1.1,9.3,6.5,8.3,12.2c-1.1,5.6-6.5,9.3-12.2,8.3c-5.6-1.1-9.3-6.5-8.3-12.2
		C38.8,568.3,44.2,564.6,49.9,565.7L49.9,565.7z"/>
	<path class="st2" d="M50.8,567.3c4.4,0.8,7.3,5.1,6.4,9.5c-0.9,4.4-5.1,7.3-9.5,6.4c-4.4-0.9-7.3-5.1-6.4-9.5
		C42.2,569.3,46.4,566.4,50.8,567.3L50.8,567.3z"/>
</g>
</svg>
