<?xml version="1.0" encoding="utf-8"?>
<!-- Generator: Adobe Illustrator 21.1.0, SVG Export Plug-In . SVG Version: 6.00 Build 0)  -->
<svg version="1.1" id="Warstwa_1" xmlns="http://www.w3.org/2000/svg" xmlns:xlink="http://www.w3.org/1999/xlink" x="0px" y="0px"
	 viewBox="0 0 792 792" style="enable-background:new 0 0 792 792;" xml:space="preserve">
<style type="text/css">
	.st0{fill:#EAAB11;}
	.st1{fill:#FFFF00;}
	.st2{fill:#00548C;}
	.st3{fill:#0094FF;}
	.st4{fill:#004574;}
	.st5{fill:#31ACFF;}
	.st6{fill:#E2E6EA;}
</style>
<g>
	<polygon class="st0" points="488.3,36 845.8,579.6 847.4,611.9 508.8,740.3 434.8,617.1 319.7,620.9 282.7,756 -53.8,646.4 
		-55.4,614.2 263.8,36 	"/>
	<polygon class="st1" points="433.2,584.8 318,588.6 281.1,723.7 -55.4,614.2 263.8,36 488.3,36 845.8,579.6 507.1,708 	"/>
	<polygon class="st2" points="446.1,561.1 300.2,566 265.2,694.1 -21.5,600.8 277.5,59.2 475.8,59.2 810.5,568.2 517.1,679.4 	"/>
	<polygon class="st3" points="465.5,78.3 781.4,558.8 525.2,655.8 456.7,541.6 285.4,547.3 252,669.7 6.5,589.8 288.8,78.3 	"/>
	<path class="st4" d="M308.1,99.6c5.6,1.1,9.3,6.5,8.3,12.2c-1.1,5.6-6.5,9.3-12.2,8.3c-5.6-1.1-9.3-6.5-8.3-12.2
		C297,102.3,302.5,98.6,308.1,99.6L308.1,99.6z"/>
	<path class="st2" d="M309.1,101.2c4.4,0.8,7.3,5.1,6.4,9.5c-0.8,4.4-5.1,7.3-9.5,6.4c-4.4-0.8-7.3-5.1-6.4-9.5
		C300.4,103.2,304.7,100.3,309.1,101.2L309.1,101.2z"/>
	<path class="st4" d="M452.5,99.6c5.6,1.1,9.3,6.5,8.3,12.2c-1.1,5.6-6.5,9.3-12.2,8.3c-5.6-1.1-9.3-6.5-8.3-12.2
		C441.4,102.3,446.9,98.6,452.5,99.6L452.5,99.6z"/>
	<path class="st2" d="M453.5,101.2c4.4,0.8,7.3,5.1,6.4,9.5c-0.9,4.4-5.1,7.3-9.5,6.4c-4.4-0.8-7.3-5.1-6.4-9.5
		C444.8,103.2,449.1,100.3,453.5,101.2L453.5,101.2z"/>
	<path class="st5" d="M285.4,547.3l171.3-5.7l68.5,114.2l256.1-97.1L671.3,391.4c-177.8-22.6-377.2-22.7-555.4,0.1L6.5,589.8
		L252,669.7L285.4,547.3L285.4,547.3z"/>
	<path class="st4" d="M741.1,537.3c5.6,1.1,9.3,6.5,8.3,12.2c-1.1,5.6-6.5,9.3-12.2,8.3c-5.6-1.1-9.3-6.5-8.3-12.2
		C730,539.9,735.5,536.2,741.1,537.3L741.1,537.3z"/>
	<path class="st2" d="M742.1,538.9c4.4,0.8,7.3,5.1,6.4,9.5c-0.9,4.4-5.1,7.3-9.5,6.4c-4.4-0.8-7.3-5.1-6.4-9.5
		C733.4,540.9,737.7,538,742.1,538.9L742.1,538.9z"/>
	<path class="st4" d="M542.7,615.5c5.6,1.1,9.3,6.6,8.3,12.2c-1.1,5.6-6.5,9.3-12.2,8.3c-5.6-1.1-9.3-6.6-8.3-12.2
		C531.6,618.1,537.1,614.4,542.7,615.5L542.7,615.5z"/>
	<path class="st2" d="M543.7,617.1c4.4,0.8,7.3,5.1,6.4,9.5c-0.8,4.4-5.1,7.3-9.5,6.4c-4.4-0.8-7.3-5.1-6.4-9.5
		C535,619.1,539.3,616.2,543.7,617.1L543.7,617.1z"/>
	<path class="st4" d="M231.8,626.9c5.6,1.1,9.3,6.5,8.3,12.2c-1.1,5.6-6.5,9.3-12.2,8.3c-5.6-1.1-9.3-6.5-8.3-12.2
		C220.7,629.5,226.1,625.8,231.8,626.9L231.8,626.9z"/>
	<path class="st2" d="M232.8,628.4c4.4,0.8,7.3,5.1,6.4,9.5c-0.8,4.4-5.1,7.3-9.5,6.4c-4.4-0.8-7.3-5.1-6.4-9.5
		C224.1,630.4,228.3,627.6,232.8,628.4L232.8,628.4z"/>
	<path class="st4" d="M49.9,565.7c5.6,1.1,9.3,6.6,8.3,12.2c-1.1,5.6-6.5,9.3-12.2,8.3c-5.6-1.1-9.3-6.6-8.3-12.2
		C38.8,568.3,44.2,564.6,49.9,565.7L49.9,565.7z"/>
	<path class="st2" d="M50.8,567.3c4.4,0.8,7.3,5.1,6.4,9.5c-0.9,4.4-5.1,7.3-9.5,6.4c-4.4-0.8-7.3-5.1-6.4-9.5
		C42.2,569.3,46.4,566.4,50.8,567.3L50.8,567.3z"/>
	<path class="st2" d="M314.5,348.7V348c0-5.1-0.6-23.8-10.3-36.6c-9.6-13.5-27-14.1-32.1-14.1c-19.9,0-34,19.9-34,38.5
		c0,43,25.7,54.6,39.2,54.6c7.7,0,13.5-1.9,18-6.4c0.6-0.6,1.3-1.3,1.9-1.9c3.2-3.2,8.3-9,12.2-12.8
		C314.5,364.1,314.5,353.8,314.5,348.7L314.5,348.7z"/>
	<path class="st2" d="M409.5,240.2c-8.3-7.1-17.3-10.9-27-10.9c-5.1,0-10.3,0.6-14.8,2.6c-31.5,12.2-33.4,44.3-33.4,50.7
		c0,10.9,2.6,17.3,5.1,23.1c0.6,1.3,0.6,1.9,1.3,3.2c1.9,5.1,12.8,12.2,23.8,16.7c7.1,2.6,16.7,3.2,21.8,3.2c3.9,0,9,0,10.9-0.6
		c28.2-9.6,28.9-44.9,28.9-45.6C425.5,282.5,424.3,253,409.5,240.2L409.5,240.2z"/>
	<path class="st2" d="M482,289.6c-6.4,0-21.8,1.3-34.7,14.8c-13.5,13.5-14.1,37.9-14.1,43c0,14.8,5.8,21.2,15.4,32.1l1.9,1.9
		c6.4,7.1,14.1,10.9,21.8,10.9c4.5,0,9.6-1.3,15.4-3.9c8.3-3.9,28.9-16.7,28.9-55.9C516.7,296.7,491.7,289.6,482,289.6L482,289.6z"
		/>
	<path class="st2" d="M443.5,397.5c-1.3-1.3-2.6-1.9-3.2-2.6c-7.1-5.8-23.1-26.3-27.6-34c-5.1-8.3-16-18-37.9-18
		c-21.2,0-29.5,7.7-36.6,17.3c-4.5,5.1-18.6,23.8-24.4,28.9c-0.6,0.6-1.9,1.9-3.9,2.6c-7.7,5.1-21.8,15.4-21.8,36.6
		c0,21.8,7.7,38.5,22.5,49.4c4.5,3.2,11.6,5.1,19.3,5.1c9.6,0,18.6-2.6,21.2-3.2c3.9-1.3,10.9-3.2,23.8-3.2
		c10.9,0,18.6,2.6,26.3,5.1c7.1,2.6,13.5,4.5,21.8,4.5c19.9,0,41.1-18,41.1-47.5C464.1,412.9,451.2,403.2,443.5,397.5L443.5,397.5z"
		/>
	<path class="st6" d="M314.5,334.9v-0.6c0-5.1-0.6-23.8-10.3-36.6c-9.6-13.5-27-14.1-32.1-14.1c-19.9,0-34,19.9-34,38.5
		c0,43,25.7,54.6,39.2,54.6c7.7,0,13.5-1.9,18-6.4c0.6-0.6,1.3-1.3,1.9-1.9c3.2-3.2,8.3-9,12.2-12.8
		C314.5,350.3,314.5,340,314.5,334.9L314.5,334.9z"/>
	<path class="st6" d="M409.5,226.4c-8.3-7.1-17.3-10.9-27-10.9c-5.1,0-10.3,0.6-14.8,2.6c-31.5,12.2-33.4,44.3-33.4,50.7
		c0,10.9,2.6,17.3,5.1,23.1c0.6,1.3,0.6,1.9,1.3,3.2c1.9,5.1,12.8,12.2,23.8,16.7c7.1,2.6,16.7,3.2,21.8,3.2c3.9,0,9,0,10.9-0.6
		c28.2-9.6,28.9-44.9,28.9-45.6C425.5,268.8,424.3,239.2,409.5,226.4L409.5,226.4z"/>
	<path class="st6" d="M482,275.8c-6.4,0-21.8,1.3-34.7,14.8c-13.5,13.5-14.1,37.9-14.1,43c0,14.8,5.8,21.2,15.4,32.1l1.9,1.9
		c6.4,7.1,14.1,10.9,21.8,10.9c4.5,0,9.6-1.3,15.4-3.9c8.3-3.9,28.9-16.7,28.9-55.9C516.7,282.9,491.7,275.8,482,275.8L482,275.8z"
		/>
	<path class="st6" d="M443.5,383.7c-1.3-1.3-2.6-1.9-3.2-2.6c-7.1-5.8-23.1-26.3-27.6-34c-5.1-8.3-16-18-37.9-18
		c-21.2,0-29.5,7.7-36.6,17.3c-4.5,5.1-18.6,23.8-24.4,28.9c-0.6,0.6-1.9,1.9-3.9,2.6c-7.7,5.1-21.8,15.4-21.8,36.6
		c0,21.8,7.7,38.5,22.5,49.4c4.5,3.2,11.6,5.1,19.3,5.1c9.6,0,18.6-2.6,21.2-3.2c3.9-1.3,10.9-3.2,23.8-3.2
		c10.9,0,18.6,2.6,26.3,5.1c7.1,2.6,13.5,4.5,21.8,4.5c19.9,0,41.1-18,41.1-47.5C464.1,399.1,451.2,389.5,443.5,383.7L443.5,383.7z"
		/>
</g>
</svg>
