<?xml version="1.0" encoding="utf-8"?>
<!-- Generator: Adobe Illustrator 21.1.0, SVG Export Plug-In . SVG Version: 6.00 Build 0)  -->
<svg version="1.1" id="Warstwa_1" xmlns="http://www.w3.org/2000/svg" xmlns:xlink="http://www.w3.org/1999/xlink" x="0px" y="0px"
	 viewBox="0 0 792 792" style="enable-background:new 0 0 792 792;" xml:space="preserve">
<style type="text/css">
	.st0{fill:#EAAB11;}
	.st1{fill:#FFFF00;}
	.st2{fill:#00548C;}
	.st3{fill:#0094FF;}
	.st4{fill:#004574;}
	.st5{fill:#31ACFF;}
</style>
<g>
	<path class="st0" d="M605.4,331.9c15.2,12.3,29,26.2,40.1,41.9c19.3,27.4,32.9,58.3,35.4,92c0.5,6.8,0.6,13.6,0.4,20.4
		c0.5,3.6,0.9,7.3,1.2,11c2.1,29.4-2.5,58.7-13.7,86c-9.5,23-21.1,45.1-35.7,65.3c-11.2,15.5-23.2,30.8-36.7,44.3
		c-5.1,5.1-10.2,10.4-15.5,15.4c-5,4.8-11,8-16.8,11.5c-13.3,8-30,12.9-44.9,17.1c-25,7.2-51.2,11-77.1,14
		c-39.5,4.5-79.5,5.2-119.2,5c-57.3-0.3-114.7-5.1-171.6-11.5l-34.8-3.9l-1.6-31.4l-5.7-634l32.4-6.2c57-10.9,114.3-20.9,172-26.6
		c36.2-3.6,72.6-6.7,109-6.3c20.1,0.2,41.8,0.3,61.5,4.5l14.8,3.2l4.5,0.9l4.2,1.9l15,6.9c14.1,6.5,27.3,15,40,23.9
		c16.3,11.6,30.7,25.7,43.5,41.1c16.1,19.5,26,42.3,29.6,67.3c1.3,9.1,1.6,18.2,0.9,27.2c0.2,1.4,0.5,2.8,0.7,4.2
		c4.2,28.4-2.4,56.8-13.8,82.8C618.6,311.1,612.4,321.7,605.4,331.9L605.4,331.9z"/>
	<path class="st1" d="M589.2,319.7c21.5,15,41.4,32.9,56.3,54.1c19.3,27.4,32.9,58.3,35.4,92c2.1,29.4-2.5,58.7-13.7,86
		c-9.5,23-21.1,45.1-35.7,65.3c-11.2,15.6-23.2,30.8-36.7,44.3c-5.1,5.1-10.2,10.4-15.5,15.4c-5,4.8-11,8-16.8,11.5
		c-13.3,8-30,12.9-44.9,17.1c-25,7.2-51.2,11-77.1,14c-39.5,4.5-79.5,5.2-119.2,5c-57.3-0.3-114.7-5.1-171.6-11.5l-34.8-3.9
		l-5.7-634l32.4-6.2c57-10.9,114.3-20.9,172-26.6c36.2-3.6,72.6-6.7,109-6.3c20.1,0.2,41.8,0.3,61.5,4.5c5,1.1,10,2.2,14.8,3.2
		l4.5,0.9l4.2,1.9c5,2.3,10,4.6,15,6.9c14.1,6.5,27.3,15,40,23.9c16.3,11.6,30.7,25.7,43.5,41.1c16.1,19.5,26,42.3,29.6,67.3
		c4.2,28.4-2.4,56.8-13.8,82.8C613.8,286.9,602.2,304.1,589.2,319.7L589.2,319.7z M408.2,473.4c0-0.1,0-0.3-0.1-0.4
		c-0.3-0.9-0.8-1.9-1.3-2.8c-0.2-0.1-0.4-0.2-0.4-0.2c-3-1-10.9-0.5-14-0.2c-5.6,0.6-11.8,2.2-17.8,4.3l1.6,12.7
		c5.2-0.4,10.3-1.2,14.6-2.6c3.5-1.1,12.7-4.5,15.3-7.1c0.6-0.7,1.5-1.6,2.1-2.4C408,474.1,408.1,473.7,408.2,473.4L408.2,473.4z"/>
	<path class="st2" d="M554.7,324.3c27.5,16.3,54.4,36.9,72.3,62.5c16.9,24,29.2,51.1,31.3,80.7c1.9,26-2.2,51.6-12.1,75.8
		c-8.8,21.3-19.6,42-33.1,60.7c-10.4,14.5-21.8,29-34.4,41.6c-5,5-10,10.2-15.1,15.1c-3.1,2.9-9.2,6.3-12.8,8.5
		c-10.9,6.5-27.4,11.3-39.6,14.8c-23.5,6.8-49.2,10.5-73.4,13.2c-38.3,4.4-78,5-116.5,4.8c-56.3-0.3-113.3-5.1-169.2-11.3l-15-1.7
		l-5.3-595.2l13.9-2.7c56-10.7,113.3-20.7,170-26.3c35-3.4,71.4-6.6,106.5-6.2c17.6,0.2,39.8,0.3,57,4c5.1,1.1,10,2.2,15.1,3.2
		l1.9,0.4l1.8,0.8c5,2.3,9.9,4.6,14.9,6.9c12.7,5.9,25,13.7,36.4,21.9c14.7,10.5,27.7,23.2,39.1,37.1c13.5,16.3,21.7,35.2,24.7,56.2
		c3.5,24.1-2.5,48.5-12.1,70.5C590.9,283.1,573.3,305.2,554.7,324.3L554.7,324.3z M431.1,473.8c-0.2-1.6-0.5-3.2-0.7-4.8
		c-0.5-3.6-2.8-8.1-4.6-11.3c-2.2-3.9-6.1-6.6-10.1-8.4c-6.9-3.2-18.2-2.8-25.5-2.1c-12.7,1.2-27.3,6.6-40.1,12.2l6.2,49.8
		c14,0.6,29.5,0.1,41.5-3.8c7.8-2.6,19-7,24.7-13.2c2.6-2.8,6.6-7.6,7.3-11.5C430.2,478.4,430.6,476.1,431.1,473.8L431.1,473.8z
		 M392.9,267.5c0.1-2.1,0.2-4.3,0.3-6.4c0.1-2-0.8-3.7-1.9-5.3c-1.2-1.6-7.3-3-9-3.3c-5.8-1-15.7,1.6-24,4.3l-1.8,48.1
		c3.9-0.3,7.7-1.2,10.9-3c6-3.2,12-7.5,16-13.1c3-4.1,6.2-9.2,7.5-14.2C391.6,272.2,392.3,269.9,392.9,267.5L392.9,267.5z"/>
	<path class="st3" d="M149,107.8c68.1-13,124.3-21.7,168.5-26.1c44.2-4.3,79.1-6.4,104.7-6.2c25.6,0.2,43.5,1.4,53.6,3.6
		c10.1,2.2,15.2,3.3,15.2,3.3s5,2.3,14.9,6.9c9.9,4.6,21.1,11.4,33.7,20.3c12.6,8.9,24.5,20.3,35.9,34.1
		c11.4,13.8,18.4,29.7,21,47.8c2.7,18.1-1,38.5-10.9,61.2c-9.9,22.7-29.6,47.8-59.1,75.4c40.6,21.3,69.4,44.1,86.6,68.5
		c17.2,24.4,26.6,48.4,28.3,72.1c1.7,23.7-1.9,46.4-10.9,68.1c-8.9,21.7-19.3,40.8-31.2,57.2c-11.8,16.4-22.7,29.6-32.6,39.5
		c-9.9,9.9-14.9,14.9-14.9,14.9c-0.5,0.5-3.7,2.5-9.8,6.2c-6,3.6-17.9,8-35.5,13c-17.6,5.1-41.2,9.3-70.7,12.7
		c-29.5,3.4-67.6,4.9-114.5,4.7c-46.9-0.2-102.7-4-167.4-11.2L149,107.8L149,107.8z M409.8,270.2c0,0,0.1-2.8,0.4-8.3
		c0.2-5.6-1.4-10.9-5.1-15.9c-3.6-5.1-10.3-8.5-19.9-10.1c-9.7-1.7-24.2,1.3-43.5,9.1l-2.9,76.1c15,2.4,27.2,1.1,36.6-4
		c9.4-5.1,16.7-11.1,21.7-18.1c5.1-7,8.5-13.5,10.1-19.6C409,273.2,409.8,270.2,409.8,270.2L409.8,270.2z M448.2,474.5
		c0-0.5-0.4-3.1-1.1-8c-0.7-4.8-2.9-10.5-6.5-17c-3.6-6.5-9.5-11.7-17.8-15.6c-8.2-3.9-19.7-5.1-34.4-3.6
		c-14.7,1.4-33.7,7.7-56.9,18.8l9.4,76.1c26.6,2.4,47.2,1.2,62-3.6c14.7-4.8,25.4-10.8,31.9-17.8c6.5-7,10.4-13.6,11.6-19.9
		C447.6,477.7,448.2,474.5,448.2,474.5L448.2,474.5z"/>
	<path class="st4" d="M551,186.3c5.5,1.1,9.1,6.4,8,11.9c-1.1,5.5-6.4,9.1-11.9,8c-5.5-1.1-9.1-6.4-8-11.9
		C540.2,188.8,545.6,185.2,551,186.3L551,186.3z"/>
	<path class="st2" d="M552,187.8c4.3,0.8,7.1,5,6.3,9.3c-0.8,4.3-5,7.1-9.3,6.3c-4.3-0.8-7.1-5-6.3-9.3
		C543.5,189.8,547.7,187,552,187.8L552,187.8z"/>
	<path class="st4" d="M184,123.1c5.5,1.1,9.1,6.4,8,11.9c-1.1,5.5-6.4,9.1-11.9,8c-5.5-1.1-9.1-6.4-8-11.9
		C173.2,125.6,178.5,122,184,123.1L184,123.1z"/>
	<path class="st2" d="M184.9,124.6c4.3,0.8,7.1,5,6.3,9.3c-0.8,4.3-5,7.1-9.3,6.3c-4.3-0.8-7.1-5-6.3-9.3
		C176.5,126.6,180.6,123.8,184.9,124.6L184.9,124.6z"/>
	<path class="st5" d="M151.5,388.2l2.6,285.6c64.7,7.2,120.5,11,167.4,11.2c46.9,0.2,85-1.3,114.5-4.7c29.5-3.4,53-7.6,70.7-12.7
		c17.6-5.1,29.5-9.4,35.5-13c6-3.6,9.3-5.7,9.8-6.2l14.9-14.9c9.9-9.9,20.8-23.1,32.6-39.5c11.8-16.4,22.2-35.5,31.2-57.2
		c8.9-21.7,12.6-44.4,10.9-68.1c-1.7-23.7-11.1-47.7-28.3-72.1c-2.9-4.1-6.1-8.2-9.6-12.2c-65.8-6.2-135.7-9.6-208.1-9.6
		C309.6,374.8,227.5,379.6,151.5,388.2L151.5,388.2z M403,521.6c-14.7,4.8-35.4,6-62,3.6l-9.4-76.1c23.2-11.1,42.2-17.4,56.9-18.8
		c14.7-1.5,26.2-0.2,34.4,3.6c8.2,3.9,14.1,9.1,17.8,15.6c3.6,6.5,5.8,12.2,6.5,17c0.7,4.8,1.1,7.5,1.1,8l-1.8,9.4
		c-1.2,6.3-5.1,12.9-11.6,19.9C428.3,510.9,417.7,516.8,403,521.6L403,521.6z"/>
	<path class="st4" d="M593.1,478.1c5.5,1.1,9.1,6.4,8,11.9c-1.1,5.5-6.4,9.1-11.9,8c-5.5-1.1-9.1-6.4-8-11.9
		C582.3,480.7,587.6,477.1,593.1,478.1L593.1,478.1z"/>
	<path class="st2" d="M594,479.7c4.3,0.8,7.1,5,6.3,9.3c-0.8,4.3-5,7.1-9.3,6.3c-4.3-0.8-7.1-5-6.3-9.3
		C585.6,481.6,589.7,478.8,594,479.7L594,479.7z"/>
	<path class="st4" d="M191.7,637.7c5.5,1.1,9.1,6.4,8,11.9c-1.1,5.5-6.4,9.1-11.9,8c-5.5-1.1-9.1-6.4-8-11.9
		C180.9,640.2,186.2,636.6,191.7,637.7L191.7,637.7z"/>
	<path class="st2" d="M192.6,639.2c4.3,0.8,7.1,5,6.3,9.3c-0.8,4.3-5,7.1-9.3,6.3c-4.3-0.8-7.1-5-6.3-9.3
		C184.2,641.2,188.3,638.4,192.6,639.2L192.6,639.2z"/>
</g>
</svg>
