<?xml version="1.0" encoding="utf-8"?>
<!-- Generator: Adobe Illustrator 21.1.0, SVG Export Plug-In . SVG Version: 6.00 Build 0)  -->
<svg version="1.1" id="Warstwa_1" xmlns="http://www.w3.org/2000/svg" xmlns:xlink="http://www.w3.org/1999/xlink" x="0px" y="0px"
	 viewBox="0 0 792 792" style="enable-background:new 0 0 792 792;" xml:space="preserve">
<style type="text/css">
	.st0{fill:#EAAB11;}
	.st1{fill:#FFFF00;}
	.st2{fill:#00548C;}
	.st3{fill:#0094FF;}
	.st4{fill:#004574;}
	.st5{fill:#31ACFF;}
</style>
<g>
	<path class="st0" d="M570.4,84c35.9,21.9,66.8,52.1,93.6,84.3l20.1,24.1l1.5,30.3L549.1,390.6l157.8,168.3l1.5,30.3l-12.4,24
		c-10.9,21-28,38.6-46.2,53.4c-21.1,17.1-44.5,31.2-68.8,43.1c-27.2,13.3-55.9,23.7-85.1,31.6c-31.2,8.4-63.2,13.3-95.5,14.6
		c-33.1,1.3-66.4-2.3-98.5-10.6c-34-8.9-65.2-24.4-93-45.9c-36-27.8-67.3-61.5-88.2-102.2c-18.4-35.9-30.3-74.3-34.1-114.5
		c-0.9-10-1.4-20.1-1.5-30.1c0-0.1,0-0.1,0-0.2c-3.7-39.1-0.5-78.2,9-116.3c9.1-36.5,22.2-71.9,39.5-105.4
		c16.5-32.1,36.6-62.3,60.4-89.4c21.3-24.4,45.3-46.9,72.4-64.8l1.3-0.9l1.4-0.7l13.9-7.6c14.4-7.9,30.2-13.4,45.9-18.1
		c21.1-6.3,43.1-9.8,65-11.9c28.4-2.7,57,0.5,84.6,7.2C511.1,52.1,541.9,66.5,570.4,84L570.4,84z M421.4,446
		c21.8-7.5,47.1-27.5,66.5-44.7l-1.7-1.8c-13.2-14-34.4-34.7-52.4-41.8c-6.4-2.5-17.4-6.1-24.3-4.1c-6.3,1.8-10.8,5.6-14.7,10.8
		c-7,9.3-13.2,19.3-17.9,30c-3.4,7.8-6.6,16-8.8,24.3c2.1,6,5.1,11.9,8,17.1c3.7,6.6,8.6,11.2,15.5,14.4
		C398,453.2,415.3,448.2,421.4,446L421.4,446z"/>
	<path class="st1" d="M363.9,400.5c0.6,3.2,1.3,6.4,1.9,9.6c1.6,8.7,6.2,18.1,10.5,25.8c3.7,6.6,8.6,11.2,15.5,14.4
		c6.3,2.9,23.6-2.1,29.7-4.2c26-8.9,56.9-35.6,77-54.2l4.1-3.8l-17.8-18.8c-13.2-14-34.4-34.7-52.4-41.8c-6.4-2.5-17.4-6.1-24.3-4.1
		c-6.3,1.8-10.8,5.6-14.7,10.8c-7,9.3-13.2,19.3-17.9,30c-3.9,8.9-7.5,18.3-9.6,27.8C365.2,394.9,364.5,397.7,363.9,400.5
		L363.9,400.5z M535.1,375.6l171.8,183.3l-12.4,24c-10.9,21-28,38.6-46.2,53.4c-21.1,17.1-44.5,31.2-68.8,43.1
		c-27.2,13.3-55.9,23.7-85.1,31.6c-31.2,8.4-63.2,13.3-95.5,14.6c-33.1,1.3-66.4-2.3-98.5-10.6c-34-8.9-65.2-24.4-93-45.9
		c-36-27.8-67.3-61.5-88.2-102.2c-18.4-35.9-30.3-74.3-34.1-114.5c-3.7-39.1-0.5-78.2,9-116.3c9.1-36.5,22.2-71.9,39.5-105.4
		c16.5-32.1,36.6-62.3,60.4-89.4c21.3-24.4,45.3-46.9,72.4-64.8l1.3-0.9l1.4-0.7c4.6-2.5,9.3-5.1,13.9-7.6
		c14.4-7.9,30.2-13.4,45.9-18.1c21.1-6.3,43.1-9.8,65-11.9c28.4-2.7,57,0.5,84.6,7.2c32.6,7.9,63.4,22.4,92,39.8
		c35.9,21.9,66.8,52.1,93.6,84.3l20.1,24.1L535.1,375.6L535.1,375.6z"/>
	<path class="st2" d="M341.7,399.8c0.7,4.7,1.8,9.7,2.6,14.3c2.1,11.2,7.4,22.5,12.9,32.4c6,10.7,14.3,18.4,25.4,23.5
		c13.2,6,32.9,1,45.8-3.4c29.3-10,62.3-38.1,84.7-58.8l12-11l155.4,165.7l-5.3,10.3c-9.4,18.2-24.9,33.7-40.6,46.5
		c-19.8,16-41.8,29.3-64.6,40.4c-26,12.7-53.3,22.6-81.2,30.1c-29.6,8-60,12.6-90.7,13.8c-31.1,1.2-62.1-2.1-92.2-10
		c-31.2-8.1-59.7-22.3-85.2-42c-33.5-25.8-62.7-57.1-82.2-95c-17.2-33.5-28.3-69.1-31.8-106.6c-3.5-36.7-0.5-73.2,8.5-109
		c8.7-34.9,21.2-68.7,37.7-100.7c15.7-30.5,34.8-59.2,57.5-85.1c20-22.9,42.6-44.2,68-60.9l0.6-0.4l0.6-0.3c4.7-2.6,9.3-5.1,14-7.7
		c12.8-7.1,27.7-12.2,41.6-16.4c19.7-5.9,40.4-9.2,60.8-11.1c26-2.5,52.2,0.5,77.4,6.7c30.4,7.4,59.2,21,85.8,37.3
		c33.7,20.6,63.1,49.5,88.3,79.7l8.7,10.4L513.4,367.9l-12.9-13.6c-15.7-16.5-38.7-38.6-60.2-47.1c-11.6-4.6-26-8.3-38.4-4.7
		c-10.9,3.1-19.3,9.6-26,18.6c-8.1,10.7-15.1,22.2-20.4,34.4c-4.4,10.1-8.5,20.9-10.9,31.7C343.6,391.4,342.7,395.6,341.7,399.8
		L341.7,399.8z"/>
	<path class="st3" d="M634.8,192.7L512.4,343c-25.2-26.6-47.2-43.6-66.1-51c-18.9-7.5-35.2-9.2-48.9-5.2
		c-13.7,4-25.3,12.1-34.6,24.5c-9.3,12.4-16.8,24.9-22.4,37.7c-5.6,12.8-9.6,24.4-11.9,34.6c-2.3,10.3-3.5,15.4-3.5,15.4
		c0,0.9,1,7,3.1,18.2c2.1,11.2,7,23.7,14.7,37.4c7.7,13.7,18.6,23.9,32.9,30.4c14.2,6.5,33.6,5.6,58-2.8
		c24.5-8.4,54.6-29.1,90.5-62.2l136.3,145.4c-7,13.5-19.1,27.3-36.3,41.2c-17.2,14-37.8,26.8-61.5,38.5
		c-23.8,11.7-49.9,21.3-78.3,29c-28.4,7.7-57.4,12.1-87,13.3c-29.6,1.2-58.7-2-87.4-9.4c-28.7-7.5-55.1-20.5-79.3-39.1
		c-35-27-60.8-56.9-77.6-89.5c-16.8-32.6-26.8-66.2-30.1-100.7c-3.3-34.5-0.6-69,8-103.5c8.6-34.5,20.7-66.9,36.3-97.2
		c15.6-30.3,34-57.6,55.2-81.8c21.2-24.2,42.8-43.6,64.7-58c0,0,4.7-2.6,14-7.7c9.3-5.1,22.1-10.1,38.4-15
		c16.3-4.9,35.5-8.4,57.7-10.5c22.1-2.1,46.1,0,72,6.3c25.9,6.3,52.9,18.1,81.1,35.3C578.7,133.8,606.8,159.2,634.8,192.7
		L634.8,192.7z"/>
	<path class="st4" d="M511.4,299.4c5.3,1,8.8,6.1,7.7,11.4c-1,5.3-6.1,8.8-11.4,7.7c-5.3-1-8.8-6.1-7.7-11.4
		C501,301.8,506.1,298.4,511.4,299.4L511.4,299.4z"/>
	<path class="st2" d="M512.3,300.8c4.1,0.8,6.8,4.8,6,8.9c-0.8,4.1-4.8,6.8-8.9,6c-4.1-0.8-6.8-4.8-6-8.9
		C504.2,302.8,508.2,300,512.3,300.8L512.3,300.8z"/>
	<path class="st4" d="M604.8,184.3c5.3,1,8.8,6.1,7.7,11.4c-1,5.3-6.1,8.8-11.4,7.7c-5.3-1-8.8-6.1-7.7-11.4
		C594.4,186.7,599.5,183.3,604.8,184.3L604.8,184.3z"/>
	<path class="st2" d="M605.7,185.7c4.1,0.8,6.8,4.8,6,8.9c-0.8,4.1-4.8,6.8-8.9,6c-4.1-0.8-6.8-4.8-6-8.9
		C597.6,187.6,601.6,184.9,605.7,185.7L605.7,185.7z"/>
	<path class="st4" d="M214.2,222.1c5.3,1,8.8,6.1,7.7,11.4c-1,5.3-6.1,8.8-11.4,7.7c-5.3-1-8.8-6.1-7.7-11.4
		C203.8,224.6,208.9,221.1,214.2,222.1L214.2,222.1z"/>
	<path class="st2" d="M215.1,223.6c4.1,0.8,6.8,4.8,6,8.9c-0.8,4.1-4.8,6.8-8.9,6c-4.1-0.8-6.8-4.8-6-8.9
		C206.9,225.5,210.9,222.8,215.1,223.6L215.1,223.6z"/>
	<path class="st5" d="M153.1,549.3c16.8,32.6,42.6,62.4,77.6,89.5c24.2,18.6,50.7,31.7,79.3,39.1c28.7,7.5,57.8,10.6,87.4,9.4
		c29.6-1.2,58.6-5.6,87-13.3c28.4-7.7,54.5-17.4,78.3-29c23.8-11.7,44.3-24.5,61.5-38.4c17.2-14,29.4-27.7,36.3-41.2L524.3,419.9
		c-35.9,33.1-66.1,53.8-90.5,62.2c-24.5,8.4-43.8,9.3-58,2.8c-14.2-6.5-25.2-16.7-32.9-30.4c-7.7-13.7-12.6-26.2-14.7-37.4
		c-2.1-11.2-3.1-17.2-3.1-18.2l3.5-15.4c0.6-2.5,1.2-5.1,2-7.7c-73.1,2-142.9,7.5-207.5,16c-1.8,18.9-1.8,37.8,0,56.7
		C126.3,483.1,136.3,516.6,153.1,549.3L153.1,549.3z"/>
	<path class="st4" d="M631.2,561.9c5.3,1,8.8,6.1,7.7,11.4s-6.1,8.8-11.4,7.7s-8.8-6.1-7.7-11.4
		C620.7,564.3,625.9,560.9,631.2,561.9L631.2,561.9z"/>
	<path class="st2" d="M632.1,563.3c4.1,0.8,6.8,4.8,6,8.9c-0.8,4.1-4.8,6.8-8.9,6c-4.1-0.8-6.8-4.8-6-8.9
		C623.9,565.2,627.9,562.5,632.1,563.3L632.1,563.3z"/>
	<path class="st4" d="M525.8,446.7c5.3,1,8.8,6.1,7.7,11.4c-1,5.3-6.1,8.8-11.4,7.7c-5.3-1-8.8-6.1-7.7-11.4
		C515.3,449.2,520.5,445.7,525.8,446.7L525.8,446.7z"/>
	<path class="st2" d="M526.7,448.2c4.1,0.8,6.8,4.8,6,8.9c-0.8,4.1-4.8,6.8-8.9,6c-4.1-0.8-6.8-4.8-6-8.9
		C518.5,450.1,522.5,447.4,526.7,448.2L526.7,448.2z"/>
	<path class="st4" d="M176.9,524.9c5.3,1,8.8,6.1,7.7,11.4c-1,5.3-6.1,8.8-11.4,7.7c-5.3-1-8.8-6.1-7.7-11.4
		C166.5,527.4,171.6,523.9,176.9,524.9L176.9,524.9z"/>
	<path class="st2" d="M177.8,526.4c4.1,0.8,6.8,4.8,6,8.9c-0.8,4.1-4.8,6.8-8.9,6c-4.1-0.8-6.8-4.8-6-8.9
		C169.7,528.3,173.7,525.6,177.8,526.4L177.8,526.4z"/>
</g>
</svg>
