<?xml version="1.0" encoding="utf-8"?>
<!-- Generator: Adobe Illustrator 21.1.0, SVG Export Plug-In . SVG Version: 6.00 Build 0)  -->
<svg version="1.1" id="Warstwa_1" xmlns="http://www.w3.org/2000/svg" xmlns:xlink="http://www.w3.org/1999/xlink" x="0px" y="0px"
	 viewBox="0 0 792 792" style="enable-background:new 0 0 792 792;" xml:space="preserve">
<style type="text/css">
	.st0{fill:#EAAB11;}
	.st1{fill:#FFFF00;}
	.st2{fill:#00548C;}
	.st3{fill:#0094FF;}
	.st4{fill:#004574;}
	.st5{fill:#31ACFF;}
</style>
<g>
	<path class="st0" d="M135,80.4c37.7-7.3,75.4-14.3,113.2-20.8c26.7-4.5,53.5-8.9,80.4-12.1l60.5-7.3c41-6.4,83.4-6.2,123.5,5.8
		c35.4,10.6,67.5,28.2,94.2,53.8c26.2,25,45.6,55.3,58.7,89c13.3,34.4,20.3,70.6,21.9,107.3c0.2,4.2,0.3,8.4,0.3,12.6
		c0.6,6.1,1,12.2,1.2,18.3c1.6,38.8-2.9,77.8-12.1,115.5c-9.9,40.4-26,78.9-47.1,114.7c-22.3,38-50.5,72-82.6,102.1
		c-35.1,32.9-75.5,59.1-119,79.3l-2,0.9l-2.1,0.7c-4.4,1.5-8.8,2.8-13.2,4.1c-15.8,5-33.1,6.9-49.6,8.7c-27.7,3-55.8,3.1-83.6,2.7
		c-42.5-0.6-84.9-5-127.1-10.3l-33.4-4.2l-1.5-30.9L102.8,86.6L135,80.4L135,80.4z M373.5,360.3l-3.3,93.5
		c10.2-7.7,20.7-17.2,27.6-28.1c5.8-9.2,10.7-19.1,13.5-29.6c1.1-4,2.5-9.1,3.3-14c-1.4-6-3.8-12.2-6.1-17.8c-2.1-5-4.9-9.6-9-13.2
		c-1.6-0.4-4.9-0.2-6.3-0.1C388.1,351.5,380.1,356,373.5,360.3L373.5,360.3z"/>
	<path class="st1" d="M135,80.4c37.7-7.3,75.4-14.3,113.2-20.8c26.7-4.5,53.5-8.9,80.4-12.1c20.4-2.5,40.8-4.9,60.5-7.3
		c41-6.4,83.4-6.2,123.5,5.8c35.4,10.6,67.5,28.2,94.2,53.8c26.2,25,45.6,55.3,58.7,89c13.3,34.4,20.3,70.6,21.9,107.3
		c1.6,38.8-2.9,77.8-12.1,115.5c-9.9,40.4-26,78.9-47.1,114.7c-22.4,38-50.5,72-82.6,102.1c-35.1,32.9-75.5,59.1-119,79.3l-2,0.9
		l-2.1,0.7c-4.4,1.5-8.8,2.8-13.2,4.1c-15.8,5-33.1,6.9-49.6,8.7c-27.7,3-55.8,3.1-83.6,2.7c-42.5-0.6-84.9-5-127.1-10.3l-33.4-4.2
		L102.8,86.6L135,80.4L135,80.4z M415.3,363.9c-0.4-3.1-1.1-6.2-1.6-9.3c-1.2-7.1-4.1-14.6-6.8-21.2c-2.1-5-4.9-9.6-9-13.2
		c-1.6-0.4-4.9-0.2-6.3-0.1c-5.1,0.5-13.1,5-19.7,9.3l-4.4,126.4c0.6-0.4,1.1-0.8,1.7-1.2c10.6-7.9,21.5-17.6,28.5-28.8
		c5.8-9.1,10.7-19.1,13.5-29.6c1.6-6.1,4-15,4-21.3C415.3,371.2,415.3,367.6,415.3,363.9L415.3,363.9z"/>
	<path class="st2" d="M139.2,102.2c37.5-7.2,75-14.3,112.7-20.7c26.3-4.5,52.9-8.8,79.4-12c20.6-2.5,41.1-5,61.2-7.4
		c37.7-5.8,76.9-5.9,113.7,5.1c32,9.6,61,25.4,85.3,48.5c23.9,22.8,41.4,50.3,53.3,81c12.4,32.1,18.9,65.9,20.4,100.3
		c1.6,36.7-2.8,73.6-11.5,109.2C644.2,444.6,629,481,609,515c-21.3,36.2-48,68.5-78.6,97.2c-33.4,31.3-71.8,56.1-113.2,75.4
		l-0.9,0.4l-0.9,0.3c-4.2,1.4-8.5,2.7-12.8,4c-13.8,4.3-31,6.3-45.3,7.8c-26.5,2.9-54.3,3-80.9,2.6c-41.4-0.6-83.5-4.9-124.6-10.1
		l-14.4-1.8l-12-585.9L139.2,102.2L139.2,102.2z M344.1,491.7c13.7-4.6,27-10.8,38.4-19.4c12.8-9.6,25.4-21.2,34-34.8
		c7-11.1,12.8-23,16.2-35.7c2.2-8.1,4.8-18.7,4.8-27.1c0-4.1,0-8.1,0-12.2c-0.4-3.8-1.3-8-1.9-11.7c-1.5-8.7-4.8-17.8-8.2-26
		c-3.5-8.4-8.5-15.9-15.4-21.9c-6.1-5.2-14.8-5.7-22.4-4.9c-12.6,1.2-28,11.1-39.4,19.6L344.1,491.7L344.1,491.7z"/>
	<path class="st3" d="M142.4,118.6c86.1-16.7,149.7-27.5,190.9-32.5c41.2-5,61.7-7.5,61.7-7.5c40-6.2,75.4-4.6,106.3,4.6
		c30.9,9.3,57.1,24.1,78.5,44.6c21.4,20.5,37.8,45.4,49.2,74.9c11.4,29.5,17.8,61.1,19.3,94.9c1.4,33.8-2.3,68.6-11.1,104.5
		c-8.8,35.9-23.1,70.6-42.8,104.2c-19.7,33.5-45,64.7-75.6,93.5c-30.7,28.8-67,52.9-108.8,72.4c0,0-4.2,1.3-12.5,3.9
		c-8.3,2.6-22.4,5-42.1,7.1c-19.7,2.1-46,3-78.9,2.5c-32.8-0.5-73.7-3.8-122.7-10L142.4,118.6L142.4,118.6z M326.5,514
		c27.1-6.2,49.1-15.6,66-28.2c16.9-12.6,29.6-25.7,38.2-39.3c8.6-13.6,14.6-27,18.2-40.3c3.6-13.3,5.4-23.8,5.4-31.4
		c0-8.1,0-12.4,0-12.8c0-1-0.7-5.6-2.1-13.9c-1.4-8.3-4.5-18.2-9.3-29.6c-4.8-11.4-11.4-20.8-20-28.2c-8.6-7.4-20.2-10.3-35-8.9
		c-14.7,1.4-32.8,10.7-54.2,27.8L326.5,514L326.5,514z"/>
	<path class="st4" d="M604.3,262.6c5.4,1,8.9,6.3,7.9,11.7s-6.3,8.9-11.7,7.9c-5.4-1-8.9-6.3-7.9-11.7
		C593.7,265.1,598.9,261.6,604.3,262.6L604.3,262.6z"/>
	<path class="st2" d="M605.2,264.1c4.2,0.8,7,4.9,6.2,9.1c-0.8,4.2-4.9,7-9.1,6.2c-4.2-0.8-7-4.9-6.2-9.1
		C596.9,266.1,601,263.3,605.2,264.1L605.2,264.1z"/>
	<path class="st4" d="M476.8,96.8c5.4,1,8.9,6.3,7.9,11.7c-1,5.4-6.3,8.9-11.7,7.9c-5.4-1-8.9-6.3-7.9-11.7
		C466.1,99.3,471.4,95.8,476.8,96.8L476.8,96.8z"/>
	<path class="st2" d="M477.7,98.3c4.2,0.8,7,4.9,6.2,9.1c-0.8,4.2-4.9,7-9.1,6.2c-4.2-0.8-7-4.9-6.2-9.1
		C469.4,100.3,473.5,97.5,477.7,98.3L477.7,98.3z"/>
	<path class="st4" d="M180.1,134.3c5.4,1,8.9,6.3,7.9,11.7s-6.3,8.9-11.7,7.9c-5.4-1-8.9-6.3-7.9-11.7
		C169.4,136.8,174.7,133.2,180.1,134.3L180.1,134.3z"/>
	<path class="st2" d="M181,135.7c4.2,0.8,7,4.9,6.2,9.1c-0.8,4.2-4.9,7-9.1,6.2c-4.2-0.8-7-4.9-6.2-9.1
		C172.7,137.7,176.8,134.9,181,135.7L181,135.7z"/>
	<path class="st5" d="M148,389.1l5.9,286.8c49,6.2,89.9,9.5,122.7,10c32.8,0.5,59.1-0.4,78.9-2.5c19.7-2.1,33.8-4.5,42.1-7.1
		l12.5-3.9c41.9-19.5,78.1-43.6,108.8-72.4c30.7-28.8,55.9-59.9,75.6-93.5c19.7-33.5,34-68.3,42.8-104.2c1.1-4.5,2.1-9,3.1-13.5
		c-58.7-6.8-121.1-11.2-186.1-12.9c-0.2,7.5-1.9,17.6-5.3,30.3c-3.6,13.3-9.6,26.8-18.2,40.3c-8.6,13.6-21.3,26.6-38.2,39.3
		c-16.9,12.6-38.9,22-66,28.2l4.8-137.9C267.3,377.9,205.8,382.4,148,389.1L148,389.1z"/>
	<path class="st4" d="M480.2,584.4c5.4,1,8.9,6.3,7.9,11.7c-1,5.4-6.3,8.9-11.7,7.9c-5.4-1-8.9-6.3-7.9-11.7
		C469.5,586.9,474.8,583.4,480.2,584.4L480.2,584.4z"/>
	<path class="st2" d="M481.1,585.9c4.2,0.8,7,4.9,6.2,9.1c-0.8,4.2-4.9,7-9.1,6.2c-4.2-0.8-7-4.9-6.2-9.1S476.9,585.1,481.1,585.9
		L481.1,585.9z"/>
	<path class="st4" d="M190.2,638.5c5.4,1,8.9,6.3,7.9,11.7c-1,5.4-6.3,8.9-11.7,7.9c-5.4-1-8.9-6.3-7.9-11.7
		C179.6,641,184.8,637.5,190.2,638.5L190.2,638.5z"/>
	<path class="st2" d="M191.1,640c4.2,0.8,7,4.9,6.2,9.1c-0.8,4.2-4.9,7-9.1,6.2c-4.2-0.8-7-4.9-6.2-9.1
		C182.8,641.9,186.9,639.2,191.1,640L191.1,640z"/>
</g>
</svg>
