<?xml version="1.0" encoding="utf-8"?>
<!-- Generator: Adobe Illustrator 21.1.0, SVG Export Plug-In . SVG Version: 6.00 Build 0)  -->
<svg version="1.1" id="Warstwa_1" xmlns="http://www.w3.org/2000/svg" xmlns:xlink="http://www.w3.org/1999/xlink" x="0px" y="0px"
	 viewBox="0 0 792 792" style="enable-background:new 0 0 792 792;" xml:space="preserve">
<style type="text/css">
	.st0{fill:#EAAB11;}
	.st1{fill:#FFFF00;}
	.st2{fill:#00548C;}
	.st3{fill:#0094FF;}
	.st4{fill:#004574;}
	.st5{fill:#31ACFF;}
	.st6{fill:#E2E6EA;}
</style>
<g>
	<path class="st0" d="M135,80.4c37.7-7.3,75.4-14.3,113.2-20.8c26.7-4.5,53.5-8.9,80.4-12.1l60.5-7.3c41-6.4,83.4-6.2,123.5,5.8
		c35.4,10.6,67.5,28.2,94.2,53.8c26.2,25,45.6,55.3,58.7,89c13.3,34.4,20.3,70.6,21.9,107.3c0.2,4.2,0.3,8.4,0.3,12.6
		c0.6,6.1,1,12.2,1.2,18.3c1.6,38.8-2.9,77.8-12.1,115.5c-9.9,40.4-26,78.9-47.1,114.7c-22.3,38-50.5,72-82.6,102.1
		c-35.1,32.9-75.5,59.1-119,79.3l-2,0.9l-2.1,0.7c-4.4,1.5-8.8,2.8-13.2,4.1c-15.8,5-33.1,6.9-49.6,8.7c-27.7,3-55.8,3.1-83.6,2.7
		c-42.5-0.6-84.9-5-127.1-10.3l-33.4-4.2l-1.5-30.9L102.8,86.6L135,80.4L135,80.4z"/>
	<path class="st1" d="M135,80.4c37.7-7.3,75.4-14.3,113.2-20.8c26.7-4.5,53.5-8.9,80.4-12.1c20.4-2.5,40.8-4.9,60.5-7.3
		c41-6.4,83.4-6.2,123.5,5.8c35.4,10.6,67.5,28.2,94.2,53.8c26.2,25,45.6,55.3,58.7,89c13.3,34.4,20.3,70.6,21.9,107.3
		c1.6,38.8-2.9,77.8-12.1,115.5c-9.9,40.4-26,78.9-47.1,114.7c-22.4,38-50.5,72-82.6,102.1c-35.1,32.9-75.5,59.1-119,79.3l-2,0.9
		l-2.1,0.7c-4.4,1.5-8.8,2.8-13.2,4.1c-15.8,5-33.1,6.9-49.6,8.7c-27.7,3-55.8,3.1-83.6,2.7c-42.5-0.6-84.9-5-127.1-10.3l-33.4-4.2
		L102.8,86.6L135,80.4L135,80.4z"/>
	<path class="st2" d="M139.2,102.2c37.5-7.2,75-14.3,112.7-20.7c26.3-4.5,52.9-8.8,79.4-12c20.6-2.5,41.1-5,61.2-7.4
		c37.7-5.8,76.9-5.9,113.7,5.1c32,9.6,61,25.4,85.3,48.5c23.9,22.8,41.4,50.3,53.3,81c12.4,32.1,18.9,65.9,20.4,100.3
		c1.6,36.7-2.8,73.6-11.5,109.2C644.2,444.6,629,481,609,515c-21.3,36.2-48,68.5-78.6,97.2c-33.4,31.3-71.8,56.1-113.2,75.4
		l-0.9,0.4l-0.9,0.3c-4.2,1.4-8.5,2.7-12.8,4c-13.8,4.3-31,6.3-45.3,7.8c-26.5,2.9-54.3,3-80.9,2.6c-41.4-0.6-83.5-4.9-124.6-10.1
		l-14.4-1.8l-12-585.9L139.2,102.2L139.2,102.2z"/>
	<path class="st3" d="M142.4,118.6c86.1-16.7,149.7-27.5,190.9-32.5c41.2-5,61.7-7.5,61.7-7.5c40-6.2,75.4-4.6,106.3,4.6
		c30.9,9.3,57.1,24.1,78.5,44.6c21.4,20.5,37.8,45.4,49.2,74.9c11.4,29.5,17.8,61.1,19.3,94.9c1.4,33.8-2.3,68.6-11.1,104.5
		c-8.8,35.9-23.1,70.6-42.8,104.2c-19.7,33.5-45,64.7-75.6,93.5c-30.7,28.8-67,52.9-108.8,72.4c0,0-4.2,1.3-12.5,3.9
		c-8.3,2.6-22.4,5-42.1,7.1c-19.7,2.1-46,3-78.9,2.5c-32.8-0.5-73.7-3.8-122.7-10L142.4,118.6L142.4,118.6z"/>
	<path class="st4" d="M604.3,262.6c5.4,1,8.9,6.3,7.9,11.7s-6.3,8.9-11.7,7.9c-5.4-1-8.9-6.3-7.9-11.7
		C593.7,265.1,598.9,261.6,604.3,262.6L604.3,262.6z"/>
	<path class="st2" d="M605.2,264.1c4.2,0.8,7,4.9,6.2,9.1c-0.8,4.2-4.9,7-9.1,6.2c-4.2-0.8-7-4.9-6.2-9.1
		C596.9,266.1,601,263.3,605.2,264.1L605.2,264.1z"/>
	<path class="st4" d="M476.8,96.8c5.4,1,8.9,6.3,7.9,11.7c-1,5.4-6.3,8.9-11.7,7.9c-5.4-1-8.9-6.3-7.9-11.7
		C466.1,99.3,471.4,95.8,476.8,96.8L476.8,96.8z"/>
	<path class="st2" d="M477.7,98.3c4.2,0.8,7,4.9,6.2,9.1c-0.8,4.2-4.9,7-9.1,6.2c-4.2-0.8-7-4.9-6.2-9.1
		C469.4,100.3,473.5,97.5,477.7,98.3L477.7,98.3z"/>
	<path class="st4" d="M180.1,134.3c5.4,1,8.9,6.3,7.9,11.7s-6.3,8.9-11.7,7.9c-5.4-1-8.9-6.3-7.9-11.7
		C169.4,136.8,174.7,133.2,180.1,134.3L180.1,134.3z"/>
	<path class="st2" d="M181,135.7c4.2,0.8,7,4.9,6.2,9.1c-0.8,4.2-4.9,7-9.1,6.2c-4.2-0.8-7-4.9-6.2-9.1
		C172.7,137.7,176.8,134.9,181,135.7L181,135.7z"/>
	<path class="st5" d="M148,389.1l5.9,286.8c49,6.2,89.9,9.5,122.7,10c32.8,0.5,59.1-0.4,78.9-2.5c19.7-2.1,33.8-4.5,42.1-7.1
		l12.5-3.9c41.9-19.5,78.1-43.6,108.8-72.4c30.7-28.8,55.9-59.9,75.6-93.5c19.7-33.5,34-68.3,42.8-104.2c1.1-4.5,2.1-9,3.1-13.5
		C484.1,370.7,304.3,370.8,148,389.1L148,389.1z"/>
	<path class="st4" d="M480.2,584.4c5.4,1,8.9,6.3,7.9,11.7c-1,5.4-6.3,8.9-11.7,7.9c-5.4-1-8.9-6.3-7.9-11.7
		C469.5,586.9,474.8,583.4,480.2,584.4L480.2,584.4z"/>
	<path class="st2" d="M481.1,585.9c4.2,0.8,7,4.9,6.2,9.1c-0.8,4.2-4.9,7-9.1,6.2c-4.2-0.8-7-4.9-6.2-9.1
		C472.8,587.9,476.9,585.1,481.1,585.9L481.1,585.9z"/>
	<path class="st4" d="M190.2,638.5c5.4,1,8.9,6.3,7.9,11.7c-1,5.4-6.3,8.9-11.7,7.9c-5.4-1-8.9-6.3-7.9-11.7
		C179.6,641,184.8,637.5,190.2,638.5L190.2,638.5z"/>
	<path class="st2" d="M191.1,640c4.2,0.8,7,4.9,6.2,9.1c-0.8,4.2-4.9,7-9.1,6.2c-4.2-0.8-7-4.9-6.2-9.1
		C182.8,641.9,186.9,639.2,191.1,640L191.1,640z"/>
	<path class="st2" d="M317.5,352.5v-0.6c0-4.9-0.6-22.7-9.8-35c-9.2-12.9-25.8-13.5-30.7-13.5c-19,0-32.6,19-32.6,36.9
		c0,41.2,24.6,52.2,37.5,52.2c7.4,0,12.9-1.8,17.2-6.1c0.6-0.6,1.2-1.2,1.8-1.8c3.1-3.1,8-8.6,11.7-12.3
		C317.5,367.3,317.5,357.5,317.5,352.5L317.5,352.5z"/>
	<path class="st2" d="M408.4,248.7c-8-6.8-16.6-10.4-25.8-10.4c-4.9,0-9.8,0.6-14.1,2.5c-30.1,11.7-32,42.4-32,48.5
		c0,10.4,2.5,16.6,4.9,22.1c0.6,1.2,0.6,1.8,1.2,3.1c1.8,4.9,12.3,11.7,22.7,16c6.8,2.5,16,3.1,20.9,3.1c3.7,0,8.6,0,10.4-0.6
		c27-9.2,27.7-43,27.7-43.6C423.8,289.2,422.5,261,408.4,248.7L408.4,248.7z"/>
	<path class="st2" d="M477.8,296c-6.1,0-20.9,1.2-33.2,14.1c-12.9,12.9-13.5,36.3-13.5,41.2c0,14.1,5.5,20.3,14.7,30.7l1.8,1.8
		c6.1,6.8,13.5,10.4,20.9,10.4c4.3,0,9.2-1.2,14.7-3.7c8-3.7,27.7-16,27.7-53.5C511,302.8,487.1,296,477.8,296L477.8,296z"/>
	<path class="st2" d="M441,399.2c-1.2-1.2-2.5-1.8-3.1-2.5c-6.8-5.5-22.1-25.2-26.4-32.6c-4.9-8-15.4-17.2-36.3-17.2
		c-20.3,0-28.3,7.4-35,16.6c-4.3,4.9-17.8,22.7-23.4,27.7c-0.6,0.6-1.8,1.8-3.7,2.5c-7.4,4.9-20.9,14.7-20.9,35
		c0,20.9,7.4,36.9,21.5,47.3c4.3,3.1,11.1,4.9,18.4,4.9c9.2,0,17.8-2.5,20.3-3.1c3.7-1.2,10.4-3.1,22.7-3.1
		c10.4,0,17.8,2.5,25.2,4.9c6.8,2.5,12.9,4.3,20.9,4.3c19,0,39.3-17.2,39.3-45.5C460.6,414,448.4,404.8,441,399.2L441,399.2z"/>
	<path class="st6" d="M317.5,339.4v-0.6c0-4.9-0.6-22.7-9.8-35c-9.2-12.9-25.8-13.5-30.7-13.5c-19,0-32.6,19-32.6,36.9
		c0,41.2,24.6,52.2,37.5,52.2c7.4,0,12.9-1.8,17.2-6.1c0.6-0.6,1.2-1.2,1.8-1.8c3.1-3.1,8-8.6,11.7-12.3
		C317.5,354.1,317.5,344.3,317.5,339.4L317.5,339.4z"/>
	<path class="st6" d="M408.4,235.5c-8-6.8-16.6-10.4-25.8-10.4c-4.9,0-9.8,0.6-14.1,2.5c-30.1,11.7-32,42.4-32,48.5
		c0,10.4,2.5,16.6,4.9,22.1c0.6,1.2,0.6,1.8,1.2,3.1c1.8,4.9,12.3,11.7,22.7,16c6.8,2.5,16,3.1,20.9,3.1c3.7,0,8.6,0,10.4-0.6
		c27-9.2,27.7-43,27.7-43.6C423.8,276.1,422.5,247.8,408.4,235.5L408.4,235.5z"/>
	<path class="st6" d="M477.8,282.8c-6.1,0-20.9,1.2-33.2,14.1c-12.9,12.9-13.5,36.3-13.5,41.2c0,14.1,5.5,20.3,14.7,30.7l1.8,1.8
		c6.1,6.8,13.5,10.4,20.9,10.4c4.3,0,9.2-1.2,14.7-3.7c8-3.7,27.7-16,27.7-53.5C511,289.6,487.1,282.8,477.8,282.8L477.8,282.8z"/>
	<path class="st6" d="M441,386.1c-1.2-1.2-2.5-1.8-3.1-2.5c-6.8-5.5-22.1-25.2-26.4-32.6c-4.9-8-15.4-17.2-36.3-17.2
		c-20.3,0-28.3,7.4-35,16.6c-4.3,4.9-17.8,22.7-23.4,27.7c-0.6,0.6-1.8,1.8-3.7,2.5c-7.4,4.9-20.9,14.7-20.9,35
		c0,20.9,7.4,36.9,21.5,47.3c4.3,3.1,11.1,4.9,18.4,4.9c9.2,0,17.8-2.5,20.3-3.1c3.7-1.2,10.4-3.1,22.7-3.1
		c10.4,0,17.8,2.5,25.2,4.9c6.8,2.5,12.9,4.3,20.9,4.3c19,0,39.3-17.2,39.3-45.5C460.6,400.8,448.4,391.6,441,386.1L441,386.1z"/>
</g>
</svg>
