<?xml version="1.0" encoding="utf-8"?>
<!-- Generator: Adobe Illustrator 21.1.0, SVG Export Plug-In . SVG Version: 6.00 Build 0)  -->
<svg version="1.1" id="Warstwa_1" xmlns="http://www.w3.org/2000/svg" xmlns:xlink="http://www.w3.org/1999/xlink" x="0px" y="0px"
	 viewBox="0 0 792 792" style="enable-background:new 0 0 792 792;" xml:space="preserve">
<style type="text/css">
	.st0{fill:#EAAB11;}
	.st1{fill:#FFFF00;}
	.st2{fill:#00548C;}
	.st3{fill:#0094FF;}
	.st4{fill:#004574;}
	.st5{fill:#31ACFF;}
</style>
<g>
	<polygon class="st0" points="640.9,68.3 608.8,330 560.6,332.1 549.2,427.2 631.3,419.4 632.9,451.7 627.8,730.6 158.6,756 
		157,723.7 151.1,72.3 639.3,36 	"/>
	<polygon class="st1" points="559,299.9 543.6,427.7 631.3,419.4 626.2,698.3 157,723.7 151.1,72.3 639.3,36 607.2,297.7 	"/>
	<polygon class="st2" points="400.6,283.6 400.4,293.9 537.5,284.1 518.8,439.8 395.2,449.4 394.7,465 607.6,444.9 603.4,676.3 
		179.9,699.2 174.5,93.8 612.8,61.2 586.6,275.4 	"/>
	<polygon class="st3" points="187.1,105.4 598.6,74.8 575.5,263.4 388.4,271.6 387.6,307.4 523.3,297.7 507.6,428.1 383.1,437.8 
		381.6,478.8 594.8,458.7 591.1,664.4 192.3,686.1 	"/>
	<path class="st4" d="M498.8,313.6c5.6,1.1,9.3,6.5,8.3,12.2c-1.1,5.6-6.5,9.3-12.2,8.3c-5.6-1.1-9.3-6.5-8.3-12.2
		C487.7,316.2,493.1,312.5,498.8,313.6L498.8,313.6z"/>
	<path class="st2" d="M499.7,315.1c4.4,0.8,7.3,5.1,6.4,9.5c-0.8,4.4-5.1,7.3-9.5,6.4c-4.4-0.9-7.3-5.1-6.4-9.5
		C491,317.1,495.3,314.3,499.7,315.1L499.7,315.1z"/>
	<path class="st4" d="M559.6,232.8c5.6,1.1,9.3,6.5,8.3,12.2c-1.1,5.6-6.5,9.3-12.2,8.3c-5.6-1.1-9.3-6.5-8.3-12.2
		C548.5,235.4,554,231.7,559.6,232.8L559.6,232.8z"/>
	<path class="st2" d="M560.6,234.4c4.4,0.8,7.3,5.1,6.4,9.5c-0.8,4.4-5.1,7.3-9.5,6.4c-4.4-0.8-7.3-5.1-6.4-9.5
		C551.9,236.4,556.2,233.5,560.6,234.4L560.6,234.4z"/>
	<path class="st4" d="M576.8,88.6c5.6,1.1,9.3,6.5,8.3,12.2c-1.1,5.6-6.5,9.3-12.2,8.3s-9.3-6.5-8.3-12.2
		C565.7,91.2,571.2,87.5,576.8,88.6L576.8,88.6z"/>
	<path class="st2" d="M577.8,90.1c4.4,0.8,7.3,5.1,6.4,9.5c-0.9,4.4-5.1,7.3-9.5,6.4c-4.4-0.8-7.3-5.1-6.4-9.5
		C569.1,92.2,573.4,89.3,577.8,90.1L577.8,90.1z"/>
	<path class="st4" d="M214.2,116.4c5.6,1.1,9.3,6.5,8.3,12.2c-1.1,5.6-6.5,9.3-12.2,8.3c-5.6-1.1-9.3-6.5-8.3-12.2
		C203.1,119,208.6,115.3,214.2,116.4L214.2,116.4z"/>
	<path class="st2" d="M215.2,117.9c4.4,0.8,7.3,5.1,6.4,9.5c-0.8,4.4-5.1,7.3-9.5,6.4c-4.4-0.8-7.3-5.1-6.4-9.5
		C206.5,120,210.8,117.1,215.2,117.9L215.2,117.9z"/>
	<path class="st5" d="M189.6,383.2l2.7,302.8l398.8-21.6l3.7-205.7l-213.2,20.1l1.5-41l124.5-9.7l6.1-50.7
		c-39.3-2-79.7-3.1-120.9-3.1C322.3,374.4,254.1,377.5,189.6,383.2L189.6,383.2z"/>
	<path class="st4" d="M489.5,394.3c5.6,1.1,9.3,6.5,8.3,12.2c-1.1,5.6-6.5,9.3-12.2,8.3c-5.6-1.1-9.3-6.5-8.3-12.2
		C478.4,396.9,483.9,393.2,489.5,394.3L489.5,394.3z"/>
	<path class="st2" d="M490.5,395.8c4.4,0.8,7.3,5.1,6.4,9.5c-0.8,4.4-5.1,7.3-9.5,6.4c-4.4-0.9-7.3-5.1-6.4-9.5
		C481.8,397.9,486,395,490.5,395.8L490.5,395.8z"/>
	<path class="st4" d="M216.9,655c5.6,1.1,9.3,6.5,8.3,12.2c-1.1,5.6-6.5,9.3-12.2,8.3c-5.6-1.1-9.3-6.5-8.3-12.2
		C205.8,657.6,211.2,653.9,216.9,655L216.9,655z"/>
	<path class="st2" d="M217.8,656.5c4.4,0.8,7.3,5.1,6.4,9.5c-0.8,4.4-5.1,7.3-9.5,6.4c-4.4-0.9-7.3-5.1-6.4-9.5
		C209.2,658.6,213.4,655.7,217.8,656.5L217.8,656.5z"/>
	<path class="st4" d="M570.2,637.8c5.6,1.1,9.3,6.5,8.3,12.2c-1.1,5.6-6.5,9.3-12.2,8.3c-5.6-1.1-9.3-6.5-8.3-12.2
		C559.1,640.4,564.6,636.7,570.2,637.8L570.2,637.8z"/>
	<path class="st2" d="M571.2,639.3c4.4,0.8,7.3,5.1,6.4,9.5c-0.8,4.4-5.1,7.3-9.5,6.4c-4.4-0.9-7.3-5.1-6.4-9.5
		C562.5,641.4,566.8,638.5,571.2,639.3L571.2,639.3z"/>
	<path class="st4" d="M572.9,475c5.6,1.1,9.3,6.5,8.3,12.2c-1.1,5.6-6.5,9.3-12.2,8.3c-5.6-1.1-9.3-6.5-8.3-12.2
		C561.8,477.6,567.2,473.9,572.9,475L572.9,475z"/>
	<path class="st2" d="M573.8,476.6c4.4,0.8,7.3,5.1,6.4,9.5c-0.9,4.4-5.1,7.3-9.5,6.4c-4.4-0.8-7.3-5.1-6.4-9.5
		C565.2,478.6,569.4,475.7,573.8,476.6L573.8,476.6z"/>
</g>
</svg>
