<?xml version="1.0" encoding="utf-8"?>
<!-- Generator: Adobe Illustrator 21.1.0, SVG Export Plug-In . SVG Version: 6.00 Build 0)  -->
<svg version="1.1" id="Warstwa_1" xmlns="http://www.w3.org/2000/svg" xmlns:xlink="http://www.w3.org/1999/xlink" x="0px" y="0px"
	 viewBox="0 0 792 792" style="enable-background:new 0 0 792 792;" xml:space="preserve">
<style type="text/css">
	.st0{fill:#EAAB11;}
	.st1{fill:#FFFF00;}
	.st2{fill:#00548C;}
	.st3{fill:#0094FF;}
	.st4{fill:#004574;}
	.st5{fill:#31ACFF;}
</style>
<g>
	<polygon class="st0" points="575.7,343 587.4,518.3 586.8,518.3 589,550.1 429.6,559.9 422.2,749.7 156.1,756 154.5,724.1 
		148.6,71.7 641.8,36 643.4,67.9 610.7,341.6 	"/>
	<polygon class="st1" points="573.6,311.1 587.4,518.3 428,528.1 420.6,717.9 154.5,724.1 148.6,71.7 641.8,36 609.1,309.7 	"/>
	<polygon class="st2" points="402.9,295 399.8,317.1 550.4,307.8 563,496.8 406,506.5 398.6,695.5 177.2,700.7 171.7,92.9 
		615.7,60.8 588.7,287.6 	"/>
	<polygon class="st3" points="189.2,109 596.1,79.6 573.3,270.9 387.8,278.3 379.8,335.7 534.3,326.1 544.6,480.6 389.3,490.2 
		382,678.6 194.3,683 	"/>
	<path class="st4" d="M512.1,344.2c5.6,1.1,9.2,6.5,8.2,12c-1.1,5.6-6.5,9.2-12,8.2c-5.6-1.1-9.2-6.5-8.2-12
		C501.2,346.8,506.5,343.2,512.1,344.2L512.1,344.2z"/>
	<path class="st2" d="M513.1,345.8c4.4,0.8,7.2,5,6.4,9.4c-0.8,4.4-5,7.2-9.4,6.4c-4.4-0.8-7.2-5-6.4-9.4
		C504.5,347.8,508.7,344.9,513.1,345.8L513.1,345.8z"/>
	<path class="st4" d="M550.6,234.2c5.6,1.1,9.2,6.5,8.2,12c-1.1,5.6-6.5,9.2-12,8.2c-5.6-1.1-9.2-6.5-8.2-12
		C539.6,236.8,545,233.1,550.6,234.2L550.6,234.2z"/>
	<path class="st2" d="M551.5,235.7c4.4,0.8,7.2,5,6.4,9.4c-0.8,4.4-5,7.2-9.4,6.4c-4.4-0.8-7.2-5-6.4-9.4
		C542.9,237.7,547.1,234.9,551.5,235.7L551.5,235.7z"/>
	<path class="st4" d="M566,99.9c5.6,1.1,9.2,6.5,8.2,12c-1.1,5.6-6.5,9.2-12,8.2c-5.6-1.1-9.2-6.5-8.2-12
		C555,102.5,560.4,98.9,566,99.9L566,99.9z"/>
	<path class="st2" d="M567,101.5c4.4,0.8,7.2,5,6.4,9.4c-0.8,4.4-5,7.2-9.4,6.4c-4.4-0.8-7.2-5-6.4-9.4
		C558.4,103.5,562.6,100.6,567,101.5L567,101.5z"/>
	<path class="st4" d="M216.9,119.5c5.6,1.1,9.2,6.5,8.2,12s-6.5,9.2-12,8.2c-5.6-1.1-9.2-6.5-8.2-12
		C205.9,122.1,211.3,118.5,216.9,119.5L216.9,119.5z"/>
	<path class="st2" d="M217.8,121c4.4,0.8,7.2,5,6.4,9.4c-0.8,4.4-5,7.2-9.4,6.4c-4.4-0.8-7.2-5-6.4-9.4
		C209.2,123.1,213.5,120.2,217.8,121L217.8,121z"/>
	<path class="st5" d="M191.6,383.4l2.7,299.7l187.6-4.4l7.4-188.4l155.3-9.6l-6.8-101.5c-46.9-3-95.4-4.5-145.2-4.5
		C322.8,374.6,255.4,377.6,191.6,383.4L191.6,383.4z"/>
	<path class="st4" d="M520,448.7c5.6,1.1,9.2,6.5,8.2,12c-1.1,5.6-6.5,9.2-12,8.2c-5.6-1.1-9.2-6.5-8.2-12
		C509,451.3,514.4,447.7,520,448.7L520,448.7z"/>
	<path class="st2" d="M520.9,450.3c4.4,0.8,7.2,5,6.4,9.4c-0.8,4.4-5,7.2-9.4,6.4c-4.4-0.8-7.2-5-6.4-9.4
		C512.3,452.3,516.6,449.4,520.9,450.3L520.9,450.3z"/>
	<path class="st4" d="M222.1,649.9c5.6,1.1,9.2,6.5,8.2,12c-1.1,5.6-6.5,9.2-12,8.2c-5.6-1.1-9.2-6.5-8.2-12
		C211.1,652.5,216.5,648.9,222.1,649.9L222.1,649.9z"/>
	<path class="st2" d="M223,651.5c4.4,0.8,7.2,5,6.4,9.4c-0.8,4.4-5,7.2-9.4,6.4c-4.4-0.8-7.2-5-6.4-9.4
		C214.5,653.5,218.7,650.6,223,651.5L223,651.5z"/>
	<path class="st4" d="M361.9,646c5.6,1.1,9.2,6.5,8.2,12c-1.1,5.6-6.5,9.2-12,8.2c-5.6-1.1-9.2-6.5-8.2-12
		C350.9,648.6,356.3,644.9,361.9,646L361.9,646z"/>
	<path class="st2" d="M362.8,647.5c4.4,0.8,7.2,5,6.4,9.4c-0.8,4.4-5,7.2-9.4,6.4c-4.4-0.8-7.2-5-6.4-9.4
		C354.3,649.6,358.5,646.7,362.8,647.5L362.8,647.5z"/>
</g>
</svg>
