<?xml version="1.0" encoding="utf-8"?>
<!-- Generator: Adobe Illustrator 21.1.0, SVG Export Plug-In . SVG Version: 6.00 Build 0)  -->
<svg version="1.1" id="Warstwa_1" xmlns="http://www.w3.org/2000/svg" xmlns:xlink="http://www.w3.org/1999/xlink" x="0px" y="0px"
	 viewBox="0 0 792 792" style="enable-background:new 0 0 792 792;" xml:space="preserve">
<style type="text/css">
	.st0{fill:#EAAB11;}
	.st1{fill:#FFFF00;}
	.st2{fill:#00548C;}
	.st3{fill:#0094FF;}
	.st4{fill:#004574;}
	.st5{fill:#31ACFF;}
</style>
<g>
	<path class="st0" d="M631.4,281.7l88.1-11.1l5.4,37.5c1.9,13.6,2.9,27.2,2.8,40.8c3.2,30.8,1.3,61.5-5.8,91.8
		c-7.1,30.3-17.3,59.9-31.2,87.7c-12,23.9-25.3,47.2-40.5,69.2c-11.2,16.1-22.6,32.2-35.6,46.9c-5.3,6-10.4,12.3-16.1,18
		c-20.8,20.8-45.1,37.7-71,51.3c-27.5,14.4-56.7,25.1-86.9,32.3c-31.4,7.4-63.6,10.6-95.8,9.8c-33-0.8-65.6-6.6-96.7-17.8
		c-31.9-11.5-60.9-29-86.6-51.2c-28.6-24.7-49.8-55.8-65.2-90.1c-16.9-37.6-28-77.4-30.8-118.7c-0.5-7.4-0.8-14.8-0.9-22.3
		c-0.3-2.7-0.5-5.5-0.7-8.3c-2.6-38,0.4-76.2,9.5-113.3c8.9-36.6,23.4-71.3,42.9-103.5c19.3-32,42.8-61.1,70-86.7
		c27.3-25.8,58-47.7,91-65.5c33.6-18.1,69.6-31.2,107-39l4.1-0.9l2.4,0c3.9-0.3,7.7-1,11.6-1.5c15.4-2,31.3-1.4,46.8-0.6
		c22.5,1.2,44.8,5.6,66.5,11.5c27.5,7.5,53.9,19.3,78.9,33c31,16.9,58.8,39.1,84,63.8l27,26.5l1.5,30.5L631.4,281.7L631.4,281.7z
		 M331.5,406.7c-6.9,13.4-10,28-10.7,43c0.9,4.6,2.3,8.9,4.3,12.5c1.2,2.1,2.5,4.2,4,6.1l6.9-69.7
		C334.4,401.3,332.9,404,331.5,406.7L331.5,406.7z"/>
	<path class="st1" d="M596.7,286.1l122.7-15.5l5.4,37.5c4.9,34.2,3.4,68.5-4.5,102.1c-7.1,30.3-17.3,59.9-31.2,87.7
		c-12,23.9-25.3,47.2-40.5,69.2C637.4,583.2,626,599.2,613,614c-5.3,6.1-10.4,12.3-16.1,18c-20.8,20.8-45.1,37.7-71,51.3
		c-27.5,14.4-56.7,25.1-86.9,32.3c-31.4,7.4-63.6,10.6-95.8,9.8c-33-0.8-65.6-6.6-96.7-17.8c-31.9-11.5-60.9-29-86.6-51.2
		c-28.6-24.7-49.8-55.8-65.2-90.1c-16.9-37.6-28-77.4-30.8-118.7c-2.6-38,0.4-76.2,9.5-113.3c8.9-36.6,23.4-71.3,42.9-103.5
		c19.3-32,42.8-61.1,70-86.7c27.3-25.8,58-47.7,91-65.5c33.6-18.1,69.6-31.2,107-39l4.1-0.9l2.5,0c3.9-0.3,7.7-1,11.6-1.5
		c15.4-2,31.3-1.4,46.8-0.6c22.5,1.2,44.8,5.6,66.5,11.5c27.5,7.5,53.9,19.3,78.9,33c30.9,16.9,58.8,39.1,83.9,63.8l27,26.5
		L596.7,286.1L596.7,286.1z M329,468.3l10.8-108.6c-3.7,5.2-6.9,10.8-9.9,16.5c-7.9,15.4-10.8,32.4-10.9,49.6l0,0.6
		c-0.2,10.9,0.6,26.1,6,35.8C326.2,464.3,327.6,466.4,329,468.3L329,468.3z M406.8,310l42.8-5.4c-3.2-0.4-6.5-0.6-9.8-0.6
		C428.6,304.1,417.5,306.4,406.8,310L406.8,310z"/>
	<path class="st2" d="M538.5,315.5L700.8,295l2.3,16.1c4.5,31.5,3.2,63-4.2,93.9c-6.8,28.6-16.3,56.6-29.5,82.9
		c-11.5,23-24.3,45.4-38.9,66.5c-10.5,15.2-21.7,31-34,44.9c-4.8,5.5-10,11.8-15.2,17c-19.2,19.2-41.7,34.8-65.7,47.4
		c-25.9,13.6-53.3,23.6-81.8,30.4c-29.6,7-59.9,10-90.2,9.3c-30.7-0.7-60.9-6.1-89.8-16.5c-29.4-10.6-56-26.7-79.6-47.1
		c-26.1-22.6-45.5-51.2-59.6-82.6C98.7,522,88.2,484.8,85.6,446.1c-2.4-35.9,0.3-71.6,8.9-106.6c8.4-34.4,22-67,40.3-97.4
		c18.3-30.3,40.5-57.8,66.3-82.1c26-24.5,55-45.2,86.4-62.1c31.8-17.1,65.7-29.5,101.1-36.9l1.7-0.3l1,0c4.5-0.3,9.3-1.1,13.8-1.6
		c13.7-1.8,29-1.2,42.8-0.5c20.9,1.1,41.8,5.3,62,10.8c25.8,7,50.7,18.3,74.1,31.1c29.1,15.9,55.5,37,79.1,60.2l11.6,11.4
		L538.5,315.5L538.5,315.5z M431.5,470.6l-82.2,15.6l14.8-148.7l141-17.8l-0.8-2c-4.8-11.7-12.2-20.7-23.6-26.4
		c-12.7-6.5-26.6-9.1-40.8-9.1c-16.6,0-32.8,4-48.1,10.1c-17.2,6.9-32.8,16.6-46.7,28.8c-14.5,12.7-25.9,28.1-34.6,45.2
		c-9.5,18.5-13.3,38.7-13.3,59.4l0,0.3c-0.3,15.3,1.2,33.3,8.8,46.9c5.4,9.7,12.7,18.2,22.7,23.3c9.9,5,20.5,6.9,31.5,6.3
		c12.9-0.6,25.3-3.8,37-9.1c12.5-5.6,23.9-13.2,34-22.5C431.3,470.8,431.4,470.7,431.5,470.6L431.5,470.6z"/>
	<path class="st3" d="M519.6,311.4c-6.6-16-17-27.6-31.4-34.9c-14.3-7.3-30.4-10.9-48.3-10.9c-17.4,0-35.5,3.8-54.3,11.3
		s-36,18.1-51.5,31.7c-15.5,13.6-28.3,30.3-38.4,50.1c-10.1,19.7-15.2,42.1-15.2,67c-0.5,23,3.2,41.5,10.9,55.4
		c7.8,13.9,17.6,23.9,29.6,30c12,6.1,25.3,8.8,39.8,8.1c14.6-0.7,28.9-4.2,43-10.6c14.1-6.3,26.9-14.8,38.4-25.4
		c11.5-10.6,20.1-22.7,25.7-36.3l-100.1,19l11.3-113.5l307.4-38.8c4.2,29.6,2.9,58.9-3.9,87.8c-6.8,28.9-16.2,55.3-28.2,79.3
		c-12,24-24.6,45.5-37.7,64.5c-13.2,19-24.1,33.5-32.8,43.4c-8.7,9.9-13.5,15.3-14.5,16.2c-16.9,16.9-37.5,31.7-61.7,44.4
		c-24.2,12.7-50.2,22.3-77.9,28.9c-27.7,6.6-56.4,9.5-86,8.8c-29.6-0.7-57.8-5.9-84.6-15.5c-26.8-9.6-51.6-24.3-74.4-44.1
		c-22.8-19.7-41.2-45.4-55.4-76.9c-16-35.3-25.1-70.4-27.5-105.4c-2.4-35,0.5-68.9,8.5-101.5c8-32.7,20.8-63.6,38.4-92.7
		c17.6-29.1,38.8-55.3,63.5-78.6c24.7-23.3,52.3-43.1,82.8-59.6c30.6-16.5,62.8-28.2,96.6-35.3c0.9,0,6-0.6,15.2-1.8
		c9.2-1.2,22.4-1.3,39.8-0.4c17.4,0.9,36.9,4.4,58.5,10.2c21.6,5.9,45.1,15.7,70.5,29.6c25.4,13.9,50.5,33,75.4,57.5L519.6,311.4
		L519.6,311.4z"/>
	<path class="st4" d="M618.3,163.9c5.3,1,8.8,6.2,7.8,11.5c-1,5.3-6.2,8.8-11.5,7.8c-5.3-1-8.8-6.2-7.8-11.5
		C607.8,166.4,613,162.9,618.3,163.9L618.3,163.9z"/>
	<path class="st2" d="M619.2,165.4c4.2,0.8,6.9,4.8,6.1,9c-0.8,4.2-4.8,6.9-9,6.1c-4.2-0.8-6.9-4.8-6.1-9
		C611,167.3,615,164.5,619.2,165.4L619.2,165.4z"/>
	<path class="st4" d="M527.2,255c5.3,1,8.8,6.2,7.8,11.5c-1,5.3-6.2,8.8-11.5,7.8c-5.3-1-8.8-6.2-7.8-11.5
		C516.7,257.4,521.9,253.9,527.2,255L527.2,255z"/>
	<path class="st2" d="M528.1,256.4c4.2,0.8,6.9,4.8,6.1,9c-0.8,4.2-4.8,6.9-9,6.1c-4.2-0.8-6.9-4.8-6.1-9
		C519.9,258.3,524,255.6,528.1,256.4L528.1,256.4z"/>
	<path class="st4" d="M418.9,88.7c5.3,1,8.8,6.2,7.8,11.5c-1,5.3-6.2,8.8-11.5,7.8c-5.3-1-8.8-6.2-7.8-11.5
		C408.4,91.2,413.6,87.7,418.9,88.7L418.9,88.7z"/>
	<path class="st2" d="M419.9,90.2c4.2,0.8,6.9,4.8,6.1,9c-0.8,4.2-4.8,6.9-9,6.1c-4.2-0.8-6.9-4.8-6.1-9
		C411.7,92.1,415.7,89.4,419.9,90.2L419.9,90.2z"/>
	<path class="st5" d="M129.7,550.4c14.1,31.5,32.6,57.1,55.4,76.9c22.8,19.7,47.6,34.4,74.4,44.1c26.8,9.6,55,14.8,84.6,15.5
		c29.6,0.7,58.3-2.2,86-8.8c27.7-6.6,53.7-16.2,77.9-28.9c24.2-12.7,44.8-27.5,61.7-44.4c0.9-0.9,5.8-6.3,14.5-16.2
		c8.7-9.9,19.6-24.3,32.8-43.4c13.2-19,25.7-40.5,37.7-64.5c12-24,21.4-50.4,28.2-79.3c0.6-2.5,1.1-5,1.6-7.4
		c-87.9-12.6-185.9-19.6-289.2-19.6c-6.1,0-12.1,0-18.2,0.1l-9.1,91.5l100.1-19c-5.6,13.6-14.2,25.7-25.7,36.3
		c-11.5,10.6-24.3,19-38.4,25.4c-14.1,6.3-28.4,9.9-43,10.6c-14.6,0.7-27.9-2-39.8-8.1c-12-6.1-21.9-16.1-29.6-30
		c-7.8-13.9-11.4-32.3-10.9-55.4c0-17.6,2.5-33.8,7.5-48.8c-65.4,3.2-127.8,9.1-185.6,17.6c-1.3,16.6-1.4,33.5-0.3,50.6
		C104.5,480,113.7,515.2,129.7,550.4L129.7,550.4z"/>
	<path class="st4" d="M129.9,398.2c5.3,1,8.8,6.2,7.8,11.5c-1,5.3-6.2,8.8-11.5,7.8c-5.3-1-8.8-6.2-7.8-11.5
		C119.4,400.7,124.6,397.2,129.9,398.2L129.9,398.2z"/>
	<path class="st2" d="M130.9,399.7c4.2,0.8,6.9,4.8,6.1,9c-0.8,4.2-4.8,6.9-9,6.1c-4.2-0.8-6.9-4.8-6.1-9
		C122.7,401.6,126.7,398.9,130.9,399.7L130.9,399.7z"/>
	<path class="st4" d="M669.9,333.5c5.3,1,8.8,6.2,7.8,11.5c-1,5.3-6.2,8.8-11.5,7.8c-5.3-1-8.8-6.2-7.8-11.5
		C659.4,335.9,664.6,332.4,669.9,333.5L669.9,333.5z"/>
	<path class="st2" d="M670.8,334.9c4.2,0.8,6.9,4.8,6.1,9c-0.8,4.2-4.8,6.9-9,6.1c-4.2-0.8-6.9-4.8-6.1-9
		C662.6,336.8,666.7,334.1,670.8,334.9L670.8,334.9z"/>
	<path class="st4" d="M363.8,654.4c5.3,1,8.8,6.2,7.8,11.5c-1,5.3-6.2,8.8-11.5,7.8c-5.3-1-8.8-6.2-7.8-11.5
		C353.3,656.9,358.4,653.4,363.8,654.4L363.8,654.4z"/>
	<path class="st2" d="M364.7,655.9c4.2,0.8,6.9,4.8,6.1,9c-0.8,4.2-4.8,6.9-9,6.1c-4.2-0.8-6.9-4.8-6.1-9
		C356.5,657.8,360.5,655.1,364.7,655.9L364.7,655.9z"/>
	<path class="st4" d="M403.3,360.7c5.3,1,8.8,6.2,7.8,11.5c-1,5.3-6.2,8.8-11.5,7.8c-5.3-1-8.8-6.2-7.8-11.5
		C392.8,363.2,398,359.7,403.3,360.7L403.3,360.7z"/>
	<path class="st2" d="M404.2,362.1c4.2,0.8,6.9,4.8,6.1,9s-4.8,6.9-9,6.1c-4.2-0.8-6.9-4.8-6.1-9C396,364.1,400,361.3,404.2,362.1
		L404.2,362.1z"/>
	<path class="st4" d="M398.9,427.7c5.3,1,8.8,6.2,7.8,11.5c-1,5.3-6.2,8.8-11.5,7.8c-5.3-1-8.8-6.2-7.8-11.5
		C388.4,430.1,393.6,426.6,398.9,427.7L398.9,427.7z"/>
	<path class="st2" d="M399.8,429.1c4.2,0.8,6.9,4.8,6.1,9c-0.8,4.2-4.8,6.9-9,6.1c-4.2-0.8-6.9-4.8-6.1-9
		C391.6,431,395.6,428.3,399.8,429.1L399.8,429.1z"/>
</g>
</svg>
