<?xml version="1.0" encoding="utf-8"?>
<!-- Generator: Adobe Illustrator 21.1.0, SVG Export Plug-In . SVG Version: 6.00 Build 0)  -->
<svg version="1.1" id="Warstwa_1" xmlns="http://www.w3.org/2000/svg" xmlns:xlink="http://www.w3.org/1999/xlink" x="0px" y="0px"
	 viewBox="0 0 792 792" style="enable-background:new 0 0 792 792;" xml:space="preserve">
<style type="text/css">
	.st0{fill:#EAAB11;}
	.st1{fill:#FFFF00;}
	.st2{fill:#00548C;}
	.st3{fill:#0094FF;}
	.st4{fill:#004574;}
	.st5{fill:#31ACFF;}
</style>
<g>
	<polygon class="st0" points="403.4,50.3 694.4,36 696,67.6 628.7,708.8 387.4,737.9 386.8,750.8 129,756 127.5,724.4 127.4,724.4 
		96,67.6 395,38.9 396.5,70.5 373.9,307.4 394.6,305.9 	"/>
	<polygon class="st1" points="369.3,307.8 394.6,305.9 403.4,50.3 694.4,36 627.1,677.2 385.8,706.3 385.3,719.2 127.4,724.4 
		96,67.6 395,38.9 	"/>
	<polygon class="st2" points="344.2,332.4 416.6,327 425.4,71.9 669.1,60 606.4,656.8 403.2,681.4 412.7,521.3 370.9,527.2 
		363.5,696.9 149,701.3 119.7,88.1 369.8,64.1 	"/>
	<polygon class="st3" points="137.6,103.6 350.7,83.2 325.2,351 433.2,343 441.9,88.3 649.9,78.1 590.8,641.5 421.5,661.9 
		431,501.3 354.4,512.3 347.1,680.1 165.4,683.8 	"/>
	<path class="st4" d="M630,90.1c5.5,1.1,9.1,6.4,8.1,11.9c-1.1,5.5-6.4,9.1-11.9,8.1c-5.5-1.1-9.1-6.4-8.1-11.9
		C619.2,92.7,624.5,89,630,90.1L630,90.1z"/>
	<path class="st2" d="M631,91.6c4.3,0.8,7.1,5,6.3,9.3c-0.8,4.3-5,7.1-9.3,6.3c-4.3-0.8-7.1-5-6.3-9.3
		C622.5,93.6,626.7,90.8,631,91.6L631,91.6z"/>
	<path class="st4" d="M464.2,97.2c5.5,1.1,9.1,6.4,8.1,11.9c-1.1,5.5-6.4,9.1-11.9,8.1c-5.5-1.1-9.1-6.4-8.1-11.9
		C453.3,99.8,458.7,96.2,464.2,97.2L464.2,97.2z"/>
	<path class="st2" d="M465.1,98.7c4.3,0.8,7.1,5,6.3,9.3c-0.8,4.3-5,7.1-9.3,6.3c-4.3-0.8-7.1-5-6.3-9.3
		C456.7,100.7,460.8,97.9,465.1,98.7L465.1,98.7z"/>
	<path class="st4" d="M331.4,94.6c5.5,1.1,9.1,6.4,8.1,11.9s-6.4,9.1-11.9,8.1c-5.5-1.1-9.1-6.4-8.1-11.9
		C320.5,97.2,325.9,93.6,331.4,94.6L331.4,94.6z"/>
	<path class="st2" d="M332.3,96.2c4.3,0.8,7.1,5,6.3,9.3c-0.8,4.3-5,7.1-9.3,6.3c-4.3-0.8-7.1-5-6.3-9.3
		C323.9,98.1,328,95.3,332.3,96.2L332.3,96.2z"/>
	<path class="st4" d="M159.7,109.5c5.5,1.1,9.1,6.4,8.1,11.9c-1.1,5.5-6.4,9.1-11.9,8.1c-5.5-1.1-9.1-6.4-8.1-11.9
		C148.9,112.1,154.2,108.5,159.7,109.5L159.7,109.5z"/>
	<path class="st2" d="M160.7,111.1c4.3,0.8,7.1,5,6.3,9.3c-0.8,4.3-5,7.1-9.3,6.3c-4.3-0.8-7.1-5-6.3-9.3
		C152.2,113,156.4,110.2,160.7,111.1L160.7,111.1z"/>
	<path class="st5" d="M347.1,680.1l7.3-167.8l76.6-10.9l-9.5,160.5l169.3-20.4l26.4-251.7c-70.3-7.2-145.4-11-223.5-11
		c-85.1,0-166.8,4.6-242.4,13l14,292.1L347.1,680.1L347.1,680.1z"/>
	<path class="st4" d="M575.6,615.5c5.5,1.1,9.1,6.4,8.1,11.9c-1.1,5.5-6.4,9.1-11.9,8.1c-5.5-1.1-9.1-6.4-8.1-11.9
		C564.8,618,570.1,614.4,575.6,615.5L575.6,615.5z"/>
	<path class="st2" d="M576.6,617c4.3,0.8,7.1,5,6.3,9.3c-0.8,4.3-5,7.1-9.3,6.3c-4.3-0.8-7.1-5-6.3-9.3
		C568.1,619,572.3,616.1,576.6,617L576.6,617z"/>
	<path class="st4" d="M444.8,631c5.5,1.1,9.1,6.4,8.1,11.9c-1.1,5.5-6.4,9.1-11.9,8.1c-5.5-1.1-9.1-6.4-8.1-11.9
		C433.9,633.6,439.2,629.9,444.8,631L444.8,631z"/>
	<path class="st2" d="M445.7,632.5c4.3,0.8,7.1,5,6.3,9.3c-0.8,4.3-5,7.1-9.3,6.3c-4.3-0.8-7.1-5-6.3-9.3
		C437.2,634.5,441.4,631.7,445.7,632.5L445.7,632.5z"/>
	<path class="st4" d="M190.2,654.3c5.5,1.1,9.1,6.4,8.1,11.9c-1.1,5.5-6.4,9.1-11.9,8.1c-5.5-1.1-9.1-6.4-8.1-11.9
		C179.3,656.9,184.7,653.3,190.2,654.3L190.2,654.3z"/>
	<path class="st2" d="M191.1,655.8c4.3,0.8,7.1,5,6.3,9.3c-0.8,4.3-5,7.1-9.3,6.3c-4.3-0.8-7.1-5-6.3-9.3
		C182.6,657.8,186.8,655,191.1,655.8L191.1,655.8z"/>
	<path class="st4" d="M330.8,651.7c5.5,1.1,9.1,6.4,8.1,11.9c-1.1,5.5-6.4,9.1-11.9,8.1c-5.5-1.1-9.1-6.4-8.1-11.9
		C319.9,654.3,325.2,650.7,330.8,651.7L330.8,651.7z"/>
	<path class="st2" d="M331.7,653.3c4.3,0.8,7.1,5,6.3,9.3c-0.8,4.3-5,7.1-9.3,6.3c-4.3-0.8-7.1-5-6.3-9.3
		C323.2,655.3,327.4,652.4,331.7,653.3L331.7,653.3z"/>
</g>
</svg>
