<?xml version="1.0" encoding="utf-8"?>
<!-- Generator: Adobe Illustrator 21.1.0, SVG Export Plug-In . SVG Version: 6.00 Build 0)  -->
<svg version="1.1" id="Warstwa_1" xmlns="http://www.w3.org/2000/svg" xmlns:xlink="http://www.w3.org/1999/xlink" x="0px" y="0px"
	 viewBox="0 0 792 792" style="enable-background:new 0 0 792 792;" xml:space="preserve">
<style type="text/css">
	.st0{fill:#EAAB11;}
	.st1{fill:#FFFF00;}
	.st2{fill:#00548C;}
	.st3{fill:#0094FF;}
	.st4{fill:#004574;}
	.st5{fill:#31ACFF;}
</style>
<g>
	<polygon class="st0" points="546.1,67 512.8,725.7 247.4,756 245.9,725 254,70.6 544.6,36 543,67.4 	"/>
	<polygon class="st1" points="544.6,36 511.2,694.7 245.9,725 254,70.6 	"/>
	<polygon class="st2" points="521,61.2 489.9,674.7 268.5,700 276,90.4 	"/>
	<polygon class="st3" points="503.2,80.3 473.8,659.6 285.5,681.1 292.7,105.4 	"/>
	<path class="st4" d="M317.2,114.1c5.4,1,9,6.3,7.9,11.7c-1,5.4-6.3,9-11.7,7.9c-5.4-1-9-6.3-7.9-11.7
		C306.5,116.6,311.8,113.1,317.2,114.1L317.2,114.1z"/>
	<path class="st2" d="M318.1,115.6c4.2,0.8,7,4.9,6.2,9.1c-0.8,4.2-4.9,7-9.1,6.2c-4.2-0.8-7-4.9-6.2-9.1
		C309.8,117.5,313.9,114.8,318.1,115.6L318.1,115.6z"/>
	<path class="st4" d="M484.4,95c5.4,1,9,6.3,7.9,11.7c-1,5.4-6.3,9-11.7,7.9c-5.4-1-9-6.3-7.9-11.7C473.7,97.5,478.9,94,484.4,95
		L484.4,95z"/>
	<path class="st2" d="M485.3,96.5c4.2,0.8,7,4.9,6.2,9.1c-0.8,4.2-4.9,7-9.1,6.2c-4.2-0.8-7-4.9-6.2-9.1
		C476.9,98.5,481,95.7,485.3,96.5L485.3,96.5z"/>
	<path class="st5" d="M289.2,381.6l-3.7,299.5l188.3-21.5L488,381.1c-30.6-1.3-61.9-1.9-93.6-1.9C358.6,379.2,323.5,380,289.2,381.6
		L289.2,381.6z"/>
	<path class="st4" d="M457,633.4c5.4,1,9,6.3,7.9,11.7c-1,5.4-6.3,9-11.7,7.9c-5.4-1-9-6.3-7.9-11.7
		C446.4,635.9,451.6,632.4,457,633.4L457,633.4z"/>
	<path class="st2" d="M457.9,634.9c4.2,0.8,7,4.9,6.2,9.1c-0.8,4.2-4.9,7-9.1,6.2c-4.2-0.8-7-4.9-6.2-9.1
		C449.6,636.9,453.7,634.1,457.9,634.9L457.9,634.9z"/>
	<path class="st4" d="M311.5,646.1c5.4,1,9,6.3,7.9,11.7c-1,5.4-6.3,9-11.7,7.9c-5.4-1-9-6.3-7.9-11.7
		C300.8,648.7,306,645.1,311.5,646.1L311.5,646.1z"/>
	<path class="st2" d="M312.4,647.6c4.2,0.8,7,4.9,6.2,9.1c-0.8,4.2-4.9,7-9.1,6.2c-4.2-0.8-7-4.9-6.2-9.1
		C304.1,649.6,308.1,646.8,312.4,647.6L312.4,647.6z"/>
</g>
</svg>
