<?xml version="1.0" encoding="utf-8"?>
<!-- Generator: Adobe Illustrator 21.1.0, SVG Export Plug-In . SVG Version: 6.00 Build 0)  -->
<svg version="1.1" id="Warstwa_1" xmlns="http://www.w3.org/2000/svg" xmlns:xlink="http://www.w3.org/1999/xlink" x="0px" y="0px"
	 viewBox="0 0 792 792" style="enable-background:new 0 0 792 792;" xml:space="preserve">
<style type="text/css">
	.st0{fill:#EAAB11;}
	.st1{fill:#FFFF00;}
	.st2{fill:#00548C;}
	.st3{fill:#0094FF;}
	.st4{fill:#004574;}
	.st5{fill:#31ACFF;}
</style>
<g>
	<path class="st0" d="M339.5,85.2L621.2,36l1.2,30.9l0.4-0.1l1.7,44.4c2.4,64.3,4.6,128.6,6.1,192.9c0.9,41.9,1.8,83.8,2.1,125.7
		c0.2,24.6,0.3,49.2-0.7,73.8c-0.5,11.6-0.8,23.2-1.9,34.8l-0.7,6.9l-0.2,3l-0.7,3c-3.9,16.4-10,32.4-16.8,47.8
		c-8.5,19.3-19.5,37.5-32.1,54.5c-14,18.9-30.6,35.8-48.7,50.8c-20.9,17.3-44.9,30.1-70.6,38.9c-28.4,9.7-58.6,13.2-88.5,12.7
		c-36.3-0.6-72.3-9.7-106.1-22.4l-2.8-1l-2.3-1.3l-14.9-8.1c-17.5-9.6-31.8-24.8-43.6-40.5c-16-21.2-26.2-46.8-33.4-72.2
		c-5.7-20-7.8-41.4-7.7-62.7c-3-26.7-1.3-54.5,2.1-80.5l3.2-24.4l193.1-61.4L341.1,116l0.6-0.1L339.5,85.2L339.5,85.2z"/>
	<path class="st1" d="M359.9,381.1L339.5,85.2L621.2,36l1.7,44.4c2.4,64.3,4.6,128.6,6.1,192.9c0.9,41.9,1.8,83.8,2.1,125.7
		c0.2,24.6,0.3,49.2-0.7,73.8c-0.5,11.6-0.8,23.2-1.9,34.8c-0.2,2.4-0.5,4.8-0.7,6.9l-0.2,3l-0.7,3c-3.9,16.4-10,32.4-16.8,47.8
		c-8.5,19.3-19.5,37.5-32.1,54.5c-14,18.9-30.6,35.8-48.7,50.8c-20.9,17.3-44.9,30.1-70.6,38.9c-28.4,9.7-58.6,13.2-88.5,12.7
		c-36.3-0.6-72.3-9.7-106.1-22.4l-2.8-1l-2.3-1.3c-4.9-2.7-9.9-5.4-14.9-8.1c-17.5-9.6-31.8-24.8-43.6-40.5
		c-16-21.2-26.2-46.8-33.4-72.2c-10.1-35.8-8.8-75.8-4-112.4l3.2-24.4L359.9,381.1L359.9,381.1z"/>
	<path class="st2" d="M605.7,512.8l-0.1,1.2l-0.3,1.3c-3.6,15-9.3,29.9-15.5,44.1c-7.8,17.8-18,34.6-29.6,50.2
		c-13,17.5-28.3,33.1-45.1,47c-18.9,15.6-40.4,27.1-63.6,35c-26,8.9-53.7,12-81,11.6c-33.6-0.6-67.4-9.2-98.7-21l-1.2-0.4l-1-0.6
		c-5-2.7-9.9-5.4-14.9-8.2c-14.5-7.9-26.8-21.4-36.6-34.5c-14.2-18.8-23.4-42.3-29.8-64.9c-9.2-32.6-7.7-70.1-3.3-103.5l1.4-10.5
		l193.3-61.5l-5.3,27.6c-3.3,17.4-6.7,37.5-6.5,55.2c0.1,6.7,0.5,19,3,25.3c0.2,0.4,0.4,1,0.7,1.6c1.2-1.1,2.5-2.2,3.6-3.2
		c3.2-2.9,6.9-10.8,8.5-14.7c3.9-9.2,4.3-20.8,3.7-30.7L363,103.6l237-41.4l0.7,19.1c2.4,64.2,4.6,128.4,6.1,192.6
		c0.9,41.8,1.8,83.6,2.1,125.4c0.2,24.1,0.3,48.5-0.7,72.7c-0.5,11.1-0.8,22.6-1.8,33.6C606.1,508,605.9,510.4,605.7,512.8
		L605.7,512.8z"/>
	<path class="st3" d="M584,81.9c2.8,75.9,4.9,140,6,192.4c1.2,52.4,1.9,94.1,2.1,125.2c0.2,31.1,0,55-0.7,71.8
		c-0.7,16.8-1.3,27.7-1.8,32.7c-0.5,5-0.7,7.5-0.7,7.5c-2.8,11.9-7.7,25.6-14.6,41.2c-6.9,15.6-16.1,31.3-27.7,46.9
		c-11.6,15.6-25.7,30.3-42.3,44.1c-16.6,13.7-36,24.4-58.3,32c-22.3,7.6-47.4,11.1-75.4,10.7c-28-0.5-59-7.1-93.2-19.9
		c0,0-5-2.7-14.9-8.2c-10-5.5-20.4-15.4-31.3-29.9c-10.9-14.5-19.9-34.3-27-59.4c-7.1-25.1-8.1-57.4-2.8-96.7l156.4-49.8
		c-4.7,24.7-7,44.2-6.8,58.7c0.2,14.5,1.7,24.9,4.3,31.3c2.6,6.4,5.8,10.3,9.6,11.7c3.8,1.4,7,1.7,9.6,0.7c2.6-0.9,4.1-1.4,4.6-1.4
		c0.5-0.5,2.8-2.6,7.1-6.4c4.3-3.8,8.5-10.7,12.8-20.6c4.3-10,5.9-22.8,5-38.4l-23.5-340.6L584,81.9L584,81.9z"/>
	<path class="st4" d="M563.8,98.4c5.4,1,8.9,6.2,7.9,11.6c-1,5.4-6.2,8.9-11.6,7.9c-5.4-1-8.9-6.2-7.9-11.6
		C553.2,100.9,558.4,97.3,563.8,98.4L563.8,98.4z"/>
	<path class="st2" d="M564.7,99.9c4.2,0.8,7,4.9,6.1,9.1s-4.9,7-9.1,6.2c-4.2-0.8-7-4.9-6.2-9.1C556.4,101.8,560.5,99,564.7,99.9
		L564.7,99.9z"/>
	<path class="st4" d="M409.1,125.5c5.4,1,8.9,6.2,7.9,11.6c-1,5.4-6.2,8.9-11.6,7.9c-5.4-1-8.9-6.2-7.9-11.6
		C398.6,128,403.8,124.5,409.1,125.5L409.1,125.5z"/>
	<path class="st2" d="M410.1,127c4.2,0.8,7,4.9,6.2,9.1c-0.8,4.2-4.9,7-9.1,6.2c-4.2-0.8-7-4.9-6.2-9.1
		C401.8,128.9,405.9,126.2,410.1,127L410.1,127z"/>
	<path class="st5" d="M201.5,472.3c-5.2,39.3-4.3,71.6,2.8,96.7c7.1,25.1,16.1,44.9,27,59.4c10.9,14.5,21.3,24.4,31.3,29.9l14.9,8.2
		c34.1,12.8,65.2,19.4,93.2,19.9c28,0.5,53.1-3.1,75.4-10.7c22.3-7.6,41.7-18.3,58.3-32c16.6-13.7,30.7-28.4,42.3-44.1
		c11.6-15.6,20.9-31.3,27.7-46.9c6.9-15.6,11.7-29.4,14.6-41.2l0.7-7.5c0.5-5,1.1-15.9,1.8-32.7c0.7-16.8,0.9-40.8,0.7-71.8
		c0-3.7-0.1-7.6-0.1-11.6c-61.3-5.6-126.2-8.6-193.4-8.7l5.4,79c0.9,15.6-0.7,28.4-5,38.4c-4.3,10-8.5,16.8-12.8,20.6
		c-4.3,3.8-6.6,5.9-7.1,6.4c-0.5,0-2,0.5-4.6,1.4c-2.6,0.9-5.8,0.7-9.6-0.7c-3.8-1.4-7-5.3-9.6-11.7c-2.6-6.4-4-16.8-4.3-31.3
		c-0.2-14.5,2-34,6.8-58.7L201.5,472.3L201.5,472.3z"/>
	<path class="st4" d="M565.8,498.2c5.4,1,8.9,6.2,7.9,11.6c-1,5.4-6.2,8.9-11.6,7.9c-5.4-1-8.9-6.2-7.9-11.6
		C555.2,500.7,560.4,497.2,565.8,498.2L565.8,498.2z"/>
	<path class="st2" d="M566.7,499.7c4.2,0.8,7,4.9,6.1,9.1c-0.8,4.2-4.9,7-9.1,6.2c-4.2-0.8-7-4.9-6.1-9.1
		C558.4,501.6,562.5,498.9,566.7,499.7L566.7,499.7z"/>
	<path class="st4" d="M400.3,655.7c5.4,1,8.9,6.2,7.9,11.6c-1,5.4-6.2,8.9-11.6,7.9s-8.9-6.2-7.9-11.6
		C389.7,658.2,394.9,654.7,400.3,655.7L400.3,655.7z"/>
	<path class="st2" d="M401.2,657.2c4.2,0.8,7,4.9,6.2,9.1c-0.8,4.2-4.9,7-9.1,6.2c-4.2-0.8-7-4.9-6.2-9.1
		C393,659.2,397,656.4,401.2,657.2L401.2,657.2z"/>
	<path class="st4" d="M329.6,450c5.4,1,8.9,6.2,7.9,11.6c-1,5.4-6.2,8.9-11.6,7.9c-5.4-1-8.9-6.2-7.9-11.6
		C319,452.5,324.2,448.9,329.6,450L329.6,450z"/>
	<path class="st2" d="M330.5,451.4c4.2,0.8,7,4.9,6.2,9.1c-0.8,4.2-4.9,7-9.1,6.2c-4.2-0.8-7-4.9-6.2-9.1
		C322.3,453.4,326.3,450.6,330.5,451.4L330.5,451.4z"/>
	<path class="st4" d="M227.4,481.5c5.4,1,8.9,6.2,7.9,11.6c-1,5.4-6.2,8.9-11.6,7.9c-5.4-1-8.9-6.2-7.9-11.6
		C216.8,484,222,480.5,227.4,481.5L227.4,481.5z"/>
	<path class="st2" d="M228.3,483c4.2,0.8,7,4.9,6.2,9.1c-0.8,4.2-4.9,7-9.1,6.2c-4.2-0.8-7-4.9-6.2-9.1
		C220,484.9,224.1,482.2,228.3,483L228.3,483z"/>
</g>
</svg>
