<?xml version="1.0" encoding="utf-8"?>
<!-- Generator: Adobe Illustrator 21.1.0, SVG Export Plug-In . SVG Version: 6.00 Build 0)  -->
<svg version="1.1" id="Warstwa_1" xmlns="http://www.w3.org/2000/svg" xmlns:xlink="http://www.w3.org/1999/xlink" x="0px" y="0px"
	 viewBox="0 0 792 792" style="enable-background:new 0 0 792 792;" xml:space="preserve">
<style type="text/css">
	.st0{fill:#EAAB11;}
	.st1{fill:#FFFF00;}
	.st2{fill:#00548C;}
	.st3{fill:#0094FF;}
	.st4{fill:#004574;}
	.st5{fill:#31ACFF;}
</style>
<g>
	<polygon class="st0" points="486.7,419.5 621.7,533 623.1,560.8 493,756 396.2,664.7 395.7,697.5 158.9,724.6 157.5,696.8 
		145.9,111.1 405.1,80.1 406.4,107.9 406.2,122.3 468.5,36 644.7,243.7 646.1,271.5 	"/>
	<polygon class="st1" points="470.3,405.6 621.7,533 491.6,728.2 394.8,636.9 394.3,669.7 157.5,696.8 145.9,111.1 405.1,80.1 
		404.3,124.9 468.5,36 644.7,243.7 	"/>
	<polygon class="st2" points="440.2,406.4 595.2,536.8 488.1,697.5 375.6,591.4 374.6,651.9 177,674.5 166.2,128.8 384.7,102.7 
		383.3,188 469.7,68.3 617.2,242.1 	"/>
	<polygon class="st3" points="596.4,240.8 417.5,406.9 575.2,539.7 485.4,674.3 361.1,557 359.8,638.4 191.8,657.6 181.5,142.1 
		369.4,119.7 367.5,235.7 470.7,92.7 	"/>
	<path class="st4" d="M204.6,150c4.9,0.9,8,5.6,7.1,10.5c-0.9,4.9-5.6,8-10.5,7.1c-4.9-0.9-8-5.6-7.1-10.5
		C195,152.3,199.7,149.1,204.6,150L204.6,150z"/>
	<path class="st2" d="M205.4,151.3c3.8,0.7,6.3,4.4,5.5,8.2c-0.7,3.8-4.4,6.3-8.2,5.5c-3.8-0.7-6.3-4.4-5.5-8.2
		C197.9,153.1,201.6,150.6,205.4,151.3L205.4,151.3z"/>
	<path class="st4" d="M350.2,131.8c4.9,0.9,8,5.6,7.1,10.5c-0.9,4.9-5.6,8-10.5,7.1c-4.9-0.9-8-5.6-7.1-10.5
		C340.7,134.1,345.4,130.9,350.2,131.8L350.2,131.8z"/>
	<path class="st2" d="M351,133.1c3.8,0.7,6.3,4.4,5.5,8.2c-0.7,3.8-4.4,6.3-8.2,5.5c-3.8-0.7-6.3-4.4-5.5-8.2
		C343.6,134.9,347.3,132.4,351,133.1L351,133.1z"/>
	<path class="st4" d="M472,124.7c4.9,0.9,8,5.6,7.1,10.5c-0.9,4.9-5.6,8-10.5,7.1c-4.9-0.9-8-5.6-7.1-10.5
		C462.5,126.9,467.2,123.8,472,124.7L472,124.7z"/>
	<path class="st2" d="M472.8,126c3.8,0.7,6.3,4.4,5.5,8.2c-0.7,3.8-4.4,6.3-8.2,5.5c-3.8-0.7-6.3-4.4-5.5-8.2
		C465.4,127.8,469.1,125.3,472.8,126L472.8,126z"/>
	<path class="st4" d="M568.8,231.7c4.9,0.9,8,5.6,7.1,10.5c-0.9,4.9-5.6,8-10.5,7.1c-4.9-0.9-8-5.6-7.1-10.5
		C559.2,234,563.9,230.8,568.8,231.7L568.8,231.7z"/>
	<path class="st2" d="M569.6,233c3.8,0.7,6.3,4.4,5.5,8.2c-0.7,3.8-4.4,6.3-8.2,5.5c-3.8-0.7-6.3-4.4-5.5-8.2
		C562.1,234.8,565.8,232.3,569.6,233L569.6,233z"/>
	<path class="st5" d="M186.4,390.4l5.3,267.3l168-19.2l1.3-81.4l124.4,117.3l89.8-134.7L417.5,406.9l28.1-26.1
		c-18.7-0.5-37.6-0.8-56.7-0.8C318.1,380,249.9,383.7,186.4,390.4L186.4,390.4z"/>
	<path class="st4" d="M547.4,535.4c4.9,0.9,8,5.6,7.1,10.5c-0.9,4.9-5.6,8-10.5,7.1c-4.9-0.9-8-5.6-7.1-10.5
		C537.9,537.6,542.6,534.4,547.4,535.4L547.4,535.4z"/>
	<path class="st2" d="M548.3,536.7c3.8,0.7,6.3,4.4,5.5,8.2c-0.7,3.8-4.4,6.3-8.2,5.5c-3.8-0.7-6.3-4.4-5.5-8.2
		C540.8,538.5,544.5,536,548.3,536.7L548.3,536.7z"/>
	<path class="st4" d="M483.4,634.4c4.9,0.9,8,5.6,7.1,10.5c-0.9,4.9-5.6,8-10.5,7.1c-4.9-0.9-8-5.6-7.1-10.5
		C473.8,636.7,478.5,633.5,483.4,634.4L483.4,634.4z"/>
	<path class="st2" d="M484.2,635.7c3.8,0.7,6.3,4.4,5.5,8.2c-0.7,3.8-4.4,6.3-8.2,5.5c-3.8-0.7-6.3-4.4-5.5-8.2
		C476.8,637.5,480.4,635,484.2,635.7L484.2,635.7z"/>
	<path class="st4" d="M341.1,613.3c4.9,0.9,8,5.6,7.1,10.5c-0.9,4.9-5.6,8-10.5,7.1c-4.9-0.9-8-5.6-7.1-10.5
		C331.6,615.6,336.3,612.4,341.1,613.3L341.1,613.3z"/>
	<path class="st2" d="M341.9,614.7c3.8,0.7,6.3,4.4,5.5,8.2c-0.7,3.8-4.4,6.3-8.2,5.5c-3.8-0.7-6.3-4.4-5.5-8.2
		C334.5,616.4,338.1,613.9,341.9,614.7L341.9,614.7z"/>
	<path class="st4" d="M218.2,625.9c4.9,0.9,8,5.6,7.1,10.5c-0.9,4.9-5.6,8-10.5,7.1c-4.9-0.9-8-5.6-7.1-10.5
		C208.6,628.1,213.3,624.9,218.2,625.9L218.2,625.9z"/>
	<path class="st2" d="M219,627.2c3.8,0.7,6.3,4.4,5.5,8.2c-0.7,3.8-4.4,6.3-8.2,5.5c-3.8-0.7-6.3-4.4-5.5-8.2
		C211.5,629,215.2,626.5,219,627.2L219,627.2z"/>
</g>
</svg>
