<?xml version="1.0" encoding="utf-8"?>
<!-- Generator: Adobe Illustrator 21.1.0, SVG Export Plug-In . SVG Version: 6.00 Build 0)  -->
<svg version="1.1" id="Warstwa_1" xmlns="http://www.w3.org/2000/svg" xmlns:xlink="http://www.w3.org/1999/xlink" x="0px" y="0px"
	 viewBox="0 0 792 792" style="enable-background:new 0 0 792 792;" xml:space="preserve">
<style type="text/css">
	.st0{fill:#EAAB11;}
	.st1{fill:#FFFF00;}
	.st2{fill:#00548C;}
	.st3{fill:#0094FF;}
	.st4{fill:#004574;}
	.st5{fill:#31ACFF;}
</style>
<g>
	<polygon class="st0" points="445.1,432.3 612,397.6 613.3,428.4 613.6,428.4 625.6,710.4 173.6,756 172.1,725.2 166.4,77 460.4,36 
		462,66.8 	"/>
	<polygon class="st1" points="442.1,432.9 612,397.6 624.1,679.6 172.1,725.2 166.4,77 460.4,36 	"/>
	<polygon class="st2" points="418.7,460.4 591,424.5 601.1,659.7 194,700.8 188.7,96.2 437.1,61.6 	"/>
	<polygon class="st3" points="205.5,110.8 419.5,80.9 401,481.1 575.2,444.9 583.7,644.6 210.5,682.3 	"/>
	<path class="st4" d="M235,121.8c5.4,1,8.9,6.2,7.9,11.6c-1,5.4-6.2,8.9-11.6,7.9c-5.4-1-8.9-6.2-7.9-11.6
		C224.4,124.3,229.6,120.8,235,121.8L235,121.8z"/>
	<path class="st2" d="M235.9,123.3c4.2,0.8,7,4.9,6.1,9.1c-0.8,4.2-4.9,7-9.1,6.1c-4.2-0.8-7-4.9-6.1-9.1
		C227.7,125.2,231.7,122.5,235.9,123.3L235.9,123.3z"/>
	<path class="st4" d="M396.6,100.3c5.4,1,8.9,6.2,7.9,11.6c-1,5.4-6.2,8.9-11.6,7.9c-5.4-1-8.9-6.2-7.9-11.6
		C386,102.8,391.2,99.3,396.6,100.3L396.6,100.3z"/>
	<path class="st2" d="M397.5,101.8c4.2,0.8,7,4.9,6.2,9.1c-0.8,4.2-4.9,7-9.1,6.1c-4.2-0.8-7-4.9-6.1-9.1
		C389.2,103.7,393.3,101,397.5,101.8L397.5,101.8z"/>
	<path class="st5" d="M207.9,387.1l2.6,295.2l373.2-37.7l-8.5-199.8L401,481.1l4.7-101.8c-3.7,0-7.4,0-11.1,0
		C329.9,379.3,267.3,382,207.9,387.1L207.9,387.1z"/>
	<path class="st4" d="M555.6,463.8c5.4,1,8.9,6.2,7.9,11.6c-1,5.4-6.2,8.9-11.6,7.9c-5.4-1-8.9-6.2-7.9-11.6
		C545,466.3,550.2,462.8,555.6,463.8L555.6,463.8z"/>
	<path class="st2" d="M556.5,465.3c4.2,0.8,7,4.9,6.1,9.1c-0.8,4.2-4.9,7-9.1,6.1c-4.2-0.8-7-4.9-6.1-9.1
		C548.2,467.2,552.3,464.5,556.5,465.3L556.5,465.3z"/>
	<path class="st4" d="M561.9,617.8c5.4,1,8.9,6.2,7.9,11.6c-1,5.4-6.2,8.9-11.6,7.9c-5.4-1-8.9-6.2-7.9-11.6
		C551.3,620.3,556.5,616.8,561.9,617.8L561.9,617.8z"/>
	<path class="st2" d="M562.8,619.3c4.2,0.8,7,4.9,6.1,9.1c-0.8,4.2-4.9,7-9.1,6.1c-4.2-0.8-7-4.9-6.1-9.1
		C554.6,621.2,558.6,618.5,562.8,619.3L562.8,619.3z"/>
	<path class="st4" d="M238.9,645.8c5.4,1,8.9,6.2,7.9,11.6c-1,5.4-6.2,8.9-11.6,7.9c-5.4-1-8.9-6.2-7.9-11.6
		C228.3,648.3,233.5,644.8,238.9,645.8L238.9,645.8z"/>
	<path class="st2" d="M239.8,647.3c4.2,0.8,7,4.9,6.1,9.1c-0.8,4.2-4.9,7-9.1,6.2c-4.2-0.8-7-4.9-6.1-9.1
		C231.6,649.2,235.6,646.5,239.8,647.3L239.8,647.3z"/>
</g>
</svg>
