<?xml version="1.0" encoding="utf-8"?>
<!-- Generator: Adobe Illustrator 21.1.0, SVG Export Plug-In . SVG Version: 6.00 Build 0)  -->
<svg version="1.1" id="Warstwa_1" xmlns="http://www.w3.org/2000/svg" xmlns:xlink="http://www.w3.org/1999/xlink" x="0px" y="0px"
	 viewBox="0 0 792 792" style="enable-background:new 0 0 792 792;" xml:space="preserve">
<style type="text/css">
	.st0{fill:#EAAB11;}
	.st1{fill:#FFFF00;}
	.st2{fill:#00548C;}
	.st3{fill:#0094FF;}
	.st4{fill:#004574;}
	.st5{fill:#31ACFF;}
</style>
<g>
	<polygon class="st0" points="557.7,82.5 732.9,564.5 734.2,590.9 532.2,756 474.2,583 401.2,710.7 309.6,569.9 258.8,725 
		59.1,595.7 57.8,569.3 240.3,36 403.6,241.9 	"/>
	<polygon class="st1" points="403.6,241.9 557.7,82.5 732.9,564.5 530.9,729.7 472.8,556.7 399.9,684.3 308.3,543.5 257.4,698.7 
		57.8,569.3 240.3,36 	"/>
	<polygon class="st2" points="402.2,270.5 550.2,117.4 710.5,558.4 540.1,697.7 477.4,510.6 398.8,648 302.6,500.1 247.1,669.5 
		80.5,561.5 247,74.9 	"/>
	<polygon class="st3" points="252.1,104.2 401.1,292.2 544.6,143.8 693.6,553.7 547.1,673.5 480.8,475.9 398.1,620.6 298.3,467.3 
		239.3,647.4 97.6,555.5 	"/>
	<path class="st4" d="M540.7,178c4.6,0.9,7.6,5.3,6.7,9.9s-5.3,7.6-9.9,6.7c-4.6-0.9-7.6-5.3-6.7-9.9
		C531.6,180.1,536.1,177.1,540.7,178L540.7,178z"/>
	<path class="st2" d="M541.5,179.2c3.6,0.7,6,4.2,5.3,7.8c-0.7,3.6-4.2,6-7.8,5.3c-3.6-0.7-6-4.2-5.3-7.8
		C534.4,180.9,537.9,178.5,541.5,179.2L541.5,179.2z"/>
	<path class="st4" d="M401.6,305c4.6,0.9,7.6,5.3,6.7,9.9c-0.9,4.6-5.3,7.6-9.9,6.7c-4.6-0.9-7.6-5.3-6.7-9.9
		C392.5,307.2,397,304.2,401.6,305L401.6,305z"/>
	<path class="st2" d="M402.3,306.3c3.6,0.7,6,4.2,5.3,7.8c-0.7,3.6-4.2,6-7.8,5.3c-3.6-0.7-6-4.2-5.3-7.8
		C395.3,308,398.7,305.6,402.3,306.3L402.3,306.3z"/>
	<path class="st4" d="M261,139.1c4.6,0.9,7.6,5.3,6.7,9.9c-0.9,4.6-5.3,7.6-9.9,6.7c-4.6-0.9-7.6-5.3-6.7-9.9
		C252,141.2,256.4,138.2,261,139.1L261,139.1z"/>
	<path class="st2" d="M261.8,140.4c3.6,0.7,6,4.2,5.3,7.8c-0.7,3.6-4.2,6-7.8,5.3c-3.6-0.7-6-4.2-5.3-7.8
		C254.8,142,258.2,139.7,261.8,140.4L261.8,140.4z"/>
	<path class="st5" d="M152.2,396L97.6,555.5l141.7,91.8l59-180l99.7,153.3l82.7-144.8l66.3,197.7l146.6-119.8l-57.5-158.1
		C562.7,385.5,481.3,380,395.6,380C308.8,380,226.4,385.7,152.2,396L152.2,396z"/>
	<path class="st4" d="M122.8,540.8c4.6,0.9,7.6,5.3,6.7,9.9c-0.9,4.6-5.3,7.6-9.9,6.7c-4.6-0.9-7.6-5.3-6.7-9.9
		C113.8,542.9,118.2,539.9,122.8,540.8L122.8,540.8z"/>
	<path class="st2" d="M123.6,542c3.6,0.7,6,4.2,5.3,7.8c-0.7,3.6-4.2,6-7.8,5.3c-3.6-0.7-6-4.2-5.3-7.8
		C116.5,543.7,120,541.4,123.6,542L123.6,542z"/>
	<path class="st4" d="M231.9,614.2c4.6,0.9,7.6,5.3,6.7,10c-0.9,4.6-5.3,7.6-9.9,6.7c-4.6-0.9-7.6-5.3-6.7-9.9
		C222.8,616.3,227.3,613.3,231.9,614.2L231.9,614.2z"/>
	<path class="st2" d="M232.7,615.5c3.6,0.7,6,4.2,5.3,7.8c-0.7,3.6-4.2,6-7.8,5.3c-3.6-0.7-6-4.2-5.3-7.8
		C225.6,617.1,229.1,614.8,232.7,615.5L232.7,615.5z"/>
	<path class="st4" d="M400.3,572.1c4.6,0.9,7.6,5.3,6.7,9.9c-0.9,4.6-5.3,7.6-9.9,6.7c-4.6-0.9-7.6-5.3-6.7-9.9
		C391.3,574.2,395.7,571.2,400.3,572.1L400.3,572.1z"/>
	<path class="st2" d="M401.1,573.4c3.6,0.7,6,4.2,5.3,7.8c-0.7,3.6-4.2,6-7.8,5.3c-3.6-0.7-6-4.2-5.3-7.8
		C394,575,397.5,572.7,401.1,573.4L401.1,573.4z"/>
	<path class="st4" d="M558,633.6c4.6,0.9,7.6,5.3,6.7,9.9c-0.9,4.6-5.3,7.6-9.9,6.7c-4.6-0.9-7.6-5.3-6.7-9.9
		C548.9,635.8,553.4,632.8,558,633.6L558,633.6z"/>
	<path class="st2" d="M558.8,634.9c3.6,0.7,6,4.2,5.3,7.8c-0.7,3.6-4.2,6-7.8,5.3c-3.6-0.7-6-4.2-5.3-7.8
		C551.7,636.6,555.2,634.2,558.8,634.9L558.8,634.9z"/>
	<path class="st4" d="M670.3,540.8c4.6,0.9,7.6,5.3,6.7,9.9s-5.3,7.6-9.9,6.7c-4.6-0.9-7.6-5.3-6.7-9.9
		C661.2,542.9,665.7,539.9,670.3,540.8L670.3,540.8z"/>
	<path class="st2" d="M671.1,542c3.6,0.7,6,4.2,5.3,7.8c-0.7,3.6-4.2,6-7.8,5.3c-3.6-0.7-6-4.2-5.3-7.8
		C664,543.7,667.5,541.4,671.1,542L671.1,542z"/>
</g>
</svg>
