<?xml version="1.0" encoding="utf-8"?>
<!-- Generator: Adobe Illustrator 21.1.0, SVG Export Plug-In . SVG Version: 6.00 Build 0)  -->
<svg version="1.1" id="Warstwa_1" xmlns="http://www.w3.org/2000/svg" xmlns:xlink="http://www.w3.org/1999/xlink" x="0px" y="0px"
	 viewBox="0 0 792 792" style="enable-background:new 0 0 792 792;" xml:space="preserve">
<style type="text/css">
	.st0{fill:#EAAB11;}
	.st1{fill:#FFFF00;}
	.st2{fill:#00548C;}
	.st3{fill:#0094FF;}
	.st4{fill:#004574;}
	.st5{fill:#31ACFF;}
</style>
<g>
	<polygon class="st0" points="394.5,65.2 675.2,84 676.7,113.8 639.5,731.6 383.9,604.2 390.2,709 389.9,709 391.7,738.8 116.8,756 
		115.3,726.3 126.1,36 389.3,254.5 	"/>
	<polygon class="st1" points="389.3,254.5 394.5,65.2 675.2,84 638,701.9 382.2,574.3 390.2,709 115.3,726.3 126.1,36 	"/>
	<polygon class="st2" points="409.5,299 415.2,88 652.6,103.9 618.6,668.3 358.7,538.7 367.6,689 137,703.5 146.7,80.9 	"/>
	<polygon class="st3" points="162.3,114.8 424.7,332.6 430.9,105.2 635.6,118.9 604,643 340.9,511.8 350.5,673.9 153.4,686.3 	"/>
	<path class="st4" d="M183.9,153.9c5.2,1,8.6,6,7.6,11.2c-1,5.2-6,8.6-11.2,7.6c-5.2-1-8.6-6-7.6-11.2
		C173.7,156.3,178.7,152.9,183.9,153.9L183.9,153.9z"/>
	<path class="st2" d="M184.8,155.3c4.1,0.8,6.7,4.7,5.9,8.8c-0.8,4.1-4.7,6.7-8.8,5.9c-4.1-0.8-6.7-4.7-5.9-8.8
		C176.8,157.2,180.8,154.5,184.8,155.3L184.8,155.3z"/>
	<path class="st4" d="M610.7,133.2c5.2,1,8.6,6,7.6,11.2c-1,5.2-6,8.6-11.2,7.6c-5.2-1-8.6-6-7.6-11.2
		C600.5,135.6,605.5,132.2,610.7,133.2L610.7,133.2z"/>
	<path class="st2" d="M611.6,134.6c4.1,0.8,6.7,4.7,5.9,8.8c-0.8,4.1-4.7,6.7-8.8,5.9c-4.1-0.8-6.7-4.7-5.9-8.8
		C603.6,136.5,607.5,133.8,611.6,134.6L611.6,134.6z"/>
	<path class="st4" d="M455.9,122.2c5.2,1,8.6,6,7.6,11.2c-1,5.2-6,8.6-11.2,7.6c-5.2-1-8.6-6-7.6-11.2
		C445.6,124.6,450.7,121.2,455.9,122.2L455.9,122.2z"/>
	<path class="st2" d="M456.7,123.6c4.1,0.8,6.7,4.7,5.9,8.8c-0.8,4.1-4.7,6.7-8.8,5.9c-4.1-0.8-6.7-4.7-5.9-8.8
		C448.8,125.5,452.7,122.8,456.7,123.6L456.7,123.6z"/>
	<path class="st5" d="M158,393.1l-4.6,293.2l197.1-12.4l-9.6-162.1L604,643l15.2-251.4c-70.1-7.7-145.6-11.9-224.3-11.9
		C311.4,379.8,231.6,384.5,158,393.1L158,393.1z"/>
	<path class="st4" d="M180.3,652c5.2,1,8.6,6,7.6,11.2s-6,8.6-11.2,7.6c-5.2-1-8.6-6-7.6-11.2C170,654.4,175.1,651,180.3,652
		L180.3,652z"/>
	<path class="st2" d="M181.2,653.4c4.1,0.8,6.7,4.7,5.9,8.8c-0.8,4.1-4.7,6.7-8.8,5.9c-4.1-0.8-6.7-4.7-5.9-8.8
		C173.2,655.3,177.1,652.7,181.2,653.4L181.2,653.4z"/>
	<path class="st4" d="M328.4,647.1c5.2,1,8.6,6,7.6,11.2c-1,5.2-6,8.6-11.2,7.6c-5.2-1-8.6-6-7.6-11.2
		C318.2,649.5,323.2,646.1,328.4,647.1L328.4,647.1z"/>
	<path class="st2" d="M329.3,648.6c4.1,0.8,6.7,4.7,5.9,8.8c-0.8,4.1-4.7,6.7-8.8,5.9c-4.1-0.8-6.7-4.7-5.9-8.8
		C321.3,650.4,325.3,647.8,329.3,648.6L329.3,648.6z"/>
	<path class="st4" d="M585.4,594c5.2,1,8.6,6,7.6,11.2c-1,5.2-6,8.6-11.2,7.6c-5.2-1-8.6-6-7.6-11.2
		C575.1,596.4,580.2,593,585.4,594L585.4,594z"/>
	<path class="st2" d="M586.3,595.4c4.1,0.8,6.7,4.7,5.9,8.8c-0.8,4.1-4.7,6.7-8.8,5.9c-4.1-0.8-6.7-4.7-5.9-8.8
		C578.3,597.3,582.2,594.6,586.3,595.4L586.3,595.4z"/>
</g>
</svg>
