<?xml version="1.0" encoding="utf-8"?>
<!-- Generator: Adobe Illustrator 21.1.0, SVG Export Plug-In . SVG Version: 6.00 Build 0)  -->
<svg version="1.1" id="Warstwa_1" xmlns="http://www.w3.org/2000/svg" xmlns:xlink="http://www.w3.org/1999/xlink" x="0px" y="0px"
	 viewBox="0 0 792 792" style="enable-background:new 0 0 792 792;" xml:space="preserve">
<style type="text/css">
	.st0{fill:#EAAB11;}
	.st1{fill:#FFFF00;}
	.st2{fill:#00548C;}
	.st3{fill:#0094FF;}
	.st4{fill:#004574;}
	.st5{fill:#31ACFF;}
</style>
<g>
	<path class="st0" d="M720.6,415.6c-4.6,43.7-17,85.9-34.9,125.9c-20.4,45.4-49.7,85.8-84.5,121.2c-20.5,20.9-44.8,37.6-70.7,51.1
		c-27.3,14.3-56.2,24.9-86.2,32c-30.9,7.3-62.7,10.6-94.4,10.1c-32.8-0.5-65.2-6.2-96.1-17.2c-31.8-11.3-60.7-28.7-86.1-50.9
		c-28.1-24.6-48.9-55.4-64.2-89.2c-16.7-37-28-76-31.5-116.5c-0.9-9.8-1.3-19.6-1.4-29.4c0-0.3-0.1-0.6-0.1-0.9
		c-3.3-37.4-1.1-75,7.5-111.6c8.3-35.7,22-69.7,40.7-101.3c18.5-31.3,41-59.9,67.1-85.2c26.3-25.6,55.9-47.5,87.8-65.6
		c32.7-18.5,67.6-32.8,104-42.2c33.5-8.6,68.3-12.1,102.8-8.3c30,3.3,59.4,10.6,86.9,23.2c24.5,11.2,47.5,25.8,67.2,44.3
		c16.9,15.9,32.2,33.9,43,54.5c17.2,32.9,28.6,68.4,36.1,104.7c4.9,24,7.4,48.4,7.7,72.8C723.7,363.1,723.3,389.5,720.6,415.6
		L720.6,415.6z M452.7,371.6c-1.4-5.6-3.3-11.2-5.9-16.4l-0.4-0.9c-2.8-5.9-6.5-11.3-12.5-14.3c-6.9-3.5-14.2-4.8-21.9-4.3
		c-10.8,0.7-21.2,4.2-30.8,9c-11.8,5.9-22,14.1-30.9,23.8c-10.4,11.3-18.1,24.8-24,38.9c-5.9,14.2-8.7,29.4-9.2,44.8
		c0.9,4.8,2.1,9.3,4,13.2c2.7,5.7,6.8,12.1,12.2,15.6c5.3,3.4,11.1,4.8,17.3,5.1c8.8,0.5,17.3-0.9,25.6-3.8
		c9.6-3.4,18.5-8.4,26.6-14.7c8.1-6.3,15.2-13.8,20.8-22.4c8.5-13.2,16.4-27.5,21.5-42.4C448.5,392.8,451.4,382.2,452.7,371.6
		L452.7,371.6z"/>
	<path class="st1" d="M599.7,632.5c-20.5,20.9-44.8,37.6-70.7,51.1c-27.3,14.3-56.2,24.9-86.2,32c-30.9,7.3-62.7,10.6-94.4,10.1
		c-32.8-0.5-65.2-6.2-96.1-17.2c-31.8-11.3-60.7-28.7-86.1-50.9c-28.1-24.6-48.9-55.4-64.2-89.2c-16.7-37-28-76-31.5-116.5
		c-3.3-37.4-1.1-75,7.5-111.6c8.3-35.7,22-69.7,40.7-101.2c18.5-31.3,41-59.9,67.1-85.2c26.3-25.6,55.9-47.5,87.8-65.6
		c32.7-18.5,67.6-32.8,104-42.2c33.5-8.6,68.3-12.1,102.8-8.3c30,3.3,59.4,10.6,86.9,23.2c24.5,11.2,47.5,25.8,67.2,44.3
		c16.9,15.9,32.2,33.9,43,54.5c17.2,32.9,28.6,68.4,36.1,104.7c8.2,39.8,9.7,80.7,5.5,121.1c-4.6,43.7-17,85.9-34.9,125.9
		C663.8,556.6,634.4,597,599.7,632.5L599.7,632.5z M444.9,324.1c-2.8-5.9-6.5-11.3-12.5-14.3c-6.9-3.5-14.2-4.8-21.9-4.3
		c-10.8,0.7-21.2,4.2-30.8,9c-11.8,5.9-22,14.1-30.9,23.8c-10.4,11.3-18.1,24.8-24,38.9c-6.7,16-9.3,33.1-9.3,50.3l0,0.6
		c-0.1,11.5,0.6,26.8,5.6,37.3c2.7,5.7,6.8,12.1,12.2,15.6c5.3,3.4,11.1,4.8,17.3,5.1c8.8,0.5,17.3-0.9,25.6-3.8
		c9.6-3.4,18.5-8.4,26.6-14.7c8.1-6.3,15.2-13.8,20.8-22.4c8.5-13.2,16.4-27.5,21.5-42.4c3.7-10.9,6.8-22.5,7.9-34
		c0.7-8,0.7-16.3-1-24.2c-1.5-6.7-3.5-13.5-6.6-19.7L444.9,324.1L444.9,324.1z"/>
	<path class="st2" d="M584.1,617.2c-18.9,19.2-41.4,34.6-65.3,47.1c-25.7,13.5-52.9,23.4-81.1,30.1c-29.1,6.9-59.1,10-89,9.5
		c-30.5-0.5-60.4-5.7-89.1-16c-29.3-10.4-55.7-26.3-79.1-46.8c-25.7-22.5-44.7-50.8-58.7-81.8c-15.7-34.8-26.4-71.4-29.7-109.5
		c-3.1-35.2-1-70.4,7-104.8c7.8-33.6,20.7-65.4,38.2-95.1c17.5-29.7,38.8-56.7,63.5-80.7c25-24.3,53-45.1,83.4-62.3
		c31.1-17.6,64.1-31.2,98.7-40.1c31-8,63.1-11.2,95-7.8c27.7,3,54.9,9.7,80.2,21.3c22.4,10.3,43.4,23.5,61.4,40.4
		c15.1,14.2,29,30.4,38.6,48.8c16.2,31.1,27,64.8,34,99c7.7,37.6,9.1,76.2,5.1,114.4c-4.3,41.4-16.1,81.4-33.2,119.3
		C645,545.4,617.1,583.6,584.1,617.2L584.1,617.2z M464.6,314.9c-4.9-10.5-11.9-19.2-22.3-24.5c-10.4-5.3-21.5-7.4-33.1-6.6
		c-13.7,0.9-26.9,5.1-39.1,11.2c-14.2,7.1-26.5,16.9-37.2,28.6c-12.1,13.2-21.2,28.7-28.1,45.2c-7.8,18.7-11,38.6-11,58.7l0,0.3
		c-0.3,15.3,1.1,33.1,7.8,47c4.6,9.5,11,18.6,20,24.5c8.5,5.5,17.9,8.1,28,8.6c11.6,0.6,22.9-1.2,33.9-5
		c11.9-4.2,22.8-10.3,32.7-18.1c10.1-7.8,18.7-17.1,25.7-27.8c9.5-14.6,18.1-30.6,23.8-47.1c4.3-12.6,7.8-25.9,9-39.1
		c0.9-10.2,0.7-20.7-1.4-30.7c-1.9-8.5-4.5-17-8.4-24.8L464.6,314.9L464.6,314.9z"/>
	<path class="st3" d="M572.4,605.7c-16.8,16.8-37.2,31.5-61.2,44c-24,12.6-49.8,22.1-77.3,28.7c-27.5,6.5-55.8,9.6-84.9,9.1
		c-29.1-0.5-57.1-5.5-83.9-15s-51.4-24.1-73.8-43.7c-22.4-19.6-40.5-45-54.5-76.2c-15.8-35-25.3-69.7-28.3-104.2
		c-3-34.5-0.8-67.7,6.6-99.6c7.5-31.9,19.6-62.1,36.4-90.5c16.8-28.4,37.1-54.2,60.8-77.3c23.8-23.1,50.5-43,80-59.8
		c29.6-16.8,61.2-29.6,94.7-38.4c31.7-7.9,61.4-10.4,89.1-7.3c27.7,3,52.8,9.7,75.2,19.9c22.4,10.3,41.4,22.7,57,37.4
		c15.6,14.7,27.4,29.5,35.3,44.4c14.4,28,25.3,59.5,32.5,94.7c7.2,35.2,8.9,71.7,4.9,109.4c-4,37.8-14.6,75.9-31.8,114.3
		C632.1,534.1,606.4,570.8,572.4,605.7L572.4,605.7z M479.4,307.9c-7-14.9-16.9-25.6-29.7-32.2c-12.8-6.5-26.7-9.3-41.6-8.4
		c-14.9,0.9-30.1,5.2-45.4,12.9c-15.4,7.7-29.4,18.4-41.9,32.2c-12.6,13.7-23,30.4-31.1,50c-8.2,19.6-12.2,41.2-12.2,65
		c-0.5,22.4,2.7,40.5,9.4,54.5c6.8,14,15.4,24.4,25.9,31.1c10.5,6.8,22.5,10.5,36,11.2c13.5,0.7,26.9-1.3,40.2-5.9
		c13.3-4.7,25.7-11.5,37.4-20.6c11.7-9.1,21.4-19.7,29.4-31.8c11.7-18.2,20.2-35.1,25.5-50.7c5.4-15.6,8.6-29.9,9.8-43
		c1.2-13.1,0.6-24.9-1.7-35.7C486.9,325.8,483.6,316.3,479.4,307.9L479.4,307.9z"/>
	<path class="st4" d="M522,106.5c5.3,1,8.8,6.1,7.7,11.4s-6.1,8.8-11.4,7.7c-5.3-1-8.8-6.1-7.7-11.4
		C511.6,109,516.7,105.5,522,106.5L522,106.5z"/>
	<path class="st2" d="M522.9,108c4.1,0.8,6.8,4.8,6,8.9c-0.8,4.1-4.8,6.8-8.9,6c-4.1-0.8-6.8-4.8-6-8.9
		C514.8,109.9,518.8,107.2,522.9,108L522.9,108z"/>
	<path class="st5" d="M511.3,649.8c24-12.6,44.4-27.3,61.2-44c34-35,59.7-71.7,76.9-110.1c14.1-31.5,23.8-62.8,29-93.8
		c-59-8.3-122.5-14.1-189.1-16.9c-1.7,9.5-4.4,19.6-8.1,30.4c-5.4,15.6-13.9,32.5-25.5,50.7c-7.9,12.1-17.7,22.7-29.4,31.8
		c-11.7,9.1-24.1,16-37.4,20.6c-13.3,4.7-26.7,6.6-40.2,5.9c-13.5-0.7-25.5-4.4-36-11.2c-10.5-6.8-19.1-17.1-25.9-31.1
		c-6.8-14-9.9-32.2-9.4-54.5c0-14.7,1.6-28.6,4.7-41.7c-61.3,3.2-119.8,8.8-174.4,16.7c-0.8,15.1-0.5,30.4,0.9,46
		c3,34.5,12.5,69.2,28.3,104.2c14,31.2,32.2,56.6,54.5,76.2c22.4,19.6,47,34.1,73.8,43.7c26.8,9.6,54.8,14.6,83.9,15
		c29.1,0.5,57.4-2.6,84.9-9.1C461.5,671.9,487.3,662.3,511.3,649.8L511.3,649.8z"/>
	<path class="st4" d="M360.7,657.6c5.3,1,8.8,6.1,7.7,11.4c-1,5.3-6.1,8.8-11.4,7.7c-5.3-1-8.8-6.1-7.7-11.4
		C350.3,660,355.4,656.6,360.7,657.6L360.7,657.6z"/>
	<path class="st2" d="M361.6,659c4.1,0.8,6.8,4.8,6,8.9c-0.8,4.1-4.8,6.8-8.9,6c-4.1-0.8-6.8-4.8-6-8.9
		C353.5,660.9,357.5,658.2,361.6,659L361.6,659z"/>
	<path class="st4" d="M656.1,393.2c5.3,1,8.8,6.1,7.7,11.4c-1,5.3-6.1,8.8-11.4,7.7c-5.3-1-8.8-6.1-7.7-11.4
		C645.7,395.7,650.8,392.2,656.1,393.2L656.1,393.2z"/>
	<path class="st2" d="M657,394.7c4.1,0.8,6.8,4.8,6,8.9c-0.8,4.1-4.8,6.8-8.9,6c-4.1-0.8-6.8-4.8-6-8.9
		C648.9,396.6,652.9,393.9,657,394.7L657,394.7z"/>
	<path class="st4" d="M134.8,374.6c5.3,1,8.8,6.1,7.7,11.4c-1,5.3-6.1,8.8-11.4,7.7c-5.3-1-8.8-6.1-7.7-11.4
		C124.4,377.1,129.5,373.6,134.8,374.6L134.8,374.6z"/>
	<path class="st2" d="M135.7,376.1c4.1,0.8,6.8,4.8,6,8.9c-0.8,4.1-4.8,6.8-8.9,6c-4.1-0.8-6.8-4.8-6-8.9
		C127.6,378,131.6,375.3,135.7,376.1L135.7,376.1z"/>
</g>
</svg>
