<?xml version="1.0" encoding="utf-8"?>
<!-- Generator: Adobe Illustrator 21.1.0, SVG Export Plug-In . SVG Version: 6.00 Build 0)  -->
<svg version="1.1" id="Warstwa_1" xmlns="http://www.w3.org/2000/svg" xmlns:xlink="http://www.w3.org/1999/xlink" x="0px" y="0px"
	 viewBox="0 0 792 792" style="enable-background:new 0 0 792 792;" xml:space="preserve">
<style type="text/css">
	.st0{fill:#EAAB11;}
	.st1{fill:#FFFF00;}
	.st2{fill:#00548C;}
	.st3{fill:#0094FF;}
	.st4{fill:#004574;}
	.st5{fill:#31ACFF;}
	.st6{fill:#E2E6EA;}
</style>
<g>
	<path class="st0" d="M720.6,415.6c-4.6,43.7-17,85.9-34.9,125.9c-20.4,45.4-49.7,85.8-84.5,121.2c-20.5,20.9-44.8,37.6-70.7,51.1
		c-27.3,14.3-56.2,24.9-86.2,32c-30.9,7.3-62.7,10.6-94.4,10.1c-32.8-0.5-65.2-6.2-96.1-17.2c-31.8-11.3-60.7-28.7-86.1-50.9
		c-28.1-24.6-48.9-55.4-64.2-89.2c-16.7-37-28-76-31.5-116.5c-0.9-9.8-1.3-19.6-1.4-29.4c0-0.3-0.1-0.6-0.1-0.9
		c-3.3-37.4-1.1-75,7.5-111.6c8.3-35.7,22-69.7,40.7-101.2c18.5-31.3,41-59.9,67.1-85.2c26.3-25.6,55.9-47.5,87.8-65.6
		c32.7-18.5,67.6-32.8,104-42.2c33.5-8.6,68.3-12.1,102.8-8.3c30,3.3,59.4,10.6,86.9,23.2c24.5,11.2,47.5,25.8,67.2,44.3
		c16.9,15.9,32.2,33.9,43,54.5c17.2,32.9,28.6,68.4,36.1,104.7c4.9,24,7.4,48.4,7.7,72.8C723.7,363.1,723.3,389.5,720.6,415.6
		L720.6,415.6z"/>
	<path class="st1" d="M599.7,632.5c-20.5,20.9-44.8,37.6-70.7,51.1c-27.3,14.3-56.2,24.9-86.2,32c-30.9,7.3-62.6,10.6-94.4,10.1
		c-32.8-0.5-65.2-6.2-96.1-17.2c-31.8-11.3-60.7-28.7-86.1-50.9c-28.1-24.6-48.9-55.4-64.2-89.2c-16.7-37-28-76-31.5-116.5
		c-3.3-37.4-1.1-75,7.5-111.6c8.3-35.7,22-69.7,40.7-101.3c18.5-31.3,41-59.9,67.1-85.2c26.3-25.6,55.9-47.5,87.8-65.6
		c32.7-18.5,67.6-32.8,104-42.2c33.5-8.6,68.3-12.1,102.8-8.3c30,3.3,59.4,10.6,86.9,23.2c24.5,11.2,47.5,25.8,67.2,44.3
		c16.9,15.9,32.2,33.9,43,54.5c17.2,32.9,28.6,68.4,36.1,104.7c8.2,39.8,9.7,80.7,5.5,121.1c-4.6,43.7-17,85.9-34.9,125.9
		C663.8,556.6,634.4,597,599.7,632.5L599.7,632.5z"/>
	<path class="st2" d="M584.1,617.2c-18.9,19.3-41.4,34.6-65.3,47.1c-25.7,13.5-52.9,23.4-81.1,30.1c-29.1,6.9-59.1,10-89,9.5
		c-30.5-0.5-60.4-5.7-89.1-16c-29.3-10.4-55.7-26.3-79.1-46.8c-25.7-22.5-44.7-50.8-58.7-81.8c-15.7-34.8-26.4-71.4-29.7-109.5
		c-3.1-35.2-1-70.4,7-104.8c7.8-33.6,20.7-65.4,38.2-95.1c17.5-29.7,38.8-56.7,63.5-80.7c25-24.3,53-45.1,83.4-62.3
		c31.1-17.6,64.1-31.2,98.7-40.1c31-8,63.1-11.2,95-7.8c27.7,3,54.9,9.7,80.2,21.3c22.4,10.3,43.4,23.5,61.4,40.4
		c15.1,14.2,29,30.4,38.6,48.8c16.2,31.1,27,64.8,34,99c7.7,37.6,9.1,76.2,5.1,114.4c-4.3,41.4-16.1,81.4-33.2,119.3
		C645,545.4,617.1,583.6,584.1,617.2L584.1,617.2z"/>
	<path class="st3" d="M572.4,605.7c-16.8,16.8-37.2,31.5-61.2,44c-24,12.6-49.8,22.1-77.3,28.7c-27.5,6.5-55.8,9.6-84.9,9.1
		c-29.1-0.5-57.1-5.5-83.9-15c-26.8-9.6-51.4-24.1-73.8-43.7c-22.4-19.6-40.5-45-54.5-76.2c-15.8-35-25.3-69.7-28.3-104.2
		c-3-34.5-0.8-67.7,6.6-99.6c7.5-31.9,19.6-62.1,36.4-90.5c16.8-28.4,37.1-54.2,60.8-77.3c23.8-23.1,50.5-43,80-59.8
		c29.6-16.8,61.2-29.6,94.7-38.4c31.7-7.9,61.4-10.4,89.1-7.3c27.7,3,52.8,9.7,75.2,19.9c22.4,10.3,41.4,22.7,57,37.4
		c15.6,14.7,27.4,29.5,35.3,44.4c14.4,28,25.3,59.5,32.5,94.7c7.2,35.2,8.9,71.7,4.9,109.4c-4,37.8-14.6,75.9-31.8,114.3
		C632.1,534.1,606.4,570.8,572.4,605.7L572.4,605.7z"/>
	<path class="st4" d="M522,106.5c5.3,1,8.8,6.1,7.7,11.4s-6.1,8.8-11.4,7.7c-5.3-1-8.8-6.1-7.7-11.4
		C511.6,109,516.7,105.5,522,106.5L522,106.5z"/>
	<path class="st2" d="M522.9,108c4.1,0.8,6.8,4.8,6,8.9c-0.8,4.1-4.8,6.8-8.9,6c-4.1-0.8-6.8-4.8-6-8.9
		C514.8,109.9,518.8,107.2,522.9,108L522.9,108z"/>
	<path class="st5" d="M511.3,649.8c24-12.6,44.4-27.3,61.2-44c34-35,59.7-71.7,76.9-110.1c14.1-31.5,23.8-62.8,29-93.8
		c-59-8.3-122.5-14.1-189.1-16.9c-207.2,0.9,0,0-207.2,0.9c-61.3,3.2-119.8,8.8-174.4,16.7c-0.8,15.1-0.5,30.4,0.9,46
		c3,34.5,12.5,69.2,28.3,104.2c14,31.2,32.2,56.6,54.5,76.2c22.4,19.6,47,34.1,73.8,43.7c26.8,9.6,54.8,14.6,83.9,15
		c29.1,0.5,57.4-2.6,84.9-9.1C461.5,671.9,487.3,662.3,511.3,649.8L511.3,649.8z"/>
	<path class="st4" d="M360.7,657.6c5.3,1,8.8,6.1,7.7,11.4c-1,5.3-6.1,8.8-11.4,7.7c-5.3-1-8.8-6.1-7.7-11.4
		C350.3,660,355.4,656.6,360.7,657.6L360.7,657.6z"/>
	<path class="st2" d="M361.6,659c4.1,0.8,6.8,4.8,6,8.9c-0.8,4.1-4.8,6.8-8.9,6c-4.1-0.8-6.8-4.8-6-8.9
		C353.5,660.9,357.5,658.2,361.6,659L361.6,659z"/>
	<path class="st4" d="M656.1,393.2c5.3,1,8.8,6.1,7.7,11.4c-1,5.3-6.1,8.8-11.4,7.7c-5.3-1-8.8-6.1-7.7-11.4
		C645.7,395.7,650.8,392.2,656.1,393.2L656.1,393.2z"/>
	<path class="st2" d="M657,394.7c4.1,0.8,6.8,4.8,6,8.9c-0.8,4.1-4.8,6.8-8.9,6c-4.1-0.8-6.8-4.8-6-8.9
		C648.9,396.6,652.9,393.9,657,394.7L657,394.7z"/>
	<path class="st4" d="M134.8,374.6c5.3,1,8.8,6.1,7.7,11.4c-1,5.3-6.1,8.8-11.4,7.7c-5.3-1-8.8-6.1-7.7-11.4
		C124.4,377.1,129.5,373.6,134.8,374.6L134.8,374.6z"/>
	<path class="st2" d="M135.7,376.1c4.1,0.8,6.8,4.8,6,8.9c-0.8,4.1-4.8,6.8-8.9,6c-4.1-0.8-6.8-4.8-6-8.9
		C127.6,378,131.6,375.3,135.7,376.1L135.7,376.1z"/>
	<path class="st2" d="M341.7,370.9v-0.6c0-4.8-0.6-22.3-9.6-34.3c-9-12.6-25.3-13.2-30.1-13.2c-18.7,0-31.9,18.7-31.9,36.1
		c0,40.3,24.1,51.2,36.7,51.2c7.2,0,12.6-1.8,16.9-6c0.6-0.6,1.2-1.2,1.8-1.8c3-3,7.8-8.4,11.4-12
		C341.7,385.4,341.7,375.7,341.7,370.9L341.7,370.9z"/>
	<path class="st2" d="M430.8,269.2c-7.8-6.6-16.3-10.2-25.3-10.2c-4.8,0-9.6,0.6-13.8,2.4c-29.5,11.4-31.3,41.5-31.3,47.6
		c0,10.2,2.4,16.3,4.8,21.7c0.6,1.2,0.6,1.8,1.2,3c1.8,4.8,12,11.4,22.3,15.7c6.6,2.4,15.7,3,20.5,3c3.6,0,8.4,0,10.2-0.6
		c26.5-9,27.1-42.1,27.1-42.7C445.8,308.9,444.6,281.2,430.8,269.2L430.8,269.2z"/>
	<path class="st2" d="M498.8,315.5c-6,0-20.5,1.2-32.5,13.8C453.6,342,453,364.9,453,369.7c0,13.8,5.4,19.9,14.4,30.1l1.8,1.8
		c6,6.6,13.2,10.2,20.5,10.2c4.2,0,9-1.2,14.4-3.6c7.8-3.6,27.1-15.7,27.1-52.4C531.3,322.2,507.8,315.5,498.8,315.5L498.8,315.5z"
		/>
	<path class="st2" d="M462.7,416.7c-1.2-1.2-2.4-1.8-3-2.4c-6.6-5.4-21.7-24.7-25.9-31.9c-4.8-7.8-15-16.9-35.5-16.9
		c-19.9,0-27.7,7.2-34.3,16.3c-4.2,4.8-17.5,22.3-22.9,27.1c-0.6,0.6-1.8,1.8-3.6,2.4c-7.2,4.8-20.5,14.4-20.5,34.3
		c0,20.5,7.2,36.1,21.1,46.4c4.2,3,10.8,4.8,18.1,4.8c9,0,17.5-2.4,19.9-3c3.6-1.2,10.2-3,22.3-3c10.2,0,17.5,2.4,24.7,4.8
		c6.6,2.4,12.6,4.2,20.5,4.2c18.7,0,38.5-16.9,38.5-44.6C481.9,431.1,469.9,422.1,462.7,416.7L462.7,416.7z"/>
	<path class="st6" d="M341.7,358v-0.6c0-4.8-0.6-22.3-9.6-34.3c-9-12.6-25.3-13.2-30.1-13.2c-18.7,0-31.9,18.7-31.9,36.1
		c0,40.3,24.1,51.2,36.7,51.2c7.2,0,12.6-1.8,16.9-6c0.6-0.6,1.2-1.2,1.8-1.8c3-3,7.8-8.4,11.4-12
		C341.7,372.5,341.7,362.8,341.7,358L341.7,358z"/>
	<path class="st6" d="M430.8,256.3c-7.8-6.6-16.3-10.2-25.3-10.2c-4.8,0-9.6,0.6-13.8,2.4c-29.5,11.4-31.3,41.5-31.3,47.6
		c0,10.2,2.4,16.3,4.8,21.7c0.6,1.2,0.6,1.8,1.2,3c1.8,4.8,12,11.4,22.3,15.7c6.6,2.4,15.7,3,20.5,3c3.6,0,8.4,0,10.2-0.6
		c26.5-9,27.1-42.1,27.1-42.7C445.8,296,444.6,268.3,430.8,256.3L430.8,256.3z"/>
	<path class="st6" d="M498.8,302.6c-6,0-20.5,1.2-32.5,13.8C453.6,329.1,453,352,453,356.8c0,13.8,5.4,19.9,14.4,30.1l1.8,1.8
		c6,6.6,13.2,10.2,20.5,10.2c4.2,0,9-1.2,14.4-3.6c7.8-3.6,27.1-15.7,27.1-52.4C531.3,309.2,507.8,302.6,498.8,302.6L498.8,302.6z"
		/>
	<path class="st6" d="M462.7,403.8c-1.2-1.2-2.4-1.8-3-2.4c-6.6-5.4-21.7-24.7-25.9-31.9c-4.8-7.8-15-16.9-35.5-16.9
		c-19.9,0-27.7,7.2-34.3,16.3c-4.2,4.8-17.5,22.3-22.9,27.1c-0.6,0.6-1.8,1.8-3.6,2.4c-7.2,4.8-20.5,14.4-20.5,34.3
		c0,20.5,7.2,36.1,21.1,46.4c4.2,3,10.8,4.8,18.1,4.8c9,0,17.5-2.4,19.9-3c3.6-1.2,10.2-3,22.3-3c10.2,0,17.5,2.4,24.7,4.8
		c6.6,2.4,12.6,4.2,20.5,4.2c18.7,0,38.5-16.9,38.5-44.6C481.9,418.2,469.9,409.2,462.7,403.8L462.7,403.8z"/>
</g>
</svg>
