<?xml version="1.0" encoding="utf-8"?>
<!-- Generator: Adobe Illustrator 21.1.0, SVG Export Plug-In . SVG Version: 6.00 Build 0)  -->
<svg version="1.1" id="Warstwa_1" xmlns="http://www.w3.org/2000/svg" xmlns:xlink="http://www.w3.org/1999/xlink" x="0px" y="0px"
	 viewBox="0 0 792 792" style="enable-background:new 0 0 792 792;" xml:space="preserve">
<style type="text/css">
	.st0{fill:#EAAB11;}
	.st1{fill:#FFFF00;}
	.st2{fill:#00548C;}
	.st3{fill:#0094FF;}
	.st4{fill:#004574;}
	.st5{fill:#31ACFF;}
</style>
<g>
	<path class="st0" d="M668.9,244c2.7,24.4,1.8,49.1-2.2,73.3c-5.6,34.1-16.9,67-32.1,98.1c-16.4,33.6-38,64.1-63.6,91.3
		c-27.1,28.7-58.5,52.7-92.8,72.3c-28.1,16-58.2,28-89.4,36.4L385.7,756L136,730.2l-1.5-31l-12.9-629l35.3-4.1
		c66.5-7.7,133-15.5,199.7-21.9c20.9-2,41.8-3.9,62.6-6.1c39.6-4.1,81.1-3.1,119,10.2c32,11.2,60.9,28.8,83.2,54.7
		c21.3,24.7,35,53.8,41.9,85.6C667.3,206.9,669,225.4,668.9,244L668.9,244z"/>
	<path class="st1" d="M387.3,584.2L384.1,725l-249.7-25.8l-12.9-629l35.3-4.1c66.5-7.7,133-15.5,199.7-21.9c20.9-2,41.8-3.9,62.6-6
		c39.6-4.1,81.1-3.1,119,10.2c32,11.2,60.9,28.8,83.2,54.7c21.3,24.7,35,53.8,41.9,85.6c6.9,32.1,7.1,65.3,1.8,97.6
		c-5.6,34.1-16.9,67-32.1,98.1c-16.4,33.6-38,64.1-63.6,91.3c-27.1,28.7-58.5,52.7-92.8,72.3C448.5,563.9,418.5,575.9,387.3,584.2
		L387.3,584.2z M396.2,291.3c0-0.3,0.1-0.6,0.1-0.9c-1.6-0.1-3.1-0.1-4.2,0c-5.4,0.1-11.9,1.5-18.1,3.2l-1.5,24.2
		c2.3-1.8,4.6-3.7,6.7-5.8c5-4.8,10.3-10.2,14-16C394.2,294.6,395.4,292.9,396.2,291.3L396.2,291.3z"/>
	<path class="st2" d="M365.4,566.7l-3,133.7l-206.1-21.3L144.2,90l15.2-1.8c66.3-7.7,132.8-15.4,199.3-21.9c21-2,41.9-4,62.8-6.1
		c36.2-3.9,74.7-3.1,109.3,9.1c28.3,9.9,54,25.3,73.7,48.2c18.9,21.9,30.9,47.6,37,75.8c6.4,29.5,6.5,59.6,1.6,89.3
		c-5.3,32-15.9,62.8-30.1,91.9c-15.4,31.6-35.7,60.2-59.8,85.8c-25.6,27.1-55.3,49.7-87.6,68.2C434.3,546.4,400.5,558.8,365.4,566.7
		L365.4,566.7z M418.1,297c0.2-2.3,0.5-4.8,0.7-6.9c0.3-3.3-0.7-7.7-1.6-10.9c-1-3.4-3.1-5.8-5.9-7.9c-4.1-3-14.7-3.3-19.5-3.2
		c-11.9,0.2-26.5,4.5-39,9l-5,79.9c6.3-2.3,12.4-5.1,18.2-8.3c10.2-5.7,20.1-12.5,28.6-20.5c6.4-6,12.7-12.8,17.5-20.2
		C413.7,305.5,416.9,300.4,418.1,297L418.1,297z"/>
	<path class="st3" d="M423.3,77c40.1-4.3,74.1-1.6,102,8.2c27.9,9.8,50.1,24.2,66.6,43.3c16.5,19.1,27.6,41.9,33.3,68.4
		c5.7,26.5,6.2,54.2,1.4,83c-4.8,28.9-14.3,58-28.6,87.3c-14.3,29.3-33.3,56.5-56.9,81.6c-23.6,25.1-51.5,46.8-83.7,65.1
		c-32.2,18.4-68.4,31.4-108.4,39L346,681.8l-173.2-17.9l-11.5-559c90.7-10.5,157-17.8,199-21.8C402.3,79,423.3,77,423.3,77L423.3,77
		z M434.8,299.6c0-0.5,0.2-3.1,0.7-7.9c0.5-4.8-0.2-10.5-2.1-17.2c-1.9-6.7-6-12.3-12.2-16.8c-6.2-4.5-16.1-6.7-29.7-6.4
		c-13.6,0.2-31.8,4.9-54.8,14l-7.2,114.5c17.2-3.8,32.1-9.3,44.7-16.5c12.6-7.2,23.3-14.8,31.8-22.9c8.6-8.1,15.3-15.9,20-23.3
		C431,309.7,433.8,303.9,434.8,299.6L434.8,299.6z"/>
	<path class="st4" d="M191.8,117.2c5.4,1,9,6.3,7.9,11.7c-1,5.4-6.3,9-11.7,7.9c-5.4-1-9-6.3-7.9-11.7
		C181.1,119.7,186.4,116.2,191.8,117.2L191.8,117.2z"/>
	<path class="st2" d="M192.7,118.7c4.2,0.8,7,4.9,6.2,9.1c-0.8,4.2-4.9,7-9.1,6.2c-4.2-0.8-7-4.9-6.2-9.1
		C184.4,120.7,188.5,117.9,192.7,118.7L192.7,118.7z"/>
	<path class="st4" d="M606,224c5.4,1,9,6.3,7.9,11.7c-1,5.4-6.3,9-11.7,7.9c-5.4-1-9-6.3-7.9-11.7C595.3,226.5,600.6,222.9,606,224
		L606,224z"/>
	<path class="st2" d="M606.9,225.4c4.2,0.8,7,4.9,6.2,9.1c-0.8,4.2-4.9,7-9.1,6.2c-4.2-0.8-7-4.9-6.2-9.1
		C598.6,227.4,602.7,224.6,606.9,225.4L606.9,225.4z"/>
	<path class="st5" d="M457.3,513.9c32.2-18.4,60.1-40.1,83.7-65.1c17.2-18.2,31.9-37.6,44.1-58c-60.3-5.2-123.9-8-189.6-8
		c-80,0-156.8,4.1-228.3,11.8l5.5,269.4L346,681.8l2.9-128.8C389,545.3,425.1,532.3,457.3,513.9L457.3,513.9z"/>
	<path class="st4" d="M328.6,650.7c5.4,1,9,6.3,7.9,11.7c-1,5.4-6.3,9-11.7,7.9c-5.4-1-9-6.3-7.9-11.7
		C317.9,653.2,323.2,649.7,328.6,650.7L328.6,650.7z"/>
	<path class="st2" d="M329.5,652.2c4.2,0.8,7,4.9,6.2,9.1c-0.8,4.2-4.9,7-9.1,6.2c-4.2-0.8-7-4.9-6.2-9.1
		C321.2,654.2,325.3,651.4,329.5,652.2L329.5,652.2z"/>
	<path class="st4" d="M196.5,636.7c5.4,1,9,6.3,7.9,11.7c-1,5.4-6.3,9-11.7,7.9c-5.4-1-9-6.3-7.9-11.7
		C185.8,639.3,191,635.7,196.5,636.7L196.5,636.7z"/>
	<path class="st2" d="M197.4,638.2c4.2,0.8,7,4.9,6.2,9.1c-0.8,4.2-4.9,7-9.1,6.2c-4.2-0.8-7-4.9-6.2-9.1
		C189.1,640.2,193.1,637.4,197.4,638.2L197.4,638.2z"/>
</g>
</svg>
