<?xml version="1.0" encoding="utf-8"?>
<!-- Generator: Adobe Illustrator 21.1.0, SVG Export Plug-In . SVG Version: 6.00 Build 0)  -->
<svg version="1.1" id="Warstwa_1" xmlns="http://www.w3.org/2000/svg" xmlns:xlink="http://www.w3.org/1999/xlink" x="0px" y="0px"
	 viewBox="0 0 792 792" style="enable-background:new 0 0 792 792;" xml:space="preserve">
<style type="text/css">
	.st0{fill:#EAAB11;}
	.st1{fill:#FFFF00;}
	.st2{fill:#00548C;}
	.st3{fill:#0094FF;}
	.st4{fill:#004574;}
	.st5{fill:#31ACFF;}
	.st6{fill:#E2E6EA;}
</style>
<g>
	<path class="st0" d="M668.9,244c2.7,24.4,1.8,49.1-2.2,73.3c-5.6,34.1-16.9,67-32.1,98.1c-16.4,33.6-38,64.1-63.6,91.3
		c-27.1,28.7-58.5,52.7-92.8,72.3c-28.1,16-58.2,28-89.4,36.4L385.7,756L136,730.2l-1.5-31l-12.9-629l35.3-4.1
		c66.5-7.7,133-15.5,199.7-21.9c20.9-2,41.8-3.9,62.6-6.1c39.6-4.1,81.1-3.1,119,10.2c32,11.2,60.9,28.8,83.2,54.7
		c21.3,24.7,35,53.8,41.9,85.6C667.3,206.9,669,225.4,668.9,244L668.9,244z"/>
	<path class="st1" d="M387.3,584.2L384.1,725l-249.7-25.8l-12.9-629l35.3-4.1c66.5-7.7,133-15.5,199.7-21.9c20.9-2,41.8-3.9,62.6-6
		c39.6-4.1,81.1-3.1,119,10.2c32,11.2,60.9,28.8,83.2,54.7c21.3,24.7,35,53.8,41.9,85.6c6.9,32.1,7.1,65.3,1.8,97.6
		c-5.6,34.1-16.9,67-32.1,98.1c-16.4,33.6-38,64.1-63.6,91.3c-27.1,28.7-58.5,52.7-92.8,72.3C448.5,563.9,418.5,575.9,387.3,584.2
		L387.3,584.2z"/>
	<path class="st2" d="M365.4,566.7l-3,133.7l-206.1-21.3L144.2,90l15.2-1.8c66.3-7.7,132.8-15.4,199.3-21.9c21-2,41.9-4,62.8-6.1
		c36.2-3.9,74.7-3.1,109.3,9.1c28.3,9.9,54,25.3,73.7,48.2c18.9,21.9,30.9,47.6,37,75.8c6.4,29.5,6.5,59.6,1.6,89.3
		c-5.3,32-15.9,62.8-30.1,91.9c-15.4,31.6-35.7,60.2-59.8,85.7c-25.6,27.1-55.3,49.7-87.6,68.2C434.3,546.4,400.5,558.8,365.4,566.7
		L365.4,566.7z"/>
	<path class="st3" d="M423.3,77c40.1-4.3,74.1-1.5,102,8.2c27.9,9.8,50.1,24.2,66.6,43.3c16.5,19.1,27.6,41.9,33.3,68.4
		c5.7,26.5,6.2,54.2,1.4,83c-4.8,28.9-14.3,58-28.6,87.3c-14.3,29.3-33.3,56.5-56.9,81.6c-23.6,25.1-51.5,46.8-83.7,65.1
		c-32.2,18.4-68.4,31.4-108.4,39L346,681.8l-173.2-17.9l-11.5-559c90.7-10.5,157-17.8,199-21.8C402.3,79,423.3,77,423.3,77L423.3,77
		z"/>
	<path class="st4" d="M191.8,117.2c5.4,1,9,6.3,7.9,11.7c-1,5.4-6.3,9-11.7,7.9c-5.4-1-9-6.3-7.9-11.7
		C181.1,119.7,186.4,116.2,191.8,117.2L191.8,117.2z"/>
	<path class="st2" d="M192.7,118.7c4.2,0.8,7,4.9,6.2,9.1c-0.8,4.2-4.9,7-9.1,6.2c-4.2-0.8-7-4.9-6.2-9.1
		C184.4,120.7,188.5,117.9,192.7,118.7L192.7,118.7z"/>
	<path class="st4" d="M606,224c5.4,1,9,6.3,7.9,11.7c-1,5.4-6.3,9-11.7,7.9c-5.4-1-9-6.3-7.9-11.7C595.3,226.5,600.6,222.9,606,224
		L606,224z"/>
	<path class="st2" d="M606.9,225.5c4.2,0.8,7,4.9,6.2,9.1c-0.8,4.2-4.9,7-9.1,6.2c-4.2-0.8-7-4.9-6.2-9.1
		C598.6,227.4,602.7,224.6,606.9,225.5L606.9,225.5z"/>
	<path class="st5" d="M457.3,513.9c32.2-18.4,60.1-40.1,83.7-65.1c17.2-18.2,31.9-37.6,44.1-58c-60.3-5.2-123.9-8-189.6-8
		c-80,0-156.8,4.1-228.3,11.8l5.5,269.4L346,681.8l2.9-128.8C389,545.3,425.1,532.3,457.3,513.9L457.3,513.9z"/>
	<path class="st4" d="M328.6,650.7c5.4,1,9,6.3,7.9,11.7c-1,5.4-6.3,9-11.7,7.9c-5.4-1-9-6.3-7.9-11.7
		C317.9,653.2,323.2,649.7,328.6,650.7L328.6,650.7z"/>
	<path class="st2" d="M329.5,652.2c4.2,0.8,7,4.9,6.2,9.1c-0.8,4.2-4.9,7-9.1,6.2c-4.2-0.8-7-4.9-6.2-9.1
		C321.2,654.2,325.3,651.4,329.5,652.2L329.5,652.2z"/>
	<path class="st4" d="M196.5,636.7c5.4,1,9,6.3,7.9,11.7s-6.3,9-11.7,7.9c-5.4-1-9-6.3-7.9-11.7C185.8,639.3,191,635.7,196.5,636.7
		L196.5,636.7z"/>
	<path class="st2" d="M197.4,638.2c4.2,0.8,7,4.9,6.2,9.1c-0.8,4.2-4.9,7-9.1,6.2c-4.2-0.8-7-4.9-6.2-9.1
		C189.1,640.2,193.1,637.4,197.4,638.2L197.4,638.2z"/>
	<path class="st2" d="M323.9,283.6V283c0-4.9-0.6-22.8-9.9-35.1c-9.2-12.9-25.9-13.6-30.8-13.6c-19.1,0-32.7,19.1-32.7,37
		c0,41.3,24.7,52.4,37.6,52.4c7.4,0,12.9-1.8,17.3-6.2c0.6-0.6,1.2-1.2,1.8-1.8c3.1-3.1,8-8.6,11.7-12.3
		C323.9,298.4,323.9,288.5,323.9,283.6L323.9,283.6z"/>
	<path class="st2" d="M415.1,179.4c-8-6.8-16.6-10.5-25.9-10.5c-4.9,0-9.9,0.6-14.2,2.5c-30.2,11.7-32,42.5-32,48.7
		c0,10.5,2.5,16.6,4.9,22.2c0.6,1.2,0.6,1.8,1.2,3.1c1.8,4.9,12.3,11.7,22.8,16c6.8,2.5,16,3.1,21,3.1c3.7,0,8.6,0,10.5-0.6
		c27.1-9.2,27.7-43.1,27.7-43.8C430.5,220.1,429.3,191.8,415.1,179.4L415.1,179.4z"/>
	<path class="st2" d="M484.8,226.9c-6.2,0-21,1.2-33.3,14.2c-12.9,12.9-13.6,36.4-13.6,41.3c0,14.2,5.5,20.3,14.8,30.8l1.8,1.8
		c6.2,6.8,13.6,10.5,21,10.5c4.3,0,9.2-1.2,14.8-3.7c8-3.7,27.7-16,27.7-53.6C518.1,233.7,494,226.9,484.8,226.9L484.8,226.9z"/>
	<path class="st2" d="M447.8,330.4c-1.2-1.2-2.5-1.8-3.1-2.5c-6.8-5.5-22.2-25.3-26.5-32.7c-4.9-8-15.4-17.3-36.4-17.3
		c-20.3,0-28.4,7.4-35.1,16.6c-4.3,4.9-17.9,22.8-23.4,27.7c-0.6,0.6-1.8,1.8-3.7,2.5c-7.4,4.9-21,14.8-21,35.1
		c0,21,7.4,37,21.6,47.5c4.3,3.1,11.1,4.9,18.5,4.9c9.2,0,17.9-2.5,20.3-3.1c3.7-1.2,10.5-3.1,22.8-3.1c10.5,0,17.9,2.5,25.3,4.9
		c6.8,2.5,12.9,4.3,21,4.3c19.1,0,39.4-17.3,39.4-45.6C467.5,345.2,455.2,336,447.8,330.4L447.8,330.4z"/>
	<path class="st6" d="M323.9,270.4v-0.6c0-4.9-0.6-22.8-9.9-35.1c-9.2-12.9-25.9-13.6-30.8-13.6c-19.1,0-32.7,19.1-32.7,37
		c0,41.3,24.7,52.4,37.6,52.4c7.4,0,12.9-1.8,17.3-6.2c0.6-0.6,1.2-1.2,1.8-1.8c3.1-3.1,8-8.6,11.7-12.3
		C323.9,285.2,323.9,275.3,323.9,270.4L323.9,270.4z"/>
	<path class="st6" d="M415.1,166.2c-8-6.8-16.6-10.5-25.9-10.5c-4.9,0-9.9,0.6-14.2,2.5c-30.2,11.7-32,42.5-32,48.7
		c0,10.5,2.5,16.6,4.9,22.2c0.6,1.2,0.6,1.8,1.2,3.1c1.8,4.9,12.3,11.7,22.8,16c6.8,2.5,16,3.1,21,3.1c3.7,0,8.6,0,10.5-0.6
		c27.1-9.2,27.7-43.1,27.7-43.8C430.5,206.9,429.3,178.6,415.1,166.2L415.1,166.2z"/>
	<path class="st6" d="M484.8,213.7c-6.2,0-21,1.2-33.3,14.2c-12.9,12.9-13.6,36.4-13.6,41.3c0,14.2,5.5,20.3,14.8,30.8l1.8,1.8
		c6.2,6.8,13.6,10.5,21,10.5c4.3,0,9.2-1.2,14.8-3.7c8-3.7,27.7-16,27.7-53.6C518.1,220.5,494,213.7,484.8,213.7L484.8,213.7z"/>
	<path class="st6" d="M447.8,317.2c-1.2-1.2-2.5-1.8-3.1-2.5c-6.8-5.5-22.2-25.3-26.5-32.7c-4.9-8-15.4-17.3-36.4-17.3
		c-20.3,0-28.4,7.4-35.1,16.6c-4.3,4.9-17.9,22.8-23.4,27.7c-0.6,0.6-1.8,1.8-3.7,2.5c-7.4,4.9-21,14.8-21,35.1
		c0,21,7.4,37,21.6,47.5c4.3,3.1,11.1,4.9,18.5,4.9c9.2,0,17.9-2.5,20.3-3.1c3.7-1.2,10.5-3.1,22.8-3.1c10.5,0,17.9,2.5,25.3,4.9
		c6.8,2.5,12.9,4.3,21,4.3c19.1,0,39.4-17.3,39.4-45.6C467.5,332,455.2,322.8,447.8,317.2L447.8,317.2z"/>
</g>
</svg>
