<?xml version="1.0" encoding="utf-8"?>
<!-- Generator: Adobe Illustrator 21.1.0, SVG Export Plug-In . SVG Version: 6.00 Build 0)  -->
<svg version="1.1" id="Warstwa_1" xmlns="http://www.w3.org/2000/svg" xmlns:xlink="http://www.w3.org/1999/xlink" x="0px" y="0px"
	 viewBox="0 0 792 792" style="enable-background:new 0 0 792 792;" xml:space="preserve">
<style type="text/css">
	.st0{fill:#EAAB11;}
	.st1{fill:#FFFF00;}
	.st2{fill:#00548C;}
	.st3{fill:#0094FF;}
	.st4{fill:#004574;}
	.st5{fill:#31ACFF;}
</style>
<g>
	<path class="st0" d="M648.8,553.7l21.7,21.3l1.4,28.6L518.4,756l-42.8-58.4c-23.8,8.1-48.5,13.5-73.4,16.6
		c-35.9,4.4-72.2,2.9-107.6-4.9c-36.5-8-70.1-23.7-100.2-45.8c-33.7-24.8-58.3-58-75.3-95.9c-19.4-43.4-30.8-90.1-30.9-137.5
		c-1.8-18.3-1.9-36.9-0.3-55.4c4.6-52.1,19.7-101.6,46.1-146.8c26.3-45.1,61.3-83.3,103.1-114.5c42.6-31.8,90.2-54.9,141.8-68.1
		c31.7-8.1,64.6-11.4,97.1-7.9c28.3,3.1,56.2,10,82.1,21.9c23.2,10.6,44.9,24.3,63.5,41.9c16,15,30.4,32,40.6,51.5
		c15,28.8,25.5,59.7,32.6,91.4c5.6,25,8.5,50.5,8.8,76c1.7,19.1,1.9,38.3,0.7,57.5c-2.3,37.7-10.7,74.8-23.6,110.3
		C672.5,510.9,661.6,532.9,648.8,553.7L648.8,553.7z M353.1,350.2c-9.8,10.7-17.2,23.4-22.7,36.8c-5.4,12.9-8,26.7-8.6,40.6
		c0.9,5.3,2.3,10.3,4.3,14.7c2.6,5.5,6.3,11.5,11.4,15l1.7,1.1L424,334.2l25.4,24.9c0.2-1.5,0.5-3.1,0.6-4.6
		c-1.5-6-3.5-11.9-6.2-17.6c-2.6-5.6-6.2-10.7-11.8-13.6c-6.6-3.3-13.4-4.5-20.7-4.1c-10.2,0.6-20,4-29.1,8.5
		C371.2,333.3,361.5,341.1,353.1,350.2L353.1,350.2z"/>
	<path class="st1" d="M636.5,541.6l34,33.3L517,727.4L474.2,669c-23.8,8.1-48.4,13.5-73.4,16.6c-35.9,4.4-72.2,2.9-107.6-4.9
		c-36.5-8-70.1-23.7-100.2-45.8c-33.7-24.8-58.3-58-75.3-95.9C94.6,487.4,83,431.3,88,374.7c4.6-52.1,19.7-101.6,46.1-146.8
		c26.3-45.1,61.3-83.3,103.1-114.5c42.6-31.8,90.2-54.9,141.8-68.1c31.7-8.1,64.6-11.4,97.1-7.9c28.3,3.1,56.2,10,82.1,21.9
		c23.2,10.6,44.9,24.3,63.5,41.9c16,15,30.4,32,40.6,51.5c15,28.8,25.5,59.8,32.6,91.4c7.7,34.4,10.2,69.7,8.1,104.9
		c-2.3,37.7-10.7,74.8-23.6,110.3C668.8,488.5,654.1,516,636.5,541.6L636.5,541.6z M339.2,458.3L424,334.2l25.4,24.9
		c0.7-4.2,1.1-8.4,1.2-12.7c0.1-6.7-0.3-13.7-1.9-20.3c-1.5-6.1-3.6-12.1-6.2-17.9c-2.6-5.6-6.2-10.7-11.8-13.6
		c-6.6-3.3-13.4-4.5-20.7-4.1c-10.2,0.6-20,4-29.1,8.5c-11.1,5.6-20.8,13.3-29.2,22.5c-9.8,10.7-17.2,23.4-22.7,36.8
		c-6.3,15.1-8.8,31.3-8.8,47.6c0,11.3,1,25.9,5.9,36.3c2.6,5.5,6.3,11.5,11.4,15C338.1,457.6,338.6,458,339.2,458.3L339.2,458.3z"/>
	<path class="st2" d="M609.5,544l31.7,31L519.5,696l-37.8-51.6c-26.7,10.6-54.8,17.3-83.4,20.8c-33.7,4.1-67.5,2.8-100.7-4.5
		c-33.7-7.4-64.6-21.8-92.4-42.3c-30.8-22.7-53.2-53-68.7-87.8c-21.8-48.7-32.7-100.7-28.1-154.1c4.3-49.2,18.5-95.6,43.3-138.3
		c24.9-42.7,58-78.8,97.6-108.4C289.9,99.7,335,77.8,384,65.2c29.3-7.5,59.6-10.6,89.8-7.3c26.2,2.9,51.8,9.2,75.8,20.2
		c21.2,9.7,41,22.2,58,38.1c14.2,13.4,27.4,28.7,36.5,46.1c14.2,27.2,24.1,56.5,30.8,86.4c7.3,32.6,9.6,65.8,7.6,99.2
		c-2.2,35.8-10.1,70.8-22.4,104.5C648.1,485.3,630.6,515.9,609.5,544L609.5,544z M362.5,482l-7.6-10.2l72.2-105.7l32.2,31.6
		c2.6-6.2,4.9-12.5,6.7-19c2.9-10.3,4.8-21.1,5.1-31.9c0.2-8.6-0.4-17.3-2.5-25.7c-1.9-7.4-4.3-14.7-7.6-21.6
		c-4.6-9.9-11.2-18.2-21.1-23.2c-9.8-5-20.3-7-31.3-6.3c-13,0.8-25.4,4.8-37,10.6c-13.4,6.7-25,16-35.1,27
		c-11.4,12.5-20,27.2-26.5,42.7c-7.3,17.6-10.4,36.4-10.4,55.5c0,14.6,1.5,31.6,7.8,45c4.3,9.1,10.2,17.7,18.7,23.4
		c7.8,5.2,16.3,7.7,25.6,8C355.3,482.4,358.9,482.3,362.5,482L362.5,482z"/>
	<path class="st3" d="M630.3,169.4c12.8,24.7,22.6,52.2,29.4,82.6c6.8,30.4,9.3,62,7.3,94.8s-9.1,66.2-21.5,100.1
		c-12.3,33.9-31.3,66.7-56.8,98.4l30.4,29.7l-97.8,97.1L487,625.3c-27.7,12.3-57.9,20.5-90.5,24.4c-32.6,4-64.4,2.5-95.5-4.3
		c-31.1-6.8-59.9-20-86.6-39.6c-26.6-19.6-47.9-46.8-63.8-81.6c-22-49.8-30.9-98.6-26.8-146.4s18-91.7,41.3-131.8
		c23.3-40.1,54.5-74.7,93.5-103.7c39-29.1,82-49.8,129.2-62.1c30-7.5,58-9.8,84.2-6.9c26.2,2.9,49.9,9.1,71,18.8
		c21.1,9.7,39.1,21.5,53.9,35.3C611.7,141.3,622.9,155.3,630.3,169.4L630.3,169.4z M284.1,406c0,21.1,3.1,38.3,9.3,51.5
		c6.2,13.2,14.2,23.1,24.1,29.7c9.9,6.6,21.1,10.1,33.7,10.6c12.6,0.4,25.2-1.5,38-5.9L374,471.4l55.5-81.3l34.4,33.7
		c7.9-14.5,13.7-28.2,17.2-41c3.5-12.8,5.4-24.7,5.6-35.7c0.2-11-0.8-20.9-3-29.7c-2.2-8.8-5.1-17-8.6-24.4
		c-6.6-14.1-16-24.2-28.1-30.4c-12.1-6.2-25.2-8.8-39.3-7.9c-14.1,0.9-28.4,5-42.9,12.2c-14.5,7.3-27.8,17.4-39.6,30.4
		c-11.9,13-21.7,28.7-29.4,47.2C288,363,284.1,383.5,284.1,406L284.1,406z"/>
	<path class="st4" d="M506.9,91.4c5,1,8.3,5.8,7.3,10.8c-1,5-5.8,8.3-10.8,7.3c-5-1-8.3-5.8-7.3-10.8
		C497,93.7,501.9,90.5,506.9,91.4L506.9,91.4z"/>
	<path class="st2" d="M507.7,92.8c3.9,0.8,6.5,4.5,5.7,8.4c-0.8,3.9-4.5,6.5-8.4,5.7c-3.9-0.8-6.5-4.5-5.7-8.4
		C500,94.6,503.8,92,507.7,92.8L507.7,92.8z"/>
	<path class="st5" d="M521.3,672.2l97.8-97.1l-30.4-29.7c25.5-31.7,44.5-64.5,56.8-98.5c5.7-15.6,10.2-31,13.7-46.3
		c-55.8-7.7-115.9-13.1-178.8-15.7c-3.6,12.2-9.1,25.1-16.6,38.9l-34.4-33.7L374,471.4l15.2,20.5c-12.8,4.4-25.4,6.4-38,5.9
		c-12.6-0.4-23.8-4-33.7-10.6c-9.9-6.6-18-16.5-24.1-29.7c-6.2-13.2-9.2-30.4-9.2-51.5c0-6.8,0.4-13.4,1.1-19.9
		c-57,3-111.5,8.4-162.3,15.7c0.1,40.1,9.4,80.9,27.8,122.4c15.9,34.8,37.1,62,63.8,81.6c26.7,19.6,55.5,32.8,86.6,39.6
		s62.9,8.3,95.5,4.3c32.6-4,62.8-12.1,90.5-24.4L521.3,672.2L521.3,672.2z"/>
	<path class="st4" d="M528,631c5,1,8.3,5.8,7.3,10.8c-1,5-5.8,8.3-10.8,7.3c-5-1-8.3-5.8-7.3-10.8C518.1,633.3,523,630,528,631
		L528,631z"/>
	<path class="st2" d="M528.8,632.4c3.9,0.8,6.5,4.5,5.7,8.4c-0.8,3.9-4.5,6.5-8.4,5.7c-3.9-0.8-6.5-4.5-5.7-8.4
		C521.2,634.2,524.9,631.6,528.8,632.4L528.8,632.4z"/>
	<path class="st4" d="M592.5,570c5,1,8.3,5.8,7.3,10.8c-1,5-5.8,8.3-10.8,7.3c-5-1-8.3-5.8-7.3-10.8
		C582.7,572.3,587.5,569,592.5,570L592.5,570z"/>
	<path class="st2" d="M593.4,571.4c3.9,0.8,6.5,4.5,5.7,8.4c-0.8,3.9-4.5,6.5-8.4,5.7c-3.9-0.8-6.5-4.5-5.7-8.4
		C585.7,573.2,589.5,570.6,593.4,571.4L593.4,571.4z"/>
	<path class="st4" d="M200.8,537.4c5,1,8.3,5.8,7.3,10.8c-1,5-5.8,8.3-10.8,7.3c-5-1-8.3-5.8-7.3-10.8
		C191,539.7,195.8,536.4,200.8,537.4L200.8,537.4z"/>
	<path class="st2" d="M201.7,538.8c3.9,0.8,6.5,4.5,5.7,8.4c-0.8,3.9-4.5,6.5-8.4,5.7c-3.9-0.8-6.5-4.5-5.7-8.4
		C194,540.6,197.8,538,201.7,538.8L201.7,538.8z"/>
</g>
</svg>
