<?xml version="1.0" encoding="utf-8"?>
<!-- Generator: Adobe Illustrator 21.1.0, SVG Export Plug-In . SVG Version: 6.00 Build 0)  -->
<svg version="1.1" id="Warstwa_1" xmlns="http://www.w3.org/2000/svg" xmlns:xlink="http://www.w3.org/1999/xlink" x="0px" y="0px"
	 viewBox="0 0 792 792" style="enable-background:new 0 0 792 792;" xml:space="preserve">
<style type="text/css">
	.st0{fill:#EAAB11;}
	.st1{fill:#FFFF00;}
	.st2{fill:#00548C;}
	.st3{fill:#0094FF;}
	.st4{fill:#004574;}
	.st5{fill:#31ACFF;}
	.st6{fill:#E2E6EA;}
</style>
<g>
	<path class="st0" d="M648.8,553.7l21.7,21.3l1.4,28.6L518.4,756l-42.8-58.4c-23.8,8.1-48.4,13.5-73.4,16.6
		c-35.9,4.4-72.2,2.9-107.6-4.9c-36.5-8-70.1-23.7-100.2-45.8c-33.7-24.8-58.3-58-75.3-95.9c-19.4-43.4-30.8-90.1-30.9-137.5
		c-1.8-18.3-1.9-36.9-0.3-55.4c4.6-52.1,19.7-101.6,46.1-146.8c26.3-45.1,61.3-83.3,103.1-114.5c42.6-31.8,90.2-54.9,141.8-68.1
		c31.7-8.1,64.6-11.4,97.1-7.9c28.3,3.1,56.2,10,82.1,21.9c23.2,10.6,44.9,24.3,63.5,41.9c16,15,30.4,32,40.6,51.5
		c15,28.8,25.5,59.7,32.6,91.4c5.6,25,8.5,50.5,8.8,76c1.7,19.1,1.9,38.3,0.7,57.5c-2.3,37.7-10.7,74.8-23.6,110.3
		C672.5,510.9,661.6,532.9,648.8,553.7L648.8,553.7z"/>
	<path class="st1" d="M636.5,541.6l34,33.3L517,727.4L474.2,669c-23.8,8.1-48.4,13.5-73.4,16.6c-35.9,4.4-72.2,2.9-107.6-4.9
		c-36.5-8-70.1-23.7-100.2-45.8c-33.7-24.8-58.3-58-75.3-95.9C94.6,487.4,83,431.3,87.9,374.7c4.6-52.1,19.7-101.6,46.1-146.8
		c26.3-45.1,61.3-83.3,103.1-114.5c42.6-31.8,90.2-54.9,141.8-68.1c31.7-8.1,64.6-11.4,97.1-7.9c28.3,3.1,56.2,10,82.1,21.9
		c23.2,10.6,44.9,24.3,63.5,41.9c16,15,30.4,32,40.6,51.5c15,28.8,25.5,59.8,32.6,91.4c7.7,34.4,10.2,69.7,8.1,104.9
		c-2.3,37.7-10.7,74.8-23.6,110.3C668.8,488.5,654.1,516,636.5,541.6L636.5,541.6z"/>
	<path class="st2" d="M609.5,544l31.7,31.1L519.5,696l-37.8-51.6c-26.7,10.6-54.8,17.3-83.4,20.8c-33.7,4.1-67.5,2.8-100.7-4.5
		c-33.7-7.4-64.6-21.8-92.4-42.3c-30.8-22.7-53.2-53-68.7-87.8c-21.8-48.7-32.7-100.7-28.1-154.1c4.3-49.2,18.5-95.6,43.3-138.3
		c24.9-42.7,58-78.8,97.6-108.4C289.9,99.7,335,77.8,384,65.2c29.3-7.5,59.6-10.6,89.8-7.3c26.2,2.9,51.8,9.2,75.8,20.2
		c21.2,9.7,41,22.2,58,38.1c14.2,13.4,27.4,28.7,36.5,46.1c14.2,27.2,24.1,56.5,30.8,86.4c7.3,32.6,9.6,65.8,7.6,99.2
		c-2.2,35.8-10.1,70.8-22.4,104.5C648.1,485.3,630.6,515.9,609.5,544L609.5,544z"/>
	<path class="st3" d="M630.3,169.4c12.8,24.7,22.6,52.2,29.4,82.6c6.8,30.4,9.3,62,7.3,94.8c-2,32.8-9.1,66.2-21.5,100.1
		s-31.3,66.7-56.8,98.5l30.4,29.7l-97.8,97.1L487,625.3c-27.7,12.3-57.9,20.5-90.5,24.4c-32.6,4-64.4,2.5-95.5-4.3
		s-59.9-20-86.6-39.6c-26.7-19.6-47.9-46.8-63.8-81.6c-22-49.8-30.9-98.6-26.8-146.4c4.2-47.8,18-91.7,41.3-131.8
		c23.3-40.1,54.5-74.7,93.5-103.7s82-49.8,129.2-62.1c30-7.5,58-9.8,84.2-6.9c26.2,2.9,49.9,9.1,71,18.8
		c21.1,9.7,39.1,21.5,53.9,35.3C611.7,141.3,622.9,155.3,630.3,169.4L630.3,169.4z"/>
	<path class="st4" d="M506.9,91.4c5,1,8.3,5.8,7.3,10.8s-5.8,8.3-10.8,7.3c-5-1-8.3-5.8-7.3-10.8C497,93.7,501.9,90.5,506.9,91.4
		L506.9,91.4z"/>
	<path class="st2" d="M507.7,92.8c3.9,0.8,6.5,4.5,5.7,8.4c-0.8,3.9-4.5,6.5-8.4,5.7c-3.9-0.8-6.5-4.5-5.7-8.4
		C500,94.6,503.8,92,507.7,92.8L507.7,92.8z"/>
	<path class="st5" d="M521.3,672.2l97.8-97.1l-30.4-29.7c25.5-31.7,44.5-64.5,56.8-98.5c5.7-15.6,10.2-31,13.7-46.3
		c-159.7-22.1-376.5-21.8-536.4,1.2c0.1,40.1,9.4,80.9,27.8,122.4c15.9,34.8,37.1,62,63.8,81.6c26.7,19.6,55.5,32.8,86.6,39.6
		c31.1,6.8,62.9,8.3,95.5,4.3c32.6-4,62.8-12.1,90.5-24.4L521.3,672.2L521.3,672.2z"/>
	<path class="st4" d="M528,631c5,1,8.3,5.8,7.3,10.8c-1,5-5.8,8.3-10.8,7.3c-5-1-8.3-5.8-7.3-10.8C518.1,633.3,523,630,528,631
		L528,631z"/>
	<path class="st2" d="M528.8,632.4c3.9,0.8,6.5,4.5,5.7,8.4c-0.8,3.9-4.5,6.5-8.4,5.7c-3.9-0.8-6.5-4.5-5.7-8.4
		C521.2,634.2,524.9,631.6,528.8,632.4L528.8,632.4z"/>
	<path class="st4" d="M592.5,570c5,1,8.3,5.8,7.3,10.8s-5.8,8.3-10.8,7.3c-5-1-8.3-5.8-7.3-10.8C582.7,572.3,587.5,569,592.5,570
		L592.5,570z"/>
	<path class="st2" d="M593.4,571.4c3.9,0.8,6.5,4.5,5.7,8.4c-0.8,3.9-4.5,6.5-8.4,5.7c-3.9-0.8-6.5-4.5-5.7-8.4
		C585.7,573.2,589.5,570.6,593.4,571.4L593.4,571.4z"/>
	<path class="st4" d="M200.8,537.4c5,1,8.3,5.8,7.3,10.8c-1,5-5.8,8.3-10.8,7.3c-5-1-8.3-5.8-7.3-10.8
		C191,539.7,195.8,536.4,200.8,537.4L200.8,537.4z"/>
	<path class="st2" d="M201.7,538.8c3.9,0.8,6.5,4.5,5.7,8.4c-0.8,3.9-4.5,6.5-8.4,5.7c-3.9-0.8-6.5-4.5-5.7-8.4
		C194,540.6,197.8,538,201.7,538.8L201.7,538.8z"/>
	<path class="st2" d="M336.4,358.5v-0.6c0-4.6-0.6-21.1-9.1-32.4c-8.5-11.9-23.9-12.5-28.4-12.5c-17.6,0-30.2,17.6-30.2,34.1
		c0,38.1,22.8,48.4,34.7,48.4c6.8,0,11.9-1.7,15.9-5.7c0.6-0.6,1.1-1.1,1.7-1.7c2.8-2.8,7.4-8,10.8-11.4
		C336.4,372.1,336.4,363,336.4,358.5L336.4,358.5z"/>
	<path class="st2" d="M420.6,262.3c-7.4-6.3-15.4-9.7-23.9-9.7c-4.6,0-9.1,0.6-13.1,2.3c-27.9,10.8-29.6,39.3-29.6,45
		c0,9.7,2.3,15.4,4.6,20.5c0.6,1.1,0.6,1.7,1.1,2.8c1.7,4.6,11.4,10.8,21.1,14.8c6.3,2.3,14.8,2.8,19.3,2.8c3.4,0,8,0,9.7-0.6
		c25-8.5,25.6-39.8,25.6-40.4C434.8,299.9,433.7,273.7,420.6,262.3L420.6,262.3z"/>
	<path class="st2" d="M484.9,306.1c-5.7,0-19.3,1.1-30.7,13.1c-11.9,11.9-12.5,33.6-12.5,38.1c0,13.1,5.1,18.8,13.7,28.4l1.7,1.7
		c5.7,6.3,12.5,9.7,19.3,9.7c4,0,8.5-1.1,13.7-3.4c7.4-3.4,25.6-14.8,25.6-49.5C515.6,312.4,493.4,306.1,484.9,306.1L484.9,306.1z"
		/>
	<path class="st2" d="M450.8,401.7c-1.1-1.1-2.3-1.7-2.8-2.3c-6.3-5.1-20.5-23.3-24.5-30.2c-4.6-7.4-14.2-15.9-33.6-15.9
		c-18.8,0-26.2,6.8-32.4,15.4c-4,4.6-16.5,21.1-21.6,25.6c-0.6,0.6-1.7,1.7-3.4,2.3c-6.8,4.6-19.3,13.7-19.3,32.4
		c0,19.3,6.8,34.1,19.9,43.8c4,2.8,10.2,4.6,17.1,4.6c8.5,0,16.5-2.3,18.8-2.8c3.4-1.1,9.7-2.8,21.1-2.8c9.7,0,16.5,2.3,23.3,4.6
		c6.3,2.3,11.9,4,19.3,4c17.6,0,36.4-15.9,36.4-42.1C469,415.4,457.6,406.8,450.8,401.7L450.8,401.7z"/>
	<path class="st6" d="M336.4,346.3v-0.6c0-4.6-0.6-21.1-9.1-32.4c-8.5-11.9-23.9-12.5-28.4-12.5c-17.6,0-30.2,17.6-30.2,34.1
		c0,38.1,22.8,48.4,34.7,48.4c6.8,0,11.9-1.7,15.9-5.7c0.6-0.6,1.1-1.1,1.7-1.7c2.8-2.8,7.4-8,10.8-11.4
		C336.4,359.9,336.4,350.8,336.4,346.3L336.4,346.3z"/>
	<path class="st6" d="M420.6,250.1c-7.4-6.3-15.4-9.7-23.9-9.7c-4.6,0-9.1,0.6-13.1,2.3c-27.9,10.8-29.6,39.3-29.6,45
		c0,9.7,2.3,15.4,4.6,20.5c0.6,1.1,0.6,1.7,1.1,2.8c1.7,4.6,11.4,10.8,21.1,14.8c6.3,2.3,14.8,2.8,19.3,2.8c3.4,0,8,0,9.7-0.6
		c25-8.5,25.6-39.8,25.6-40.4C434.8,287.7,433.7,261.5,420.6,250.1L420.6,250.1z"/>
	<path class="st6" d="M484.9,293.9c-5.7,0-19.3,1.1-30.7,13.1c-11.9,11.9-12.5,33.6-12.5,38.1c0,13.1,5.1,18.8,13.7,28.4l1.7,1.7
		c5.7,6.3,12.5,9.7,19.3,9.7c4,0,8.5-1.1,13.7-3.4c7.4-3.4,25.6-14.8,25.6-49.5C515.6,300.2,493.4,293.9,484.9,293.9L484.9,293.9z"
		/>
	<path class="st6" d="M450.8,389.5c-1.1-1.1-2.3-1.7-2.8-2.3c-6.3-5.1-20.5-23.3-24.5-30.2c-4.6-7.4-14.2-15.9-33.6-15.9
		c-18.8,0-26.2,6.8-32.4,15.4c-4,4.6-16.5,21.1-21.6,25.6c-0.6,0.6-1.7,1.7-3.4,2.3c-6.8,4.6-19.3,13.7-19.3,32.4
		c0,19.3,6.8,34.1,19.9,43.8c4,2.8,10.2,4.6,17.1,4.6c8.5,0,16.5-2.3,18.8-2.8c3.4-1.1,9.7-2.8,21.1-2.8c9.7,0,16.5,2.3,23.3,4.6
		c6.3,2.3,11.9,4,19.3,4c17.6,0,36.4-15.9,36.4-42.1C469,403.2,457.6,394.6,450.8,389.5L450.8,389.5z"/>
</g>
</svg>
