<?xml version="1.0" encoding="utf-8"?>
<!-- Generator: Adobe Illustrator 21.1.0, SVG Export Plug-In . SVG Version: 6.00 Build 0)  -->
<svg version="1.1" id="Warstwa_1" xmlns="http://www.w3.org/2000/svg" xmlns:xlink="http://www.w3.org/1999/xlink" x="0px" y="0px"
	 viewBox="0 0 792 792" style="enable-background:new 0 0 792 792;" xml:space="preserve">
<style type="text/css">
	.st0{fill:#EAAB11;}
	.st1{fill:#FFFF00;}
	.st2{fill:#00548C;}
	.st3{fill:#0094FF;}
	.st4{fill:#004574;}
	.st5{fill:#31ACFF;}
</style>
<g>
	<path class="st0" d="M653.2,236.6c2.6,34.7-2.9,69.4-14.3,102.3c-12.3,35.6-31.5,68.3-54.9,97.8c-8.4,10.6-17.3,20.6-26.9,30.1
		l117.5,77l1.5,30.4L515,756L376.2,653.8l-1.5,87.4L130,715.9l-1.5-30.4L115.8,69.6l34.6-4c65.1-7.6,130.3-15.1,195.6-21.5
		c20.5-2,40.9-3.8,61.4-5.9c42.3-4.4,87.2-3.3,127.4,12.1c33.4,12.8,63,32.8,84,62.2c19.9,27.8,30.4,59.7,33,93.7
		c0.5,7,0.7,13.9,0.6,20.9C652.6,230.3,652.9,233.4,653.2,236.6L653.2,236.6z"/>
	<path class="st1" d="M374.7,623.4l-1.5,87.4l-244.7-25.3L115.8,69.6l34.6-4c65.1-7.6,130.3-15.1,195.6-21.5
		c20.5-2,40.9-3.8,61.4-5.9c42.3-4.4,87.2-3.3,127.4,12.1c33.4,12.8,63,32.8,84,62.2c19.9,27.8,30.4,59.7,33,93.7
		c2.6,34.7-2.9,69.4-14.3,102.3c-12.3,35.6-31.5,68.3-54.9,97.8c-13.6,17.2-28.9,33-45.4,47.2l137.5,90.2L513.5,725.6L374.7,623.4
		L374.7,623.4z M384.8,286.4c0-0.4,0.1-0.8,0.1-1.2c-1.4-0.1-2.8,0-3.7,0c-5.2,0.1-11.4,1.4-17.3,3.1l-1.5,23.7
		c2.3-1.8,4.5-3.7,6.6-5.6c4.6-4.4,9.6-9.5,12.9-15C382.7,290,383.9,288.2,384.8,286.4L384.8,286.4z"/>
	<path class="st2" d="M353.6,580.8l-1.9,105.9l-201.9-20.9L138,89l14.9-1.7c65-7.5,130.1-15.1,195.1-21.4c20.5-2,41.1-3.9,61.5-5.9
		c38.7-4.1,80.6-3.3,117.3,10.8c29.4,11.3,55.6,28.6,74.1,54.5c17.5,24.6,26.7,52.6,29,82.6c2.4,31.9-2.7,63.4-13.1,93.5
		c-11.5,33.3-29.5,63.8-51.4,91.4c-18.9,23.9-41,44.6-65.6,62.5l141.7,92.9L510.4,696.3L353.6,580.8L353.6,580.8z M343,272.2
		l-4.9,78.2c6.2-2.3,12.1-5,17.8-8.2c9.9-5.6,19.7-12.2,28-20.1c6-5.7,12.2-12.3,16.5-19.4c1.6-2.7,4.6-7.6,5.7-11.1
		c0.2-2.3,0.5-4.7,0.7-6.8c0.3-3.5-0.5-7.8-1.3-11.2c-0.8-3.1-2.9-5.2-5.4-7c-4.4-3.1-14.2-3.4-19.3-3.3
		C369.3,263.6,355.1,267.8,343,272.2L343,272.2z"/>
	<path class="st3" d="M616.7,551.5L508,674.1L337.7,548.7l-2.1,119.8L166,651l-11.2-547.4c88.8-10.3,153.7-17.4,194.8-21.4
		c41.1-4,61.7-6,61.7-6c43.9-4.7,80.5-1.4,109.7,9.8c29.2,11.2,51.4,27.4,66.6,48.7c15.2,21.3,23.8,46,25.9,74.3
		c2.1,28.3-2,57.2-12.3,86.9c-10.3,29.7-26.5,58.5-48.7,86.6c-22.2,28-49.6,52.3-82.3,72.9L616.7,551.5L616.7,551.5z M327.2,260.6
		l-7,112.1c16.8-3.7,31.4-9.1,43.8-16.1c12.4-7,22.8-14.5,31.2-22.4c8.4-7.9,14.8-15.5,19.3-22.8c4.4-7.2,7.1-13,8.1-17.2
		c0-0.5,0.2-3,0.7-7.7c0.5-4.7-0.1-10.3-1.8-16.8c-1.6-6.5-5.6-12-11.9-16.5c-6.3-4.4-16-6.5-29.1-6.3
		C367.4,247.2,349.6,251.7,327.2,260.6L327.2,260.6z"/>
	<path class="st4" d="M594.3,211.3c5.3,1,8.8,6.2,7.8,11.5c-1,5.3-6.2,8.8-11.5,7.8c-5.3-1-8.8-6.2-7.8-11.5
		C583.8,213.7,589,210.2,594.3,211.3L594.3,211.3z"/>
	<path class="st2" d="M595.2,212.7c4.1,0.8,6.9,4.8,6.1,8.9c-0.8,4.1-4.8,6.9-8.9,6.1c-4.1-0.8-6.9-4.8-6.1-9
		C587,214.6,591.1,211.9,595.2,212.7L595.2,212.7z"/>
	<path class="st4" d="M182.8,114c5.3,1,8.8,6.2,7.8,11.5c-1,5.3-6.2,8.8-11.5,7.8c-5.3-1-8.8-6.2-7.8-11.5
		C172.4,116.5,177.5,113,182.8,114L182.8,114z"/>
	<path class="st2" d="M183.7,115.5c4.1,0.8,6.9,4.8,6.1,9c-0.8,4.1-4.8,6.9-8.9,6.1c-4.1-0.8-6.9-4.8-6.1-8.9
		C175.6,117.4,179.6,114.7,183.7,115.5L183.7,115.5z"/>
	<path class="st5" d="M470.2,455.4c30.3-19,56-41.3,77.3-66.7c-51.8-3.9-106-5.9-161.8-5.9c-78.8,0-154.5,4.1-225,11.7L166,651
		l169.6,17.5l2.1-119.8L508,674.1l108.6-122.6L470.2,455.4L470.2,455.4z"/>
	<path class="st4" d="M586.8,547.5c5.3,1,8.8,6.2,7.8,11.5c-1,5.3-6.2,8.8-11.5,7.8c-5.3-1-8.8-6.2-7.8-11.5
		C576.4,550,581.5,546.5,586.8,547.5L586.8,547.5z"/>
	<path class="st2" d="M587.7,549c4.1,0.8,6.9,4.8,6.1,8.9c-0.8,4.1-4.8,6.9-8.9,6.1c-4.1-0.8-6.9-4.8-6.1-9
		C579.6,550.9,583.6,548.2,587.7,549L587.7,549z"/>
	<path class="st4" d="M508.4,638.3c5.3,1,8.8,6.2,7.8,11.5s-6.2,8.8-11.5,7.8c-5.3-1-8.8-6.2-7.8-11.5
		C498,640.8,503.1,637.3,508.4,638.3L508.4,638.3z"/>
	<path class="st2" d="M509.3,639.8c4.1,0.8,6.9,4.8,6.1,8.9c-0.8,4.1-4.8,6.9-8.9,6.1c-4.1-0.8-6.9-4.8-6.1-9
		C501.2,641.7,505.2,639,509.3,639.8L509.3,639.8z"/>
	<path class="st4" d="M318.1,635.8c5.3,1,8.8,6.2,7.8,11.5s-6.2,8.8-11.5,7.8c-5.3-1-8.8-6.2-7.8-11.5
		C307.6,638.3,312.8,634.8,318.1,635.8L318.1,635.8z"/>
	<path class="st2" d="M319,637.3c4.1,0.8,6.9,4.8,6.1,8.9c-0.8,4.1-4.8,6.9-8.9,6.1c-4.1-0.8-6.9-4.8-6.1-9
		C310.8,639.2,314.8,636.5,319,637.3L319,637.3z"/>
	<path class="st4" d="M188.7,625.9c5.3,1,8.8,6.2,7.8,11.5c-1,5.3-6.2,8.8-11.5,7.8c-5.3-1-8.8-6.2-7.8-11.5
		C178.2,628.3,183.4,624.9,188.7,625.9L188.7,625.9z"/>
	<path class="st2" d="M189.6,627.3c4.1,0.8,6.9,4.8,6.1,9c-0.8,4.1-4.8,6.9-8.9,6.1c-4.1-0.8-6.9-4.8-6.1-9
		C181.4,629.3,185.4,626.5,189.6,627.3L189.6,627.3z"/>
</g>
</svg>
