<?xml version="1.0" encoding="utf-8"?>
<!-- Generator: Adobe Illustrator 21.1.0, SVG Export Plug-In . SVG Version: 6.00 Build 0)  -->
<svg version="1.1" id="Warstwa_1" xmlns="http://www.w3.org/2000/svg" xmlns:xlink="http://www.w3.org/1999/xlink" x="0px" y="0px"
	 viewBox="0 0 792 792" style="enable-background:new 0 0 792 792;" xml:space="preserve">
<style type="text/css">
	.st0{fill:#EAAB11;}
	.st1{fill:#FFFF00;}
	.st2{fill:#00548C;}
	.st3{fill:#0094FF;}
	.st4{fill:#004574;}
	.st5{fill:#31ACFF;}
	.st6{fill:#E2E6EA;}
</style>
<g>
	<path class="st0" d="M653.2,236.6c2.6,34.7-2.9,69.4-14.3,102.3c-12.3,35.6-31.5,68.3-54.9,97.8c-8.4,10.6-17.3,20.6-26.9,30.1
		l117.5,77l1.5,30.4L515,756L376.2,653.8l-1.5,87.4L130,715.9l-1.5-30.4L115.8,69.6l34.6-4c65.1-7.6,130.3-15.1,195.6-21.5
		c20.5-2,40.9-3.8,61.4-5.9c42.3-4.4,87.3-3.3,127.4,12.1c33.4,12.8,63,32.8,84,62.2c19.9,27.8,30.4,59.7,33,93.7
		c0.5,7,0.7,13.9,0.6,20.9C652.6,230.3,652.9,233.4,653.2,236.6L653.2,236.6z"/>
	<path class="st1" d="M374.7,623.4l-1.5,87.4l-244.7-25.3L115.8,69.6l34.6-4c65.1-7.6,130.3-15.1,195.6-21.5
		c20.5-2,40.9-3.8,61.4-5.9c42.3-4.4,87.3-3.3,127.4,12.1c33.4,12.8,63,32.8,84,62.2c19.9,27.8,30.4,59.7,33,93.7
		c2.6,34.7-2.9,69.4-14.3,102.3c-12.3,35.6-31.5,68.3-54.9,97.8c-13.6,17.2-28.9,33-45.4,47.2l137.5,90.2L513.5,725.6L374.7,623.4
		L374.7,623.4z"/>
	<path class="st2" d="M353.6,580.8l-1.9,105.9l-201.9-20.9L138,89l14.9-1.7c65-7.5,130.1-15.1,195.1-21.4c20.5-2,41.1-3.9,61.5-5.9
		c38.7-4.1,80.6-3.3,117.3,10.8c29.4,11.3,55.6,28.6,74.1,54.5c17.5,24.6,26.7,52.6,29,82.6c2.4,31.9-2.7,63.4-13.1,93.5
		c-11.5,33.3-29.5,63.8-51.4,91.4c-18.9,23.9-41,44.6-65.6,62.5l141.7,92.9L510.4,696.3L353.6,580.8L353.6,580.8z"/>
	<path class="st3" d="M616.7,551.5L508,674.1L337.7,548.7l-2.1,119.8L166,651l-11.2-547.4c88.8-10.3,153.7-17.4,194.8-21.4
		c41.1-4,61.7-6,61.7-6c43.9-4.7,80.5-1.4,109.7,9.8c29.2,11.2,51.4,27.4,66.6,48.7c15.2,21.3,23.8,46,25.9,74.3s-2,57.2-12.3,86.9
		c-10.3,29.7-26.5,58.5-48.7,86.6c-22.2,28-49.6,52.3-82.3,72.9L616.7,551.5L616.7,551.5z"/>
	<path class="st4" d="M594.3,211.3c5.3,1,8.8,6.2,7.8,11.5c-1,5.3-6.2,8.8-11.5,7.8c-5.3-1-8.8-6.2-7.8-11.5
		C583.8,213.7,589,210.2,594.3,211.3L594.3,211.3z"/>
	<path class="st2" d="M595.2,212.7c4.1,0.8,6.9,4.8,6.1,8.9c-0.8,4.1-4.8,6.9-8.9,6.1c-4.1-0.8-6.9-4.8-6.1-9
		C587,214.6,591.1,211.9,595.2,212.7L595.2,212.7z"/>
	<path class="st4" d="M182.8,114c5.3,1,8.8,6.2,7.8,11.5c-1,5.3-6.2,8.8-11.5,7.8c-5.3-1-8.8-6.2-7.8-11.5
		C172.4,116.5,177.5,113,182.8,114L182.8,114z"/>
	<path class="st2" d="M183.7,115.5c4.1,0.8,6.9,4.8,6.1,8.9c-0.8,4.1-4.8,6.9-8.9,6.1c-4.1-0.8-6.9-4.8-6.1-9
		C175.6,117.4,179.6,114.7,183.7,115.5L183.7,115.5z"/>
	<path class="st5" d="M470.2,455.4c30.3-19,56-41.3,77.3-66.7c-51.8-3.9-106-5.9-161.8-5.9c-78.8,0-154.5,4.1-225,11.7L166,651
		l169.6,17.5l2.1-119.8L508,674.1l108.6-122.6L470.2,455.4L470.2,455.4z"/>
	<path class="st4" d="M586.8,547.5c5.3,1,8.8,6.2,7.8,11.5c-1,5.3-6.2,8.8-11.5,7.8c-5.3-1-8.8-6.2-7.8-11.5
		C576.4,550,581.5,546.5,586.8,547.5L586.8,547.5z"/>
	<path class="st2" d="M587.7,549c4.1,0.8,6.9,4.8,6.1,9c-0.8,4.1-4.8,6.9-8.9,6.1c-4.1-0.8-6.9-4.8-6.1-9
		C579.6,550.9,583.6,548.2,587.7,549L587.7,549z"/>
	<path class="st4" d="M508.4,638.3c5.3,1,8.8,6.2,7.8,11.5c-1,5.3-6.2,8.8-11.5,7.8c-5.3-1-8.8-6.2-7.8-11.5
		C498,640.8,503.1,637.3,508.4,638.3L508.4,638.3z"/>
	<path class="st2" d="M509.3,639.8c4.1,0.8,6.9,4.8,6.1,9c-0.8,4.1-4.8,6.9-8.9,6.1c-4.1-0.8-6.9-4.8-6.1-9
		C501.2,641.7,505.2,639,509.3,639.8L509.3,639.8z"/>
	<path class="st4" d="M318.1,635.8c5.3,1,8.8,6.2,7.8,11.5c-1,5.3-6.2,8.8-11.5,7.8c-5.3-1-8.8-6.2-7.8-11.5
		C307.6,638.3,312.8,634.8,318.1,635.8L318.1,635.8z"/>
	<path class="st2" d="M319,637.3c4.1,0.8,6.9,4.8,6.1,9c-0.8,4.1-4.8,6.9-8.9,6.1c-4.1-0.8-6.9-4.8-6.1-9
		C310.8,639.2,314.8,636.5,319,637.3L319,637.3z"/>
	<path class="st4" d="M188.7,625.9c5.3,1,8.8,6.2,7.8,11.5c-1,5.3-6.2,8.8-11.5,7.8c-5.3-1-8.8-6.2-7.8-11.5
		C178.2,628.3,183.4,624.9,188.7,625.9L188.7,625.9z"/>
	<path class="st2" d="M189.6,627.3c4.1,0.8,6.9,4.8,6.1,9c-0.8,4.1-4.8,6.9-8.9,6.1c-4.1-0.8-6.9-4.8-6.1-9
		C181.4,629.3,185.4,626.5,189.6,627.3L189.6,627.3z"/>
	<path class="st2" d="M304,274.4v-0.6c0-4.8-0.6-22.3-9.7-34.4c-9.1-12.7-25.3-13.3-30.2-13.3c-18.7,0-32,18.7-32,36.2
		c0,40.4,24.1,51.3,36.8,51.3c7.2,0,12.7-1.8,16.9-6c0.6-0.6,1.2-1.2,1.8-1.8c3-3,7.8-8.4,11.5-12.1C304,288.9,304,279.2,304,274.4
		L304,274.4z"/>
	<path class="st2" d="M393.3,172.4c-7.8-6.6-16.3-10.3-25.3-10.3c-4.8,0-9.7,0.6-13.9,2.4c-29.6,11.5-31.4,41.6-31.4,47.7
		c0,10.3,2.4,16.3,4.8,21.7c0.6,1.2,0.6,1.8,1.2,3c1.8,4.8,12.1,11.5,22.3,15.7c6.6,2.4,15.7,3,20.5,3c3.6,0,8.4,0,10.3-0.6
		c26.6-9.1,27.2-42.2,27.2-42.9C408.4,212.2,407.2,184.5,393.3,172.4L393.3,172.4z"/>
	<path class="st2" d="M461.5,218.9c-6,0-20.5,1.2-32.6,13.9c-12.7,12.7-13.3,35.6-13.3,40.4c0,13.9,5.4,19.9,14.5,30.2l1.8,1.8
		c6,6.6,13.3,10.3,20.5,10.3c4.2,0,9.1-1.2,14.5-3.6c7.8-3.6,27.2-15.7,27.2-52.5C494.1,225.5,470.5,218.9,461.5,218.9L461.5,218.9z
		"/>
	<path class="st2" d="M425.3,320.3c-1.2-1.2-2.4-1.8-3-2.4c-6.6-5.4-21.7-24.7-26-32c-4.8-7.8-15.1-16.9-35.6-16.9
		c-19.9,0-27.8,7.2-34.4,16.3c-4.2,4.8-17.5,22.3-22.9,27.2c-0.6,0.6-1.8,1.8-3.6,2.4c-7.2,4.8-20.5,14.5-20.5,34.4
		c0,20.5,7.2,36.2,21.1,46.5c4.2,3,10.9,4.8,18.1,4.8c9.1,0,17.5-2.4,19.9-3c3.6-1.2,10.3-3,22.3-3c10.3,0,17.5,2.4,24.7,4.8
		c6.6,2.4,12.7,4.2,20.5,4.2c18.7,0,38.6-16.9,38.6-44.7C444.6,334.7,432.5,325.7,425.3,320.3L425.3,320.3z"/>
	<path class="st6" d="M304,261.5v-0.6c0-4.8-0.6-22.3-9.7-34.4c-9.1-12.7-25.3-13.3-30.2-13.3c-18.7,0-32,18.7-32,36.2
		c0,40.4,24.1,51.3,36.8,51.3c7.2,0,12.7-1.8,16.9-6c0.6-0.6,1.2-1.2,1.8-1.8c3-3,7.8-8.4,11.5-12.1C304,275.9,304,266.3,304,261.5
		L304,261.5z"/>
	<path class="st6" d="M393.3,159.5c-7.8-6.6-16.3-10.3-25.3-10.3c-4.8,0-9.7,0.6-13.9,2.4c-29.6,11.5-31.4,41.6-31.4,47.7
		c0,10.3,2.4,16.3,4.8,21.7c0.6,1.2,0.6,1.8,1.2,3c1.8,4.8,12.1,11.5,22.3,15.7c6.6,2.4,15.7,3,20.5,3c3.6,0,8.4,0,10.3-0.6
		c26.6-9.1,27.2-42.2,27.2-42.9C408.4,199.3,407.2,171.5,393.3,159.5L393.3,159.5z"/>
	<path class="st6" d="M461.5,205.9c-6,0-20.5,1.2-32.6,13.9c-12.7,12.7-13.3,35.6-13.3,40.4c0,13.9,5.4,19.9,14.5,30.2l1.8,1.8
		c6,6.6,13.3,10.3,20.5,10.3c4.2,0,9.1-1.2,14.5-3.6c7.8-3.6,27.2-15.7,27.2-52.5C494.1,212.6,470.5,205.9,461.5,205.9L461.5,205.9z
		"/>
	<path class="st6" d="M425.3,307.3c-1.2-1.2-2.4-1.8-3-2.4c-6.6-5.4-21.7-24.7-26-32c-4.8-7.8-15.1-16.9-35.6-16.9
		c-19.9,0-27.8,7.2-34.4,16.3c-4.2,4.8-17.5,22.3-22.9,27.2c-0.6,0.6-1.8,1.8-3.6,2.4c-7.2,4.8-20.5,14.5-20.5,34.4
		c0,20.5,7.2,36.2,21.1,46.5c4.2,3,10.9,4.8,18.1,4.8c9.1,0,17.5-2.4,19.9-3c3.6-1.2,10.3-3,22.3-3c10.3,0,17.5,2.4,24.7,4.8
		c6.6,2.4,12.7,4.2,20.5,4.2c18.7,0,38.6-16.9,38.6-44.7C444.6,321.8,432.5,312.8,425.3,307.3L425.3,307.3z"/>
</g>
</svg>
