<?xml version="1.0" encoding="utf-8"?>
<!-- Generator: Adobe Illustrator 21.1.0, SVG Export Plug-In . SVG Version: 6.00 Build 0)  -->
<svg version="1.1" id="Warstwa_1" xmlns="http://www.w3.org/2000/svg" xmlns:xlink="http://www.w3.org/1999/xlink" x="0px" y="0px"
	 viewBox="0 0 792 792" style="enable-background:new 0 0 792 792;" xml:space="preserve">
<style type="text/css">
	.st0{fill:#EAAB11;}
	.st1{fill:#FFFF00;}
	.st2{fill:#00548C;}
	.st3{fill:#0094FF;}
	.st4{fill:#31ACFF;}
	.st5{fill:#004574;}
</style>
<g>
	<path class="st0" d="M653,110.7l-55,215.4c3.6,3.1,7,6.3,10.4,9.6c16.5,16.2,29.5,35.2,39.5,55.9c11.6,24.2,16.7,50.8,17.8,77.5
		c0.2,4.6,0.3,9.2,0.2,13.7c0.6,5.8,1.1,11.6,1.3,17.4c1.6,37.5-4.1,74.6-20.3,108.6c-15,31.5-36.5,58.4-63.9,80
		c-28,22.1-60.2,37.8-94.2,48.3c-36.4,11.3-74.2,17.2-112.2,18.6c-19.3,0.7-38.7-0.4-57.9-2.8c-19.3-2.3-38.4-5.9-57.2-10.6
		c-18.4-4.6-36.5-10.1-54.3-16.7c-16.6-6.1-33-12.8-49-20.3L126,690.4l-1.6-31.1l79.5-223.8c-11.8-13.2-21.6-27.9-29.4-43.8
		c-10.5-21.4-15.2-44.6-15.9-68.3c-0.1-3.9-0.1-7.8-0.1-11.8c-0.8-6.4-1.3-12.9-1.5-19.3c-1-37,5-73.8,21-107.4
		c14.7-30.7,35-57.6,60.9-79.7c26-22.2,55.9-38.6,88.2-49.7c33.2-11.3,67.8-17.3,102.8-18.9c32.6-1.5,65.3,0.1,97.5,5.1
		c31.6,4.8,62.6,13,92.2,25.1l31.7,12.9L653,110.7L653,110.7z"/>
	<path class="st1" d="M320.9,478.2c-7.5-2.7-14.9-5.6-22.2-8.8c-15.6-6.7-30.7-14.5-45.2-23.2c-16.6-9.9-31.8-21.9-45.3-35.7
		c-14.4-14.7-26.1-31.6-35.2-50c-10.5-21.4-15.2-44.6-15.9-68.3c-1-37,5-73.8,21-107.4c14.7-30.7,35-57.6,60.9-79.7
		c26-22.2,55.9-38.6,88.2-49.7c33.2-11.3,67.8-17.3,102.8-18.9c32.6-1.5,65.3,0.1,97.5,5.1c31.6,4.8,62.6,13,92.2,25.1l31.7,12.9
		l-61.3,240c6.4,5.1,12.4,10.4,18.3,16.1c16.5,16.2,29.5,35.2,39.5,55.9c11.6,24.2,16.7,50.8,17.8,77.5
		c1.6,37.5-4.1,74.6-20.3,108.6c-15,31.5-36.5,58.4-63.9,80c-28,22.1-60.2,37.8-94.2,48.3c-36.4,11.3-74.2,17.2-112.2,18.6
		c-19.3,0.7-38.7-0.4-57.9-2.8c-19.3-2.3-38.4-5.9-57.2-10.6c-18.4-4.6-36.5-10.1-54.3-16.7c-16.6-6.1-33-12.8-49-20.3l-32.3-15.1
		l80.2-225.7l37.9,15.1c9.3,3.7,18.4,7.7,27.5,11.8c9.3,4.2,18.9,7.9,28.6,11.1C305.9,474.1,313.4,476.3,320.9,478.2L320.9,478.2z"
		/>
	<path class="st2" d="M374.9,471c-9.3-2.5-18.5-5.1-27.7-7.7c-13.5-3.9-26.8-8.8-39.7-14.4c-14.7-6.3-28.9-13.7-42.6-21.8
		c-14.9-8.9-28.6-19.7-40.8-32.1c-12.7-13-23.1-27.9-31.1-44.2c-9.1-18.4-13-38.6-13.6-59.1c-0.9-33.5,4.4-66.8,18.9-97.1
		c13.3-27.9,31.7-52.2,55.3-72.4c23.9-20.4,51.2-35.4,80.9-45.5c31.2-10.7,63.7-16.3,96.6-17.8c31.1-1.4,62.3,0.1,93.1,4.8
		c29.9,4.6,59.1,12.3,87.1,23.7l13.6,5.5l-50.9,199.2l-18.1-7.7c-16.9-7.2-34-14-51.4-20.1c-16.7-5.8-34.6-9.3-52.1-11.8
		c-7.4-1-15.3-1.3-22.8-1.3c-8.8,0-17.6,1-26.2,2.8c-7,1.5-13.8,4-19.8,8c-1.2,0.8-2,1.6-2.7,2.5c1.3,0.5,2.7,0.9,4,1.2
		c4.6,1.1,9.2,1.9,13.8,2.6c4.3,0.6,8.7,1.2,13,1.8l0.5,0.1l0.5,0.1c11.1,2.3,22.2,4.6,33.2,7.3c4,1,8,1.9,11.4,2.8
		c14.3,3.1,28.3,7.5,41.8,13.2l0.4,0.2c15.9,7.2,31.5,15.1,46.8,23.6c16.9,9.3,32.3,20.8,46,34.3c14.6,14.3,26.2,31.2,35,49.6
		c10.3,21.4,14.7,45.1,15.6,68.7c1.4,33.8-3.5,67.4-18.1,98.1c-13.6,28.4-32.8,52.5-57.6,72.1c-25.9,20.4-55.6,34.8-87,44.5
		c-34.5,10.7-70.3,16.3-106.4,17.6c-18.1,0.7-36.3-0.4-54.4-2.6c-18.4-2.2-36.6-5.6-54.5-10.1c-17.6-4.4-35-9.7-52-16
		c-16-5.9-31.8-12.4-47.3-19.6l-13.9-6.5l65.6-184.7l16.3,6.5c8.9,3.6,17.8,7.5,26.5,11.4c10,4.5,20.3,8.5,30.7,11.9
		c11.3,3.8,22.8,6.9,34.4,9.6c10.5,2.4,21.3,3.7,32,3.2c13.1-0.6,26.9-2.8,39-8c5.3-2.3,7.6-4.6,7.4-10.1c-0.2-2.6-1.6-3.7-3.8-4.9
		C392.3,478.2,383.6,474.4,374.9,471L374.9,471z"/>
	<path class="st3" d="M493,309.1c14.8,6.7,30,14.4,45.6,23c15.6,8.6,29.7,19.2,42.4,31.6c12.7,12.5,23.2,27.4,31.6,44.9
		c8.4,17.5,13,38.2,14,62.1c1.4,34-4.1,64-16.5,90.1C597.6,587,580,609,557.3,627c-22.7,18-49.9,31.8-81.5,41.7
		c-31.6,9.8-65.6,15.4-102,16.9c-16.8,0.5-34-0.4-51.7-2.5c-17.7-2.2-35.2-5.4-52.4-9.7c-17.2-4.3-34-9.5-50.3-15.4
		c-16.3-6-31.6-12.3-46-19l54.6-153.7c7.2,2.9,15.8,6.6,25.9,11.1c10.1,4.5,20.8,8.7,32.3,12.6c11.5,3.8,23.5,7.2,35.9,10.1
		c12.4,2.9,24.7,4.1,36.6,3.6c17.7-1,32.7-4.1,44.9-9.3c12.2-5.3,18.1-14.1,17.6-26.6c-0.5-8.1-4.7-14.4-12.6-18.7
		c-7.9-4.3-17.4-8.6-28.4-12.9c-7.2-1.9-16.6-4.6-28.4-7.9c-11.7-3.4-24.3-7.9-37.7-13.6c-13.4-5.7-26.9-12.7-40.6-20.8
		c-13.6-8.1-26.1-18-37.4-29.4c-11.3-11.5-20.6-24.8-28-39.9c-7.4-15.1-11.4-32.4-11.9-52.1c-1-33.5,4.8-63.3,17.2-89.4
		c12.5-26.1,29.4-48.4,51-66.8c21.5-18.4,46.7-32.6,75.4-42.4c28.7-9.8,59.4-15.4,91.9-16.9c30.2-1.4,60.1,0.1,89.8,4.7
		c29.7,4.6,57.5,12.1,83.3,22.6l-42.4,165.9c-19.2-8.1-36.6-15-52.4-20.5c-15.8-5.5-34.2-9.7-55.3-12.6c-6.2-1-14.6-1.4-25.1-1.4
		c-10.1,0-20,1.1-29.8,3.2c-9.8,2.2-18.3,5.6-25.5,10.4c-7.2,4.8-11,11.5-11.5,20.1c0,3.8,1.8,6.8,5.4,9s7.9,3.8,12.9,5
		c5,1.2,10.2,2.2,15.4,2.9c5.3,0.7,9.6,1.3,12.9,1.8c13.9,2.9,24.8,5.3,32.7,7.2c7.9,1.9,11.9,2.9,11.9,2.9
		C467.6,299.8,480.5,303.9,493,309.1L493,309.1z"/>
	<path class="st4" d="M610,560.9c12.5-26.1,18-56.1,16.5-90.1c-1-23.9-5.6-44.6-14-62.1c-2.8-5.9-5.9-11.6-9.3-16.9
		c-64.3-6-132.5-9.2-203.2-9.2c-54.6,0-107.8,1.9-158.8,5.6c9.9,9.4,20.7,17.6,32.3,24.5c13.6,8.1,27.2,15.1,40.6,20.8
		c13.4,5.7,26,10.3,37.7,13.6c11.7,3.4,21.2,6,28.4,7.9c11,4.3,20.5,8.6,28.4,12.9c7.9,4.3,12.1,10.5,12.6,18.7
		c0.5,12.4-5.4,21.3-17.6,26.6c-12.2,5.3-27.2,8.4-44.9,9.3c-12,0.5-24.2-0.7-36.6-3.6c-12.5-2.9-24.4-6.2-35.9-10.1
		c-11.5-3.8-22.3-8-32.3-12.6c-10.1-4.5-18.7-8.3-25.9-11.1l-54.6,153.7c14.4,6.7,29.7,13,46,19c16.3,6,33,11.1,50.3,15.4
		c17.2,4.3,34.7,7.5,52.4,9.7c17.7,2.2,35,3,51.7,2.5c36.4-1.4,70.4-7.1,102-16.9c31.6-9.8,58.8-23.7,81.5-41.7
		C580,609,597.6,587,610,560.9L610,560.9z"/>
	<path class="st5" d="M205.1,615.7c5.4,1,9,6.3,8,11.7c-1,5.4-6.3,9-11.7,8c-5.4-1-9-6.3-8-11.7
		C194.4,618.2,199.6,614.6,205.1,615.7L205.1,615.7z"/>
	<path class="st2" d="M206,617.2c4.2,0.8,7,4.9,6.2,9.2c-0.8,4.2-4.9,7-9.2,6.2c-4.2-0.8-7-4.9-6.2-9.2
		C197.7,619.1,201.8,616.3,206,617.2L206,617.2z"/>
	<path class="st5" d="M243,507c5.4,1,9,6.3,8,11.7c-1,5.4-6.3,9-11.7,8c-5.4-1-9-6.3-8-11.7C232.3,509.5,237.6,505.9,243,507
		L243,507z"/>
	<path class="st2" d="M243.9,508.5c4.2,0.8,7,4.9,6.2,9.2c-0.8,4.2-4.9,7-9.2,6.2c-4.2-0.8-7-4.9-6.2-9.2
		C235.6,510.4,239.7,507.6,243.9,508.5L243.9,508.5z"/>
	<path class="st5" d="M601.7,509.7c5.4,1,9,6.3,8,11.7s-6.3,9-11.7,8c-5.4-1-9-6.3-8-11.7C591,512.2,596.3,508.6,601.7,509.7
		L601.7,509.7z"/>
	<path class="st2" d="M602.7,511.2c4.2,0.8,7,4.9,6.2,9.2c-0.8,4.2-4.9,7-9.2,6.2c-4.2-0.8-7-4.9-6.2-9.2
		C594.3,513.1,598.4,510.4,602.7,511.2L602.7,511.2z"/>
	<path class="st5" d="M549,230.9c5.4,1,9,6.3,8,11.7s-6.3,9-11.7,8c-5.4-1-9-6.3-8-11.7C538.3,233.4,543.6,229.9,549,230.9
		L549,230.9z"/>
	<path class="st2" d="M550,232.4c4.2,0.8,7,4.9,6.2,9.2c-0.8,4.2-4.9,7-9.2,6.2c-4.2-0.8-7-4.9-6.2-9.2
		C541.6,234.4,545.7,231.6,550,232.4L550,232.4z"/>
	<path class="st5" d="M580.9,107.9c5.4,1,9,6.3,8,11.7c-1,5.4-6.3,9-11.7,8c-5.4-1-9-6.3-8-11.7
		C570.2,110.4,575.5,106.8,580.9,107.9L580.9,107.9z"/>
	<path class="st2" d="M581.9,109.3c4.2,0.8,7,4.9,6.2,9.2c-0.8,4.2-4.9,7-9.2,6.2c-4.2-0.8-7-4.9-6.2-9.2
		C573.5,111.3,577.6,108.5,581.9,109.3L581.9,109.3z"/>
	<path class="st5" d="M224.3,244.5c5.4,1,9,6.3,8,11.7c-1,5.4-6.3,9-11.7,8c-5.4-1-9-6.3-8-11.7C213.6,247,218.9,243.4,224.3,244.5
		L224.3,244.5z"/>
	<path class="st2" d="M225.2,245.9c4.2,0.8,7,4.9,6.2,9.2c-0.8,4.2-4.9,7-9.2,6.2c-4.2-0.8-7-4.9-6.2-9.2
		C216.9,247.9,221,245.1,225.2,245.9L225.2,245.9z"/>
</g>
</svg>
