<?xml version="1.0" encoding="utf-8"?>
<!-- Generator: Adobe Illustrator 21.1.0, SVG Export Plug-In . SVG Version: 6.00 Build 0)  -->
<svg version="1.1" id="Warstwa_1" xmlns="http://www.w3.org/2000/svg" xmlns:xlink="http://www.w3.org/1999/xlink" x="0px" y="0px"
	 viewBox="0 0 792 792" style="enable-background:new 0 0 792 792;" xml:space="preserve">
<style type="text/css">
	.st0{fill:#EAAB11;}
	.st1{fill:#FFFF00;}
	.st2{fill:#00548C;}
	.st3{fill:#0094FF;}
	.st4{fill:#004574;}
	.st5{fill:#31ACFF;}
</style>
<g>
	<polygon class="st0" points="524.1,322.5 524.1,721.5 244.1,756 242.5,725.3 252.4,350.2 161,359.2 159.5,328.5 166.7,75.6 631,36 
		632.5,66.7 605.6,312.9 	"/>
	<polygon class="st1" points="522.5,291.7 522.5,690.8 242.5,725.3 253.2,319.3 159.5,328.5 166.7,75.6 631,36 604.1,282.2 	"/>
	<polygon class="st2" points="500.5,272.1 500.5,671.3 265.3,700.3 275.9,294.9 182.3,304.1 188.2,95.9 606.1,60.3 584,262.4 	"/>
	<polygon class="st3" points="568.9,247.4 483.8,257.3 483.8,656.5 282.4,681.4 293.1,276.4 199.5,285.6 204.4,111.2 587.4,78.6 	
		"/>
	<path class="st4" d="M552.4,221.6c5.4,1,8.9,6.2,7.9,11.6c-1,5.4-6.2,8.9-11.6,7.9c-5.4-1-8.9-6.2-7.9-11.6
		C541.8,224.1,547,220.6,552.4,221.6L552.4,221.6z"/>
	<path class="st2" d="M553.3,223.1c4.2,0.8,6.9,4.9,6.1,9.1c-0.8,4.2-4.9,6.9-9.1,6.1c-4.2-0.8-6.9-4.9-6.1-9.1
		C545,225,549.1,222.3,553.3,223.1L553.3,223.1z"/>
	<path class="st4" d="M564.6,94.3c5.4,1,8.9,6.2,7.9,11.6c-1,5.4-6.2,8.9-11.6,7.9c-5.4-1-8.9-6.2-7.9-11.6
		C554,96.8,559.2,93.2,564.6,94.3L564.6,94.3z"/>
	<path class="st2" d="M565.5,95.7c4.2,0.8,6.9,4.9,6.1,9.1c-0.8,4.2-4.9,6.9-9.1,6.1c-4.2-0.8-6.9-4.9-6.1-9.1
		C557.2,97.7,561.3,94.9,565.5,95.7L565.5,95.7z"/>
	<path class="st4" d="M232.2,123.2c5.4,1,8.9,6.2,7.9,11.6c-1,5.4-6.2,8.9-11.6,7.9c-5.4-1-8.9-6.2-7.9-11.6
		C221.6,125.7,226.8,122.2,232.2,123.2L232.2,123.2z"/>
	<path class="st2" d="M233.1,124.7c4.2,0.8,6.9,4.9,6.1,9.1c-0.8,4.2-4.9,6.9-9.1,6.1c-4.2-0.8-6.9-4.9-6.1-9.1
		C224.9,126.6,228.9,123.9,233.1,124.7L233.1,124.7z"/>
	<path class="st4" d="M227.1,254.2c5.4,1,8.9,6.2,7.9,11.6c-1,5.4-6.2,8.9-11.6,7.9c-5.4-1-8.9-6.2-7.9-11.6
		C216.6,256.7,221.8,253.1,227.1,254.2L227.1,254.2z"/>
	<path class="st2" d="M228.1,255.6c4.2,0.8,6.9,4.9,6.1,9.1c-0.8,4.2-4.9,6.9-9.1,6.1c-4.2-0.8-6.9-4.9-6.1-9.1
		C219.8,257.6,223.9,254.8,228.1,255.6L228.1,255.6z"/>
	<path class="st5" d="M483.8,656.5V384.7c-29.6-1.2-59.8-1.8-90.4-1.8c-35.1,0-69.5,0.8-103.2,2.4l-7.8,296.1L483.8,656.5
		L483.8,656.5z"/>
	<path class="st4" d="M465.1,629.3c5.4,1,8.9,6.2,7.9,11.6c-1,5.4-6.2,8.9-11.6,7.9c-5.4-1-8.9-6.2-7.9-11.6
		C454.5,631.8,459.7,628.3,465.1,629.3L465.1,629.3z"/>
	<path class="st2" d="M466,630.8c4.2,0.8,6.9,4.9,6.1,9.1c-0.8,4.2-4.9,6.9-9.1,6.1c-4.2-0.8-6.9-4.9-6.1-9.1
		C457.8,632.8,461.8,630,466,630.8L466,630.8z"/>
	<path class="st4" d="M305.2,650.7c5.4,1,8.9,6.2,7.9,11.6c-1,5.4-6.2,8.9-11.6,7.9c-5.4-1-8.9-6.2-7.9-11.6
		C294.6,653.2,299.8,649.7,305.2,650.7L305.2,650.7z"/>
	<path class="st2" d="M306.1,652.2c4.2,0.8,6.9,4.9,6.1,9.1c-0.8,4.2-4.9,6.9-9.1,6.1c-4.2-0.8-6.9-4.9-6.1-9.1
		C297.9,654.2,301.9,651.4,306.1,652.2L306.1,652.2z"/>
</g>
</svg>
