<?xml version="1.0" encoding="utf-8"?>
<!-- Generator: Adobe Illustrator 21.1.0, SVG Export Plug-In . SVG Version: 6.00 Build 0)  -->
<svg version="1.1" id="Warstwa_1" xmlns="http://www.w3.org/2000/svg" xmlns:xlink="http://www.w3.org/1999/xlink" x="0px" y="0px"
	 viewBox="0 0 792 792" style="enable-background:new 0 0 792 792;" xml:space="preserve">
<style type="text/css">
	.st0{fill:#EAAB11;}
	.st1{fill:#FFFF00;}
	.st2{fill:#00548C;}
	.st3{fill:#0094FF;}
	.st4{fill:#004574;}
	.st5{fill:#31ACFF;}
</style>
<g>
	<path class="st0" d="M426.2,100.9L642.4,61l1.2,30.6l0.3-0.1l1.7,44.3c2.3,57.9,4.4,115.8,6,173.7c0.9,33.6,1.8,67.3,2.5,100.9
		c0.3,15.7,0.7,31.5,0.7,47.2c0,3.6-0.1,7.1,0,10.7c0.4,30-1.6,60.1-6.9,89.7c-5.3,29.6-15.2,58-30.3,84
		c-15.5,26.6-36.5,48.9-61.6,66.8c-28.2,20.2-61.1,32-95,38.5c-46,8.8-95.1,12.5-141.3,2.7c-38.9-8.3-75.1-24.5-104.7-51.4
		c-28.6-26-48.4-58.4-60.4-95.1c-10.8-33.2-15.7-68-16.1-102.5c-1.4-14.8-1.8-29.7-1.4-44.4v-7c0-10.3,0.4-20.5,0.7-30.8
		c0.7-20.9,1-41.9,1.4-62.8c0.6-36.6,1.7-73.1,2.8-109.6c1.7-55.4,3.3-110.7,4.9-166.1l1.3-44.4l278.8,48.7L426.2,100.9L426.2,100.9
		z"/>
	<path class="st1" d="M426.2,100.9L642.4,61l1.7,44.3c2.3,57.9,4.4,115.8,6,173.7c0.9,33.6,1.8,67.3,2.5,100.9
		c0.3,15.7,0.7,31.5,0.7,47.2c0,3.6-0.1,7.1,0,10.7c0.4,30-1.6,60.1-6.9,89.7c-5.3,29.6-15.2,58-30.3,84
		c-15.5,26.6-36.5,48.9-61.6,66.8c-28.2,20.2-61.1,32-95,38.5c-46,8.8-95.1,12.5-141.3,2.7c-38.9-8.3-75.1-24.5-104.8-51.4
		c-28.6-26-48.4-58.4-60.4-95.1c-12.3-37.7-16.9-77.4-16-116.5c0-2.3,0-4.7,0-7c0-10.3,0.4-20.5,0.7-30.8c0.7-20.9,1-41.9,1.4-62.8
		c0.6-36.6,1.7-73.1,2.8-109.6c1.7-55.4,3.3-110.7,4.9-166.1l1.3-44.4l278.8,48.7L426.2,100.9L426.2,100.9z"/>
	<path class="st2" d="M402.8,127.5l218.8-40.4l0.7,19.1c2.3,57.8,4.4,115.6,6,173.4c0.9,33.6,1.8,67.2,2.5,100.8
		c0.3,15.6,0.7,31.2,0.7,46.8c0,3.7,0,7.5,0,11c0.5,28.7-1.6,57.3-6.6,85.5c-4.8,27.1-13.8,53.1-27.7,76.9c-14,24-32.8,43.9-55.4,60
		c-25.6,18.3-55.7,28.9-86.4,34.8c-42.9,8.2-89.5,11.9-132.6,2.7c-35.1-7.5-67.8-21.9-94.6-46.2c-25.8-23.4-43.5-52.6-54.2-85.6
		c-11.6-35.5-15.8-72.8-14.9-109.7c0-2.3,0-4.7,0-7c0-10,0.4-20.1,0.7-30.1c0.7-21,1-42.1,1.4-63.1c0.6-36.4,1.7-72.9,2.8-109.3
		c1.7-55.4,3.3-110.7,4.9-166.1l0.5-19.1l234.7,41L402.8,127.5L402.8,127.5z M396.1,499.5c2.3-2.3,5.1-6.7,6.2-8.5l0.4-0.7
		c1-1.9,1.9-4.1,2.7-6c2.9-6.6,4.7-17.6,5.9-24.7c2.6-15,2.7-31.1,1.9-46.3l-13.1-238.9l-15.2,275l-0.1,0.8
		c-1.3,8.5-1.8,17.8,0.1,26.2c1,4.6,2.7,11.9,5,16c0.8,1.5,1.7,3.1,2.6,4.6C393.7,498,394.8,498.9,396.1,499.5L396.1,499.5z"/>
	<path class="st3" d="M605.8,106.9c2.8,71.8,4.8,129.5,6,173.2c1.2,43.6,2,77.2,2.5,100.7c0.5,23.5,0.7,39,0.7,46.5
		c0,7.5,0,11.3,0,11.3c0.5,28.6-1.6,56.1-6.3,82.4c-4.7,26.3-13.3,50.1-25.7,71.5c-12.4,21.4-29.3,39.7-50.7,54.9
		c-21.4,15.3-48,25.9-79.9,32c-48.8,9.4-90.8,10.3-126,2.8c-35.2-7.5-64.2-21.6-86.9-42.2c-22.8-20.7-39.3-46.8-49.6-78.5
		c-10.3-31.7-15-66.5-14.1-104.5c0-0.5,0-2.8,0-7c0-4.7,0.2-14.6,0.7-29.6c0.5-15,0.9-36.1,1.4-63.4c0.5-27.2,1.4-63.6,2.8-109.1
		c1.4-45.5,3.1-100.9,4.9-166.2l201.4,35.2l-18.3,330.9c-1.9,12.2-1.8,23,0.4,32.4c2.1,9.4,4.3,16.2,6.7,20.4c2.3,4.2,3.8,6.6,4.2,7
		c4.7,5.2,10.1,8.2,16.2,9.2c6.1,0.9,12.9-4.7,20.4-16.9c0.5-0.5,1.9-3.4,4.2-8.8c2.3-5.4,4.7-14.9,7-28.5c2.3-13.6,3-30.3,2.1-50
		L415,142.1L605.8,106.9L605.8,106.9z"/>
	<path class="st4" d="M589.4,120.3c5.3,1,8.8,6.2,7.8,11.5c-1,5.3-6.2,8.8-11.5,7.8c-5.3-1-8.8-6.2-7.8-11.5
		C578.9,122.7,584.1,119.3,589.4,120.3L589.4,120.3z"/>
	<path class="st2" d="M590.3,121.7c4.2,0.8,6.9,4.8,6.1,9c-0.8,4.2-4.8,6.9-9,6.1c-4.2-0.8-6.9-4.8-6.1-9
		C582.1,123.7,586.2,120.9,590.3,121.7L590.3,121.7z"/>
	<path class="st4" d="M438.8,148.4c5.3,1,8.8,6.2,7.8,11.5c-1,5.3-6.2,8.8-11.5,7.8c-5.3-1-8.8-6.2-7.8-11.5
		C428.3,150.9,433.5,147.4,438.8,148.4L438.8,148.4z"/>
	<path class="st2" d="M439.7,149.9c4.2,0.8,6.9,4.8,6.1,9c-0.8,4.2-4.8,6.9-9,6.1c-4.2-0.8-6.9-4.8-6.1-9
		C431.5,151.8,435.6,149.1,439.7,149.9L439.7,149.9z"/>
	<path class="st4" d="M367.6,124.7c5.3,1,8.8,6.2,7.8,11.5c-1,5.3-6.2,8.8-11.5,7.8c-5.3-1-8.8-6.2-7.8-11.5
		C357.1,127.1,362.2,123.6,367.6,124.7L367.6,124.7z"/>
	<path class="st2" d="M368.5,126.1c4.2,0.8,6.9,4.8,6.1,9c-0.8,4.2-4.8,6.9-9,6.1c-4.2-0.8-6.9-4.8-6.1-9
		C360.3,128,364.3,125.3,368.5,126.1L368.5,126.1z"/>
	<path class="st4" d="M207,93.4c5.3,1,8.8,6.2,7.8,11.5c-1,5.3-6.2,8.8-11.5,7.8c-5.3-1-8.8-6.2-7.8-11.5
		C196.5,95.9,201.6,92.4,207,93.4L207,93.4z"/>
	<path class="st2" d="M207.9,94.9c4.2,0.8,6.9,4.8,6.1,9c-0.8,4.2-4.8,6.9-9,6.1c-4.2-0.8-6.9-4.8-6.1-9
		C199.7,96.8,203.7,94.1,207.9,94.9L207.9,94.9z"/>
	<path class="st5" d="M396,516.6c-6.1-0.9-11.5-4-16.2-9.2c-0.5-0.5-1.9-2.8-4.2-7c-2.3-4.2-4.6-11-6.7-20.4
		c-2.1-9.4-2.2-20.2-0.4-32.4l3.6-64.7c-68,0.7-133.5,4.4-195.1,10.8c-0.2,10.3-0.5,19.1-0.7,26.5c-0.5,15-0.7,24.9-0.7,29.6v7
		c-0.9,38,3.8,72.9,14.1,104.5c10.3,31.7,26.9,57.8,49.6,78.5c22.8,20.6,51.7,34.7,86.9,42.2c35.2,7.5,77.2,6.6,126-2.8
		c31.9-6.1,58.6-16.8,79.9-32c21.4-15.3,38.3-33.6,50.7-54.9c12.4-21.4,21-45.2,25.7-71.5s6.8-53.7,6.3-82.4v-11.3
		c0-6-0.2-17.2-0.5-33.4c-58.9-6.1-121.4-9.8-186.3-10.8l1.6,29.4c0.9,19.7,0.2,36.4-2.1,50c-2.3,13.6-4.7,23.1-7,28.5
		c-2.3,5.4-3.8,8.3-4.2,8.8C408.9,511.9,402.1,517.5,396,516.6L396,516.6z"/>
	<path class="st4" d="M393.2,657.7c5.3,1,8.8,6.2,7.8,11.5c-1,5.3-6.2,8.8-11.5,7.8c-5.3-1-8.8-6.2-7.8-11.5
		C382.7,660.2,387.9,656.7,393.2,657.7L393.2,657.7z"/>
	<path class="st2" d="M394.1,659.2c4.2,0.8,6.9,4.8,6.1,9c-0.8,4.2-4.8,6.9-9,6.1s-6.9-4.8-6.1-9C385.9,661.1,390,658.4,394.1,659.2
		L394.1,659.2z"/>
</g>
</svg>
