<?xml version="1.0" encoding="utf-8"?>
<!-- Generator: Adobe Illustrator 21.1.0, SVG Export Plug-In . SVG Version: 6.00 Build 0)  -->
<svg version="1.1" id="Warstwa_1" xmlns="http://www.w3.org/2000/svg" xmlns:xlink="http://www.w3.org/1999/xlink" x="0px" y="0px"
	 viewBox="0 0 792 792" style="enable-background:new 0 0 792 792;" xml:space="preserve">
<style type="text/css">
	.st0{fill:#EAAB11;}
	.st1{fill:#FFFF00;}
	.st2{fill:#00548C;}
	.st3{fill:#0094FF;}
	.st4{fill:#004574;}
	.st5{fill:#31ACFF;}
</style>
<g>
	<polygon class="st0" points="492.3,42.6 711.4,169.3 712.8,196.7 386.8,756 80.6,206.7 79.2,179.4 322.4,36 401.5,225.3 	"/>
	<polygon class="st1" points="401.5,225.3 492.3,42.6 711.4,169.3 385.5,728.6 79.2,179.4 322.4,36 	"/>
	<polygon class="st2" points="399.9,272.6 500.6,70.1 684.5,176.5 385.8,688.9 105.7,186.6 313,64.4 	"/>
	<polygon class="st3" points="305.9,85.8 398.8,308.3 506.8,90.9 664.2,181.9 386.1,659 125.8,192 	"/>
	<path class="st4" d="M151.4,189.2c4.8,0.9,7.9,5.6,7,10.3c-0.9,4.8-5.6,7.9-10.3,7c-4.8-0.9-7.9-5.6-7-10.3
		C142,191.4,146.6,188.3,151.4,189.2L151.4,189.2z"/>
	<path class="st2" d="M152.2,190.5c3.7,0.7,6.2,4.3,5.5,8.1c-0.7,3.7-4.3,6.2-8.1,5.5c-3.7-0.7-6.2-4.3-5.5-8.1
		C144.8,192.2,148.5,189.8,152.2,190.5L152.2,190.5z"/>
	<path class="st4" d="M300.6,102.8c4.8,0.9,7.9,5.6,7,10.3c-0.9,4.8-5.6,7.9-10.3,7c-4.8-0.9-7.9-5.6-7-10.3
		C291.2,105,295.8,101.9,300.6,102.8L300.6,102.8z"/>
	<path class="st2" d="M301.4,104.1c3.7,0.7,6.2,4.3,5.5,8.1c-0.7,3.7-4.3,6.2-8.1,5.5c-3.7-0.7-6.2-4.3-5.5-8.1
		C294.1,105.8,297.7,103.4,301.4,104.1L301.4,104.1z"/>
	<path class="st4" d="M517.1,107.9c4.8,0.9,7.9,5.6,7,10.3c-0.9,4.8-5.6,7.9-10.3,7c-4.8-0.9-7.9-5.6-7-10.3
		C507.7,110.1,512.3,106.9,517.1,107.9L517.1,107.9z"/>
	<path class="st2" d="M517.9,109.2c3.7,0.7,6.2,4.3,5.5,8.1c-0.7,3.7-4.3,6.2-8.1,5.5c-3.7-0.7-6.2-4.3-5.5-8.1
		C510.6,110.9,514.2,108.4,517.9,109.2L517.9,109.2z"/>
	<path class="st4" d="M645.6,179.1c4.8,0.9,7.9,5.6,7,10.3c-0.9,4.8-5.6,7.9-10.3,7c-4.8-0.9-7.9-5.6-7-10.3
		C636.1,181.3,640.8,178.2,645.6,179.1L645.6,179.1z"/>
	<path class="st2" d="M646.4,180.4c3.7,0.7,6.2,4.3,5.5,8.1c-0.7,3.7-4.3,6.2-8.1,5.5c-3.7-0.7-6.2-4.3-5.5-8.1
		C639,182.1,642.6,179.7,646.4,180.4L646.4,180.4z"/>
	<path class="st5" d="M557.5,364.9c-51.8-4.3-106.3-6.7-162.5-6.7c-59.8,0-117.7,2.6-172.3,7.5L386.1,659L557.5,364.9L557.5,364.9z"
		/>
	<path class="st4" d="M388.7,610.2c4.8,0.9,7.9,5.6,7,10.3c-0.9,4.8-5.6,7.9-10.3,7c-4.8-0.9-7.9-5.6-7-10.3
		C379.2,612.4,383.9,609.2,388.7,610.2L388.7,610.2z"/>
	<path class="st2" d="M389.5,611.5c3.7,0.7,6.2,4.3,5.5,8.1c-0.7,3.7-4.3,6.2-8.1,5.5c-3.7-0.7-6.2-4.3-5.5-8.1
		C382.1,613.2,385.7,610.8,389.5,611.5L389.5,611.5z"/>
</g>
</svg>
