<?xml version="1.0" encoding="utf-8"?>
<!-- Generator: Adobe Illustrator 21.1.0, SVG Export Plug-In . SVG Version: 6.00 Build 0)  -->
<svg version="1.1" id="Warstwa_1" xmlns="http://www.w3.org/2000/svg" xmlns:xlink="http://www.w3.org/1999/xlink" x="0px" y="0px"
	 viewBox="0 0 792 792" style="enable-background:new 0 0 792 792;" xml:space="preserve">
<style type="text/css">
	.st0{fill:#EAAB11;}
	.st1{fill:#FFFF00;}
	.st2{fill:#00548C;}
	.st3{fill:#0094FF;}
	.st4{fill:#004574;}
	.st5{fill:#31ACFF;}
</style>
<g>
	<polygon class="st0" points="415.8,83.1 496.1,222.5 558.7,36 751,174 752.3,199.8 579.9,710.6 420.3,547.2 254.7,756 41,194.7 
		39.7,168.9 263.1,72 316.2,236 	"/>
	<polygon class="st1" points="316.2,236 415.8,83.1 496.1,222.5 558.7,36 751,174 578.6,684.8 419,521.4 253.4,730.2 39.7,168.9 
		263.1,72 	"/>
	<polygon class="st2" points="310.6,278.6 414.8,118.5 500.6,267.4 568.3,65.7 729,181 570.7,650.2 417.6,493.4 259.1,693.2 
		63.3,178.9 251.7,97.1 	"/>
	<polygon class="st3" points="81.2,186.4 243.2,116.1 306.3,310.8 414.1,145.3 504,301.3 575.5,88.1 712.5,186.4 564.8,624.1 
		416.5,472.2 263.4,665.2 	"/>
	<path class="st4" d="M694.9,185.7c4.5,0.9,7.5,5.2,6.6,9.7c-0.9,4.5-5.2,7.5-9.7,6.6c-4.5-0.9-7.5-5.2-6.6-9.7
		C686,187.7,690.4,184.8,694.9,185.7L694.9,185.7z"/>
	<path class="st2" d="M695.6,186.9c3.5,0.7,5.8,4.1,5.2,7.6c-0.7,3.5-4.1,5.8-7.6,5.2c-3.5-0.7-5.8-4.1-5.2-7.6
		C688.7,188.5,692.1,186.2,695.6,186.9L695.6,186.9z"/>
	<path class="st4" d="M585.3,108.2c4.5,0.9,7.5,5.2,6.6,9.7c-0.9,4.5-5.2,7.5-9.7,6.6c-4.5-0.9-7.5-5.2-6.6-9.7
		C576.5,110.3,580.8,107.4,585.3,108.2L585.3,108.2z"/>
	<path class="st2" d="M586.1,109.5c3.5,0.7,5.8,4.1,5.2,7.6c-0.7,3.5-4.1,5.8-7.6,5.2c-3.5-0.7-5.8-4.1-5.2-7.6
		C579.2,111.1,582.6,108.8,586.1,109.5L586.1,109.5z"/>
	<path class="st4" d="M416.2,165.9c4.5,0.9,7.5,5.2,6.6,9.7c-0.9,4.5-5.2,7.5-9.7,6.6c-4.5-0.9-7.5-5.2-6.6-9.7
		C407.3,168,411.7,165,416.2,165.9L416.2,165.9z"/>
	<path class="st2" d="M416.9,167.1c3.5,0.7,5.8,4.1,5.2,7.6c-0.7,3.5-4.1,5.8-7.6,5.2c-3.5-0.7-5.8-4.1-5.2-7.6
		C410,168.7,413.4,166.4,416.9,167.1L416.9,167.1z"/>
	<path class="st4" d="M235.9,131c4.5,0.9,7.5,5.2,6.6,9.7s-5.2,7.5-9.7,6.6c-4.5-0.9-7.5-5.2-6.6-9.7
		C227,133.1,231.4,130.1,235.9,131L235.9,131z"/>
	<path class="st2" d="M236.7,132.2c3.5,0.7,5.8,4.1,5.2,7.6c-0.7,3.5-4.1,5.8-7.6,5.2c-3.5-0.7-5.8-4.1-5.2-7.6
		C229.7,133.8,233.1,131.5,236.7,132.2L236.7,132.2z"/>
	<path class="st4" d="M100.5,186c4.5,0.9,7.5,5.2,6.6,9.7c-0.9,4.5-5.2,7.5-9.7,6.6c-4.5-0.9-7.5-5.2-6.6-9.7
		C91.7,188,96,185.1,100.5,186L100.5,186z"/>
	<path class="st2" d="M101.3,187.2c3.5,0.7,5.8,4.1,5.2,7.6c-0.7,3.5-4.1,5.8-7.6,5.2c-3.5-0.7-5.8-4.1-5.2-7.6
		C94.4,188.8,97.8,186.5,101.3,187.2L101.3,187.2z"/>
	<path class="st5" d="M153.5,376.4l109.9,288.8l153.1-193l148.3,151.9L648,377.6C572,366.3,486.8,360,396.8,360
		C309.9,360,227.5,365.9,153.5,376.4L153.5,376.4z"/>
	<path class="st4" d="M269.2,621c4.5,0.9,7.5,5.2,6.6,9.7c-0.9,4.5-5.2,7.5-9.7,6.6c-4.5-0.9-7.5-5.2-6.6-9.7
		C260.3,623.1,264.7,620.2,269.2,621L269.2,621z"/>
	<path class="st2" d="M270,622.3c3.5,0.7,5.8,4.1,5.2,7.6c-0.7,3.5-4.1,5.8-7.6,5.2c-3.5-0.7-5.8-4.1-5.2-7.6
		C263,623.9,266.5,621.6,270,622.3L270,622.3z"/>
	<path class="st4" d="M560,585.1c4.5,0.9,7.5,5.2,6.6,9.7c-0.9,4.5-5.2,7.5-9.7,6.6c-4.5-0.9-7.5-5.2-6.6-9.7S555.5,584.2,560,585.1
		L560,585.1z"/>
	<path class="st2" d="M560.7,586.3c3.5,0.7,5.8,4.1,5.2,7.6c-0.7,3.5-4.1,5.8-7.6,5.2c-3.5-0.7-5.8-4.1-5.2-7.6
		C553.8,588,557.2,585.7,560.7,586.3L560.7,586.3z"/>
</g>
</svg>
