<?xml version="1.0" encoding="utf-8"?>
<!-- Generator: Adobe Illustrator 21.1.0, SVG Export Plug-In . SVG Version: 6.00 Build 0)  -->
<svg version="1.1" id="Warstwa_1" xmlns="http://www.w3.org/2000/svg" xmlns:xlink="http://www.w3.org/1999/xlink" x="0px" y="0px"
	 viewBox="0 0 792 792" style="enable-background:new 0 0 792 792;" xml:space="preserve">
<style type="text/css">
	.st0{fill:#EAAB11;}
	.st1{fill:#FFFF00;}
	.st2{fill:#00548C;}
	.st3{fill:#0094FF;}
	.st4{fill:#004574;}
	.st5{fill:#31ACFF;}
</style>
<g>
	<polygon class="st0" points="517.5,36 727.3,193.3 728.8,222.4 579.2,377.6 726.2,527.7 727.6,556.7 546.8,750.8 400.5,567.2 
		283.6,756 69.5,576.6 68,547.6 212,385.9 64.7,221.6 63.2,192.5 270.3,36.5 397.2,166.7 	"/>
	<polygon class="st1" points="397.2,166.7 517.5,36 727.3,193.3 564.4,362.5 726.2,527.7 545.3,721.8 399.1,538.1 282.2,727 
		68,547.6 224.2,372.2 63.2,192.5 270.3,36.5 	"/>
	<polygon class="st2" points="397.7,197 520.1,64 695.9,195.9 535.3,362.6 697.3,528 546.6,689.8 396.9,502 277.1,695.5 97.9,545.4 
		252.2,372.1 93.9,195.5 268.2,64.2 	"/>
	<polygon class="st3" points="266.6,85.1 398,219.9 522,85.1 672.2,197.8 513.3,362.7 675.6,528.3 547.5,665.7 395.3,474.7 
		273.3,671.8 120.4,543.7 273.3,372.1 117.1,197.8 	"/>
	<path class="st4" d="M146.1,190.4c5.1,1,8.4,5.9,7.4,11c-1,5.1-5.9,8.4-11,7.4c-5.1-1-8.4-5.9-7.4-11
		C136.1,192.7,141,189.4,146.1,190.4L146.1,190.4z"/>
	<path class="st2" d="M146.9,191.8c4,0.8,6.6,4.6,5.8,8.6c-0.8,4-4.6,6.6-8.6,5.8c-4-0.8-6.6-4.6-5.8-8.6
		C139.1,193.6,143,191,146.9,191.8L146.9,191.8z"/>
	<path class="st4" d="M266.9,105.3c5.1,1,8.4,5.9,7.4,11c-1,5.1-5.9,8.4-11,7.4c-5.1-1-8.4-5.9-7.4-11
		C256.9,107.6,261.8,104.3,266.9,105.3L266.9,105.3z"/>
	<path class="st2" d="M267.8,106.7c4,0.8,6.6,4.6,5.8,8.6c-0.8,4-4.6,6.6-8.6,5.8c-4-0.8-6.6-4.6-5.8-8.6
		C260,108.5,263.8,105.9,267.8,106.7L267.8,106.7z"/>
	<path class="st4" d="M526.4,102.3c5.1,1,8.4,5.9,7.4,11s-5.9,8.4-11,7.4c-5.1-1-8.4-5.9-7.4-11
		C516.4,104.7,521.3,101.3,526.4,102.3L526.4,102.3z"/>
	<path class="st2" d="M527.2,103.7c4,0.8,6.6,4.6,5.8,8.6c-0.8,4-4.6,6.6-8.6,5.8c-4-0.8-6.6-4.6-5.8-8.6
		C519.4,105.5,523.3,102.9,527.2,103.7L527.2,103.7z"/>
	<path class="st4" d="M649.6,191c5.1,1,8.4,5.9,7.4,11c-1,5.1-5.9,8.4-11,7.4c-5.1-1-8.4-5.9-7.4-11
		C639.6,193.3,644.5,190,649.6,191L649.6,191z"/>
	<path class="st2" d="M650.4,192.4c4,0.8,6.6,4.6,5.8,8.6c-0.8,4-4.6,6.6-8.6,5.8c-4-0.8-6.6-4.6-5.8-8.6
		C642.6,194.2,646.5,191.6,650.4,192.4L650.4,192.4z"/>
	<path class="st5" d="M120.4,543.7l152.9,128.1l122-197.1l152.2,191.1l128.1-137.4L513.3,362.7l5-5.2c-39.5-2.3-80.3-3.5-122-3.5
		c-46.4,0-91.7,1.5-135.4,4.3l12.4,13.8L120.4,543.7L120.4,543.7z"/>
	<path class="st4" d="M550.2,631.4c5.1,1,8.4,5.9,7.4,11c-1,5.1-5.9,8.4-11,7.4c-5.1-1-8.4-5.9-7.4-11
		C540.2,633.7,545.1,630.4,550.2,631.4L550.2,631.4z"/>
	<path class="st2" d="M551,632.8c4,0.8,6.6,4.6,5.8,8.6c-0.8,4-4.6,6.6-8.6,5.8c-4-0.8-6.6-4.6-5.8-8.6
		C543.2,634.6,547.1,632,551,632.8L551,632.8z"/>
	<path class="st4" d="M650.2,521.3c5.1,1,8.4,5.9,7.4,11c-1,5.1-5.9,8.4-11,7.4c-5.1-1-8.4-5.9-7.4-11
		C640.2,523.6,645.1,520.3,650.2,521.3L650.2,521.3z"/>
	<path class="st2" d="M651,522.7c4,0.8,6.6,4.6,5.8,8.6c-0.8,4-4.6,6.6-8.6,5.8c-4-0.8-6.6-4.6-5.8-8.6
		C643.2,524.5,647.1,521.9,651,522.7L651,522.7z"/>
	<path class="st4" d="M269.3,633.2c5.1,1,8.4,5.9,7.4,11c-1,5.1-5.9,8.4-11,7.4c-5.1-1-8.4-5.9-7.4-11
		C259.3,635.5,264.2,632.2,269.3,633.2L269.3,633.2z"/>
	<path class="st2" d="M270.1,634.6c4,0.8,6.6,4.6,5.8,8.6c-0.8,4-4.6,6.6-8.6,5.8c-4-0.8-6.6-4.6-5.8-8.6
		C262.3,636.4,266.2,633.8,270.1,634.6L270.1,634.6z"/>
	<path class="st4" d="M148,532.8c5.1,1,8.4,5.9,7.4,11c-1,5.1-5.9,8.4-11,7.4c-5.1-1-8.4-5.9-7.4-11C138,535.2,143,531.8,148,532.8
		L148,532.8z"/>
	<path class="st2" d="M148.9,534.2c4,0.8,6.6,4.6,5.8,8.6c-0.8,4-4.6,6.6-8.6,5.8s-6.6-4.6-5.8-8.6
		C141.1,536,144.9,533.4,148.9,534.2L148.9,534.2z"/>
</g>
</svg>
