<?xml version="1.0" encoding="utf-8"?>
<!-- Generator: Adobe Illustrator 21.1.0, SVG Export Plug-In . SVG Version: 6.00 Build 0)  -->
<svg version="1.1" id="Warstwa_1" xmlns="http://www.w3.org/2000/svg" xmlns:xlink="http://www.w3.org/1999/xlink" x="0px" y="0px"
	 viewBox="0 0 792 792" style="enable-background:new 0 0 792 792;" xml:space="preserve">
<style type="text/css">
	.st0{fill:#EAAB11;}
	.st1{fill:#FFFF00;}
	.st2{fill:#00548C;}
	.st3{fill:#0094FF;}
	.st4{fill:#004574;}
	.st5{fill:#31ACFF;}
</style>
<g>
	<polygon class="st0" points="502.1,38.9 736.8,199.9 738.3,230 509.4,525.6 507,756 244.5,720.9 243,690.8 243,493.4 55.2,231.1 
		53.7,200.9 264.8,36 379.6,216.3 	"/>
	<polygon class="st1" points="379.6,216.3 502.1,38.9 736.8,199.9 507.9,495.5 505.5,725.9 243,690.8 243,465.3 53.7,200.9 
		264.8,36 	"/>
	<polygon class="st2" points="378.9,255.4 507.6,69 705.6,204.8 486.4,488 484.1,701.2 264.7,671.8 264.7,458.4 83.4,205.2 
		259.4,67.7 	"/>
	<polygon class="st3" points="255.3,91.6 378.3,284.9 511.8,91.6 682.1,208.4 470.1,482.4 468,682.6 281,657.6 281,453.2 
		105.8,208.4 	"/>
	<path class="st4" d="M655.6,204.3c5.3,1,8.7,6.1,7.7,11.4c-1,5.3-6.1,8.7-11.4,7.7c-5.3-1-8.7-6.1-7.7-11.4
		C645.2,206.8,650.3,203.3,655.6,204.3L655.6,204.3z"/>
	<path class="st2" d="M656.5,205.8c4.1,0.8,6.8,4.8,6,8.9c-0.8,4.1-4.8,6.8-8.9,6c-4.1-0.8-6.8-4.8-6-8.9
		C648.4,207.7,652.4,205,656.5,205.8L656.5,205.8z"/>
	<path class="st4" d="M520.9,115.2c5.3,1,8.7,6.1,7.7,11.4c-1,5.3-6.1,8.7-11.4,7.7c-5.3-1-8.7-6.1-7.7-11.4
		C510.6,117.7,515.7,114.2,520.9,115.2L520.9,115.2z"/>
	<path class="st2" d="M521.8,116.7c4.1,0.8,6.8,4.8,6,8.9c-0.8,4.1-4.8,6.8-8.9,6c-4.1-0.8-6.8-4.8-6-8.9
		C513.7,118.6,517.7,115.9,521.8,116.7L521.8,116.7z"/>
	<path class="st4" d="M253.1,111.5c5.3,1,8.7,6.1,7.7,11.4c-1,5.3-6.1,8.7-11.4,7.7c-5.3-1-8.7-6.1-7.7-11.4
		C242.7,113.9,247.8,110.5,253.1,111.5L253.1,111.5z"/>
	<path class="st2" d="M254,113c4.1,0.8,6.8,4.8,6,8.9c-0.8,4.1-4.8,6.8-8.9,6c-4.1-0.8-6.8-4.8-6-8.9
		C245.9,114.9,249.9,112.2,254,113L254,113z"/>
	<path class="st4" d="M134.8,202.3c5.3,1,8.7,6.1,7.7,11.4c-1,5.3-6.1,8.7-11.4,7.7c-5.3-1-8.7-6.1-7.7-11.4
		C124.4,204.8,129.5,201.3,134.8,202.3L134.8,202.3z"/>
	<path class="st2" d="M135.7,203.8c4.1,0.8,6.8,4.8,6,8.9c-0.8,4.1-4.8,6.8-8.9,6c-4.1-0.8-6.8-4.8-6-8.9
		C127.6,205.7,131.6,203,135.7,203.8L135.7,203.8z"/>
	<path class="st5" d="M281,453.2v204.4l187,25l2.1-200.2l95-122.7c-54.7-4.4-112-6.7-171.1-6.7c-62.1,0-122.3,2.6-179.5,7.4
		L281,453.2L281,453.2z"/>
	<path class="st4" d="M446.9,648.4c5.3,1,8.7,6.1,7.7,11.4c-1,5.3-6.1,8.7-11.4,7.7c-5.3-1-8.7-6.1-7.7-11.4
		C436.5,650.8,441.6,647.4,446.9,648.4L446.9,648.4z"/>
	<path class="st2" d="M447.8,649.9c4.1,0.8,6.8,4.8,6,8.9c-0.8,4.1-4.8,6.8-8.9,6c-4.1-0.8-6.8-4.8-6-8.9
		C439.7,651.8,443.7,649.1,447.8,649.9L447.8,649.9z"/>
	<path class="st4" d="M307.2,628.8c5.3,1,8.7,6.1,7.7,11.4c-1,5.3-6.1,8.7-11.4,7.7c-5.3-1-8.7-6.1-7.7-11.4
		C296.8,631.2,301.9,627.7,307.2,628.8L307.2,628.8z"/>
	<path class="st2" d="M308.1,630.2c4.1,0.8,6.8,4.8,6,8.9c-0.8,4.1-4.8,6.8-8.9,6c-4.1-0.8-6.8-4.8-6-8.9
		C300,632.1,303.9,629.4,308.1,630.2L308.1,630.2z"/>
</g>
</svg>
