<?xml version="1.0" encoding="utf-8"?>
<!-- Generator: Adobe Illustrator 21.1.0, SVG Export Plug-In . SVG Version: 6.00 Build 0)  -->
<svg version="1.1" id="Warstwa_1" xmlns="http://www.w3.org/2000/svg" xmlns:xlink="http://www.w3.org/1999/xlink" x="0px" y="0px"
	 viewBox="0 0 792 792" style="enable-background:new 0 0 792 792;" xml:space="preserve">
<style type="text/css">
	.st0{fill:#EAAB11;}
	.st1{fill:#FFFF00;}
	.st2{fill:#00548C;}
	.st3{fill:#0094FF;}
	.st4{fill:#004574;}
	.st5{fill:#31ACFF;}
</style>
<g>
	<polygon class="st0" points="108.4,56.3 735.4,36 737,66.7 521.3,424.8 738.8,398.2 740.3,428.8 690.9,716 77,756 75.5,725.3 
		234.4,340.1 53.2,351.9 51.7,321.2 	"/>
	<polygon class="st1" points="247.5,308.5 51.7,321.2 108.4,56.3 735.4,36 499.7,427.4 738.8,398.2 689.4,685.4 75.5,725.3 	"/>
	<polygon class="st2" points="281.3,284.2 79.3,297.3 126.3,77.7 695.7,59.3 457.6,454.7 712,423.6 670.6,664.5 109.3,701.1 	"/>
	<polygon class="st3" points="134.9,682.8 306.8,265.9 100.2,279.3 139.8,93.9 665.7,76.9 425.8,475.4 691.9,442.8 656.5,648.8 	"/>
	<path class="st4" d="M629.8,90.9c5.4,1,8.9,6.2,7.8,11.6c-1,5.4-6.2,8.9-11.6,7.8s-8.9-6.2-7.8-11.6
		C619.3,93.4,624.5,89.9,629.8,90.9L629.8,90.9z"/>
	<path class="st2" d="M630.7,92.4c4.2,0.8,6.9,4.9,6.1,9c-0.8,4.2-4.9,6.9-9,6.1c-4.2-0.8-6.9-4.9-6.1-9
		C622.5,94.3,626.5,91.6,630.7,92.4L630.7,92.4z"/>
	<path class="st4" d="M162.4,103.5c5.4,1,8.9,6.2,7.8,11.6c-1,5.4-6.2,8.9-11.6,7.8c-5.4-1-8.9-6.2-7.8-11.6
		C151.8,106,157,102.5,162.4,103.5L162.4,103.5z"/>
	<path class="st2" d="M163.3,105c4.2,0.8,6.9,4.9,6.1,9c-0.8,4.2-4.9,6.9-9,6.1c-4.2-0.8-6.9-4.9-6.1-9
		C155.1,106.9,159.1,104.1,163.3,105L163.3,105z"/>
	<path class="st4" d="M130.4,248.6c5.4,1,8.9,6.2,7.8,11.6c-1,5.4-6.2,8.9-11.6,7.8c-5.4-1-8.9-6.2-7.8-11.6
		C119.8,251.1,125,247.6,130.4,248.6L130.4,248.6z"/>
	<path class="st2" d="M131.3,250.1c4.2,0.8,6.9,4.9,6.1,9c-0.8,4.2-4.9,6.9-9,6.1c-4.2-0.8-6.9-4.9-6.1-9
		C123,252,127.1,249.3,131.3,250.1L131.3,250.1z"/>
	<path class="st5" d="M269.8,355.7L134.9,682.8l521.6-34l35.4-206l-266.1,32.6l72.8-120.9c-33.5-1.5-67.7-2.3-102.5-2.3
		C352.9,352.1,310.7,353.3,269.8,355.7L269.8,355.7z"/>
	<path class="st4" d="M637.4,618.6c5.4,1,8.9,6.2,7.8,11.6c-1,5.4-6.2,8.9-11.6,7.8c-5.4-1-8.9-6.2-7.8-11.6
		C626.8,621.1,632,617.6,637.4,618.6L637.4,618.6z"/>
	<path class="st2" d="M638.3,620.1c4.2,0.8,6.9,4.9,6.1,9c-0.8,4.2-4.9,6.9-9,6.1s-6.9-4.9-6.1-9C630,622.1,634.1,619.3,638.3,620.1
		L638.3,620.1z"/>
	<path class="st4" d="M171.2,648.8c5.4,1,8.9,6.2,7.8,11.6c-1,5.4-6.2,8.9-11.6,7.8c-5.4-1-8.9-6.2-7.8-11.6
		C160.6,651.3,165.8,647.8,171.2,648.8L171.2,648.8z"/>
	<path class="st2" d="M172.1,650.3c4.2,0.8,6.9,4.9,6.1,9c-0.8,4.2-4.9,6.9-9,6.1c-4.2-0.8-6.9-4.9-6.1-9
		C163.9,652.2,167.9,649.5,172.1,650.3L172.1,650.3z"/>
	<path class="st4" d="M666.3,460.3c5.4,1,8.9,6.2,7.8,11.6c-1,5.4-6.2,8.9-11.6,7.8c-5.4-1-8.9-6.2-7.8-11.6
		C655.7,462.8,660.9,459.3,666.3,460.3L666.3,460.3z"/>
	<path class="st2" d="M667.2,461.8c4.2,0.8,6.9,4.9,6.1,9c-0.8,4.2-4.9,6.9-9,6.1c-4.2-0.8-6.9-4.9-6.1-9
		C658.9,463.7,663,461,667.2,461.8L667.2,461.8z"/>
</g>
</svg>
